<?xml version="1.0" encoding="UTF-8"?>
<svg xmlns="http://www.w3.org/2000/svg" viewBox="0 0 100 100">
  <g transform="translate(50 50) scale(1.71380) translate(-30.1100 -19.5800)">
  <path d="M53.45,32.47c-.55.24-1.02.37-1.57.45l-1.31.18h-1.2c-.52,0-1.03-.14-1.52-.29-.8-.23-1.53-.62-2.18-1.14l-.62-.57c-.98-.92-1.45-2.59-1.1-3.98.28-1.12,1.06-2.1,2.23-2.37l.11.09-.45.31c-.12.08-.31.26-.4.39l-.35.53c-.48.96-.53,2.08-.09,3.08.36.8.97,1.43,1.69,1.93s1.48.8,2.31,1.01c.88.23,1.77.28,2.68.29h.45c.44,0,.8-.01,1.3.09Z"/>
  <path d="M39.5,25.95c.58-.3,1.08-.55,1.56-.9l.77-.8c.95-1.21,1.24-2.76.8-4.24-.61-2.07-2.59-3.23-4.71-3.3l-1.34.06c1.74-1.03,4.24-.6,5.67.68,2.25,2.01,2.2,5.81-.3,7.66-.72.49-1.51.89-2.45.83Z"/>
  <path d="M34.11,24.67l-.51-.33c-.14-.09-.29-.24-.38-.37l-.46-.7-.54.7c-.43.55-1.05.95-1.74,1.11.57-.91,1.06-1.72,1.49-2.62l.77-1.95c.03-.08.16-.13.21-.11l1.19.45.55.21c-.42.14-.82.13-1.23.13-.07.44-.16.82-.3,1.21l.94.93.93.95.64.7c-.57.07-1.06-.04-1.57-.3Z"/>
  <path d="M29.75,24.18c-.09-.57-.07-.97.03-1.5-.71-.19-.95-.94-.79-1.7l1.2.73c.43-.5.89-1,1.62-1.21l-.2.72c-.2.71-.56,1.35-1,1.95l-.54.72c-.07.1-.19.19-.32.28Z"/>
  <path d="M18.92,20.87c-.08.03-.18.02-.16-.01,1.2-2.08,1.12-4.63-.55-6.25l-.48-.46-.57-.5-.44-.38c-.67-.58-1.31-1.24-1.74-2.02-1.76,1.01-3.52,1.9-5.38,2.65-.89.36-1.74.65-2.64.94l-.11.03s-.06-.07-.08-.11l11.44-6.64,2.73-1.55.89-.51s.12.07.1.09l-.09.08-.56.51-.5.44-.41.35c-1.28,1.07-2.63,2.01-4.05,2.89l-.99.62c.38.34.64.61.99.86l1.72,1.22.76.61.5.5c.89.89,1.28,2.42,1.11,3.73-.15,1.13-.65,2.13-1.52,2.91Z"/>
  <path d="M23.19,26.28c.98,1.19,2.62,1.9,4.21,1.89.03.02.07.07.11.12-2.09.6-4.53-.3-5.66-2.11-1.27-2.05-.92-4.81.89-6.41.95-.83,2.31-1.31,3.57-1.12-.03.04-.13.12-.18.13-1.12.21-2.12.78-2.86,1.64-1.42,1.65-1.51,4.13-.09,5.86Z"/>
  </g>
</svg>
