<?xml version="1.0" encoding="UTF-8"?>
<svg xmlns="http://www.w3.org/2000/svg" viewBox="0 0 100 100">
  <g transform="translate(50 50) scale(1.71594) translate(-25.5908 -19.6338)">
  <path d="M15.84,16c.51,1.81-.04,3.8-1.5,4.98v-.18c.43-.75.68-1.54.78-2.41.09-1.22-.26-2.43-1.03-3.37-.17-.2-.34-.42-.54-.59l-1.33-1.18-.68-.64c-.4-.38-.72-.84-1-1.32-1.78,1.01-3.59,1.96-5.52,2.7-.9.35-1.75.76-2.74.87l12.12-7.06,2.81-1.59c.08-.05.21-.05.29-.03l-.86.78-.47.41c-1.63,1.42-3.4,2.58-5.27,3.7l.41.39.51.43.91.65,1.1.78.45.37c.71.59,1.3,1.43,1.55,2.33Z"/>
  <path d="M23.63,21.02l2.01,2.03.49.56c-1.26.11-2.39-.59-2.9-1.75-.55.85-1.27,1.59-2.3,1.86l.63-1.03c.71-1.16,1.24-2.35,1.68-3.68l.58.18,1.17.42s.1.08.14.1l-.47.07-.73.02c-.06.38-.14.76-.3,1.21Z"/>
  <path d="M20.59,22.46l-.35.36c-.37-1.58.49-3.15,2.05-3.69-.33,1.27-.93,2.35-1.7,3.34Z"/>
  <path d="M36.77,28.66l-.36.63s-.1.05-.13.06c-.03.01,0-.11.02-.15.68-1.45.79-3.02.16-4.51-.49-1.15-1.37-2.07-2.53-2.53-.6-.24-1.23-.4-1.87-.32l-.73.08c-1.29.15-2.3,1.05-3.11,2.02l-.89,1.06-.56.63-.39.36-.35.29c-1.38,1.14-3.37,1.39-5.08.83-1.48-.48-2.6-1.48-3.15-2.94-.18-.49-.32-.99-.31-1.52v-.69c.02-2.19,2.04-3.68,1.82-3.32l-.07.11c-.62.65-1,1.46-1.16,2.34-.25,1.36.11,2.91,1.05,3.88l.22.22c.25.26.54.47.86.65,1.75.98,4.05.75,5.49-.68l.38-.38.59-.67.28-.34.48-.59.51-.56.48-.46c1.42-1.21,3.33-1.6,5.13-1.07,1.35.39,2.56,1.33,3.18,2.58s.74,2.62.42,3.91l-.4,1.09Z"/>
  <path d="M48.79,32.43c.11-.04.16.11.05.15-.87.23-1.68.46-2.55.52h-1.57s-1.15-.21-1.15-.21c-1.69-.43-3.24-1.59-3.92-3.22-.42-1-.39-2.43.16-3.34l.28-.47c.42-.55.94-.92,1.64-1.07l.1.1c-1.84.99-2.08,3.64-.77,5.14l.41.47.33.29c1.16,1.04,3.14,1.57,4.71,1.61l1.16.03,1.13.02Z"/>
  </g>
</svg>
