<?xml version="1.0" encoding="UTF-8"?>
<svg xmlns="http://www.w3.org/2000/svg" viewBox="0 0 100 100">
  <g transform="translate(50 50) scale(1.71779) translate(-28.4043 -19.4750)">
  <path d="M17.18,20.84l-.12-.03.27-.56c.87-1.79.77-3.88-.53-5.41-.3-.35-.62-.67-.97-.97l-.4-.35-.24-.2-.44-.38c-.57-.5-1.06-1.09-1.46-1.77-1.81,1.04-3.61,1.98-5.54,2.71l-1.07.41c-.44.17-1.09.37-1.53.49-.04.01-.04-.11-.01-.13l15.07-8.69c.02.16-.04.2-.13.27l-.66.6-.37.32-.31.26c-1.59,1.32-3.27,2.45-5.06,3.53.21.23.39.43.6.59l.75.57,1.68,1.2c.26.19.49.43.73.65.46.46.8.98,1.04,1.59.59,1.51.3,3.59-.74,4.7l-.57.61Z"/>
  <path d="M51.68,32.33s-.04.16-.09.18c-.81.19-1.56.48-2.38.48h-1.7s-1-.17-1-.17c-1.92-.47-3.73-1.84-4.23-3.79-.27-1.07-.07-2.34.59-3.24.41-.59.99-.98,1.69-1.11l.07.11c-1.57.82-1.99,2.93-1.2,4.47l.45.68.85.84c.28.28.64.46,1,.64.87.44,1.79.69,2.76.8l1.92.09h1.28Z"/>
  <path d="M35.55,23.66l1.28.6,1.87.91.04.95.05,1.12.05,1.53.03,3.8c-.09-.06-.11-.14-.12-.25l-.29-2.67-.4-3.72-.07-.32-5.95-2.47-3.72,6.15-7.92-4.54-.92-.53,1.23-1.47.2-.24,4.61-5.52.19-.05-1.05,1.57-1.47,2.1-1.4,1.92-1.04,1.4.61.33,1.48.78,1.71.92,2.58,1.42.79.45,1.41-2.28,2.21-3.48s.06-.15.1-.14c.05,0,.16.03.21.05l1.34.6.56.25.99.45.81.38Z"/>
  <path d="M28.43,18.26l-.46.53-.66.72-.88.94-1.19,1.19-.88.81-.43.39c-.28.21-.47.47-.87.59l1.62-2.1,1.66-2.1,1.19-1.5.73-.92.9.4,4.27,1.91,1.34.6,2.21,1c.76.34,1.48.65,2.26,1.08-.84-.08-1.55-.3-2.33-.52-2.08-.57-4.07-1.29-6.04-2.15l-1.45-.63-.77-.35c-.06-.03-.18.05-.22.09Z"/>
  </g>
</svg>
