<?xml version="1.0" encoding="UTF-8"?>
<svg xmlns="http://www.w3.org/2000/svg" viewBox="0 0 100 100">
  <g transform="translate(50 50) scale(1.72302) translate(-27.6450 -25.8450)">
  <path d="M33.69,29.38c-.45-.38-.93-.67-1.45-.91-1.83-.85-3.84-1.07-5.84-.72-1.3.23-2.5.57-3.7,1.08l-1.72.74-.88.4c-1.2.55-2.35,1.09-3.59,1.55-3.13,1.16-6.56,1.87-9.9,1.69l-.89-.05-.05,2.41-.05,1.48-.06,1.13-.07.98-.15,1.75c-.13,1.48-.41,2.89-.69,4.37l-.17.05v-.92s-.03-1.87-.03-1.87l-.02-2.62v-13.14s.02-3.11.02-3.11v-1.62s.03-1.03.03-1.03h.16s.23,1.24.23,1.24c.3,1.6.5,3.17.61,4.79l.07,1.05.06,1.13.05,1.48.05,2.11c1.38-.1,2.71-.24,4.06-.51,1.74-.36,4.05-.98,5.65-1.67l1.97-.84,1.49-.69,2.29-1.03c1.66-.75,4.19-1.51,5.96-1.49h.78c1.33.02,2.6.34,3.8.93.54.27,1.08.54,1.51.96l.79.77.5.65s.05.13.05.16c.01.04-.13,0-.16-.03l-.32-.3-.4-.34Z"/>
  <path d="M43.32,28.74l.05.18s-.14.02-.17-.02l-.27-.29-.46-.53c-.4-.46-.69-1.04-.91-1.62-.78-2.02-.69-4.35.03-6.39.27-.78.58-1.53,1.01-2.23l.74-1.23,1.33-1.84.56-.7.35-.43.8-.96.8-.96.59-.75c.81-1.01,1.49-2.08,2.14-3.2l.83-1.41.12.14-.82,2.24-.24.52-.94,1.8-.89,1.36-.65.9-.84,1.13-1.07,1.47-.55.79-.8,1.24-.47.81c-.79,1.38-1.45,3.13-1.6,4.71v1.59c.15,1.32.54,2.57,1.33,3.67Z"/>
  <path d="M40.56,33.53c-.44,1.12-1.45,2.12-2.72,2.13-.11,0-.14-.19,0-.16.44-.16.87-.32,1.14-.67l.4-.51c.92-1.17.62-3.38-.22-4.68l-.96-1.5-.68-.94-.99-1.54c-.3-.46-.49-.99-.65-1.53-.56-1.86-.18-4.02.97-5.57.53-.72,1.15-1.29,1.93-1.74l1.27-.58s.16.07.13.09l-.12.09-1.08.82-.49.49c-.36.37-.62.79-.88,1.24-.44.76-.68,1.58-.76,2.46-.13,1.41.23,2.74.99,3.9l.53.81.98,1.48.6,1.02c.47.81.76,1.69.88,2.62.11.78.01,1.54-.27,2.26Z"/>
  </g>
</svg>
