<?xml version="1.0" encoding="UTF-8"?>
<svg xmlns="http://www.w3.org/2000/svg" viewBox="0 0 100 100">
  <g transform="translate(50 50) scale(1.31557) translate(-13.7400 -40.3750)">
  <path d="M13.62,33.12l-4.4-1.54-5.33-1.93c.64-2.08,1.97-3.7,3.55-5.02l2.04-1.7c2.4-2.01,4.55-4.92,6.23-7.58-2.51-1.55-4.69-3.15-6.81-5.24,0-.04.12-.12.19-.14l15.79,9.18c-1.8-.24-3.34-.94-4.93-1.62-1.36-.58-2.62-1.28-3.91-1.99-1.51,3.53-3.61,6.61-6.52,9.08-1.48,1.26-3,2.55-3.99,4.35,2.08.92,4.02,1.79,5.98,2.84.73.39,1.42.72,2.11,1.31Z"/>
  <path d="M16.7,70.77c-.33-.15-.55-.46-.78-.75l-3-3.8-1.04-1.27-.81-.94-.79-.86-1.95-2.11c-.59-.64-1.08-1.34-1.54-2.09-1.13-1.86-1.39-4-.8-6.12l2.43-.08h4.22c.78,0,1.48.06,2.3.21l-2.3.34-5.71.66c-.31,2.37.88,4.48,2.45,6.24l.88.99c1.3,1.46,2.46,2.94,3.53,4.58s1.97,3.19,2.89,5.01Z"/>
  <path d="M6.72,49.3c1.55-.17,2.89-.88,3.91-2.03,2.38-2.66,1.72-6.81-.81-9.25-1.52-1.46-3.22-2.29-5.33-2.85v-.14c2.34.03,4.6.83,6.35,2.4,2.04,1.83,2.99,4.53,2.45,7.22-.24,1.2-.76,2.26-1.59,3.14-1.58,1.69-4.08,2.39-6.26,1.72-.04-.01-.21-.25-.15-.19l1.42-.04Z"/>
  <path d="M5.96,42.15l3.13,3.21c-1.56.22-2.98-.71-3.63-2.14-.71,1.04-1.64,2.05-2.86,2.28,1.24-1.92,2.19-3.76,2.85-5.83.07,0,.31,0,.4.04l2.01.76c-.52.12-1,.14-1.49.14l-.4,1.55Z"/>
  </g>
</svg>
