<?xml version="1.0" encoding="UTF-8"?>
<svg xmlns="http://www.w3.org/2000/svg" viewBox="0 0 100 100">
  <g transform="translate(50 50) scale(1.71748) translate(-28.4100 -18.6000)">
  <path d="M39.01,22.56c0,4.93-4,8.93-8.93,8.93s-8.93-4-8.93-8.93,4-8.93,8.93-8.93,8.93,4,8.93,8.93ZM37.93,22.56c0-4.6-3.73-8.33-8.34-8.33s-8.34,3.73-8.34,8.33,3.73,8.33,8.34,8.33,8.34-3.73,8.34-8.33Z"/>
  <path d="M18.09,18.89c-.16.3-.67.9-1.03,1.09l.3-.66c.85-1.87.74-3.89-.61-5.44-.25-.29-.52-.56-.81-.81l-.4-.35-.5-.44-.4-.36c-.53-.47-.96-1.01-1.32-1.64-1.45.84-2.88,1.57-4.38,2.24-1.23.53-2.43.98-3.7,1.37l-.12-.03s.05-.09.07-.1l15.01-8.67.05.14-.85.76-.37.31-.31.26c-1.57,1.3-3.22,2.41-5.01,3.49.43.44.87.81,1.35,1.15l1.26.88c.53.37,1.01.77,1.43,1.26.85,1,1.21,2.3,1.05,3.61-.06.5-.17.98-.4,1.42l-.27.51Z"/>
  <path d="M51.66,31.59l-2.39.52-1.89-.02-.78-.14c-.93-.17-1.95-.72-2.69-1.32-1.81-1.48-2.36-3.93-.99-5.81.78-1.07,2.07-1.14,1.61-.87-1.19.69-1.7,2.13-1.43,3.48.09.48.26.94.56,1.32l.39.49.4.41.49.39c1.35,1.08,3.52,1.37,5.28,1.37h1.48s-.03.17-.03.17Z"/>
  <path d="M29.85,22.54c-.21.42-.3.83-.37,1.31l-.05.35c-.41-.39-.66-.94-.63-1.54.02-.36.16-.73.29-1.06l.3-.72.57.21,1.34.49c-.36.21-.73.31-1.14.35l-.31.61Z"/>
  </g>
</svg>
