<?xml version="1.0" encoding="UTF-8"?>
<svg xmlns="http://www.w3.org/2000/svg" viewBox="0 0 100 100">
  <g transform="translate(50 50) scale(1.71380) translate(-25.6300 -18.5650)">
  <path d="M36.21,22.52c0,4.93-4,8.93-8.93,8.93s-8.93-4-8.93-8.93,4-8.93,8.93-8.93,8.93,4,8.93,8.93ZM35.13,22.52c0-4.6-3.73-8.33-8.34-8.33s-8.34,3.73-8.34,8.33,3.73,8.33,8.34,8.33,8.34-3.73,8.34-8.33Z"/>
  <path d="M14.26,19.93c.37-.77.68-1.47.8-2.31.16-1.15-.08-2.29-.72-3.27-.23-.36-.51-.7-.83-.98l-.76-.68-.5-.44c-.68-.6-1.3-1.22-1.74-2.02-1.76,1.01-3.49,1.89-5.34,2.64-.9.37-1.77.66-2.69.96l-.11.03s-.06-.07-.08-.11l11.44-6.64,2.68-1.52c.35-.2.65-.37,1.06-.56-.18.33-.41.49-.66.71l-.5.44-.37.31-.38.31c-1.47,1.19-3,2.2-4.67,3.22.43.44.91.83,1.41,1.19l.7.49c.62.43,1.21.85,1.73,1.4,1.48,1.55,1.66,3.89.58,5.73-.3.41-.54.85-1.06,1.12Z"/>
  <path d="M47.43,31.91l-1.4.19h-1.13c-1.03-.02-2.66-.61-3.49-1.26l-.28-.22-.43-.39-.38-.43-.43-.64c-.21-.31-.34-.7-.43-1.07-.42-1.78.38-3.89,2.25-4.33l.11.09-.45.32c-.13.09-.33.28-.43.42l-.3.45c-.72,1.36-.48,2.96.52,4.11s2.16,1.68,3.57,2c.82.19,1.63.23,2.48.24h.69c.37,0,.68-.01,1.07.09-.54.22-.99.36-1.55.44Z"/>
  <path d="M28.15,20.95c-.13.94-.49,1.87-1.11,2.62-.5.6-1.09,1.1-1.89,1.29,1.01-1.55,1.77-3.03,2.32-4.74l1.84.68-.12.12-1.04.03Z"/>
  </g>
</svg>
