<?xml version="1.0" encoding="UTF-8"?>
<svg xmlns="http://www.w3.org/2000/svg" viewBox="0 0 100 100">
  <g transform="translate(50 50) scale(1.31191) translate(-26.4560 -39.8300)">
  <path d="M34.52,40.07c0,1.18-.95,2.13-2.13,2.13s-2.13-.95-2.13-2.13.95-2.13,2.13-2.13,2.13.95,2.13,2.13ZM33.14,40.08c0-.75-.61-1.36-1.36-1.36s-1.36.61-1.36,1.36.61,1.36,1.36,1.36,1.36-.61,1.36-1.36Z"/>
  <path d="M28.99,66.28c1.45.93,2.71,2,4.02,3.11.32.27.73.55.83.93l-19.69-11.37c2.32.45,4.29,1.51,6.36,2.38l4.29,2.27,1.58-3.17c.65-1.31,1.11-2.63,1.61-4.01,1.54-5.11,1.31-8.55-1.02-13.28l-1.67-3.4c-2.95-5.99-4.07-12.7-3.22-19.34l.1-.8.03-.23s.09.07.09.12v1.32c-.02,2.03.14,3.93.41,5.95.6,4.6,2.04,8.89,4.09,13.03l1.42,2.88c.53,1.07.95,2.15,1.31,3.3,1.01,3.27.71,6.45-.3,9.69-.57,1.6-1.14,3.13-2.03,4.57l-2.15,3.51,3.95,2.53Z"/>
  <path d="M36.65,25.79c.43.21.7.69.95,1.14,1.26,2.61.39,5.65-2.32,6.8-2.16.92-4.52.39-6-1.46-2.26-2.81-1.99-7.17-1.87-10.79.1-3.21-.05-5.68-1.26-8.7-.48-1.2-1.08-2.27-1.63-3.44,1.2,1.23,1.9,2.65,2.63,4.1.74,1.7,1.19,3.42,1.33,5.27.09,1.19.08,2.34.11,3.54l.02,1.11c.04,2.43.07,5.3,1.17,7.33.45.84,1.09,1.58,1.97,1.98,1.79.83,4.02.24,5.12-1.42s.9-3.73-.2-5.46Z"/>
  <path d="M35.28,42.34c.76-.16,1.41-.44,1.83-1.08.39-.59.41-1.33.09-1.99-.28-.57-.82-1.01-1.64-1.19.49-.45,1.16-.42,1.72-.17.96.43,1.52,1.41,1.48,2.42s-.67,1.99-1.69,2.33c-.58.19-1.25.22-1.78-.31Z"/>
  </g>
</svg>
