<?xml version="1.0" encoding="UTF-8"?>
<svg xmlns="http://www.w3.org/2000/svg" viewBox="0 0 100 100">
  <g transform="translate(50 50) scale(1.71858) translate(-25.2050 -19.2000)">
  <path d="M14.4,19.44c.56-1.64.31-3.47-.82-4.74l-.3-.33-.55-.52-.64-.56-.37-.32c-.62-.55-1.21-1.16-1.63-1.91l-1.03.56-.98.53-.92.46c-1.32.66-2.65,1.25-4.05,1.69l-1.18.37.03-.15,13-7.52,2.08-1.15c-.23.41-.55.63-.87.91-1.46,1.27-3.01,2.39-4.65,3.42l-.93.59-.09.06s.04.11.06.13c.61.55,1.23,1.02,1.9,1.48,1.32.9,2.5,1.78,2.94,3.39s.06,3.26-1.03,4.49l-.5.45c0-.08.02-.19.05-.23.17-.32.35-.71.47-1.08Z"/>
  <path d="M48.48,32.28c-.85.12-1.66.27-2.53.27h-3.32c-1.11-.01-2.16-.2-3.25-.38-1.68-.28-3.29-.69-4.9-1.23l-1.42-.59c-.66-.28-1.26-.67-1.82-1.12l-.28-.22-.49-.45-.66-.72c-1.26-1.37-1.85-3.68-1.68-5.62.06-.66.31-1.49.54-2.04l.15-.06c-.59,2.45-.08,4.98,1.53,6.93.29.35.61.68.96.97,1.13.94,2.76,1.68,4.17,2.1l1.41.42c3.25.98,7.46,1.53,10.86,1.61h.52c.06.01.15.06.21.13Z"/>
  <path d="M33.1,31.78l-.02.16-1.72-1.07-1.04-.54c-2.49-1.19-5.16-1.81-7.93-1.87-1.25-.03-2.42.04-3.64.29l-.92.19s-.11-.09-.09-.11l.11-.06c1.25-.66,2.8-1.13,4.22-1.24l.44-.03h1.69c1.25.08,2.45.33,3.63.74l1.21.49c.88.35,1.68.87,2.41,1.47l.31.25.37.32.59.59.37.41Z"/>
  <path d="M22.53,22.09l1.06,1.07,1.02,1.09c-.56.07-1.05-.06-1.52-.27-.57-.29-1.03-.7-1.29-1.29l-.12-.14c-.32.49-.67.88-1.1,1.25-.36.23-.7.46-1.18.55.97-1.49,1.77-2.99,2.31-4.71l.65.23,1.18.42v.12s-1.14.07-1.14.07l-.26,1.12s.02.17.05.2l.33.29Z"/>
  </g>
</svg>
