<?xml version="1.0" encoding="UTF-8"?>
<svg xmlns="http://www.w3.org/2000/svg" viewBox="0 0 100 100">
  <g transform="translate(50 50) scale(1.72488) translate(-27.3400 -26.7350)">
  <path d="M4.17,43.51l-.02-2.66v-13.16s.02-3.11.02-3.11v-1.63s.02-.89.02-.89c0-.05.11-.18.14-.18.26,1.31.54,2.68.67,4.03l.14,1.42.06.78.06.92.07,1.2.04,1.41.06,2.12,2.52-.04.57-.03,1.06-.07c1.64-.1,3.23-.41,4.79-.93l.61-.24.99-.44.67-.37c1.14-.63,2.12-1.46,2.98-2.44l.72-.91.58-.91c.49-.78.78-1.63.98-2.53.42-1.94.14-4.18-.83-5.89-.24-.41-.47-.83-.8-1.18l-1.01-1.06c.28.03.48.16.68.32l.64.5c.47.36,1.1,1.22,1.43,1.8.85,1.51,1.2,3.2,1.09,4.93-.1,1.48-.76,3.43-1.6,4.6l-.56.78-.35.43-1.02,1.03-.38.32c-.64.54-1.33.98-2.07,1.38-1.58.85-3.38,1.39-5.16,1.53l-.78.06c-1.83.15-3.88-.06-5.74-.3l-.05,2.38-.04,1.41-.07,1.2-.06.92-.06.78-.13,1.34c-.13,1.41-.41,2.74-.67,4.12l-.15-.02v-1.14s-.03-1.59-.03-1.59Z"/>
  <path d="M27.72,14.38l-.32-.92-.04-.12s.09-.09.11-.09c.31.57.6,1.16,1.02,1.66l.32.39c.63.76,1.61,1.54,2.47,2.04,1.85,1.08,4,1.47,6.14,1.25.95-.1,1.87-.22,2.73-.57l1.61-.65,1.14-.62c.86-.47,1.65-1.04,2.34-1.75l1.03-1.08.47-.6.6-.81,1.5-2.37.79-1.41.73-1.32s.11-.13.17-.19c0,.14-.01.3-.04.38l-.68,1.88-.72,1.68-.71,1.4-.5.85-.96,1.37-.95,1.09-1.03.95c-.52.48-1.1.9-1.72,1.23l-1.39.73-1.71.62c-1.12.41-3.09.53-4.35.43s-2.89-.49-3.91-1.09l-.8-.47c-1.25-.74-2.89-2.52-3.35-3.87Z"/>
  <path d="M29.39,22.44l.62.82.85,1.34.43.84c.59,1.15.96,2.31,1.2,3.59-.02.06-.07.15-.11.18l-5.33-8.19-.7-1.15-.08-.13s.13-.09.17-.06l.68.48.51.43.4.36.61.61.42.48.34.41Z"/>
  </g>
</svg>
