<?xml version="1.0" encoding="UTF-8"?>
<svg xmlns="http://www.w3.org/2000/svg" viewBox="0 0 100 100">
  <g transform="translate(50 50) scale(1.71527) translate(-28.4500 -18.4200)">
  <path d="M17.1,19.7c1.15-2,1.17-4.29-.35-6.02-.25-.28-.5-.54-.78-.78l-.5-.44-.47-.41-.43-.39c-.49-.44-.89-.96-1.23-1.56-2.59,1.47-5.28,2.79-8.21,3.63.1-.22.28-.28.45-.38l1.02-.61,3.83-2.24,2.78-1.61.52-.3,3.74-2.14,2.81-1.57c-.2.4-.53.62-.85.9-1.79,1.57-3.64,2.83-5.71,4.1l.58.56.27.22.69.5,1.57,1.13.3.26c1.46,1.24,2.03,3.12,1.51,4.97-.17.59-.4,1.18-.82,1.62l-.67.69-.04-.13Z"/>
  <path d="M37.15,28.19c-1.3.1-2.35-.58-2.9-1.72l-.19.26-.39.49-.31.31c-.38.38-.85.64-1.4.77.58-.91,1.11-1.75,1.53-2.71l.32-.74.47-1.29.76.28,1.15.42c-.44.13-.81.13-1.23.12l-.29,1.23,1.8,1.81.27.29.42.48Z"/>
  <path d="M29.21,22.18l.23.29c-1.34.04-2.34-.58-2.91-1.76-.29.42-.55.79-.91,1.09l-.24.2c-.36.24-.68.43-1.14.55l.31-.51.29-.46.5-.88c.52-.92.89-1.85,1.21-2.88l.98.36.94.34c-.44.14-.84.12-1.23.12l-.29,1.26.58.55.81.82.88.91Z"/>
  <path d="M23.53,20.2c-.15-.11-.44-.25-.54-.39-.28-.4-.34-.84-.23-1.35l.59.34.62.39c.42-.52.89-.99,1.62-1.22-.34,1.39-1.06,2.61-1.98,3.67-.24-.26-.12-.89-.08-1.43Z"/>
  <path d="M39.05,28.14c.66-1.38.82-2.76.35-4.23-.68-2.1-2.65-3.44-4.86-3.2-.59.06-1.15.19-1.66.46-.46.24-.87.54-1.21.92l-1.09,1.22-.31.38-.32.37-.55.58c-1.44,1.5-3.63,1.97-5.63,1.32-.85-.27-1.76-.82-2.32-1.5-.39-.47-.68-.98-.88-1.57-.15-.44-.27-.9-.27-1.38v-.7c0-1.14.7-2.58,1.68-3.34.08-.07.15.05.09.11-.64.66-1,1.44-1.16,2.31-.31,1.6.19,3.18,1.41,4.26s3.13,1.41,4.72.8c.85-.32,1.6-1,2.18-1.7l.71-.86.31-.38.32-.37.53-.53.34-.29.6-.41c2.61-1.51,6.09-.63,7.5,2.04.9,1.71.79,4.06-.35,5.69l-.13-.02Z"/>
  <path d="M49.98,31.24h.72c.36.01.7-.02,1.07.11-.98.33-1.9.54-2.88.61h-1.2s-.76-.1-.76-.1c-2.41-.34-4.94-2.43-4.78-5.11.05-.82.32-1.59.85-2.21.38-.45.85-.76,1.43-.9l.14.04s-.05.08-.08.1l-.5.37c-.44.33-.67.84-.83,1.36-.37,1.19-.1,2.44.7,3.39l.78.78.83.56c.43.29.91.44,1.41.6.99.31,2.01.39,3.09.41Z"/>
  </g>
</svg>
