<?xml version="1.0" encoding="UTF-8"?>
<svg id="Layer_1" xmlns="http://www.w3.org/2000/svg" version="1.1" viewBox="0 0 100 100">
  <!-- Generator: Adobe Illustrator 30.3.0, SVG Export Plug-In . SVG Version: 2.1.3 Build 182)  -->
  <path d="M70.42,57.81c0,9.76-7.92,17.67-17.67,17.67s-17.67-7.92-17.67-17.67,7.92-17.67,17.67-17.67,17.67,7.92,17.67,17.67ZM68.28,57.81c0-9.1-7.38-16.48-16.5-16.48s-16.5,7.38-16.5,16.48,7.38,16.48,16.5,16.48,16.5-7.38,16.5-16.48Z"/>
  <path d="M27.49,51.57c1.76-3.54,1.58-7.74-1.01-10.78-.59-.69-1.23-1.33-1.92-1.92l-.79-.69-1.25-1.11c-1.17-1.03-2.16-2.14-2.97-3.56l-2.39,1.33-1.8.95-1.48.75c-2.35,1.19-4.71,2.22-7.2,3.07l-1.66.57-1.44.46s-.22-.06-.26-.08c-.06-.02.1-.16.16-.2l5.62-3.3,8.77-5.11,1.19-.67,6.79-3.88,7.2-4.08.22-.08s.12.14.08.18l-.16.16-1.37,1.27-.71.63-2,1.62c-2.77,2.26-5.7,4.12-8.77,6,.4.42.69.75,1.07,1.03l1.11.87,3.21,2.26c1.27.89,3.03,2.53,3.6,3.8l.59,1.29c.55,1.25.61,2.65.49,4.02-.16,1.9-.83,3.66-2.04,5.13l-1.19,1.23-.18-.16.47-.97h.02Z"/>
  <path d="M95.69,75.48c-.93.49-1.74.67-2.67.83l-2.63.46-2.99-.04c-1.21,0-2.41-.38-3.52-.77-1.84-.67-3.44-1.74-4.79-3.15l-.61-.75c-2.32-2.79-2.43-7.3.04-10.15.79-.83,1.68-1.39,2.85-1.64l.2.2c-3.01,1.62-3.88,5.54-2.51,8.57.28.63.67,1.31,1.17,1.8l1.42,1.42c2.51,2.1,5.94,2.93,9.18,3.11h2.3l2.61.16-.04-.04Z"/>
  <path d="M53.38,57.85c-.22.97-.93,1.68-1.82,1.7-.69,0-1.23-.12-1.86-.36l1.07-1.19c.49-.53.83-1.03,1.19-1.8l1.09.4,2.65.97c-.77.28-1.56.28-2.34.26l.02.02Z"/>
</svg>