<?xml version="1.0" encoding="UTF-8"?>
<svg xmlns="http://www.w3.org/2000/svg" viewBox="0 0 100 100">
  <g transform="translate(50 50) scale(1.71343) translate(-25.6150 -19.1750)">
  <path d="M14.26,20.51c1.2-2.11,1.18-4.66-.53-6.32l-.48-.46-.6-.53-.47-.41c-.65-.58-1.26-1.19-1.67-1.96-1.52.86-3,1.64-4.59,2.32-1.2.51-2.36.96-3.65,1.31.17-.25.4-.33.61-.46l.7-.42,3.44-2.01,2.77-1.61.28-.16,4.86-2.78,2.41-1.36.14.05-.47.44-.43.38-.51.44c-1.16,1-2.38,1.88-3.68,2.7l-1.41.88-.05.15c.65.59,1.3,1.08,2.02,1.56.64.43,1.24.87,1.77,1.42,1.34,1.4,1.63,3.47.84,5.23-.25.55-.8,1.39-1.31,1.59Z"/>
  <path d="M35.03,25.51c.64-.3,1.17-.56,1.68-1,2.03-1.76,2.23-4.83.34-6.76-.58-.56-1.27-.96-2.06-1.2-.93-.33-1.85-.25-2.9-.19,1.74-1.04,4.24-.61,5.67.67,1.11.99,1.66,2.4,1.63,3.89-.04,1.87-1.11,3.51-2.8,4.28l-.96.3c-.18.06-.39.06-.61,0Z"/>
  <path d="M47.71,32.44l-1.61.25h-1.2s-1.43-.26-1.43-.26c-.88-.24-1.72-.63-2.37-1.25l-.49-.46c-1.01-.94-1.47-2.55-1.15-3.96.26-1.13,1.18-2.34,2.38-2.4-.12.12-.2.19-.32.27-1.35.92-1.66,2.92-.9,4.32s2.24,2.29,3.8,2.71c.92.24,1.83.3,2.78.31h.63c.39,0,.71,0,1.13.09-.46.2-.83.31-1.27.38Z"/>
  <path d="M19.22,26.39c1.07.91,2.36,1.37,3.75,1.36.02.02.09.08.07.09l-.11.06c-.94.24-1.87.19-2.8-.07-1.38-.49-2.46-1.29-3.06-2.65-.72-1.6-.58-3.46.41-4.92.77-1.15,2.11-1.96,3.48-2.05l.89.02c-.05.06-.13.13-.19.14-1.79.34-3.27,1.6-3.78,3.36s-.01,3.45,1.34,4.67Z"/>
  <path d="M27.79,20.51c-.07.42-.1.8-.28,1.17l-.43.89-.47.66c-.43.6-1.09.99-1.83,1.21l1.09-1.82.22-.41c.4-.82.71-1.61,1.03-2.51l.66.24,1.23.44c-.06.03-.24.1-.32.11l-.57.03h-.33Z"/>
  <path d="M29.27,23.21c-.13.42-.37.76-.79.84-.36.06-.7,0-1.07-.17l.52-.57.26-.31.36-.62,1.72.63c.13-.03.12.12.01.15l-1.01.05Z"/>
  </g>
</svg>
