<?xml version="1.0" encoding="UTF-8"?>
<svg xmlns="http://www.w3.org/2000/svg" viewBox="0 0 100 100">
  <g transform="translate(50 50) scale(1.71343) translate(-28.4350 -19.0100)">
  <path d="M17.06,20.38c.37-.77.68-1.47.8-2.31.16-1.15-.08-2.29-.72-3.27-.23-.36-.51-.7-.83-.98l-.76-.68-.5-.44c-.68-.6-1.3-1.22-1.74-2.02-1.76,1.01-3.49,1.89-5.34,2.64-.9.37-1.77.66-2.69.96l-.11.03s-.06-.07-.08-.11l11.44-6.64,2.68-1.52c.35-.2.65-.37,1.06-.56-.18.33-.41.49-.66.71l-.5.44-.37.31-.39.31c-1.36,1.1-2.79,2.06-4.28,2.98l-.41.25c.46.44.91.82,1.42,1.18l.7.49c.62.43,1.21.85,1.73,1.4,1.48,1.55,1.66,3.89.58,5.73-.3.41-.54.86-1.06,1.12Z"/>
  <path d="M50.23,32.35l-1.4.19h-1.13c-1.03-.02-2.66-.61-3.49-1.26l-.28-.22-.43-.39-.38-.43-.43-.64c-.21-.32-.33-.7-.43-1.07-.43-1.73.39-3.89,2.25-4.34l.11.1-.45.31c-.13.09-.33.28-.43.42l-.3.46c-.48.92-.55,2-.16,2.98.35.87.98,1.54,1.75,2.07s1.6.85,2.51,1.06c.82.19,1.63.23,2.48.24h.69c.37,0,.68-.01,1.07.09-.54.22-.99.36-1.55.44Z"/>
  <path d="M38.87,31.95c0,.11-.15.14-.12,0l-.27-2.47-.29-2.64-.18-1.7-1.08-.45-4.91-2.04-3.71,6.13-.6-.33-7.47-4.29-.78-.45.27-.33.28-.34.49-.58.4-.48.31-.37.34-.41,1.37-1.64,2.05-2.46.34-.41.3-.35.03.17c-1.57,2.36-3.17,4.61-4.91,6.91l1.22.64,5.95,3.24.36-.55.63-1,1.37-2.2,1.4-2.17.73.33.82.37.61.27,1.03.47.98.46,2.04.97.83.4.04.98.05,1.06.05,1.53.04,3.7Z"/>
  <path d="M28.09,19.75c-.13.94-.46,1.78-1.02,2.51-.51.66-1.16,1.22-2.01,1.41,1.04-1.51,1.8-3.08,2.35-4.75l1.91.71c-.42.13-.76.13-1.23.12Z"/>
  </g>
</svg>
