<?xml version="1.0" encoding="UTF-8"?>
<svg xmlns="http://www.w3.org/2000/svg" viewBox="0 0 100 100">
  <g transform="translate(50 50) scale(1.71637) translate(-25.6050 -18.9331)">
  <path d="M35.94,25.54l.05,1.1.05,1.53.03,3.79c-.07,0-.13-.06-.12-.12l-.47-4.37-.26-2.42-5.98-2.49-3.72,6.15-8.82-5.06.19-.26.41-.49,4.83-5.79.35-.42.38-.42c-.02.22-.08.29-.18.43l-.71,1.06-4.01,5.59,2.68,1.42.81.44.86.46,2.82,1.57,2.48-3.98.98-1.53.28-.43,3.02,1.37,2.17,1.02,1.23.59.61.3.04.96Z"/>
  <path d="M15.59,18.63c-.25.57-.8,1.39-1.33,1.64.28-.6.51-1.08.68-1.68.43-1.58.07-3.23-1.02-4.45l-.52-.54-.39-.36-.47-.41-.44-.38c-.62-.54-1.17-1.15-1.58-1.87-1.5.86-2.98,1.66-4.55,2.3l-1.34.55-.69.26-1.52.5-.12-.05s.05-.08.08-.09l14.95-8.64.16.04-.38.36-.5.44-.44.38-.41.34c-1.52,1.27-3.14,2.33-4.85,3.37.32.42.88.84,1.32,1.15l1.29.9.7.55c.52.41.93.92,1.25,1.51.69,1.27.69,2.84.11,4.17Z"/>
  <path d="M29.76,19.2l-.97-.39-1.49-.64-1.55-.68-.65.74-.3.33-.39.43c-.82.9-1.65,1.76-2.56,2.57l-.6.53-.82.7-.13-.06,1.8-2.3.5-.63,2.87-3.62,3.68,1.64,1.07.49.65.29,1.12.5.65.29,1.38.62.69.32.73.33.82.37.11.05s-.04.1-.05.11l-1.95-.47c-1.57-.44-3.08-.93-4.62-1.54Z"/>
  <path d="M48.9,31.74l-.03.15c-1.65.47-3.03.74-4.71.44-1.1-.2-2.11-.64-2.98-1.35l-.84-.85c-.69-.7-1.02-1.99-.95-3.07.06-.84.47-1.73,1.08-2.3.38-.35.83-.67,1.41-.63-.77.47-1.28,1.08-1.5,1.91-.35,1.27-.02,2.54.86,3.5.28.31.56.62.93.83l1.03.59,1.4.48c.89.22,1.78.26,2.69.27h1.13s.49.02.49.02Z"/>
  <path d="M24.96,23.79l-.68.99c-.43-1.93.76-3.74,2.57-4.25l.05.13-1.93,3.14Z"/>
  </g>
</svg>
