<?xml version="1.0" encoding="UTF-8"?>
<svg xmlns="http://www.w3.org/2000/svg" viewBox="0 0 100 100">
  <g transform="translate(50 50) scale(1.71597) translate(-28.3996 -19.1900)">
  <path d="M38.86,25.01c.9-.48,1.51-1.28,1.91-2.19.42-.96.48-2,.23-3.03-.45-1.77-1.88-2.9-3.63-3.33-.75-.14-1.49-.17-2.26-.04l-.13-.03s.04-.08.07-.1c1.28-.58,2.69-.61,4-.11,1.27.46,2.24,1.39,2.76,2.64,1.04,2.52.01,5.43-2.55,6.48-.46.19-.92.32-1.44.28l1.06-.57Z"/>
  <path d="M50.17,32.02h1.54s-.07.17-.07.17c-.79.19-1.56.49-2.37.49h-1.88s-1.14-.22-1.14-.22l-1.01-.38c-.57-.21-1.05-.59-1.5-1-.72-.65-1.25-1.45-1.48-2.41-.31-1.27.05-2.69.99-3.63.65-.65,1.65-.77,1.3-.52l-.48.35c-.32.23-.71.86-.85,1.32-.32,1.03-.21,2.13.37,3.04l.46.61.4.41.46.37.77.48c.86.45,1.78.7,2.74.82l1.76.1Z"/>
  <path d="M17.72,18.92c.43-1.59.09-3.22-.98-4.45-.24-.28-.5-.54-.78-.78l-.44-.38-.37-.32-.31-.26c-.61-.56-1.12-1.11-1.55-1.85-1.45.83-2.87,1.56-4.38,2.23-1.23.53-2.43.98-3.7,1.37-.04,0-.13-.02-.12-.03l.06-.09,2.6-1.53,1.94-1.13,1.62-.94,2.31-1.33,4.42-2.53,2.03-1.15.14-.05s.03.11,0,.13l-.23.2-.6.54-.37.32-.38.31-.56.45c-1.39,1.12-2.85,2.06-4.41,3.01.42.44.86.81,1.34,1.15l1.26.87c.52.38,1.01.77,1.43,1.27,1.23,1.47,1.41,3.5.56,5.2-.26.51-.74,1.16-1.23,1.44.27-.59.5-1.05.67-1.66Z"/>
  <path d="M22.49,26.8c1.01.66,2.09,1.01,3.29.99.24.15-.66.31-1.19.31-1.14,0-2.15-.31-3.07-.93s-1.59-1.53-1.89-2.62c-.54-1.93.02-3.98,1.57-5.27.95-.76,2.1-1.14,3.32-1.05l.11.05s-.02.07-.03.09c-1.19.21-2.25.8-3.03,1.73-1.13,1.36-1.39,3.26-.65,4.86l.35.6c.29.51.75.87,1.23,1.24Z"/>
  <path d="M30.5,21.43l-.47,1c-.18.38-.19.81-.21,1.29-.65-.57-.84-1.47-.51-2.26l.44-1.09,1.66.61.22.1c-.23.12-.39.2-.57.23l-.57.1Z"/>
  </g>
</svg>
