<?xml version="1.0" encoding="UTF-8"?>
<svg xmlns="http://www.w3.org/2000/svg" viewBox="0 0 100 100">
  <g transform="translate(50 50) scale(1.31492) translate(-18.7950 -39.2800)">
  <path d="M10.79,27.9c1.98.86,3.77,1.66,5.6,2.62.88.46,1.7.88,2.57,1.5-.98-.26-1.85-.58-2.82-.93l-7-2.53c.78-2.55,2.56-4.27,4.54-5.83,3.02-2.38,5.27-5.22,7.32-8.47-2.46-1.5-4.95-3.24-6.93-5.4.59.2.99.43,1.52.74l14.62,8.48c-1.85-.21-3.38-1.01-5.02-1.62-1.31-.63-2.56-1.27-3.86-2-1.09,2.56-2.5,4.9-4.35,6.95-.59.65-1.15,1.26-1.81,1.82l-1.36,1.16c-1.12.96-2.3,2.16-3.01,3.52Z"/>
  <path d="M19.81,40.86c-.04,3.58-3.14,6.36-6.65,6.07-2.89-.23-5.37-2.4-5.71-5.25-.07-.58-.11-1.23-.01-1.82l.09-.57c.53-2.28,2.28-4,4.53-4.58,3.49-.9,6.91,1.26,7.65,4.78l1.32.07c1.03.06,2.05.23,3.04.5.58.16,1.1.31,1.66.72l-5.91.07ZM18.46,40.86l-4.81-.05s-.1-.11-.07-.13l.16-.11c1.47-.58,2.93-.94,4.59-1.04-.74-3.04-3.58-4.85-6.6-4.16-2.22.55-3.87,2.31-4.18,4.6-.19,1.41.17,2.93,1.04,4.06,1.59,2.07,4.38,2.79,6.75,1.66,1.88-.91,3.05-2.77,3.13-4.84Z"/>
  <path d="M15.53,60.06c2.73,3.03,4.63,6.02,6.49,9.64l-.28-.11-.6-.76-2.66-3.37c-1.35-1.71-2.75-3.27-4.26-4.85-1.91-2-3.46-4.29-3.25-7.12l.28-1.76,2.19-.07c1.6-.05,3.18-.07,4.77,0,.67.03,1.26.06,2.01.21l-2.33.34-5.65.65c-.39,3,1.39,5.08,3.3,7.21Z"/>
  </g>
</svg>
