<?xml version="1.0" encoding="UTF-8"?>
<svg xmlns="http://www.w3.org/2000/svg" viewBox="0 0 100 100">
  <g transform="translate(50 50) scale(1.72497) translate(-27.3387 -25.8100)">
  <path d="M34.21,20.83c0,1.14-.92,2.07-2.07,2.07s-2.07-.92-2.07-2.07.92-2.07,2.07-2.07,2.07.92,2.07,2.07ZM32.87,20.83c0-.72-.58-1.31-1.31-1.31s-1.31.58-1.31,1.31.58,1.31,1.31,1.31,1.31-.58,1.31-1.31Z"/>
  <path d="M34.2,29.85c0,1.14-.92,2.06-2.07,2.06s-2.07-.92-2.07-2.06.92-2.06,2.07-2.06,2.07.92,2.07,2.06ZM32.87,29.86c0-.72-.58-1.31-1.31-1.31s-1.31.58-1.31,1.31.58,1.31,1.31,1.31,1.31-.58,1.31-1.31Z"/>
  <path d="M16.41,32.46c-.97.38-1.93.59-2.93.78-2.62.5-5.42.55-8.04.04l-.05,2.28-.05,1.41-.06,1.2-.07.99-.06.71-.15,1.48c-.13,1.34-.39,2.61-.64,3.94l-.16.05v-.98s-.03-1.81-.03-1.81l-.02-2.62v-13.16s.02-3.11.02-3.11v-1.62s.02-.96.02-.96l.15-.1c.27,1.4.53,2.7.67,4.09l.12,1.27.07.85.06.91.06,1.2.05,1.41.05,2.12.7-.03.78-.04,2.16-.17c2.53-.2,6.68-1.03,9.17-1.74l1.76-.5c.39-.11.71-.23,1.14-.3-.35.33-.64.52-1,.73-.66.39-1.32.77-2.04,1.05l-1.7.66Z"/>
  <path d="M40.35,21.27l-.05.13c-.88.12-1.51.63-1.98,1.35-.67,1.02-.52,2.41.48,3.26.42.36.96.53,1.51.6,1.21.16,2.38-.63,2.75-1.74.2-.59.35-1.19.35-1.81l.02-2.05c.02-1.54.19-3.04.62-4.51l.72-2.03.43-.91.46-.87.68-1.08,1.23-1.59.43-.49.37-.41.32-.38.39-.46.67-.87.76-1.13c.02.08.03.29-.01.38l-.38.84-.39.73-.89,1.37-.64.92c-.48.69-.96,1.36-1.33,2.11l-.65,1.33c-.36.74-.59,1.5-.81,2.3-.43,1.54-.66,3.11-.68,4.71l-.02,1.49c-.01,1.35-.32,3.11-1.25,4.05l-.35.36c-.33.33-.75.56-1.2.7-.39.12-.82.14-1.23.14-1.47,0-2.84-.92-3.33-2.28-.31-.87-.18-2.03.36-2.7l.44-.55c.52-.65,1.3-.95,2.21-.89Z"/>
  <path d="M27.2,26.56c0,1.14-.92,2.07-2.07,2.07s-2.07-.92-2.07-2.07.92-2.07,2.07-2.07,2.07.92,2.07,2.07ZM25.86,26.56c0-.72-.59-1.31-1.31-1.31s-1.31.59-1.31,1.31.59,1.31,1.31,1.31,1.31-.59,1.31-1.31Z"/>
  </g>
</svg>
