<?xml version="1.0" encoding="UTF-8"?>
<svg id="Layer_1" xmlns="http://www.w3.org/2000/svg" version="1.1" viewBox="0 0 100 100">
  <!-- Generator: Adobe Illustrator 30.3.0, SVG Export Plug-In . SVG Version: 2.1.3 Build 182)  -->
  <path d="M70.89,57.85c0,9.74-7.9,17.64-17.64,17.64s-17.64-7.9-17.64-17.64,7.9-17.64,17.64-17.64,17.64,7.9,17.64,17.64ZM68.76,57.83c0-9.08-7.37-16.45-16.47-16.45s-16.47,7.37-16.47,16.45,7.37,16.45,16.47,16.45,16.47-7.37,16.47-16.45Z"/>
  <path d="M27.92,52.58h-.36c2.59-4.56,2.21-9.5-1.68-13l-.65-.59-.85-.75-.99-.87c-1.26-1.13-2.43-2.31-3.24-3.81-4.09,2.35-8.18,4.46-12.58,6l-1.86.65-1.54.49s-.2-.14-.2-.2l29.92-17.26c-.18.65-.79,1.01-1.24,1.42l-.99.87-.73.63-.75.61c-2.9,2.35-5.92,4.36-9.2,6.34,2.19,2.41,5.27,3.69,7.56,6.08,3.57,3.73,3.32,9.84-.57,13.37h-.06Z"/>
  <path d="M93.74,75.35l2.07.04s.24.2.2.22l-.26.1-2.75.69-2.59.36h-2.37c-.99,0-1.97-.28-2.9-.55-1.76-.49-3.36-1.36-4.72-2.55-2.53-2.19-3.83-5.17-3.1-8.49.24-1.11.75-2.13,1.44-3l.87-.87c.57-.57,1.32-.79,2.13-1.05l.22.24c-.55.34-1.01.57-1.38,1.03l-.61.75c-.41.51-.65,1.13-.83,1.76-.73,2.41-.14,4.92,1.48,6.81,1.78,2.07,4.05,3.26,6.71,3.93,1.74.43,3.5.53,5.29.57h1.11l-.02.02Z"/>
  <path d="M57.29,60.69l1.46,1.58c-2.59.22-4.7-1.17-5.79-3.42l-.91,1.22c-.87,1.17-2.13,2.03-3.61,2.41.91-1.46,1.72-2.75,2.45-4.19.87-1.66,1.52-3.38,2.15-5.17l3.73,1.38c-.87.3-1.68.26-2.43.26-.1.81-.28,1.6-.55,2.35.04.06.2.28.28.34l3.24,3.26-.02-.02Z"/>
  <path d="M49.33,58.84l-.69-1.82-.89-3.26c.47-.22,1.4.28,1.9.65.75.55.99,1.42.93,2.31-.22.81-.43,1.42-1.22,2.11h-.02Z"/>
</svg>