<?xml version="1.0" encoding="UTF-8"?>
<svg xmlns="http://www.w3.org/2000/svg" viewBox="0 0 100 100">
  <g transform="translate(50 50) scale(1.31234) translate(-14.2850 -39.7900)">
  <path d="M9.44,32.75c-.41-.12-.74-.51-1.03-.91-.59-.83-.92-1.79-1.01-2.82-.21-2.33.69-4.18,1.93-6.1l2.14-2.7c1.41-1.78,2.76-3.56,4-5.45-1.87-1.13-3.5-2.3-5.11-3.65-.6-.58-1.28-1.05-1.71-1.81l16.02,9.27c-2.07-.26-3.78-1.17-5.61-1.89l-3.21-1.7c-1.08,2.85-2.69,5.15-4.55,7.59-1.36,1.78-2.59,3.58-2.93,5.82-.2,1.54.14,2.92,1.06,4.35Z"/>
  <path d="M7.85,46.77c-.99,1.17-1.8,2.33-2.73,3.57.92-3.06,2.88-5.52,5.25-7.47l2.54-1.64c-3.55-1.15-6.5-3.79-8.1-7.08-.43-.88-.78-1.78-.91-2.75.89,1.48,1.62,2.81,2.72,4.01,1.31,1.47,2.77,2.68,4.52,3.6.9.48,1.85.82,2.83,1.12l2.67.82-3.12,1.54c-1.58.78-3.04,1.7-4.3,2.93l-1.36,1.34Z"/>
  <path d="M16.46,70.27c-.52-.27-.73-.67-1.08-1.02l-2.9-3.57-.46-.53-1.2-1.33c-2.88-3.21-3.69-8.08-1.7-11.89.24-.45.52-.86.89-1.25-.43,1.38-.82,2.58-.88,3.99-.12,2.62.51,5.17,1.98,7.32l1.34,1.74.77.98c1.21,1.79,2.27,3.6,3.23,5.56Z"/>
  </g>
</svg>
