<?xml version="1.0" encoding="UTF-8"?>
<svg xmlns="http://www.w3.org/2000/svg" viewBox="0 0 100 100">
  <g transform="translate(50 50) scale(1.71699) translate(-25.5934 -19.4800)">
  <path d="M14.71,20.53c-.13.15-.28.27-.45.35.26-.58.49-1.05.66-1.62.45-1.58.11-3.24-.97-4.48-.25-.29-.52-.56-.81-.81l-.4-.35-.5-.44-.43-.39c-.51-.46-.93-1-1.29-1.61-1.77,1.01-3.52,1.96-5.4,2.66l-1.7.63-.97.3s-.13-.02-.15-.02.06-.09.08-.1l15.07-8.7c0,.25-.21.36-.36.49l-.5.45-.37.32-.34.28-1.34,1.04c-1.15.9-2.35,1.63-3.64,2.42.42.43.86.81,1.34,1.14l1.26.88c.52.36.99.75,1.4,1.23,1.24,1.42,1.44,3.46.64,5.15-.12.25-.25.5-.42.71l-.39.46Z"/>
  <path d="M48.78,32.52l-2.24.49h-1.95s-.47-.09-.47-.09c-1.53-.26-3.07-1.15-3.96-2.43-.71-1.01-.95-2.15-.68-3.36.08-.38.21-.76.43-1.07l.37-.52.3-.28c.29-.27,1.18-.72,1.26-.47-.69.4-1.19,1-1.43,1.76-.4,1.31-.08,2.67.87,3.63l.37.38.45.37.77.48c.76.47,1.64.66,2.53.79l1.88.13h1.61s-.05.18-.12.19Z"/>
  <path d="M35.94,26.12l.05,1.12.05,1.48.03,3.84c-.07,0-.13-.07-.12-.12l-.33-3.08-.26-2.32-.15-1.42-5.99-2.49-3.72,6.15-8.81-5.06.38-.49.23-.28,3.16-3.78.35-.41.4-.48,1.58-1.89.09.09c-1.21,1.83-2.42,3.57-3.71,5.32l-1.22,1.64,1.06.55,1.14.61,2.16,1.16,2.81,1.56.96-1.55,2.77-4.38.96.44,1.21.54.94.43.77.36,2.07.99,1.07.52.04.94Z"/>
  <path d="M26.26,23.84l.23.26c-1.26.13-2.35-.57-2.9-1.71l-.36.49c-.47.63-1.12,1.16-1.93,1.33.69-1.09,1.34-2.1,1.77-3.25l.55-1.47,1.45.53.41.13s-.05.12-.08.12l-1.09.06-.3,1.21,2.08,2.09.18.22Z"/>
  </g>
</svg>
