<?xml version="1.0" encoding="UTF-8"?>
<svg id="Layer_1" xmlns="http://www.w3.org/2000/svg" version="1.1" viewBox="0 0 100 100">
  <!-- Generator: Adobe Illustrator 30.3.0, SVG Export Plug-In . SVG Version: 2.1.3 Build 182)  -->
  <path d="M33.27,43.76c.88,3.11-.07,6.52-2.57,8.55v-.31c.74-1.29,1.17-2.64,1.34-4.14.15-2.09-.45-4.17-1.77-5.78-.29-.34-.58-.72-.93-1.01l-2.28-2.02-1.17-1.1c-.69-.65-1.24-1.44-1.72-2.27-3.05,1.73-6.16,3.36-9.47,4.63-1.54.6-3,1.3-4.7,1.49l20.8-12.11,4.82-2.73c.14-.09.36-.09.5-.05l-1.48,1.34-.81.7c-2.8,2.44-5.83,4.43-9.04,6.35l.7.67.88.74,1.56,1.12,1.89,1.34.77.63c1.22,1.01,2.23,2.45,2.66,4l.02-.03Z"/>
  <path d="M69.18,65.49l-.62,1.08s-.17.09-.22.1c-.05.02,0-.19.03-.26,1.17-2.49,1.36-5.18.27-7.74-.84-1.97-2.35-3.55-4.34-4.34-1.03-.41-2.11-.69-3.21-.55l-1.25.14c-2.21.26-3.95,1.8-5.34,3.47l-1.53,1.82-.96,1.08-.67.62-.6.5c-2.37,1.96-5.78,2.39-8.72,1.42-2.54-.82-4.46-2.54-5.41-5.04-.31-.84-.55-1.7-.53-2.61v-1.18c.03-3.76,3.5-6.31,3.12-5.7l-.12.19c-1.06,1.12-1.72,2.51-1.99,4.02-.43,2.33.19,4.99,1.8,6.66l.38.38c.43.45.93.81,1.48,1.12,3,1.68,6.95,1.29,9.42-1.17l.65-.65,1.01-1.15.48-.58.82-1.01.88-.96.82-.79c2.44-2.08,5.71-2.75,8.8-1.84,2.32.67,4.39,2.28,5.46,4.43s1.27,4.5.72,6.71l-.69,1.87.03-.02Z"/>
  <path d="M89.81,71.96c.19-.07.27.19.09.26-1.49.39-2.88.79-4.38.89h-2.69l-1.97-.36c-2.9-.74-5.56-2.73-6.73-5.53-.72-1.72-.67-4.17.27-5.73l.48-.81c.72-.94,1.61-1.58,2.81-1.84l.17.17c-3.16,1.7-3.57,6.25-1.32,8.82l.7.81.57.5c1.99,1.78,5.39,2.69,8.08,2.76l1.99.05,1.94.03-.02-.03Z"/>
</svg>