<?xml version="1.0" encoding="UTF-8"?>
<svg id="Layer_1" xmlns="http://www.w3.org/2000/svg" version="1.1" viewBox="0 0 100 100">
  <!-- Generator: Adobe Illustrator 30.3.0, SVG Export Plug-In . SVG Version: 2.1.3 Build 182)  -->
  <g id="Cone_15ft">
    <g>
      <path d="M70.84,57.84c0,9.72-7.88,17.6-17.6,17.6s-17.6-7.88-17.6-17.6,7.88-17.6,17.6-17.6,17.6,7.88,17.6,17.6ZM68.74,57.84c0-9.07-7.35-16.42-16.44-16.42s-16.44,7.35-16.44,16.42,7.35,16.42,16.44,16.42,16.44-7.35,16.44-16.42Z"/>
      <path d="M29.04,44.76c-.61-2.58-1.93-4.14-3.9-5.85l-.73-.63-.93-.81c-1.3-1.12-2.38-2.33-3.27-3.82-3.92,2.19-8.99,4.83-13.09,6.17l-3,.99s-.02-.26.04-.3l1.66-.99,5.38-3.15,7.65-4.45,1.73-1.01,8.4-4.81,1.2-.67,1.73-.99,1.97-1.1c0,.18-.06.35-.14.41l-1.24,1.14-.99.87c-2.38,2.09-4.93,3.9-7.61,5.58l-2.92,1.83c1.16,1.24,2.52,2.17,3.82,3.07,1.75,1.2,4.28,3,5.12,4.87l.57,1.28c.57,1.28.63,2.7.49,4.1-.24,2.46-1.34,4.67-3.29,6.25-.02-.04-.04-.26,0-.32l.37-.73c1.06-2.11,1.52-4.65.97-6.96l-.02.02Z"/>
      <path d="M92.48,75.29l3.39.04-.08.28c-1.66.47-3.25.83-4.97,1.06h-3.11c-1.24-.18-2.44-.39-3.61-.83-3.23-1.24-6.11-3.78-6.88-7.19-.47-2.09-.06-4.43,1.2-6.19.83-1.14,1.95-1.95,3.35-2.19l.12.22c-3.02,1.58-3.86,5.54-2.46,8.59l1.04,1.66,1.56,1.54,2.29,1.42c2.62,1.16,5.2,1.6,8.16,1.6Z"/>
      <path d="M54.51,57.35l1.6,1.56,1.48,1.5,1.7,1.83c-2.5.24-4.71-1.18-5.74-3.41-1.16,1.68-2.56,3.17-4.55,3.61,1.64-2.46,2.92-4.85,3.94-7.47l.69-1.85,2.01.75,1.7.59s-.39.22-.49.22l-1.85.08-.53,2.17s.04.37.1.43h-.04Z"/>
      <path d="M47.61,57.75c-1.44-.53-1.79-1.89-1.56-3.35l1.18.65,1.24.77c.85-1.08,1.85-2.03,3.21-2.38-.73,2.68-2.01,4.99-3.76,7l-.16.18c-.28.32-.43-1.4-.16-2.86Z"/>
    </g>
  </g>
</svg>