<?xml version="1.0" encoding="UTF-8"?>
<svg xmlns="http://www.w3.org/2000/svg" viewBox="0 0 100 100">
  <g transform="translate(50 50) scale(1.72117) translate(-30.1000 -18.4856)">
  <path d="M29.76,20.55l1.12,1.17.22.28c-1.27.11-2.36-.58-2.89-1.73-.53.86-1.32,1.62-2.28,1.83.56-.89,1.07-1.68,1.47-2.59l.4-.91.44-1.21,1.21.44.71.26c-.32.1-.53.12-.83.12h-.41s-.25,1.09-.25,1.09c-.02.07,0,.21.05.25l.65.61.39.39Z"/>
  <path d="M25.23,19.74c-.72-.27-.95-.91-.79-1.73l1.21.75c.41-.53.94-1.03,1.63-1.22-.36,1.37-1.03,2.55-1.91,3.58-.02.02-.07.08-.07.08s-.06-.04-.11-.07c-.05-.44-.05-.84.05-1.38Z"/>
  <path d="M18.88,19.82l-.09-.12c1.1-1.88,1.15-4.16-.24-5.83-.42-.51-.9-.93-1.4-1.36l-.27-.23-.6-.53-.49-.51-.34-.41-.44-.67-2.74,1.46c-1.5.8-3.7,1.64-5.41,2.16l.03-.16,14.91-8.61s.15-.02.14,0-.05.11-.07.14l-.9.8-.41.36-.38.31c-1.51,1.24-3.09,2.29-4.79,3.31.89,1.02,2.56,1.84,3.33,2.59l.45.43.39.43c.2.22.35.49.48.77.92,1.88.48,4.26-1.16,5.68Z"/>
  <path d="M40.78,28.08c.58-1.16.74-2.55.38-3.87-.26-.93-.73-1.79-1.48-2.39l-.28-.22c-.3-.24-.65-.41-1.01-.55-1.53-.61-3.66-.31-4.77.82l-.8.82-.92,1.09-.41.47-.66.65-.71.54c-.64.48-1.41.7-2.22.8-1.83.23-3.81-.47-4.94-1.94-.6-.77-.92-1.69-.99-2.66v-.82c.1-1.3.67-2.59,1.8-3.35-.5.72-.96,1.35-1.15,2.18s-.22,1.67.04,2.51c.78,2.55,3.47,3.76,5.97,2.87,1.25-.45,2.07-1.48,2.89-2.49l.26-.31.31-.37.85-.85c.27-.27.62-.47.97-.65,1.5-.77,3.24-.82,4.78-.14,1.75.77,2.91,2.37,3.07,4.27v1.15c-.1.96-.39,1.84-.97,2.61-.02-.03-.05-.13-.04-.17Z"/>
  <path d="M51.87,31.29h1.47s0,.16-.02.17l-2.37.51h-1.89c-.59-.1-1.17-.19-1.71-.43l-.61-.27c-.51-.23-.95-.57-1.37-.95-.56-.51-.99-1.1-1.27-1.8-.76-1.88.03-4.41,2.09-4.87l.09.09c-.32.2-.63.38-.84.67l-.28.4c-.61.87-.63,2.4-.06,3.46l.37.56.31.38c.32.39.73.7,1.18.95l.4.22c.75.42,1.58.63,2.43.76l2.05.14Z"/>
  </g>
</svg>
