<?xml version="1.0" encoding="UTF-8"?>
<svg id="Layer_1" xmlns="http://www.w3.org/2000/svg" version="1.1" viewBox="0 0 100 100">
  <!-- Generator: Adobe Illustrator 30.3.0, SVG Export Plug-In . SVG Version: 2.1.3 Build 182)  -->
  <path d="M30.94,51.39c1.51-3.03,1.37-6.8-.87-9.33-.51-.6-1.06-1.15-1.66-1.66l-.69-.6-1.08-.96c-1.01-.89-1.87-1.85-2.57-3.08l-2.07,1.15-1.56.82-1.28.65c-2.04,1.03-4.08,1.92-6.23,2.65l-1.44.5-1.25.39s-.19-.05-.22-.07c-.05-.02.09-.14.14-.17l4.86-2.86,7.52-4.38,1.1-.63,5.87-3.36,6.23-3.53.19-.07s.1.12.07.15l-.14.14-1.18,1.1-.62.55-1.73,1.4c-2.4,1.94-4.93,3.56-7.59,5.19.34.36.6.65.92.89l.96.75,2.77,1.95c1.06.75,2.6,2.18,3.08,3.24l.55,1.18c.5,1.08.53,2.3.43,3.48-.14,1.64-.72,3.17-1.76,4.44l-1.03,1.06-.15-.14.41-.84h.02Z"/>
  <path d="M89.97,72.08c-.81.43-1.51.58-2.31.72l-2.28.36h-2.59c-1.04,0-2.09-.33-3.05-.69-1.59-.58-2.98-1.51-4.15-2.72l-.53-.65c-2-2.42-2.11-6.32.03-8.79.69-.72,1.46-1.2,2.47-1.42l.19.17c-2.6,1.39-3.36,4.76-2.18,7.4.26.57.58,1.13,1.01,1.56l1.23,1.23c2.19,1.82,5.12,2.53,7.95,2.69h1.99l2.24.14h-.03Z"/>
  <path d="M67.63,61.3l.09,1.99.09,2.53.05,6.59c-.14-.1-.19-.24-.22-.43l-.48-4.57-.31-2.71-.45-4.2-10.26-4.26-6.37,10.53-9.54-5.46-3.41-1.97-2.16-1.23.31-.43,1.37-1.64,4.15-4.97.58-.7.58-.7,1.37-1.64,2.09-2.52.14.09s-.03.15-.07.21l-.91,1.35-.34.51-7.13,9.92,3.17,1.68,1.54.82,1.32.72,1.54.84,4.73,2.62,3.94-6.32,2.47-3.84,1.37.62,1.18.53,4.11,1.88,1.1.51,1.32.63,1.8.87,1.15.57.09,1.58h.02Z"/>
</svg>