<?xml version="1.0" encoding="UTF-8"?>
<svg xmlns="http://www.w3.org/2000/svg" viewBox="0 0 100 100">
  <g transform="translate(50 50) scale(1.71662) translate(-26.4716 -22.7370)">
  <path d="M48.51,14.49c-.3-.5-.51-.98-.69-1.52l-.25-1.38c-1.61.16-3.19.35-4.79.62l-3.64.61-1.37.22-.59.06.14-.21c.9-.52,1.8-.95,2.78-1.29l1.79-.53c1.47-.34,2.93-.5,4.44-.46l1.15.08-.06-1.28c-.04-.8-.13-1.53-.32-2.33-.04-.01.12-.1.15-.07l.49.49c.44.55.7,1.17.85,1.86l.2,1.59.87.29s.09.08.11.1-.06.09-.09.1l-.55.03-.36.02-.04.75-.06,1.07-.06.97s-.07.11-.15.19Z"/>
  <path d="M32.52,21.1c-1.68,1.28-4.42,1.29-6.34.16-.59-.35-1.1-.8-1.57-1.31-.27-.3-.48-.66-.69-1.01-.74.03-1.45.02-2.22-.03l-.04-.13,1.96-.53c-.17-.58-.33-1.05-.33-1.61v-1.01c0-.43.1-.85.22-1.26.29-1,.84-1.89,1.61-2.59.91-.82,1.99-1.39,3.21-1.56,1.62-.23,3.2.12,4.5,1.15l.75-1.14.12.11-.43,1.4c1.1.94,1.76,2.42,1.88,3.89v.94s-.05.48-.05.48c-.12,1.05-.58,2.01-1.23,2.83l-.62.63-.41.35-.3.23ZM29.53,15.1l.37-.29.94-.94.66-.72.25-.3.45-.6c-.53-.42-1.04-.79-1.66-1.04-1.8-.72-3.81-.34-5.29.9-1.16.96-1.68,2.16-1.85,3.66l.02.82c.01.56.2,1.08.4,1.6,2.34-.8,3.83-1.59,5.71-3.09ZM26.07,20.72l.52.27c.74.38,1.57.48,2.4.41.95-.07,1.81-.39,2.58-.92.3-.2.58-.42.82-.69.51-.57.93-1.21,1.19-1.94.6-1.71.32-3.53-.79-4.93l-.65,1.1c-.49.81-1.14,1.46-1.83,2.12-.92.82-1.93,1.45-3.06,1.95-.97.43-1.95.66-3.04.81l.4.57.66.66.82.59Z"/>
  <path d="M19.44,20.07l.06.73-.11.11c-1.35-2.28-1.33-5.54-.06-7.83.78-1.41,2.1-2.82,3.65-3.43-.08.26-.23.39-.37.57l-.52.67c-.37.48-.69.98-.99,1.51-1.32,2.28-1.89,5.02-1.66,7.67Z"/>
  <path d="M8.13,15.27c-1.68,1.38-2.06,3.79-1.22,5.79l.78-.73.93-.89,1.27,5.18-2.2-.64-2.91-.84,1.18-1.15.72-.67c-.37-.61-.74-1.22-.85-1.94l-.1-.67c-.12-.75.08-1.68.35-2.43.34-.92.93-1.66,1.69-2.26.53-.41,1.1-.7,1.75-.89,2.83-.83,5.76.76,6.59,3.61.16.55.27,1.31.2,1.84l-.1.75c-.19.81-.51,1.58-1.05,2.21l-.45.52s-.13.03-.16.04c-.04,0,0-.1.03-.14,1.23-1.88,1.29-4.46-.2-6.17-1.64-1.88-4.28-2.12-6.24-.52Z"/>
  <path d="M4.98,29.89l.75-.59c1.1-.87,2.73-1.89,3.99-2.47l.77-.36c2.36-1.09,5.57-1.93,8.15-2.17l.69-.06.95-.06,1.12-.03h1.76s4.19,0,4.19,0l.66-.03c2.12-.11,4.59-.57,6.41-1.66.46-.27.93-.52,1.3-.89l.97-.97c.43-.51.79-1.02,1.07-1.63.33-.67.55-1.36.65-2.09l.06-.1s.1.07.1.1l-.05.84c-.2,1.42-.77,2.74-1.7,3.82l-1.06,1.07-.31.26c-.57.48-1.2.89-1.9,1.17l-1.39.56c-1.62.66-4.9.87-6.78.87h-2.13s-2.46,0-2.46,0c-2.73,0-5.39.4-8.02,1.17-1.02.3-1.99.57-2.95,1l-1.74.77c-.67.3-1.27.61-1.91.98l-1.11.66s-.17.02-.16,0,.05-.12.07-.14Z"/>
  <path d="M5.94,35.11l-.87.91-.54.66c-.47.57-.84,1.14-1.23,1.79l-.13-.1c.52-1.36,1.36-2.9,2.28-3.96l.35-.41c.87-1.01,2.43-2.24,3.62-2.83l1.3-.64c.84-.42,1.72-.64,2.63-.89,4.33-1.16,9.16-.88,13.49.16.03,0,.04.14.02.15l-5.89-.03-2.16.11c-2,.1-4.93.63-6.78,1.37l-1.43.57-1.09.53-.99.58c-.56.33-1.09.68-1.58,1.11l-.37.32-.64.59Z"/>
  <path d="M36.86,26.94c-1.81,1.15-5.37,2.12-5.2,1.83l.06-.11c1.04-.47,2-1,2.96-1.61l1.36-.9.79-.6,1.61-1.4.2-.17.99-1.07.63-.75,1.05-1.46,1.15-1.98.77-1.68.76-1.86.05-.12s.13.07.12.09l-.07.61c-.14,1.27-.64,3.26-1.19,4.34l-.67,1.33-1.25,1.88-.31.37-.45.5-.97.97-.44.38-.28.22-.75.57-.94.6Z"/>
  </g>
</svg>
