<?xml version="1.0" encoding="UTF-8"?>
<svg id="Layer_1" xmlns="http://www.w3.org/2000/svg" version="1.1" viewBox="0 0 100 100">
  <!-- Generator: Adobe Illustrator 30.3.0, SVG Export Plug-In . SVG Version: 2.1.3 Build 182)  -->
  <path d="M43.87,64.64c.58.09,1.1.09,1.7.24-2.85,1.01-6.24.05-8.47-1.97-3.16-2.86-3.45-8.16-.79-11.46,1.37-1.7,3.17-2.74,5.35-3.04l1.47-.05c.09,0,.29.15.31.22-3.07.5-5.73,2.57-6.69,5.54-.65,1.99-.55,4.08.39,5.93,1.27,2.5,3.93,4.18,6.74,4.58h-.02Z"/>
  <path d="M30.85,51.46c1.08-2.2,1.41-4.63.58-6.96-.6-1.71-1.7-2.93-3.07-4.12l-.75-.65-.75-.65c-.62-.55-1.18-1.08-1.73-1.71s-1.11-1.68-1.18-1.63l-.14.14-3.48,1.89-1.37.67c-2.38,1.17-4.73,2.25-7.29,3.02l-1.63.5s-.07-.22-.02-.22l23.8-13.75c.75-.43,1.35-.79,2.16-1.13-.48.63-.93,1.03-1.46,1.49-2.38,2.04-4.85,3.89-7.51,5.57l-2.35,1.47c2.56,2.69,6.26,3.82,7.94,7.2s.82,7.43-2.01,9.77l-.15-.09.39-.79.02-.02Z"/>
  <path d="M68.51,60.49c-.82.27-1.61.55-2.52.46,1.35-.65,2.5-1.23,3.46-2.25,1.78-1.87,2.61-4.37,2.2-6.91-.31-1.87-1.18-3.46-2.66-4.66-1.59-1.29-3.57-1.97-5.64-2.01l-2.3.09c.72-.46,1.41-.67,2.18-.81,2.14-.43,4.29-.03,6.19,1.03.81.45,1.46,1.01,2.06,1.7,2.14,2.45,2.69,6.21,1.35,9.14-.87,1.94-2.33,3.34-4.32,4.22Z"/>
  <path d="M87.57,71.98l2.44.1c-.84.45-1.58.6-2.42.74l-2.2.34h-2.59c-1.08,0-2.14-.34-3.14-.7-1.59-.58-2.98-1.51-4.12-2.74-2.32-2.56-2.74-5.95-.89-8.83.74-.99,1.65-1.71,2.9-1.97l.17.15c-2.61,1.41-3.36,4.8-2.18,7.43.24.51.55,1.1.96,1.49l1.29,1.29c2.13,1.77,5.28,2.62,8.03,2.68,0,0,1.75.03,1.75.03Z"/>
</svg>