<?xml version="1.0" encoding="UTF-8"?>
<svg xmlns="http://www.w3.org/2000/svg" viewBox="0 0 100 100">
  <g transform="translate(50 50) scale(1.72421) translate(-27.3390 -24.9750)">
  <path d="M30.39,32.6l-.99-.99-.42-.35-.7-.5c-.5-.36-1.04-.62-1.62-.85-1.96-.79-3.8-.9-5.85-.31-.86.25-1.68.53-2.5.88l-2.08.88c-2.11.9-4.16,1.48-6.5,1.39l-1.63-.07-2.67-.32-.06,2.36-.04,1.41-.07,1.2-.06.92-.06.78-.13,1.34c-.13,1.39-.4,2.7-.66,4.08l-.16.05v-.98s-.03-1.89-.03-1.89l-.02-2.55v-13.15s.02-3.11.02-3.11l.02-1.81.02-.85s.17.04.16.06l.65,3.94.13,1.41.06.78.06.92.06,1.2.05,1.41.05,2.12,3.58-.03.65-.05,1.39-.16,1.34-.28,1.04-.3.46-.16,3.24-1.4,1.34-.57c.69-.3,1.39-.5,2.12-.69,2.28-.61,4.72-.29,6.77.88.56.32,1.11.65,1.57,1.11l.92.91c.58.71,1.06,1.46,1.43,2.31,0,.03-.02.16-.04.15-.04-.03-.1-.08-.13-.12l-.48-.64-.25-.31Z"/>
  <path d="M37.44,35.75l-.51-2.36c-.45-2.06-.77-4.08-.87-6.2-.09-1.87.05-3.66.5-5.47.25-.99.53-1.95,1.03-2.83l.77-1.35.66-.89.49-.57.46-.45.64-.56c.66-.58,1.41-.99,2.18-1.42l.82-.45,1.04-.58c.57-.32,1.14-.62,1.63-1.05l.71-.63.87-.96.93-1.39.73-1.32.44-.83.54-.99c.03.07.05.23.03.31l-.29.81c-.55,1.56-1.38,3.63-2.45,4.81l-.51.55-.44.41c-.49.45-1.02.81-1.59,1.16l-.96.6-1.27.77-1,.69c-.66.45-1.26.99-1.74,1.63l-.88,1.17c-.79,1.06-1.47,2.98-1.79,4.34-.25,1.08-.43,2.13-.48,3.24-.06,1.2-.09,2.37,0,3.56l.28,3.61.23,2.64c0,.11-.2.13-.18,0Z"/>
  <path d="M32.26,24.16c0,1.14-.92,2.07-2.07,2.07s-2.07-.92-2.07-2.07.92-2.07,2.07-2.07,2.07.92,2.07,2.07ZM30.93,24.16c0-.72-.58-1.3-1.31-1.3s-1.31.58-1.31,1.3.58,1.3,1.31,1.3,1.31-.58,1.31-1.3Z"/>
  </g>
</svg>
