<?xml version="1.0" encoding="UTF-8"?>
<svg xmlns="http://www.w3.org/2000/svg" viewBox="0 0 100 100">
  <g transform="translate(50 50) scale(1.31234) translate(-25.5000 -40.3900)">
  <path d="M18.66,61.37l4.13,2.09,1.23.68,1.46-3.3,1.42-3.52.94-2.04c.74-1.62,1.83-3,3.13-4.22l1.76-1.65,1.56-1.62c1.37-1.42,2.29-4.04,2.17-6.11-.07-1.25-.53-2.46-1.45-3.29-.84-.76-1.99-1.06-3.06-.74-1.35.4-2.29,1.44-2.74,2.76l-.3,1.42c-.01.05-.1.24-.13.3-.13-1.06.02-2.16.56-3.15,1.18-2.17,3.74-2.97,5.82-1.73.79.47,1.42,1.15,1.85,1.99.32.63.61,1.38.61,2.1v1.99c0,2.66-2.19,5.44-4.18,7.22l-.7.63-1.16,1.04c-.9.81-1.7,1.69-2.3,2.75l-1.24,2.17-1.45,2.94-.54,1.11-1.77,3.11c2.51,1.5,4.88,3.03,7.06,4.87l.96.81c.3.26.63.49.8.89l-19.72-11.37c1.92.31,3.5,1.2,5.28,1.87Z"/>
  <path d="M32.79,41.34c.36.51.43,1.13.45,1.78.05,2.11-1.23,4.01-3.23,4.68-2.96.99-5.92-.8-6.49-3.86-.3-1.62.04-3.13.76-4.61,3.52-7.19,4.46-15.35,2.34-23.1-.25-.9-.51-1.76-.94-2.58l-1.97-3.74c.93.93,1.49,1.98,2.18,2.99.49.91.96,1.76,1.31,2.76,1.29,3.68,1.88,7.52,1.68,11.43-.24,4.59-1.52,9.09-3.6,13.14-.69,1.35-.89,2.79-.43,4.24.55,1.73,2.14,2.84,3.98,2.75.9-.04,1.71-.34,2.41-.91,1.48-1.19,2-3.08,1.54-4.95Z"/>
  </g>
</svg>
