<?xml version="1.0" encoding="UTF-8"?>
<svg xmlns="http://www.w3.org/2000/svg" viewBox="0 0 100 100">
  <g transform="translate(50 50) scale(1.71592) translate(-24.1611 -21.4544)">
  <path d="M34.14,36.43l.36-.32.36-.32.51-.43c1.41-1.19,2.92-2.18,4.53-3.13l-1.15-1.84-1.42-1.72-.51-.5-.29-.27-.47-.42c-2.31-2.07-6.1-3.82-9.2-3.94l-3.04-.12-1.29-.07-.61-.06c-1.42-.13-3.26-.66-4.31-1.59l-.43-.38c-.31-.28-.58-.6-.81-.94l-.28-.41-.58-1.05-.53-1.11-.69-1.25c-.58-1.06-1.66-2.36-2.59-3.17-1.66-1.45-3.67-2.32-5.84-2.73-.83-.16-1.63-.3-2.47-.35l-1.42-.09.02,2.26c0,.07-.05.21-.09.3-.49-.78-.76-1.59-.9-2.49l-.15-.13.11-.14c-.14-1.68.17-3.69,1.94-4.09.87-.2,1.52.39,1.38.42-.29.06-.89-.08-1.41.38s-.77,1.22-.81,1.93l-.08,1.35c2.57-.15,5.28.13,7.61,1.13.42.18.82.36,1.21.6l.59.35.81.57c.37.26.69.56,1,.88l.4.41.38.44.36.46c1.42,1.79,2.1,4.11,3.47,5.54,1.52,1.59,4.06,1.88,6.23,1.96l1.34.05c1.44.05,2.83.22,4.22.61.68.19,1.32.39,1.95.68l.73.34c2.74,1.28,5.26,3.59,6.84,6.18l.99,1.89,1.79-.95.76-.37c1.51-.73,3.05-1.32,4.67-1.78.04,0,.16.02.14.04s-.06.09-.09.1l-.71.42-12.93,7.46s-.16,0-.15-.02.05-.1.07-.12l.48-.46Z"/>
  <path d="M22.84,18.37c0,.97-.79,1.76-1.76,1.76s-1.76-.79-1.76-1.76.79-1.76,1.76-1.76,1.76.79,1.76,1.76ZM21.71,18.37c0-.61-.5-1.11-1.11-1.11s-1.11.5-1.11,1.11.5,1.11,1.11,1.11,1.11-.5,1.11-1.11Z"/>
  </g>
</svg>
