<?xml version="1.0" encoding="UTF-8"?>
<svg xmlns="http://www.w3.org/2000/svg" viewBox="0 0 100 100">
  <g transform="translate(50 50) scale(1.31148) translate(-21.9582 -40.8000)">
  <path d="M11.01,59.96c2.06.35,3.84,1.32,5.72,2.07l4.88,2.56.71-1.32c2.05-3.8,3.09-7.46,2.45-11.82-.35-2.37-1.07-4.58-2.24-6.65s-1.84-4.11-1.92-6.42c-.07-2,.24-3.92,1.11-5.7l1.23-2.51.87-1.78c1.66-3.4,1.71-7.55.59-11.17-.62-2.02-1.48-3.88-2.5-5.72-.22-.4-.48-.76-.56-1.2,3.67,4.75,5.96,10.9,4.26,16.7-.39,1.32-.94,2.51-1.53,3.73l-.87,1.79c-1.68,3.45-1.69,7.47.07,10.9l.68,1.32c2.25,4.4,2.68,10.19.75,14.86-.37.9-.75,1.76-1.26,2.58l-1.6,2.53,3.65,2.31c1.77,1.38,3.69,2.52,5.19,4.28l-19.66-11.34Z"/>
  <path d="M32.72,33.29c.06.03.22.24.18.22-2.11-.2-3.64-1.82-4.46-3.74-.91-2.15-.83-4.6-.76-6.96.06-2.16-.04-4.13-.81-6.17l-1.01-1.77c.52.28.95.71,1.32,1.22,1.49,2.05,1.74,4.59,1.78,7.11l.05,3.15c.01.81.14,1.62.32,2.41.43,1.89,1.62,3.76,3.38,4.51Z"/>
  <path d="M28.48,51.74c-.06,1.54-.3,3.45-1.44,4.63.12-.97.33-1.87.29-2.83l-.09-2.2c-.09-2.4-.04-4.64,1.58-6.51.72-.83,1.73-1.36,2.82-1.25-3.3,1.67-3.04,4.84-3.16,8.15Z"/>
  <path d="M29.34,38.54c0,1.18-.95,2.13-2.13,2.13s-2.13-.95-2.13-2.13.95-2.13,2.13-2.13,2.13.95,2.13,2.13ZM27.97,38.54c0-.75-.61-1.36-1.36-1.36s-1.36.61-1.36,1.36.61,1.36,1.36,1.36,1.36-.61,1.36-1.36Z"/>
  </g>
</svg>
