<?xml version="1.0" encoding="UTF-8"?>
<svg xmlns="http://www.w3.org/2000/svg" viewBox="0 0 100 100">
  <g transform="translate(50 50) scale(1.31320) translate(-18.6900 -39.4700)">
  <path d="M15.77,22.19c-2.38,3.03-4.33,6.62-1.94,10.1l-.1.14c-2.34-1.9-2.38-5.3-1.1-7.89.34-.69.71-1.31,1.12-1.96l2.24-2.82c1.39-1.74,2.69-3.48,3.89-5.33-2.44-1.46-4.56-3.05-6.54-4.95-.13-.12-.24-.31-.23-.47l15.95,9.24c-1.62-.17-2.95-.84-4.39-1.36-1.51-.67-2.94-1.39-4.41-2.22-1.04,2.75-2.66,5.16-4.49,7.51Z"/>
  <path d="M17.35,42.45c-1.79.89-4.48,3.08-5.65,4.66l-2.14,2.88c.61-2.24,1.89-4.06,3.35-5.73l.9-.87c1.03-1,2.2-1.75,3.54-2.49-2.42-.82-4.45-2.17-6.09-4.07-1.44-1.66-2.54-3.59-2.94-5.78.96,1.57,1.73,3,2.94,4.24,1.54,1.67,3.3,3.03,5.42,3.88,1.29.52,2.56.87,3.91,1.26.09.03.28.12.41.2l-3.65,1.81Z"/>
  <path d="M23.8,49.18c-.89,1.37-1.8,2.61-3.23,3.5,1.84-2.43,3.14-5,3.63-7.98.78-4.76-.53-9.57-3.59-13.28-.33-.41-.65-.73-.94-1.19,2,1.19,3.47,2.92,4.51,4.95,2.19,4.29,2.11,9.76-.38,13.99Z"/>
  <path d="M20.75,69.93l-.72-.81-.75-.88-2.72-3.32-1.45-1.63c-2.08-2.34-3.02-5.71-2.52-8.8.24-1.53.76-2.99,1.84-4.17-.61,1.74-.98,3.33-.9,5.11.09,1.92.56,3.74,1.5,5.41.44.79,1.01,1.46,1.55,2.17l1.42,1.87c1.05,1.59,1.92,3.17,2.83,4.88l-.1.16Z"/>
  </g>
</svg>
