<?xml version="1.0" encoding="UTF-8"?>
<svg xmlns="http://www.w3.org/2000/svg" viewBox="0 0 100 100">
  <g transform="translate(50 50) scale(1.71637) translate(-26.5050 -21.7419)">
  <path d="M9.52,25.77c-1,0-1.93-.1-2.9-.21-1.14-.15-2.21-.36-3.31-.65l-.11-.05s.02-.07.06-.11c2.03.19,4.02.22,6.05.12l.62-.04.74-.06c1.93-.16,4.58-.67,6.43-1.27l1.71-.55,1.79-.72,1.43-.65c1.05-.47,2.03-1.02,2.99-1.64l1.34-.85,1.75-1.25,1.17-.9.12-.05s.01.12,0,.13l-.59.63-.91.92-.45.42-1.14.99-.35.27-.9.67c-1.6,1.19-3.69,2.27-5.56,3.02-2.14.85-4.83,1.53-7.12,1.71l-.8.06-1.25.05h-.8Z"/>
  <path d="M8.72,33.7c-.46.55-.85,1.1-1.23,1.68l-.53.82-.12-.13c.36-1.05.77-2.01,1.34-2.95s1.7-2.29,2.53-2.91l.54-.4c1.69-1.26,3.66-1.74,5.73-1.98,1.48-.17,3.06-.79,4-1.94.23-.28.36-.57.56-.92l.11.12c-.15.65-.37,1.23-.79,1.74-1.01,1.23-2.45,1.84-4.01,2.12s-3.17.72-4.49,1.52c-.59.36-1.17.73-1.68,1.2l-.59.54-.72.72-.35.4-.3.37Z"/>
  <path d="M33.69,14.3c-2.91-.07-5.54-.76-8.42.02-.56.15-1.06.34-1.57.63-1.7.95-2.79,2.69-2.92,4.65-.02.32.05.63-.08.95-.66-2.1.27-4.48,1.89-5.83.46-.38.93-.73,1.47-.97,1.91-.85,3.96-1,6.05-.86l2.71.18c3.07.2,6.58-.23,9.5-1.17l1.57-.51c.84-.27,1.69-.4,2.58-.4h1.06c.05,0,.14-.09.14-.15l-.09-1.77-.26-1.75c.01-.06.2-.04.25.02l.35.42c.75.9.92,2.12.95,3.3l.94.14-.1.14h-.84s-.03.75-.03.75l-.11,1.89-.12.16-.31-.56c-.32-.58-.38-1.26-.54-1.91l-.06-.26-1.9.25c-.53.07-1.06.23-1.56.43l-1.92.77c-1.15.46-2.32.73-3.54.98-1.69.35-3.35.49-5.08.45Z"/>
  <path d="M17.45,16.92c0,3.03-2.46,5.49-5.49,5.49s-5.49-2.46-5.49-5.49,2.46-5.49,5.49-5.49,5.49,2.46,5.49,5.49ZM16.25,16.91c0-2.67-2.17-4.84-4.84-4.84s-4.84,2.17-4.84,4.84,2.17,4.84,4.84,4.84,4.84-2.17,4.84-4.84Z"/>
  </g>
</svg>
