<?xml version="1.0" encoding="UTF-8"?>
<svg xmlns="http://www.w3.org/2000/svg" viewBox="0 0 100 100">
  <g transform="translate(50 50) scale(1.71647) translate(-30.0764 -18.7200)">
  <path d="M40.69,22.67c0,4.93-4,8.93-8.93,8.93s-8.93-4-8.93-8.93,4-8.93,8.93-8.93,8.93,4,8.93,8.93ZM39.61,22.67c0-4.6-3.73-8.33-8.34-8.33s-8.34,3.73-8.34,8.33,3.73,8.33,8.34,8.33,8.34-3.73,8.34-8.33Z"/>
  <path d="M18.99,19.54c.85-1.7.82-3.76-.3-5.23l-.19-.25-.98-.97-.4-.35-.5-.44c-.66-.57-1.18-1.14-1.62-1.91l-1.25.69-.78.42-1.05.52c-1.23.61-2.44,1.14-3.76,1.57l-1.23.4s-.12-.03-.15-.04c-.03,0,.04-.07.09-.1l15-8.65s.1.07.08.09l-.09.08-.68.64-.44.38c-1.24,1.07-2.54,2.01-3.93,2.89l-1.44.91c1.44,1.52,3.53,2.19,4.54,4.03.9,1.63.72,3.79-.45,5.23l-.62.66-.09-.08.23-.47Z"/>
  <path d="M53.32,31.71c-.85.24-1.64.41-2.5.53h-1.58c-.63-.09-1.24-.2-1.83-.43-1.65-.63-3.14-1.95-3.5-3.71-.25-1.2.05-2.48.87-3.4.16-.18.34-.32.56-.46.32-.22.92-.43.95-.24-1.55.83-1.97,2.86-1.23,4.41.13.28.3.58.52.79l.75.75c1.46,1.22,3.53,1.6,5.42,1.58l1.63.03-.07.15Z"/>
  <path d="M31.91,21.11c-.14,1.21-.8,2.54-1.77,3.29-.36.28-.77.52-1.24.61,1.02-1.53,1.78-3.04,2.33-4.73l1.12.41.66.23c.09-.02.08.1,0,.15l-1.1.05Z"/>
  <path d="M33.04,24.41c-.2.18-.55.28-.81.22l-.7-.16.87-.98c.11-.13.19-.34.29-.54l.95.34.98.36c-.44.12-.78.12-1.19.13-.08.21-.19.47-.37.63Z"/>
  </g>
</svg>
