<?xml version="1.0" encoding="UTF-8"?>
<svg id="Layer_1" xmlns="http://www.w3.org/2000/svg" version="1.1" viewBox="0 0 100 100">
  <!-- Generator: Adobe Illustrator 30.3.0, SVG Export Plug-In . SVG Version: 2.1.3 Build 182)  -->
  <path d="M31.94,48c.22-3.23-1.25-5.44-3.59-7.47l-.64-.55-.76-.65-.74-.67c-.86-.77-1.56-1.68-2.15-2.71-3.5,2.03-7.07,3.86-10.9,5.2l-1.55.53-1.43.46s-.21-.12-.21-.15l2.76-1.63,4.95-2.9,3.49-2.03,7.85-4.52,1.51-.86,4.05-2.28,1.1-.62.15-.09s.12.15.12.19l-.89.81-1.15,1.01-.58.5-.72.58c-2.49,2.03-5.13,3.76-7.93,5.44l.79.79c1.32,1.34,4.17,2.61,6.11,4.86,2.82,3.25,2.42,8.57-1,11.35l-.12-.15c.79-1.39,1.31-2.82,1.41-4.41l.05-.03Z"/>
  <path d="M85.23,72.93h-4.74c-2.09,0-4.1-.34-6.18-.69-2.94-.52-5.75-1.2-8.55-2.2-2.18-.77-4.16-1.85-5.92-3.33l-1.67-1.67c-1.17-1.17-2.3-3.52-2.73-5.24-.38-1.48-.53-2.97-.36-4.5.15-1.34.34-2.73,1.18-3.9-.69,3.21-.52,6.32.84,9.2,1.25,2.66,3.25,4.74,5.84,6.11,1.18.64,2.3,1.15,3.59,1.6,4.48,1.53,9.03,2.58,13.75,3.21,2.16.29,4.19.5,6.34.58l3.38.12-.19.24c-1.53.17-3,.45-4.57.45h-.02Z"/>
  <path d="M58.2,68.78l-1.36-.58-2.3-.82-2.18-.6c-1.43-.39-2.85-.58-4.34-.74-3.61-.38-7.09-.14-10.68.67l-.07-.21c6.89-3.69,16.07-2.76,22.48,1.6l1.84,1.41,1.61,1.6.43.48-.05.26-3.57-2.18-1.79-.89-.02.02Z"/>
</svg>