<?xml version="1.0" encoding="UTF-8"?>
<svg xmlns="http://www.w3.org/2000/svg" viewBox="0 0 100 100">
  <g transform="translate(50 50) scale(1.71748) translate(-25.6200 -20.2300)">
  <path d="M15.3,20.53c-.16.3-.67.9-1.03,1.09l.3-.66c.85-1.87.74-3.89-.61-5.44-.25-.29-.52-.56-.81-.81l-.4-.35-.5-.44-.4-.36c-.53-.47-.96-1.01-1.32-1.64-1.45.84-2.88,1.57-4.38,2.24-1.23.53-2.43.98-3.7,1.37l-.12-.03s.05-.09.07-.1l15.01-8.67.05.14-.85.76-.37.32-.31.26c-1.57,1.3-3.22,2.41-5,3.48.6.67,1.29,1.1,1.97,1.59l1.09.79c.48.35.89.78,1.23,1.27.66.94.92,2.11.78,3.26-.06.5-.17.98-.4,1.42l-.27.51Z"/>
  <path d="M48.91,33.07l-.06.17c-.8.19-1.56.49-2.37.49h-1.88s-.79-.13-.79-.13c-.91-.16-1.96-.72-2.69-1.32-.36-.3-.69-.65-.96-1.04-.62-.88-.87-1.8-.76-2.88.08-.87.46-1.69,1.09-2.28.34-.32,1.06-.7,1.34-.6.03.01-.04.1-.07.11-1.56.91-1.92,3.03-1.06,4.55l.35.52.41.47.43.38.32.24c1.36,1.04,3.48,1.32,5.2,1.32h1.5Z"/>
  <path d="M36.07,33.31c-.07,0-.13-.07-.12-.12l-.33-3.08-.26-2.38-.14-1.35-1.02-.43-4.97-2.06-3.72,6.15-8.83-5.06.39-.49.23-.28,1.37-1.64.37-.44.37-.45,2.68-3.2.37-.45c.12-.15.2-.32.45-.38-1.19,1.85-2.43,3.63-3.75,5.4l-1.22,1.63.99.52,6.19,3.37.94-1.51,2.8-4.42.7.32,1.82.82,1.03.47,1.02.48,2.46,1.18.04.94.05,1.12.05,1.48.03,3.84Z"/>
  <path d="M24.01,23.42c-.2.42-.2.85-.25,1.33-.2-.18-.36-.4-.48-.65-.18-.46-.25-.97-.06-1.45l.48-1.23,1.61.6.28.12c-.4.23-.7.29-1.12.32l-.45.96Z"/>
  </g>
</svg>
