<?xml version="1.0" encoding="UTF-8"?>
<svg xmlns="http://www.w3.org/2000/svg" viewBox="0 0 100 100">
  <g transform="translate(50 50) scale(1.31212) translate(-14.0050 -40.7550)">
  <path d="M5.91,43.82c-.22.47-.24,1.07-.32,1.62-.79-.71-.99-1.84-.58-2.83l.54-1.33,2.39.9c-.51.24-.91.34-1.44.41l-.58,1.22Z"/>
  <path d="M7.53,30.46c2.01.9,3.89,1.8,5.77,3.05-1.52-.43-2.93-.97-4.42-1.51l-5.41-1.95c.55-1.89,1.85-3.57,3.29-4.8l.95-.81c3.13-2.38,5.49-5.33,7.62-8.71-1.88-1.14-3.56-2.3-5.16-3.7-.61-.53-1.29-1.05-1.68-1.76l16.05,9.26c-1.94-.22-3.53-1.07-5.24-1.71l-3.66-1.9c-1.37,3.31-3.39,6.26-6.03,8.66l-.6.52c-1.51,1.3-2.85,2.4-3.92,4.27l2.44,1.09Z"/>
  <path d="M10.28,62.04c2.43,2.75,4.45,5.97,6.06,9.2-.26-.15-.38-.29-.53-.47l-3.39-4.28c-1.18-1.48-2.45-2.79-3.7-4.19l-1.09-1.22c-.55-.61-.99-1.29-1.39-2.01-1.04-1.85-1.19-3.8-.66-5.83l1.74-.06c1.73-.06,3.44-.13,5.18-.02l.66.04c.47.03.87.03,1.36.22l-4.86.59-3.12.36c-.28,2.35.84,4.39,2.36,6.11l1.4,1.58Z"/>
  <path d="M5.01,49.92l-.18-.22c1.74.17,3.35-.26,4.69-1.34,3.23-2.62,2.72-7.43-.39-10.22-1.49-1.33-3.23-2.06-5.23-2.64,2.63-.2,5.51,1.08,7.24,3.04,2.04,2.31,2.55,5.73,1.06,8.43-.63,1.15-1.55,2.01-2.72,2.56-1.39.7-2.93.84-4.47.4Z"/>
  </g>
</svg>
