<?xml version="1.0" encoding="UTF-8"?>
<svg xmlns="http://www.w3.org/2000/svg" viewBox="0 0 100 100">
  <g transform="translate(50 50) scale(1.71563) translate(-27.9950 -21.4630)">
  <path d="M32.63,12.66l-3-.28-1.31-.07h-1.17c-1.05,0-2.06.17-3.07.43s-1.94.68-2.81,1.25l-.08-.12.34-.29.42-.34c.24-.2.51-.37.79-.53,1.32-.75,2.73-1.17,4.24-1.33.84-.09,1.64-.16,2.49-.12l2.75.13,2.49.17c.95.06,1.88.06,2.84.03,1.35-.04,2.61-.29,3.9-.66,1.65-.48,3.95-1.11,5.58-1.12l1.96-.02-.08-1.63c-.04-.76-.13-1.48-.29-2.21l-.03-.14s.13-.06.15-.04l.52.53c.46.6.73,1.28.87,2.02l.16,1.59.9.13s.06.06.12.17l-1.02.02-.02.37-.07,1.23-.09,1.41c-.1-.06-.22-.14-.25-.2l-.34-.68c-.31-.64-.38-1.35-.49-2.05l-.63.06c-1.35.14-2.65.41-3.96.78l-2.35.78c-.64.21-1.25.44-1.92.59-2.65.61-4.84.4-7.54.14Z"/>
  <path d="M15.19,24.52c-.82.71-2.13,1.47-3.15,1.92-.37.16-.74.27-1.13.38-1.54.43-3.13.41-4.57-.2l.12-.13c.93.24,1.83.24,2.76.07,1.03-.19,1.99-.57,2.88-1.12l.82-.51c.51-.31.97-.68,1.41-1.09l.75-.69.53-.53,1.68-1.76.32-.37.97-.98.79-.77.53-.48.38-.31c.84-.69,1.7-1.29,2.69-1.75,3-1.39,6.21-1.44,9.43-.79,2.11.45,4.12,1.11,6.1,1.98.03.02.1.07.09.06,0,0-.04.06-.07.1-4.09-1.04-8.43-2.05-12.62-1.06-1.48.35-3.16,1.13-4.32,2.07l-.31.25-.37.32-.54.47-.47.41-1.11,1.09-1.94,1.94-.4.35-.47.41-.46.42-.34.29Z"/>
  <path d="M5.81,35.66l-.93,1.41-.07.09s-.1-.04-.13-.07c.24-.79.52-1.49.89-2.22.47-.93,1.01-1.78,1.69-2.58l.92-.96.58-.55c1.16-.95,2.45-1.67,3.89-2.11,1.07-.33,2.14-.46,3.24-.59,1.56-.18,3.17-.93,4.18-2.14.39-.46.46-.98.67-.93-.07.86-.46,1.63-1.05,2.24l-.35.35c-.83.84-2.28,1.4-3.48,1.66l-2.01.43c-.75.16-1.44.43-2.14.74-.74.33-1.4.73-2.05,1.2-.58.43-1.13.86-1.63,1.38l-1.01,1.06-.31.37-.9,1.2Z"/>
  </g>
</svg>
