<?xml version="1.0" encoding="UTF-8"?>
<svg xmlns="http://www.w3.org/2000/svg" viewBox="0 0 100 100">
  <g transform="translate(50 50) scale(1.71625) translate(-28.4034 -18.6950)">
  <path d="M39.01,22.69c0,4.93-4,8.93-8.93,8.93s-8.93-4-8.93-8.93,4-8.93,8.93-8.93,8.93,4,8.93,8.93ZM37.93,22.69c0-4.6-3.73-8.33-8.34-8.33s-8.34,3.73-8.34,8.33,3.73,8.33,8.34,8.33,8.34-3.73,8.34-8.33Z"/>
  <path d="M17.51,19.76c-.13.15-.28.27-.45.35.26-.58.49-1.05.66-1.62.44-1.58.11-3.24-.97-4.48-.25-.29-.52-.56-.81-.81l-.4-.35-.5-.44-.43-.39c-.51-.46-.93-1-1.29-1.61-1.77,1.01-3.52,1.96-5.4,2.66l-1.7.63-.97.3s-.13-.02-.15-.02.06-.09.08-.1l15.07-8.7c0,.25-.21.36-.36.49l-.5.45-.37.32-.34.28-1.34,1.04c-1.15.9-2.35,1.64-3.64,2.42.42.43.86.81,1.34,1.14l1.26.88c.53.37,1.01.77,1.43,1.26,1.22,1.43,1.41,3.44.61,5.12-.12.26-.26.52-.45.74l-.37.42Z"/>
  <path d="M51.62,31.74c-.8.18-1.51.47-2.29.47h-1.94s-.48-.06-.48-.06c-1.52-.24-3.07-1.16-3.96-2.43-.71-1.01-.95-2.15-.68-3.36.08-.38.21-.76.43-1.07l.37-.52.3-.28c.29-.27,1.18-.72,1.26-.47-.69.4-1.19,1-1.43,1.76-.4,1.29-.1,2.65.84,3.6l.4.41.45.37.77.48c.76.47,1.64.66,2.53.79l1.88.13h1.64s-.1.19-.1.19Z"/>
  <path d="M31.15,23.32l.41.43,1.11,1.17c-1.24.15-2.41-.58-2.92-1.72-.58.83-1.27,1.59-2.31,1.85l1.29-2.19c.38-.79.7-1.56.98-2.39l.11-.14,1.87.69c-.44.13-.85.14-1.24.12l-.31,1.24.6.57.4.38Z"/>
  </g>
</svg>
