<?xml version="1.0" encoding="UTF-8"?>
<svg xmlns="http://www.w3.org/2000/svg" viewBox="0 0 100 100">
  <g transform="translate(50 50) scale(1.72430) translate(-26.6078 -25.7774)">
  <path d="M3.41,26.74l.02-3.15v-1.62s.03-1.03.03-1.03h.16s.23,1.24.23,1.24c.3,1.6.5,3.17.61,4.79l.07,1.05.06,1.2.05,1.41.05,2.09h2.04s2.67-.06,2.67-.06l.7-.05.64-.07c1.87-.2,3.98-.87,5.73-1.6,1.2-.5,2.33-1.05,3.49-1.65l1.26-.65,1.62-.85,1.63-.84,2.07-1.02,1.75-.79c1.13-.51,2.28-.84,3.45-1.27l2.16-.79.74-.31c1.28-.55,2.91-1.45,3.89-2.38l.69-.65.83-.86.33-.37.93-1.1.82-1.01,1.22-1.52.64-.77,1.4-1.7.65-.82.62-.79.67-.88,1.02-1.44.64-.98.69-1.14s.1-.11.1-.08.04.14.02.16l-.24.51-.66,1.32-1.25,2.12-1.16,1.73-.76,1.07-1.82,2.47-1.5,2.02-1.07,1.39-.54.66-.74.81-.71.7-.8.68c-1.05.9-2.25,1.57-3.53,2.09l-1.61.65-2.79,1.01-1.53.58-2.17.93-3.41,1.65-1.09.54-.85.41-1.42.68-1.66.74-1.86.75c-1.03.41-2.07.69-3.16.92-1.83.39-3.96.44-5.83.34l-.97-.06-.85-.06-1.12-.07-.05,2.48-.05,1.41-.07,1.26-.06.91-.15,1.75c-.13,1.48-.41,2.9-.68,4.36l-.11.09s-.06-.12-.06-.16v-1.04s-.03-1.62-.03-1.62l-.02-2.62v-13.1Z"/>
  </g>
</svg>
