<?xml version="1.0" encoding="UTF-8"?>
<svg xmlns="http://www.w3.org/2000/svg" viewBox="0 0 100 100">
  <g transform="translate(50 50) scale(1.71343) translate(-30.1250 -19.3500)">
  <path d="M18.99,20.19c.66-1.3.8-2.8.29-4.14-.37-.97-.98-1.63-1.75-2.31l-.4-.35-.51-.43c-.64-.55-1.2-1.15-1.62-1.92-1.49.86-2.99,1.63-4.58,2.32-.88.38-1.72.72-2.62,1.01l-.93.3-.09-.11,2.93-1.72,4.39-2.56.64-.37,3.43-1.96,3.69-2.1.09.09-.73.68-.5.44c-1.23,1.06-2.53,1.99-3.9,2.86l-1.44.91c.59.64,1.28,1.1,1.94,1.56l.78.54c.4.28.76.61,1.11.96,1.65,1.69,1.7,4.44.23,6.23l-.61.61s-.07-.09-.06-.11l.21-.42Z"/>
  <path d="M49.26,31.93c1.5.33,2.73.16,4.21.31-.89.35-1.74.53-2.64.61h-1.57c-.64,0-1.28-.2-1.87-.42-1.65-.63-3.13-1.98-3.47-3.74-.23-1.19.08-2.44.88-3.35.41-.41.88-.71,1.45-.8l.06.1c-1.57.84-1.99,2.97-1.19,4.49l.45.67.82.81c.59.59,1.97,1.11,2.88,1.31Z"/>
  <path d="M39.47,25.74c.69-.36,1.3-.64,1.83-1.14,1.29-1.23,1.82-2.94,1.36-4.69-.56-2.14-2.63-3.41-4.81-3.41l-1.2.08.05-.13c1.46-.66,3.03-.6,4.46.07,1.71.8,2.72,2.61,2.7,4.51,0,.69-.13,1.35-.42,1.97-.38.82-.96,1.55-1.73,2.03-.67.42-1.42.75-2.26.71Z"/>
  <path d="M27.42,27.96l.07.13c-2.21.61-4.77-.42-5.82-2.46-1.28-2.5-.33-5.64,2.28-6.84.72-.3,1.41-.43,2.2-.39.05.02.14.09.17.13-1.03.17-1.93.61-2.69,1.32-1.46,1.38-1.89,3.58-.99,5.37s2.81,2.73,4.78,2.74Z"/>
  <path d="M32.79,21.88l2.29,2.3.2.28c-1.25.1-2.38-.59-2.89-1.75-.27.44-.6.8-.97,1.16-.39.3-.78.58-1.33.68.99-1.5,1.77-3,2.32-4.72l1.38.5.55.2c-.59.25-1.23-.02-1.27.24-.05.31-.15.75-.28,1.1Z"/>
  <path d="M30.73,20.52c.66.5.57,1.6-.18,2.21-.34-.8-.56-1.6-.77-2.45l.06-.18c.33.11.63.22.89.43Z"/>
  </g>
</svg>
