<?xml version="1.0" encoding="UTF-8"?>
<svg xmlns="http://www.w3.org/2000/svg" viewBox="0 0 100 100">
  <g transform="translate(50 50) scale(1.31537) translate(-21.3150 -40.7797)">
  <path d="M29.22,71.1l-19.32-11.18c2.61.54,4.84,1.75,7.17,2.78l3.47,1.86,1.22-2.43.8-2.07,2.62-8.12c.71-2.19,1.8-4.82,3.31-6.48l1.31-1.44c1.41-1.55,2.37-2.76,2.55-4.9.34,1.02.11,2.05-.3,2.99-.9,2.09-2.43,3.36-3.45,5.11-.75,1.29-1.3,2.63-1.78,4.04l-1.07,3.12c-.81,2.38-1.68,4.66-2.71,6.95-.56,1.25-1.38,2.31-2.19,3.43l3.16,2c2.03,1.29,3.83,2.76,5.62,4.4-.06.05-.23.04-.41-.06Z"/>
  <path d="M32.73,36l-.06,1.29c-.23-.86-.41-1.71-.9-2.49-.51-.83-1.13-1.56-1.76-2.3l-1.56-1.85c-1.32-1.57-2.4-4.62-2.92-6.73l-.89-3.63c-.88-3.6-2.58-6.65-4.42-9.88l.18-.04c2.96,3.52,4.63,6.42,5.82,10.87l1.04,3.91c.35,1.3.76,2.57,1.43,3.73l.64,1.11,1.79,2.5c.49.68.96,1.39,1.21,2.19l.4,1.32Z"/>
  <path d="M25.58,47.74c-.25-.09-.51-.24-.71-.42-.67-.58-1.25-1.14-1.81-1.83-2.96-3.7-3.55-8.89-1.47-13.18.79-1.51,1.72-2.94,3.15-4.02l-1.61,2.93c-1.94,4.41-2.02,8.9.25,13.19.63,1.2,1.38,2.2,2.19,3.33Z"/>
  <path d="M29.71,38.02c0,1.18-.95,2.13-2.13,2.13s-2.13-.96-2.13-2.13.95-2.13,2.13-2.13,2.13.96,2.13,2.13ZM25.66,38.43c.28.7.87,1.01,1.56.92.72-.1,1.16-.74,1.1-1.45-.05-.65-.56-1.19-1.28-1.22-.62-.02-1.17.35-1.41,1.03-.06.18-.06.51.02.72Z"/>
  </g>
</svg>
