<?xml version="1.0" encoding="UTF-8"?>
<svg id="Layer_1" data-name="Layer 1" xmlns="http://www.w3.org/2000/svg" viewBox="0 0 53.5 33.23">
  <g>
    <path d="M19.2,20.07c-.13.16-.28.27-.45.35.26-.57.49-1.05.66-1.62.45-1.58.11-3.24-.97-4.48-.24-.28-.5-.54-.78-.78l-.44-.38-.37-.32-.3-.26c-.62-.54-1.13-1.12-1.55-1.84-1.77,1.01-3.52,1.94-5.39,2.65l-1.37.52-1.42.45.04-.16,12.84-7.43,2.26-1.26c-.07.26-.23.35-.39.49l-.47.41-.4.35-.34.28-1.3,1.02c-1.16.91-2.38,1.65-3.67,2.45.42.43.86.81,1.34,1.14l1.26.88c.53.37,1.01.77,1.43,1.26,1.18,1.4,1.4,3.33.67,4.99-.12.28-.26.56-.46.8l-.42.49Z"/>
    <g>
      <path d="M40.42,25.66l.05,1.12.05,1.48.03,3.84c-.07,0-.13-.07-.12-.12l-.33-3.08-.24-2.13-.17-1.61-5.99-2.49-3.72,6.15-8.82-5.06.38-.5.94-1.13.37-.45,4.01-4.8.4-.48.07.11c-1.57,2.38-3.19,4.65-4.93,6.94l1.06.56,1.15.61,2.16,1.17,2.81,1.56,2.28-3.67,1.45-2.26,2.29,1.04.86.39.69.32,2.12,1.01,1.07.52.04.94Z"/>
      <path d="M53.26,31.87l.13.02s-.05.13-.07.15l-2.31.51-1.95-.02c-.53,0-1.08-.15-1.56-.36l-.75-.32-.74-.45c-.5-.3-.9-.72-1.26-1.19-.39-.5-.67-1.07-.82-1.69-.42-1.74.43-3.87,2.27-4.3l.1.11c-1.25.69-1.8,2.16-1.53,3.54.09.48.26.94.56,1.32l.38.49.41.41c.36.37.8.63,1.27.87,1.47.74,2.92.89,4.56.9h1.31Z"/>
    </g>
  </g>
  <g>
    <path d="M30.94,22.27l-.07.15c-.77.54-1.61.87-2.54.87h-.82c-.81,0-2.07-.4-2.65-1.01l2.28-.06.07-2.4.34-.03,2.41.2c-.5.52-1.11.65-1.73.82-.1.5-.25.96-.52,1.41l1.3.02,1.92.04Z"/>
    <path d="M36.04,27.75l2.07,2.09.41.49c-1.23.13-2.36-.57-2.89-1.72-.3.44-.58.77-.91,1.11-.41.32-.85.61-1.39.72,1-1.5,1.77-3,2.32-4.71l.88.31,1,.35s-.15.12-.19.12l-.99.04-.31,1.21Z"/>
    <path d="M33.2,28.92l-.56.64c-.32-1.58.36-2.86,1.72-3.57.08-.04.2-.06.32-.07-.3,1.1-.79,2.08-1.48,3.01Z"/>
  </g>
  <path d="M37.21,2.51c.29.92.11,2.26-.83,2.29-.41.01-.77-.22-.9-.64-.3-.93-.13-2.28.84-2.31.41,0,.75.23.89.66ZM36.85,2.56c-.07-.25-.29-.41-.53-.4-.61.03-.68,1.19-.47,1.95.07.25.29.41.53.4.6-.03.67-1.18.46-1.95Z"/>
  <path d="M24.58,3.04c.33.73.04,1.67-.62,1.76-.33.04-.57-.06-.81-.31l-.02.26h-.34s0-2.94,0-2.94h.35s0,1.07,0,1.07c.21-.22.45-.35.76-.33.26.02.54.2.67.49ZM24.25,3.18c-.09-.22-.32-.34-.53-.33-.51.01-.72.76-.47,1.33.1.22.32.34.54.33.5-.02.7-.76.47-1.33Z"/>
  <path d="M27.04,4.37v.28c-.34.11-.67.18-1.02.13-.71-.1-1.02-.79-.81-1.53.13-.46.53-.71.99-.71.37,0,.71.18.84.55.07.21.09.46.1.69h-1.6c-.04.37.21.65.6.73l.91-.15ZM26.78,3.48c0-.36-.17-.57-.46-.62-.2-.04-.44.02-.6.17-.1.09-.17.31-.19.46h1.25Z"/>
  <path d="M33.97,4.78c-.36.05-.72,0-1.06-.08v-.38c.31.15.65.23.98.16.32-.07.49-.36.47-.68,0-.27-.17-.51-.44-.58-.29-.08-.6-.02-.89.1v-1.39s1.51,0,1.51,0v.3s-1.15,0-1.15,0v.68c.3-.03.56-.04.79.05.38.14.56.46.58.85.02.48-.26.9-.79.98Z"/>
  <path d="M18.49,4.45c.49.15.88.01,1.25-.28v.39c-.35.2-.71.28-1.12.23-.54-.06-.97-.42-1.1-.95-.22-.92.13-1.82,1.05-1.95.43-.06.81.01,1.19.22v.39c-.42-.32-.88-.44-1.37-.23-.16.07-.35.28-.41.45-.24.68-.09,1.55.52,1.74Z"/>
  <path d="M22.1,2.61v2.14s-.34,0-.34,0l-.03-.26c-.3.36-.84.47-1.21.11-.12-.11-.21-.42-.21-.59v-1.39s.35,0,.35,0v1.39c0,.1.09.34.17.41.14.11.43.11.58.04.14-.06.33-.28.33-.47l.02-1.37h.35Z"/>
  <polygon points="39.48 3.06 39.49 3.36 38.36 3.36 38.36 4.74 37.97 4.73 37.97 1.87 39.61 1.87 39.61 2.17 38.36 2.17 38.36 3.06 39.48 3.06"/>
  <polygon points="30.61 4.74 30.6 4.45 31.23 4.43 31.23 2.25 30.55 2.38 30.55 2.02 31.19 1.9 31.61 1.9 31.61 4.44 32.25 4.45 32.25 4.74 30.61 4.74"/>
  <path d="M41.28,4.44v.31s-.6-.02-.6-.02c-.24,0-.46-.22-.47-.48v-1.27s-.26-.1-.26-.1v-.25s.25-.03.25-.03v-.61s.36,0,.36,0v.62s.73,0,.73,0v.3s-.72,0-.72,0v1.27c0,.09.13.26.23.26h.49Z"/>
  <path d="M29.78,5.24l-.3.04c-.52-.83-.76-1.97-.34-2.79l.36-.7.3.03c-.64,1.06-.68,2.28-.01,3.42Z"/>
  <path d="M42.42,4.39l-.41.88h-.31c.67-1.2.64-2.33,0-3.46l.33.02.35.72c.27.57.27,1.22.05,1.85Z"/>
</svg>