<?xml version="1.0" encoding="UTF-8"?>
<svg id="Layer_1" data-name="Layer 1" xmlns="http://www.w3.org/2000/svg" viewBox="0 0 54.55 34.95">
  <g>
    <path d="M17.3,21.08c.91-1.81.84-3.94-.49-5.5-.31-.36-.64-.69-1-1l-.37-.32-.47-.41c-.67-.58-1.2-1.15-1.66-1.95-1.86,1.07-3.7,2.04-5.68,2.77l-1.11.41-1.24.41s-.12.01-.14.01-.02-.1,0-.11l.88-.52,2.73-1.6,3.88-2.26.88-.51,4.26-2.44.68-.38.68-.38,1.11-.62c0,.08-.03.17-.08.22l-.63.57-.5.44c-1.21,1.06-2.5,1.98-3.86,2.83l-1.48.93c.62.66,1.35,1.15,2.06,1.63.86.59,2.08,1.48,2.49,2.39l.29.65c.29.65.32,1.37.25,2.08-.09.92-.41,1.78-1,2.5l-.63.66-.09-.08.23-.45Z"/>
    <g>
      <path d="M49.98,33.05l1.72.02-.04.14c-.84.24-1.65.42-2.52.54h-1.58c-.63-.09-1.24-.2-1.83-.42-1.65-.64-3.14-1.95-3.5-3.71-.22-1.06,0-2.2.62-3.08.42-.58.99-.99,1.7-1.11l.06.11c-1.56.82-1.98,2.89-1.21,4.44.13.26.29.55.5.75l.79.78c.6.59,1.97,1.11,2.88,1.31.79.17,1.57.23,2.41.24Z"/>
      <g>
        <path d="M38.78,27.96l.05,1.51.03,3.85c-.09-.06-.11-.14-.12-.25l-.29-2.67-.41-3.78c0-.11-.04-.21-.1-.28l-5.92-2.46-3.72,6.15-8.81-5.05c.04-.09.1-.18.16-.25l.8-.96.66-.79.34-.41.31-.37.37-.45,3.38-4.06.07-.08s.06.05.09.08c-1.57,2.38-3.22,4.68-4.95,6.97l.57.32,1.15.61,1.15.61,2.59,1.42,1.71.95,2.3-3.69,1.44-2.24,3.04,1.38,1.66.78,2.15,1.04s.18.11.18.17l.03.67.05,1.29Z"/>
        <path d="M29.19,23.91s.05.12.03.13c-.72.53-1.55.83-2.45.89h-1.07c-.68,0-1.98-.4-2.53-1l1.47-.04.82-.02.07-2.4.22-.04,2.51.2c-.38.48-1.15.68-1.71.82-.1.5-.25.96-.52,1.43l1.3.02h.51s1.35.03,1.35.03Z"/>
      </g>
    </g>
  </g>
  <path d="M35.53,3.72c.29.92.11,2.26-.83,2.29-.41.01-.77-.22-.9-.64-.3-.93-.13-2.28.84-2.31.41,0,.75.23.89.66ZM35.16,3.76c-.07-.25-.29-.41-.53-.4-.61.03-.68,1.19-.47,1.95.07.25.29.41.53.4.6-.03.67-1.18.46-1.95Z"/>
  <path d="M33.05,3.75c.27.94.1,2.23-.86,2.26-.41.01-.75-.23-.89-.66-.17-.52-.17-1.11,0-1.63.14-.43.48-.67.89-.66s.73.26.86.69ZM31.83,5.57c.09.13.39.17.52.11.47-.2.51-1.26.31-1.93-.06-.23-.28-.39-.47-.39-.55,0-.64.7-.62,1.4.01.28.07.56.25.81Z"/>
  <path d="M22.9,4.24c.33.73.04,1.67-.62,1.76-.33.04-.57-.06-.81-.31l-.02.26h-.34s0-2.94,0-2.94h.35s0,1.07,0,1.07c.21-.22.45-.35.76-.33.26.02.54.2.67.49ZM22.57,4.38c-.09-.22-.32-.34-.53-.33-.51.01-.72.76-.47,1.33.1.22.32.34.54.33.5-.02.7-.76.47-1.33Z"/>
  <path d="M25.36,5.57v.28c-.34.11-.67.18-1.02.13-.71-.1-1.02-.79-.81-1.53.13-.46.53-.71.99-.71.37,0,.71.18.84.55.07.21.09.46.1.69h-1.6c-.04.37.21.65.6.73l.91-.15ZM25.09,4.69c0-.36-.17-.57-.46-.62-.2-.04-.44.02-.6.17-.1.09-.17.31-.19.46h1.25Z"/>
  <path d="M16.81,5.65c.49.15.88.01,1.25-.28v.39c-.35.2-.71.28-1.12.23-.54-.06-.97-.42-1.1-.95-.22-.92.13-1.82,1.05-1.95.43-.06.81.01,1.19.22v.39c-.42-.32-.88-.44-1.37-.23-.16.07-.35.28-.41.45-.24.68-.09,1.55.52,1.74Z"/>
  <path d="M20.41,3.81v2.14s-.34,0-.34,0l-.03-.26c-.3.36-.84.47-1.21.11-.12-.11-.21-.42-.21-.59v-1.39s.35,0,.35,0v1.39c0,.1.09.34.17.41.15.12.42.12.58.04.14-.06.32-.28.33-.46l.02-1.37h.35Z"/>
  <polygon points="37.8 4.26 37.81 4.56 36.67 4.56 36.67 5.94 36.29 5.94 36.29 3.08 37.92 3.08 37.93 3.37 36.67 3.37 36.67 4.27 37.8 4.26"/>
  <polygon points="28.93 5.94 28.92 5.65 29.54 5.63 29.54 3.45 28.87 3.59 28.87 3.22 29.51 3.1 29.93 3.1 29.93 5.64 30.56 5.65 30.57 5.94 28.93 5.94"/>
  <path d="M39.6,5.64v.31s-.6-.02-.6-.02c-.24,0-.46-.22-.47-.48v-1.27s-.26-.1-.26-.1v-.25s.25-.03.25-.03v-.61s.36,0,.36,0v.62s.73,0,.73,0v.3s-.72,0-.72,0v1.27c0,.09.13.26.22.26h.5Z"/>
  <path d="M28.1,6.44l-.3.04c-.52-.83-.76-1.97-.34-2.79l.36-.7.3.03c-.64,1.06-.68,2.28-.01,3.42Z"/>
  <path d="M40.74,5.59l-.41.88h-.31c.67-1.2.64-2.33,0-3.46l.33.02.35.72c.27.57.27,1.22.05,1.85Z"/>
</svg>