<?xml version="1.0" encoding="UTF-8"?>
<svg id="Layer_1" data-name="Layer 1" xmlns="http://www.w3.org/2000/svg" viewBox="0 0 52.5 37.87">
  <path d="M10.61-5.57c-.77.34-2.46,1.46-3.1,2.04l-.66.6-.88.87-.83,1c-.56.67-.97,1.49-1.14,1.65-.02.02-.07-.04-.1-.07.28-.76.61-1.44,1-2.14,1.24-2.18,3.02-3.87,5.21-5.08s5.22-2.05,7.65-2.2l1.88-.11h1.13s1.95.11,1.95.11c1.69.1,3.31.43,4.93.82l-.06.14-1.54-.03-.76-.02h-2.82s-.69.02-.69.02l-2.42.12c-1.57.08-4.4.57-5.85,1.1l-1.33.49-1.56.69Z"/>
  <g>
    <g>
      <path d="M31.01,21.61c-1.63.73-3.44.7-5.05-.07-1.24-.59-1.94-1.34-2.65-2.51-.78,0-1.52.12-2.33-.12l2.02-.56-.27-1.05-.06-.51-.03-.56c-.09-1.71.93-3.68,2.37-4.7,2.18-1.55,4.91-1.62,7.1.03l.74-1.1.12.06-.42,1.42.53.54c.38.38.62.85.84,1.36.69,1.61.66,3.43-.09,5.02-.19.4-.41.79-.72,1.1l-.81.81c-.37.37-.82.62-1.3.84ZM28.76,15.31l.32-.27,1.48-1.47.34-.4.22-.28.35-.48c-1.63-1.44-3.7-1.79-5.67-.89-.65.3-1.21.68-1.68,1.2-.86.96-1.33,2.14-1.36,3.44l.02.63c.02.52.2.98.39,1.49,1.72-.57,3.86-1.57,5.22-2.68l.36-.29ZM24.3,19.91l.47.44c1.83,1.47,4.4,1.47,6.26.1.31-.23.56-.49.81-.77,1.64-1.92,1.78-4.6.21-6.6-.39.79-.84,1.43-1.36,2.08l-1.27,1.29c-1.72,1.38-3.63,2.28-5.86,2.56l.44.57.31.35Z"/>
      <path d="M7.3,16.63l-.38,1.94-.65,3.04-.08.12-.53-.46-.53-.47-.95-.87-.73-.65-.5-.44-.64-.59,2.01-.67.47-.16c-.25-1.56.11-2.98,1.07-4.17.78-.97,1.76-1.58,3-1.84,1.93-.41,3.93.26,5.17,1.8,1.84,2.27,1.49,5.69-.86,7.47-.49.37-1.01.63-1.58.85l-.11-.05s.04-.09.07-.1c.86-.52,1.54-1.23,2.03-2.11.67-1.2.77-2.6.3-3.9-.33-.92-1.13-1.81-1.97-2.29-1.57-.89-3.51-.7-4.91.42-1.2.96-1.82,2.29-1.91,3.82l2.21-.69Z"/>
      <path d="M8.78,24.12c.99-.28,1.81-.59,2.69-1.01,1.26-.73,2.6-1.62,3.54-2.72l.32-.37.31-.38c.51-.63.93-1.29,1.31-2.01l.67-1.27.41-.78c.53-1,1.08-1.96,1.75-2.88l.34-.42c.58-.72,1.31-1.3,2.11-1.77s1.59-.67,2.45-.71v.15c-.77.26-1.52.59-2.12,1.14l-.56.51-.33.36c-.42.45-.78.94-1.09,1.48l-.61,1.08-.88,1.82-.96,1.86c-.42.82-.95,1.56-1.55,2.27-.33.4-.7.75-1.09,1.1-.9.8-1.87,1.42-2.97,1.91-1.17.52-2.38.76-3.68.8l-.04-.15Z"/>
      <path d="M40.19,12.66l-3.64.59-.13-.02s.03-.13.07-.15l.82-.46c1.47-.82,3.99-1.54,5.68-1.7l.61-.06.98-.06h.99s.77.06.77.06l.24.02-.07-1.55c-.04-.66-.12-1.27-.28-1.94l.08-.18c1.16.94,1.55,2.44,1.57,3.93l.97.33v.17s-.96.04-.96.04l-.05,1.04-.06,1-.05.78-.14.14-.52-1.02c-.29-.57-.34-1.18-.43-1.86l-3.37.4-3.11.5Z"/>
      <g>
        <path d="M5.58,29.42l-.94.56s-.15.02-.14,0,.04-.11.06-.13l.36-.3.39-.31c.82-.67,1.7-1.23,2.64-1.73l1.23-.65c.65-.34,1.28-.59,1.97-.86,3.2-1.24,6.57-1.83,10.01-1.83h.76s1.38.01,1.38.01h1.38s.88.01.88.01c.95,0,1.87-.04,2.82-.13,1.32-.13,3.21-.5,4.33-1.06l1-.51c.5-.25.95-.57,1.35-.97l.91-.9c.43-.43.7-.98.99-1.52.32-.61.52-1.24.63-1.93.02-.13.02-.19.17-.3l-.04.93c-.04,1.1-.96,3.1-1.75,3.89l-.82.81-.44.37c-1.71,1.46-4.43,2.22-6.66,2.42l-.68.06-.94.06-1.32.04h-3.44s-.88,0-.88,0l-1.05.02-.45.02-1.32.07c-2.19.12-5.46.89-7.57,1.65-1.68.61-3.24,1.34-4.83,2.22Z"/>
        <path d="M9.38,32.25c-1.09.57-2.12,1.2-3.06,2.01l-.47.4-1.03,1.04c-.63.64-2,2.61-1.97,2.63l-.09-.08c.28-.66.54-1.32.91-1.95.48-.83.99-1.61,1.62-2.32l.91-.91.54-.47c1.25-1.1,3.04-2.01,4.64-2.57,4.65-1.63,10.05-1.44,14.82-.28l.03.14-1.66-.02-1.26-.02h-1.74s-.56.01-.56.01l-1.69.05-.5.03-.82.06-.59.05c-2.53.22-5.75,1.03-8.01,2.21Z"/>
      </g>
    </g>
    <path d="M25.63,6.44c-.27.09-.62.09-.87.02-.34-.09-.53-.36-.56-.7-.03-.37.14-.68.54-.8-.31-.16-.46-.34-.48-.61-.01-.25.11-.52.36-.65.31-.16.71-.16,1.03-.03.28.11.42.37.43.63,0,.31-.15.53-.49.69.35.09.56.36.55.73-.01.32-.16.62-.52.74ZM25.15,4.83c.37,0,.58-.24.55-.54s-.27-.44-.58-.42c-.29.02-.49.21-.48.51.02.27.2.45.51.45ZM25.76,5.61c-.03-.33-.29-.48-.57-.48-.36,0-.61.22-.61.55s.25.55.61.55c.34,0,.61-.23.57-.61Z"/>
    <polygon points="30.22 6.43 29.84 6.45 29.84 5.07 28.43 5.07 28.43 6.45 28.05 6.45 28.05 3.58 28.43 3.57 28.43 4.78 29.84 4.77 29.84 3.57 30.22 3.58 30.22 6.43"/>
    <path d="M14.1,3.61h.39s0,1.91,0,1.91c0,.29-.14.65-.39.8-.4.26-.93.26-1.35.03-.27-.15-.43-.5-.44-.8v-1.95s.38,0,.38,0v1.97c.02.41.33.67.72.65.19-.01.43-.07.54-.23.09-.14.15-.38.15-.53v-1.85Z"/>
    <path d="M15.53,7.26h-.35s0-2.93,0-2.93h.34s.03.25.03.25c.14-.15.33-.28.54-.31.36-.04.67.12.83.42.23.44.22.96,0,1.4-.18.3-.47.47-.84.43-.22-.03-.39-.15-.56-.32v1.07ZM16.67,5.79c.08-.27.07-.58,0-.83s-.31-.4-.53-.4-.46.14-.54.4c-.08.27-.08.59,0,.86.08.25.3.4.54.4s.46-.14.54-.42Z"/>
    <path d="M32.74,5.82c-.12.46-.48.69-.91.7-.39,0-.75-.18-.9-.55s-.14-.8,0-1.16.5-.56.9-.55c.43,0,.78.24.9.67.07.26.08.6,0,.89ZM32.35,5.81c.09-.28.08-.61,0-.87s-.32-.38-.55-.38-.45.15-.53.4c-.09.27-.09.59,0,.86.08.25.31.4.53.4s.47-.13.56-.41Z"/>
    <path d="M21.46,6.52c-.43-.01-.74-.23-.87-.61-.11-.32-.11-.71,0-1.04.14-.4.49-.61.9-.61s.76.21.9.61c.11.32.11.71,0,1.03-.14.39-.48.62-.93.61ZM22,5.87c.13-.32.12-.69,0-.98-.1-.22-.32-.34-.54-.33-.5.02-.73.71-.5,1.29.09.22.3.36.5.37.21,0,.44-.11.55-.35Z"/>
    <path d="M35.13,4.33v2.12s-.34,0-.34,0l-.04-.27c-.28.37-.84.48-1.21.12-.12-.12-.2-.41-.2-.59v-1.39s.35,0,.35,0v1.38c0,.11.08.34.16.41.17.14.45.12.62.03.14-.07.29-.3.29-.5v-1.32s.36,0,.36,0Z"/>
    <polygon points="19.95 6.46 19.56 6.49 19.55 3.95 18.55 3.95 18.54 3.65 20.95 3.65 20.96 3.95 19.95 3.95 19.95 6.46"/>
    <path d="M38.91,6.08c-.16.48-.97.53-1.6.3v-.36c.57.26,1.24.28,1.28-.12.01-.11-.13-.28-.25-.31l-.61-.16c-.25-.06-.41-.29-.41-.55,0-.28.17-.52.46-.58.34-.08.68-.03,1.04.05v.34c-.48-.18-1.03-.22-1.16.11-.03.07.04.26.11.29l.52.15c.19.06.37.12.52.25.12.1.15.41.09.58Z"/>
    <path d="M36.19,6.45h-.36s0-2.12,0-2.12h.33s.08.19.08.19c.23-.21.51-.29.84-.25v.34c-.19-.06-.43-.08-.61.03-.17.1-.26.36-.29.54v1.26Z"/>
  </g>
</svg>