<?xml version="1.0" encoding="UTF-8"?>
<svg id="Layer_1" data-name="Layer 1" xmlns="http://www.w3.org/2000/svg" viewBox="0 0 52.5 46.38">
  <path d="M32.2,5.81c.32.09.57.15.88.13.28-.02.54-.29.55-.56v-.36c-.18.18-.37.32-.62.35-.42.05-.78-.16-.95-.53-.2-.44-.2-.96,0-1.4.17-.37.53-.57.95-.53.24.03.45.17.62.34l.04-.29h.39s-.02,2.39-.02,2.39c0,.4-.29.78-.67.87-.4.1-.81.05-1.18-.07v-.34ZM33.61,4.52c.14-.65-.05-1.24-.57-1.27-.27-.02-.54.11-.64.4s-.1.61-.04.89c.08.32.33.5.61.5s.56-.16.64-.51Z"/>
  <path d="M18.71,4.09l-.75.02v1.3s-.43,0-.43,0v-3.2s1.06,0,1.06,0c.24,0,.59.1.76.28.33.36.33.92.03,1.31-.12.16-.47.29-.67.3ZM19.14,3.07c-.02-.27-.23-.52-.49-.52h-.69s0,1.21,0,1.21h.62c.36,0,.6-.29.56-.69Z"/>
  <path d="M22.21,5.1c.35.01.64-.07.96-.17l.02.34c-.89.35-1.86.2-2.08-.66-.08-.32-.06-.7.06-1.01.17-.44.56-.67,1.01-.69.42-.02.81.16.99.57.1.24.12.54.13.82h-1.79c-.06.38.22.79.71.8ZM22.88,3.95c0-.52-.36-.77-.78-.71-.39.06-.63.37-.61.71h1.39Z"/>
  <path d="M30.62,3.3c-.21-.09-.48-.06-.64.04-.13.08-.3.34-.3.53v1.49s-.4,0-.4,0v-2.38s.39,0,.39,0l.04.28c.2-.19.41-.33.69-.35.5-.04.88.33.88.82l.02,1.64h-.4s0-1.56,0-1.56c0-.15-.11-.43-.27-.51Z"/>
  <path d="M26.5,5.08c.34.05.59-.03.87-.14v.36c-.75.27-1.51.15-1.79-.54-.15-.37-.15-.8,0-1.18.27-.68,1.04-.81,1.79-.54v.37c-.31-.12-.59-.2-.91-.14-.26.05-.5.32-.54.57-.1.61.06,1.16.57,1.24Z"/>
  <path d="M24.31,5.36h-.39s0-2.38,0-2.38h.38s.01.29.01.29c.25-.28.56-.41.99-.35v.35c-.26-.01-.43-.03-.63.05s-.36.41-.36.61v1.44Z"/>
  <rect x="20" y="2.97" width=".4" height="2.39"/>
  <rect x="28.07" y="2.97" width=".4" height="2.39"/>
  <rect x="20" y="2.06" width=".4" height=".49"/>
  <rect x="28.07" y="2.06" width=".4" height=".49"/>
  <g>
    <path d="M9.3,33.13l-1.65.07h-1.63s-1.28-.06-1.28-.06l-.78-.05-.05,2.4-.05,1.48-.06,1.13-.07,1.05c-.1,1.52-.29,3-.55,4.49l-.27,1.51-.18.15v-.98s-.03-1.87-.03-1.87l-.02-2.62v-13.14s.02-3.11.02-3.11l.02-1.69v-.95s.17,0,.17,0l.59,3.48c.14.86.2,1.69.26,2.55l.07,1.04.06,1.13.05,1.48.05,2.13c3.13-.11,6.11-.67,9.05-1.72.74-.26,1.45-.52,2.15-.87l1.27-.63,1.47-.86c1.67-.98,3.44-2.7,4.51-4.36.35-.55.64-1.11.88-1.72.4-.92.63-1.86.64-2.88,0-.02.09-.1.11-.07l.07.12c.18.97.13,1.93-.11,2.9-.33,1.4-1.09,2.88-2,3.99l-.45.54-.66.68-.68.66-.5.41c-.57.47-1.14.89-1.78,1.24l-1.04.57-.92.48c1.74-.21,3.41-.38,5.14-.44l.64-.02h1.04s.44.02.44.02c2.3.09,4.54.39,6.72,1.12l1.72.68,1.62.84.6.38,1.4,1.06.44.39.94.95-.12.12-1.11-.84-1.7-1.04-1.53-.73c-.81-.39-1.65-.62-2.52-.85-1.29-.34-2.56-.56-3.89-.67-2.97-.25-6.13-.1-9.1.2l-.44.04-2.68.3c-1.44.16-2.82.32-4.29.38Z"/>
    <path d="M30.77,25.93l-1.18.59-1,.47-2.17.87-2.35.7s-.1-.12-.07-.14l.13-.06,1.17-.54c2.53-1.16,4.9-2.53,7.17-4.14l1.69-1.2,1.44-1.09.71-.56.93-.76.99-.84.37-.33.55-.5.92-.85,2.74-2.74.4-.45.43-.48.46-.53.52-.61c.94-1.09,1.75-2.22,2.56-3.41.68-1,1.24-1.98,1.82-3.08.07.13.05.31,0,.46-.36.95-.7,1.87-1.18,2.76l-.8,1.45-.62,1.01c-.87,1.41-1.86,2.69-2.95,3.93l-.56.64-.61.66-.3.33-1.26,1.27-.23.19-.69.65-.6.53-.56.49-.89.73-.83.65-.88.66-1.2.85-.97.64-1.22.75-1.85,1.03Z"/>
  </g>
</svg>