<?xml version="1.0" encoding="UTF-8"?>
<svg xmlns="http://www.w3.org/2000/svg" viewBox="0 0 100 100">
  <g transform="translate(50 50) scale(1.71798) translate(-26.3931 -20.5550)">
  <path d="M26.38,25.94c-.7.07-1.37-.14-1.95-.55-.23-.16-.46-.36-.6-.59l-.34-.59-.22.29-.64.74c-.42.35-.86.67-1.45.79,1.01-1.51,1.78-3.04,2.33-4.73l1.47.54.43.17c-.43.13-.78.14-1.2.12l-.28,1.1c-.02.08.05.2.12.27l1.72,1.72.61.7Z"/>
  <path d="M21.64,24.19l-.36-.96-.44-1.63c.78.08,1.39.56,1.45,1.31-.04.49-.18.91-.64,1.28Z"/>
  <path d="M15.86,18.42c-.1-.78-.5-1.78-1.03-2.35l-.61-.65-.49-.45-.4-.35-.5-.44-.32-.3-.44-.45-.31-.37-.47-.7-.52.29-.85.47c-1.53.84-3.87,1.91-5.5,2.45l-1.21.4-.1-.1,15.05-8.68.03.13-.63.59-.57.5c-1.37,1.2-2.85,2.21-4.4,3.17l-.91.57.55.51c.39.36.82.64,1.26.94l.67.46c1.1.76,2.05,1.65,2.44,2.95.24.8.28,1.61.1,2.43-.23,1.02-.73,1.99-1.63,2.63.22-.53.44-.97.6-1.47.22-.71.29-1.44.2-2.18Z"/>
  <path d="M49.57,33.63c-1.06.14-2.05.29-3.1.29h-1.88c-1.13,0-2.2-.15-3.32-.31-1.55-.22-3.01-.57-4.5-1s-3.27-1.16-4.46-2.18l-.44-.38-.56-.56-.31-.38c-1.4-1.67-1.97-4.15-1.52-6.3.09-.43.26-.93.42-1.3l.07-.11s.07.05.09.07c-.29,1.11-.31,2.22-.11,3.37.24,1.31.75,2.52,1.63,3.51l.47.53.49.45c.52.47,1.11.84,1.75,1.13l.94.43.91.35c4.31,1.45,8.84,2.17,13.45,2.23.12-.03.11.14,0,.14Z"/>
  <path d="M32,31.88l-.56-.28-.96-.42-1.38-.5-1.42-.39c-2.07-.57-5.39-.67-7.52-.25l-1.15.23-.04-.11c1.54-.83,3.21-1.26,4.97-1.34,2.76-.12,6,.69,8.21,2.32l.55.4.41.34.45.42.5.51c.13.13.24.26.29.47l-1.67-1.04-.67-.36Z"/>
  </g>
</svg>
