<?xml version="1.0" encoding="UTF-8"?>
<svg id="Layer_1" data-name="Layer 1" xmlns="http://www.w3.org/2000/svg" viewBox="0 0 52.75 33.23">
  <path d="M32.73,2.51c.29.92.11,2.26-.83,2.29-.41.01-.77-.22-.9-.64-.3-.93-.13-2.28.84-2.31.41,0,.75.23.89.66ZM32.37,2.56c-.07-.25-.29-.41-.53-.4-.61.03-.68,1.19-.47,1.95.07.25.29.41.53.4.6-.03.67-1.18.46-1.95Z"/>
  <path d="M30.25,2.54c.27.94.1,2.23-.86,2.26-.41.01-.75-.23-.89-.66-.17-.52-.17-1.11,0-1.63.14-.43.48-.67.89-.66s.73.26.86.69ZM29.03,4.37c.09.13.39.17.52.11.48-.2.51-1.26.31-1.93-.06-.23-.28-.39-.47-.39-.55,0-.64.7-.62,1.4.01.28.07.56.25.81Z"/>
  <path d="M20.1,3.04c.33.73.04,1.67-.62,1.76-.33.04-.57-.06-.81-.31l-.02.26h-.34s0-2.94,0-2.94h.35s0,1.07,0,1.07c.21-.22.45-.35.76-.33.26.02.54.2.67.49ZM19.77,3.18c-.09-.22-.32-.34-.53-.33-.51.01-.72.76-.47,1.33.1.22.32.34.54.33.5-.02.7-.76.47-1.33Z"/>
  <g>
    <path d="M14.32,20.37c-.04-.14.09-.34.18-.49.99-1.94.79-4.33-.76-5.84l-.48-.46-.6-.53-.5-.44c-.64-.57-1.24-1.18-1.64-1.92-1.41.79-2.79,1.52-4.25,2.17-1.02.45-2,.86-3.07,1.19l-.75.24s-.12,0-.15-.01.05-.1.08-.12l15-8.66.05.14-.68.61-.47.41-.34.29-.42.34c-1.45,1.19-2.98,2.19-4.62,3.17.07.11.17.23.27.31.24.21.47.42.72.6l1.65,1.17c.43.3.82.63,1.18,1.01,1.25,1.3,1.56,3.13,1.01,4.84-.31.75-.69,1.46-1.43,2Z"/>
    <path d="M48.97,31.92c-.94.35-1.85.53-2.81.61h-1.26c-1.14,0-2.95-.71-3.8-1.51l-.49-.46c-1.52-1.43-1.77-4.23-.08-5.78.33-.3.73-.47,1.18-.61l.11.12c-.28.17-.51.29-.7.52l-.31.38c-.21.26-.33.57-.42.89-.24.83-.21,1.69.15,2.5.29.64.72,1.23,1.29,1.63l.77.54c.56.39,1.21.58,1.88.75.88.23,1.76.29,2.67.3h.39c.47.02.9-.03,1.42.1Z"/>
    <g>
      <path d="M36.07,32.11c-.09-.06-.11-.14-.12-.25l-.26-2.39-.38-3.5-.07-.82-6-2.49-3.72,6.15-4.25-2.44-2.95-1.69-1.64-.94.27-.33.34-.41.83-.99.31-.37.31-.38.29-.34.91-1.09.23-.28,2.19-2.63.37-.44s.07-.09.07-.09c0,0,.05.06.07.07.03.02-.02.06-.05.12-1.56,2.35-3.18,4.62-4.88,6.87l1.05.55.41.22,1.6.85.9.48.49.27,2.74,1.53,2.34-3.76,1.4-2.17.64.29,2.41,1.09.98.46,1.19.56,1.81.88.03.84.05,1.25.05,1.47.03,3.86Z"/>
      <g>
        <path d="M24.76,22.66l1.7.05c-1.03.93-2.56,1.13-3.88.96-.84-.1-1.62-.38-2.27-.97l2.29-.07.03-.43.06-2.02,2.27.17.48.05-.34.3c-.44.23-.89.4-1.39.5-.11.49-.28.98-.53,1.44h1.58Z"/>
        <path d="M27.23,22.09l-.77.11-2.36.02.3-.45c.55-.69,1.51-.81,2.23-.34.23.19.37.33.59.67Z"/>
      </g>
    </g>
  </g>
  <path d="M22.56,4.37v.28c-.34.11-.67.18-1.02.13-.71-.1-1.02-.79-.81-1.53.13-.46.53-.71.99-.71.37,0,.71.18.84.55.07.21.09.46.1.69h-1.6c-.04.37.21.65.6.73l.91-.15ZM22.3,3.48c0-.36-.17-.57-.46-.62-.2-.04-.44.02-.6.17-.1.09-.17.31-.19.46h1.25Z"/>
  <path d="M25.94,4.74c-.02-.06-.03-.29.03-.34l.9-.94c.33-.34.59-.7.39-1.04-.22-.38-.78-.29-1.32-.03v-.38s.79-.15.79-.15c.28-.05.63.1.81.3.24.27.21.6.1.91l-.39.48-.85.87h1.33s0,.31,0,.31h-1.79Z"/>
  <path d="M14.01,4.45c.49.15.88.01,1.25-.28v.39c-.35.2-.71.28-1.12.23-.54-.06-.97-.42-1.1-.95-.22-.92.13-1.82,1.05-1.95.43-.06.81.01,1.19.22v.39c-.42-.32-.88-.44-1.37-.23-.16.07-.35.28-.41.45-.24.68-.09,1.55.52,1.74Z"/>
  <path d="M17.62,2.61v2.14s-.34,0-.34,0l-.03-.26c-.3.36-.84.47-1.21.11-.12-.11-.21-.42-.21-.59v-1.39s.35,0,.35,0v1.39c0,.1.09.34.17.41.15.12.42.11.58.04.14-.06.32-.28.33-.47l.02-1.37h.35Z"/>
  <polygon points="35 3.06 35.01 3.36 33.88 3.36 33.88 4.74 33.49 4.73 33.49 1.87 35.13 1.87 35.13 2.17 33.88 2.17 33.88 3.06 35 3.06"/>
  <path d="M36.8,4.44v.31s-.6-.02-.6-.02c-.24,0-.46-.22-.47-.48v-1.27s-.26-.1-.26-.1v-.25s.25-.03.25-.03v-.61s.36,0,.36,0v.62s.73,0,.73,0v.3s-.72,0-.72,0v1.27c0,.09.13.26.22.26h.5Z"/>
  <path d="M25.3,5.24l-.3.04c-.52-.83-.76-1.97-.34-2.79l.36-.7.3.03c-.64,1.06-.68,2.28-.01,3.42Z"/>
  <path d="M37.94,4.39l-.41.88h-.31c.67-1.2.64-2.33,0-3.46l.33.02.35.72c.27.57.27,1.22.05,1.85Z"/>
</svg>