<?xml version="1.0" encoding="UTF-8"?>
<svg id="Layer_1" data-name="Layer 1" xmlns="http://www.w3.org/2000/svg" viewBox="0 0 53.5 38.89">
  <path d="M15.42,18.03c.13-1.88-.73-3.17-2.09-4.35l-.37-.32-.44-.38-.43-.39c-.5-.45-.91-.98-1.25-1.58-2.04,1.18-4.12,2.25-6.35,3.03l-.9.31-.83.27s-.12-.07-.12-.09l1.61-.95,2.88-1.69,2.03-1.18,4.57-2.63.88-.5,2.36-1.33.64-.36.09-.05s.07.09.07.11l-.52.47-.67.59-.34.29-.42.34c-1.45,1.18-2.99,2.19-4.62,3.17l.46.46c.77.78,2.43,1.52,3.56,2.83,1.64,1.89,1.41,4.99-.58,6.61l-.07-.09c.46-.81.76-1.64.82-2.57Z"/>
  <path d="M46.45,32.55h-2.76c-1.22,0-2.39-.2-3.6-.4-1.71-.3-3.35-.7-4.98-1.28-1.27-.45-2.42-1.08-3.45-1.94l-.97-.97c-.68-.68-1.34-2.05-1.59-3.05-.22-.86-.31-1.73-.21-2.62.09-.78.2-1.59.69-2.27-.4,1.87-.3,3.68.49,5.36.73,1.55,1.89,2.76,3.4,3.56.69.37,1.34.67,2.09.93,2.61.89,5.26,1.5,8.01,1.87,1.26.17,2.44.29,3.69.34l1.97.07-.11.14c-.89.1-1.75.26-2.66.26Z"/>
  <path d="M30.71,30.13l-.79-.34-1.34-.48-1.27-.35c-.83-.23-1.66-.34-2.53-.43-2.1-.22-4.13-.08-6.22.39l-.04-.12c4.01-2.15,9.36-1.61,13.09.93l1.07.82.94.93.25.28-.03.15-2.08-1.27-1.04-.52Z"/>
  <path d="M22.4,23.45l-.36.37-.62.45c-.23.16-.44.22-.77.3l.44-.7c.79-1.27,1.42-2.58,1.88-4.02l.64.23,1.29.47c-.44.14-.81.12-1.25.11-.13,1.05-.5,2.04-1.24,2.8Z"/>
  <path d="M23.07,4.8c.36.08.7,0,1.01-.16l.02.33c-.71.27-1.54.21-1.8-.44-.15-.37-.13-.81.04-1.15s.5-.5.87-.52c.41-.01.77.2.9.61.05.18.07.4.08.62h-1.61c-.01.32.15.62.49.69ZM23.82,3.81c0-.43-.27-.64-.62-.64-.37,0-.62.28-.63.64h1.24Z"/>
  <path d="M31.12,5.08c-.39.1-.79.04-1.17-.05v-.35c.33.12.63.19.94.14s.5-.31.51-.62c.01-.28-.14-.56-.43-.64s-.58-.02-.91.09v-1.38s1.51,0,1.51,0v.3s-1.16,0-1.16,0v.7c.34-.07.68-.06.98.13.27.18.39.49.39.81,0,.42-.23.77-.67.88Z"/>
  <path d="M15.62,4.78c.49.15.88.01,1.25-.28v.39c-.35.2-.71.28-1.12.23-.54-.06-.97-.42-1.1-.95-.22-.92.13-1.82,1.05-1.95.43-.06.81.01,1.19.22v.39c-.42-.32-.88-.44-1.37-.23-.16.07-.35.28-.41.45-.24.68-.09,1.55.52,1.74Z"/>
  <path d="M19.23,4.44c-.12.46-.49.69-.91.7-.47,0-.86-.28-.95-.75-.05-.23-.05-.53,0-.76.1-.47.49-.76.95-.75.43,0,.79.24.91.67.07.26.08.61,0,.89ZM18.82,4.48c.13-.32.12-.68,0-.98-.09-.21-.33-.33-.53-.33s-.42.14-.5.36c-.12.3-.12.64,0,.94.09.22.3.35.5.36s.44-.12.54-.35Z"/>
  <path d="M21.17,3.32c-.16-.19-.45-.17-.63-.09-.15.06-.33.31-.33.52v1.32s-.36,0-.36,0v-2.12s.34,0,.34,0l.03.27c.3-.36.84-.47,1.21-.11.12.11.21.42.21.59v1.39s-.35,0-.35,0v-1.32c0-.1-.05-.34-.12-.42Z"/>
  <polygon points="34.04 3.39 34.04 3.69 32.91 3.69 32.91 5.07 32.52 5.06 32.52 2.2 34.16 2.2 34.16 2.5 32.91 2.5 32.91 3.39 34.04 3.39"/>
  <polygon points="27.66 5.07 27.64 4.78 28.27 4.76 28.27 2.58 27.59 2.71 27.59 2.36 28.26 2.23 28.65 2.22 28.65 4.77 29.28 4.77 29.28 5.07 27.66 5.07"/>
  <path d="M35.83,4.77v.31s-.65-.03-.65-.03c-.21-.01-.42-.24-.42-.46v-1.29s-.26-.08-.26-.08v-.26s.25-.03.25-.03v-.61s.35,0,.35,0v.63s.73,0,.73,0v.3s-.73,0-.73,0v1.28c0,.09.14.25.24.25h.48Z"/>
  <path d="M36.93,4.85l-.36.76-.32-.02c.66-1.11.65-2.37-.01-3.44h.32c.51.76.77,1.87.37,2.71Z"/>
  <path d="M26.82,5.59s-.27.04-.31-.03l-.35-.69c-.25-.67-.3-1.39.01-2.03l.35-.71h.32c-.59.97-.67,2.1-.18,3.12l.16.34Z"/>
</svg>