<?xml version="1.0" encoding="UTF-8"?>
<svg xmlns="http://www.w3.org/2000/svg" viewBox="0 0 100 100">
  <g transform="translate(50 50) scale(1.72655) translate(-27.3076 -25.7050)">
  <path d="M5.44,33.04l-.06,2.43-.05,1.41-.06,1.2-.07.99-.06.7-.14,1.41c-.13,1.38-.4,2.69-.66,4.05l-.15-.02v-.95s-.03-1.82-.03-1.82l-.02-2.62v-13.16s.02-3.11.02-3.11v-1.62s.02-.96.02-.96l.15-.11.52,2.97c.14.78.2,1.54.27,2.33l.07.91.06.91.06,1.2.05,1.41.05,2.06c.79-.13,1.53-.28,2.28-.55l1.71-.62,1.58-.68,2.81-1.28c5.1-2.32,9.72-2.86,14.8-.13l.07-1.06c.07-1.12.77-2.82,1.41-3.81.36-.55.73-1.09,1.19-1.55l.85-.84.41-.36,1.2-.92c.85-.65,1.77-1.15,2.72-1.64l1.87-.95,2.98-1.53c1.09-.56,2.07-1.22,2.98-2.03l.67-.6.7-.71.47-.52.32-.38.31-.39.69-.93,1.33-2.05.81-1.38.35-.62.53-.94c.05.16.02.29-.04.43l-.61,1.38-.71,1.48-.92,1.68-.85,1.33-.87,1.18-.35.42-.32.38-1.02,1.03-.64.56-.59.47-1.05.71-.78.48-1.58.89-1.1.59-1.69.91-1.39.8-1.33.86-.85.63-.69.58-.95.95-.32.38c-1.02,1.22-1.82,2.91-1.99,4.5-.14,1.32.19,2.64,1.02,3.69,1.85,2.33,5.17,2.97,7.61,1.12.4-.3.79-.62,1.07-1.04l.6-.88c.5-.73.72-1.62.8-2.51l.09-.92s.1.17.11.2c.08,1.19.02,2.19-.52,3.35-1.24,2.66-3.85,4.26-6.76,3.67-1.85-.38-3.48-1.47-4.44-3.09-.52-.87-.75-1.82-.81-2.84l-1.98-.5c-1.18-.29-2.35-.42-3.58-.44-2.22-.04-4.6.52-6.68,1.28l-1.35.49-2.33.91-2.1.8c-1.15.43-3.29.95-4.43.94h-.72Z"/>
  <path d="M44.02,23.23c0,1.14-.92,2.06-2.06,2.06s-2.06-.92-2.06-2.06.92-2.06,2.06-2.06,2.06.92,2.06,2.06ZM42.69,23.23c0-.72-.58-1.31-1.31-1.31s-1.31.58-1.31,1.31.58,1.31,1.31,1.31,1.31-.58,1.31-1.31Z"/>
  </g>
</svg>
