<?xml version="1.0" encoding="UTF-8"?>
<svg id="Layer_1" data-name="Layer 1" xmlns="http://www.w3.org/2000/svg" viewBox="0 0 52.5 37.87">
  <g>
    <path d="M7.56,31.05l.36-.29c.81-.67,1.86-1.24,2.83-1.68.49-.22,1.02-.37,1.55-.46l.81-.13c1.45-.24,2.39-.37,3.58-1.43,1.6-1.42,1.34-3.91,0-5.48l-.66-.66-.27-.23c-.39-.33-.83-.6-1.29-.84-1.57-.82-3.43-1.45-5.18-1.14-2.36.41-3.74,2.87-2.86,5.18.36.93.98,1.72,1.85,2.22l.44.25.1.05s-.03.08-.06.12c-.66-.21-1.2-.55-1.73-.98-2.16-1.99-2.02-5.11.19-6.98.52-.44,1.15-.72,1.82-.87,1.84-.39,3.8.07,5.51.82.71.31,1.78.92,2.31,1.4l.39.36.36.4c.61.68,1.05,1.5,1.31,2.39.61,2.09-.17,4.26-2.05,5.41-.94.57-1.8.87-2.88,1.01l-1.49.19c-.78.1-1.49.36-2.19.69-.61.29-1.18.58-1.73.96l-.41.29c-.62.44-1.2.91-1.72,1.47l-.4.42c-.4.42-.78.84-1.13,1.32l-.58.8-.93,1.44-.06.1s-.11-.1-.1-.12c.38-.83.77-1.58,1.24-2.35.32-.52.64-1.01,1.03-1.48l.34-.41.38-.44.87-.87.49-.43Z"/>
    <g>
      <path d="M28.31,12.38l-1.09-.07c-1.79-.11-3.8.09-5.49.68-.7.25-1.32.6-1.93.97-.02-.02-.08-.09-.08-.08,0,0,.06-.08.08-.09l.4-.34c1.43-1.22,3.73-2,5.6-2.12l1.23-.08c1.02-.07,2.01.01,3.03.08l3.07.2c1.06.07,2.08.14,3.13.03l1.34-.13c.76-.08,1.48-.28,2.22-.48,1.69-.48,3.84-1.1,5.54-1.15l1.24-.04h.91s-.08-1.61-.08-1.61c-.04-.76-.11-1.48-.3-2.22-.02-.06.03-.21.08-.21.99.72,1.49,2.22,1.55,3.43l.04.73.97.15v.13s-.47.03-.47.03l-.49.03-.03.43-.07,1.12-.08,1.27s-.02.16-.05.15l-.14-.06c-.56-.86-.75-1.83-.89-2.84-1.55.14-3.03.41-4.51.82l-1.95.63-1.25.43-1.33.37c-1.6.34-3.19.46-4.82.32l-3.07-.27-2.31-.22Z"/>
      <path d="M24,18.84c-2.12-.1-4.13-.49-6.14-1.18-1.13-.45-2.19-.96-3.24-1.58l-.05-.12s.11-.02.12-.02c.91.31,1.76.57,2.69.82,2.15.54,4.31.85,6.53.84h1.08c1.99,0,3.93-.24,5.88-.62l.95-.19,2.63-.62,1.84-.48,3.67-1.04.21.09-1.98.97-2.07.88-.9.35-1.54.53c-1.93.66-3.91,1.07-5.94,1.25l-.69.06-.79.05c-.76.05-1.5.04-2.26,0Z"/>
    </g>
  </g>
  <path d="M15.32,2.11h.39s0,1.91,0,1.91c0,.29-.14.65-.39.8-.4.26-.93.26-1.35.03-.27-.15-.43-.5-.44-.8v-1.95s.38,0,.38,0v1.97c.02.41.33.67.72.65.19-.01.43-.07.54-.23.09-.14.15-.38.15-.53v-1.85Z"/>
  <path d="M28.49,5.77h-.35s0-2.93,0-2.93h.34s.03.26.03.26c.21-.24.47-.36.81-.31.64.09.91.98.63,1.7-.12.3-.38.5-.63.54-.34.05-.6-.07-.83-.32v1.08ZM29.62,3.45c-.08-.22-.29-.37-.48-.39-.22-.02-.45.09-.54.31-.14.32-.14.71,0,1.03.1.22.32.33.54.32.48-.04.67-.7.48-1.27Z"/>
  <path d="M23.94,4.71c-.2.23-.46.36-.8.31-.25-.04-.52-.24-.63-.54-.27-.71-.02-1.57.58-1.69.35-.07.61.03.87.31v-1.08s.35,0,.35,0v2.93s-.33,0-.33,0l-.04-.26ZM23.87,3.43c-.08-.22-.3-.36-.5-.37s-.44.12-.52.34c-.13.33-.13.71.02,1.03.09.18.32.3.5.29.49,0,.72-.7.5-1.29Z"/>
  <path d="M39.04,4.71c-.2.22-.46.36-.8.31-.25-.04-.52-.24-.63-.53-.28-.71-.02-1.57.58-1.7.34-.07.61.03.87.31v-1.08s.35,0,.35,0v2.93s-.33,0-.33,0l-.03-.25ZM38.97,3.44c-.08-.22-.3-.36-.49-.37-.21,0-.44.12-.53.33-.13.31-.13.69,0,.99.09.22.32.34.53.34.49-.02.7-.7.49-1.29Z"/>
  <path d="M36.97,4.59v.28c-.34.11-.67.18-1.02.13-.71-.1-1.02-.79-.81-1.53.13-.46.53-.71.99-.71.37,0,.71.18.84.55.07.21.09.46.1.69h-1.6c-.04.37.21.65.6.73l.91-.15ZM36.7,3.7c0-.36-.17-.57-.46-.62-.2-.04-.44.02-.6.17-.1.09-.17.31-.19.46h1.25Z"/>
  <path d="M31.31,4.68c.36.1.71.01,1.06-.12l.03.31c-.36.13-.74.2-1.11.12-.69-.15-.94-.9-.71-1.57.14-.41.49-.64.92-.65s.81.22.92.65l.06.58h-1.6c-.01.31.12.58.44.67ZM32.12,3.7c0-.38-.21-.58-.49-.63-.41-.05-.74.22-.75.64h1.24Z"/>
  <path d="M17.64,3.19c-.18-.15-.45-.14-.64-.04-.16.09-.3.33-.3.55v1.26s-.35,0-.35,0v-2.12s.34,0,.34,0l.04.26c.28-.35.81-.46,1.18-.13.16.14.24.46.24.68v1.32s-.35,0-.35,0v-1.38c0-.09-.07-.33-.15-.39Z"/>
  <path d="M27.18,4.95c-.4.13-.81.07-1.21-.05v-.36c.56.28,1.22.26,1.27-.11.01-.09-.12-.28-.22-.31l-.6-.16c-.29-.08-.46-.31-.45-.59.01-.24.19-.5.48-.56.34-.07.7-.03,1.02.06v.33c-.56-.22-1.15-.18-1.17.17,0,.09.13.25.22.27l.61.16c.25.07.44.27.46.5.02.26-.11.54-.42.64Z"/>
  <path d="M19.89,4.67v.3s-.67-.04-.67-.04c-.2-.01-.39-.26-.39-.47v-1.31s-.26-.03-.26-.03v-.27s.25-.03.25-.03v-.61s.35,0,.35,0v.63s.73,0,.73,0v.3s-.73,0-.73,0v1.24c0,.07.07.25.12.26l.59.04Z"/>
  <rect x="21.46" y="2.02" width=".35" height="2.94"/>
  <rect x="33.05" y="2.02" width=".35" height="2.94"/>
  <rect x="34.14" y="2.02" width=".35" height="2.94"/>
  <rect x="20.37" y="2.83" width=".35" height="2.13"/>
  <rect x="25.03" y="2.83" width=".35" height="2.13"/>
  <rect x="20.37" y="2.02" width=".35" height=".44"/>
  <rect x="25.03" y="2.02" width=".35" height=".44"/>
</svg>