<?xml version="1.0" encoding="UTF-8"?>
<svg id="Layer_1" data-name="Layer 1" xmlns="http://www.w3.org/2000/svg" viewBox="0 0 53.5 33.51">
  <path d="M37.48,4.84c-.44-.55-.44-1.79-.01-2.35.21-.28.55-.34.89-.28.27.05.56.3.65.63.25.85.13,2.08-.61,2.25-.34.08-.69.04-.93-.26ZM38.63,2.86c-.07-.23-.29-.38-.5-.37-.2,0-.41.16-.48.39-.24.78-.13,1.95.48,1.96.65,0,.74-1.19.5-1.98Z"/>
  <path d="M26.86,4.82c-.18.23-.43.34-.75.3-.24-.02-.5-.21-.63-.48-.34-.74-.03-1.7.63-1.77.33-.03.55.07.78.32v-1.08s.36,0,.36,0v2.93s-.34,0-.34,0l-.06-.25ZM26.83,3.56c-.08-.22-.29-.37-.48-.39-.22-.02-.45.09-.54.31-.14.32-.14.71,0,1.03.1.22.32.33.54.32.48-.04.67-.7.48-1.27Z"/>
  <path d="M36.27,4.38v.65s-.38.02-.38.02v-.66s-1.29,0-1.29,0c0-.13,0-.35.05-.43l1.13-1.75h.49s0,1.88,0,1.88h.4s0,.31,0,.31h-.41ZM35.89,4.08v-1.53s-.97,1.53-.97,1.53h.97Z"/>
  <path d="M28.65,4.78c.36.1.71.01,1.06-.12l.03.31c-.36.13-.74.2-1.11.12-.69-.15-.94-.9-.71-1.57.14-.41.49-.64.92-.65s.81.22.92.65l.06.58h-1.6c-.01.31.12.58.44.67ZM29.46,3.81c0-.38-.21-.58-.49-.63-.41-.05-.74.22-.75.64h1.24Z"/>
  <g>
    <path d="M18.99,20.19c.66-1.3.8-2.8.29-4.14-.37-.97-.98-1.63-1.75-2.31l-.4-.35-.51-.43c-.64-.55-1.2-1.15-1.62-1.92-1.49.86-2.99,1.63-4.58,2.32-.88.38-1.72.72-2.62,1.01l-.93.3-.09-.11,2.93-1.72,4.39-2.56.64-.37,3.43-1.96,3.69-2.1.09.09-.73.68-.5.44c-1.23,1.06-2.53,1.99-3.9,2.86l-1.44.91c.59.64,1.28,1.1,1.94,1.56l.78.54c.4.28.76.61,1.11.96,1.65,1.69,1.7,4.44.23,6.23l-.61.61s-.07-.09-.06-.11l.21-.42Z"/>
    <path d="M49.26,31.93c1.5.33,2.73.16,4.21.31-.89.35-1.74.53-2.64.61h-1.57c-.64,0-1.28-.2-1.87-.42-1.65-.63-3.13-1.98-3.47-3.74-.23-1.19.08-2.44.88-3.35.41-.41.88-.71,1.45-.8l.06.1c-1.57.84-1.99,2.97-1.19,4.49l.45.67.82.81c.59.59,1.97,1.11,2.88,1.31Z"/>
    <g>
      <path d="M39.47,25.74c.69-.36,1.3-.64,1.83-1.14,1.29-1.23,1.82-2.94,1.36-4.69-.56-2.14-2.63-3.41-4.81-3.41l-1.2.08.05-.13c1.46-.66,3.03-.6,4.46.07,1.71.8,2.72,2.61,2.7,4.51,0,.69-.13,1.35-.42,1.97-.38.82-.96,1.55-1.73,2.03-.67.42-1.42.75-2.26.71Z"/>
      <path d="M27.42,27.96l.07.13c-2.21.61-4.77-.42-5.82-2.46-1.28-2.5-.33-5.64,2.28-6.84.72-.3,1.41-.43,2.2-.39.05.02.14.09.17.13-1.03.17-1.93.61-2.69,1.32-1.46,1.38-1.89,3.58-.99,5.37s2.81,2.73,4.78,2.74Z"/>
      <path d="M32.79,21.88l2.29,2.3.2.28c-1.25.1-2.38-.59-2.89-1.75-.27.44-.6.8-.97,1.16-.39.3-.78.58-1.33.68.99-1.5,1.77-3,2.32-4.72l1.38.5.55.2c-.59.25-1.23-.02-1.27.24-.05.31-.15.75-.28,1.1Z"/>
      <path d="M30.73,20.52c.66.5.57,1.6-.18,2.21-.34-.8-.56-1.6-.77-2.45l.06-.18c.33.11.63.22.89.43Z"/>
    </g>
  </g>
  <path d="M16.67,4.77c.49.15.88.01,1.25-.28v.39c-.35.2-.71.28-1.12.23-.54-.06-.97-.42-1.1-.95-.22-.92.13-1.82,1.05-1.95.43-.06.81.01,1.19.22v.39c-.42-.32-.88-.44-1.37-.23-.16.07-.35.28-.41.45-.24.68-.09,1.55.52,1.74Z"/>
  <path d="M19.34,5.45c-.05.13-.21.37-.33.38l-.54.06v-.31c.14,0,.35-.01.41-.07.11-.1.21-.36.24-.51l-.85-2.06h.37s.67,1.64.67,1.64l.66-1.63h.38s-1.01,2.49-1.01,2.49Z"/>
  <path d="M24.2,3.23c-.19-.08-.43-.05-.57.04-.12.07-.27.3-.27.48v1.33s-.36,0-.36,0v-2.12s.35,0,.35,0l.04.25c.17-.17.37-.29.62-.31.44-.03.78.29.78.73l.02,1.46h-.36s0-1.39,0-1.39c0-.14-.1-.39-.24-.45Z"/>
  <polygon points="41.29 3.39 41.29 3.69 40.16 3.69 40.16 5.07 39.77 5.06 39.78 2.2 41.41 2.2 41.41 2.5 40.16 2.5 40.16 3.39 41.29 3.39"/>
  <path d="M43.08,4.77v.31s-.64-.03-.64-.03c-.25-.01-.43-.25-.43-.5v-1.25s-.26-.08-.26-.08v-.26s.25-.03.25-.03v-.61s.35,0,.35,0v.63s.73,0,.73,0v.3s-.73,0-.73,0v1.28c0,.09.15.25.24.25h.48Z"/>
  <path d="M34.07,5.55l-.28.07-.37-.75c-.4-.81-.16-1.95.36-2.74h.32c-.65,1.06-.69,2.28-.03,3.42Z"/>
  <path d="M44.36,3.63c.09.97-.49,1.98-.61,1.97l-.24-.03c.66-1.17.64-2.29,0-3.44h.31c.27.46.5.95.55,1.49Z"/>
  <rect x="20.84" y="2.12" width=".35" height="2.94"/>
  <path d="M30.72,5.06h-.35s0-2.12,0-2.12h.34s.02.25.02.25c.23-.26.53-.37.89-.3v.3c-.24-.03-.49-.02-.64.07-.12.08-.25.32-.25.49v1.29Z"/>
  <rect x="21.93" y="2.94" width=".35" height="2.13"/>
  <rect x="21.93" y="2.12" width=".35" height=".44"/>
</svg>