<?xml version="1.0" encoding="UTF-8"?>
<svg xmlns="http://www.w3.org/2000/svg" viewBox="0 0 100 100">
  <g transform="translate(50 50) scale(1.71674) translate(-27.9400 -21.8050)">
  <path d="M28.14,20.62c0,1.05-.85,1.9-1.91,1.9s-1.91-.85-1.91-1.9.85-1.9,1.91-1.9,1.91.85,1.91,1.9ZM25.71,21.9c.34,0,.65-.14.87-.41.37-.47.36-1.34.03-1.75-.48-.59-1.34-.55-1.82.02-.13.15-.22.34-.27.55-.19.78.44,1.59,1.2,1.58Z"/>
  <path d="M14.73,20.79c.38-.67.75-1.3,1.17-1.93l1.17-1.72c.47-.7.68-1.56.74-2.39.13-1.89-.83-3.67-2.5-4.53s-3.7-.55-5.09.77c-.46.44-.8.98-1.06,1.57-.57,1.3-.48,2.78.11,4.11l1.67-1.65.33,1.19.75,2.94.26,1.02-.81-.22-2.02-.54-2.29-.63,1.05-1.06.82-.82c-1.12-1.42-1.33-3.37-.71-5.03.21-.56.53-1.06.91-1.52.65-.78,1.23-1.16,2.16-1.54.47-.2.97-.29,1.48-.34,1.01-.12,2.11.19,3.02.67.35.19.68.4.95.68l.31.32c1.42,1.44,1.79,3.62,1.1,5.6l1.12-1.07c1.08-1.03,3.06-2.21,4.51-2.63l1.17-.34c1.3-.38,3.65-.58,5.07-.58h3.19s1.83,0,1.83,0c3.93,0,7.8-.31,11.7-.73l.89-.06,1.23-.05v-.27s-.07-1.53-.07-1.53c-.04-.8-.13-1.56-.33-2.35h.22c.48.43.8.94,1.05,1.54.31.85.43,1.73.42,2.63l.97.09.02.14s-.1,0-.12,0l-.85.03-.08,1.51-.04.63-.06.84h-.14s-.47-.9-.47-.9c-.31-.61-.35-1.28-.46-1.98l-4.11.65c-1.58.25-3.11.48-4.7.64l-.75.07-.63.06-.81.07-.82.06-1.05.07-1.55.07-2.79.03-1.56.03c-1.87.04-4.05.25-5.84.79-1.02.31-2.61,1.04-3.42,1.66l-.64.48-.54.46-.4.35-.69.69-.41.47-.41.47-.35.41-.23.28-1.86,2.59-.79,1.22-1.22,1.85c-.55.82-1.1,1.59-1.7,2.37l-.48.62s-.1.06-.13.08-.04-.12-.03-.13l.9-1.49.97-1.72.84-1.54.39-.68.47-.82Z"/>
  <path d="M6.23,35.35l-1.41,2.11-.18.02c.55-1.41,1.59-3.46,2.53-4.55l.38-.44c.79-.93,1.62-1.66,2.68-2.26.96-.54,1.95-.92,3.02-1.18,1.23-.31,2.44-.49,3.7-.61l.85-.08.69-.05.94-.07.94-.07,1.77-.17,3.26-.5c2.26-.42,4.41-1.12,6.43-2.21l1.98-1.24c-.11.32-.36.49-.58.69l-.53.47-.34.29c-.44.38-.93.65-1.43.96-.89.55-1.79,1.02-2.78,1.34l-1.7.56c-2.24.74-5.53,1.06-7.96,1.26l-1.81.15c-2.29.19-5.19.74-7.05,2.08-.5.36-1,.7-1.42,1.15l-.73.78-.33.37-.94,1.23Z"/>
  <path d="M19.32,20.84c-1,1.18-1.56,3.08-.54,4.33.46.51,1.06.77,1.75.63.2.24-.72.39-1.26.22-.5-.17-.88-.43-1.19-.84-.41-.55-.62-1.16-.63-1.85,0-.57.06-1.11.27-1.64.31-.8.71-1.57,1.28-2.22.39-.44.77-.85,1.23-1.23l.38-.31c.8-.65,2.62-1.61,3.67-1.97,1.93-.65,3.63-.83,5.66-.7.76.05,1.49.17,2.24.32,2.39.46,4.06,1.13,6.24,2.09l.12.05s0,.11-.02.15l-3.25-.75-2.38-.44c-1.23-.23-2.44-.3-3.7-.27-2.59.05-4.57.63-6.82,1.85-.49.26-.91.58-1.36.89-.48.33-.9.72-1.27,1.17l-.43.51Z"/>
  <path d="M25.67,25.94c-.87.13-1.71.14-2.58.07-.03-.02-.11-.07-.09-.08l.09-.08c1.08-.3,2.09-.67,3.11-1.15.7-.34,1.39-.66,2.01-1.12l.76-.56.94-.75,1.16-1.16.36-.39.44-.52.97-1.29s.16-.09.2-.08c-.25,1.15-.84,2.64-1.59,3.53l-.46.54-.64.68-.4.35-1.26.87-1.25.62c-.56.28-1.15.38-1.76.51Z"/>
  </g>
</svg>
