<?xml version="1.0" encoding="UTF-8"?>
<svg id="Layer_1" data-name="Layer 1" xmlns="http://www.w3.org/2000/svg" viewBox="0 0 52.5 37.31">
  <g>
    <g>
      <path d="M5.75,27.83s-.08-.12-.08-.12c0,0,.06-.06.08-.07l.96-.73c.45-.34.87-.68,1.36-.96l1.42-.83,1.08-.56c.64-.33,1.28-.59,1.97-.85,1.55-.58,3.09-1.04,4.73-1.33,1.35-.24,2.65-.42,4.02-.43h3.68s.69,0,.69,0h1.71c1.33,0,2.61-.11,3.92-.34s2.54-.67,3.73-1.28c.49-.26.94-.54,1.35-.91l.56-.51c.47-.43.85-.9,1.18-1.45.55-.86.92-1.76,1.04-2.79l.15-.06c.03,1.14-.23,2.18-.74,3.18-.29.58-.59,1.14-1.05,1.59l-1.01,1c-.83.7-1.75,1.27-2.75,1.68-1.58.65-3.66,1-5.37,1.09l-1.61.09h-5.55s-1.51.06-1.51.06l-.7.06-.75.08c-1.37.14-2.67.43-4,.76s-2.55.76-3.81,1.27-2.45,1.08-3.62,1.76l-1.08.62Z"/>
      <g>
        <path d="M35.92,13.9c0,3.29-2.67,5.96-5.96,5.96s-5.96-2.67-5.96-5.96,2.67-5.96,5.96-5.96,5.96,2.67,5.96,5.96ZM34.62,13.9c0-2.9-2.35-5.25-5.25-5.25s-5.25,2.35-5.25,5.25,2.35,5.25,5.25,5.25,5.25-2.35,5.25-5.25Z"/>
        <path d="M48.72,11.27c-.22-.62-.33-1.19-.42-1.87l-.77.04-3.32.46-5.22.85-.95.15s-.11-.13-.08-.14l.5-.29c2.42-1.3,5.07-2,7.82-2.06l1.96.09-.09-1.67c-.04-.65-.13-1.26-.29-1.89l.1-.15.56.57c.52.68.83,1.49.92,2.34l.12,1.07.86.28c.06.02.16.17.12.22l-.98.03-.03.48-.16,2.52c-.09-.03-.21-.11-.23-.16l-.41-.85Z"/>
      </g>
    </g>
    <path d="M6.69,32.87l-.54.55-.38.44-.31.38c-.51.62-.93,1.22-1.35,1.93h-.16c.32-.89.69-1.63,1.15-2.41.32-.52.63-1.02,1.03-1.48l.29-.34.48-.53c.81-.89,2.23-1.94,3.32-2.51.89-.46,1.75-.86,2.71-1.17,1.79-.58,3.62-.94,5.5-1.02l1.33-.06h.96s1.69.07,1.69.07c1.75.15,3.45.41,5.15.8.03.02.12.12.09.13s-.13.03-.17.03l-1.96-.03h-3.32c-1.27,0-2.47.08-3.74.21-2.36.25-4.61.81-6.79,1.73-1.08.45-2.88,1.47-3.71,2.18l-.37.31-.5.44-.38.34Z"/>
  </g>
  <polygon points="27.17 3.98 26.79 4 26.79 2.62 25.38 2.62 25.38 4 24.99 4 24.99 1.12 25.38 1.12 25.38 2.32 26.79 2.32 26.79 1.12 27.17 1.12 27.17 3.98"/>
  <path d="M22.74,3.31v.66s-.38,0-.38,0v-.66s-1.29,0-1.29,0v-.37s1.17-1.81,1.17-1.81l.5-.02v1.89s.41.01.41.01v.29s-.4,0-.4,0ZM22.37,3.02l-.03-1.5-.95,1.49h.98Z"/>
  <path d="M18.7,4v-.32s1.01-1.05,1.01-1.05c.31-.32.49-.72.28-1.01-.25-.33-.82-.22-1.29.04v-.38c.63-.24,1.4-.26,1.68.27.16.31.1.73-.14.98l-1.09,1.16h1.31s.02.3.02.3h-1.79Z"/>
  <path d="M29.66,3.45c-.14.41-.48.61-.87.62-.45.01-.84-.24-.95-.69-.07-.27-.07-.61,0-.88.12-.45.5-.7.95-.69.41.01.75.23.88.64.1.3.1.68,0,1ZM29.3,3.35c.09-.27.08-.6,0-.85s-.31-.39-.54-.39-.45.14-.54.39c-.09.27-.09.6,0,.87.08.25.31.39.54.39s.46-.13.55-.41Z"/>
  <path d="M32.08,1.87v2.14s-.34,0-.34,0l-.03-.26c-.3.36-.84.47-1.21.11-.12-.11-.21-.42-.21-.59v-1.39s.35,0,.35,0v1.37c0,.12.09.36.17.42.14.11.44.11.58.04s.33-.28.33-.47l.02-1.37h.35Z"/>
  <path d="M35.84,3.66c-.26.5-.97.46-1.59.28v-.37c.57.27,1.25.27,1.28-.12,0-.11-.13-.28-.24-.31l-.62-.16c-.25-.06-.41-.29-.41-.55,0-.29.18-.52.46-.58.35-.08.72-.04,1.05.07v.32c-.55-.2-1.15-.19-1.18.17,0,.1.14.26.24.28l.58.14c.11.03.33.16.4.27.08.13.09.42.02.55Z"/>
  <path d="M33.13,3.99h-.35s0-2.11,0-2.11h.34s.01.26.01.26c.22-.25.5-.36.88-.31v.31c-.23-.01-.38-.02-.56.04s-.32.36-.32.54v1.28Z"/>
</svg>