<?xml version="1.0" encoding="UTF-8"?>
<svg id="Layer_1" data-name="Layer 1" xmlns="http://www.w3.org/2000/svg" viewBox="0 0 52.5 37.87">
  <g>
    <path d="M28.4,12.38c-1.53-.14-3.43,0-4.93.36-.57.14-1.13.29-1.63.56l-1.15.62c-.05.03-.15.05-.25.06l.48-.46c.59-.57,1.81-1.18,2.65-1.49,2.31-.84,4.89-.8,7.35-.64l2.55.17,1.26.07h2.11c.9,0,1.78-.12,2.66-.35l2.31-.62,1.46-.37c1.56-.4,3.32-.51,4.98-.44l-.08-1.61c-.03-.78-.13-1.52-.3-2.28l.03-.15s.13,0,.16.04l.53.58c.75,1.07.91,2.26.96,3.53l.9.13.11.15-1,.03-.02.35-.07,1.19-.06.94-.03.5-.2-.06-.36-.72c-.33-.66-.41-1.37-.52-2.12-1.49.14-2.91.38-4.33.77-.99.27-1.89.65-2.86.95l-1.39.43c-2.44.75-5.51.42-8.03.19l-3.27-.29Z"/>
    <g>
      <path d="M19.39,19.85l-.82.77-1.07,1.07-1.14,1.12-.74.7-.53.47-.47.41-.7.55-1.4.92-.96.49c-.92.47-2.45.8-3.53.79-.85-.01-1.63-.14-2.42-.48l.04-.14c1.01.25,1.98.25,3,.05.88-.2,1.7-.5,2.47-.96l.59-.35c.58-.35,1.13-.73,1.64-1.18l.5-.44c.6-.53,1.14-1.1,1.69-1.69l.64-.68,1.47-1.53.32-.31,1.02-.98c.83-.8,1.76-1.43,2.79-1.97,1.67-.88,3.49-1.31,5.36-1.4h1.49c.88,0,1.7.15,2.58.3,2.27.46,4.44,1.14,6.56,2.08.03.03.08.07.07.08l-.07.08c-3.03-.77-6.09-1.5-9.25-1.47l-.52.03c1.2.22,2.31.69,3.31,1.42.44.32.86.64,1.21,1.05.61.7,1.11,1.45,1.45,2.31.35.85.49,1.72.44,2.64l-.06.11s-.09-.04-.11-.07c-.25-.68-.53-1.36-.92-1.96-.61-.96-1.12-1.66-1.99-2.39l-.38-.32-.83-.61c-.66-.48-2.2-1.1-3.09-1.3s-1.72-.33-2.6-.25-2.96,1.28-3.81,1.99l-.27.23-.5.44-.49.43Z"/>
      <path d="M4.17,37.05c-.03.05-.12.09-.24.09.45-1.62,1.48-3.58,2.58-4.83l.23-.27.97-.98.34-.29c.99-.85,2.12-1.45,3.35-1.91,1.92-.71,3.6-.6,4.8-.97.99-.3,1.67-.64,2.49-1.27.51-.43.89-.93,1.14-1.56h.16c-.07.77-.4,1.4-.86,2l-.77.79c-.8.61-1.94,1.15-2.9,1.35l-2.03.43c-.83.18-1.62.45-2.4.79s-1.46.76-2.14,1.24c-1.17.83-2.41,2.09-3.28,3.25-.52.7-1,1.37-1.45,2.12Z"/>
    </g>
  </g>
  <path d="M23.27,5.77h-.35s0-2.93,0-2.93h.34s.03.25.03.25c.19-.22.44-.35.76-.32.69.06,1,1.04.64,1.79-.13.27-.4.44-.64.46-.32.03-.56-.09-.78-.33v1.08ZM24.41,4.3c.07-.25.07-.56,0-.79-.07-.29-.29-.45-.55-.45-.22,0-.45.15-.53.4-.08.27-.08.59,0,.86.08.25.31.4.53.4.23,0,.46-.13.54-.42Z"/>
  <path d="M22.22,4.73c-.35.4-1.22.34-1.81.12v-.38c.38.19.79.32,1.21.22.23-.05.38-.25.39-.45s-.15-.41-.36-.46l-.62-.15c-.18-.04-.43-.18-.52-.34-.17-.29-.15-.66.07-.91.35-.4,1.03-.33,1.65-.19v.37c-.59-.26-1.27-.29-1.42.15-.04.11.01.39.13.44.5.21.96.17,1.25.45s.32.8.04,1.12Z"/>
  <path d="M26.14,4.69c.36.08.7,0,1.01-.16l.02.33c-.71.27-1.54.21-1.8-.44-.15-.37-.13-.81.04-1.15s.5-.5.87-.52c.41-.01.77.2.9.61.05.18.07.4.08.62h-1.61c-.01.32.15.62.49.69ZM26.9,3.7c0-.43-.27-.64-.62-.64-.37,0-.62.28-.63.64h1.24Z"/>
  <path d="M31.14,4.82c-.27-.25-.26-.72-.02-.98.12-.13.39-.23.55-.24l.71-.02c.04-.2-.1-.46-.36-.5-.32-.05-.61.01-.92.12v-.31c.33-.09.64-.16.97-.11.35.05.65.35.66.73l.02,1.44h-.34s-.03-.26-.03-.26c-.3.34-.86.48-1.25.13ZM32.31,4.38c.06-.15.08-.3.11-.49l-.73.03c-.21,0-.39.2-.39.38,0,.22.13.39.37.42s.53-.07.64-.34Z"/>
  <path d="M28.14,4.36c.13.38.69.45,1.22.23v.31c-.62.23-1.29.13-1.55-.41-.17-.37-.18-.78-.02-1.16.23-.56.93-.69,1.57-.45v.32c-.31-.11-.56-.17-.87-.09-.38.1-.55.69-.35,1.25Z"/>
  <rect x="33.48" y="2.02" width=".35" height="2.94"/>
  <rect x="29.99" y="2.83" width=".35" height="2.13"/>
  <rect x="29.99" y="2.02" width=".35" height=".44"/>
</svg>