<?xml version="1.0" encoding="UTF-8"?>
<svg id="Layer_1" data-name="Layer 1" xmlns="http://www.w3.org/2000/svg" viewBox="0 0 32.52 72.4">
  <path d="M15.4,43.78c-.4,1.69-.94,3.28-2.26,4.51.85-2.25,1.31-4.43,1.14-6.78-.21-3.01-1.21-5.86-3.05-8.24l-.57-.83c.49.26.81.46,1.17.76,3.01,2.52,4.23,6.65,3.56,10.57Z"/>
  <path d="M25.02,43.09c0,1.18-.95,2.13-2.12,2.13s-2.12-.95-2.12-2.13.95-2.13,2.12-2.13,2.12.95,2.12,2.13ZM23.27,44.05c.58-.59.49-1.63-.22-2.08-.42-.26-.93-.28-1.4-.06-.31.15-.63.56-.71,1.03-.1.56.31,1.14.72,1.34.55.27,1.18.2,1.6-.24Z"/>
  <path d="M22.06,7.4c-.2.8-.84,1.21-1.59,1.22-.69.01-1.31-.31-1.57-.97s-.25-1.4,0-2.03.88-.97,1.57-.96c.75.01,1.37.43,1.58,1.18.12.45.14,1.06,0,1.56ZM21.38,7.38c.16-.5.15-1.07-.01-1.52s-.56-.68-.96-.67-.79.26-.93.7c-.15.47-.15,1.04,0,1.51.14.43.54.7.93.7s.82-.23.97-.71Z"/>
  <path d="M25.4,5.4c-.33-.29-.81-.24-1.13-.07-.23.12-.51.53-.51.87v2.32s-.63,0-.63,0v-3.72s.6,0,.6,0l.07.47c.48-.63,1.39-.82,2.07-.26.21.18.4.68.4.97v2.54s-.61,0-.61,0v-2.41c0-.17-.13-.58-.26-.69Z"/>
  <path d="M12.25,4.78v3.71s-.59.02-.59.02l-.09-.45c-.29.31-.63.52-1.07.55-.77.05-1.36-.51-1.37-1.28l-.03-2.56h.63s0,2.43,0,2.43c0,.24.18.65.4.78.27.16.78.1,1.02-.05.21-.13.47-.54.47-.83v-2.33s.63,0,.63,0Z"/>
  <path d="M15.82,6.77c.29.21.33.75.22,1.07-.29.88-1.66.92-2.8.56v-.64c.98.48,2.17.47,2.24-.19.02-.19-.21-.51-.39-.55l-.99-.25c-.49-.12-.83-.5-.83-.96,0-.5.28-.95.84-1.07s1.2-.06,1.78.11v.57c-.97-.36-2.02-.29-2.04.3,0,.15.21.45.37.49l.81.2c.24.06.54.18.8.37Z"/>
  <rect x="5.37" y="3.34" width=".62" height="5.16"/>
  <rect x="3.49" y="3.45" width=".67" height="5.05"/>
  <rect x="7.28" y="3.34" width=".61" height="5.16"/>
  <rect x="17.07" y="4.77" width=".62" height="3.74"/>
  <rect x="17.07" y="3.34" width=".62" height=".77"/>
  <path d="M18.39,67.45l3.74,3.02c.08.1.14.22.17.37L2.74,59.49c1.92.36,3.58,1.17,5.29,1.92,1.84.81,3.52,1.74,5.28,2.71l.67-1.26c.66-1.25,1.28-2.45,1.82-3.77,1.87-4.56,2.35-9.46,1.6-14.33-.31-2.05-.46-4.35.51-6.07,1.52-2.71,4.97-2.75,7.35-.85.69.68,1.38,1.3,1.8,2.23-.74-.67-1.36-1.33-2.17-1.85-1.9-1.21-4.46-1.26-5.68.54s-.81,3.79-.49,5.87c.23,1.52.34,2.96.33,4.51-.06,5.79-2.07,10.52-5.46,15.14,1.69,1.01,3.28,1.92,4.79,3.14Z"/>
  <g>
    <path d="M19.8,25.76l-.11.51c-.33,1.48.48,2.63,1.77,2.76s2.28-.48,2.84-1.54c1.45-2.79-.89-5.98-3.14-7.9l-3.15-2.67c-1.34-1.14-2.66-2.83-3.53-4.36l-1.49-2.63c.42.29.66.61.96.97l1.97,2.42c.83,1.02,1.75,1.89,2.79,2.69l2.36,1.82c1.06.81,2,1.71,2.87,2.72,1.64,1.91,2.61,4.54,1.63,6.89-.47,1.13-1.36,1.97-2.52,2.32-1.3.39-2.69,0-3.43-1.14-.58-.9-.54-2.09.2-2.86Z"/>
    <path d="M15.81,31.24c1.5,1.24,3.23,1.71,5.1,1.7,1.77,0,3.28-.61,4.86-1.52-1.25,1.48-3.03,2.11-4.85,2.39-3.74.39-7.12-1.63-8.38-5.15-.83-2.34-.64-5.07.72-7.15.41-.64,1-1.15,1.73-1.35.92-.25,1.8.12,2.28.91.83,1.37.4,3.04-.61,4.29.43-1.48.96-2.82-.13-3.97-.43-.45-1.03-.5-1.55-.12-.57.42-.95,1.05-1.2,1.76-1.02,2.88-.24,6.11,2.04,8.22Z"/>
  </g>
</svg>