<?xml version="1.0" encoding="UTF-8"?>
<svg id="Layer_1" data-name="Layer 1" xmlns="http://www.w3.org/2000/svg" viewBox="0 0 52.5 37.87">
  <path d="M28.85,2.67c.26.76.08,1.74-.7,1.97-.23.07-.51.12-.75.12h-.84s0-2.86,0-2.86h.85c.63-.01,1.26.2,1.45.77ZM28.52,3.76c.14-.76-.11-1.5-.72-1.53l-.85-.04v2.27s.86-.04.86-.04c.37-.02.58-.31.71-.66Z"/>
  <path d="M23.58,4.81c-.35-.04-.62-.25-.74-.59-.2-.56-.2-1.2,0-1.76.14-.4.5-.62.93-.59.92.07,1.06,1.38.79,2.28-.14.45-.53.7-.98.65ZM24.17,2.54c-.07-.23-.29-.38-.5-.37-.61.01-.71,1.22-.45,2,.08.23.3.37.52.35.59-.04.68-1.21.44-1.98Z"/>
  <path d="M30.1,4.82c-.4-.02-.67-.3-.67-.69,0-.35.23-.68.61-.7l.85-.05c.03-.15-.1-.42-.31-.47-.35-.09-.65-.02-.98.11v-.33c.29-.07.58-.13.87-.12.44.02.76.37.76.8v1.38s-.32,0-.32,0l-.03-.27c-.21.22-.46.35-.78.33ZM30.82,4.1l.07-.42-.78.04c-.17,0-.34.22-.34.37,0,.19.12.37.32.41.31.07.67-.08.73-.4Z"/>
  <path d="M21.33,4.48c.25-.05.39-.26.41-.49.02-.28-.15-.56-.44-.59l-.56-.05v-.27s.52-.02.52-.02c.27-.01.43-.24.41-.46-.03-.52-.68-.48-1.35-.3v-.32c.76-.2,1.62-.16,1.72.53.05.36-.16.64-.49.71.39.12.59.41.57.78-.02.34-.22.59-.53.73-.44.14-.88.11-1.34-.03v-.36c.35.17.68.23,1.08.15Z"/>
  <path d="M32.46,5.52l-.55.07v-.29s.37-.06.37-.06c.09-.01.2-.23.23-.32l.06-.23-.86-2.06h.38s.67,1.65.67,1.65l.67-1.65h.37s-1.02,2.54-1.02,2.54c-.04.08-.19.33-.31.34Z"/>
  <path d="M35.71,4.42c-.26.5-.97.46-1.59.28v-.37c.57.27,1.25.27,1.28-.12,0-.11-.13-.28-.24-.31l-.62-.16c-.25-.06-.41-.29-.41-.55,0-.29.18-.52.46-.58.35-.08.72-.04,1.05.07v.32c-.55-.2-1.15-.19-1.18.17,0,.1.14.26.24.28l.58.14c.11.03.33.16.4.27.08.13.09.42.02.55Z"/>
  <g>
    <path d="M4.68,36.9c.34-.86.72-1.6,1.18-2.37.33-.53.65-1.04,1.06-1.51l.32-.37.64-.68c1.19-1.28,2.99-2.31,4.61-3.02,2.24-.98,4.98-1.46,7.41-1.87l2.95-.5c.95-.16,1.87-.31,2.79-.59l1.36-.41c1.29-.38,3.42-1.43,4.55-2.21l1.45-1,.41-.34.41-.35.37-.32.6-.53.38-.38,1.65-1.78s.11.05.1.08l-.06.14-.35.53c-.49.74-.99,1.45-1.61,2.09l-1.15,1.17-1.13.99-.42.33c-.49.39-.99.73-1.52,1.04l-1.15.67c-2.33,1.35-5.84,2.06-8.54,2.49l-3.51.57c-1.06.17-2.08.39-3.1.73l-1.79.59c-.68.22-1.33.51-1.93.88l-.89.55c-.42.26-.84.53-1.2.86l-1.07,1.01c-.5.47-.91,1.01-1.33,1.55-.49.64-.9,1.25-1.32,1.95h-.17Z"/>
    <g>
      <path d="M33.81,11.98l-.84-.07-.81-.06-.88-.06-1.07-.06c-.99-.06-1.96-.08-2.94,0l-.69.06-.67.08c-.86.1-1.68.36-2.44.73-.04-.05-.08-.11-.08-.11.13-.05.71-.66,2.01-1.09.88-.29,1.77-.46,2.7-.55,1.12-.1,2.22-.21,3.36-.17l3.97.11.92.02h1.57s1.38-.07,1.38-.07l3.2-.34c1.55-.16,3.18-.85,4.82-.93l1.64.04-.08-1.57c-.04-.76-.12-1.48-.29-2.21l-.03-.14s.13-.06.15-.04l.52.52c.78,1.05.99,2.24,1.03,3.58l1.03.2-.11.15h-.92s-.02.49-.02.49l-.15,2.46c-.18.15-.56-.66-.69-1.08-.19-.62-.29-1.16-.39-1.82l-.94.06c-.65.04-1.26.19-1.88.39l-2.53.78c-1.42.44-2.87.6-4.35.72l-.63.05-.68.04c-.83.05-1.64.06-2.47,0l-1.05-.07-.67-.05Z"/>
      <path d="M25,18.59c0,3.29-2.67,5.96-5.96,5.96s-5.96-2.67-5.96-5.96,2.67-5.96,5.96-5.96,5.96,2.67,5.96,5.96ZM23.85,18.2c0-2.9-2.35-5.25-5.25-5.25s-5.25,2.35-5.25,5.25,2.35,5.25,5.25,5.25,5.25-2.35,5.25-5.25Z"/>
      <path d="M13.03,24.43l.71.52s.05.11.03.11l-.13.02c-.87-.23-1.64-.62-2.28-1.24-.3-.25-.57-.51-.82-.82-1.93-2.41-2.18-5.53-.77-8.26.42-.82,1.1-1.55,1.79-2.16.38-.33.81-.58,1.26-.81l.38-.19c.6-.24,1.19-.39,1.85-.44.03.03.09.13.07.14l-.12.05c-1.31.54-2.49,1.48-3.34,2.62-.44.59-.8,1.19-1.05,1.9-.56,1.56-.58,3.24-.11,4.83.3,1.03.99,2.22,1.72,2.97l.46.48.34.28Z"/>
      <path d="M21.25,18.57c0,1.22-.99,2.2-2.2,2.2s-2.2-.99-2.2-2.2.99-2.2,2.2-2.2,2.2.99,2.2,2.2ZM20.01,18.57c0-.84-.68-1.53-1.53-1.53s-1.53.68-1.53,1.53.68,1.53,1.53,1.53,1.53-.68,1.53-1.53Z"/>
    </g>
  </g>
</svg>