<?xml version="1.0" encoding="UTF-8"?>
<svg xmlns="http://www.w3.org/2000/svg" viewBox="0 0 100 100">
  <g transform="translate(50 50) scale(1.31320) translate(-19.1781 -40.7900)">
  <path d="M26.71,71s.05.22.05.25l-19.6-11.36c2.71.6,5.1,1.86,7.55,2.99l3.04,1.65.71-1.77c.59-1.45,1.18-2.83,1.95-4.21,2.08-3.74,4.56-6.97,6.6-10.74,3.34-6.18,4.12-13.19,2.32-19.98l.25.29c.89,2.16,1.36,4.36,1.56,6.69.32,4.86-.73,9.56-3.08,13.82-.93,1.69-1.93,3.2-3.02,4.79l-4.33,6.31c-.72,1.04-1.18,2.17-1.79,3.27l-.93,1.68c2.82,1.68,5.52,3.52,8,5.69l.71.62Z"/>
  <path d="M20.73,51.7c-.58-.47-1.11-.95-1.62-1.56-3.02-3.69-3.67-8.92-1.37-13.15,1.16-2.14,2.68-3.9,3.62-6.24.46-1.14.73-2.31.87-3.53.49-4.26-.69-8.13-2.32-12.03l-2.44-4.86c1.41,1.63,2.45,3.41,3.42,5.3s1.71,3.85,2.2,5.94c.97,4.16.56,8.62-1.78,12.2l-2.17,3.32c-2.83,4.32-2.15,9.92,1.06,13.85.22.23.39.4.53.78Z"/>
  <path d="M23.89,35.95c-.07.09-.27.2-.34.21,2.91-6.65,2.99-13.57.43-20.39,1.24,1.35,1.79,2.91,2.38,4.52,1.16,3.9,1.06,8.04-.38,11.85-.52,1.4-1.2,2.57-2.09,3.81Z"/>
  <path d="M26,41.01c0,1.17-.95,2.13-2.12,2.13s-2.12-.95-2.12-2.13.95-2.13,2.12-2.13,2.12.95,2.12,2.13ZM24.62,41.18c.06-.63-.25-1.12-.67-1.34-.47-.24-.99-.22-1.43.07-.56.36-.72,1.04-.51,1.58.24.61.83.95,1.5.85.59-.08,1.04-.49,1.11-1.16Z"/>
  </g>
</svg>
