<?xml version="1.0" encoding="UTF-8"?>
<svg id="Layer_1" data-name="Layer 1" xmlns="http://www.w3.org/2000/svg" viewBox="0 0 39.19 72.4">
  <path d="M6.55,5.5c.3,1.29.05,2.68-1.17,3.21-.39.1-.87.22-1.27.22h-1.65s0-5.03,0-5.03h1.54c.41,0,.89.11,1.29.19.64.26,1.1.7,1.26,1.4ZM5.9,5.72c-.36-1.33-1.41-1.32-2.76-1.3v3.98c.52,0,1.05,0,1.57-.08,1.09-.18,1.38-1.4,1.19-2.61Z"/>
  <path d="M20.84,9.05c-.79,0-1.25-.51-1.26-1.22,0-.61.42-1.19,1.07-1.22l1.48-.09c.02-.32-.2-.72-.54-.82-.58-.17-1.12-.05-1.7.19l-.04-.53c.56-.2,1.16-.31,1.77-.22s1.1.64,1.11,1.29l.04,2.51h-.62s-.07-.45-.07-.45c-.31.35-.7.56-1.23.56ZM22.01,7.81l.14-.77-1.33.07c-.4.02-.67.41-.63.77.03.31.31.6.68.62.48.04,1.04-.16,1.14-.7Z"/>
  <path d="M31.69,7.83c-.2.8-.84,1.21-1.59,1.22-.69.01-1.31-.31-1.57-.97s-.25-1.4,0-2.03.88-.97,1.57-.96c.75.01,1.37.43,1.58,1.18.13.45.14,1.06,0,1.56ZM31.02,7.81c.16-.5.15-1.07-.01-1.52s-.56-.68-.96-.67-.79.26-.93.7c-.15.47-.15,1.04,0,1.51.14.43.54.7.93.7s.82-.23.97-.71Z"/>
  <path d="M17.76,5.88c-.29-.33-.78-.3-1.11-.16-.26.11-.57.53-.57.9v2.31s-.63,0-.63,0v-3.72s.6,0,.6,0l.06.47c.52-.63,1.47-.83,2.13-.2.21.2.36.73.36,1.03v2.43s-.62,0-.62,0v-2.32c0-.17-.09-.6-.21-.74Z"/>
  <path d="M35.04,5.82c-.34-.29-.81-.25-1.13-.07-.23.12-.51.53-.51.87v2.32s-.63,0-.63,0v-3.72s.6,0,.6,0l.07.47c.48-.63,1.39-.82,2.07-.26.21.18.4.68.4.97v2.54s-.61,0-.61,0v-2.41c0-.18-.13-.58-.26-.69Z"/>
  <polygon points="12.07 5.21 12.71 5.22 11.32 8.92 10.47 8.93 9.08 5.22 9.73 5.22 10.9 8.29 12.07 5.21"/>
  <path d="M25.88,8.41l.02.54-1.15-.06c-.37-.02-.73-.42-.74-.81l-.02-2.26-.44-.14v-.46s.44-.05.44-.05v-1.07s.62,0,.62,0v1.1s1.28,0,1.28,0v.52s-1.28,0-1.28,0v2.24c0,.16.25.44.41.44h.86Z"/>
  <rect x="7.61" y="5.2" width=".62" height="3.74"/>
  <rect x="13.57" y="5.2" width=".62" height="3.74"/>
  <rect x="26.7" y="5.2" width=".62" height="3.74"/>
  <rect x="7.61" y="3.77" width=".62" height=".77"/>
  <rect x="13.57" y="3.77" width=".62" height=".77"/>
  <rect x="26.7" y="3.77" width=".62" height=".77"/>
  <g>
    <path d="M26.71,71s.05.22.05.25l-19.6-11.36c2.71.6,5.1,1.86,7.55,2.99l3.04,1.65.71-1.77c.59-1.45,1.18-2.83,1.95-4.21,2.08-3.74,4.56-6.97,6.6-10.74,3.34-6.18,4.12-13.19,2.32-19.98l.25.29c.89,2.16,1.36,4.36,1.56,6.69.32,4.86-.73,9.56-3.08,13.82-.93,1.69-1.93,3.2-3.02,4.79l-4.33,6.31c-.72,1.04-1.18,2.17-1.79,3.27l-.93,1.68c2.82,1.68,5.52,3.52,8,5.69l.71.62Z"/>
    <path d="M20.73,51.7c-.58-.47-1.11-.95-1.62-1.56-3.02-3.69-3.67-8.92-1.37-13.15,1.16-2.14,2.68-3.9,3.62-6.24.46-1.14.73-2.31.87-3.53.49-4.26-.69-8.13-2.32-12.03l-2.44-4.86c1.41,1.63,2.45,3.41,3.42,5.3s1.71,3.85,2.2,5.94c.97,4.16.56,8.62-1.78,12.2l-2.17,3.32c-2.83,4.32-2.15,9.92,1.06,13.85.22.23.39.4.53.78Z"/>
    <path d="M23.89,35.95c-.07.09-.27.2-.34.21,2.91-6.65,2.99-13.57.43-20.39,1.24,1.35,1.79,2.91,2.38,4.52,1.16,3.9,1.06,8.04-.38,11.85-.52,1.4-1.2,2.57-2.09,3.81Z"/>
    <path d="M26,41.01c0,1.17-.95,2.13-2.12,2.13s-2.12-.95-2.12-2.13.95-2.13,2.12-2.13,2.12.95,2.12,2.13ZM24.62,41.18c.06-.63-.25-1.12-.67-1.34-.47-.24-.99-.22-1.43.07-.56.36-.72,1.04-.51,1.58.24.61.83.95,1.5.85.59-.08,1.04-.49,1.11-1.16Z"/>
  </g>
</svg>