<?xml version="1.0" encoding="UTF-8"?>
<svg id="Layer_1" data-name="Layer 1" xmlns="http://www.w3.org/2000/svg" viewBox="0 0 54.55 34.36">
  <g>
    <path d="M17.18,20.84l-.12-.03.27-.56c.87-1.79.77-3.88-.53-5.41-.3-.35-.62-.67-.97-.97l-.4-.35-.24-.2-.44-.38c-.57-.5-1.06-1.09-1.46-1.77-1.81,1.04-3.61,1.98-5.54,2.71l-1.07.41c-.44.17-1.09.37-1.53.49-.04.01-.04-.11-.01-.13l15.07-8.69c.02.16-.04.2-.13.27l-.66.6-.37.32-.31.26c-1.59,1.32-3.27,2.45-5.06,3.53.21.23.39.43.6.59l.75.57,1.68,1.2c.26.19.49.43.73.65.46.46.8.98,1.04,1.59.59,1.51.3,3.59-.74,4.7l-.57.61Z"/>
    <g>
      <path d="M51.68,32.33s-.04.16-.09.18c-.81.19-1.56.48-2.38.48h-1.7s-1-.17-1-.17c-1.92-.47-3.73-1.84-4.23-3.79-.27-1.07-.07-2.34.59-3.24.41-.59.99-.98,1.69-1.11l.07.11c-1.57.82-1.99,2.93-1.2,4.47l.45.68.85.84c.28.28.64.46,1,.64.87.44,1.79.69,2.76.8l1.92.09h1.28Z"/>
      <g>
        <path d="M35.55,23.66l1.28.6,1.87.91.04.95.05,1.12.05,1.53.03,3.8c-.09-.06-.11-.14-.12-.25l-.29-2.67-.4-3.72-.07-.32-5.95-2.47-3.72,6.15-7.92-4.54-.92-.53,1.23-1.47.2-.24,4.61-5.52.19-.05-1.05,1.57-1.47,2.1-1.4,1.92-1.04,1.4.61.33,1.48.78,1.71.92,2.58,1.42.79.45,1.41-2.28,2.21-3.48s.06-.15.1-.14c.05,0,.16.03.21.05l1.34.6.56.25.99.45.81.38Z"/>
        <path d="M28.43,18.26l-.46.53-.66.72-.88.94-1.19,1.19-.88.81-.43.39c-.28.21-.47.47-.87.59l1.62-2.1,1.66-2.1,1.19-1.5.73-.92.9.4,4.27,1.91,1.34.6,2.21,1c.76.34,1.48.65,2.26,1.08-.84-.08-1.55-.3-2.33-.52-2.08-.57-4.07-1.29-6.04-2.15l-1.45-.63-.77-.35c-.06-.03-.18.05-.22.09Z"/>
      </g>
    </g>
  </g>
  <path d="M34.27,2.97c.29.92.11,2.26-.83,2.29-.41.01-.77-.22-.9-.64-.3-.93-.13-2.28.84-2.31.41,0,.75.23.89.66ZM33.91,3.02c-.07-.25-.29-.41-.53-.4-.61.03-.68,1.19-.47,1.95.07.25.29.41.53.4.6-.03.67-1.18.46-1.95Z"/>
  <path d="M35.23,4.97c-.44-.55-.44-1.79-.01-2.35.21-.28.55-.34.89-.28.27.05.56.3.65.63.25.85.13,2.08-.61,2.25-.34.08-.69.04-.93-.26ZM36.38,2.99c-.07-.23-.29-.38-.5-.37-.2,0-.41.16-.48.39-.24.78-.13,1.95.48,1.96.65,0,.74-1.19.5-1.98Z"/>
  <path d="M21.65,3.5c.33.73.04,1.67-.62,1.76-.33.04-.57-.06-.81-.31l-.02.26h-.34s0-2.94,0-2.94h.35s0,1.07,0,1.07c.21-.22.45-.35.76-.33.26.02.54.2.67.49ZM21.32,3.64c-.09-.22-.32-.34-.53-.33-.51.01-.72.76-.47,1.33.1.22.32.34.54.33.5-.02.7-.76.47-1.33Z"/>
  <path d="M24.1,4.83v.28c-.34.11-.67.18-1.02.13-.71-.1-1.02-.79-.81-1.53.13-.46.53-.71.99-.71.37,0,.71.18.84.55.07.21.09.46.1.69h-1.6c-.04.37.21.65.6.73l.91-.15ZM23.84,3.94c0-.36-.17-.57-.46-.62-.2-.04-.44.02-.6.17-.1.09-.17.31-.19.46h1.25Z"/>
  <path d="M31.03,5.23c-.36.05-.72,0-1.06-.08v-.38c.31.15.65.23.98.16.32-.07.49-.36.47-.68,0-.27-.17-.51-.44-.58-.29-.08-.6-.02-.89.1v-1.39s1.51,0,1.51,0v.3s-1.15,0-1.15,0v.68c.3-.03.56-.04.79.05.38.14.56.46.58.85.02.48-.26.9-.79.98Z"/>
  <path d="M27.49,5.2c-.02-.06-.03-.29.03-.34l.9-.94c.33-.34.59-.7.39-1.04-.22-.38-.78-.29-1.32-.03v-.38s.79-.15.79-.15c.28-.05.63.1.81.3.24.27.21.6.1.91l-.39.48-.85.87h1.33s0,.31,0,.31h-1.79Z"/>
  <path d="M15.56,4.9c.49.15.88.01,1.25-.28v.39c-.35.2-.71.28-1.12.23-.54-.06-.97-.42-1.1-.95-.22-.92.13-1.82,1.05-1.95.43-.06.81.01,1.19.22v.39c-.42-.32-.88-.44-1.37-.23-.16.07-.35.28-.41.45-.24.68-.09,1.55.52,1.74Z"/>
  <path d="M19.16,3.06v2.14s-.34,0-.34,0l-.03-.26c-.3.36-.84.47-1.21.11-.12-.11-.21-.42-.21-.59v-1.39s.35,0,.35,0v1.39c0,.1.09.34.17.41.15.12.42.11.58.04.14-.06.32-.28.33-.47l.02-1.37h.35Z"/>
  <polygon points="39.04 3.52 39.04 3.82 37.91 3.82 37.91 5.2 37.53 5.19 37.53 2.33 39.17 2.33 39.17 2.63 37.91 2.63 37.91 3.52 39.04 3.52"/>
  <path d="M40.84,4.9v.31s-.64-.03-.64-.03c-.25-.01-.43-.25-.43-.5v-1.25s-.26-.08-.26-.08v-.26s.25-.03.25-.03v-.61s.35,0,.35,0v.63s.73,0,.73,0v.3s-.73,0-.73,0v1.28c0,.09.15.25.25.25h.48Z"/>
  <path d="M26.85,5.7l-.3.04c-.52-.83-.76-1.97-.34-2.79l.36-.7.3.03c-.64,1.06-.68,2.28-.01,3.42Z"/>
  <path d="M42.11,3.76c.09.97-.49,1.98-.61,1.97l-.24-.03c.66-1.17.64-2.29,0-3.44h.31c.27.46.5.95.55,1.49Z"/>
</svg>