<?xml version="1.0" encoding="UTF-8"?>
<svg id="Layer_1" data-name="Layer 1" xmlns="http://www.w3.org/2000/svg" viewBox="0 0 51.22 72.4">
  <path d="M9.27,2.93v5.04s-.92-.01-.92-.01l-2.21-4.19-.02,4.2h-.64s0-5.04,0-5.04l.9-.02.82,1.57,1.1,2.1c.07.13.21.32.3.43V2.92s.65,0,.65,0Z"/>
  <path d="M28.37,7.96h-.61s0-2.43,0-2.43c0-.21-.16-.63-.32-.75-.28-.2-.75-.15-1.02.01-.21.13-.46.54-.46.84v2.33s-.63,0-.63,0v-3.72s.6-.02.6-.02l.07.46c.29-.34.65-.54,1.09-.56.58-.03.99.29,1.17.8.46-.78,1.38-1.08,2.09-.51.28.22.45.78.45,1.14v2.42s-.62,0-.62,0v-2.43c0-.17-.14-.59-.27-.71-.24-.22-.73-.21-1-.07-.22.11-.51.49-.52.78l-.03,2.43Z"/>
  <path d="M34.52,40.07c0,1.18-.95,2.13-2.13,2.13s-2.13-.95-2.13-2.13.95-2.13,2.13-2.13,2.13.95,2.13,2.13ZM33.14,40.08c0-.75-.61-1.36-1.36-1.36s-1.36.61-1.36,1.36.61,1.36,1.36,1.36,1.36-.61,1.36-1.36Z"/>
  <path d="M12.01,7.55c.55.02.99-.12,1.5-.27l.03.53c-1.39.54-2.91.31-3.25-1.04-.13-.5-.09-1.1.09-1.57.26-.68.87-1.04,1.57-1.07.66-.03,1.27.25,1.54.89.16.37.19.85.2,1.28h-2.79c-.09.6.35,1.23,1.11,1.25ZM13.06,5.76c0-.81-.57-1.2-1.22-1.1-.6.09-.98.58-.95,1.11h2.16Z"/>
  <path d="M33.1,8.09c-.81.02-1.3-.5-1.3-1.22,0-.56.33-1.09.93-1.19.52-.09,1.06-.09,1.62-.11.02-.4-.26-.81-.67-.87-.54-.08-.99.01-1.59.21v-.54c.56-.16,1.1-.28,1.67-.2.68.09,1.18.66,1.19,1.35l.03,2.46h-.61s-.06-.47-.06-.47c-.27.33-.68.57-1.22.58ZM34.37,6.09l-1.31.06c-.42.02-.68.41-.65.77s.31.62.73.65c.79.04,1.21-.58,1.22-1.47Z"/>
  <path d="M22.55,8.08c-.78-.03-1.34-.47-1.54-1.17-.14-.5-.14-1.12,0-1.61.19-.71.77-1.12,1.48-1.17.86-.06,1.6.44,1.78,1.31.09.41.09.92,0,1.33-.17.81-.84,1.35-1.73,1.31ZM23.54,6.93c.22-.55.21-1.19-.04-1.73-.18-.38-.58-.58-.96-.55-.9.06-1.24,1.33-.82,2.33.16.37.58.59.93.58s.73-.24.88-.63Z"/>
  <path d="M45.81,8.61c-.12.29-.46.72-.7.74l-.85.07v-.54c.16,0,.58,0,.7-.09.21-.17.39-.63.47-.9l-1.51-3.64h.65s1.17,2.89,1.17,2.89l1.17-2.89h.65s-1.76,4.36-1.76,4.36Z"/>
  <path d="M38.26,4.71c-.41-.11-.79-.04-1.02.13-.18.13-.4.53-.41.8v2.34s-.63-.02-.63-.02v-3.72s.61,0,.61,0l.08.43c.33-.35.71-.55,1.19-.55.58,0,1.11.33,1.18.92l.09.74v2.19s-.62-.01-.62-.01v-2.52c0-.21-.26-.67-.47-.73Z"/>
  <path d="M15.2,6.81c.24.77,1.2.93,2.19.51v.53c-.59.24-1.28.33-1.89.09-.75-.3-1.07-1.05-1.08-1.83s.32-1.53,1.08-1.83c.61-.24,1.3-.16,1.89.08v.53c-.34-.09-.69-.2-1.05-.23-.55-.05-1.03.32-1.17.83-.11.42-.11.9.03,1.33Z"/>
  <path d="M41.86,7.52c.57.08.9-.03,1.41-.2v.56c-.56.18-1.16.28-1.7.13-1.12-.32-1.5-1.6-1.13-2.73s1.63-1.37,2.83-.95v.58c-.58-.23-1.05-.35-1.61-.15-.6.21-.83,1.11-.6,2,.08.31.45.7.8.76Z"/>
  <path d="M19.07,7.96h-.61s0-3.72,0-3.72h.6s.07.45.07.45c.37-.5.95-.65,1.54-.51l-.04.52c-.33-.05-.81-.04-1.06.11-.21.13-.46.54-.47.84l-.02,2.31Z"/>
  <g>
    <path d="M28.99,66.28c1.45.93,2.71,2,4.02,3.11.32.27.73.55.83.93l-19.69-11.37c2.32.45,4.29,1.51,6.36,2.38l4.29,2.27,1.58-3.17c.65-1.31,1.11-2.63,1.61-4.01,1.54-5.11,1.31-8.55-1.02-13.28l-1.67-3.4c-2.95-5.99-4.07-12.7-3.22-19.34l.1-.8.03-.23s.09.07.09.12v1.32c-.02,2.03.14,3.93.41,5.95.6,4.6,2.04,8.89,4.09,13.03l1.42,2.88c.53,1.07.95,2.15,1.31,3.3,1.01,3.27.71,6.45-.3,9.69-.57,1.6-1.14,3.13-2.03,4.57l-2.15,3.51,3.95,2.53Z"/>
    <path d="M36.65,25.79c.43.21.7.69.95,1.14,1.26,2.61.39,5.65-2.32,6.8-2.16.92-4.52.39-6-1.46-2.26-2.81-1.99-7.17-1.87-10.79.1-3.21-.05-5.68-1.26-8.7-.48-1.2-1.08-2.27-1.63-3.44,1.2,1.23,1.9,2.65,2.63,4.1.74,1.7,1.19,3.42,1.33,5.27.09,1.19.08,2.34.11,3.54l.02,1.11c.04,2.43.07,5.3,1.17,7.33.45.84,1.09,1.58,1.97,1.98,1.79.83,4.02.24,5.12-1.42s.9-3.73-.2-5.46Z"/>
    <path d="M35.28,42.34c.76-.16,1.41-.44,1.83-1.08.39-.59.41-1.33.09-1.99-.28-.57-.82-1.01-1.64-1.19.49-.45,1.16-.42,1.72-.17.96.43,1.52,1.41,1.48,2.42s-.67,1.99-1.69,2.33c-.58.19-1.25.22-1.78-.31Z"/>
  </g>
</svg>