<?xml version="1.0" encoding="UTF-8"?>
<svg id="Layer_1" data-name="Layer 1" xmlns="http://www.w3.org/2000/svg" viewBox="0 0 27.52 72.4">
  <g>
    <path d="M13.5,32.15c.19.1.36.26.5.43l-1.33-.44-8.44-3.05c.5-1.86,1.92-3.66,3.33-4.84l2.57-2.15c2.39-2.19,4.19-4.58,5.94-7.32-1.82-1.12-3.52-2.27-5.11-3.66-.63-.55-1.34-1.07-1.75-1.81l16.05,9.27c-1.6-.15-2.9-.82-4.32-1.32-1.56-.68-3.04-1.43-4.57-2.29-1.39,3.37-3.38,6.21-6.03,8.68l-1.6,1.36c-1.14.97-2.13,2.07-2.9,3.4,2.18.95,4.27,1.88,6.33,3.01l1.33.73Z"/>
    <g>
      <path d="M13.52,64.25c1.33,1.93,2.48,3.88,3.56,6.02-.29-.16-.49-.41-.69-.66l-3.69-4.64c-.98-1.24-2.05-2.31-3.1-3.48l-1.1-1.21c-1.53-1.7-2.65-3.95-2.47-6.26l.27-1.75,1.94-.07h5.12c.63.05,1.2,0,1.89.24l-4.78.59-3.2.37c-.37,3.02,1.39,5.07,3.31,7.21,1.06,1.18,2.02,2.35,2.93,3.66Z"/>
      <path d="M12.87,48.78c-.64.62-1.47.76-2.27.84-1.28.12-2.48-.19-3.59-.8-3.01-1.63-4.1-5.23-3.17-8.51.34-1.18.84-2.27,1.71-3.12l.79-.76c2.04-1.72,4.54-2.44,7.25-2.01v.2c-4.67.11-8.93,3.51-8.71,8.41.11,2.51,1.4,4.42,3.65,5.48,1.4.65,2.85.69,4.34.28Z"/>
    </g>
  </g>
  <path d="M11.49,7.56c-.61.71-2.13.6-3.17.22v-.68c.67.34,1.37.57,2.12.39.39-.09.66-.44.67-.8s-.26-.72-.63-.81l-1.08-.26c-.31-.07-.75-.31-.91-.59-.3-.51-.26-1.15.13-1.59.62-.71,1.81-.58,2.88-.33v.65c-1.04-.46-2.22-.5-2.49.26-.07.19.02.69.22.77.87.36,1.68.3,2.19.79.53.52.55,1.4.07,1.96Z"/>
  <path d="M15.79,7.32v.49c-.59.19-1.17.32-1.78.23-1.24-.17-1.78-1.39-1.42-2.69.22-.8.93-1.24,1.73-1.24.65,0,1.24.32,1.47.96.13.36.16.81.18,1.21h-2.8c-.08.64.36,1.14,1.05,1.28.54-.06.88-.12,1.58-.26ZM15.33,5.77c-.02-.62-.29-1-.8-1.1-.35-.06-.78.04-1.05.3-.17.16-.3.54-.34.81h2.18Z"/>
  <path d="M19.58,4.79v3.27s-.62-.02-.62-.02v-3.23s-.59-.02-.59-.02v-.5s.56-.03.56-.03c.04-.38.07-.77.25-1.07.11-.19.6-.35.81-.35h.76s0,.52,0,.52h-.75c-.13,0-.41.22-.41.35l-.02.58h1s.01.52.01.52h-1.01Z"/>
  <rect x="16.96" y="2.81" width=".62" height="5.16"/>
</svg>