<?xml version="1.0" encoding="UTF-8"?>
<svg id="Layer_1" data-name="Layer 1" xmlns="http://www.w3.org/2000/svg" viewBox="0 0 52.75 34.36">
  <g>
    <path d="M14.71,20.53c-.13.15-.28.27-.45.35.26-.58.49-1.05.66-1.62.45-1.58.11-3.24-.97-4.48-.25-.29-.52-.56-.81-.81l-.4-.35-.5-.44-.43-.39c-.51-.46-.93-1-1.29-1.61-1.77,1.01-3.52,1.96-5.4,2.66l-1.7.63-.97.3s-.13-.02-.15-.02.06-.09.08-.1l15.07-8.7c0,.25-.21.36-.36.49l-.5.45-.37.32-.34.28-1.34,1.04c-1.15.9-2.35,1.63-3.64,2.42.42.43.86.81,1.34,1.14l1.26.88c.52.36.99.75,1.4,1.23,1.24,1.42,1.44,3.46.64,5.15-.12.25-.25.5-.42.71l-.39.46Z"/>
    <g>
      <path d="M48.78,32.52l-2.24.49h-1.95s-.47-.09-.47-.09c-1.53-.26-3.07-1.15-3.96-2.43-.71-1.01-.95-2.15-.68-3.36.08-.38.21-.76.43-1.07l.37-.52.3-.28c.29-.27,1.18-.72,1.26-.47-.69.4-1.19,1-1.43,1.76-.4,1.31-.08,2.67.87,3.63l.37.38.45.37.77.48c.76.47,1.64.66,2.53.79l1.88.13h1.61s-.05.18-.12.19Z"/>
      <g>
        <path d="M35.94,26.12l.05,1.12.05,1.48.03,3.84c-.07,0-.13-.07-.12-.12l-.33-3.08-.26-2.32-.15-1.42-5.99-2.49-3.72,6.15-8.81-5.06.38-.49.23-.28,3.16-3.78.35-.41.4-.48,1.58-1.89.09.09c-1.21,1.83-2.42,3.57-3.71,5.32l-1.22,1.64,1.06.55,1.14.61,2.16,1.16,2.81,1.56.96-1.55,2.77-4.38.96.44,1.21.54.94.43.77.36,2.07.99,1.07.52.04.94Z"/>
        <path d="M26.26,23.84l.23.26c-1.26.13-2.35-.57-2.9-1.71l-.36.49c-.47.63-1.12,1.16-1.93,1.33.69-1.09,1.34-2.1,1.77-3.25l.55-1.47,1.45.53.41.13s-.05.12-.08.12l-1.09.06-.3,1.21,2.08,2.09.18.22Z"/>
      </g>
    </g>
  </g>
  <path d="M31.51,3c.28.94.1,2.25-.86,2.26-.4,0-.75-.23-.89-.66-.16-.52-.16-1.11,0-1.63.13-.43.49-.66.88-.66s.74.25.86.69ZM31.13,3c-.07-.23-.28-.39-.48-.39-.21,0-.43.14-.5.37-.24.79-.15,1.99.5,1.98.61,0,.72-1.18.48-1.96Z"/>
  <path d="M21.36,3.5c.33.73.04,1.67-.62,1.76-.33.04-.57-.06-.81-.31l-.02.26h-.34s0-2.94,0-2.94h.35s0,1.07,0,1.07c.21-.22.45-.35.76-.33.26.02.54.2.67.49ZM21.03,3.64c-.09-.22-.32-.34-.53-.33-.51.01-.72.76-.47,1.33.1.22.32.34.54.33.5-.02.7-.76.47-1.33Z"/>
  <path d="M23.82,4.83v.28c-.34.11-.67.18-1.02.13-.71-.1-1.02-.79-.81-1.53.13-.46.53-.71.99-.71.37,0,.71.18.84.55.07.21.09.46.1.69h-1.6c-.04.37.21.65.6.73l.91-.15ZM23.55,3.94c0-.36-.17-.57-.46-.62-.2-.04-.44.02-.6.17-.1.09-.17.31-.19.46h1.25Z"/>
  <path d="M27.19,4.77c.65.32,1.45.25,1.5-.32.02-.25-.1-.56-.38-.58l-.63-.06v-.28s.49-.01.49-.01c.25,0,.43-.19.44-.41.01-.21-.14-.43-.4-.46-.31-.04-.59.02-.94.11v-.32c.58-.13,1.25-.19,1.57.21.14.17.17.41.12.64-.04.16-.24.32-.44.41.34.11.55.36.54.7,0,.39-.22.7-.61.81-.42.12-.87.07-1.28-.06v-.36Z"/>
  <path d="M15.27,4.9c.49.15.88.01,1.25-.28v.39c-.35.2-.71.28-1.12.23-.54-.06-.97-.42-1.1-.95-.22-.92.13-1.82,1.05-1.95.43-.06.81.01,1.19.22v.39c-.42-.32-.88-.44-1.37-.23-.16.07-.35.28-.41.45-.24.68-.09,1.55.52,1.74Z"/>
  <path d="M18.87,3.06v2.14s-.34,0-.34,0l-.03-.26c-.3.36-.84.47-1.21.11-.12-.11-.21-.42-.21-.59v-1.39s.35,0,.35,0v1.38c0,.11.09.35.17.41.14.11.42.11.58.04.14-.06.32-.28.33-.47l.02-1.37h.35Z"/>
  <polygon points="33.77 3.52 33.79 3.82 32.65 3.82 32.65 5.19 32.26 5.19 32.26 2.33 33.88 2.33 33.9 2.63 32.65 2.63 32.65 3.52 33.77 3.52"/>
  <path d="M35.56,4.91v.3s-.67-.04-.67-.04c-.2-.01-.39-.26-.39-.47v-1.31s-.26-.03-.26-.03v-.27s.25-.03.25-.03v-.61s.35,0,.35,0v.63s.73,0,.73,0v.3s-.73,0-.73,0v1.24c0,.07.07.25.12.26l.59.04Z"/>
  <path d="M26.56,5.7l-.3.04c-.52-.83-.76-1.97-.34-2.79l.36-.7.3.03c-.64,1.06-.68,2.28-.01,3.42Z"/>
  <path d="M36.71,4.87l-.41.86h-.31c.64-1.12.67-2.33,0-3.44l.32-.03.39.81c.26.55.23,1.19.01,1.79Z"/>
</svg>