<?xml version="1.0" encoding="UTF-8"?>
<svg id="Layer_1" data-name="Layer 1" xmlns="http://www.w3.org/2000/svg" viewBox="0 0 52.5 45.69">
  <path d="M32.1,4.19v.33c-.82.3-1.73.22-2.02-.52-.16-.4-.13-.86.05-1.24s.59-.59,1.02-.6.83.22.97.66c.07.22.09.49.09.73h-1.8c-.02.39.24.77.67.8.34.02.57-.04,1.02-.15ZM31.8,3.21c.02-.47-.28-.71-.65-.72-.44,0-.73.32-.75.72h1.39Z"/>
  <path d="M24.22,4.69c-.48-.01-.83-.26-.98-.68-.13-.36-.13-.8,0-1.17.16-.45.55-.69,1.02-.68s.85.24,1.01.69c.12.36.12.8,0,1.16-.15.44-.54.7-1.04.69ZM24.83,3.96c.15-.36.14-.77-.01-1.1-.11-.25-.36-.38-.6-.37-.56.02-.82.8-.56,1.45.1.25.34.41.56.41.24,0,.5-.12.61-.4Z"/>
  <polygon points="22.71 2.73 22.73 3.07 21.45 3.07 21.45 4.62 21.02 4.61 21.02 1.4 22.85 1.4 22.86 1.73 21.45 1.73 21.45 2.73 22.71 2.73"/>
  <path d="M28.01,3.78c.09.41.5.66.88.56l.57-.14-.02.34c-.39.15-.83.21-1.22.05-.48-.2-.68-.67-.68-1.17s.18-.93.63-1.14c.4-.19.86-.14,1.27.02v.35c-.3-.11-.58-.19-.9-.13-.47.09-.67.64-.54,1.26Z"/>
  <path d="M26.37,4.61h-.39s0-2.38,0-2.38h.38s.02.29.02.29c.25-.29.6-.42,1-.33v.34c-.27-.03-.55-.03-.72.08-.13.09-.28.36-.28.55v1.46Z"/>
  <g>
    <path d="M3.63,44.4s-.1.16-.12.13-.06-.14-.06-.18v-1.02s-.03-1.63-.03-1.63l-.02-2.62v-13.14s.02-3.11.02-3.11v-1.62s.03-1.03.03-1.03h.16s.23,1.24.23,1.24c.29,1.6.5,3.17.61,4.79l.07,1.05.06,1.2.05,1.41.05,2.1c1.41-.1,2.75-.24,4.12-.52,1.7-.35,3.81-.93,5.39-1.58l2.04-.85.49-.22.86-.4,1.14-.56,1.55-.7c1.66-.75,4.02-1.1,5.89-.96,1.23.09,2.34.42,3.55.81l-1.2-1.23-.29-.33-.53-.67c-.41-.52-.76-1.07-1.09-1.65-.68-1.18-1.42-2.91-1.69-4.22l-.17-.84s.15-.02.17,0l.23.39.66,1.11,1.02,1.65.58.9.89,1.29.63.85.78.98.58.69.77.85,1.7,1.68.7.64.09.09s-.08.13-.12.11l-1.42-.64c-.77-.34-1.5-.58-2.3-.82-2.69-.8-5.39-.76-8.03.18-.83.29-1.57.64-2.36,1.02l-1.27.62-1.97.84-1.19.44c-.94.34-1.86.6-2.83.84-2.13.52-4.24.75-6.43.64l-.91-.05-.05,2.4-.05,1.41-.07,1.26-.05.78-.18,2c-.13,1.42-.4,2.77-.67,4.21Z"/>
    <path d="M37.53,27.65l-1.03.18c-1.16.2-2.84-.32-3.52-1.39-.89-1.4-.49-3.3.61-4.58l-.89.07c-2.85.21-5.58-1.95-5.17-4.68.05-.32.15-.61.38-.85-.12,1.73.93,3.22,2.45,3.86.92.39,1.91.48,2.91.33.73-.11,1.44-.27,2.11-.57l.44-.2.96-.52,1.89-1.34.88-.68c1.16-.88,2.24-1.81,3.28-2.83l.68-.66.42-.43c1.27-1.31,2.42-2.69,3.46-4.19l.47-.67.99-1.53.9-1.48c.05.12.04.28,0,.39l-.58,1.4-.96,1.92-.89,1.5-1.42,2.02-.62.78-.48.58-.5.56-.75.8-.19.22-.48.44-1.17,1.09-.42.36-.85.7-.39.31-1.7,1.25-.77.5-1.24.81-.7.5c-.53.37-1.01.82-1.41,1.32-.92,1.14-1.09,2.7.02,3.64.85.72,2.2.9,3.28.73l1.19-.18.06.15-1.23.37Z"/>
  </g>
</svg>