<?xml version="1.0" encoding="UTF-8"?>
<svg id="Layer_1" data-name="Layer 1" xmlns="http://www.w3.org/2000/svg" viewBox="0 0 37.39 72.4">
  <path d="M15.77,22.19c-2.38,3.03-4.33,6.62-1.94,10.1l-.1.14c-2.34-1.9-2.38-5.3-1.1-7.89.34-.69.71-1.31,1.12-1.96l2.24-2.82c1.39-1.74,2.69-3.48,3.89-5.33-2.44-1.46-4.56-3.05-6.54-4.95-.13-.12-.24-.31-.23-.47l15.95,9.24c-1.62-.17-2.95-.84-4.39-1.36-1.51-.67-2.94-1.39-4.41-2.22-1.04,2.75-2.66,5.16-4.49,7.51Z"/>
  <path d="M17.35,42.45c-1.79.89-4.48,3.08-5.65,4.66l-2.14,2.88c.61-2.24,1.89-4.06,3.35-5.73l.9-.87c1.03-1,2.2-1.75,3.54-2.49-2.42-.82-4.45-2.17-6.09-4.07-1.44-1.66-2.54-3.59-2.94-5.78.96,1.57,1.73,3,2.94,4.24,1.54,1.67,3.3,3.03,5.42,3.88,1.29.52,2.56.87,3.91,1.26.09.03.28.12.41.2l-3.65,1.81Z"/>
  <path d="M23.8,49.18c-.89,1.37-1.8,2.61-3.23,3.5,1.84-2.43,3.14-5,3.63-7.98.78-4.76-.53-9.57-3.59-13.28-.33-.41-.65-.73-.94-1.19,2,1.19,3.47,2.92,4.51,4.95,2.19,4.29,2.11,9.76-.38,13.99Z"/>
  <path d="M20.75,69.93l-.72-.81-.75-.88-2.72-3.32-1.45-1.63c-2.08-2.34-3.02-5.71-2.52-8.8.24-1.53.76-2.99,1.84-4.17-.61,1.74-.98,3.33-.9,5.11.09,1.92.56,3.74,1.5,5.41.44.79,1.01,1.46,1.55,2.17l1.42,1.87c1.05,1.59,1.92,3.17,2.83,4.88l-.1.16Z"/>
  <path d="M27.17,7.63v-2.43c0-.18-.16-.6-.3-.71-.29-.23-.79-.2-1.09-.04-.23.13-.5.54-.5.87v2.32s-.63,0-.63,0V2.47s.62.01.62.01v1.9c.58-.65,1.49-.84,2.16-.21.21.19.36.73.36,1.03v2.43s-.62,0-.62,0Z"/>
  <path d="M15.46,6.53c-.21.81-.85,1.21-1.6,1.22-.82.01-1.5-.49-1.67-1.32-.09-.41-.08-.93,0-1.33.17-.83.85-1.33,1.67-1.31.76.01,1.38.42,1.59,1.18.13.46.14,1.07,0,1.57ZM14.75,6.61c.22-.56.21-1.2-.02-1.71-.16-.37-.57-.59-.93-.58s-.73.25-.88.63c-.21.53-.2,1.13,0,1.66.15.39.53.62.88.63s.78-.2.94-.62Z"/>
  <path d="M19.64,3.91v3.72s-.6,0-.6,0l-.08-.46c-.5.62-1.41.81-2.06.23-.24-.21-.41-.75-.41-1.07v-2.43s.62,0,.62,0v2.44c0,.21.16.64.34.74.36.21.78.17,1.11-.04.24-.15.45-.58.45-.93v-2.21s.62.01.62.01Z"/>
  <polygon points="11.26 7.66 10.58 7.69 10.58 3.24 8.82 3.24 8.83 2.72 12.99 2.72 13.02 3.24 11.26 3.24 11.26 7.66"/>
  <path d="M21.36,6.32c.14.64.78,1.03,1.37.88l.88-.22-.03.54c-.6.24-1.3.33-1.9.07-.74-.31-1.05-1.05-1.05-1.83s.28-1.46.98-1.79c.62-.3,1.34-.22,1.98.03v.55c-.47-.17-.9-.3-1.4-.21-.73.14-1.05,1-.83,1.97Z"/>
</svg>