<?xml version="1.0" encoding="UTF-8"?>
<svg id="Layer_1" data-name="Layer 1" xmlns="http://www.w3.org/2000/svg" viewBox="0 0 53.5 33.62">
  <g>
    <path d="M29.76,20.55l1.12,1.17.22.28c-1.27.11-2.36-.58-2.89-1.73-.53.86-1.32,1.62-2.28,1.83.56-.89,1.07-1.68,1.47-2.59l.4-.91.44-1.21,1.21.44.71.26c-.32.1-.53.12-.83.12h-.41s-.25,1.09-.25,1.09c-.02.07,0,.21.05.25l.65.61.39.39Z"/>
    <path d="M25.23,19.74c-.72-.27-.95-.91-.79-1.73l1.21.75c.41-.53.94-1.03,1.63-1.22-.36,1.37-1.03,2.55-1.91,3.58-.02.02-.07.08-.07.08s-.06-.04-.11-.07c-.05-.44-.05-.84.05-1.38Z"/>
    <path d="M18.88,19.82l-.09-.12c1.1-1.88,1.15-4.16-.24-5.83-.42-.51-.9-.93-1.4-1.36l-.27-.23-.6-.53-.49-.51-.34-.41-.44-.67-2.74,1.46c-1.5.8-3.7,1.64-5.41,2.16l.03-.16,14.91-8.61s.15-.02.14,0-.05.11-.07.14l-.9.8-.41.36-.38.31c-1.51,1.24-3.09,2.29-4.79,3.31.89,1.02,2.56,1.84,3.33,2.59l.45.43.39.43c.2.22.35.49.48.77.92,1.88.48,4.26-1.16,5.68Z"/>
    <g>
      <path d="M40.78,28.08c.58-1.16.74-2.55.38-3.87-.26-.93-.73-1.79-1.48-2.39l-.28-.22c-.3-.24-.65-.41-1.01-.55-1.53-.61-3.66-.31-4.77.82l-.8.82-.92,1.09-.41.47-.66.65-.71.54c-.64.48-1.41.7-2.22.8-1.83.23-3.81-.47-4.94-1.94-.6-.77-.92-1.69-.99-2.66v-.82c.1-1.3.67-2.59,1.8-3.35-.5.72-.96,1.35-1.15,2.18s-.22,1.67.04,2.51c.78,2.55,3.47,3.76,5.97,2.87,1.25-.45,2.07-1.48,2.89-2.49l.26-.31.31-.37.85-.85c.27-.27.62-.47.97-.65,1.5-.77,3.24-.82,4.78-.14,1.75.77,2.91,2.37,3.07,4.27v1.15c-.1.96-.39,1.84-.97,2.61-.02-.03-.05-.13-.04-.17Z"/>
      <path d="M51.87,31.29h1.47s0,.16-.02.17l-2.37.51h-1.89c-.59-.1-1.17-.19-1.71-.43l-.61-.27c-.51-.23-.95-.57-1.37-.95-.56-.51-.99-1.1-1.27-1.8-.76-1.88.03-4.41,2.09-4.87l.09.09c-.32.2-.63.38-.84.67l-.28.4c-.61.87-.63,2.4-.06,3.46l.37.56.31.38c.32.39.73.7,1.18.95l.4.22c.75.42,1.58.63,2.43.76l2.05.14Z"/>
    </g>
  </g>
  <path d="M31.83,2.29c.51.03.8.4.84.88.05.6-.35,1.08-.97,1.07-.41,0-.74-.24-.88-.64-.26-.76-.16-1.81.51-2.18.36-.2.77-.14,1.15-.03l-.02.32c-.28-.1-.58-.16-.86-.09-.34.09-.51.54-.52.97.21-.19.45-.32.74-.31ZM32.26,3.48c.03-.13.02-.37,0-.48-.07-.28-.31-.43-.57-.42-.21.01-.44.17-.49.43-.03.15-.03.38.01.52.08.27.31.4.54.39s.45-.14.52-.45Z"/>
  <path d="M35.05,1.97c.27.94.1,2.23-.86,2.26-.41.01-.75-.23-.89-.66-.17-.52-.17-1.11,0-1.63.14-.43.48-.67.89-.66s.73.26.86.69ZM33.83,3.79c.09.13.39.17.52.11.48-.2.51-1.26.31-1.93-.06-.23-.28-.39-.47-.39-.55,0-.64.7-.62,1.4.01.28.07.56.25.81Z"/>
  <path d="M27.35,3.8v.28c-.34.11-.67.18-1.02.13-.71-.1-1.02-.79-.81-1.53.13-.46.53-.71.99-.71.37,0,.71.18.84.55.07.21.09.46.1.69h-1.6c-.04.37.21.65.6.73l.91-.15ZM27.09,2.91c0-.36-.17-.57-.46-.62-.2-.04-.44.02-.6.17-.1.09-.17.31-.19.46h1.25Z"/>
  <path d="M24.29,2.31c-.23-.06-.45-.02-.58.08-.1.08-.23.3-.23.45v1.33s-.36,0-.36,0v-2.12s.35,0,.35,0l.04.25c.19-.2.4-.32.68-.31.33,0,.63.19.67.53l.05.42v1.25s-.35,0-.35,0v-1.44c0-.12-.15-.38-.27-.42Z"/>
  <polygon points="37.29 2.49 37.31 2.79 36.18 2.79 36.18 4.16 35.79 4.16 35.79 1.3 37.42 1.3 37.43 1.6 36.18 1.6 36.18 2.49 37.29 2.49"/>
  <polygon points="21.65 3.87 21.66 4.17 19.88 4.17 19.88 1.33 20.26 1.31 20.26 3.86 21.65 3.87"/>
  <path d="M39.1,3.88v.3s-.67-.04-.67-.04c-.21-.01-.4-.26-.4-.47v-1.31s-.25-.04-.25-.04v-.27s.25-.03.25-.03v-.61s.35,0,.35,0v.62s.73,0,.73,0v.3s-.73,0-.73,0v1.23c0,.07.07.27.13.27l.59.04Z"/>
  <path d="M30.1,4.66l-.3.04c-.52-.83-.76-1.97-.34-2.79l.36-.7.3.03c-.64,1.06-.68,2.28-.01,3.42Z"/>
  <path d="M40.19,3.96l-.36.74h-.31c.64-1.12.66-2.33,0-3.44l.31-.02.35.73c.3.62.32,1.37,0,2.01Z"/>
  <rect x="22.05" y="2.04" width=".35" height="2.13"/>
  <rect x="22.05" y="1.22" width=".35" height=".44"/>
</svg>