<?xml version="1.0" encoding="UTF-8"?>
<svg id="Layer_1" data-name="Layer 1" xmlns="http://www.w3.org/2000/svg" viewBox="0 0 52.75 38.89">
  <g>
    <g>
      <path d="M26.38,25.94c-.7.07-1.37-.14-1.95-.55-.23-.16-.46-.36-.6-.59l-.34-.59-.22.29-.64.74c-.42.35-.86.67-1.45.79,1.01-1.51,1.78-3.04,2.33-4.73l1.47.54.43.17c-.43.13-.78.14-1.2.12l-.28,1.1c-.02.08.05.2.12.27l1.72,1.72.61.7Z"/>
      <path d="M21.64,24.19l-.36-.96-.44-1.63c.78.08,1.39.56,1.45,1.31-.04.49-.18.91-.64,1.28Z"/>
    </g>
    <path d="M15.86,18.42c-.1-.78-.5-1.78-1.03-2.35l-.61-.65-.49-.45-.4-.35-.5-.44-.32-.3-.44-.45-.31-.37-.47-.7-.52.29-.85.47c-1.53.84-3.87,1.91-5.5,2.45l-1.21.4-.1-.1,15.05-8.68.03.13-.63.59-.57.5c-1.37,1.2-2.85,2.21-4.4,3.17l-.91.57.55.51c.39.36.82.64,1.26.94l.67.46c1.1.76,2.05,1.65,2.44,2.95.24.8.28,1.61.1,2.43-.23,1.02-.73,1.99-1.63,2.63.22-.53.44-.97.6-1.47.22-.71.29-1.44.2-2.18Z"/>
    <g>
      <path d="M49.57,33.63c-1.06.14-2.05.29-3.1.29h-1.88c-1.13,0-2.2-.15-3.32-.31-1.55-.22-3.01-.57-4.5-1s-3.27-1.16-4.46-2.18l-.44-.38-.56-.56-.31-.38c-1.4-1.67-1.97-4.15-1.52-6.3.09-.43.26-.93.42-1.3l.07-.11s.07.05.09.07c-.29,1.11-.31,2.22-.11,3.37.24,1.31.75,2.52,1.63,3.51l.47.53.49.45c.52.47,1.11.84,1.75,1.13l.94.43.91.35c4.31,1.45,8.84,2.17,13.45,2.23.12-.03.11.14,0,.14Z"/>
      <path d="M32,31.88l-.56-.28-.96-.42-1.38-.5-1.42-.39c-2.07-.57-5.39-.67-7.52-.25l-1.15.23-.04-.11c1.54-.83,3.21-1.26,4.97-1.34,2.76-.12,6,.69,8.21,2.32l.55.4.41.34.45.42.5.51c.13.13.24.26.29.47l-1.67-1.04-.67-.36Z"/>
    </g>
  </g>
  <path d="M31.25,6.43c-.35-.04-.62-.25-.74-.59-.2-.56-.2-1.2,0-1.76.14-.4.5-.62.93-.59.92.07,1.06,1.38.79,2.28-.14.45-.53.7-.98.65ZM31.84,4.16c-.07-.23-.29-.38-.5-.37-.61.01-.71,1.22-.45,2,.08.23.3.37.52.35.59-.04.68-1.21.44-1.98Z"/>
  <path d="M29.48,5.68v.65s-.38.02-.38.02v-.66s-1.29,0-1.29,0v-.36s1.19-1.83,1.19-1.83h.49s0,1.88,0,1.88h.4s0,.3,0,.3h-.4ZM29.1,5.38v-1.53s-.98,1.53-.98,1.53h.98Z"/>
  <path d="M23.52,6.1c.36.08.7,0,1.01-.16l.02.33c-.71.27-1.54.21-1.8-.44-.15-.37-.13-.81.04-1.15s.5-.5.87-.52c.41-.01.77.2.9.61.05.18.07.4.08.62h-1.61c-.01.32.15.62.49.69ZM24.28,5.11c0-.43-.27-.64-.62-.64-.37,0-.62.28-.63.64h1.24Z"/>
  <path d="M16.08,6.08c.49.15.88.01,1.25-.28v.39c-.35.2-.71.28-1.12.23-.54-.06-.97-.42-1.1-.95-.22-.92.13-1.82,1.05-1.95.43-.06.81.01,1.19.22v.39c-.42-.32-.88-.44-1.37-.23-.16.07-.35.28-.41.45-.24.68-.09,1.55.52,1.74Z"/>
  <path d="M19.69,5.74c-.12.46-.49.69-.91.7-.47,0-.86-.28-.95-.75-.05-.23-.05-.53,0-.76.1-.47.49-.76.95-.75.43,0,.79.24.91.67.07.26.08.61,0,.89ZM19.28,5.78c.13-.32.12-.68,0-.98-.09-.21-.33-.33-.53-.33s-.42.14-.5.36c-.12.3-.12.64,0,.94.09.22.3.35.5.36s.44-.12.54-.35Z"/>
  <path d="M21.62,4.62c-.16-.19-.46-.16-.63-.09-.15.07-.33.31-.33.52v1.32s-.36,0-.36,0v-2.12s.34,0,.34,0l.03.27c.3-.36.84-.47,1.21-.11.12.11.21.42.21.59v1.39s-.35,0-.35,0v-1.32c0-.1-.05-.34-.12-.42Z"/>
  <polygon points="34.49 4.69 34.5 4.99 33.37 4.99 33.37 6.37 32.98 6.36 32.98 3.5 34.62 3.5 34.62 3.8 33.37 3.8 33.37 4.69 34.49 4.69"/>
  <path d="M36.29,6.07v.31s-.65-.03-.65-.03c-.21-.01-.42-.24-.42-.46v-1.29s-.26-.08-.26-.08v-.26s.25-.03.25-.03v-.61s.35,0,.35,0v.63s.73,0,.73,0v.3s-.73,0-.73,0v1.28c0,.09.15.25.25.25h.48Z"/>
  <path d="M37.38,6.15l-.36.76-.32-.02c.66-1.11.65-2.37-.01-3.44h.32c.51.76.77,1.87.37,2.71Z"/>
  <path d="M27.28,6.88s-.27.04-.31-.03l-.35-.69c-.25-.67-.3-1.39.01-2.03l.35-.71h.32c-.59.97-.67,2.1-.18,3.12l.16.34Z"/>
</svg>