<?xml version="1.0" encoding="UTF-8"?>
<svg id="Layer_1" data-name="Layer 1" xmlns="http://www.w3.org/2000/svg" viewBox="0 0 37.39 72.4">
  <path d="M18.84,7.41h-.6s0-2.49,0-2.49c0-.19-.18-.62-.35-.71-.3-.16-.75-.12-1.02.07-.2.14-.43.53-.43.83v2.32s-.63,0-.63,0v-3.73s.6.01.6.01l.06.45c.41-.52,1.15-.77,1.79-.41.17.09.38.4.53.61.36-.68,1.22-1.04,1.95-.58.31.2.54.72.54,1.1l.02,2.54h-.62s0-2.42,0-2.42c0-.2-.14-.61-.31-.74-.26-.2-.74-.16-1-.01-.21.12-.48.51-.48.79l-.03,2.38Z"/>
  <path d="M5.87,2.44h.69s-.01,3.35-.01,3.35c0,.51-.24,1.13-.68,1.41-.7.45-1.63.46-2.37.06-.47-.26-.76-.88-.76-1.41l-.02-3.42h.69s.02,3.46.02,3.46c0,.71.55,1.17,1.24,1.13.33-.02.76-.12.94-.4.15-.24.26-.66.26-.93v-3.25Z"/>
  <path d="M33.7,7.01c-.3.37-.71.56-1.21.53-.44-.02-.92-.31-1.15-.78-.65-1.3-.11-3.05,1.05-3.17.58-.06.97.11,1.38.57l.02-1.89h.61s0,5.15,0,5.15h-.6s-.1-.41-.1-.41ZM33.63,6.39c.21-.56.19-1.17-.02-1.68-.15-.38-.56-.6-.92-.59-.87,0-1.26,1.22-.87,2.27.14.39.52.64.87.65s.78-.21.93-.63Z"/>
  <path d="M28.26,6.93c.64.18,1.25.02,1.85-.22l.05.55c-.63.22-1.29.36-1.95.21-1.21-.26-1.65-1.57-1.25-2.75.25-.73.87-1.12,1.62-1.15s1.42.38,1.61,1.15c.07.31.1.66.11,1.02h-2.81c-.03.54.21,1.03.77,1.18ZM29.68,5.23c0-.66-.36-1.03-.86-1.11-.72-.09-1.3.38-1.31,1.12h2.18Z"/>
  <path d="M9.92,4.32c-.32-.27-.79-.25-1.12-.07-.28.15-.52.58-.52.97v2.21s-.62,0-.62,0v-3.72s.6,0,.6,0l.08.46c.49-.61,1.42-.81,2.06-.23.28.25.41.81.41,1.19v2.32s-.62,0-.62,0v-2.42c0-.17-.12-.57-.26-.69Z"/>
  <path d="M26.26,6.93l.02.52-1.18-.07c-.36-.02-.69-.45-.7-.82l-.02-2.31-.43-.06-.02-.47.46-.05v-1.07s.61,0,.61,0v1.1s1.27,0,1.27,0v.52s-1.27,0-1.27,0v2.15c0,.13.12.47.22.48l1.04.07Z"/>
  <rect x="12.02" y="2.27" width=".62" height="5.16"/>
  <rect x="13.92" y="3.7" width=".62" height="3.74"/>
  <rect x="22.49" y="3.7" width=".62" height="3.74"/>
  <rect x="13.92" y="2.27" width=".62" height=".77"/>
  <rect x="22.49" y="2.27" width=".62" height=".77"/>
  <g>
    <path d="M10.79,27.9c1.98.86,3.77,1.66,5.6,2.62.88.46,1.7.88,2.57,1.5-.98-.26-1.85-.58-2.82-.93l-7-2.53c.78-2.55,2.56-4.27,4.54-5.83,3.02-2.38,5.27-5.22,7.32-8.47-2.46-1.5-4.95-3.24-6.93-5.4.59.2.99.43,1.52.74l14.62,8.48c-1.85-.21-3.38-1.01-5.02-1.62-1.31-.63-2.56-1.27-3.86-2-1.09,2.56-2.5,4.9-4.35,6.95-.59.65-1.15,1.26-1.81,1.82l-1.36,1.16c-1.12.96-2.3,2.16-3.01,3.52Z"/>
    <g>
      <path d="M19.81,40.86c-.04,3.58-3.14,6.36-6.65,6.07-2.89-.23-5.37-2.4-5.71-5.25-.07-.58-.11-1.23-.01-1.82l.09-.57c.53-2.28,2.28-4,4.53-4.58,3.49-.9,6.91,1.26,7.65,4.78l1.32.07c1.03.06,2.05.23,3.04.5.58.16,1.1.31,1.66.72l-5.91.07ZM18.46,40.86l-4.81-.05s-.1-.11-.07-.13l.16-.11c1.47-.58,2.93-.94,4.59-1.04-.74-3.04-3.58-4.85-6.6-4.16-2.22.55-3.87,2.31-4.18,4.6-.19,1.41.17,2.93,1.04,4.06,1.59,2.07,4.38,2.79,6.75,1.66,1.88-.91,3.05-2.77,3.13-4.84Z"/>
      <path d="M15.53,60.06c2.73,3.03,4.63,6.02,6.49,9.64l-.28-.11-.6-.76-2.66-3.37c-1.35-1.71-2.75-3.27-4.26-4.85-1.91-2-3.46-4.29-3.25-7.12l.28-1.76,2.19-.07c1.6-.05,3.18-.07,4.77,0,.67.03,1.26.06,2.01.21l-2.33.34-5.65.65c-.39,3,1.39,5.08,3.3,7.21Z"/>
    </g>
  </g>
</svg>