<?xml version="1.0" encoding="UTF-8"?>
<svg id="Layer_1" data-name="Layer 1" xmlns="http://www.w3.org/2000/svg" viewBox="0 0 27.52 72.4">
  <path d="M11.95,32.41l-6.43-2.33c.36-1.2.89-2.17,1.63-3.08.32-.4.65-.82,1.03-1.16l1.1-.98,1.39-1.15,1-.86c1.45-1.26,3.58-3.89,4.65-5.55l.99-1.54c-1.97-1.22-3.82-2.42-5.47-3.99l-1.37-1.31.3-.02,15.71,9.13c-1.82-.19-3.32-.99-4.94-1.59-1.33-.65-2.61-1.3-3.9-2.01-1.71,3.95-3.7,6.67-6.92,9.43l-.83.71c-1.02.87-2.03,2.03-2.75,3.27l2.09.94c2.06.93,4.04,1.88,6.04,3.17-1.14-.26-2.19-.69-3.31-1.09Z"/>
  <g>
    <path d="M17.54,70.47l-3.46-4.38-2.61-2.98-1.48-1.6c-1.66-1.79-2.86-4.05-2.67-6.54l.26-1.72,2.56-.09h4.11c.8,0,1.54.04,2.31.25l-8.01.96c-.33,2.54,1.01,4.66,2.7,6.53,1.54,1.7,2.95,3.4,4.2,5.34,1.05,1.64,1.97,3.22,2.86,4.99-.34-.19-.53-.45-.78-.77Z"/>
    <g>
      <path d="M7.08,49.76c2.22.11,4.05-.69,5.39-2.36,1.95-2.44,1.46-6.07-.53-8.39-1.55-1.81-3.51-2.78-5.87-3.43v-.13c2.36.02,4.67.85,6.43,2.46,1.97,1.8,2.91,4.44,2.41,7.09-.27,1.43-.96,2.72-2.05,3.66-1.58,1.36-3.75,1.91-5.84,1.29-.18-.04-.19-.35.06-.18Z"/>
      <path d="M9.45,44.41l2.07.05c-.65.58-1.33.88-2.11,1.07-1.76.43-4.1.25-5.56-1.07l2.87-.08.11-3.08,1.42.09,2,.18c-.63.57-1.36.79-2.14,1.01-.17.61-.37,1.16-.66,1.8l2.01.03Z"/>
    </g>
  </g>
  <path d="M10.61,8.53c-.77-.96-.76-3.14-.02-4.12.37-.49.97-.61,1.56-.5.47.09.97.52,1.14,1.11.44,1.5.23,3.64-1.06,3.95-.59.14-1.21.06-1.62-.45ZM12.62,5.05c-.13-.41-.5-.66-.87-.65-.35,0-.71.29-.83.69-.42,1.38-.23,3.42.83,3.44,1.13.02,1.29-2.09.87-3.47Z"/>
  <path d="M17.31,4.42c.76.99.74,3.24-.05,4.15-.4.46-1.01.56-1.6.42-.43-.1-.9-.54-1.06-1.09-.44-1.5-.23-3.64,1.06-3.95.62-.15,1.26-.03,1.65.47ZM15.7,8.41c.49.3,1.06.03,1.24-.48.32-.91.31-1.92.03-2.85-.17-.55-.75-.87-1.28-.56-.7.41-.7,1.92-.53,3.02.04.3.3.72.53.87Z"/>
  <polygon points="21.58 5.99 21.62 6.52 19.64 6.52 19.65 8.93 18.97 8.93 18.97 3.91 21.8 3.9 21.84 4.43 19.64 4.43 19.65 5.99 21.58 5.99"/>
  <path d="M6.23,8.94l-.05-.51,1.11-.03v-3.83s-1.18.23-1.18.23v-.62s1.17-.23,1.17-.23c.15-.03.45-.02.68-.01v4.47s1.11,0,1.11,0v.52s-2.83,0-2.83,0Z"/>
  <path d="M24.74,8.41l.02.54-1.12-.05c-.39-.02-.75-.43-.76-.84l-.02-2.3-.44-.05v-.48s.45-.05.45-.05v-1.07s.61-.01.61-.01v1.1s1.27,0,1.27,0v.52s-1.27,0-1.27,0v2.24c0,.14.21.43.36.43h.89Z"/>
</svg>