<?xml version="1.0" encoding="UTF-8"?>
<svg id="Layer_1" data-name="Layer 1" xmlns="http://www.w3.org/2000/svg" viewBox="0 0 27.52 72.4">
  <path d="M11.51,8.53c-.77-.96-.76-3.14-.02-4.12.37-.49.97-.61,1.56-.5.47.09.97.52,1.14,1.11.44,1.5.23,3.64-1.06,3.95-.59.14-1.21.06-1.62-.45ZM13.53,5.05c-.13-.41-.5-.66-.87-.65-.35,0-.71.29-.83.69-.42,1.38-.23,3.42.83,3.44,1.13.02,1.29-2.09.87-3.47Z"/>
  <polygon points="18.17 5.99 18.18 6.52 16.2 6.52 16.2 8.93 15.52 8.92 15.53 3.91 18.39 3.91 18.39 4.43 16.2 4.43 16.2 5.99 18.17 5.99"/>
  <path d="M7.14,8.94l-.05-.51,1.11-.03v-3.83s-1.18.23-1.18.23v-.62s1.17-.23,1.17-.23c.15-.03.45-.02.68-.01v4.47s1.11,0,1.11,0v.52s-2.83,0-2.83,0Z"/>
  <path d="M5.91,43.82c-.22.47-.24,1.07-.32,1.62-.79-.71-.99-1.84-.58-2.83l.54-1.33,2.39.9c-.51.24-.91.34-1.44.41l-.58,1.22Z"/>
  <path d="M21.31,8.41v.54s-1.11-.06-1.11-.06c-.44-.02-.76-.44-.76-.88v-2.2s-.45-.14-.45-.14v-.46s.44-.05.44-.05v-1.07s.62,0,.62,0v1.1s1.27,0,1.27,0v.52s-1.27.01-1.27.01v2.25c0,.16.26.44.43.44h.83Z"/>
  <path d="M7.53,30.46c2.01.9,3.89,1.8,5.77,3.05-1.52-.43-2.93-.97-4.42-1.51l-5.41-1.95c.55-1.89,1.85-3.57,3.29-4.8l.95-.81c3.13-2.38,5.49-5.33,7.62-8.71-1.88-1.14-3.56-2.3-5.16-3.7-.61-.53-1.29-1.05-1.68-1.76l16.05,9.26c-1.94-.22-3.53-1.07-5.24-1.71l-3.66-1.9c-1.37,3.31-3.39,6.26-6.03,8.66l-.6.52c-1.51,1.3-2.85,2.4-3.92,4.27l2.44,1.09Z"/>
  <g>
    <path d="M10.28,62.04c2.43,2.75,4.45,5.97,6.06,9.2-.26-.15-.38-.29-.53-.47l-3.39-4.28c-1.18-1.48-2.45-2.79-3.7-4.19l-1.09-1.22c-.55-.61-.99-1.29-1.39-2.01-1.04-1.85-1.19-3.8-.66-5.83l1.74-.06c1.73-.06,3.44-.13,5.18-.02l.66.04c.47.03.87.03,1.36.22l-4.86.59-3.12.36c-.28,2.35.84,4.39,2.36,6.11l1.4,1.58Z"/>
    <path d="M5.01,49.92l-.18-.22c1.74.17,3.35-.26,4.69-1.34,3.23-2.62,2.72-7.43-.39-10.22-1.49-1.33-3.23-2.06-5.23-2.64,2.63-.2,5.51,1.08,7.24,3.04,2.04,2.31,2.55,5.73,1.06,8.43-.63,1.15-1.55,2.01-2.72,2.56-1.39.7-2.93.84-4.47.4Z"/>
  </g>
</svg>