<?xml version="1.0" encoding="UTF-8"?>
<svg xmlns="http://www.w3.org/2000/svg" viewBox="0 0 100 100">
  <g transform="translate(50 50) scale(1.31298) translate(-14.1500 -40.7850)">
  <path d="M9.9,32.02l-5.41-1.96c.56-1.94,1.92-3.67,3.4-4.91l.84-.7c1.02-.85,2-1.7,2.96-2.63l1.08-1.24c1.31-1.5,2.43-3.13,3.52-4.84-2-1.21-3.84-2.47-5.52-4.03l-.63-.58c-.27-.25-.45-.45-.7-.81.59.28.98.47,1.51.78l14.5,8.45c-1.68-.18-3.05-.87-4.53-1.43-1.49-.66-2.88-1.37-4.31-2.19-1.42,3.45-3.63,6.63-6.4,9.01l-1.01.87c-1.16.99-2.34,2.18-3.08,3.58,2.81,1.27,5.49,2.41,8.15,4.12-1.52-.4-2.91-.95-4.37-1.48Z"/>
  <path d="M14.56,66.4l2.1,3.55.63,1.3c-.3-.25-.47-.44-.68-.7l-3-3.8-1.43-1.75-.71-.82-.84-.92-1.53-1.65c-2.23-2.41-3.42-5.17-2.48-8.39l1.75-.06c1.78-.06,3.54-.07,5.32-.01.63.06,1.2.05,1.86.24l-4.86.6-3.14.36c-.29,2.19.74,4.25,2.15,5.88l.77.89c1.46,1.69,2.93,3.3,4.1,5.27Z"/>
  <path d="M10.68,48.21c1.39-1.25,2.1-2.94,2-4.78-.09-1.72-.73-3.27-1.84-4.55l-.82-.83c-.54-.54-1.2-.93-1.88-1.31-1.01-.55-2.05-.84-3.21-1.28,2.35-.09,4.6.76,6.38,2.27,2.13,1.82,3.11,4.6,2.56,7.34-.38,1.88-1.49,3.42-3.14,4.34-1.54.77-3.31,1.12-4.98.35,1.87.06,3.53-.3,4.93-1.55Z"/>
  <path d="M6.42,44.35l4.08.08c-1.11,1.07-3.03,1.41-4.55,1.25-1.12-.12-2.17-.4-3.1-1.23l2.84-.07.12-3.1,3.12.2.25.15c-.55.4-1.15.68-1.86.85-.45.11-.33.92-.9,1.87Z"/>
  <path d="M21.25,43.64l2.65,2.69.47.58c-1.57.11-2.94-.73-3.64-2.2-.69,1.09-1.58,1.98-2.88,2.34,1.26-1.91,2.24-3.85,2.93-5.98l2.35.9c-.56.12-1.02.14-1.5.15l-.39,1.52Z"/>
  <path d="M17.35,45.55c-.11.14-.26.25-.38.3-.16-.91-.05-1.71.28-2.53.49-.92,1.19-1.66,2.29-2.04-.37,1.6-1.15,2.97-2.19,4.28Z"/>
  </g>
</svg>
