<?xml version="1.0" encoding="UTF-8"?>
<svg id="Layer_1" data-name="Layer 1" xmlns="http://www.w3.org/2000/svg" viewBox="0 0 27.52 72.4">
  <path d="M7.98,5.12c.42-.31.79-.49,1.35-.44.41.04.93.3,1.16.76.26.52.27,1.17.07,1.7-.23.59-.77.89-1.37.94-.76.06-1.42-.34-1.69-1.07-.3-.84-.34-1.8-.07-2.66.41-1.32,1.63-1.7,2.95-1.25v.56c-.94-.35-1.9-.29-2.23.51-.11.27-.14.53-.16.96ZM9.82,7.13c.29-.48.26-1.11-.02-1.54-.25-.39-.75-.48-1.17-.32-.65.25-.78,1.43-.29,1.99.39.45,1.15.4,1.47-.13Z"/>
  <path d="M12.04,7.57c-.77-.96-.76-3.14-.02-4.12.37-.49.97-.61,1.56-.5.47.09.97.52,1.14,1.11.44,1.5.23,3.64-1.06,3.95-.59.14-1.21.06-1.62-.45ZM14.05,4.09c-.13-.41-.5-.66-.87-.65-.35,0-.71.29-.83.69-.42,1.38-.23,3.42.83,3.44,1.13.02,1.29-2.09.87-3.47Z"/>
  <g>
    <path d="M14.66,32.18c.21.12.35.25.43.42l-9.75-3.51c.66-2.19,2.07-3.79,3.74-5.19l2.15-1.8c1.42-1.19,3.43-3.57,4.5-5.15l1.46-2.17c-1.92-1.19-3.71-2.44-5.4-3.91-.48-.52-1.14-.86-1.42-1.56l16.01,9.27c-2.01-.25-3.68-1.12-5.45-1.83l-2.05-1.04-1.39-.76c-1.39,3.37-3.65,6.66-6.39,8.99l-1.13.96c-1.18,1.01-2.2,2.1-3.01,3.49l1.32.59c2.17.98,4.26,1.99,6.38,3.19Z"/>
    <g>
      <path d="M11.49,60.38c2.81,3.07,4.78,6.19,6.69,9.86l-.25-.05-4.17-5.27-3.33-3.7-.88-.99c-1.62-1.81-2.77-4.34-2.34-6.76l.21-1.19,3.57-.09h2.78s2.58.19,2.58.19c-.31.14-.58.18-.94.22l-5.47.63-1.55.17c-.35,2.82,1.22,4.93,3.09,6.97Z"/>
      <g>
        <path d="M6.57,48.78c1.8.15,3.43-.24,4.81-1.36,3.14-2.57,2.72-7.21-.13-9.99l-1.2-1c-1.29-.9-2.68-1.37-4.25-1.91,1.95-.12,3.79.5,5.4,1.52,3.47,2.2,4.8,6.72,2.72,10.2-1.06,1.78-2.94,2.82-5,2.99-.8,0-1.59,0-2.35-.46Z"/>
        <path d="M8.34,40.4l-.32,1.26c-.03.11.03.33.12.42,1.03,1,1.96,1.95,2.96,3.04-1.62.15-2.99-.72-3.66-2.18-.71,1.08-1.52,1.97-2.85,2.3,1.18-1.87,2.2-3.77,2.89-5.94l2.36.88-.99.18-.51.05Z"/>
        <path d="M3.65,42.26c-.9-.36-1.16-1.13-.99-2.16l1.56.93.45-.55c.39-.48.96-.76,1.57-1-.43,1.73-1.27,3.16-2.37,4.48l-.11.14s-.17-.13-.17-.16l.06-1.67Z"/>
      </g>
    </g>
  </g>
  <polygon points="18.7 5.03 18.7 5.55 16.72 5.55 16.72 7.97 16.05 7.96 16.05 2.94 18.91 2.94 18.92 3.46 16.72 3.46 16.72 5.03 18.7 5.03"/>
  <path d="M21.83,7.45v.54s-1.11-.06-1.11-.06c-.44-.02-.76-.44-.76-.88v-2.2s-.45-.14-.45-.14v-.46s.44-.05.44-.05v-1.07s.62,0,.62,0v1.1s1.27,0,1.27,0v.52s-1.27.01-1.27.01v2.25c0,.16.26.44.42.44h.85Z"/>
</svg>