<?xml version="1.0" encoding="UTF-8"?>
<svg xmlns="http://www.w3.org/2000/svg" viewBox="0 0 100 100">
  <g transform="translate(50 50) scale(1.71622) translate(-24.1570 -22.6923)">
  <path d="M34.13,37.61l.36-.32.36-.32.51-.43.94-.75.4-.29c1.11-.8,2.23-1.52,3.42-2.22-.61-1.09-1.32-2.09-2.1-3.03l-.23-.28-.29-.33-.88-.94-.68-.69-.48-.46-.29-.28-1.03-.97-.94-.88-.2-.18-.26-.24-1.6-1.6-.26-.3-.57-.62-.68-.82c-.77-.93-1.36-1.93-1.97-2.97l-.95-1.62c-.39-.66-.87-1.23-1.46-1.73-1.4-1.18-3.18-1.29-4.99-1.27l-2.07.02c-1.15.01-2.25-.14-3.38-.35-2.4-.43-4.59-1.22-6.91-1.73-1.1-.24-2.18-.37-3.3-.48l-.88-.05-1.75-.05.02,2.27c0,.07-.05.21-.09.3-.49-.78-.75-1.59-.9-2.48l-.15-.14.11-.14c-.06-.84-.03-1.66.23-2.47.11-.36.33-.7.58-.98.63-.71,1.78-.94,2.53-.3l-.13.1c-1.35-.13-2.03.97-2.11,2.23l-.09,1.38,1.21-.06c1.89-.09,3.91.01,5.75.41l1.35.29,1.53.35,2.44.51c.85.18,1.68.28,2.55.33,2.67.15,5.4-.44,7.83.63.64.28,1.22.63,1.68,1.14l.71.8c.72.81,1.8,3.16,2.76,4.57.6.88,1.25,1.69,1.96,2.48l.54.59.24.26,1.32,1.38,1.63,1.68.36.39.72.78.41.47c.91,1.04,1.78,2.1,2.44,3.32l.47.86.41.84.91-.49.41-.22.93-.46c1.58-.75,3.17-1.38,4.87-1.85.02.02.08.1.06.12l-.11.07-13.65,7.88s-.08-.12-.06-.14l.51-.49Z"/>
  </g>
</svg>
