<?xml version="1.0" encoding="UTF-8"?>
<svg id="Layer_1" data-name="Layer 1" xmlns="http://www.w3.org/2000/svg" viewBox="0 0 52.75 34.95">
  <g>
    <path d="M15.3,20.53c-.16.3-.67.9-1.03,1.09l.3-.66c.85-1.87.74-3.89-.61-5.44-.25-.29-.52-.56-.81-.81l-.4-.35-.5-.44-.4-.36c-.53-.47-.96-1.01-1.32-1.64-1.45.84-2.88,1.57-4.38,2.24-1.23.53-2.43.98-3.7,1.37l-.12-.03s.05-.09.07-.1l15.01-8.67.05.14-.85.76-.37.32-.31.26c-1.57,1.3-3.22,2.41-5,3.48.6.67,1.29,1.1,1.97,1.59l1.09.79c.48.35.89.78,1.23,1.27.66.94.92,2.11.78,3.26-.06.5-.17.98-.4,1.42l-.27.51Z"/>
    <g>
      <path d="M48.91,33.07l-.06.17c-.8.19-1.56.49-2.37.49h-1.88s-.79-.13-.79-.13c-.91-.16-1.96-.72-2.69-1.32-.36-.3-.69-.65-.96-1.04-.62-.88-.87-1.8-.76-2.88.08-.87.46-1.69,1.09-2.28.34-.32,1.06-.7,1.34-.6.03.01-.04.1-.07.11-1.56.91-1.92,3.03-1.06,4.55l.35.52.41.47.43.38.32.24c1.36,1.04,3.48,1.32,5.2,1.32h1.5Z"/>
      <g>
        <path d="M36.07,33.31c-.07,0-.13-.07-.12-.12l-.33-3.08-.26-2.38-.14-1.35-1.02-.43-4.97-2.06-3.72,6.15-8.83-5.06.39-.49.23-.28,1.37-1.64.37-.44.37-.45,2.68-3.2.37-.45c.12-.15.2-.32.45-.38-1.19,1.85-2.43,3.63-3.75,5.4l-1.22,1.63.99.52,6.19,3.37.94-1.51,2.8-4.42.7.32,1.82.82,1.03.47,1.02.48,2.46,1.18.04.94.05,1.12.05,1.48.03,3.84Z"/>
        <path d="M24.01,23.42c-.2.42-.2.85-.25,1.33-.2-.18-.36-.4-.48-.65-.18-.46-.25-.97-.06-1.45l.48-1.23,1.61.6.28.12c-.4.23-.7.29-1.12.32l-.45.96Z"/>
      </g>
    </g>
  </g>
  <path d="M31.51,3.75c.27.94.1,2.23-.86,2.26-.41.01-.75-.23-.89-.66-.17-.52-.17-1.11,0-1.63.14-.43.48-.67.89-.66s.73.26.86.69ZM30.29,5.57c.09.12.39.17.52.11.48-.2.51-1.26.31-1.93-.06-.23-.28-.39-.47-.39-.55,0-.64.7-.62,1.4.01.29.07.55.25.82Z"/>
  <path d="M21.36,4.24c.33.73.04,1.67-.62,1.76-.33.04-.57-.06-.81-.31l-.02.26h-.34s0-2.94,0-2.94h.35s0,1.07,0,1.07c.21-.22.45-.35.76-.33.26.02.54.2.67.49ZM21.03,4.38c-.09-.22-.32-.34-.53-.33-.51.01-.72.76-.47,1.33.1.22.32.34.54.33.5-.02.7-.76.47-1.33Z"/>
  <path d="M23.82,5.57v.28c-.34.11-.67.18-1.02.13-.71-.1-1.02-.79-.81-1.53.13-.46.53-.71.99-.71.37,0,.71.18.84.55.07.21.09.46.1.69h-1.6c-.04.37.21.65.6.73l.91-.15ZM23.55,4.69c0-.36-.17-.57-.46-.62-.2-.04-.44.02-.6.17-.1.09-.17.31-.19.46h1.25Z"/>
  <path d="M15.27,5.65c.49.15.88.01,1.25-.28v.39c-.35.2-.71.28-1.12.23-.54-.06-.97-.42-1.1-.95-.22-.92.13-1.82,1.05-1.95.43-.06.81.01,1.19.22v.39c-.42-.32-.88-.44-1.37-.23-.16.07-.35.28-.41.45-.24.68-.09,1.55.52,1.74Z"/>
  <path d="M18.87,3.81v2.14s-.34,0-.34,0l-.03-.26c-.3.36-.84.47-1.21.11-.12-.11-.21-.42-.21-.59v-1.39s.35,0,.35,0v1.38c0,.11.09.35.17.41.14.11.42.11.58.04.14-.06.32-.28.33-.47l.02-1.37h.35Z"/>
  <polygon points="33.76 4.26 33.77 4.56 32.64 4.56 32.64 5.94 32.25 5.94 32.25 3.08 33.88 3.08 33.89 3.37 32.64 3.37 32.64 4.26 33.76 4.26"/>
  <polygon points="27.39 5.94 27.37 5.65 28 5.63 28 3.45 27.32 3.59 27.32 3.22 27.97 3.1 28.38 3.1 28.39 5.64 29.02 5.65 29.02 5.94 27.39 5.94"/>
  <path d="M35.56,5.65v.3s-.67-.04-.67-.04c-.21-.01-.4-.26-.4-.47v-1.31s-.25-.04-.25-.04v-.27s.25-.03.25-.03v-.61s.35,0,.35,0v.62s.73,0,.73,0v.3s-.73,0-.73,0v1.22c0,.08.07.28.13.28l.59.04Z"/>
  <path d="M26.56,6.44l-.3.04c-.52-.83-.76-1.97-.34-2.79l.36-.7.3.03c-.64,1.06-.68,2.28-.01,3.42Z"/>
  <path d="M36.65,5.74l-.36.74h-.31c.64-1.12.66-2.33,0-3.44l.31-.02.35.73c.3.62.32,1.37,0,2.01Z"/>
</svg>