<?xml version="1.0" encoding="UTF-8"?>
<svg id="Layer_1" data-name="Layer 1" xmlns="http://www.w3.org/2000/svg" viewBox="0 0 52.5 37.31">
  <g>
    <g>
      <path d="M8.68,30.24l.36-.3.28-.23c1.18-.95,2.65-1.68,4.11-2.09l1.13-.32,1.78-.54c.63-.19,1.18-.54,1.73-.89,1.18-.76,1.78-2.17,1.24-3.45-.7-1.67-2.54-2.35-4.26-1.95-1.11.26-2,.84-2.82,1.63-.6.58-.89,1.36-.95.94.28-.57.58-1.07.97-1.56l.83-.8c.63-.6,1.43-.93,2.29-1.1,1.27-.25,2.6-.01,3.67.72,1.83,1.26,2.33,3.87.87,5.59-.27.31-.56.61-.87.88-.66.56-1.87,1.11-2.74,1.34l-1.43.39-1.82.5c-.98.27-1.87.67-2.72,1.23-.55.37-1.11.71-1.59,1.17l-1.02.99c-.5.48-.93.98-1.35,1.54-.54.72-1.04,1.42-1.5,2.19l-.07.09s-.11-.05-.12-.07c.34-.85.71-1.6,1.16-2.38.36-.6.72-1.18,1.16-1.72l.31-.38.32-.37,1.05-1.05Z"/>
      <path d="M34.59,19.21c-2.7,1.56-6.25,1.92-9.21.97l-1.19-.38-2.02-.8-.81-.33-1.78-.67c-1.56-.58-3.44-1.01-5.09-.81-1.33.16-2.41.57-3.45,1.38l-.43.33c0-.07.01-.22.06-.27l.57-.61c.79-.84,2.13-1.41,3.29-1.61,2.55-.45,4.71.14,7.08,1.02l3.44,1.27.95.3c2.24.71,4.54.68,6.8.02,1.2-.35,2.81-1.05,3.79-1.78l1.19-.88.12-.09s.09.09.09.1l-.27.31-1.22,1.22c-.55.55-1.23.91-1.9,1.3Z"/>
    </g>
    <g>
      <path d="M35.7,14.72l-1.66.69c-1.06.44-2.17.63-3.32.7h-1.25c-2.07-.12-4.14-.79-5.88-1.91-.58-.4-1.08-.81-1.63-1.3l.16-.08c.78.5,1.52.88,2.35,1.24,3.22,1.28,6.63,1.31,9.8-.12l1.79-.9,1.25-.69,1.94-1.12,2.3-1.15c.73-.36,1.46-.65,2.26-.82l1.25-.26c1.3-.18,2.55-.2,3.91-.13l-.11-2.05c-.03-.61-.13-1.18-.27-1.78-.01-.06.03-.2.07-.22l.54.55c.74.75,1.05,2.5,1.06,3.63l.97.14v.15s-.97.03-.97.03l-.02.38-.08,1.24-.08,1.24s-.1.13-.12.12c-.23-.2-.67-1.25-.76-1.74l-.21-1.18c-2.06.15-4.3.43-6.14,1.35l-1.84.92-.52.3-2.59,1.54-1.19.69-1.05.55Z"/>
      <path d="M34.03,11.32c-1.64.88-3.38,1.38-5.25,1.38-.47-.01-.92.03-1.4-.15,1.71-.43,3.28-.93,4.82-1.68,1.24-.6,2.65-1.55,3.66-2.49s1.85-1.9,2.6-3.03l.84-1.26.1-.09s.05.11.05.13c-.21.86-.48,1.64-.84,2.44-.31.62-.67,1.18-1.09,1.73l-.47.6c-.29.37-.64.69-1,.99l-.44.38c-.49.42-1.01.76-1.57,1.06Z"/>
    </g>
  </g>
  <path d="M26.21,3.24h-.41s-.45-.89-.45-.89c-.05-.11-.27-.28-.39-.28l-.57-.02v1.19s-.39,0-.39,0V.43s.96,0,.96,0c.24,0,.49.11.69.23.2.29.26.61.1.95-.05.11-.25.25-.35.29.13.14.31.34.38.49l.42.84ZM25.43,1.22c0-.25-.17-.47-.42-.47l-.63-.02v1.04s.63-.02.63-.02c.28,0,.43-.25.42-.53Z"/>
  <path d="M35.26,3c-.19.21-.44.34-.75.31-.26-.02-.54-.21-.66-.5-.31-.73-.03-1.65.6-1.74.35-.05.6.07.83.32V.31s.36,0,.36,0v2.94s-.34,0-.34,0l-.04-.25ZM35.19,2.67c.13-.33.13-.7,0-1-.1-.22-.32-.33-.55-.31-.48.04-.67.69-.48,1.27.07.22.29.37.48.39.22.02.45-.09.56-.34Z"/>
  <path d="M28.28,2.65c-.13.46-.52.67-.94.67-.4,0-.73-.21-.86-.59-.12-.34-.12-.74,0-1.08.14-.39.47-.58.86-.59.45-.01.83.23.95.69.07.27.08.62,0,.91ZM27.91,2.6c.08-.27.08-.6,0-.85s-.31-.39-.54-.39-.45.14-.54.39c-.1.27-.1.61,0,.88.09.25.31.39.54.39s.46-.14.54-.42Z"/>
  <polygon points="20.39 3.25 20.36 2.96 20.99 2.94 20.99 .76 20.31 .89 20.31 .53 20.98 .41 21.37 .4 21.38 2.95 22.01 2.95 22.01 3.25 20.39 3.25"/>
  <path d="M30.68,1.13v2.12s-.34,0-.34,0l-.03-.26c-.29.33-.76.46-1.15.18-.15-.11-.27-.4-.27-.59v-1.45s.34,0,.34,0v1.42c0,.16.14.4.29.44s.42,0,.55-.08c.12-.08.25-.31.25-.48v-1.31s.36,0,.36,0Z"/>
  <path d="M31.97,1.47c-.14.1-.23.36-.23.52v1.26s-.35,0-.35,0V1.12s.34,0,.34,0l.03.26c.29-.33.76-.46,1.15-.18.15.1.27.4.27.59v1.45s-.35,0-.35,0v-1.37c0-.12-.1-.38-.21-.45-.18-.11-.46-.09-.65.05Z"/>
</svg>