<?xml version="1.0" encoding="UTF-8"?>
<svg xmlns="http://www.w3.org/2000/svg" viewBox="0 0 100 100">
  <g transform="translate(50 50) scale(1.71380) translate(-25.6500 -18.6900)">
  <path d="M36.21,22.66c0,4.93-4,8.93-8.93,8.93s-8.93-4-8.93-8.93,4-8.93,8.93-8.93,8.93,4,8.93,8.93ZM35.13,22.65c0-4.6-3.73-8.33-8.34-8.33s-8.34,3.73-8.34,8.33,3.73,8.33,8.34,8.33,8.34-3.73,8.34-8.33Z"/>
  <path d="M14.45,19.99l-.17.02c.22-.45.43-.79.55-1.24l.18-.7c.4-1.58-.11-3.23-1.27-4.35l-.48-.46-.6-.53-.5-.44c-.64-.56-1.24-1.18-1.64-1.92-1.42.81-2.82,1.53-4.29,2.19-1.28.55-2.5,1.02-3.83,1.43l-.09-.11,15.08-8.71.05.13-.68.61-.47.41-.38.31-.38.31c-1.45,1.19-2.98,2.19-4.62,3.17.07.11.17.23.27.31.24.21.47.42.72.6l1.65,1.17c.43.3.82.63,1.18,1.01,1.81,1.88,1.68,4.98-.29,6.77Z"/>
  <path d="M47.58,31.51c.49,0,.92-.02,1.41.09-.95.35-1.86.54-2.82.61h-1.26c-1.14,0-2.95-.71-3.8-1.51l-.49-.46c-1.52-1.43-1.77-4.23-.08-5.78.33-.3.73-.47,1.18-.61l.11.12c-.28.17-.51.29-.7.52l-.31.38c-.21.26-.33.57-.42.89-.53,1.82.32,3.38,1.84,4.43.69.48,1.45.79,2.26,1,.88.23,1.76.29,2.67.3h.42Z"/>
  <path d="M29.68,20.99c-1.23,1.05-3.1,1.2-4.54.81-.52-.14-1.23-.44-1.59-.83l1.08-.04,1.2-.04.03-.98.05-1.46,1.68.11,1.06.11c-.52.49-1.12.64-1.73.8-.11.5-.28.96-.51,1.43h1.31s.84.03.84.03l1.11.06Z"/>
  <path d="M30.49,27.9c-.67.06-1.63-.22-2.04-.63l-.44-.44-.43-.67c-.5.8-1.24,1.57-2.26,1.83l.29-.52c.69-1.08,1.29-2.2,1.72-3.41l.29-.8,1.2.44.68.24s-.16.12-.21.12l-.98.05-.3,1.21,2.28,2.31.21.28Z"/>
  <path d="M24.61,25.59c-.76-.22-.92-.89-.8-1.7l1.16.69s.16-.09.19-.13l.49-.5.61-.42c.07-.05.22-.08.39-.1l-.49,1.33c-.32.88-.89,1.62-1.56,2.34-.14-.55-.09-1.02,0-1.52Z"/>
  <path d="M25.23,20.53c-1.04-.55-1.37-1.81-.65-2.72l.52-.5.14.9c.04.77.05,1.48-.02,2.33Z"/>
  <path d="M30.45,20.37c-1.02.11-2.04.12-3.1.09.41-.82,1.18-1.23,2.06-1.01.42.2.77.4,1.04.91Z"/>
  </g>
</svg>
