<?xml version="1.0" encoding="UTF-8"?>
<svg id="Layer_1" data-name="Layer 1" xmlns="http://www.w3.org/2000/svg" viewBox="0 0 27.52 72.4">
  <path d="M7.76,30.11c1.16.53,2.25,1.06,3.33,1.64.81.43,1.56.79,2.3,1.38-1.05-.31-1.93-.63-2.91-.98l-6.86-2.48c.58-2.1,2.08-3.83,3.67-5.14l1.99-1.64c2.46-2.18,4.42-4.75,6.16-7.53-1.72-1.06-3.33-2.12-4.83-3.43l-1.12-.97c-.32-.32-.73-.62-.87-1.06l15.99,9.26c-1.74-.17-3.17-.93-4.72-1.49-1.41-.67-2.76-1.35-4.15-2.12-.97,2.34-2.18,4.56-3.87,6.43l-1.26,1.39c-.47.51-1.01.96-1.54,1.41l-.84.71c-.59.5-1.12,1.06-1.66,1.63s-.94,1.2-1.35,1.86l2.53,1.14Z"/>
  <path d="M16.43,70.85c-.78-.73-1.35-1.55-1.99-2.36l-2.33-2.93-1.16-1.37-.62-.69-1.65-1.76-.78-.87-1-1.3c-1.4-1.82-1.85-4.48-1.2-6.74l2.58-.08h4c.78,0,1.49.03,2.31.23l-3.95.52-3.96.46c-.28,1.45.25,3.16,1.07,4.44.63.98,1.36,1.82,2.14,2.69,1.17,1.3,2.22,2.59,3.2,4.04,1.24,1.84,2.35,3.66,3.33,5.74Z"/>
  <path d="M9.62,8.61c-.61-.07-1.08-.44-1.29-1.03-.35-.99-.35-2.1,0-3.09.25-.71.87-1.09,1.62-1.03,1.6.13,1.86,2.43,1.38,4-.24.78-.92,1.23-1.71,1.15ZM10.66,4.62c-.13-.41-.5-.66-.88-.65-1.06.02-1.25,2.14-.79,3.51.13.41.53.65.91.62,1.03-.08,1.19-2.13.76-3.47Z"/>
  <path d="M15.69,4.63c.5,1.68.17,3.99-1.53,4s-2.03-2.31-1.53-4c.22-.75.83-1.18,1.53-1.18s1.31.43,1.53,1.18ZM15.22,5.87c-.02-.99-.28-1.9-1.06-1.9-1.12,0-1.3,2.3-.78,3.61.14.35.57.55.89.52.79-.07.97-1.19.95-2.23Z"/>
  <path d="M5.79,8.02c.43-.09.69-.46.72-.85.04-.49-.26-.99-.78-1.03l-.98-.08v-.48s.91-.04.91-.04c.46-.02.75-.42.73-.81-.06-.91-1.19-.85-2.35-.53v-.56c1.32-.35,2.83-.28,3.01.93.09.62-.29,1.12-.86,1.25.68.21,1.04.71,1,1.36-.04.6-.38,1.04-.93,1.27-.77.24-1.54.19-2.35-.06v-.64c.6.3,1.19.41,1.88.26Z"/>
  <polygon points="19.66 5.56 19.67 6.09 17.69 6.09 17.69 8.5 17.01 8.5 17.01 3.48 19.88 3.48 19.89 4 17.69 4 17.69 5.57 19.66 5.56"/>
  <path d="M22.79,7.98l.02.55-1.11-.06c-.41-.02-.76-.43-.77-.85l-.02-2.28-.44-.05v-.48s.45-.05.45-.05v-1.07s.62,0,.62,0v1.1s1.27,0,1.27,0l-.02.53h-1.25s0,2.25,0,2.25c0,.15.28.44.43.43h.82Z"/>
  <g>
    <path d="M11.05,48.17c-1.63,1.49-4.13,2.02-6.14,1.26.14-.08.23-.11.34-.1,3.2.21,6.07-1.98,6.5-5.05.35-2.52-.66-4.91-2.54-6.58-1.48-1.31-3.21-2.07-5.08-2.56.25-.06.56-.11.78-.09,2.18.19,4.18,1.02,5.77,2.49,3.09,2.85,3.39,7.86.37,10.62Z"/>
    <path d="M7.36,44.19l2.19.05c-1.87,1.68-5.66,1.76-7.69.02l2.87-.1.09-3.07,2.82.17c.13,0,.36.07.57.14-.61.5-1.33.76-2.11.96-.17.6-.38,1.17-.65,1.8l1.89.03Z"/>
    <path d="M3.94,43.67c-.81-.37-1.22-1.16-1.3-2,.04-.83.44-1.57,1.16-2.03.22,1.37.27,2.58.14,4.02Z"/>
    <path d="M8.08,43.62l-1.46-.05.45-.61c.3-.41.87-.65,1.38-.69.82-.07,1.52.36,1.99,1.02v.23s-2.36.1-2.36.1Z"/>
  </g>
</svg>