<?xml version="1.0" encoding="UTF-8"?>
<svg id="Layer_1" data-name="Layer 1" xmlns="http://www.w3.org/2000/svg" viewBox="0 0 52.75 34.83">
  <g>
    <path d="M15.84,16c.51,1.81-.04,3.8-1.5,4.98v-.18c.43-.75.68-1.54.78-2.41.09-1.22-.26-2.43-1.03-3.37-.17-.2-.34-.42-.54-.59l-1.33-1.18-.68-.64c-.4-.38-.72-.84-1-1.32-1.78,1.01-3.59,1.96-5.52,2.7-.9.35-1.75.76-2.74.87l12.12-7.06,2.81-1.59c.08-.05.21-.05.29-.03l-.86.78-.47.41c-1.63,1.42-3.4,2.58-5.27,3.7l.41.39.51.43.91.65,1.1.78.45.37c.71.59,1.3,1.43,1.55,2.33Z"/>
    <path d="M23.63,21.02l2.01,2.03.49.56c-1.26.11-2.39-.59-2.9-1.75-.55.85-1.27,1.59-2.3,1.86l.63-1.03c.71-1.16,1.24-2.35,1.68-3.68l.58.18,1.17.42s.1.08.14.1l-.47.07-.73.02c-.06.38-.14.76-.3,1.21Z"/>
    <path d="M20.59,22.46l-.35.36c-.37-1.58.49-3.15,2.05-3.69-.33,1.27-.93,2.35-1.7,3.34Z"/>
    <g>
      <path d="M36.77,28.66l-.36.63s-.1.05-.13.06c-.03.01,0-.11.02-.15.68-1.45.79-3.02.16-4.51-.49-1.15-1.37-2.07-2.53-2.53-.6-.24-1.23-.4-1.87-.32l-.73.08c-1.29.15-2.3,1.05-3.11,2.02l-.89,1.06-.56.63-.39.36-.35.29c-1.38,1.14-3.37,1.39-5.08.83-1.48-.48-2.6-1.48-3.15-2.94-.18-.49-.32-.99-.31-1.52v-.69c.02-2.19,2.04-3.68,1.82-3.32l-.07.11c-.62.65-1,1.46-1.16,2.34-.25,1.36.11,2.91,1.05,3.88l.22.22c.25.26.54.47.86.65,1.75.98,4.05.75,5.49-.68l.38-.38.59-.67.28-.34.48-.59.51-.56.48-.46c1.42-1.21,3.33-1.6,5.13-1.07,1.35.39,2.56,1.33,3.18,2.58s.74,2.62.42,3.91l-.4,1.09Z"/>
      <path d="M48.79,32.43c.11-.04.16.11.05.15-.87.23-1.68.46-2.55.52h-1.57s-1.15-.21-1.15-.21c-1.69-.43-3.24-1.59-3.92-3.22-.42-1-.39-2.43.16-3.34l.28-.47c.42-.55.94-.92,1.64-1.07l.1.1c-1.84.99-2.08,3.64-.77,5.14l.41.47.33.29c1.16,1.04,3.14,1.57,4.71,1.61l1.16.03,1.13.02Z"/>
    </g>
  </g>
  <path d="M30.57,3.11c.27.94.1,2.23-.86,2.26-.41.01-.75-.23-.89-.66-.17-.52-.17-1.11,0-1.63.14-.43.48-.67.89-.66s.73.26.86.69ZM29.35,4.93c.09.13.39.17.52.11.48-.2.51-1.26.32-1.93-.06-.23-.28-.39-.47-.39-.55,0-.64.7-.62,1.4.01.28.07.56.25.81Z"/>
  <path d="M27.35,5.33c-.37.06-.72.01-1.09-.06v-.37c.36.13.64.2.96.14s.51-.36.49-.67-.21-.59-.55-.62c-.26-.03-.53.04-.78.11v-1.38s1.51,0,1.51,0v.3s-1.15,0-1.15,0v.69c.33-.05.65-.05.92.1.32.18.46.5.46.85,0,.44-.27.82-.75.91Z"/>
  <path d="M22.88,4.94v.28c-.34.11-.67.18-1.02.13-.71-.1-1.02-.79-.81-1.53.13-.46.53-.71.99-.71.37,0,.71.18.84.55.07.21.09.46.1.69h-1.6c-.04.37.21.65.6.73l.91-.15ZM22.61,4.05c0-.36-.17-.57-.46-.62-.2-.04-.44.02-.6.17-.1.09-.17.31-.19.46h1.25Z"/>
  <path d="M19.81,3.45c-.22-.06-.46-.02-.58.07-.1.08-.23.3-.23.46v1.33s-.36,0-.36,0v-2.12s.35,0,.35,0l.04.25c.19-.2.4-.32.68-.31.33,0,.63.19.67.53l.05.42v1.25s-.35,0-.35,0v-1.44c0-.12-.14-.38-.27-.42Z"/>
  <polygon points="32.82 3.63 32.83 3.93 31.7 3.93 31.7 5.3 31.31 5.3 31.31 2.44 32.94 2.44 32.95 2.74 31.7 2.74 31.7 3.63 32.82 3.63"/>
  <polygon points="17.17 5.01 17.18 5.31 15.4 5.31 15.4 2.47 15.78 2.45 15.78 5 17.17 5.01"/>
  <path d="M34.62,5.02v.3s-.67-.04-.67-.04c-.21-.01-.4-.26-.4-.47v-1.31s-.25-.04-.25-.04v-.27s.25-.03.25-.03v-.61s.35,0,.35,0v.62s.73,0,.73,0v.3s-.73,0-.73,0v1.22c0,.07.07.27.13.28l.59.04Z"/>
  <path d="M25.62,5.8l-.3.04c-.52-.83-.76-1.97-.34-2.79l.36-.7.3.03c-.64,1.06-.68,2.28-.01,3.42Z"/>
  <path d="M35.71,5.1l-.36.74h-.31c.64-1.12.66-2.33,0-3.44l.31-.02.35.73c.3.62.32,1.37,0,2.01Z"/>
  <rect x="17.57" y="3.18" width=".35" height="2.13"/>
  <rect x="17.57" y="2.36" width=".35" height=".44"/>
</svg>