<?xml version="1.0" encoding="UTF-8"?>
<svg xmlns="http://www.w3.org/2000/svg" viewBox="0 0 100 100">
  <g transform="translate(50 50) scale(1.71784) translate(-30.1050 -19.0300)">
  <path d="M19.2,20.07c-.13.16-.28.27-.45.35.26-.57.49-1.05.66-1.62.45-1.58.11-3.24-.97-4.48-.24-.28-.5-.54-.78-.78l-.44-.38-.37-.32-.3-.26c-.62-.54-1.13-1.12-1.55-1.84-1.77,1.01-3.52,1.94-5.39,2.65l-1.37.52-1.42.45.04-.16,12.84-7.43,2.26-1.26c-.07.26-.23.35-.39.49l-.47.41-.4.35-.34.28-1.3,1.02c-1.16.91-2.38,1.65-3.67,2.45.42.43.86.81,1.34,1.14l1.26.88c.53.37,1.01.77,1.43,1.26,1.18,1.4,1.4,3.33.67,4.99-.12.28-.26.56-.46.8l-.42.49Z"/>
  <path d="M40.42,25.66l.05,1.12.05,1.48.03,3.84c-.07,0-.13-.07-.12-.12l-.33-3.08-.24-2.13-.17-1.61-5.99-2.49-3.72,6.15-8.82-5.06.38-.5.94-1.13.37-.45,4.01-4.8.4-.48.07.11c-1.57,2.38-3.19,4.65-4.93,6.94l1.06.56,1.15.61,2.16,1.17,2.81,1.56,2.28-3.67,1.45-2.26,2.29,1.04.86.39.69.32,2.12,1.01,1.07.52.04.94Z"/>
  <path d="M53.26,31.87l.13.02s-.05.13-.07.15l-2.31.51-1.95-.02c-.53,0-1.08-.15-1.56-.36l-.75-.32-.74-.45c-.5-.3-.9-.72-1.26-1.19-.39-.5-.67-1.07-.82-1.69-.42-1.74.43-3.87,2.27-4.3l.1.11c-1.25.69-1.8,2.16-1.53,3.54.09.48.26.94.56,1.32l.38.49.41.41c.36.37.8.63,1.27.87,1.47.74,2.92.89,4.56.9h1.31Z"/>
  <path d="M30.94,22.27l-.07.15c-.77.54-1.61.87-2.54.87h-.82c-.81,0-2.07-.4-2.65-1.01l2.28-.06.07-2.4.34-.03,2.41.2c-.5.52-1.11.65-1.73.82-.1.5-.25.96-.52,1.41l1.3.02,1.92.04Z"/>
  <path d="M36.04,27.75l2.07,2.09.41.49c-1.23.13-2.36-.57-2.89-1.72-.3.44-.58.77-.91,1.11-.41.32-.85.61-1.39.72,1-1.5,1.77-3,2.32-4.71l.88.31,1,.35s-.15.12-.19.12l-.99.04-.31,1.21Z"/>
  <path d="M33.2,28.92l-.56.64c-.32-1.58.36-2.86,1.72-3.57.08-.04.2-.06.32-.07-.3,1.1-.79,2.08-1.48,3.01Z"/>
  </g>
</svg>
