<?xml version="1.0" encoding="UTF-8"?>
<svg xmlns="http://www.w3.org/2000/svg" viewBox="0 0 100 100">
  <g transform="translate(50 50) scale(1.71782) translate(-30.1347 -20.3917)">
  <path d="M18.79,21.79c1.15-1.95,1.17-4.27-.33-5.99-.28-.32-.56-.6-.88-.88l-.43-.38-.44-.38-.46-.42c-.49-.44-.88-.97-1.22-1.54-2.23,1.27-4.84,2.57-7.28,3.35l-.79.25s-.12-.08-.11-.1l1.69-1,5.89-3.43.69-.39,2.82-1.62.88-.5,3.04-1.72s.13-.02.12.01-.04.11-.07.13l-.97.87-.55.47c-1.54,1.31-3.2,2.39-4.97,3.45l.63.61.31.24.77.55.3.2c1.07.73,2.13,1.51,2.68,2.71.86,1.88.41,4.23-1.24,5.58l-.07-.09Z"/>
  <path d="M47.91,33.73c-1.05,0-2.04-.11-3.03-.31l-2.62-.51-1.44-.38-1.1-.34-1.4-.55c-.9-.35-1.69-.89-2.43-1.51l-1.01-1c-.66-.66-1.3-1.99-1.56-2.95-.24-.89-.33-1.79-.24-2.72l.22-1.23c.13-.35.16-.73.48-1.02-.7,2.94.15,5.92,2.4,7.88,1.16,1.01,2.89,1.77,4.37,2.22l1.26.38,1.9.49c3.15.73,6.33,1.1,9.57,1.14h.14s-.05.14-.05.14l-2.7.29-2.73-.02Z"/>
  <path d="M36.6,32.21l-.71-.39-1.09-.54c-2.56-1.13-5.41-1.73-8.23-1.65-.88.02-1.71.07-2.58.24l-1.21.24s-.12-.06-.1-.08l.09-.08c1.36-.72,2.83-1.12,4.37-1.26,1.64-.09,2.99,0,4.58.41,1.36.35,2.62.89,3.8,1.65.5.32.98.64,1.39,1.05l.88.87.26.3s-.06.17-.1.1l-1.35-.86Z"/>
  <path d="M30.39,25.58c.11.12-1.97.27-2.9-1.68-.29.42-.59.83-.98,1.15l-.25.2c-.33.19-.63.38-1.07.49.76-1.19,1.45-2.33,1.92-3.63l.4-1.1,1.02.38.82.28-.02.12-1.14.07-.3,1.2,2.4,2.45.08.09Z"/>
  <path d="M24.51,23.34c-.5-.16-.82-.64-.82-1.1v-.6s.46.25.46.25l.78.49c.4-.52.85-.89,1.43-1.18l.19.03c-.4,1.36-1.04,2.58-2.04,3.62-.13-.53-.08-1.01,0-1.5Z"/>
  </g>
</svg>
