<?xml version="1.0" encoding="UTF-8"?>
<svg id="Layer_1" data-name="Layer 1" xmlns="http://www.w3.org/2000/svg" viewBox="0 0 54.55 33.62">
  <path d="M18.18,5.11h-.35s0-2.93,0-2.93h.34s.03.25.03.25c.19-.22.44-.35.76-.32.69.06,1,1.04.64,1.79-.13.27-.4.44-.64.46-.32.03-.56-.09-.78-.33v1.08ZM19.33,3.64c.07-.25.07-.56,0-.79-.07-.29-.29-.45-.55-.45-.22,0-.45.15-.53.4-.08.27-.08.59,0,.86.08.25.31.4.53.4.23,0,.46-.13.54-.42Z"/>
  <path d="M36.18,2.1c.27.94.1,2.23-.86,2.26-.41.01-.75-.23-.89-.66-.17-.52-.17-1.11,0-1.63.14-.43.48-.67.89-.66s.73.26.86.69ZM34.96,3.92c.09.13.39.17.52.11.47-.2.51-1.26.31-1.93-.06-.23-.28-.39-.47-.39-.55,0-.64.7-.62,1.4.01.28.07.56.25.81Z"/>
  <path d="M17.07,4.06c-.35.4-1.22.34-1.81.12v-.38c.38.19.79.32,1.21.22.23-.05.38-.25.39-.45s-.15-.41-.36-.46l-.62-.15c-.18-.04-.43-.18-.52-.34-.17-.29-.15-.66.07-.91.35-.4,1.03-.33,1.65-.19v.37c-.59-.26-1.27-.29-1.42.15-.04.11.01.39.13.44.5.21.96.17,1.25.45.3.3.32.8.04,1.12Z"/>
  <path d="M21.76,4.29v-1.39c0-.16-.11-.4-.27-.47s-.41-.03-.55.05c-.12.07-.27.31-.27.48v1.33s-.36,0-.36,0V1.36s.35,0,.35,0v1.07c.22-.19.39-.31.65-.32.44-.03.78.29.78.73l.02,1.46h-.36Z"/>
  <path d="M24.55,3.92v.29c-.73.27-1.54.2-1.8-.47-.14-.36-.12-.77.04-1.11s.52-.53.91-.53.74.2.86.59c.06.2.08.44.08.65h-1.61c-.02.34.21.69.6.71.3.02.5-.04.91-.14ZM24.28,3.04c.02-.42-.25-.63-.58-.64-.39,0-.65.29-.66.64h1.24Z"/>
  <path d="M28.49,3.93v.28c-.34.11-.67.18-1.02.13-.71-.1-1.02-.79-.81-1.53.13-.46.53-.71.99-.71.37,0,.71.18.84.55.07.21.09.46.1.69h-1.6c-.04.37.21.65.6.73l.91-.15ZM28.22,3.04c0-.36-.17-.57-.46-.62-.2-.04-.44.02-.6.17-.1.09-.17.31-.19.46h1.25Z"/>
  <polygon points="38.43 2.62 38.45 2.92 37.31 2.92 37.31 4.29 36.93 4.29 36.93 1.43 38.56 1.43 38.57 1.73 37.31 1.73 37.31 2.62 38.43 2.62"/>
  <polygon points="32.06 4.3 32.05 4 32.68 3.99 32.68 1.8 32 1.94 32 1.58 32.64 1.46 33.06 1.45 33.06 4 33.7 4 33.7 4.3 32.06 4.3"/>
  <path d="M40.24,4.01v.3s-.67-.04-.67-.04c-.21-.01-.4-.26-.4-.47v-1.31s-.25-.04-.25-.04v-.27s.25-.03.25-.03v-.61s.35,0,.35,0v.62s.73,0,.73,0v.3s-.73,0-.73,0v1.23c0,.06.07.25.13.26l.59.04Z"/>
  <path d="M31.23,4.8l-.3.04c-.52-.83-.76-1.97-.34-2.79l.36-.7.3.03c-.64,1.06-.68,2.28-.01,3.42Z"/>
  <path d="M41.33,4.09l-.36.74h-.31c.64-1.12.66-2.33,0-3.44l.31-.02.35.73c.3.62.32,1.37,0,2.01Z"/>
  <path d="M25.56,4.29h-.35s0-2.12,0-2.12h.35s.03.25.03.25c.22-.29.49-.34.87-.32v.35c-.17-.05-.42-.06-.58.02-.13.07-.3.32-.3.5v1.33Z"/>
  <g>
    <path d="M39.01,22.56c0,4.93-4,8.93-8.93,8.93s-8.93-4-8.93-8.93,4-8.93,8.93-8.93,8.93,4,8.93,8.93ZM37.93,22.56c0-4.6-3.73-8.33-8.34-8.33s-8.34,3.73-8.34,8.33,3.73,8.33,8.34,8.33,8.34-3.73,8.34-8.33Z"/>
    <path d="M18.09,18.89c-.16.3-.67.9-1.03,1.09l.3-.66c.85-1.87.74-3.89-.61-5.44-.25-.29-.52-.56-.81-.81l-.4-.35-.5-.44-.4-.36c-.53-.47-.96-1.01-1.32-1.64-1.45.84-2.88,1.57-4.38,2.24-1.23.53-2.43.98-3.7,1.37l-.12-.03s.05-.09.07-.1l15.01-8.67.05.14-.85.76-.37.31-.31.26c-1.57,1.3-3.22,2.41-5.01,3.49.43.44.87.81,1.35,1.15l1.26.88c.53.37,1.01.77,1.43,1.26.85,1,1.21,2.3,1.05,3.61-.06.5-.17.98-.4,1.42l-.27.51Z"/>
    <path d="M51.66,31.59l-2.39.52-1.89-.02-.78-.14c-.93-.17-1.95-.72-2.69-1.32-1.81-1.48-2.36-3.93-.99-5.81.78-1.07,2.07-1.14,1.61-.87-1.19.69-1.7,2.13-1.43,3.48.09.48.26.94.56,1.32l.39.49.4.41.49.39c1.35,1.08,3.52,1.37,5.28,1.37h1.48s-.03.17-.03.17Z"/>
    <path d="M29.85,22.54c-.21.42-.3.83-.37,1.31l-.05.35c-.41-.39-.66-.94-.63-1.54.02-.36.16-.73.29-1.06l.3-.72.57.21,1.34.49c-.36.21-.73.31-1.14.35l-.31.61Z"/>
  </g>
</svg>