<?xml version="1.0" encoding="UTF-8"?>
<svg id="Layer_1" data-name="Layer 1" xmlns="http://www.w3.org/2000/svg" viewBox="0 0 27.52 72.4">
  <path d="M13.26,33.56l-4.63-1.63-5.15-1.86c.55-1.96,1.87-3.58,3.34-4.86l2.57-2.15c.78-.65,1.44-1.41,2.14-2.13l.46-.55c1.22-1.45,2.31-2.98,3.34-4.63-2.52-1.53-4.84-3.21-6.89-5.33h.3s15.8,9.14,15.8,9.14c-1.79-.2-3.27-.96-4.86-1.55-1.37-.65-2.66-1.3-4.03-2.07-1.41,3.4-3.43,6.3-6.14,8.78l-2.07,1.78c-.94.81-1.68,1.78-2.34,2.9,2.48,1.06,4.8,2.17,7.12,3.43.38.22.71.37,1.04.74Z"/>
  <path d="M18.13,41.28c0,4.15.34,8.16.81,12.25.16,1.42.38,2.74.37,4.18-1.89-5.59-2.67-11.87-2.47-17.69.13-3.59.58-7.05,1.47-10.57,0-.21.19-.27.18-.04l-.06,1.18-.3,8.27v2.42Z"/>
  <polygon points="17.71 8.92 17.66 4.68 16.42 7.94 15.75 7.97 14.49 4.67 14.45 8.93 13.81 8.92 13.81 3.88 14.81 3.88 16.08 7.31 17.36 3.89 18.37 3.88 18.37 8.94 17.71 8.92"/>
  <path d="M9.78,8.94l-.05-.51,1.11-.03v-3.83s-1.18.23-1.18.23v-.62s1.17-.23,1.17-.23c.15-.03.45-.02.68-.01v4.47s1.11,0,1.11,0v.52s-2.83,0-2.83,0Z"/>
  <g>
    <path d="M16.33,71.26c-.74-.71-1.24-1.41-1.83-2.15l-3.63-4.48-1.31-1.43-1.64-1.77c-.53-.58-.99-1.21-1.41-1.88-1.24-1.97-1.54-4.08-.93-6.32l2.06-.07c1.67-.06,3.32-.06,4.99,0,.64.06,1.21.02,1.91.26l-8,.96c-.29,2.33.84,4.39,2.35,6.1l1.29,1.46c1.27,1.44,2.4,2.93,3.45,4.55s1.91,3.06,2.7,4.78Z"/>
    <path d="M4.88,49.76l1.18-.03c1.25-.04,2.42-.54,3.4-1.32,1.54-1.23,2.38-3.08,2.23-5.06-.2-2.55-1.43-4.47-3.49-5.94-1.3-.93-2.71-1.41-4.3-1.93,2.09-.12,4.09.58,5.79,1.76,2.59,1.82,3.91,4.99,3.16,8.07-.44,1.83-1.6,3.35-3.28,4.18-1.47.73-3.04.91-4.65.4,0-.03-.08-.28-.04-.13Z"/>
    <path d="M8.12,43.42c0,1.2-.97,2.18-2.17,2.18s-2.17-.97-2.17-2.18.97-2.18,2.17-2.18,2.17.97,2.17,2.18ZM6.73,43.42c0-.77-.62-1.39-1.38-1.39s-1.38.62-1.38,1.39.62,1.39,1.38,1.39,1.38-.62,1.38-1.39Z"/>
  </g>
</svg>