<?xml version="1.0" encoding="UTF-8"?>
<svg id="Layer_1" data-name="Layer 1" xmlns="http://www.w3.org/2000/svg" viewBox="0 0 53.5 33.51">
  <path d="M27.09,3.19c.33.73.04,1.67-.62,1.76-.33.04-.57-.06-.81-.31l-.02.26h-.34s0-2.94,0-2.94h.35s0,1.07,0,1.07c.21-.22.45-.35.76-.33.26.02.54.2.67.49ZM26.76,3.33c-.09-.22-.32-.34-.53-.33-.51.01-.72.76-.47,1.33.1.22.32.34.54.33.5-.02.7-.76.47-1.33Z"/>
  <g>
    <path d="M19,19.98c.88-1.77.8-3.97-.51-5.45-.3-.35-.62-.67-.97-.97l-.4-.35-.63-.56c-.59-.52-1.09-1.08-1.5-1.8l-1.21.67-.91.48-.75.38c-1.19.6-2.38,1.12-3.64,1.55l-.84.29-.73.23s-.11-.03-.13-.04c-.03-.01.05-.08.08-.1l2.84-1.67,4.39-2.56.64-.37,3.43-1.96,3.64-2.06.11-.04s.06.07.04.09l-.08.08-.69.64-.36.32-1.01.82c-1.4,1.13-2.88,2.08-4.43,3.03.2.21.35.38.54.52l.56.44,1.62,1.14c.62.44,1.52,1.27,1.8,1.89l.32.69c.29.63.31,1.34.25,2.03-.08.96-.42,1.85-1.03,2.59l-.6.62-.09-.08.24-.49Z"/>
    <g>
      <path d="M53.46,32.06c-.47.25-.88.34-1.35.42l-1.33.21h-1.51c-.61,0-1.22-.19-1.78-.4-.93-.34-1.74-.88-2.42-1.59l-.31-.38c-1.17-1.41-1.23-3.69.02-5.13.4-.42.85-.7,1.44-.83l.11.1c-1.52.81-1.96,2.78-1.27,4.32.15.33.34.66.59.91l.72.72c1.28,1.06,2.99,1.48,4.64,1.57h1.16s1.31.08,1.31.08Z"/>
      <g>
        <path d="M40.42,25.77l.05,1.16.05,1.48.03,3.85c-.08-.06-.11-.14-.13-.25l-.28-2.67-.18-1.58-.26-2.45-5.99-2.49-3.72,6.15-5.57-3.19-1.99-1.15-1.26-.72.18-.25.8-.96,2.42-2.9.34-.41.34-.41.8-.96,1.22-1.47.08.05s-.02.09-.04.12l-.53.79-.2.3-4.16,5.79,1.85.98.9.48.77.42.9.49,2.76,1.53,2.3-3.69,1.44-2.24.8.36.69.31,2.4,1.1.64.3.77.37,1.05.51.67.33.05.92Z"/>
        <path d="M29.04,21.69c-.08.21-.18.44-.34.6-.36.35-.98.3-1.52.07l.4-.45.52-.62.22-.45,1.44.53.47.19c-.43.11-.73.12-1.18.12Z"/>
      </g>
    </g>
  </g>
  <path d="M34.02,4.92c-.37.06-.72.01-1.09-.06v-.37c.36.13.64.2.96.14s.51-.36.49-.67-.21-.59-.55-.62c-.26-.03-.53.04-.78.11v-1.38s1.51,0,1.51,0v.3s-1.15,0-1.15,0v.69c.33-.05.65-.05.92.1.32.18.46.5.46.85,0,.44-.27.82-.75.91Z"/>
  <path d="M29.55,4.52v.28c-.34.11-.67.18-1.02.13-.71-.1-1.02-.79-.81-1.53.13-.46.53-.71.99-.71.37,0,.71.18.84.55.07.21.09.46.1.69h-1.6c-.04.37.21.65.6.73l.91-.15ZM29.28,3.63c0-.36-.17-.57-.46-.62-.2-.04-.44.02-.6.17-.1.09-.17.31-.19.46h1.25Z"/>
  <path d="M21,4.6c.49.15.88.01,1.25-.28v.39c-.35.2-.71.28-1.12.23-.54-.06-.97-.42-1.1-.95-.22-.92.13-1.82,1.05-1.95.43-.06.81.01,1.19.22v.39c-.42-.32-.88-.44-1.37-.23-.16.07-.35.28-.41.45-.24.68-.09,1.55.52,1.74Z"/>
  <polygon points="36.99 3.21 37.01 3.51 35.88 3.51 35.88 4.89 35.49 4.89 35.5 2.03 37.12 2.02 37.14 2.32 35.88 2.32 35.88 3.21 36.99 3.21"/>
  <path d="M24.6,2.76v2.14s-.34,0-.34,0l-.03-.26c-.3.36-.84.47-1.21.11-.12-.11-.21-.42-.21-.59v-1.39s.35,0,.35,0v1.39c0,.1.09.34.17.41.14.11.42.11.58.04.14-.06.32-.28.33-.47l.02-1.37h.35Z"/>
  <path d="M38.8,4.59v.31s-.63-.03-.63-.03c-.23-.01-.43-.25-.43-.48v-1.31s-.26-.03-.26-.03v-.27s.25-.03.25-.03v-.61s.35,0,.35,0v.63s.73,0,.73,0v.3s-.72,0-.72,0v1.28c0,.08.12.24.2.24h.52Z"/>
  <path d="M39.54,1.95c.74,1.24.73,2.26-.01,3.47h-.31c.66-1.11.67-2.34,0-3.45l.31-.02Z"/>
  <path d="M32.29,5.39l-.3.04c-.52-.83-.76-1.97-.34-2.79l.36-.7.3.03c-.64,1.06-.68,2.28-.01,3.42Z"/>
</svg>