<?xml version="1.0" encoding="UTF-8"?>
<svg id="Layer_1" data-name="Layer 1" xmlns="http://www.w3.org/2000/svg" viewBox="0 0 39.4 72.4">
  <polygon points="7.37 6.09 4.99 6.09 4.99 7.98 7.54 7.99 7.55 8.51 4.32 8.51 4.32 3.59 7.48 3.59 7.48 4.11 4.99 4.11 4.99 5.56 7.37 5.57 7.37 6.09"/>
  <path d="M21.49,8.62c-.74-.04-1.16-.54-1.17-1.22,0-.61.44-1.18,1.09-1.22l1.47-.1c.03-.35-.23-.75-.61-.83-.56-.12-1.05-.01-1.66.21v-.54c.89-.35,2.11-.37,2.53.21.23.33.36.78.36,1.16v2.22s-.6,0-.6,0l-.07-.46c-.33.37-.77.59-1.34.56ZM22.54,7.78c.27-.37.33-.68.36-1.15l-1.43.07c-.2.01-.51.37-.52.57-.02.49.23.79.72.83.25.02.72-.12.87-.32Z"/>
  <path d="M15.66,7.4c-.2.8-.84,1.21-1.59,1.22-.69.01-1.31-.31-1.57-.97s-.25-1.4,0-2.03.88-.97,1.57-.96c.75.01,1.37.43,1.58,1.18.13.45.14,1.06,0,1.56ZM14.99,7.38c.16-.5.15-1.07-.01-1.52s-.56-.68-.96-.67-.79.26-.93.7c-.15.47-.15,1.04,0,1.51.14.43.54.7.93.7s.82-.23.97-.71Z"/>
  <path d="M32.39,7.54c-.25.72-.84,1.06-1.52,1.08-.8.02-1.46-.41-1.67-1.21-.12-.48-.12-1.07,0-1.55.21-.79.88-1.22,1.67-1.2.72.02,1.31.4,1.54,1.12.17.53.18,1.2-.02,1.76ZM31.76,7.37c.15-.48.14-1.06-.01-1.5s-.54-.68-.95-.68-.79.25-.94.69c-.16.47-.16,1.06,0,1.53.15.44.54.69.94.69s.8-.24.96-.72Z"/>
  <path d="M35.79,5.4c-.32-.27-.79-.25-1.12-.07-.28.15-.52.58-.52.97v2.21s-.62,0-.62,0v-3.72s.6,0,.6,0l.08.46c.49-.61,1.42-.81,2.06-.23.28.25.41.81.41,1.19v2.32s-.62,0-.62,0v-2.42c0-.17-.12-.57-.26-.69Z"/>
  <polygon points="11.08 4.78 11.72 4.79 10.33 8.5 9.48 8.5 8.09 4.79 8.74 4.8 9.9 7.87 11.08 4.78"/>
  <path d="M26.63,7.98v.54s-1.11-.06-1.11-.06c-.44-.02-.76-.44-.76-.88v-2.2s-.45-.14-.45-.14v-.46s.44-.05.44-.05v-1.07s.62,0,.62,0v1.1s1.27,0,1.27,0v.52s-1.27.01-1.27.01v2.25c0,.16.26.44.42.44h.85Z"/>
  <path d="M18.06,8.05c.57.08.9-.03,1.41-.2v.56c-.56.18-1.15.28-1.7.13-1.12-.32-1.5-1.6-1.13-2.73s1.63-1.37,2.83-.95v.58c-.58-.23-1.05-.35-1.61-.15-.6.21-.83,1.11-.6,2,.08.31.45.7.8.76Z"/>
  <rect x="27.44" y="4.77" width=".62" height="3.74"/>
  <rect x="27.44" y="3.34" width=".62" height=".77"/>
  <g>
    <path d="M28.87,70.8l-15.04-8.63-4.58-2.7c.51,0,.89.16,1.35.32,3.19,1.12,6.2,2.56,9.21,4.3.5-.95.89-1.89,1.61-2.63l2.33-2.39,1.11-1.2c.51-.56.93-1.21,1.29-1.89,1.13-2.12.69-4.36-.87-6.16-.44-.5-.9-1.01-1.42-1.43l-2.3-1.88c-.67-.55-1.27-1.14-1.83-1.79-1.73-2.03-2.21-4.94-.27-6.63.51-.44,1.12-.8,1.83-.7-.86.35-1.49.76-1.89,1.52-.79,1.52-.42,3.2.66,4.5.49.59,1.03,1.18,1.63,1.65l2.67,2.06,1.22,1.08c.76.67,1.33,1.47,1.8,2.38.74,1.44.89,3.06.39,4.62-.34,1.06-.83,2.09-1.62,2.88l-1.7,1.69-1.96,1.68c-.96.82-1.75,1.77-2.36,2.84,2.52,1.49,4.84,3.08,7.08,4.9.55.54,1.16.84,1.66,1.62Z"/>
    <path d="M25.6,36.58c3.87-1.44,6.1-5.93,4.47-9.82-.48-1.15-1.08-2.21-1.85-3.2l-2.74-3.51-.73-1.03c-1.03-1.45-1.86-2.96-2.72-4.53l-1.97-3.62c-.18-.33-.38-.6-.45-1.01,1,1.14,1.84,2.27,2.68,3.51l1.42,2.1c1.34,1.97,2.71,3.8,4.26,5.62.87,1.02,1.63,2.03,2.32,3.17,2.03,3.34,2.06,6.98-.45,10.02-.93,1.13-2.15,1.86-3.55,2.29-.14.04-.4.04-.68,0Z"/>
    <path d="M21.95,34.5c-2.75.45-3.68,1.07-5.58,3.27.44-1.65,1.58-2.91,3.02-3.72,1.6-.9,3.62-.84,5.37-1.45s2.92-2.25,2.99-4.08c.05-1.38-.61-2.51-1.52-3.53,2.75,1.15,3.18,4.89,1.36,7.16-.86,1.07-2.15,1.78-3.48,2l-2.15.35Z"/>
  </g>
</svg>