<?xml version="1.0" encoding="UTF-8"?>
<svg id="Layer_1" data-name="Layer 1" xmlns="http://www.w3.org/2000/svg" viewBox="0 0 54.55 34.83">
  <g>
    <path d="M18.64,16c.51,1.8-.04,3.76-1.45,4.95-.02.02-.09-.09-.08-.1.44-.76.7-1.54.81-2.4.1-1.19-.21-2.38-.95-3.33-.19-.24-.39-.5-.62-.7l-1.33-1.18-.71-.68c-.39-.37-.7-.82-.97-1.29-1.46.84-2.94,1.61-4.5,2.29-1.09.48-2.15.86-3.28,1.24-.15.05-.32.09-.45.01l11.14-6.48.77-.44.88-.5,2.15-1.21c.07-.04.22-.03.26,0l-.85.78-.47.41-.38.31c-1.54,1.27-3.16,2.35-4.89,3.39l.41.39.51.43.91.66,1.1.78.45.37c.72.59,1.3,1.43,1.55,2.33Z"/>
    <path d="M27.55,21.78l1.44.06c-.55.49-1.16.73-1.85.88-1.42.31-3.15.1-4.29-.88l2.3-.07.07-1.99.02-.46.96.06.81.05.96.11c-.52.46-1.11.64-1.73.79-.12.5-.29.96-.51,1.45h1.81Z"/>
    <g>
      <path d="M40.13,26.01c.04,1.21-.27,2.33-.93,3.3l-.11.04s0-.11.02-.14c.68-1.47.79-3.05.14-4.55-.89-2.05-2.94-3.13-5.16-2.72-1.34.25-2.17.95-3.03,1.98l-.97,1.16-.23.27-.69.68-.31.26c-1.93,1.59-5.02,1.46-6.93-.2-.59-.51-1-1.14-1.28-1.86-.2-.5-.34-1.02-.33-1.56v-.69c.02-1.23.77-2.62,1.74-3.38.04.04.08.09.08.09,0,0-.05.05-.07.08l-.29.34c-.43.5-.67,1.11-.82,1.75-.19.81-.19,1.6.04,2.4.18.64.47,1.22.93,1.69l.31.32c.4.41.89.68,1.44.88,1.24.46,2.62.39,3.81-.22l.68-.45.27-.23.47-.47.62-.7.82-1,.7-.75.27-.23c1.92-1.67,5.08-1.67,7.08.09.68.6,1.17,1.32,1.46,2.18l.24,1.02.05.61Z"/>
      <path d="M51.71,32.43l-.08.16c-.84.21-1.62.44-2.48.5h-1.63s-.58-.08-.58-.08c-1.87-.29-3.74-1.56-4.49-3.35s.05-4.47,2.09-4.88c.02.02.1.09.09.09,0,0-.07.04-.1.06-1.83,1.06-2,3.81-.46,5.36l.38.38.42.34c.57.46,1.23.73,1.92.96,1.05.35,2.13.44,3.23.45l1.69.02Z"/>
    </g>
  </g>
  <path d="M34.59,3.08c.29.92.11,2.26-.83,2.29-.41.01-.77-.22-.9-.64-.3-.93-.13-2.28.84-2.31.41,0,.75.23.89.66ZM34.22,3.13c-.07-.25-.29-.41-.53-.4-.61.03-.68,1.19-.47,1.95.07.25.29.41.53.4.6-.03.67-1.18.46-1.95Z"/>
  <path d="M32.11,3.11c.27.94.1,2.23-.86,2.26-.41.01-.75-.23-.89-.66-.17-.52-.17-1.11,0-1.63.14-.43.48-.67.89-.66s.73.26.86.69ZM30.89,4.93c.09.12.39.17.52.11.48-.2.51-1.26.31-1.93-.06-.23-.28-.39-.47-.39-.55,0-.64.7-.62,1.4.01.29.07.55.25.82Z"/>
  <path d="M24.42,4.94v.28c-.34.11-.67.18-1.02.13-.71-.1-1.02-.79-.81-1.53.13-.46.53-.71.99-.71.37,0,.71.18.84.55.07.21.09.46.1.69h-1.6c-.04.37.21.65.6.73l.91-.15ZM24.15,4.05c0-.36-.17-.57-.46-.62-.2-.04-.44.02-.6.17-.1.09-.17.31-.19.46h1.25Z"/>
  <path d="M21.36,3.45c-.23-.06-.45-.02-.58.07-.1.08-.23.3-.23.45v1.33s-.36,0-.36,0v-2.12s.35,0,.35,0l.04.25c.19-.2.4-.32.68-.31.33,0,.63.19.67.53l.05.42v1.25s-.35,0-.35,0v-1.44c0-.12-.15-.38-.27-.42Z"/>
  <polygon points="36.86 3.63 36.87 3.93 35.73 3.93 35.73 5.3 35.35 5.3 35.35 2.44 36.98 2.44 36.99 2.74 35.73 2.74 35.73 3.63 36.86 3.63"/>
  <polygon points="27.99 5.31 27.98 5.01 28.6 5 28.6 2.81 27.93 2.95 27.93 2.59 28.57 2.47 28.99 2.46 28.99 5.01 29.62 5.01 29.63 5.31 27.99 5.31"/>
  <polygon points="18.71 5.01 18.72 5.31 16.94 5.31 16.94 2.47 17.32 2.45 17.32 5 18.71 5.01"/>
  <path d="M38.66,5.01v.31s-.6-.02-.6-.02c-.24,0-.46-.22-.47-.48v-1.27s-.26-.1-.26-.1v-.25s.25-.03.25-.03v-.61s.36,0,.36,0v.62s.73,0,.73,0v.3s-.72,0-.72,0v1.27c0,.09.13.26.22.26h.5Z"/>
  <path d="M27.16,5.8l-.3.04c-.52-.83-.76-1.97-.34-2.79l.36-.7.3.03c-.64,1.06-.68,2.28-.01,3.42Z"/>
  <path d="M39.8,4.96l-.41.88h-.31c.67-1.2.64-2.33,0-3.46l.33.02.35.72c.27.57.27,1.22.05,1.85Z"/>
  <rect x="19.11" y="3.18" width=".35" height="2.13"/>
  <rect x="19.11" y="2.36" width=".35" height=".44"/>
</svg>