<?xml version="1.0" encoding="UTF-8"?>
<svg id="Layer_1" data-name="Layer 1" xmlns="http://www.w3.org/2000/svg" viewBox="0 0 54.55 33.62">
  <path d="M18.18,5.24h-.35s0-2.93,0-2.93h.34s.03.25.03.25c.19-.22.44-.35.76-.32.69.06,1,1.04.64,1.79-.13.27-.4.44-.64.46-.32.03-.56-.09-.78-.33v1.08ZM19.33,3.77c.07-.25.07-.56,0-.79-.07-.29-.29-.45-.55-.45-.22,0-.45.15-.53.4-.08.27-.08.59,0,.86.08.25.31.4.53.4.23,0,.46-.13.54-.42Z"/>
  <path d="M36.19,2.23c.28.94.1,2.25-.86,2.26-.4,0-.75-.23-.89-.66-.16-.52-.16-1.11,0-1.63.13-.43.49-.66.88-.66s.74.25.86.69ZM35.8,2.23c-.07-.23-.28-.39-.48-.39-.21,0-.43.14-.5.37-.24.79-.15,1.99.5,1.98.61,0,.72-1.18.48-1.96Z"/>
  <path d="M17.07,4.19c-.35.4-1.22.34-1.81.12v-.38c.38.19.79.32,1.21.22.23-.05.38-.25.39-.45s-.15-.41-.36-.46l-.62-.15c-.18-.04-.43-.18-.52-.34-.17-.29-.15-.66.07-.91.35-.4,1.03-.33,1.65-.19v.37c-.59-.26-1.27-.29-1.42.15-.04.11.01.39.13.44.5.21.96.17,1.25.45.3.3.32.8.04,1.12Z"/>
  <path d="M21.76,4.43v-1.39c0-.16-.11-.4-.27-.47s-.41-.03-.55.05c-.12.07-.27.31-.27.48v1.33s-.36,0-.36,0V1.49s.35,0,.35,0v1.07c.22-.19.39-.31.65-.32.44-.03.78.29.78.73l.02,1.46h-.36Z"/>
  <path d="M24.55,4.05v.29c-.73.27-1.54.2-1.8-.47-.14-.36-.12-.77.04-1.11s.52-.53.91-.53.74.2.86.59c.06.2.08.44.08.65h-1.61c-.02.34.21.69.6.71.3.02.5-.04.91-.14ZM24.28,3.17c.02-.42-.25-.63-.58-.64-.39,0-.65.29-.66.64h1.24Z"/>
  <path d="M28.49,4.06v.28c-.34.11-.67.18-1.02.13-.71-.1-1.02-.79-.81-1.53.13-.46.53-.71.99-.71.37,0,.71.18.84.55.07.21.09.46.1.69h-1.6c-.04.37.21.65.6.73l.91-.15ZM28.22,3.17c0-.36-.17-.57-.46-.62-.2-.04-.44.02-.6.17-.1.09-.17.31-.19.46h1.25Z"/>
  <path d="M31.86,4c.65.32,1.45.25,1.5-.32.02-.25-.1-.56-.38-.58l-.63-.06v-.28s.49-.01.49-.01c.25,0,.43-.19.44-.41.01-.21-.14-.43-.4-.46-.31-.04-.59.02-.94.11v-.32c.58-.13,1.25-.19,1.57.21.14.17.17.42.12.64-.04.16-.24.32-.44.41.34.11.55.36.54.7,0,.39-.22.7-.61.81-.42.12-.87.07-1.28-.06v-.36Z"/>
  <polygon points="38.45 2.75 38.46 3.05 37.32 3.05 37.32 4.42 36.94 4.42 36.94 1.56 38.56 1.56 38.57 1.86 37.32 1.86 37.32 2.75 38.45 2.75"/>
  <path d="M40.25,4.14v.3s-.68-.04-.68-.04c-.2-.01-.39-.26-.39-.47v-1.31s-.26-.03-.26-.03v-.27s.25-.03.25-.03v-.61s.35,0,.35,0v.63s.73,0,.73,0v.3s-.73.01-.73.01v1.24c0,.06.07.22.09.26l.63.03Z"/>
  <path d="M31.23,4.93l-.3.04c-.52-.83-.76-1.97-.34-2.79l.36-.7.3.03c-.64,1.06-.68,2.28-.01,3.42Z"/>
  <path d="M41.38,4.1l-.41.86h-.31c.64-1.12.67-2.33,0-3.44l.32-.03.39.81c.26.55.23,1.19.01,1.79Z"/>
  <path d="M25.56,4.42h-.35s0-2.12,0-2.12h.35s.03.25.03.25c.22-.29.49-.34.87-.32v.35c-.17-.05-.42-.06-.58.02-.13.07-.3.32-.3.5v1.33Z"/>
  <g>
    <path d="M39.01,22.69c0,4.93-4,8.93-8.93,8.93s-8.93-4-8.93-8.93,4-8.93,8.93-8.93,8.93,4,8.93,8.93ZM37.93,22.69c0-4.6-3.73-8.33-8.34-8.33s-8.34,3.73-8.34,8.33,3.73,8.33,8.34,8.33,8.34-3.73,8.34-8.33Z"/>
    <path d="M17.51,19.76c-.13.15-.28.27-.45.35.26-.58.49-1.05.66-1.62.44-1.58.11-3.24-.97-4.48-.25-.29-.52-.56-.81-.81l-.4-.35-.5-.44-.43-.39c-.51-.46-.93-1-1.29-1.61-1.77,1.01-3.52,1.96-5.4,2.66l-1.7.63-.97.3s-.13-.02-.15-.02.06-.09.08-.1l15.07-8.7c0,.25-.21.36-.36.49l-.5.45-.37.32-.34.28-1.34,1.04c-1.15.9-2.35,1.64-3.64,2.42.42.43.86.81,1.34,1.14l1.26.88c.53.37,1.01.77,1.43,1.26,1.22,1.43,1.41,3.44.61,5.12-.12.26-.26.52-.45.74l-.37.42Z"/>
    <path d="M51.62,31.74c-.8.18-1.51.47-2.29.47h-1.94s-.48-.06-.48-.06c-1.52-.24-3.07-1.16-3.96-2.43-.71-1.01-.95-2.15-.68-3.36.08-.38.21-.76.43-1.07l.37-.52.3-.28c.29-.27,1.18-.72,1.26-.47-.69.4-1.19,1-1.43,1.76-.4,1.29-.1,2.65.84,3.6l.4.41.45.37.77.48c.76.47,1.64.66,2.53.79l1.88.13h1.64s-.1.19-.1.19Z"/>
    <path d="M31.15,23.32l.41.43,1.11,1.17c-1.24.15-2.41-.58-2.92-1.72-.58.83-1.27,1.59-2.31,1.85l1.29-2.19c.38-.79.7-1.56.98-2.39l.11-.14,1.87.69c-.44.13-.85.14-1.24.12l-.31,1.24.6.57.4.38Z"/>
  </g>
</svg>