<?xml version="1.0" encoding="UTF-8"?>
<svg xmlns="http://www.w3.org/2000/svg" viewBox="0 0 100 100">
  <g transform="translate(50 50) scale(1.31255) translate(-20.5106 -40.3350)">
  <path d="M28.87,70.8l-15.04-8.63-4.58-2.7c.51,0,.89.16,1.35.32,3.19,1.12,6.2,2.56,9.21,4.3.5-.95.89-1.89,1.61-2.63l2.33-2.39,1.11-1.2c.51-.56.93-1.21,1.29-1.89,1.13-2.12.69-4.36-.87-6.16-.44-.5-.9-1.01-1.42-1.43l-2.3-1.88c-.67-.55-1.27-1.14-1.83-1.79-1.73-2.03-2.21-4.94-.27-6.63.51-.44,1.12-.8,1.83-.7-.86.35-1.49.76-1.89,1.52-.79,1.52-.42,3.2.66,4.5.49.59,1.03,1.18,1.63,1.65l2.67,2.06,1.22,1.08c.76.67,1.33,1.47,1.8,2.38.74,1.44.89,3.06.39,4.62-.34,1.06-.83,2.09-1.62,2.88l-1.7,1.69-1.96,1.68c-.96.82-1.75,1.77-2.36,2.84,2.52,1.49,4.84,3.08,7.08,4.9.55.54,1.16.84,1.66,1.62Z"/>
  <path d="M25.6,36.58c3.87-1.44,6.1-5.93,4.47-9.82-.48-1.15-1.08-2.21-1.85-3.2l-2.74-3.51-.73-1.03c-1.03-1.45-1.86-2.96-2.72-4.53l-1.97-3.62c-.18-.33-.38-.6-.45-1.01,1,1.14,1.84,2.27,2.68,3.51l1.42,2.1c1.34,1.97,2.71,3.8,4.26,5.62.87,1.02,1.63,2.03,2.32,3.17,2.03,3.34,2.06,6.98-.45,10.02-.93,1.13-2.15,1.86-3.55,2.29-.14.04-.4.04-.68,0Z"/>
  <path d="M21.95,34.5c-2.75.45-3.68,1.07-5.58,3.27.44-1.65,1.58-2.91,3.02-3.72,1.6-.9,3.62-.84,5.37-1.45s2.92-2.25,2.99-4.08c.05-1.38-.61-2.51-1.52-3.53,2.75,1.15,3.18,4.89,1.36,7.16-.86,1.07-2.15,1.78-3.48,2l-2.15.35Z"/>
  </g>
</svg>
