<?xml version="1.0" encoding="UTF-8"?>
<svg id="Layer_1" data-name="Layer 1" xmlns="http://www.w3.org/2000/svg" viewBox="0 0 53.5 34.83">
  <g>
    <path d="M53.45,32.47c-.55.24-1.02.37-1.57.45l-1.31.18h-1.2c-.52,0-1.03-.14-1.52-.29-.8-.23-1.53-.62-2.18-1.14l-.62-.57c-.98-.92-1.45-2.59-1.1-3.98.28-1.12,1.06-2.1,2.23-2.37l.11.09-.45.31c-.12.08-.31.26-.4.39l-.35.53c-.48.96-.53,2.08-.09,3.08.36.8.97,1.43,1.69,1.93s1.48.8,2.31,1.01c.88.23,1.77.28,2.68.29h.45c.44,0,.8-.01,1.3.09Z"/>
    <g>
      <path d="M39.5,25.95c.58-.3,1.08-.55,1.56-.9l.77-.8c.95-1.21,1.24-2.76.8-4.24-.61-2.07-2.59-3.23-4.71-3.3l-1.34.06c1.74-1.03,4.24-.6,5.67.68,2.25,2.01,2.2,5.81-.3,7.66-.72.49-1.51.89-2.45.83Z"/>
      <g>
        <path d="M34.11,24.67l-.51-.33c-.14-.09-.29-.24-.38-.37l-.46-.7-.54.7c-.43.55-1.05.95-1.74,1.11.57-.91,1.06-1.72,1.49-2.62l.77-1.95c.03-.08.16-.13.21-.11l1.19.45.55.21c-.42.14-.82.13-1.23.13-.07.44-.16.82-.3,1.21l.94.93.93.95.64.7c-.57.07-1.06-.04-1.57-.3Z"/>
        <path d="M29.75,24.18c-.09-.57-.07-.97.03-1.5-.71-.19-.95-.94-.79-1.7l1.2.73c.43-.5.89-1,1.62-1.21l-.2.72c-.2.71-.56,1.35-1,1.95l-.54.72c-.07.1-.19.19-.32.28Z"/>
      </g>
    </g>
    <g>
      <path d="M18.92,20.87c-.08.03-.18.02-.16-.01,1.2-2.08,1.12-4.63-.55-6.25l-.48-.46-.57-.5-.44-.38c-.67-.58-1.31-1.24-1.74-2.02-1.76,1.01-3.52,1.9-5.38,2.65-.89.36-1.74.65-2.64.94l-.11.03s-.06-.07-.08-.11l11.44-6.64,2.73-1.55.89-.51s.12.07.1.09l-.09.08-.56.51-.5.44-.41.35c-1.28,1.07-2.63,2.01-4.05,2.89l-.99.62c.38.34.64.61.99.86l1.72,1.22.76.61.5.5c.89.89,1.28,2.42,1.11,3.73-.15,1.13-.65,2.13-1.52,2.91Z"/>
      <path d="M23.19,26.28c.98,1.19,2.62,1.9,4.21,1.89.03.02.07.07.11.12-2.09.6-4.53-.3-5.66-2.11-1.27-2.05-.92-4.81.89-6.41.95-.83,2.31-1.31,3.57-1.12-.03.04-.13.12-.18.13-1.12.21-2.12.78-2.86,1.64-1.42,1.65-1.51,4.13-.09,5.86Z"/>
    </g>
  </g>
  <path d="M35.1,3.62c.24-.18.45-.28.77-.25.23.02.53.17.67.43.15.3.16.67.04.97-.13.34-.44.51-.79.53-.43.04-.81-.19-.96-.61-.17-.48-.19-1.03-.04-1.52.23-.75.93-.97,1.69-.71v.32c-.54-.2-1.09-.17-1.28.29-.06.15-.08.3-.09.55ZM36.15,4.76c.17-.27.15-.63,0-.88-.14-.22-.43-.27-.67-.18-.37.14-.45.81-.17,1.13.22.25.66.23.84-.08Z"/>
  <path d="M37.48,5.02c-.44-.55-.44-1.79-.01-2.35.21-.28.55-.34.89-.28.27.05.56.3.65.63.25.85.13,2.08-.61,2.25-.34.08-.69.04-.93-.26ZM38.63,3.03c-.07-.23-.29-.38-.5-.37-.2,0-.41.16-.48.39-.24.78-.13,1.95.48,1.96.65,0,.74-1.19.5-1.98Z"/>
  <path d="M26.86,5c-.18.23-.43.34-.75.3-.24-.02-.5-.21-.63-.48-.34-.74-.03-1.7.63-1.77.33-.03.55.07.78.32v-1.08s.36,0,.36,0v2.93s-.34,0-.34,0l-.06-.25ZM26.83,3.74c-.08-.22-.29-.37-.48-.39-.22-.02-.45.09-.54.31-.14.32-.14.71,0,1.03.1.22.32.33.54.32.48-.04.67-.7.48-1.27Z"/>
  <path d="M28.65,4.96c.36.1.71.01,1.06-.12l.03.31c-.36.13-.74.2-1.11.12-.69-.15-.94-.9-.71-1.57.14-.41.49-.64.92-.65s.81.22.92.65l.06.58h-1.6c-.01.31.12.58.44.67ZM29.46,3.99c0-.38-.21-.58-.49-.63-.41-.05-.74.22-.75.64h1.24Z"/>
  <path d="M16.67,4.95c.49.15.88.01,1.25-.28v.39c-.35.2-.71.28-1.12.23-.54-.06-.97-.42-1.1-.95-.22-.92.13-1.82,1.05-1.95.43-.06.81.01,1.19.22v.39c-.42-.32-.88-.44-1.37-.23-.16.07-.35.28-.41.45-.24.68-.09,1.55.52,1.74Z"/>
  <path d="M19.34,5.63c-.05.13-.21.37-.33.38l-.54.06v-.31c.14,0,.35-.01.41-.07.11-.1.21-.36.24-.51l-.85-2.06h.37s.67,1.64.67,1.64l.66-1.63h.38s-1.01,2.49-1.01,2.49Z"/>
  <path d="M24.2,3.4c-.19-.08-.43-.05-.57.04-.12.07-.27.3-.27.48v1.33s-.36,0-.36,0v-2.12s.35,0,.35,0l.04.25c.17-.17.37-.29.62-.31.44-.03.78.29.78.73l.02,1.46h-.36s0-1.39,0-1.39c0-.14-.1-.39-.24-.45Z"/>
  <polygon points="41.29 3.57 41.29 3.87 40.16 3.87 40.16 5.24 39.77 5.24 39.78 2.38 41.41 2.38 41.41 2.68 40.16 2.68 40.16 3.57 41.29 3.57"/>
  <path d="M43.08,4.95v.31s-.64-.03-.64-.03c-.25-.01-.43-.25-.43-.5v-1.25s-.26-.08-.26-.08v-.26s.25-.03.25-.03v-.61s.35,0,.35,0v.63s.73,0,.73,0v.3s-.73,0-.73,0v1.28c0,.09.15.25.24.25h.48Z"/>
  <path d="M34.07,5.73l-.28.07-.37-.75c-.4-.81-.16-1.95.36-2.74h.32c-.65,1.06-.69,2.28-.03,3.42Z"/>
  <path d="M44.36,3.8c.09.97-.49,1.98-.61,1.97l-.24-.03c.66-1.17.64-2.29,0-3.44h.31c.27.46.5.95.55,1.49Z"/>
  <rect x="20.84" y="2.3" width=".35" height="2.94"/>
  <path d="M30.72,5.23h-.35s0-2.12,0-2.12h.34s.02.25.02.25c.23-.26.53-.37.89-.3v.3c-.24-.03-.49-.02-.64.07-.12.08-.25.32-.25.49v1.29Z"/>
  <rect x="21.93" y="3.11" width=".35" height="2.13"/>
  <rect x="21.93" y="2.3" width=".35" height=".44"/>
</svg>