<?xml version="1.0" encoding="UTF-8"?>
<svg id="Layer_1" data-name="Layer 1" xmlns="http://www.w3.org/2000/svg" viewBox="0 0 52.69 72.4">
  <path d="M22.9,7.96h-.62s0-2.42,0-2.42c0-.17-.13-.58-.26-.7-.24-.23-.7-.22-1-.09-.24.11-.53.52-.54.85l-.02,2.36h-.61s0-3.72,0-3.72h.59s.02.44.02.44c.31-.3.7-.55,1.15-.56.58-.02.97.32,1.18.8.43-.76,1.32-1.05,2.02-.55.3.21.5.74.5,1.11v2.49s-.61,0-.61,0v-2.44c0-.19-.16-.63-.32-.74-.29-.2-.75-.15-1.02,0-.21.13-.46.54-.46.84v2.32Z"/>
  <g>
    <path d="M26.24,53.11c1.37,3.78.16,7.37-1.97,10.62,1.96,1.18,3.91,2.35,5.68,3.81l2.96,2.45c.03.06.07.2.1.29l-19.62-11.36c2.33.48,4.45,1.45,6.53,2.49l1.54.77,2.49,1.37c1.24-2.49,2.14-5.29,1.7-8.1-.16-1.04-.55-1.99-1.03-2.91-1.07-2.07-2.02-4.42-1.73-6.73.39-3.12,3.5-5.4,6.54-4.86,2.04.36,3.78,1.85,4.4,3.84-.53-.61-.96-1.24-1.57-1.75-2.36-1.97-5.85-1.59-7.47,1.16-1.09,1.86-.6,3.93.17,5.98.31-.49.64-.89,1.17-1.13.82-.36,1.75-.15,2.34.53.74.84.71,2.14-.04,2.96-.57.62-1.38.81-2.19.55ZM27.23,52.08c.64-.59.59-1.59-.04-2.08-.59-.47-1.33-.37-1.87.13-.19.18-.22.48-.11.71l.71,1.51c.43.08.95.05,1.3-.27Z"/>
    <g>
      <path d="M36.28,30.82c.79-1.75.49-3.48-.48-5.1,1.73,1.56,1.98,4.25.79,6.2-.77,1.27-2.08,1.97-3.52,2.2-3.11.4-5.22-1.76-6.01-4.66-.34-1.27-.52-2.57-.51-3.91l.02-2.97.04-3.63c.02-2.05-.46-3.98-1.15-5.89-.53-1.28-1.12-2.42-1.74-3.72,2.47,2.76,3.93,6.62,4.01,10.27l.07,3.52c.07,3.35-.03,7.77,3.02,9.49.48.27,1.04.37,1.59.41,1.63.05,3.12-.75,3.88-2.22Z"/>
      <path d="M37.96,36.87h-14.32c1.31-.71,2.58-.8,3.89-1.06,2.39-.3,4.75-.28,7.13.09,1.11.26,2.22.32,3.3.97Z"/>
      <path d="M34.61,28.22c0,1.17-.95,2.12-2.12,2.12s-2.12-.95-2.12-2.12.95-2.12,2.12-2.12,2.12.95,2.12,2.12ZM33.25,28.22c0-.75-.61-1.36-1.35-1.36s-1.35.61-1.35,1.36.61,1.36,1.35,1.36,1.35-.61,1.35-1.36Z"/>
    </g>
  </g>
  <path d="M7.73,7.56c-.28-.46-.26-1.07.06-1.48.2-.25.71-.46,1.02-.47l1.29-.05c0-.38-.22-.75-.58-.84-.58-.14-1.14,0-1.69.19l-.03-.52c.53-.19,1.13-.31,1.72-.23.69.1,1.17.68,1.18,1.38l.03,2.44h-.61s-.04-.46-.04-.46c-.69.75-1.92.74-2.35.04ZM10.08,6.09l-1.25.05c-.43.02-.7.4-.67.78.03.34.34.63.74.64.8.01,1.29-.66,1.18-1.47Z"/>
  <path d="M33.53,7.56c-.28-.46-.26-1.07.06-1.48.2-.25.71-.46,1.02-.47l1.29-.05c0-.38-.22-.75-.58-.84-.58-.14-1.14,0-1.69.19l-.03-.52c.53-.19,1.13-.31,1.72-.23.69.1,1.17.68,1.18,1.38l.03,2.44h-.61s-.04-.46-.04-.46c-.69.75-1.92.74-2.35.04ZM35.88,6.09l-1.25.05c-.43.02-.7.4-.67.78.03.34.34.63.74.64.8.01,1.29-.66,1.18-1.47Z"/>
  <path d="M43.76,8.08c-.78-.03-1.34-.47-1.54-1.17-.14-.5-.14-1.12,0-1.61.19-.71.77-1.12,1.48-1.17.86-.06,1.6.44,1.78,1.31.09.41.09.92,0,1.33-.17.81-.84,1.35-1.73,1.31ZM44.76,6.93c.22-.55.21-1.19-.04-1.73-.18-.38-.58-.58-.96-.55-.91.06-1.24,1.33-.82,2.33.16.37.58.59.93.58s.73-.24.88-.63Z"/>
  <path d="M29.63,4.25v3.72s-.6,0-.6,0l-.08-.46c-.5.62-1.41.81-2.06.23-.24-.21-.41-.75-.41-1.07v-2.43s.62,0,.62,0v2.44c0,.21.16.64.34.74.36.21.78.17,1.11-.04.24-.15.45-.58.45-.93v-2.21s.62.01.62.01Z"/>
  <path d="M48.6,4.71c-.37-.11-.8-.03-1.01.13-.18.14-.4.53-.41.8v2.34s-.63-.02-.63-.02v-3.72s.61,0,.61,0l.08.43c.33-.35.71-.55,1.19-.55.58,0,1.11.33,1.18.92l.09.74v2.19s-.62-.01-.62-.01v-2.52c-.01-.22-.25-.67-.48-.73Z"/>
  <polygon points="3.66 7.99 2.97 8.02 2.97 3.57 1.2 3.57 1.22 3.05 5.39 3.05 5.42 3.57 3.65 3.57 3.66 7.99"/>
  <path d="M18.63,6.23c.29.22.33.75.22,1.07-.29.87-1.67.92-2.8.56v-.64c.98.48,2.17.47,2.24-.19.02-.18-.21-.51-.39-.55l-1-.25c-.5-.12-.83-.5-.84-.96,0-.5.28-.95.84-1.07s1.21-.06,1.78.11v.57c-.97-.36-2.02-.3-2.05.3,0,.15.21.45.38.49l.81.2c.23.06.55.18.8.37Z"/>
  <path d="M13.91,4.69c-.7-.18-1.31.29-1.32.93l-.03,2.34h-.6s0-3.72,0-3.72h.58s.06.46.06.46c.48-.57,1.25-.79,1.94-.37.36.22.55.77.55,1.2v2.42s-.61,0-.61,0v-2.49c-.01-.3-.24-.7-.57-.79Z"/>
  <path d="M39.65,7.46v.53s-1.19-.07-1.19-.07c-.36-.02-.68-.46-.68-.82l-.02-2.3-.43-.06-.02-.48.46-.05v-1.07s.62-.01.62-.01v1.1s1.27,0,1.27,0v.52s-1.27.02-1.27.02v2.18c0,.1.13.38.16.45l1.11.05Z"/>
  <path d="M32.75,7.44l.02.55-1.11-.06c-.41-.02-.76-.43-.77-.85l-.02-2.28-.44-.05v-.48s.45-.05.45-.05v-1.07s.62,0,.62,0v1.1s1.27,0,1.27,0l-.02.53h-1.25s0,2.25,0,2.25c0,.15.27.44.45.44h.8Z"/>
  <path d="M5.53,7.95h-.61s0-3.71,0-3.71h.59s.02.45.02.45c.39-.43.87-.63,1.55-.55l.02.54c-.42-.02-.69-.04-1,.07s-.56.64-.56.95l-.02,2.24Z"/>
  <rect x="40.47" y="4.23" width=".62" height="3.74"/>
  <rect x="40.47" y="2.81" width=".62" height=".77"/>
</svg>