<?xml version="1.0" encoding="UTF-8"?>
<svg id="Layer_1" data-name="Layer 1" xmlns="http://www.w3.org/2000/svg" viewBox="0 0 54.55 33.51">
  <g>
    <path d="M17.07,20.74l.48-1.1c.17-.4.26-.86.32-1.3.17-1.27-.23-2.69-1.06-3.63l-.23-.26-.48-.47-.33-.29-.44-.38-.47-.41c-.63-.55-1.12-1.11-1.56-1.85-1.45.83-2.87,1.56-4.38,2.23-1.23.53-2.43.98-3.7,1.37l-.12-.03s.05-.09.08-.1l14.96-8.64.15.06-.27.25-.59.54-.4.34-.35.29c-1.56,1.29-3.2,2.39-4.97,3.46.42.44.86.81,1.34,1.15l1.26.88c.53.37,1.01.77,1.43,1.26.85,1.01,1.22,2.3,1.05,3.61-.07.53-.19,1.04-.44,1.5l-.27.49-.53.66c-.12.15-.24.25-.46.36Z"/>
    <path d="M51.66,32.36l-2.33.51-1.95-.02-1.08-.21-1.05-.39c-.57-.21-1.05-.59-1.5-1-.72-.65-1.25-1.45-1.48-2.41-.42-1.74.43-3.87,2.24-4.29.03,0,.13.08.13.1-.68.38-1.18.97-1.41,1.71-.42,1.29-.14,2.66.8,3.62l.44.44c.36.37.8.63,1.27.87.78.39,1.61.64,2.49.77l1.89.13h1.6s-.03.17-.03.17Z"/>
    <g>
      <path d="M21.25,25.74c1,1.43,2.68,2.22,4.49,2.24.09-.01.11.14.01.15l-.85.14c-1.12.1-2.2-.18-3.16-.76-1.05-.63-1.79-1.59-2.12-2.77-.26-.95-.27-1.88,0-2.84.62-2.22,2.69-3.68,4.99-3.47.02.06.03.1.01.11l-.11.04c-.94.17-1.79.58-2.48,1.22-1.5,1.33-1.96,3.56-1.11,5.35l.34.59Z"/>
      <path d="M38.86,25.19c.91-.49,1.53-1.3,1.93-2.24.49-1.17.48-2.47-.02-3.63-.62-1.45-1.98-2.37-3.51-2.7-.72-.13-1.42-.14-2.16-.03l-.13-.03s.05-.08.07-.1c.75-.34,1.5-.49,2.33-.46.85.05,1.66.27,2.4.69,2.11,1.18,2.95,3.87,2.1,6.09-.47,1.25-1.41,2.19-2.63,2.69-.46.19-.92.32-1.44.28l1.06-.57Z"/>
      <path d="M33.43,24.68c-1.24.16-2.42-.59-2.92-1.72-.59.87-1.16,1.43-2.18,1.84l-.1-.08.61-.94c.43-.66.8-1.36,1.08-2.11l.61-1.61.54.2,1.38.5c-.38.14-.8.14-1.23.13l-.3,1.24,2.52,2.56Z"/>
      <path d="M27.51,23.92c-.21-1.01-.01-1.93.59-2.69.33-.42.89-.86,1.46-1.02-.37,1.39-1.04,2.62-2.04,3.7Z"/>
    </g>
  </g>
  <path d="M35.8,4.84c-.44-.55-.44-1.79-.01-2.35.21-.28.55-.34.89-.28.27.05.56.3.65.63.25.85.13,2.08-.61,2.25-.34.08-.69.04-.93-.26ZM36.95,2.86c-.07-.23-.29-.38-.5-.37-.2,0-.41.16-.48.39-.24.78-.13,1.95.48,1.96.65,0,.74-1.19.5-1.98Z"/>
  <path d="M25.18,4.82c-.18.23-.43.34-.75.3-.24-.02-.5-.21-.63-.48-.34-.74-.03-1.7.63-1.77.33-.03.55.07.78.32v-1.08s.36,0,.36,0v2.93s-.34,0-.34,0l-.06-.25ZM25.15,3.56c-.08-.22-.29-.37-.48-.39-.22-.02-.45.09-.54.31-.14.32-.14.71,0,1.03.1.22.32.33.54.32.48-.04.67-.7.48-1.27Z"/>
  <path d="M26.97,4.78c.36.1.71.01,1.06-.12l.03.31c-.36.13-.74.2-1.11.12-.69-.15-.94-.9-.71-1.57.14-.41.49-.64.92-.65s.81.22.92.65l.06.58h-1.6c-.01.31.12.58.44.67ZM27.77,3.81c0-.38-.21-.58-.49-.63-.41-.05-.74.22-.75.64h1.24Z"/>
  <path d="M34.19,5.08c-.39.1-.79.04-1.16-.05v-.36c.34.13.65.21.99.14.27-.06.43-.29.46-.55.03-.3-.09-.59-.39-.69s-.62-.05-.95.08v-1.39s1.51,0,1.51,0v.3s-1.16,0-1.16,0v.69c.26-.04.55-.05.81.05.39.15.57.5.56.91s-.23.77-.68.88Z"/>
  <path d="M14.99,4.77c.49.15.88.01,1.25-.28v.39c-.35.2-.71.28-1.12.23-.54-.06-.97-.42-1.1-.95-.22-.92.13-1.82,1.05-1.95.43-.06.81.01,1.19.22v.39c-.42-.32-.88-.44-1.37-.23-.16.07-.35.28-.41.45-.24.68-.09,1.55.52,1.74Z"/>
  <path d="M17.66,5.45c-.05.13-.21.37-.33.38l-.54.06v-.31c.14,0,.35-.01.41-.07.11-.1.21-.36.25-.51l-.85-2.06h.37s.67,1.64.67,1.64l.66-1.63h.38s-1.01,2.49-1.01,2.49Z"/>
  <path d="M22.52,3.23c-.19-.08-.43-.05-.57.04-.12.07-.27.3-.27.48v1.33s-.36,0-.36,0v-2.12s.35,0,.35,0l.04.25c.17-.17.37-.29.62-.31.44-.03.78.29.78.73l.02,1.46h-.36s0-1.39,0-1.39c0-.13-.1-.39-.24-.45Z"/>
  <polygon points="39.6 3.39 39.61 3.69 38.48 3.69 38.48 5.07 38.09 5.06 38.09 2.2 39.73 2.2 39.73 2.5 38.48 2.5 38.48 3.39 39.6 3.39"/>
  <path d="M41.4,4.77v.31s-.64-.03-.64-.03c-.25-.01-.43-.25-.43-.5v-1.25s-.26-.08-.26-.08v-.26s.25-.03.25-.03v-.61s.35,0,.35,0v.63s.73,0,.73,0v.3s-.73,0-.73,0v1.28c0,.09.15.25.24.25h.48Z"/>
  <path d="M32.38,5.55l-.28.07-.37-.75c-.4-.81-.16-1.95.36-2.74h.32c-.65,1.06-.69,2.28-.03,3.42Z"/>
  <path d="M42.67,3.63c.09.97-.49,1.98-.61,1.97l-.24-.03c.66-1.17.64-2.29,0-3.44h.31c.27.46.5.95.55,1.49Z"/>
  <rect x="19.16" y="2.12" width=".35" height="2.94"/>
  <path d="M29.04,5.06h-.35s0-2.12,0-2.12h.34s.02.25.02.25c.23-.26.53-.37.89-.3v.3c-.25-.03-.48-.03-.64.08-.12.08-.25.32-.25.49v1.29Z"/>
  <rect x="20.25" y="2.94" width=".35" height="2.13"/>
  <rect x="20.25" y="2.12" width=".35" height=".44"/>
</svg>