<?xml version="1.0" encoding="UTF-8"?>
<svg id="Layer_1" data-name="Layer 1" xmlns="http://www.w3.org/2000/svg" viewBox="0 0 49.05 39">
  <g>
    <path d="M40.9,31.08l-1.59-1.54-.57-.56-.88-.94-.43-.51c-1.19-1.39-2.08-2.97-2.58-4.73l-.52-1.8-.44-1.88-.85-3.66c-.17-.72-.42-1.39-.69-2.08-.38-.98-1.08-2.3-1.76-3.05l-.48-.53-.43-.39-.6-.47c-1.53-1.19-3.85-1.7-5.78-1.1-.93.29-1.76.76-2.42,1.46l-.21.23c-1.24,1.32-1.7,3.43-1.09,5.2.13.38.31.72.51,1.06.44.75,1.09,1.23,1.8,1.8-.52-.1-.9-.44-1.29-.74-.31-.25-.57-.56-.81-.88-1.05-1.45-1.35-3.39-.77-5.08.36-1.05.99-1.95,1.82-2.67,1.91-1.66,4.53-2.04,6.88-1.18.51.19.99.39,1.45.68l.38.24.76.56.62.57c.62.57,1.14,1.23,1.52,1.98l.55,1.08c.79,1.55,1.33,4.22,1.68,6.02l.39,2,.49,2.08.37,1.2c.6,1.95,1.79,3.68,3.12,5.21l.47.54.32.37.35.4.47.53.41.49c1.43-.81,2.87-1.59,4.42-2.18l1.18-.46,1.94-.62-.03.17-13.65,7.89c-.1.05-.19,0-.14-.08l.79-.76.47-.41c1.12-.98,2.3-1.84,3.56-2.63l1.26-.8Z"/>
    <g>
      <path d="M27.71,11.9c1.78,1.14,2.37,3.51,1.54,5.45-.14.33-.3.65-.52.93l-.24.31-.64.64-.31.24c-.8.62-2.09,1.1-3.12,1.21-1.94.2-3.79-.34-5.26-1.62-1.07-.93-1.85-2.03-2.64-3.18l-.82-1.19-.69-.93-.32-.37-.66-.66-.34-.29c-2.81-2.44-6.87-3.32-10.54-3.43l.02,2.39-.04.14s-.12-.04-.13-.07l-.32-.66c-.27-.56-.41-1.14-.51-1.75l-.12-.12c.04-.09.08-.2.07-.28-.05-.7,0-1.34.15-2.02s.55-1.3,1.14-1.67,1.47-.4,2.06.06l-.12.14c-1.39-.17-2.04.98-2.13,2.29l-.08,1.31.59-.03c2.71-.13,5.45.24,7.94,1.34,1.79.8,3.57,2.16,4.7,3.76l1.53,2.16.7.93.25.3.39.43.31.31c.54.54,1.14.97,1.86,1.27.58.24,1.19.47,1.83.47h1.13c.59,0,1.16-.19,1.71-.4,1.19-.47,2.3-1.49,2.74-2.72.49-1.37.25-2.9-.68-4.02l-.57-.58.11-.07Z"/>
      <path d="M25.72,13.57c0,.97-.79,1.76-1.76,1.76s-1.76-.79-1.76-1.76.79-1.76,1.76-1.76,1.76.79,1.76,1.76ZM24.59,13.57c0-.61-.5-1.11-1.11-1.11s-1.11.5-1.11,1.11.5,1.11,1.11,1.11,1.11-.5,1.11-1.11Z"/>
    </g>
  </g>
  <path d="M25.79,3.86c-.31.06-.65.08-.93-.02-.32-.11-.48-.37-.51-.69-.03-.37.15-.67.53-.79-.18-.12-.36-.25-.41-.39-.16-.43.06-.84.48-.95.25-.07.56-.06.81.02.32.1.47.37.48.65,0,.31-.15.53-.49.68.35.08.56.37.55.72s-.17.6-.52.76ZM25.75,2.06c.16-.18.13-.5-.04-.65-.22-.19-.6-.18-.8.03-.17.17-.15.52.04.68.22.18.59.18.8-.05ZM25.87,3.34c.06-.11.06-.41,0-.52-.11-.22-.37-.31-.6-.29-.28.02-.49.19-.53.44-.05.36.16.63.53.65.21.01.46-.05.59-.28Z"/>
</svg>