<?xml version="1.0" encoding="UTF-8"?>
<svg xmlns="http://www.w3.org/2000/svg" viewBox="0 0 100 100">
  <g transform="translate(50 50) scale(1.71613) translate(-30.0717 -19.4900)">
  <path d="M18.75,20.81l.25-.52c.83-1.68.82-3.73-.31-5.21l-.19-.25c-.28-.37-.62-.66-.98-.97l-.4-.35-.54-.47c-.65-.56-1.16-1.13-1.59-1.88l-1.25.69-.78.42-1.05.52c-1.23.61-2.44,1.14-3.76,1.57l-1.23.4s-.13-.03-.15-.04c-.03,0,.05-.08.1-.1l15-8.65s.1.07.08.09l-.09.08-.68.64-.44.38c-1.03.9-2.11,1.69-3.25,2.44l-.79.52-1.33.84.54.52.56.44,1.62,1.14c.64.45,1.53,1.28,1.82,1.92l.29.65c.29.65.32,1.37.25,2.08-.09.92-.41,1.78-1,2.5l-.61.65-.11-.04Z"/>
  <path d="M53.32,32.48c-.85.24-1.64.41-2.5.53h-1.58c-.63-.09-1.24-.2-1.83-.43-1.65-.63-3.14-1.95-3.5-3.71-.25-1.2.05-2.48.87-3.4.16-.18.34-.32.56-.47.32-.22.92-.43.95-.24-1.55.83-1.97,2.86-1.23,4.41.13.28.3.58.52.79l.75.75c1.46,1.22,3.53,1.6,5.42,1.58l1.63.03-.07.15Z"/>
  <path d="M40.55,32.57c-.09-.06-.11-.14-.12-.25l-.29-2.67-.4-3.72-.06-.32-5.96-2.48-3.72,6.15-6.6-3.79-.92-.53-1.3-.74.18-.25.8-.96,2.42-2.9.34-.41.34-.41,1.96-2.36s.06-.08.07-.08l.09.08-.29.43-.48.72c-1.33,2-2.73,3.9-4.19,5.83l7.18,3.89,2.35-3.77,1.39-2.16,3,1.36,1.71.8,2.11,1.02.23.11.04.94.05,1.13.05,1.48.03,3.85Z"/>
  <path d="M28.34,19.72c-.19,1.68-1.31,3.43-3,3.9.52-.84,1-1.61,1.41-2.46.37-.76.64-1.48.92-2.29l.6.22,1.22.43v.12s-1.15.07-1.15.07Z"/>
  <path d="M29.84,22.38c-.1.33-.29.68-.64.79-.41.14-.82.07-1.23-.11l.38-.43.57-.69.17-.39,1.17.43.76.28c-.41.13-.73.13-1.19.12Z"/>
  </g>
</svg>
