<?xml version="1.0" encoding="UTF-8"?>
<svg id="Layer_1" data-name="Layer 1" xmlns="http://www.w3.org/2000/svg" viewBox="0 0 27.52 72.4">
  <path d="M9.39,30.69l-4.43-1.6c.63-2.18,2.11-3.83,3.77-5.22l1.97-1.65,1.25-1.16,1.1-1.22c1.41-1.55,2.58-3.26,3.72-5.06-1.89-1.17-3.67-2.34-5.29-3.83l-.98-.9c-.23-.18-.47-.41-.52-.73l15.94,9.24c-1.67-.18-3.2-.88-4.74-1.53-1.42-.59-2.72-1.31-4.1-2.08-1.55,3.78-3.93,7.01-7.04,9.55l-.94.83-1.1,1.1c-.58.58-1.03,1.27-1.43,1.98,2.85,1.22,5.46,2.47,8.07,4-.04.05-.12.14-.13.13l-5.14-1.85Z"/>
  <path d="M19.99,43.14l1.89,1.9,1,1.11c-1.59.16-2.97-.77-3.62-2.17l-.57.74c-.57.74-1.38,1.34-2.31,1.55,1.26-1.95,2.22-3.79,2.9-5.94l1.48.54.9.35c-.58.13-1,.15-1.51.15l-.35,1.42c-.02.09.06.22.18.35Z"/>
  <path d="M7.22,7.91l.02-.57c.48.17.9.27,1.43.18.61-.11,1-.92.97-1.75-.5.53-1.12.65-1.77.43-.61-.21-.94-.82-.97-1.52-.05-1.01.65-1.77,1.66-1.77.73,0,1.3.4,1.55,1.11.5,1.45.26,3.43-1.13,3.94-.57.21-1.2.1-1.76-.05ZM9.44,5.17c.12-.34.12-.8.02-1.07-.16-.46-.55-.68-.97-.66-.38.02-.77.3-.87.75-.07.33-.05.78.1,1.09.16.33.56.5.88.49s.7-.22.84-.6Z"/>
  <path d="M14.41,4.09c.5,1.68.17,3.99-1.53,4s-2.03-2.31-1.53-4c.22-.75.83-1.18,1.53-1.18s1.31.43,1.53,1.18ZM13.94,5.33c-.02-.99-.28-1.9-1.06-1.9-1.12,0-1.3,2.3-.78,3.61.14.35.58.55.88.52.8-.08.97-1.19.96-2.23Z"/>
  <g>
    <path d="M12.09,61.45c2.17,2.46,4.19,5.81,5.72,8.82-.36-.22-.56-.49-.8-.8l-2.8-3.55-1.68-2.05-.56-.64-2.42-2.62c-1.98-2.15-3.19-4.64-2.63-7.58l.15-.76,1.79-.07c1.79-.07,3.55-.07,5.34-.01.6.07,1.12,0,1.79.26l-7.94.95-.07.81c.09,2.18,1.15,3.89,2.58,5.5l.83.93.72.82Z"/>
    <g>
      <path d="M11.89,46.48c2-2.52,1.53-6.08-.51-8.5l-1.06-1.03c-1.33-1.3-3.06-1.82-4.91-2.43,2.37-.11,4.68.77,6.44,2.32,2.11,1.85,3.06,4.62,2.48,7.37s-3,4.88-5.89,5c-.77.03-1.53-.02-2.24-.44,2.22.18,4.3-.54,5.69-2.28Z"/>
      <path d="M10.44,44.86c.1.1.22.3.31.46l-1.16-.15c-1.13-.15-1.98-1.01-2.45-2.1-.69,1.04-1.69,2.11-2.86,2.29,1.22-1.9,2.18-3.72,2.88-5.9l1.89.67c.15.05.28.13.45.25l-1.26.11c-.12.01-.24.15-.26.25l-.32,1.3,2.8,2.82Z"/>
      <path d="M3.33,42.39c-.88-.38-1.15-1.18-.97-2.16l1.53.94c.52-.62,1.09-1.24,2.02-1.52-.39,1.7-1.27,3.15-2.38,4.5l-.24.02.04-1.78Z"/>
    </g>
  </g>
  <polygon points="18.38 5.03 18.39 5.55 16.4 5.55 16.4 7.97 15.73 7.96 15.73 2.95 18.6 2.94 18.6 3.46 16.41 3.46 16.4 5.03 18.38 5.03"/>
  <path d="M21.5,7.44l.02.55-1.11-.06c-.41-.02-.76-.43-.77-.85l-.02-2.28-.44-.05v-.48s.45-.05.45-.05v-1.07s.62,0,.62,0v1.1s1.27,0,1.27,0l-.02.53h-1.25s0,2.25,0,2.25c0,.15.28.44.44.44h.81Z"/>
</svg>