<?xml version="1.0" encoding="UTF-8"?>
<svg id="Layer_1" data-name="Layer 1" xmlns="http://www.w3.org/2000/svg" viewBox="0 0 27.52 72.4">
  <path d="M15.65,4.42c.76.99.74,3.24-.05,4.15-.4.46-1.01.56-1.6.42-.43-.1-.9-.54-1.06-1.09-.44-1.5-.23-3.64,1.06-3.95.62-.15,1.26-.03,1.65.47ZM14.05,8.41c.49.3,1.06.03,1.24-.48.32-.91.31-1.92.03-2.85-.17-.55-.75-.87-1.28-.56-.7.41-.7,1.92-.53,3.02.04.3.3.72.53.87Z"/>
  <polygon points="19.92 5.99 19.97 6.52 17.99 6.52 17.99 8.93 17.31 8.93 17.31 3.91 20.14 3.9 20.18 4.43 17.99 4.43 17.99 5.99 19.92 5.99"/>
  <path d="M8.44,8.93l.04-.57,1.84-1.9c.51-.53.77-1.19.43-1.68-.43-.6-1.38-.38-2.25.02v-.63c.99-.34,1.9-.48,2.73.17.48.58.5,1.45-.04,2.02l-1.9,2.03,2.29.03v.52s-3.14,0-3.14,0Z"/>
  <path d="M4.58,8.94l-.05-.51,1.11-.03v-3.83s-1.18.23-1.18.23v-.62s1.17-.23,1.17-.23c.15-.03.45-.02.68-.01v4.47s1.11,0,1.11,0v.52s-2.83,0-2.83,0Z"/>
  <path d="M23.09,8.41l.02.54-1.12-.05c-.39-.02-.75-.43-.76-.84l-.02-2.3-.44-.05v-.48s.45-.05.45-.05v-1.07s.61-.01.61-.01v1.1s1.27,0,1.27,0v.52s-1.27,0-1.27,0v2.24c0,.14.21.43.35.43h.9Z"/>
  <g>
    <path d="M13.67,33.54l-4.63-1.62-5.15-1.87c.67-2.31,2.27-3.99,4.04-5.44l1.15-.95.71-.6,1.98-1.97.71-.84c1.21-1.44,2.26-2.96,3.26-4.53-1.99-1.22-3.81-2.42-5.44-3.96l-1.41-1.33.2-.09,15.85,9.19c-2.02-.25-3.68-1.13-5.46-1.82l-3.43-1.81c-1.7,4.08-4.01,7.08-7.39,9.85-1.19.97-2.38,2.23-3.13,3.61,2.08.91,4.05,1.8,6.04,2.85.74.39,1.42.72,2.11,1.3Z"/>
    <g>
      <path d="M10.02,61.32c1.4,1.54,2.62,3.06,3.73,4.77s2.11,3.36,2.96,5.18c-.66-.54-1.02-1.14-1.5-1.71l-2.08-2.64c-1.38-1.75-2.82-3.35-4.36-4.95l-.72-.83c-1.8-2.06-2.8-4.54-2.2-7.27l.14-.63,3.68-.09h2.56s2.69.2,2.69.2c-.35.16-.65.19-1.04.23l-3.98.47-1.95.22-.99.11c-.33,2.82,1.18,4.86,3.07,6.95Z"/>
      <g>
        <path d="M5.13,49.74c1.83.15,3.49-.26,4.87-1.42,3.14-2.63,2.62-7.39-.42-10.14-.9-.81-1.91-1.42-3.02-1.92l-2.19-.79c2.22-.1,4.3.67,6.04,1.99,3.18,2.43,4.1,7.07,1.73,10.25-1.11,1.49-2.8,2.33-4.64,2.48-.8,0-1.6.02-2.36-.46Z"/>
        <path d="M9.72,44.69c-.6.41-1.22.76-1.96.95-1.88.48-4.15.27-5.66-.97l.82-.11,2.01-.03.09-3.09.99.06,2.45.19c-.6.6-1.35.8-2.15,1.01l-.66,1.82,3.39.03.68.13Z"/>
      </g>
    </g>
    <g>
      <path d="M20.66,42.59l-1.54.11c-.17,1.28-.7,2.54-1.58,3.51-.6.64-1.25,1.16-2.19,1.39,1.23-1.9,2.22-3.77,2.92-5.95l1.77.64.62.29Z"/>
      <path d="M20.96,45.57c-.1.55-.48,1.01-1.07,1.06-.41.03-.83-.05-1.23-.22l.91-1.03.52-.86,1.38.5,1.01.37c-.57.12-.94.14-1.52.17Z"/>
    </g>
  </g>
</svg>