<?xml version="1.0" encoding="UTF-8"?>
<svg id="Layer_1" data-name="Layer 1" xmlns="http://www.w3.org/2000/svg" viewBox="0 0 43.36 72.4">
  <path d="M26.07,9.05c-.81.02-1.3-.5-1.3-1.22,0-.56.33-1.09.93-1.19.52-.09,1.06-.09,1.62-.11.02-.4-.26-.81-.67-.87-.54-.08-.99.01-1.59.21v-.54c.56-.16,1.1-.28,1.67-.2.68.09,1.18.66,1.19,1.35l.03,2.46h-.61s-.06-.47-.06-.47c-.27.33-.68.57-1.22.58ZM27.34,7.05l-1.31.06c-.42.02-.68.41-.65.77s.31.62.73.65c.79.04,1.21-.58,1.22-1.47Z"/>
  <path d="M4.27,8.42c.86.26,1.55.02,2.19-.48l.02.68c-.64.34-1.27.49-1.99.41-.94-.11-1.7-.74-1.93-1.67-.39-1.61.23-3.19,1.83-3.43.75-.11,1.42.03,2.09.39l-.03.68c-.7-.57-1.52-.77-2.38-.41-.28.12-.61.49-.72.79-.42,1.19-.17,2.72.91,3.05Z"/>
  <path d="M35.28,9.05c-.82.01-1.43-.44-1.64-1.18-.14-.49-.14-1.11,0-1.61.2-.75.83-1.17,1.58-1.18s1.41.38,1.63,1.13c.16.54.16,1.17,0,1.71-.21.69-.8,1.12-1.57,1.13ZM36.22,7.78c.14-.48.13-1.03-.01-1.46s-.54-.69-.93-.7-.81.24-.96.67c-.17.49-.17,1.07,0,1.57.14.42.57.67.96.67s.8-.26.95-.74Z"/>
  <path d="M10.48,7.83c-.21.81-.85,1.21-1.6,1.22-.82.01-1.5-.49-1.67-1.32-.09-.41-.08-.93,0-1.33.17-.83.85-1.33,1.67-1.31.76.01,1.38.42,1.59,1.18.13.46.14,1.07,0,1.57ZM9.77,7.9c.22-.56.21-1.2-.02-1.71-.16-.37-.57-.59-.93-.58s-.73.25-.88.63c-.21.53-.2,1.13,0,1.66.15.39.53.62.88.63s.78-.2.94-.62Z"/>
  <path d="M13.88,5.88c-.29-.33-.77-.3-1.11-.16-.26.11-.57.53-.57.9v2.31s-.63,0-.63,0v-3.72s.6,0,.6,0l.06.47c.52-.63,1.47-.83,2.13-.2.21.2.36.73.36,1.03v2.43s-.62,0-.62,0v-2.32c0-.17-.09-.6-.21-.74Z"/>
  <path d="M20.92,5.21v3.71s-.6,0-.6,0l-.07-.47c-.5.65-1.47.84-2.12.2-.21-.21-.36-.72-.36-1.03v-2.43s.62,0,.62,0v2.43c0,.19.15.6.29.71.3.24.79.21,1.09.04.24-.13.51-.53.52-.87v-2.32s.63.01.63.01Z"/>
  <path d="M40.06,5.7c-.31-.14-.77-.08-.99.07-.21.13-.47.53-.47.84v2.33s-.63,0-.63,0v-3.72s.61,0,.61,0l.07.43c.31-.3.64-.51,1.08-.54.77-.06,1.36.51,1.37,1.28l.03,2.56h-.63s0-2.43,0-2.43c0-.24-.17-.67-.43-.8Z"/>
  <path d="M31.06,8.41l.02.54-1.12-.05c-.39-.02-.76-.43-.76-.84l-.02-2.3-.44-.05v-.48s.45-.05.45-.05v-1.07s.61-.01.61-.01v1.1s1.27,0,1.27,0v.52s-1.27,0-1.27,0v2.24c0,.13.21.43.36.43h.89Z"/>
  <path d="M16.24,10.08c-.28.28-.74.29-1.06.29v-.51s.51-.09.51-.09c.13-.02.25-.34.25-.49v-4.06s.62,0,.62,0v3.95c0,.25-.12.72-.32.92Z"/>
  <path d="M22.77,8.93h-.62s0-3.72,0-3.72l.57-.02.14.35c.4-.36.9-.51,1.48-.43v.59c-.33-.1-.76-.14-1.07.06-.3.18-.45.63-.5.95v2.21Z"/>
  <rect x="31.89" y="5.2" width=".61" height="3.74"/>
  <rect x="15.93" y="3.77" width=".62" height=".77"/>
  <rect x="31.89" y="3.77" width=".61" height=".77"/>
  <g>
    <path d="M11.01,59.96c2.06.35,3.84,1.32,5.72,2.07l4.88,2.56.71-1.32c2.05-3.8,3.09-7.46,2.45-11.82-.35-2.37-1.07-4.58-2.24-6.65s-1.84-4.11-1.92-6.42c-.07-2,.24-3.92,1.11-5.7l1.23-2.51.87-1.78c1.66-3.4,1.71-7.55.59-11.17-.62-2.02-1.48-3.88-2.5-5.72-.22-.4-.48-.76-.56-1.2,3.67,4.75,5.96,10.9,4.26,16.7-.39,1.32-.94,2.51-1.53,3.73l-.87,1.79c-1.68,3.45-1.69,7.47.07,10.9l.68,1.32c2.25,4.4,2.68,10.19.75,14.86-.37.9-.75,1.76-1.26,2.58l-1.6,2.53,3.65,2.31c1.77,1.38,3.69,2.52,5.19,4.28l-19.66-11.34Z"/>
    <path d="M32.72,33.29c.06.03.22.24.18.22-2.11-.2-3.64-1.82-4.46-3.74-.91-2.15-.83-4.6-.76-6.96.06-2.16-.04-4.13-.81-6.17l-1.01-1.77c.52.28.95.71,1.32,1.22,1.49,2.05,1.74,4.59,1.78,7.11l.05,3.15c.01.81.14,1.62.32,2.41.43,1.89,1.62,3.76,3.38,4.51Z"/>
    <path d="M28.48,51.74c-.06,1.54-.3,3.45-1.44,4.63.12-.97.33-1.87.29-2.83l-.09-2.2c-.09-2.4-.04-4.64,1.58-6.51.72-.83,1.73-1.36,2.82-1.25-3.3,1.67-3.04,4.84-3.16,8.15Z"/>
    <path d="M29.34,38.54c0,1.18-.95,2.13-2.13,2.13s-2.13-.95-2.13-2.13.95-2.13,2.13-2.13,2.13.95,2.13,2.13ZM27.97,38.54c0-.75-.61-1.36-1.36-1.36s-1.36.61-1.36,1.36.61,1.36,1.36,1.36,1.36-.61,1.36-1.36Z"/>
  </g>
</svg>