<?xml version="1.0" encoding="UTF-8"?>
<svg id="Layer_1" data-name="Layer 1" xmlns="http://www.w3.org/2000/svg" viewBox="0 0 54.55 33.51">
  <path d="M34.3,2.46c.27.94.1,2.23-.86,2.26-.41.01-.75-.23-.89-.66-.17-.52-.17-1.11,0-1.63.14-.43.48-.67.89-.66s.73.26.86.69ZM33.08,4.28c.09.13.39.17.52.11.48-.2.51-1.26.31-1.93-.06-.23-.28-.39-.47-.39-.55,0-.64.7-.62,1.4.01.28.07.56.25.81Z"/>
  <path d="M24.15,2.95c.33.73.04,1.67-.62,1.76-.33.04-.57-.06-.81-.31l-.02.26h-.34s0-2.94,0-2.94h.35s0,1.07,0,1.07c.21-.22.45-.35.76-.33.26.02.54.2.67.49ZM23.82,3.09c-.09-.22-.32-.34-.53-.33-.51.01-.72.76-.47,1.33.1.22.32.34.54.33.5-.02.7-.76.47-1.33Z"/>
  <path d="M31.55,3.96v.66s-.38,0-.38,0v-.66s-1.29,0-1.29,0l.02-.38,1.16-1.79.5-.02v1.88s.41.01.41.01v.29s-.41,0-.41,0ZM31.17,3.66v-1.53s-.97,1.53-.97,1.53h.97Z"/>
  <path d="M26.61,4.28v.28c-.34.11-.67.18-1.02.13-.71-.1-1.02-.79-.81-1.53.13-.46.53-.71.99-.71.37,0,.71.18.84.55.07.21.09.46.1.69h-1.6c-.04.37.21.65.6.73l.91-.15ZM26.34,3.4c0-.36-.17-.57-.46-.62-.2-.04-.44.02-.6.17-.1.09-.17.31-.19.46h1.25Z"/>
  <g>
    <path d="M17.07,20.23c1.3-2.34,1.12-4.82-.85-6.59l-.33-.3-.43-.38-.5-.44c-.62-.55-1.21-1.15-1.63-1.92l-.3.16-.65.36c-1.72.94-3.45,1.81-5.3,2.46l-1.08.38-.78.25s-.1-.07-.11-.1l15.14-8.74c-.03.23-.23.37-.39.51l-.5.44-.47.41-.31.25-.32.25c-1.44,1.16-2.93,2.15-4.56,3.13,1.11,1.22,2.67,1.87,3.83,3.08,1.83,1.91,1.67,5.02-.31,6.79h-.15Z"/>
    <path d="M50.57,31.74l1.05.02s.12.1.09.11l-.13.05-1.33.34-1.37.19h-1.2c-.5,0-1-.14-1.47-.28-1.8-.51-3.49-1.89-3.96-3.74-.44-1.73.39-3.88,2.24-4.34l.11.12c-.28.17-.51.29-.7.52l-.31.38c-.22.27-.34.6-.44.94-.35,1.21-.05,2.45.77,3.4.9,1.05,2.05,1.65,3.4,1.99.88.22,1.77.27,2.68.29h.56Z"/>
    <g>
      <path d="M38.78,26.66l.05,1.5.03,3.86c-.09-.06-.11-.14-.12-.25l-.26-2.45-.29-2.63-.17-1.64-1.08-.45-4.9-2.04-3.72,6.15-8.06-4.63-.78-.45.27-.33.34-.41,2.65-3.17.23-.28,2.02-2.42.34-.41.28-.33.08.1s-.04.06-.06.09l-3.63,5.19-1.25,1.69,1.05.55,2.04,1.09.86.46.53.29,2.7,1.5,2.37-3.8,1.37-2.13.38.17,1.13.5.65.29,1.12.52,2.04.96,1.72.83.05.98.04,1.09Z"/>
      <path d="M29.3,24.11c-1.28.1-2.39-.6-2.9-1.74l-.32.44-.31.37c-.46.47-.96.89-1.68,1.03.81-1.23,1.51-2.43,1.99-3.78l.34-.95.69.25,1.24.45c-.45.13-.84.13-1.24.13l-.26,1.12c-.02.07.04.19.08.23l1.82,1.82.56.63Z"/>
      <path d="M25.12,20.71c.2.54-.05,1.26-.58,1.65-.33-.82-.55-1.6-.77-2.44l.02-.12s.09-.04.11-.04l.35.13c.39.14.72.43.87.82Z"/>
    </g>
  </g>
  <path d="M18.06,4.36c.49.15.88.01,1.25-.28v.39c-.35.2-.71.28-1.12.23-.54-.06-.97-.42-1.1-.95-.22-.92.13-1.82,1.05-1.95.43-.06.81.01,1.19.22v.39c-.42-.32-.88-.44-1.37-.23-.16.07-.35.28-.41.45-.24.68-.09,1.55.52,1.74Z"/>
  <path d="M21.67,2.52v2.13s-.34,0-.34,0l-.03-.26c-.3.36-.84.47-1.21.11-.12-.11-.21-.42-.21-.59v-1.39s.35,0,.35,0v1.39c0,.1.09.34.17.41.15.11.42.11.58.04.14-.06.32-.28.33-.47l.02-1.37h.35Z"/>
  <polygon points="36.55 2.98 36.57 3.27 35.43 3.27 35.43 4.65 35.05 4.65 35.05 1.79 36.68 1.79 36.69 2.08 35.43 2.08 35.43 2.97 36.55 2.98"/>
  <path d="M38.36,4.36v.3s-.67-.04-.67-.04c-.21-.01-.4-.26-.4-.47v-1.31s-.25-.04-.25-.04v-.27s.25-.03.25-.03v-.61s.35,0,.35,0v.62s.73,0,.73,0v.3s-.73,0-.73,0v1.23c0,.06.07.26.13.26l.59.04Z"/>
  <path d="M29.35,5.15l-.3.04c-.52-.83-.76-1.97-.34-2.79l.36-.7.3.03c-.64,1.06-.68,2.28-.01,3.42Z"/>
  <path d="M39.45,4.45l-.36.74h-.31c.64-1.12.66-2.33,0-3.44l.31-.02.35.73c.3.62.32,1.37,0,2.01Z"/>
</svg>