<?xml version="1.0" encoding="UTF-8"?>
<svg id="Layer_1" data-name="Layer 1" xmlns="http://www.w3.org/2000/svg" viewBox="0 0 52.5 39.32">
  <path d="M28.15,19.81c0,1.05-.85,1.9-1.9,1.9s-1.9-.85-1.9-1.9.85-1.9,1.9-1.9,1.9.85,1.9,1.9ZM26.86,19.81c0-.62-.31-1.14-.91-1.27-.42-.08-.83.08-1.11.38-.26.28-.38.69-.32,1.11.09.64.61,1.08,1.26,1.05.69-.03,1.09-.58,1.09-1.28Z"/>
  <polygon points="25.97 4.49 25.95 2.02 25.22 3.94 24.84 3.93 24.11 2.02 24.1 4.49 23.73 4.49 23.73 1.61 24.31 1.62 25.04 3.57 25.77 1.61 26.34 1.61 26.34 4.49 25.97 4.49"/>
  <path d="M20.19,4.27c-.44-.55-.44-1.79-.01-2.35.21-.28.55-.34.89-.28.27.05.56.3.65.63.25.85.13,2.08-.61,2.25-.34.08-.69.04-.93-.26ZM21.35,2.28c-.07-.23-.29-.38-.5-.37-.2,0-.41.16-.48.39-.24.78-.13,1.95.48,1.96.65,0,.74-1.19.5-1.98Z"/>
  <path d="M36.41,4.07v.33c-.76.3-1.62.2-1.84-.56-.07-.24-.06-.57,0-.81.12-.46.51-.72.97-.73.41,0,.77.22.89.62.05.18.06.42.06.61h-1.59c-.03.36.18.64.53.7s.67-.02.98-.16ZM36.14,3.24c.02-.35-.2-.62-.53-.64-.4-.03-.71.24-.71.64h1.24Z"/>
  <path d="M29.46,2.72c-.18-.15-.45-.14-.64-.04-.16.09-.3.33-.3.55v1.26s-.35,0-.35,0v-2.12s.34,0,.34,0l.04.26c.28-.35.81-.46,1.18-.13.16.14.24.46.24.68v1.32s-.35,0-.35,0v-1.38c0-.09-.07-.33-.15-.39Z"/>
  <path d="M32.41,2.37v2.12s-.34.01-.34.01l-.05-.26c-.17.18-.36.3-.61.32-.44.03-.78-.29-.78-.73l-.02-1.46h.36s0,1.39,0,1.39c0,.14.1.37.23.45.16.09.44.06.59-.03.12-.07.27-.3.27-.47v-1.33s.36,0,.36,0Z"/>
  <polygon points="17.63 4.49 17.6 4.2 18.23 4.19 18.23 2 17.56 2.13 17.55 1.78 18.22 1.65 18.62 1.64 18.62 4.19 19.25 4.2 19.25 4.49 17.63 4.49"/>
  <path d="M38.4,3.5c.16.12.19.43.13.61-.16.5-.95.53-1.6.32v-.37c.56.28,1.24.27,1.28-.11.01-.11-.12-.29-.22-.31l-.57-.14c-.28-.07-.47-.28-.48-.55,0-.29.16-.54.48-.61s.69-.03,1.02.06v.32c-.56-.21-1.16-.17-1.17.17,0,.09.12.25.21.28l.47.11c.13.03.31.1.45.21Z"/>
  <path d="M34.2,4.2v.31s-.65-.03-.65-.03c-.21-.01-.42-.24-.42-.46v-1.29s-.26-.08-.26-.08v-.26s.25-.03.25-.03v-.61s.35,0,.35,0v.63s.73,0,.73,0v.3s-.73,0-.73,0v1.28c0,.09.14.25.24.25h.49Z"/>
  <rect x="27.09" y="2.36" width=".35" height="2.13"/>
  <rect x="27.09" y="1.55" width=".35" height=".44"/>
  <g>
    <path d="M18.37,16.48l-.39.46-1.26,1.62c-.54.7-1,1.41-1.48,2.15l-1.15,1.74-1.31,1.94-.9,1.23-.59.74-.1-.11.66-1.11.78-1.34.87-1.57.78-1.41.35-.6c.49-.85.95-1.69,1.52-2.49l.86-1.21.49-.64.35-.4.6-.66.81-.82.34-.29.77-.61c1.62-1.28,3.83-2.12,5.88-2.45,1.17-.19,2.31-.31,3.5-.32h3.62s3.98-.06,3.98-.06c2.98-.04,5.91-.35,8.88-.63l.81-.08.82-.06,1.16-.04-.12-2.35-.28-1.78s.12-.08.14-.06l.55.56c.8,1.09.97,2.31,1.01,3.64l.95.09.06.15-1.01.02-.03.49-.14,2.4-.12.12c-.59-.85-.81-1.84-.95-2.87l-.53.03-.55.08-2.1.37c-2.36.41-4.69.74-7.07.93l-.98.08-.94.06-1.01.06-1.52.06-3.87.04-.59.03-.8.04-.98.07c-1.19.09-2.34.31-3.49.63-.99.28-1.88.68-2.76,1.19-.6.35-1.15.71-1.68,1.15l-.47.4-1.04,1.03-.31.35Z"/>
    <path d="M6.09,34.77l-.49.69-.74,1.16s-.15.04-.18.01c.29-.72.56-1.34.92-2.01.8-1.56,1.81-2.97,3.12-4.14.55-.49,1.12-.91,1.78-1.23l.81-.38c1.86-.87,4.46-1.19,6.56-1.35l2.69-.21.69-.06.5-.05,1.65-.22c1.23-.16,2.42-.37,3.61-.7l1.62-.46c1.51-.43,3.69-1.56,4.97-2.54.02-.02.09-.07.09-.07,0,0,.05.04.07.05.03.02-.02.1-.04.13l-.89.87-1.63,1.19c-.8.58-1.69.99-2.62,1.32l-1.71.62c-1.65.59-4.92,1.07-6.78,1.24l-.97.09-.63.05-.76.06-.81.07-.63.06c-1.4.14-2.75.38-4.09.8-1.03.32-1.93.78-2.79,1.41-.41.3-.81.6-1.16.97l-.7.74-.44.5-1.03,1.38Z"/>
    <path d="M20.04,19.23c-.51.46-.87,1.01-1.2,1.58-.55.94-.81,2.07-.35,3.06.11.24.3.45.49.63.38.37.9.58,1.43.5l.13-.02s.07.06.09.12c-.59.27-1.23.21-1.76-.11-.91-.55-1.32-1.33-1.38-2.4-.05-.81.16-1.55.5-2.27.82-1.74,2.11-2.87,3.7-3.89.71-.45,1.42-.81,2.21-1.11,2.85-1.09,5.59-1.15,8.57-.49,1.44.32,2.84.68,4.19,1.26l.93.4.93.43s.09.05.1.06c0,0-.05.07-.07.11l-2.42-.58c-1.23-.29-2.44-.51-3.7-.68-2.09-.28-4.31-.3-6.34.17-1.59.37-3.4,1.24-4.76,2.14l-.32.24-.31.26-.64.58Z"/>
    <path d="M22.97,25.1c1.08-.37,2.12-.63,3.11-1.13l1.08-.55,1.2-.74c.45-.28.86-.59,1.25-.94l.43-.39c.44-.4.87-.8,1.25-1.25l1.02-1.24.71-.91c-.08.87-.41,1.59-.79,2.33-.55,1.09-1.25,1.92-2.16,2.73-1.73,1.52-3.92,2.3-6.24,2.22-.29,0-.55,0-.86-.13Z"/>
  </g>
</svg>