<?xml version="1.0" encoding="UTF-8"?>
<svg id="Layer_1" data-name="Layer 1" xmlns="http://www.w3.org/2000/svg" viewBox="0 0 54.55 33.23">
  <g>
    <path d="M17.06,20.38c.37-.77.68-1.47.8-2.31.16-1.15-.08-2.29-.72-3.27-.23-.36-.51-.7-.83-.98l-.76-.68-.5-.44c-.68-.6-1.3-1.22-1.74-2.02-1.76,1.01-3.49,1.89-5.34,2.64-.9.37-1.77.66-2.69.96l-.11.03s-.06-.07-.08-.11l11.44-6.64,2.68-1.52c.35-.2.65-.37,1.06-.56-.18.33-.41.49-.66.71l-.5.44-.37.31-.39.31c-1.36,1.1-2.79,2.06-4.28,2.98l-.41.25c.46.44.91.82,1.42,1.18l.7.49c.62.43,1.21.85,1.73,1.4,1.48,1.55,1.66,3.89.58,5.73-.3.41-.54.86-1.06,1.12Z"/>
    <g>
      <path d="M50.23,32.35l-1.4.19h-1.13c-1.03-.02-2.66-.61-3.49-1.26l-.28-.22-.43-.39-.38-.43-.43-.64c-.21-.32-.33-.7-.43-1.07-.43-1.73.39-3.89,2.25-4.34l.11.1-.45.31c-.13.09-.33.28-.43.42l-.3.46c-.48.92-.55,2-.16,2.98.35.87.98,1.54,1.75,2.07s1.6.85,2.51,1.06c.82.19,1.63.23,2.48.24h.69c.37,0,.68-.01,1.07.09-.54.22-.99.36-1.55.44Z"/>
      <g>
        <path d="M38.87,31.95c0,.11-.15.14-.12,0l-.27-2.47-.29-2.64-.18-1.7-1.08-.45-4.91-2.04-3.71,6.13-.6-.33-7.47-4.29-.78-.45.27-.33.28-.34.49-.58.4-.48.31-.37.34-.41,1.37-1.64,2.05-2.46.34-.41.3-.35.03.17c-1.57,2.36-3.17,4.61-4.91,6.91l1.22.64,5.95,3.24.36-.55.63-1,1.37-2.2,1.4-2.17.73.33.82.37.61.27,1.03.47.98.46,2.04.97.83.4.04.98.05,1.06.05,1.53.04,3.7Z"/>
        <path d="M28.09,19.75c-.13.94-.46,1.78-1.02,2.51-.51.66-1.16,1.22-2.01,1.41,1.04-1.51,1.8-3.08,2.35-4.75l1.91.71c-.42.13-.76.13-1.23.12Z"/>
      </g>
    </g>
  </g>
  <path d="M24.15,3.04c.33.73.04,1.67-.62,1.76-.33.04-.57-.06-.81-.31l-.02.26h-.34s0-2.94,0-2.94h.35s0,1.07,0,1.07c.21-.22.45-.35.76-.33.26.02.54.2.67.49ZM23.82,3.18c-.09-.22-.32-.34-.53-.33-.51.01-.72.76-.47,1.33.1.22.32.34.54.33.5-.02.7-.76.47-1.33Z"/>
  <path d="M26.61,4.37v.28c-.34.11-.67.18-1.02.13-.71-.1-1.02-.79-.81-1.53.13-.46.53-.71.99-.71.37,0,.71.18.84.55.07.21.09.46.1.69h-1.6c-.04.37.21.65.6.73l.91-.15ZM26.34,3.48c0-.36-.17-.57-.46-.62-.2-.04-.44.02-.6.17-.1.09-.17.31-.19.46h1.25Z"/>
  <path d="M33.54,4.78c-.36.05-.72,0-1.06-.08v-.38c.31.15.65.23.98.16.32-.07.49-.36.47-.68,0-.27-.17-.51-.44-.58-.29-.08-.6-.02-.89.1v-1.39s1.51,0,1.51,0v.3s-1.15,0-1.15,0v.68c.3-.03.56-.04.79.05.38.14.56.46.58.85.02.48-.26.9-.79.98Z"/>
  <path d="M18.06,4.45c.49.15.88.01,1.25-.28v.39c-.35.2-.71.28-1.12.23-.54-.06-.97-.42-1.1-.95-.22-.92.13-1.82,1.05-1.95.43-.06.81.01,1.19.22v.39c-.42-.32-.88-.44-1.37-.23-.16.07-.35.28-.41.45-.24.68-.09,1.55.52,1.74Z"/>
  <path d="M21.67,2.61v2.13s-.34,0-.34,0l-.03-.26c-.3.36-.84.47-1.21.11-.12-.11-.21-.42-.21-.59v-1.39s.35,0,.35,0v1.38c0,.11.09.34.17.41.14.11.43.11.58.04.13-.06.33-.28.33-.47l.02-1.37h.35Z"/>
  <polygon points="36.55 3.06 36.57 3.36 35.43 3.36 35.43 4.74 35.05 4.73 35.05 1.87 36.68 1.87 36.69 2.17 35.43 2.17 35.43 3.06 36.55 3.06"/>
  <polygon points="30.18 4.74 30.17 4.44 30.8 4.43 30.8 2.25 30.12 2.38 30.12 2.02 30.76 1.9 31.18 1.9 31.18 4.44 31.82 4.44 31.82 4.74 30.18 4.74"/>
  <path d="M38.36,4.45v.3s-.67-.04-.67-.04c-.21-.01-.4-.26-.4-.47v-1.31s-.25-.04-.25-.04v-.27s.25-.03.25-.03v-.61s.35,0,.35,0v.62s.73,0,.73,0v.3s-.73,0-.73,0v1.23c0,.06.07.26.13.26l.59.04Z"/>
  <path d="M29.35,5.24l-.3.04c-.52-.83-.76-1.97-.34-2.79l.36-.7.3.03c-.64,1.06-.68,2.28-.01,3.42Z"/>
  <path d="M39.45,4.54l-.36.74h-.31c.64-1.12.66-2.33,0-3.44l.31-.02.35.73c.3.62.32,1.37,0,2.01Z"/>
</svg>