<?xml version="1.0" encoding="UTF-8"?>
<svg id="Layer_1" data-name="Layer 1" xmlns="http://www.w3.org/2000/svg" viewBox="0 0 54.55 38.89">
  <g id="Cone_30ft" data-name="Cone 30ft">
    <path d="M14.4,19.44c.56-1.64.31-3.47-.82-4.74l-.3-.33-.55-.52-.64-.56-.37-.32c-.62-.55-1.21-1.16-1.63-1.91l-1.03.56-.98.53-.92.46c-1.32.66-2.65,1.25-4.05,1.69l-1.18.37.03-.15,13-7.52,2.08-1.15c-.23.41-.55.63-.87.91-1.46,1.27-3.01,2.39-4.65,3.42l-.93.59-.09.06s.04.11.06.13c.61.55,1.23,1.02,1.9,1.48,1.32.9,2.5,1.78,2.94,3.39s.06,3.26-1.03,4.49l-.5.45c0-.08.02-.19.05-.23.17-.32.35-.71.47-1.08Z"/>
    <path d="M48.48,32.28c-.85.12-1.66.27-2.53.27h-3.32c-1.11-.01-2.16-.2-3.25-.38-1.68-.28-3.29-.69-4.9-1.23l-1.42-.59c-.66-.28-1.26-.67-1.82-1.12l-.28-.22-.49-.45-.66-.72c-1.26-1.37-1.85-3.68-1.68-5.62.06-.66.31-1.49.54-2.04l.15-.06c-.59,2.45-.08,4.98,1.53,6.93.29.35.61.68.96.97,1.13.94,2.76,1.68,4.17,2.1l1.41.42c3.25.98,7.46,1.53,10.86,1.61h.52c.06.01.15.06.21.13Z"/>
    <path d="M33.1,31.78l-.02.16-1.72-1.07-1.04-.54c-2.49-1.19-5.16-1.81-7.93-1.87-1.25-.03-2.42.04-3.64.29l-.92.19s-.11-.09-.09-.11l.11-.06c1.25-.66,2.8-1.13,4.22-1.24l.44-.03h1.69c1.25.08,2.45.33,3.63.74l1.21.49c.88.35,1.68.87,2.41,1.47l.31.25.37.32.59.59.37.41Z"/>
    <path d="M22.53,22.09l1.06,1.07,1.02,1.09c-.56.07-1.05-.06-1.52-.27-.57-.29-1.03-.7-1.29-1.29l-.12-.14c-.32.49-.67.88-1.1,1.25-.36.23-.7.46-1.18.55.97-1.49,1.77-2.99,2.31-4.71l.65.23,1.18.42v.12s-1.14.07-1.14.07l-.26,1.12s.02.17.05.2l.33.29Z"/>
    <path d="M31.02,2.84c.29.92.11,2.26-.83,2.29-.41.01-.77-.22-.9-.64-.3-.93-.13-2.28.84-2.31.41,0,.75.23.89.66ZM30.66,2.89c-.07-.25-.29-.41-.53-.4-.61.03-.68,1.19-.47,1.95.07.25.29.41.53.4.6-.03.67-1.18.46-1.95Z"/>
    <path d="M22.32,4.8c.36.08.7,0,1.01-.16l.02.33c-.71.27-1.54.21-1.8-.44-.15-.37-.13-.81.04-1.15s.5-.5.87-.52c.41-.01.77.2.9.61.05.18.07.4.08.62h-1.61c-.01.32.15.62.49.69ZM23.07,3.81c0-.43-.27-.64-.62-.64-.37,0-.62.28-.63.64h1.24Z"/>
    <path d="M27.76,4.8c.27-.05.44-.28.45-.52.01-.26-.16-.54-.45-.56l-.55-.04v-.27s.58-.04.58-.04c.18-.01.35-.24.36-.4,0-.2-.14-.43-.37-.46-.32-.04-.61.02-.97.1v-.31c.71-.2,1.56-.17,1.7.46.08.38-.14.69-.49.77.39.12.6.4.58.78-.02.36-.24.63-.59.74-.42.13-.85.08-1.29-.05v-.36c.34.17.68.23,1.04.16Z"/>
    <path d="M14.87,4.78c.49.15.88.01,1.25-.28v.39c-.35.2-.71.28-1.12.23-.54-.06-.97-.42-1.1-.95-.22-.92.13-1.82,1.05-1.95.43-.06.81.01,1.19.22v.39c-.42-.32-.88-.44-1.37-.23-.16.07-.35.28-.41.45-.24.68-.09,1.55.52,1.74Z"/>
    <path d="M18.48,4.44c-.12.46-.49.69-.91.7-.47,0-.86-.28-.95-.75-.05-.23-.05-.53,0-.76.1-.47.49-.76.95-.75.43,0,.79.24.91.67.07.26.08.61,0,.89ZM18.08,4.48c.13-.32.12-.68,0-.98-.09-.21-.33-.33-.53-.33s-.42.14-.5.36c-.12.3-.12.64,0,.94.09.22.3.35.5.36s.44-.12.54-.35Z"/>
    <path d="M20.42,3.32c-.16-.19-.45-.17-.63-.09-.15.06-.33.31-.33.52v1.32s-.36,0-.36,0v-2.12s.34,0,.34,0l.03.27c.3-.36.84-.47,1.21-.11.12.11.21.42.21.59v1.39s-.35,0-.35,0v-1.32c0-.1-.05-.34-.12-.42Z"/>
    <polygon points="33.29 3.39 33.3 3.69 32.17 3.69 32.17 5.07 31.78 5.06 31.78 2.2 33.42 2.2 33.42 2.5 32.17 2.5 32.17 3.39 33.29 3.39"/>
    <path d="M35.09,4.77v.31s-.6-.02-.6-.02c-.24,0-.46-.22-.47-.48v-1.27s-.26-.1-.26-.1v-.25s.25-.03.25-.03v-.61s.36,0,.36,0v.62s.73,0,.73,0v.3s-.72,0-.72,0v1.27c0,.09.13.26.23.26h.49Z"/>
    <path d="M36.23,4.72l-.41.88h-.31c.67-1.2.64-2.33,0-3.46l.33.02.35.72c.27.57.27,1.22.05,1.85Z"/>
    <path d="M26.07,5.59s-.27.04-.31-.03l-.35-.69c-.25-.67-.3-1.39.01-2.03l.35-.71h.32c-.59.97-.67,2.1-.18,3.12l.16.34Z"/>
  </g>
</svg>