<?xml version="1.0" encoding="UTF-8"?>
<svg id="Layer_1" data-name="Layer 1" xmlns="http://www.w3.org/2000/svg" viewBox="0 0 52.5 37.87">
  <g>
    <g>
      <path d="M20.56,18.61l-.39.33-.5.44-.48.4-3.29,3.28-.54.47-.66.6-.3.26c-.58.49-1.2.92-1.87,1.25l-1.09.54c-.99.49-2.08.7-3.19.75-.92.01-1.76-.11-2.61-.47l.04-.14c.76.22,1.47.27,2.26.24,1.15-.11,2.23-.45,3.24-1,.9-.5,1.74-1.02,2.49-1.71l.62-.57.94-.94.64-.68.51-.56.99-1.07.33-.35,1.07-1.06.33-.3c.86-.78,1.76-1.47,2.77-2.05.41-.23.81-.4,1.26-.57,2.97-1.17,6.3-1.05,9.15.38l.91.59.53.41c.76.6,1.59,1.64,2.08,2.5.74,1.32,1.15,2.77,1.2,4.29.06,1.6-.4,3.41-1.28,4.73-.54.81-1.16,1.55-1.93,2.14l-.43.33c-1,.76-2.32,1.25-3.64,1.42-.1.01-.13-.17,0-.13l1.29-.45c.86-.3,1.61-.8,2.25-1.44l.82-.81c.44-.54.83-1.1,1.16-1.72,1-1.89,1.04-4.32.29-6.32-.35-.93-.85-1.76-1.48-2.52-1.09-1.32-2.75-2.27-4.43-2.65-1.56-.35-3.14-.32-4.7.03s-3.14,1.17-4.33,2.16Z"/>
      <path d="M33.26,24.22c0,3.29-2.67,5.96-5.96,5.96s-5.96-2.67-5.96-5.96,2.67-5.96,5.96-5.96,5.96,2.67,5.96,5.96ZM31.97,24.21c0-2.9-2.35-5.25-5.25-5.25s-5.25,2.35-5.25,5.25,2.35,5.25,5.25,5.25,5.25-2.35,5.25-5.25Z"/>
      <path d="M5.52,34.87c-.5.65-.92,1.28-1.35,1.98-.03.05-.12.09-.24.1.41-1.48,1.44-3.51,2.42-4.63l.44-.5c1.36-1.56,3.26-2.76,5.24-3.34.91-.27,1.81-.4,2.75-.51,1.57-.17,2.8-.62,4.03-1.62.46-.41.8-.89,1.05-1.47,0,0,.14-.06.14-.03v.13c-.1.75-.41,1.45-.94,1.98l-.63.63c-.32.33-.73.54-1.14.75-.78.4-1.58.65-2.45.81-2.02.36-4.02.94-5.68,2.15-.46.34-.94.64-1.34,1.04l-1.29,1.29c-.38.38-.68.82-1.01,1.24Z"/>
    </g>
    <g>
      <path d="M28.46,12.17c-1.37-.12-3.13-.04-4.48.24s-2.24.67-3.37,1.34c-.03.02-.16,0-.15-.02.02-.03.06-.09.09-.11l.41-.36c1.73-1.51,4.59-2.18,6.89-2.19h1.13s1.07.04,1.07.04l3.48.23,1.37.07h1.81c.86,0,1.69-.1,2.52-.3l1.41-.35c1.14-.29,2.23-.64,3.39-.86.88-.17,1.74-.29,2.63-.29h1.6s-.1-1.92-.1-1.92c-.04-.69-.14-1.34-.29-2.01l.03-.1s.12,0,.14.01l.39.4c.78.78,1.12,2.51,1.13,3.73l.93.15s.04.18,0,.15l-.92.03-.02.35-.08,1.23-.09,1.39s-.19-.05-.21-.08c-.54-.95-.71-1.68-.87-2.79l-.7.05c-1.4.18-2.77.4-4.11.84l-1.6.53c-.8.26-1.55.56-2.37.76-1.59.38-3.18.53-4.81.39l-3.08-.26-3.14-.28Z"/>
      <path d="M39.39,15.76c-.9.93-1.37,2.6-1.32,3.89l-.17-.02c-.47-.66-.65-1.41-.59-2.23.17-1.64,1.21-3.04,2.75-3.64.73-.26,1.45-.28,2.2-.05l.05.15-.73.27c-.52.2-1.03.44-1.42.84l-.76.78Z"/>
    </g>
  </g>
  <path d="M26.87,2.67c.24.69.11,1.59-.56,1.93-.24.07-.52.15-.77.15h-.96s0-2.86,0-2.86h.9c.23,0,.49.06.73.12.3.14.55.34.67.67ZM26.5,2.84c-.09-.35-.39-.61-.74-.62l-.8-.03v2.28s.81-.03.81-.03c.64-.03.93-.8.73-1.59Z"/>
  <path d="M27.63,4.62c-.27-.25-.26-.72-.02-.98.12-.13.39-.23.55-.24l.71-.02c.04-.2-.1-.46-.36-.5-.32-.05-.61.01-.92.12v-.31c.33-.09.64-.16.97-.11.35.05.65.35.66.73l.02,1.44h-.34s-.03-.26-.03-.26c-.3.34-.86.48-1.25.13ZM28.8,4.17c.06-.15.08-.3.11-.49l-.73.03c-.21,0-.39.2-.39.38,0,.22.13.39.37.42s.53-.07.64-.34Z"/>
  <path d="M30.78,5.16c-.06.15-.25.37-.37.38l-.49.04v-.31c.11,0,.34,0,.4-.06.12-.1.22-.36.26-.5l-.86-2.08h.37s.67,1.64.67,1.64l.67-1.64h.37s-1.02,2.52-1.02,2.52Z"/>
  <path d="M33.73,4.38c-.16.48-.97.53-1.6.3v-.36c.57.26,1.24.28,1.28-.12.01-.11-.13-.28-.25-.31l-.61-.16c-.25-.06-.41-.29-.41-.55,0-.28.17-.52.46-.58.34-.08.68-.03,1.04.05v.34c-.48-.18-1.03-.22-1.16.11-.03.07.04.26.11.28l.52.15c.19.06.36.12.52.25.12.1.15.41.09.58Z"/>
  <polygon points="21.57 4.78 21.17 4.78 22.14 2.25 20.78 2.25 20.78 1.95 22.57 1.95 22.6 2.12 21.57 4.78"/>
</svg>