<?xml version="1.0" encoding="UTF-8"?>
<svg id="Layer_1" data-name="Layer 1" xmlns="http://www.w3.org/2000/svg" viewBox="0 0 52.75 33.62">
  <path d="M30.69,2.78c.19-.18.4-.3.67-.3.53,0,.86.38.9.87.05.6-.34,1.08-.96,1.07-.41,0-.74-.23-.88-.63-.29-.83-.15-1.96.64-2.25.33-.12.69-.06,1.01.03l-.02.33c-.29-.1-.56-.17-.86-.08-.21.06-.43.32-.45.52l-.05.44ZM31.79,3.08c-.1-.21-.31-.3-.51-.29-.17,0-.39.13-.47.33-.08.22-.08.51.02.72.11.23.34.31.57.29.4-.04.6-.62.39-1.05Z"/>
  <path d="M34.61,3.81c-.14.43-.5.63-.89.62-.94-.02-1.12-1.3-.85-2.25.12-.43.46-.68.85-.69.43-.01.79.25.91.69.14.52.15,1.09-.03,1.63ZM34.25,2.18c-.07-.25-.29-.41-.53-.4-.6.03-.67,1.17-.46,1.94.07.25.3.41.53.4.61-.03.68-1.19.47-1.95Z"/>
  <path d="M14.14,5.17h-.35s0-2.93,0-2.93h.34s.03.25.03.25c.19-.22.44-.35.76-.32.69.06,1,1.04.64,1.79-.13.27-.4.44-.64.46-.32.03-.56-.09-.78-.33v1.08ZM15.28,3.71c.07-.25.07-.56,0-.79-.07-.29-.29-.45-.55-.45-.22,0-.45.15-.53.4-.08.27-.08.59,0,.86.08.25.31.4.53.4.23,0,.46-.13.54-.42Z"/>
  <path d="M13.02,4.13c-.35.4-1.22.34-1.81.12v-.38c.38.19.79.32,1.21.22.23-.05.38-.25.39-.45s-.15-.41-.36-.46l-.62-.15c-.18-.04-.43-.18-.52-.34-.17-.29-.15-.66.07-.91.35-.4,1.03-.33,1.65-.19v.37c-.59-.26-1.28-.29-1.42.15-.04.11.02.39.14.44.49.2.95.17,1.24.45.3.3.32.8.04,1.12Z"/>
  <path d="M17.71,4.36v-1.39c0-.16-.11-.41-.27-.47-.16-.06-.41-.04-.55.05-.12.07-.27.3-.27.48v1.33s-.36,0-.36,0V1.43s.35,0,.35,0v1.07c.22-.19.39-.31.65-.32.44-.03.78.29.78.73l.02,1.46h-.36Z"/>
  <path d="M20.5,3.98v.29c-.73.27-1.54.2-1.8-.47-.14-.36-.12-.77.04-1.11s.52-.53.91-.53.74.2.86.59c.06.2.08.44.08.65h-1.61c-.02.34.21.69.6.71.3.02.5-.04.91-.14ZM20.23,3.11c.02-.42-.25-.63-.58-.64-.39,0-.65.29-.66.64h1.24Z"/>
  <path d="M24.44,4v.28c-.34.11-.67.18-1.02.13-.71-.1-1.02-.79-.81-1.53.13-.46.53-.71.99-.71.37,0,.71.18.84.55.07.21.09.46.1.69h-1.6c-.04.37.21.65.6.73l.91-.15ZM24.18,3.11c0-.36-.17-.57-.46-.62-.2-.04-.44.02-.6.17-.1.09-.17.31-.19.46h1.25Z"/>
  <path d="M27.81,3.94c.65.32,1.45.25,1.5-.32.02-.25-.1-.56-.38-.58l-.63-.06v-.28s.49-.01.49-.01c.25,0,.43-.19.44-.41.01-.21-.14-.43-.4-.46-.31-.04-.59.02-.94.11v-.32c.58-.13,1.25-.19,1.57.21.14.17.17.42.12.64-.04.16-.24.32-.44.41.34.11.55.36.54.7,0,.39-.22.7-.61.81-.42.12-.87.07-1.28-.06v-.36Z"/>
  <polygon points="36.89 2.69 36.9 2.99 35.76 2.99 35.76 4.36 35.38 4.36 35.38 1.5 37.01 1.5 37.02 1.8 35.76 1.8 35.76 2.69 36.89 2.69"/>
  <path d="M38.69,4.07v.3s-.66-.03-.66-.03c-.21-.01-.4-.25-.4-.47v-1.32s-.27-.04-.27-.04v-.27s.26-.01.26-.01v-.62s.35,0,.35,0v.62s.73,0,.73,0v.3s-.73,0-.73,0v1.25c0,.08.1.26.17.27l.55.02Z"/>
  <path d="M39.76,4.2l-.36.71-.3-.04c.66-1.09.67-2.3.01-3.42l.31-.02.33.68c.31.65.29,1.4,0,2.08Z"/>
  <path d="M27.18,4.86l-.3.04c-.52-.83-.76-1.97-.34-2.79l.36-.7.3.03c-.64,1.06-.68,2.28-.01,3.42Z"/>
  <path d="M21.51,4.36h-.35s0-2.12,0-2.12h.35s.03.25.03.25c.22-.29.49-.34.87-.32v.35c-.18-.05-.41-.06-.58.02-.14.07-.3.32-.3.5v1.33Z"/>
  <g>
    <path d="M36.21,22.66c0,4.93-4,8.93-8.93,8.93s-8.93-4-8.93-8.93,4-8.93,8.93-8.93,8.93,4,8.93,8.93ZM35.13,22.65c0-4.6-3.73-8.33-8.34-8.33s-8.34,3.73-8.34,8.33,3.73,8.33,8.34,8.33,8.34-3.73,8.34-8.33Z"/>
    <path d="M14.45,19.99l-.17.02c.22-.45.43-.79.55-1.24l.18-.7c.4-1.58-.11-3.23-1.27-4.35l-.48-.46-.6-.53-.5-.44c-.64-.56-1.24-1.18-1.64-1.92-1.42.81-2.82,1.53-4.29,2.19-1.28.55-2.5,1.02-3.83,1.43l-.09-.11,15.08-8.71.05.13-.68.61-.47.41-.38.31-.38.31c-1.45,1.19-2.98,2.19-4.62,3.17.07.11.17.23.27.31.24.21.47.42.72.6l1.65,1.17c.43.3.82.63,1.18,1.01,1.81,1.88,1.68,4.98-.29,6.77Z"/>
    <path d="M47.58,31.51c.49,0,.92-.02,1.41.09-.95.35-1.86.54-2.82.61h-1.26c-1.14,0-2.95-.71-3.8-1.51l-.49-.46c-1.52-1.43-1.77-4.23-.08-5.78.33-.3.73-.47,1.18-.61l.11.12c-.28.17-.51.29-.7.52l-.31.38c-.21.26-.33.57-.42.89-.53,1.82.32,3.38,1.84,4.43.69.48,1.45.79,2.26,1,.88.23,1.76.29,2.67.3h.42Z"/>
    <path d="M29.68,20.99c-1.23,1.05-3.1,1.2-4.54.81-.52-.14-1.23-.44-1.59-.83l1.08-.04,1.2-.04.03-.98.05-1.46,1.68.11,1.06.11c-.52.49-1.12.64-1.73.8-.11.5-.28.96-.51,1.43h1.31s.84.03.84.03l1.11.06Z"/>
    <path d="M30.49,27.9c-.67.06-1.63-.22-2.04-.63l-.44-.44-.43-.67c-.5.8-1.24,1.57-2.26,1.83l.29-.52c.69-1.08,1.29-2.2,1.72-3.41l.29-.8,1.2.44.68.24s-.16.12-.21.12l-.98.05-.3,1.21,2.28,2.31.21.28Z"/>
    <path d="M24.61,25.59c-.76-.22-.92-.89-.8-1.7l1.16.69s.16-.09.19-.13l.49-.5.61-.42c.07-.05.22-.08.39-.1l-.49,1.33c-.32.88-.89,1.62-1.56,2.34-.14-.55-.09-1.02,0-1.52Z"/>
    <path d="M25.23,20.53c-1.04-.55-1.37-1.81-.65-2.72l.52-.5.14.9c.04.77.05,1.48-.02,2.33Z"/>
    <path d="M30.45,20.37c-1.02.11-2.04.12-3.1.09.41-.82,1.18-1.23,2.06-1.01.42.2.77.4,1.04.91Z"/>
  </g>
</svg>