<?xml version="1.0" encoding="UTF-8"?>
<svg id="Layer_1" data-name="Layer 1" xmlns="http://www.w3.org/2000/svg" viewBox="0 0 52.75 33.62">
  <g>
    <path d="M15.8,14.65c.6,1.82.1,3.89-1.42,5.15l-.07-.09c1.26-2.16,1.12-4.74-.72-6.42l-.82-.75-.37-.32-.57-.5-.4-.4-.24-.27c-.24-.28-.44-.6-.65-.93-2.59,1.47-5.15,2.7-8.01,3.59-.06-.02-.16-.06-.19-.08l15.03-8.69.09.1-.94.85-.51.44c-1.42,1.21-2.95,2.24-4.54,3.22l-.57.35.52.49.27.22.79.59c.8.59,1.83,1.19,2.46,1.99l.25.32c.27.34.45.75.59,1.16Z"/>
    <g>
      <path d="M37.23,29.86l-1.06-.32-1.51-.49c-2.28-.74-4.42-1.77-6.52-2.93-2.89-1.6-5.56-3.49-8.01-5.7l-.3-.27-.9-.87-.48-.48s-.06-.11-.08-.14.11,0,.14.02l.96.64,3.27,2.19c1.57,1.05,3.13,2.04,4.76,3l.88.52c1.97,1.16,3.97,2.2,6.01,3.25l.75.38,2.08,1.07v.14Z"/>
      <path d="M48.8,31.43c-.89.26-1.77.44-2.7.55l-1.14-.02c-.6,0-1.2-.16-1.77-.35-.66-.21-1.26-.54-1.81-.94l-.7-.62c-.45-.4-.74-.91-.99-1.46-.83-1.84-.04-4.44,1.92-4.95h.19s-.02.11-.06.13c-1.38.74-1.89,2.7-1.2,4.24.27.61.72,1.14,1.22,1.57,1.15.99,2.71,1.47,4.21,1.6l1.74.05,1.11.02s.11.1.09.11l-.12.06Z"/>
    </g>
  </g>
  <polygon points="23.07 1.23 23.07 4.1 22.55 4.1 21.29 1.71 21.28 4.1 20.91 4.1 20.91 1.23 21.43 1.22 21.9 2.11 22.52 3.3 22.7 3.55 22.7 1.23 23.07 1.23"/>
  <path d="M29.35,3.83c.36.08.7,0,1.01-.16l.02.33c-.71.27-1.54.21-1.8-.44-.15-.37-.13-.81.04-1.15s.5-.5.87-.52c.41-.01.77.2.9.61.05.18.07.4.08.62h-1.61c-.01.32.15.62.49.69ZM30.11,2.85c0-.43-.27-.64-.62-.64-.37,0-.62.28-.63.64h1.24Z"/>
  <path d="M25.52,3.47c-.12.46-.49.69-.91.7-.47,0-.86-.28-.95-.75-.05-.23-.05-.53,0-.76.1-.47.49-.76.95-.75.43,0,.79.24.91.67.07.26.08.61,0,.89ZM25.11,3.52c.13-.32.12-.68,0-.98-.09-.21-.33-.33-.53-.33s-.42.14-.5.36c-.12.3-.12.64,0,.94.09.22.3.35.5.36s.44-.12.54-.35Z"/>
  <path d="M27.45,2.36c-.16-.19-.44-.17-.63-.09-.15.06-.33.3-.33.51v1.32s-.36,0-.36,0V1.98s.34,0,.34,0l.03.27c.3-.36.84-.47,1.21-.11.12.11.21.42.21.59v1.39s-.35,0-.35,0v-1.32c0-.1-.05-.34-.12-.42Z"/>
</svg>