<?xml version="1.0" encoding="UTF-8"?>
<svg xmlns="http://www.w3.org/2000/svg" viewBox="0 0 100 100">
  <g transform="translate(50 50) scale(1.31514) translate(-14.9900 -40.3350)">
  <path d="M8.11,42.79c-.13.48-.63.94-1.2.9-.35-.03-.66-.1-1.03-.23l.81-.91c.24-.27.41-.58.61-.98l1.4.51.99.36c-.81.3-1.47-.03-1.58.36Z"/>
  <path d="M14.2,33.12l-2.57-.91-7.17-2.59c.56-2.02,2.01-3.77,3.57-5.05l1.86-1.54.54-.45c2.3-2.14,4.17-4.54,5.88-7.29-1.92-1.18-3.72-2.34-5.32-3.84l-1.53-1.43.21-.1,15.85,9.19c-2.14-.29-3.93-1.22-5.82-2l-3.08-1.63c-.99,2.41-2.31,4.59-3.98,6.56-.98,1.16-2.02,2.12-3.18,3.08-1.29,1.06-2.54,2.33-3.38,3.82,2.09.92,4.04,1.75,6,2.83l1.93,1.06c.05.03.16.21.19.28Z"/>
  <path d="M13.84,64.94c1.29,1.87,2.37,3.76,3.45,5.81l-.23-.02-3.89-4.9-1.46-1.73-2-2.17-.74-.81c-1.65-1.8-3.09-4.38-2.7-6.79l.24-1.52,3.49-.1h2.34s2,.07,2,.07c.41.01.77.05,1.15.21l-3.19.4-4.81.55c-.32,2.76,1.16,4.83,2.96,6.81,1.22,1.35,2.34,2.68,3.38,4.19Z"/>
  <path d="M5.97,49.54c-.14-.04-.23-.27-.02-.23,3.8.37,7-2.66,6.72-6.39-.18-2.41-1.28-4.24-3.17-5.7-1.37-1.06-2.89-1.6-4.62-2.17,2.68-.17,5.71,1.18,7.39,3.24,1.49,1.83,2.1,4.2,1.58,6.51-.62,2.75-2.83,4.69-5.62,4.95-.32.03-.72.06-1,0l-1.26-.22Z"/>
  </g>
</svg>
