<?xml version="1.0" encoding="UTF-8"?>
<svg id="Layer_1" data-name="Layer 1" xmlns="http://www.w3.org/2000/svg" viewBox="0 0 49.05 39">
  <path d="M25.46,4.53v.65s-.38.02-.38.02v-.66s-1.29,0-1.29,0c0-.13,0-.35.05-.43l1.13-1.75h.49s0,1.88,0,1.88h.4s0,.31,0,.31h-.41ZM25.08,4.23v-1.53s-.97,1.53-.97,1.53h.97Z"/>
  <g>
    <path d="M36.3,36l-1.88,1.06-.13-.1.75-.69.39-.35.51-.44c.88-.75,1.78-1.43,2.76-2.05l1.7-1.07.19-.15-.43-.73-.72-1.16-1.1-1.72-.71-1.23-.31-.63-.6-1.4-.58-1.43c-.49-1.22-1.29-2.96-2.12-3.9l-.35-.4-.74-.69c-1.66-1.4-3.79-2-5.95-1.69-.84.12-1.63.28-2.44.51l-1.27.36c-1.09.31-2.14.61-3.26.8-1.52.25-3.2.17-4.6-.44-.96-.42-1.75-1.25-2.3-2.14l-1.17-1.9c-.18-.29-.39-.57-.61-.83l-.25-.31c-.25-.3-.52-.56-.82-.81-1.66-1.44-3.98-2.04-6.16-2.16l-1.43-.08v1s0,1.55,0,1.55c-.06,0-.16-.05-.18-.08l-.2-.42c-.31-.63-.5-1.27-.61-1.96l-.13-.14c.04-.08.09-.2.08-.26-.11-1.56.16-3.31,1.66-3.88.55-.2,1.12-.15,1.61.18l.07.1s-.08.08-.11.08c-.79-.11-1.46.28-1.8.98-.17.4-.3.83-.32,1.28l-.08,1.36c2.33-.13,4.73.03,6.78,1.07.37.19.73.39,1.05.64l.66.53c.27.22.5.46.72.72l.48.59.64.93c.4.59.73,1.21,1.2,1.75l.35.41.26.24c.3.28.65.49,1.03.66,1.56.7,3.86.43,5.54-.04l.99-.28,1.79-.53c.9-.26,1.78-.43,2.72-.55,2.71-.34,5.3.53,7.19,2.46l.6.66c.9,1.01,1.8,3.12,2.28,4.48l.43,1.21.38,1.07c.33.94.79,1.79,1.27,2.66l1.02,1.86.76,1.57c1.56-.89,3.11-1.64,4.75-2.3l2.5-.83s.14.01.13.04-.06.1-.09.12l-.99.59-1.07.64-4.39,2.56-1.83,1.05-1.48.84-1.63.93-.38.22Z"/>
    <path d="M19.94,13.47c0,.97-.79,1.76-1.76,1.76s-1.76-.79-1.76-1.76.79-1.76,1.76-1.76,1.76.79,1.76,1.76ZM18.81,13.47c0-.61-.5-1.11-1.11-1.11s-1.11.5-1.11,1.11.5,1.11,1.11,1.11,1.11-.5,1.11-1.11Z"/>
    <path d="M31.18,21.68c0,.97-.79,1.76-1.76,1.76s-1.76-.79-1.76-1.76.79-1.76,1.76-1.76,1.76.79,1.76,1.76ZM29.73,22.45c.37-.36.41-.97.13-1.39-.38-.57-1.14-.65-1.67-.22-.26.21-.43.67-.37.99.08.44.36.76.73.89.4.14.83.07,1.17-.27Z"/>
  </g>
</svg>