<?xml version="1.0" encoding="UTF-8"?>
<svg id="Layer_1" data-name="Layer 1" xmlns="http://www.w3.org/2000/svg" viewBox="0 0 52.5 45.69">
  <path d="M19.71,5.44v-.4c.34.14.68.21,1.02.11s.44-.49.44-.88c-.3.28-.55.4-.93.35-.7-.08-1.01-1-.74-1.81.11-.34.41-.57.68-.63.41-.08.72.06.97.35l.02-.3h.38s0,2.26,0,2.26c0,.24-.1.54-.26.74-.29.38-.97.35-1.59.21ZM21.11,3.78c.17-.64-.05-1.27-.59-1.29-.26-.01-.52.13-.62.42s-.1.67,0,.95.37.43.62.42.5-.17.59-.5Z"/>
  <path d="M33.78,5.44v-.4c.33.14.69.21,1.02.11.35-.1.45-.49.45-.89-.31.27-.55.39-.93.35-.7-.08-1.01-1-.74-1.81.11-.34.41-.57.68-.63.41-.08.72.06.97.35l.02-.3h.38s0,2.26,0,2.26c0,.24-.1.54-.26.74-.29.38-.97.35-1.59.21ZM35.18,3.78c.17-.64-.05-1.27-.59-1.29-.26-.01-.52.13-.62.42s-.1.67,0,.95.37.43.62.42.5-.17.59-.5Z"/>
  <path d="M23.96,4.61v-1.55c0-.12-.1-.38-.19-.46-.18-.14-.52-.12-.7-.02-.15.08-.33.35-.33.56v1.48s-.4,0-.4,0V1.31s.4,0,.4,0v1.22c.37-.42.96-.54,1.39-.14.13.12.23.47.23.66v1.56s-.4,0-.4,0Z"/>
  <path d="M28.33,2.66c-.17-.21-.51-.19-.71-.1-.17.07-.37.34-.37.58v1.48s-.4,0-.4,0v-2.39s.38,0,.38,0l.04.3c.34-.41.94-.53,1.36-.13.13.13.23.47.23.66v1.56s-.4,0-.4,0v-1.48c0-.12-.06-.38-.14-.48Z"/>
  <path d="M32.3,2.62c-.19-.17-.52-.15-.72-.04-.15.08-.33.34-.33.56v1.48s-.4,0-.4,0v-2.38s.38,0,.38,0l.04.3c.31-.4.89-.53,1.33-.16.14.11.26.44.26.62v1.63s-.39,0-.39,0v-1.54c0-.11-.08-.37-.17-.45Z"/>
  <polygon points="17.97 4.28 17.99 4.62 15.99 4.62 15.99 1.44 16.42 1.41 16.42 4.28 17.97 4.28"/>
  <path d="M26.34,4.28v.35s-.7-.04-.7-.04c-.26-.01-.49-.28-.49-.55v-1.46s-.3-.04-.3-.04v-.31s.29-.03.29-.03v-.69s.4,0,.4,0v.7s.81,0,.81,0v.34s-.82,0-.82,0v1.44c0,.1.18.28.28.28h.52Z"/>
  <rect x="29.65" y="2.23" width=".4" height="2.39"/>
  <rect x="18.35" y="2.23" width=".39" height="2.39"/>
  <rect x="29.65" y="1.31" width=".4" height=".49"/>
  <rect x="18.35" y="1.31" width=".39" height=".49"/>
  <g>
    <path d="M12.61,31.37c-2.89.64-5.71.78-8.67.82l-.02,1.42-.08,2.67-.06,1.06-.08,1.11c-.1,1.43-.27,2.83-.52,4.25l-.3,1.7-.18.15v-.97s-.03-1.87-.03-1.87l-.02-2.62v-13.14s.02-3.11.02-3.11l.02-1.69v-.95s.17,0,.17,0c.27,1.41.55,2.8.68,4.24l.18,1.99.05.78.06,1.19.05,1.48.05,2.02,1.94-.23c2.86-.33,5.78-.84,8.48-1.86.72-.27,1.38-.61,2.05-.98,1.58-.89,3.08-2.26,3.97-3.84s1.26-3.16,1.31-5.04-.52-4.17-.98-6.07l-.8-3.32c.28.32.46.63.7.96l.63.91,1.15,1.66.43.63,2.57,3.89.53.88.96,1.71.59,1.11,1,2.02.87,1.95.73,1.81.5,1.4.77,2.56h-.14s-1.03-2.45-1.03-2.45l-.46-1.01-.66-1.38-.78-1.54-.99-1.82-.8-1.39-.61-1.01-1.14-1.81-.53-.81-.94-1.38-.6-.85c.1.74.21,1.37.27,2.08.14,1.83,0,3.62-.67,5.34-.24.62-.48,1.21-.86,1.75l-.79,1.11-.35.42-.74.74-.73.61c-1.6,1.32-4.1,2.25-6.16,2.71Z"/>
    <path d="M30.67,20.69l-.9-1.77-1.01-1.87-.8-1.43.09-.12.35.48.73,1.03.93,1.39.76,1.21.99,1.68.7,1.27.97,1.91.65,1.39.93,2.16.89,2.25c.01-1.97.13-3.78.54-5.64.34-1.51.98-3.63,1.65-4.97l.94-1.88.57-.98,1.14-1.67.75-.94.46-.53.74-.81,1.7-1.75.28-.29,2.12-2.3.96-1.22,1.18-1.81s.07.2.04.26l-.81,1.59c-.65,1.1-1.35,2.08-2.16,3.05l-.77.92-.88,1.02-.88,1.02-.51.62-.81,1.02-.56.78-.83,1.29-.68,1.22-1.07,2.31-.74,2.08c-.42,1.2-.64,2.4-.84,3.67-.21,1.35-.32,2.65-.27,4.01l.13,3.17.29,5.13.05,1.53-.63-2-.56-1.89-.81-2.71-.84-2.68-.65-1.96-.87-2.3-.72-1.75-.75-1.71-.47-1-.74-1.51Z"/>
  </g>
</svg>