<?xml version="1.0" encoding="UTF-8"?>
<svg id="Layer_1" data-name="Layer 1" xmlns="http://www.w3.org/2000/svg" viewBox="0 0 49.05 39">
  <g>
    <path d="M36.02,35.79l1.19-.97.53-.41.4-.29,1.5-1.01.81-.51.46-.29-.75-.95-.53-.66-1.12-1.38-.73-.9-.26-.31-2.32-2.81-.23-.28-1.33-1.62-.59-.73-.53-.66c-.11-.13-.22-.23-.23-.45.89.6,1.68,1.22,2.45,1.93l.88.82.69.69.4.42c1.24,1.32,2.32,2.75,3.29,4.28l.7,1.19.58,1.2c2.36-1.32,4.67-2.4,7.29-3.14.03,0,.07.05.09.12l-13.72,7.93s-.14.02-.13,0,.05-.11.07-.14l.77-.74.39-.34Z"/>
    <g>
      <path d="M24.9,12.95c1.03-.56,2.25-.4,3.28,0l1.03.62.67.7c1.54,1.92,1.22,4.79-.5,6.57l-.56.51c-.53.49-1.19.78-1.88,1-1.67.54-3.46.33-5.04-.41s-2.66-1.95-3.65-3.36l-1.32-1.88c-.58-.82-1.22-1.56-1.98-2.21l-.96-.81c-3.08-2.37-6.96-3.33-10.82-3.46l.02,2.39-.04.14s-.12-.04-.13-.07l-.35-.75c-.25-.53-.37-1.09-.47-1.66l-.12-.13c.04-.09.08-.2.07-.28-.09-1.4.1-2.93,1.29-3.69,1.1-.7,2.27.09,2.06.14-.41.1-1.05-.17-1.81.79-.23.47-.4.96-.43,1.49l-.09,1.38c4.38-.23,8.73.72,12.13,3.53l.34.28c.51.42.95.88,1.38,1.38l.44.5.23.28.38.5.97,1.35.9,1.17c.3.39.66.71,1.03,1.03,1.55,1.34,3.68,1.96,5.66,1.39.41-.12.83-.27,1.17-.51l.63-.44.69-.68.5-.75c.39-.58.48-1.26.51-1.95.05-1-.26-1.93-.89-2.7-.21-.25-.45-.47-.7-.67-1.04-.81-2.25-.97-3.62-.73Z"/>
      <path d="M26.43,16.87c0,.97-.79,1.76-1.76,1.76s-1.76-.79-1.76-1.76.79-1.76,1.76-1.76,1.76.79,1.76,1.76ZM25.3,16.87c0-.61-.5-1.11-1.11-1.11s-1.11.5-1.11,1.11.5,1.11,1.11,1.11,1.11-.5,1.11-1.11Z"/>
    </g>
  </g>
  <path d="M25.61,5.1c-.39.1-.79.04-1.16-.05v-.36c.34.13.65.21.99.14.27-.06.43-.29.46-.55.03-.3-.09-.59-.39-.69s-.62-.05-.95.08v-1.4s1.51,0,1.51,0v.3s-1.16,0-1.16,0v.69c.26-.04.55-.05.81.05.39.15.57.51.56.91s-.23.77-.68.88Z"/>
</svg>