<?xml version="1.0" encoding="UTF-8"?>
<svg id="Layer_1" data-name="Layer 1" xmlns="http://www.w3.org/2000/svg" viewBox="0 0 52.5 37.31">
  <g>
    <path d="M9.52,25.77c-1,0-1.93-.1-2.9-.21-1.14-.15-2.21-.36-3.31-.65l-.11-.05s.02-.07.06-.11c2.03.19,4.02.22,6.05.12l.62-.04.74-.06c1.93-.16,4.58-.67,6.43-1.27l1.71-.55,1.79-.72,1.43-.65c1.05-.47,2.03-1.02,2.99-1.64l1.34-.85,1.75-1.25,1.17-.9.12-.05s.01.12,0,.13l-.59.63-.91.92-.45.42-1.14.99-.35.27-.9.67c-1.6,1.19-3.69,2.27-5.56,3.02-2.14.85-4.83,1.53-7.12,1.71l-.8.06-1.25.05h-.8Z"/>
    <path d="M8.72,33.7c-.46.55-.85,1.1-1.23,1.68l-.53.82-.12-.13c.36-1.05.77-2.01,1.34-2.95s1.7-2.29,2.53-2.91l.54-.4c1.69-1.26,3.66-1.74,5.73-1.98,1.48-.17,3.06-.79,4-1.94.23-.28.36-.57.56-.92l.11.12c-.15.65-.37,1.23-.79,1.74-1.01,1.23-2.45,1.84-4.01,2.12s-3.17.72-4.49,1.52c-.59.36-1.17.73-1.68,1.2l-.59.54-.72.72-.35.4-.3.37Z"/>
    <g>
      <path d="M33.69,14.3c-2.91-.07-5.54-.76-8.42.02-.56.15-1.06.34-1.57.63-1.7.95-2.79,2.69-2.92,4.65-.02.32.05.63-.08.95-.66-2.1.27-4.48,1.89-5.83.46-.38.93-.73,1.47-.97,1.91-.85,3.96-1,6.05-.86l2.71.18c3.07.2,6.58-.23,9.5-1.17l1.57-.51c.84-.27,1.69-.4,2.58-.4h1.06c.05,0,.14-.09.14-.15l-.09-1.77-.26-1.75c.01-.06.2-.04.25.02l.35.42c.75.9.92,2.12.95,3.3l.94.14-.1.14h-.84s-.03.75-.03.75l-.11,1.89-.12.16-.31-.56c-.32-.58-.38-1.26-.54-1.91l-.06-.26-1.9.25c-.53.07-1.06.23-1.56.43l-1.92.77c-1.15.46-2.32.73-3.54.98-1.69.35-3.35.49-5.08.45Z"/>
      <path d="M17.45,16.92c0,3.03-2.46,5.49-5.49,5.49s-5.49-2.46-5.49-5.49,2.46-5.49,5.49-5.49,5.49,2.46,5.49,5.49ZM16.25,16.91c0-2.67-2.17-4.84-4.84-4.84s-4.84,2.17-4.84,4.84,2.17,4.84,4.84,4.84,4.84-2.17,4.84-4.84Z"/>
    </g>
  </g>
  <path d="M27.4,4.47c.2.82-.01,1.7-.82,1.89-.23.06-.49.09-.72.09h-.79s0-2.86,0-2.86h.92c.65,0,1.26.26,1.41.88ZM27.01,4.59c-.13-.68-.81-.75-1.56-.71v2.27s.82-.03.82-.03c.62-.03.88-.74.74-1.52Z"/>
  <path d="M21.53,6.22c-.44-.55-.44-1.79-.01-2.35.21-.28.55-.34.89-.28.27.05.56.3.65.63.25.85.13,2.08-.61,2.25-.34.08-.69.04-.93-.26ZM22.68,4.24c-.07-.23-.29-.38-.5-.37-.2,0-.41.16-.48.39-.24.78-.13,1.95.48,1.96.65,0,.74-1.19.5-1.98Z"/>
  <path d="M28.71,6.51c-.48.03-.77-.27-.78-.7,0-.34.24-.67.61-.7l.84-.06c.02-.2-.13-.44-.36-.48-.32-.06-.6,0-.93.12v-.32c.34-.1.66-.15.99-.1.35.05.63.36.64.73l.02,1.44h-.35s-.05-.25-.05-.25c-.17.18-.37.3-.64.31ZM29.32,5.81l.08-.44-.77.04c-.23.01-.37.24-.35.44.02.17.17.34.38.36.27.02.6-.09.65-.4Z"/>
  <path d="M31.28,6.83c-.05.13-.22.37-.33.39l-.54.06v-.31c.13,0,.35,0,.41-.07.11-.1.22-.36.25-.51l-.85-2.06h.37s.67,1.64.67,1.64l.67-1.65h.37s-1.02,2.51-1.02,2.51Z"/>
  <polygon points="18.97 6.45 18.94 6.16 19.57 6.14 19.57 3.96 18.89 4.09 18.89 3.73 19.56 3.61 19.95 3.6 19.96 6.15 20.59 6.15 20.58 6.45 18.97 6.45"/>
  <path d="M34.23,6.07c-.17.5-.96.53-1.6.32v-.36c.57.28,1.25.26,1.28-.11,0-.12-.11-.29-.23-.32l-.61-.16c-.32-.08-.48-.37-.41-.7.12-.51.8-.55,1.45-.39l.03.34c-.57-.2-1.16-.16-1.17.18,0,.09.12.25.2.27l.47.12c.15.04.34.11.47.22.15.12.18.43.12.6Z"/>
</svg>