<?xml version="1.0" encoding="UTF-8"?>
<svg xmlns="http://www.w3.org/2000/svg" viewBox="0 0 100 100">
  <g transform="translate(50 50) scale(1.71895) translate(-23.2100 -21.4768)">
  <path d="M34.75,35.13c1.27-1.05,2.59-1.89,4.01-2.75l-.82-.78-1.08-1.05c-.68-.66-1.29-1.33-1.87-2.07-.85-1.09-1.78-2.68-2.17-3.97l-.7-2.37-.43-1.88-.52-2.36-.4-1.54-.5-1.5-.43-1.01-.4-.79c-.31-.61-.71-1.13-1.18-1.65-.58-.64-1.25-1.19-2.01-1.61-1.57-.87-3.9-.99-5.63-.46-.42.13-.82.33-1.2.56-1.04.64-1.78,1.58-2.12,2.76-.43,1.49.18,3.25,1.52,4.18l-.1.08c-1.82-1.03-2.47-3.3-1.73-5.18.12-.31.25-.61.44-.88l.36-.51c.23-.32.54-.59.85-.84,1.82-1.47,4.47-1.73,6.71-1.14.82.21,1.52.52,2.21,1.01,1.39.97,2.46,2.28,3.19,3.82l.52,1.24.45,1.37c.38,1.17.58,2.36.81,3.57l.25,1.32c.46,2.39,1.13,5.19,2.52,7.18l.41.59.35.46.76.93.47.54.5.56.44.5.44.5.29.33,1.35-.75,1.25-.63c1.55-.78,3.12-1.36,4.82-1.85.04.01.1.08.1.12l-11.13,6.47-2.57,1.45s-.15-.06-.13-.08l.55-.54.31-.28.4-.35.41-.35.43-.36Z"/>
  <path d="M25.95,13.75l-.52-.55c.38.02.9.58,1.17.93,1.1,1.49,1.16,3.52.19,5.11-.36.59-.81,1.11-1.39,1.49l-.57.37c-2.07,1.2-4.65,1.18-6.73,0-.36-.2-.69-.42-.99-.7l-.58-.54-.55-.58-.29-.34c-.69-.82-1.24-1.71-1.85-2.59l-.46-.67c-.49-.71-1.04-1.32-1.69-1.88-3.01-2.59-6.76-3.36-10.67-3.56l.02,2.27c0,.07-.04.21-.1.3-.44-.74-.71-1.47-.86-2.32-.02-.11-.09-.25-.14-.33,0,0,.07-.17.07-.23-.05-.75,0-1.57.22-2.3.35-1.13,1.39-1.95,2.56-1.65.52.13.69.42.47.39-1.34-.15-2.05.92-2.14,2.24l-.1,1.38.62-.03c2.11-.1,4.19.11,6.22.71,1.61.48,3.28,1.32,4.54,2.41l.51.44.55.57.38.43c.89,1.02,1.75,2.58,2.64,3.62l.49.58.66.66.45.37.72.47c.57.38,1.88.75,2.59.75h.7c.45,0,.87-.1,1.3-.22,1.25-.36,2.4-1.16,3.04-2.29.86-1.52.7-3.41-.46-4.74Z"/>
  <path d="M4.23,8.34l-1.52-.31c-.08,0-.08-.15,0-.15l1.34.04,1.5.05,1.35.05c1.29.05,2.54.06,3.82,0,1.77-.08,3.21-.41,4.89-.9l1.36-.4,1.33-.37c.86-.24,1.73-.4,2.64-.47.57-.04,1.12-.03,1.7,0,.54.02,1.07.14,1.58.28.3.08.58.2.83.41-1.02-.17-1.93-.26-2.92-.14-3.01.36-5.28,1.61-7.98,2.23-3.25.74-6.61.33-9.9-.34Z"/>
  <path d="M27.99,25.19l2.42-.31s.02.13-.01.14l-.77.32-1.39.44c-.59.19-1.2.29-1.82.31l-1.34.05c-1.3.05-3.02-.31-4.26-.77-.96-.36-1.84-.81-2.68-1.39s-1.61-1.21-2.27-1.99l-.38-.44c-.27-.32-.49-.61-.71-1.02.28.11.43.29.64.46l.38.31.53.41,1.53,1.04.88.5.96.48,1.15.48,1.04.35c1.03.35,2.1.54,3.19.62l.58.04h1.73s.61-.03.61-.03Z"/>
  <path d="M23.41,17.45c0,.97-.79,1.76-1.76,1.76s-1.76-.79-1.76-1.76.79-1.76,1.76-1.76,1.76.79,1.76,1.76ZM23.25,17.45c0-.61-.5-1.11-1.11-1.11s-1.11.5-1.11,1.11.5,1.11,1.11,1.11,1.11-.5,1.11-1.11Z"/>
  <path d="M24.34,12.03c0,.97-.79,1.76-1.76,1.76s-1.76-.79-1.76-1.76.79-1.76,1.76-1.76,1.76.79,1.76,1.76ZM23.2,12.03c0-.61-.5-1.11-1.11-1.11s-1.11.5-1.11,1.11.5,1.11,1.11,1.11,1.11-.5,1.11-1.11Z"/>
  </g>
</svg>
