<?xml version="1.0" encoding="UTF-8"?>
<svg id="Layer_1" data-name="Layer 1" xmlns="http://www.w3.org/2000/svg" viewBox="0 0 52.75 33.51">
  <g>
    <g>
      <path d="M22.09,27.89c.34.05.64.05.99.14-1.66.59-3.64.03-4.94-1.15-1.84-1.67-2.01-4.76-.46-6.68.8-.99,1.85-1.6,3.12-1.77l.86-.03c.05,0,.17.09.18.13-1.79.29-3.34,1.5-3.9,3.23-.38,1.16-.32,2.38.23,3.46.74,1.46,2.29,2.44,3.93,2.67Z"/>
      <path d="M27.95,21.87c-.1.36-.33.72-.71.81s-.77.02-1.14-.14l.39-.43.18-.2c.24-.27.41-.53.57-.88l.88.33.92.31s.03.13-.01.13l-1.08.08Z"/>
    </g>
    <path d="M14.5,20.2c.63-1.28.82-2.7.34-4.06-.35-1-.99-1.71-1.79-2.4l-.44-.38-.44-.38c-.36-.32-.69-.63-1.01-1s-.65-.98-.69-.95l-.08.08-2.03,1.1-.8.39c-1.39.68-2.76,1.31-4.25,1.76l-.95.29s-.04-.13-.01-.13l13.88-8.02c.44-.25.79-.46,1.26-.66-.28.37-.54.6-.85.87-1.39,1.19-2.83,2.27-4.38,3.25l-1.37.86c1.49,1.57,3.65,2.23,4.63,4.2s.48,4.33-1.17,5.7l-.09-.05.23-.46Z"/>
    <g>
      <path d="M36.46,25.47c-.48.16-.94.32-1.47.27.79-.38,1.46-.72,2.02-1.31,1.04-1.09,1.52-2.55,1.28-4.03-.18-1.09-.69-2.02-1.55-2.72-.93-.75-2.08-1.15-3.29-1.17l-1.34.05c.42-.27.82-.39,1.27-.47,1.25-.25,2.5-.02,3.61.6.47.26.85.59,1.2.99,1.25,1.43,1.57,3.62.79,5.33-.51,1.13-1.36,1.95-2.52,2.46Z"/>
      <path d="M47.57,32.17l1.42.06c-.49.26-.92.35-1.41.43l-1.28.2h-1.51c-.63,0-1.25-.2-1.83-.41-.93-.34-1.74-.88-2.4-1.6-1.35-1.49-1.6-3.47-.52-5.15.43-.58.96-1,1.69-1.15l.1.09c-1.52.82-1.96,2.8-1.27,4.33.14.3.32.64.56.87l.75.75c1.24,1.03,3.08,1.53,4.68,1.56l1.02.02Z"/>
    </g>
  </g>
  <path d="M23.64,4.82c-.18.23-.43.34-.75.3-.24-.02-.5-.21-.63-.48-.34-.74-.03-1.7.63-1.77.33-.03.55.07.78.32v-1.08s.36,0,.36,0v2.93s-.34,0-.34,0l-.06-.25ZM23.61,3.56c-.08-.22-.29-.37-.48-.39-.22-.02-.45.09-.54.31-.14.32-.14.71,0,1.03.1.22.32.33.54.32.48-.04.67-.7.48-1.27Z"/>
  <path d="M25.42,4.78c.36.1.71.01,1.06-.12l.03.31c-.36.13-.74.2-1.11.12-.69-.15-.94-.9-.71-1.57.14-.41.49-.64.92-.65s.81.22.92.65l.06.58h-1.6c-.01.31.12.58.44.67ZM26.23,3.81c0-.38-.21-.58-.49-.63-.41-.05-.74.22-.75.64h1.24Z"/>
  <path d="M32.65,5.08c-.39.1-.79.04-1.16-.05v-.36c.34.13.65.21.99.14.27-.06.43-.29.46-.55.03-.3-.09-.59-.39-.69s-.62-.05-.95.08v-1.39s1.51,0,1.51,0v.3s-1.16,0-1.16,0v.69c.26-.04.55-.05.81.05.39.15.57.5.56.91s-.23.77-.68.88Z"/>
  <path d="M13.45,4.77c.49.15.88.01,1.25-.28v.39c-.35.2-.71.28-1.12.23-.54-.06-.97-.42-1.1-.95-.22-.92.13-1.82,1.05-1.95.43-.06.81.01,1.19.22v.39c-.42-.32-.88-.44-1.37-.23-.16.07-.35.28-.41.45-.24.68-.09,1.55.52,1.74Z"/>
  <path d="M16.12,5.45c-.05.13-.21.37-.33.38l-.54.06v-.31c.14,0,.35-.01.42-.07.1-.09.21-.36.24-.51l-.85-2.06h.37s.67,1.64.67,1.64l.66-1.63h.38s-1.01,2.49-1.01,2.49Z"/>
  <path d="M20.97,3.23c-.19-.08-.43-.05-.57.04-.12.07-.27.3-.27.48v1.33s-.36,0-.36,0v-2.12s.35,0,.35,0l.04.25c.17-.17.37-.29.62-.31.44-.03.78.29.78.73l.02,1.46h-.36s0-1.39,0-1.39c0-.14-.1-.39-.24-.45Z"/>
  <polygon points="35.57 3.39 35.57 3.69 34.44 3.69 34.44 5.07 34.06 5.06 34.06 2.2 35.69 2.2 35.69 2.5 34.44 2.5 34.44 3.39 35.57 3.39"/>
  <path d="M37.37,4.77v.31s-.6-.02-.6-.02c-.24,0-.46-.22-.47-.48v-1.27s-.26-.1-.26-.1v-.25s.25-.03.25-.03v-.61s.36,0,.36,0v.62s.73,0,.73,0v.3s-.72,0-.72,0v1.27c0,.09.13.26.22.26h.5Z"/>
  <path d="M30.84,5.55l-.28.07-.37-.75c-.4-.81-.16-1.95.36-2.74h.32c-.65,1.06-.69,2.28-.03,3.42Z"/>
  <path d="M38.5,4.72l-.41.88h-.31c.67-1.2.64-2.33,0-3.46l.33.02.35.72c.27.57.27,1.22.05,1.85Z"/>
  <rect x="17.61" y="2.12" width=".35" height="2.94"/>
  <path d="M27.5,5.06h-.35s0-2.12,0-2.12h.34s.02.25.02.25c.23-.26.53-.37.89-.3v.3c-.24-.03-.49-.03-.64.07-.12.08-.25.32-.25.49v1.3Z"/>
  <rect x="18.7" y="2.94" width=".35" height="2.13"/>
  <rect x="18.7" y="2.12" width=".35" height=".44"/>
</svg>