<?xml version="1.0" encoding="UTF-8"?>
<svg id="Layer_1" data-name="Layer 1" xmlns="http://www.w3.org/2000/svg" viewBox="0 0 51.22 72.4">
  <path d="M34.06,8.5h-.61s0-2.43,0-2.43c0-.21-.16-.63-.32-.75-.28-.2-.75-.15-1.02.01-.21.13-.46.54-.46.84v2.33s-.63,0-.63,0v-3.72s.6-.02.6-.02l.07.46c.29-.34.65-.54,1.09-.56.58-.03.99.29,1.17.8.46-.78,1.38-1.08,2.09-.51.28.22.45.78.45,1.14v2.42s-.62,0-.62,0v-2.43c0-.18-.14-.59-.27-.71-.24-.22-.75-.2-1-.07-.22.11-.52.49-.52.78l-.03,2.43Z"/>
  <polygon points="6.21 6.09 3.83 6.09 3.83 7.98 6.38 7.99 6.39 8.51 3.16 8.51 3.16 3.59 6.32 3.59 6.32 4.11 3.83 4.11 3.83 5.56 6.22 5.57 6.21 6.09"/>
  <path d="M17.98,8.5v-2.42c0-.21-.17-.64-.34-.74-.33-.21-.79-.17-1.11.03-.24.15-.46.58-.46.93v2.21s-.62,0-.62,0V3.35s.61,0,.61,0l.03,1.9c.58-.64,1.44-.83,2.1-.24.24.21.4.75.4,1.08v2.42s-.62,0-.62,0Z"/>
  <path d="M20.89,8.62c-.81.02-1.3-.5-1.3-1.22,0-.56.33-1.09.93-1.19.52-.09,1.06-.09,1.62-.11.02-.4-.26-.81-.67-.87-.54-.08-.99.01-1.59.21v-.54c.56-.16,1.1-.28,1.67-.2.68.09,1.18.66,1.19,1.35l.03,2.46h-.61s-.06-.47-.06-.47c-.27.33-.68.57-1.22.58ZM22.16,6.63l-1.31.06c-.42.02-.68.41-.65.77s.31.62.73.65c.79.04,1.21-.58,1.23-1.47Z"/>
  <path d="M39.03,8.05c.63.11,1.21-.04,1.76-.28l-.03.59c-1.37.51-2.81.31-3.2-1-.14-.46-.12-1.07.03-1.52.25-.76.91-1.18,1.68-1.18.62,0,1.19.27,1.45.86.17.39.21.88.21,1.31h-2.8c-.04.58.27,1.11.89,1.22ZM40.29,6.3c.03-.74-.43-1.12-1.02-1.12-.65,0-1.13.47-1.14,1.12h2.16Z"/>
  <path d="M9.56,5.37c-.38-.28-.82-.2-1.14,0-.24.15-.46.58-.46.93v2.21s-.62,0-.62,0v-3.72s.6,0,.6,0l.08.45c.51-.62,1.42-.81,2.06-.22.24.22.4.74.4,1.08v2.42s-.62,0-.62,0v-2.32c0-.21-.12-.68-.3-.81Z"/>
  <path d="M44.14,5.37c-.38-.28-.82-.2-1.14,0-.24.15-.46.58-.46.93v2.21s-.62,0-.62,0v-3.72s.6,0,.6,0l.08.45c.51-.62,1.42-.81,2.06-.22.24.22.4.74.4,1.08v2.42s-.62,0-.62,0v-2.32c0-.21-.12-.68-.3-.81Z"/>
  <path d="M26.05,5.25c-.39-.11-.79-.04-1.02.13-.18.13-.4.53-.41.8v2.34s-.63-.02-.63-.02v-3.72s.61,0,.61,0l.08.43c.33-.35.71-.55,1.19-.55.58,0,1.11.33,1.18.92l.09.74v2.19s-.62-.01-.62-.01v-2.52c-.01-.22-.25-.67-.48-.73Z"/>
  <path d="M30.23,7.98v.54s-1.05-.04-1.05-.04c-.43-.02-.81-.38-.82-.85l-.02-2.22-.43-.17-.02-.44.46-.05v-1.07s.62.01.62.01v1.09s1.28,0,1.28,0v.53s-1.27,0-1.27,0v2.23c0,.16.23.45.39.46h.88Z"/>
  <path d="M12.21,7.36c.23.75,1.21.92,2.2.49v.55c-1.2.46-2.46.21-2.84-.96-.16-.49-.16-1.11,0-1.6.38-1.16,1.66-1.41,2.85-.96v.54c-1.05-.42-2.01-.26-2.23.59-.12.45-.11.9.03,1.35Z"/>
  <path d="M48.15,8l.02.53-1.19-.07c-.36-.02-.69-.45-.7-.82l-.02-2.31-.43-.06-.02-.47.46-.05v-1.07s.61,0,.61,0v1.1s1.27,0,1.27,0v.52s-1.27,0-1.27,0v2.14c0,.13.12.48.22.49l1.04.07Z"/>
  <g>
    <path d="M18.66,61.37l4.13,2.09,1.23.68,1.46-3.3,1.42-3.52.94-2.04c.74-1.62,1.83-3,3.13-4.22l1.76-1.65,1.56-1.62c1.37-1.42,2.29-4.04,2.17-6.11-.07-1.25-.53-2.46-1.45-3.29-.84-.76-1.99-1.06-3.06-.74-1.35.4-2.29,1.44-2.74,2.76l-.3,1.42c-.01.05-.1.24-.13.3-.13-1.06.02-2.16.56-3.15,1.18-2.17,3.74-2.97,5.82-1.73.79.47,1.42,1.15,1.85,1.99.32.63.61,1.38.61,2.1v1.99c0,2.66-2.19,5.44-4.18,7.22l-.7.63-1.16,1.04c-.9.81-1.7,1.69-2.3,2.75l-1.24,2.17-1.45,2.94-.54,1.11-1.77,3.11c2.51,1.5,4.88,3.03,7.06,4.87l.96.81c.3.26.63.49.8.89l-19.72-11.37c1.92.31,3.5,1.2,5.28,1.87Z"/>
    <path d="M32.79,41.34c.36.51.43,1.13.45,1.78.05,2.11-1.23,4.01-3.23,4.68-2.96.99-5.92-.8-6.49-3.86-.3-1.62.04-3.13.76-4.61,3.52-7.19,4.46-15.35,2.34-23.1-.25-.9-.51-1.76-.94-2.58l-1.97-3.74c.93.93,1.49,1.98,2.18,2.99.49.91.96,1.76,1.31,2.76,1.29,3.68,1.88,7.52,1.68,11.43-.24,4.59-1.52,9.09-3.6,13.14-.69,1.35-.89,2.79-.43,4.24.55,1.73,2.14,2.84,3.98,2.75.9-.04,1.71-.34,2.41-.91,1.48-1.19,2-3.08,1.54-4.95Z"/>
  </g>
</svg>