<?xml version="1.0" encoding="UTF-8"?>
<svg id="Layer_1" data-name="Layer 1" xmlns="http://www.w3.org/2000/svg" viewBox="0 0 53.5 33.62">
  <path d="M19.87,5.24h-.35s0-2.93,0-2.93h.34s.03.25.03.25c.19-.22.44-.35.76-.32.69.06,1,1.04.64,1.79-.13.27-.4.44-.64.46-.32.03-.56-.09-.78-.33v1.08ZM21.01,3.77c.07-.25.07-.56,0-.79-.07-.29-.29-.45-.55-.45-.22,0-.45.15-.53.4-.08.27-.08.59,0,.86.08.25.31.4.53.4.23,0,.46-.13.54-.42Z"/>
  <path d="M37.87,2.23c.27.94.1,2.23-.86,2.26-.41.01-.75-.23-.89-.66-.17-.52-.17-1.11,0-1.63.14-.43.48-.67.89-.66s.73.26.86.69ZM36.65,4.05c.09.13.39.17.52.11.48-.2.51-1.26.31-1.93-.06-.23-.28-.39-.47-.39-.55,0-.64.7-.62,1.4.01.29.07.56.25.81Z"/>
  <path d="M18.75,4.19c-.35.4-1.22.34-1.81.12v-.38c.38.19.79.32,1.21.22.23-.05.38-.25.39-.45s-.15-.41-.36-.46l-.62-.15c-.18-.04-.43-.18-.52-.34-.17-.29-.15-.66.07-.91.35-.4,1.03-.33,1.65-.19v.37c-.59-.26-1.27-.29-1.42.15-.04.11.02.39.13.44.48.21.96.16,1.25.45s.32.8.04,1.12Z"/>
  <path d="M23.44,4.43v-1.39c0-.16-.11-.41-.27-.47s-.41-.03-.55.05c-.12.07-.27.31-.27.48v1.33s-.36,0-.36,0V1.49s.35,0,.35,0v1.07c.22-.19.39-.31.65-.32.44-.03.78.29.78.73l.02,1.46h-.36Z"/>
  <path d="M26.23,4.05v.29c-.73.27-1.54.2-1.8-.47-.14-.36-.12-.77.04-1.11s.52-.53.91-.53.74.2.86.59c.06.2.08.44.08.65h-1.61c-.02.34.21.69.6.71.3.02.5-.04.91-.14ZM25.96,3.17c.02-.42-.25-.63-.58-.64-.39,0-.65.29-.66.64h1.24Z"/>
  <path d="M30.17,4.06v.28c-.34.11-.67.18-1.02.13-.71-.1-1.02-.79-.81-1.53.13-.46.53-.71.99-.71.37,0,.71.18.84.55.07.21.09.46.1.69h-1.6c-.04.37.21.65.6.73l.91-.15ZM29.91,3.17c0-.36-.17-.57-.46-.62-.2-.04-.44.02-.6.17-.1.09-.17.31-.19.46h1.25Z"/>
  <path d="M33.56,4.43c-.02-.06-.03-.29.03-.34l.9-.94c.33-.34.59-.7.39-1.04-.22-.38-.78-.29-1.32-.03v-.38s.79-.15.79-.15c.28-.05.63.1.81.3.24.27.21.6.1.91l-.39.48-.85.87h1.33s0,.31,0,.31h-1.79Z"/>
  <polygon points="40.11 2.75 40.13 3.05 39 3.05 39 4.43 38.61 4.42 38.61 1.56 40.24 1.56 40.25 1.86 39 1.86 39 2.75 40.11 2.75"/>
  <path d="M41.92,4.14v.3s-.67-.04-.67-.04c-.21-.01-.4-.26-.4-.47v-1.31s-.25-.04-.25-.04v-.27s.25-.03.25-.03v-.61s.35,0,.35,0v.62s.73,0,.73,0v.3s-.73,0-.73,0v1.24c0,.06.07.26.13.26l.59.04Z"/>
  <path d="M32.92,4.93l-.3.04c-.52-.83-.76-1.97-.34-2.79l.36-.7.3.03c-.64,1.06-.68,2.28-.01,3.42Z"/>
  <path d="M43.01,4.22l-.36.74h-.31c.64-1.12.66-2.33,0-3.44l.31-.02.35.73c.3.62.32,1.37,0,2.01Z"/>
  <path d="M27.24,4.42h-.35s0-2.12,0-2.12h.35s.03.25.03.25c.22-.29.49-.34.87-.32v.35c-.17-.05-.43-.06-.58.01-.14.07-.3.32-.31.5v1.33Z"/>
  <g>
    <path d="M40.69,22.67c0,4.93-4,8.93-8.93,8.93s-8.93-4-8.93-8.93,4-8.93,8.93-8.93,8.93,4,8.93,8.93ZM39.61,22.67c0-4.6-3.73-8.33-8.34-8.33s-8.34,3.73-8.34,8.33,3.73,8.33,8.34,8.33,8.34-3.73,8.34-8.33Z"/>
    <path d="M18.99,19.54c.85-1.7.82-3.76-.3-5.23l-.19-.25-.98-.97-.4-.35-.5-.44c-.66-.57-1.18-1.14-1.62-1.91l-1.25.69-.78.42-1.05.52c-1.23.61-2.44,1.14-3.76,1.57l-1.23.4s-.12-.03-.15-.04c-.03,0,.04-.07.09-.1l15-8.65s.1.07.08.09l-.09.08-.68.64-.44.38c-1.24,1.07-2.54,2.01-3.93,2.89l-1.44.91c1.44,1.52,3.53,2.19,4.54,4.03.9,1.63.72,3.79-.45,5.23l-.62.66-.09-.08.23-.47Z"/>
    <path d="M53.32,31.71c-.85.24-1.64.41-2.5.53h-1.58c-.63-.09-1.24-.2-1.83-.43-1.65-.63-3.14-1.95-3.5-3.71-.25-1.2.05-2.48.87-3.4.16-.18.34-.32.56-.46.32-.22.92-.43.95-.24-1.55.83-1.97,2.86-1.23,4.41.13.28.3.58.52.79l.75.75c1.46,1.22,3.53,1.6,5.42,1.58l1.63.03-.07.15Z"/>
    <path d="M31.91,21.11c-.14,1.21-.8,2.54-1.77,3.29-.36.28-.77.52-1.24.61,1.02-1.53,1.78-3.04,2.33-4.73l1.12.41.66.23c.09-.02.08.1,0,.15l-1.1.05Z"/>
    <path d="M33.04,24.41c-.2.18-.55.28-.81.22l-.7-.16.87-.98c.11-.13.19-.34.29-.54l.95.34.98.36c-.44.12-.78.12-1.19.13-.08.21-.19.47-.37.63Z"/>
  </g>
</svg>