<?xml version="1.0" encoding="UTF-8"?>
<svg xmlns="http://www.w3.org/2000/svg" viewBox="0 0 100 100">
  <g transform="translate(50 50) scale(1.31277) translate(-13.5500 -39.8000)">
  <path d="M10.4,22.84c-2.16,2.82-3.8,5.9-2.07,9.25l.38.74c-.81-.49-1.29-1.25-1.64-2.12-.85-2.11-.32-4.56.8-6.56.78-1.28,1.64-2.39,2.6-3.55,1.54-1.87,2.94-3.77,4.27-5.79-1.87-1.15-3.61-2.34-5.23-3.78-.59-.52-1.25-1.01-1.62-1.7l16.04,9.27c-1.57-.13-2.85-.8-4.25-1.29-1.54-.68-3-1.41-4.53-2.27-1.16,2.92-2.81,5.33-4.73,7.8Z"/>
  <path d="M15.87,40.96l-3.01,1.5c-1.61.81-3.03,1.77-4.38,2.97-1.61,1.43-2.8,3.11-4.06,4.92.47-1.95,1.55-3.48,2.68-5,1.51-1.73,3.02-2.97,5.09-4.11-3.34-1.09-6.13-3.47-7.77-6.45-.59-1.07-1.07-2.17-1.25-3.4.78,1.32,1.46,2.48,2.34,3.61l.74.8.93.94c1.15,1.17,3.21,2.37,4.8,2.99l3.89,1.21Z"/>
  <path d="M15.07,69.71l-.81-.95-2.31-2.85-.55-.65-1.15-1.28c-.8-.9-1.49-1.84-1.98-2.96-.96-2.2-1.25-4.59-.69-6.93.3-1.27.79-2.43,1.7-3.43-.45,1.42-.84,2.67-.89,4.11-.08,2.48.49,4.87,1.82,6.95l1.52,2,1.56,2.18c.99,1.38,1.73,2.86,2.43,4.37-.33-.18-.47-.35-.65-.56Z"/>
  <path d="M22.39,40.89c0,1.2-.97,2.17-2.17,2.17s-2.17-.97-2.17-2.17.97-2.17,2.17-2.17,2.17.97,2.17,2.17ZM22.2,40.88c0-.76-.62-1.38-1.38-1.38s-1.38.62-1.38,1.38.62,1.38,1.38,1.38,1.38-.62,1.38-1.38Z"/>
  </g>
</svg>
