<?xml version="1.0" encoding="UTF-8"?>
<svg id="Layer_1" data-name="Layer 1" xmlns="http://www.w3.org/2000/svg" viewBox="0 0 52.75 33.51">
  <path d="M31.07,4.64c-.3.1-.65.09-.92,0-.32-.11-.48-.37-.51-.69-.03-.36.15-.67.53-.79-.18-.12-.36-.25-.41-.39-.16-.42.06-.84.48-.95.26-.07.55-.05.81,0,.3.14.47.37.48.66s-.15.53-.49.68c.35.09.56.36.55.73,0,.33-.16.63-.52.74ZM31.04,2.85c.16-.18.13-.5-.04-.65-.22-.19-.6-.18-.8.03-.17.17-.15.52.04.67.22.18.59.18.8-.05ZM31.15,4.13c.06-.11.06-.41,0-.52-.11-.22-.37-.31-.6-.29-.28.02-.49.19-.53.44-.05.36.16.63.53.65.21.01.46-.05.59-.28Z"/>
  <path d="M32.44,4.42c-.44-.55-.44-1.79-.01-2.35.21-.28.55-.34.89-.28.27.05.56.3.65.63.25.85.13,2.08-.61,2.25-.34.08-.69.04-.93-.26ZM33.59,2.44c-.07-.23-.29-.38-.5-.37-.2,0-.41.16-.48.39-.24.78-.13,1.95.48,1.96.65,0,.74-1.19.5-1.98Z"/>
  <path d="M18.85,2.95c.33.73.04,1.67-.62,1.76-.33.04-.57-.06-.81-.31l-.02.26h-.34s0-2.94,0-2.94h.35s0,1.07,0,1.07c.21-.22.45-.35.76-.33.26.02.54.2.67.49ZM18.52,3.09c-.09-.22-.32-.34-.53-.33-.51.01-.72.76-.47,1.33.1.22.32.34.54.33.5-.02.7-.76.47-1.33Z"/>
  <path d="M25.78,4.68c-.37.06-.72.01-1.09-.06v-.37c.36.13.64.2.96.14s.51-.36.49-.67-.21-.59-.55-.62c-.26-.03-.53.04-.78.11v-1.38s1.51,0,1.51,0v.3s-1.15,0-1.15,0v.69c.33-.05.65-.05.92.1.32.18.46.5.46.85,0,.44-.27.82-.75.91Z"/>
  <path d="M21.31,4.28v.28c-.34.11-.67.18-1.02.13-.71-.1-1.02-.79-.81-1.53.13-.46.53-.71.99-.71.37,0,.71.18.84.55.07.21.09.46.1.69h-1.6c-.04.37.21.65.6.73l.91-.15ZM21.04,3.4c0-.36-.17-.57-.46-.62-.2-.04-.44.02-.6.17-.1.09-.17.31-.19.46h1.25Z"/>
  <path d="M27.18,4.65v-.31s1.1-1.15,1.1-1.15c.09-.1.21-.3.26-.42.12-.33-.09-.66-.43-.69-.33-.03-.63.09-.92.24v-.37c.62-.26,1.4-.26,1.68.24.25.45.03.88-.36,1.28l-.85.88h1.33s0,.31,0,.31h-1.79Z"/>
  <path d="M12.76,4.36c.49.15.88.01,1.25-.28v.39c-.35.2-.71.28-1.12.23-.54-.06-.97-.42-1.1-.95-.22-.92.13-1.82,1.05-1.95.43-.06.81.01,1.19.22v.39c-.42-.32-.88-.44-1.37-.23-.16.07-.35.28-.41.45-.24.68-.09,1.55.52,1.74Z"/>
  <path d="M16.36,2.52v2.13s-.34,0-.34,0l-.03-.26c-.3.36-.84.47-1.21.11-.12-.11-.21-.42-.21-.59v-1.39s.35,0,.35,0v1.38c0,.11.09.34.17.41.15.12.43.11.58.04.14-.06.33-.28.33-.47l.02-1.37h.35Z"/>
  <polygon points="36.24 2.98 36.25 3.27 35.12 3.27 35.12 4.65 34.73 4.64 34.73 1.79 36.37 1.79 36.37 2.08 35.12 2.08 35.12 2.97 36.24 2.98"/>
  <path d="M38.04,4.35v.31s-.64-.03-.64-.03c-.25-.01-.43-.25-.43-.5v-1.25s-.26-.08-.26-.08v-.26s.25-.03.25-.03v-.61s.35,0,.35,0v.63s.73,0,.73,0v.3s-.73,0-.73,0v1.28c0,.09.15.25.24.25h.48Z"/>
  <path d="M24.05,5.15l-.3.04c-.52-.83-.76-1.97-.34-2.79l.36-.7.3.03c-.64,1.06-.68,2.28-.01,3.42Z"/>
  <path d="M39.31,3.21c.09.97-.49,1.98-.61,1.97l-.24-.03c.66-1.17.64-2.29,0-3.44h.31c.27.46.5.95.55,1.49Z"/>
  <g>
    <path d="M35.94,25.54l.05,1.1.05,1.53.03,3.79c-.07,0-.13-.06-.12-.12l-.47-4.37-.26-2.42-5.98-2.49-3.72,6.15-8.82-5.06.19-.26.41-.49,4.83-5.79.35-.42.38-.42c-.02.22-.08.29-.18.43l-.71,1.06-4.01,5.59,2.68,1.42.81.44.86.46,2.82,1.57,2.48-3.98.98-1.53.28-.43,3.02,1.37,2.17,1.02,1.23.59.61.3.04.96Z"/>
    <path d="M15.59,18.63c-.25.57-.8,1.39-1.33,1.64.28-.6.51-1.08.68-1.68.43-1.58.07-3.23-1.02-4.45l-.52-.54-.39-.36-.47-.41-.44-.38c-.62-.54-1.17-1.15-1.58-1.87-1.5.86-2.98,1.66-4.55,2.3l-1.34.55-.69.26-1.52.5-.12-.05s.05-.08.08-.09l14.95-8.64.16.04-.38.36-.5.44-.44.38-.41.34c-1.52,1.27-3.14,2.33-4.85,3.37.32.42.88.84,1.32,1.15l1.29.9.7.55c.52.41.93.92,1.25,1.51.69,1.27.69,2.84.11,4.17Z"/>
    <path d="M29.76,19.2l-.97-.39-1.49-.64-1.55-.68-.65.74-.3.33-.39.43c-.82.9-1.65,1.76-2.56,2.57l-.6.53-.82.7-.13-.06,1.8-2.3.5-.63,2.87-3.62,3.68,1.64,1.07.49.65.29,1.12.5.65.29,1.38.62.69.32.73.33.82.37.11.05s-.04.1-.05.11l-1.95-.47c-1.57-.44-3.08-.93-4.62-1.54Z"/>
    <path d="M48.9,31.74l-.03.15c-1.65.47-3.03.74-4.71.44-1.1-.2-2.11-.64-2.98-1.35l-.84-.85c-.69-.7-1.02-1.99-.95-3.07.06-.84.47-1.73,1.08-2.3.38-.35.83-.67,1.41-.63-.77.47-1.28,1.08-1.5,1.91-.35,1.27-.02,2.54.86,3.5.28.31.56.62.93.83l1.03.59,1.4.48c.89.22,1.78.26,2.69.27h1.13s.49.02.49.02Z"/>
    <path d="M24.96,23.79l-.68.99c-.43-1.93.76-3.74,2.57-4.25l.05.13-1.93,3.14Z"/>
  </g>
</svg>