<?xml version="1.0" encoding="UTF-8"?>
<svg id="Layer_1" data-name="Layer 1" xmlns="http://www.w3.org/2000/svg" viewBox="0 0 52.75 33.51">
  <path d="M33,4.6c-.44-.55-.44-1.79-.01-2.35.21-.28.55-.34.89-.28.27.05.56.3.65.63.25.85.13,2.08-.61,2.25-.34.08-.69.04-.93-.26ZM34.15,2.62c-.07-.23-.29-.38-.5-.37-.2,0-.41.16-.48.39-.24.78-.13,1.95.48,1.96.65,0,.74-1.19.5-1.98Z"/>
  <path d="M22.38,4.58c-.18.23-.43.34-.75.3-.24-.02-.5-.21-.63-.48-.34-.74-.03-1.7.63-1.77.33-.03.55.07.78.32v-1.08s.36,0,.36,0v2.93s-.34,0-.34,0l-.06-.25ZM22.35,3.32c-.08-.22-.29-.37-.48-.39-.22-.02-.45.09-.54.31-.14.32-.14.71,0,1.03.1.22.32.33.54.32.48-.04.67-.7.48-1.27Z"/>
  <g>
    <path d="M14.26,20.51c1.2-2.11,1.18-4.66-.53-6.32l-.48-.46-.6-.53-.47-.41c-.65-.58-1.26-1.19-1.67-1.96-1.52.86-3,1.64-4.59,2.32-1.2.51-2.36.96-3.65,1.31.17-.25.4-.33.61-.46l.7-.42,3.44-2.01,2.77-1.61.28-.16,4.86-2.78,2.41-1.36.14.05-.47.44-.43.38-.51.44c-1.16,1-2.38,1.88-3.68,2.7l-1.41.88-.05.15c.65.59,1.3,1.08,2.02,1.56.64.43,1.24.87,1.77,1.42,1.34,1.4,1.63,3.47.84,5.23-.25.55-.8,1.39-1.31,1.59Z"/>
    <g>
      <path d="M35.03,25.51c.64-.3,1.17-.56,1.68-1,2.03-1.76,2.23-4.83.34-6.76-.58-.56-1.27-.96-2.06-1.2-.93-.33-1.85-.25-2.9-.19,1.74-1.04,4.24-.61,5.67.67,1.11.99,1.66,2.4,1.63,3.89-.04,1.87-1.11,3.51-2.8,4.28l-.96.3c-.18.06-.39.06-.61,0Z"/>
      <path d="M47.71,32.44l-1.61.25h-1.2s-1.43-.26-1.43-.26c-.88-.24-1.72-.63-2.37-1.25l-.49-.46c-1.01-.94-1.47-2.55-1.15-3.96.26-1.13,1.18-2.34,2.38-2.4-.12.12-.2.19-.32.27-1.35.92-1.66,2.92-.9,4.32s2.24,2.29,3.8,2.71c.92.24,1.83.3,2.78.31h.63c.39,0,.71,0,1.13.09-.46.2-.83.31-1.27.38Z"/>
    </g>
    <g>
      <path d="M19.22,26.39c1.07.91,2.36,1.37,3.75,1.36.02.02.09.08.07.09l-.11.06c-.94.24-1.87.19-2.8-.07-1.38-.49-2.46-1.29-3.06-2.65-.72-1.6-.58-3.46.41-4.92.77-1.15,2.11-1.96,3.48-2.05l.89.02c-.05.06-.13.13-.19.14-1.79.34-3.27,1.6-3.78,3.36s-.01,3.45,1.34,4.67Z"/>
      <path d="M27.79,20.51c-.07.42-.1.8-.28,1.17l-.43.89-.47.66c-.43.6-1.09.99-1.83,1.21l1.09-1.82.22-.41c.4-.82.71-1.61,1.03-2.51l.66.24,1.23.44c-.06.03-.24.1-.32.11l-.57.03h-.33Z"/>
      <path d="M29.27,23.21c-.13.42-.37.76-.79.84-.36.06-.7,0-1.07-.17l.52-.57.26-.31.36-.62,1.72.63c.13-.03.12.12.01.15l-1.01.05Z"/>
    </g>
  </g>
  <path d="M24.17,4.55c.36.1.71.01,1.06-.12l.03.31c-.36.13-.74.2-1.11.12-.69-.15-.94-.9-.71-1.57.14-.41.49-.64.92-.65s.81.22.92.65l.06.58h-1.6c-.01.31.12.58.44.67ZM24.98,3.57c0-.38-.21-.58-.49-.63-.41-.05-.74.22-.75.64h1.24Z"/>
  <path d="M30.24,4.83v-.32s1.01-1.05,1.01-1.05c.31-.32.49-.72.28-1.01-.25-.33-.82-.22-1.29.04v-.38c.63-.24,1.4-.26,1.68.27.16.31.1.73-.14.98l-1.09,1.16h1.31s.02.3.02.3h-1.79Z"/>
  <path d="M12.2,4.53c.49.15.88.01,1.25-.28v.39c-.35.2-.71.28-1.12.23-.54-.06-.97-.42-1.1-.95-.22-.92.13-1.82,1.05-1.95.43-.06.81.01,1.19.22v.39c-.42-.32-.88-.44-1.37-.23-.16.07-.35.28-.41.45-.24.68-.09,1.55.52,1.74Z"/>
  <path d="M14.86,5.21c-.05.13-.21.37-.33.38l-.54.06v-.31c.14,0,.35-.01.41-.07.11-.1.21-.36.25-.51l-.85-2.06h.37s.67,1.64.67,1.64l.66-1.63h.38s-1.01,2.49-1.01,2.49Z"/>
  <path d="M19.72,2.99c-.19-.08-.43-.05-.57.04-.12.07-.27.3-.27.48v1.33s-.36,0-.36,0v-2.12s.35,0,.35,0l.04.25c.17-.17.37-.29.62-.31.44-.03.78.29.78.73l.02,1.46h-.36s0-1.39,0-1.39c0-.13-.1-.39-.24-.45Z"/>
  <polygon points="36.81 3.15 36.81 3.45 35.68 3.45 35.68 4.83 35.29 4.82 35.3 1.96 36.93 1.96 36.93 2.26 35.68 2.26 35.68 3.15 36.81 3.15"/>
  <path d="M38.6,4.53v.31s-.64-.03-.64-.03c-.25-.01-.43-.25-.43-.5v-1.25s-.26-.08-.26-.08v-.26s.25-.03.25-.03v-.61s.35,0,.35,0v.63s.73,0,.73,0v.3s-.73,0-.73,0v1.28c0,.09.15.25.24.25h.48Z"/>
  <path d="M29.59,5.31l-.28.07-.37-.75c-.4-.81-.16-1.95.36-2.74h.32c-.65,1.06-.69,2.28-.03,3.42Z"/>
  <path d="M39.88,3.39c.09.97-.49,1.98-.61,1.97l-.24-.03c.66-1.17.64-2.29,0-3.44h.31c.27.46.5.95.55,1.49Z"/>
  <rect x="16.36" y="1.88" width=".35" height="2.94"/>
  <path d="M26.24,4.82h-.35s0-2.12,0-2.12h.34s.02.25.02.25c.23-.26.53-.37.89-.3v.3c-.25-.03-.48-.03-.64.08-.12.08-.25.32-.25.49v1.29Z"/>
  <rect x="17.45" y="2.7" width=".35" height="2.13"/>
  <rect x="17.45" y="1.88" width=".35" height=".44"/>
</svg>