<?xml version="1.0" encoding="UTF-8"?>
<svg xmlns="http://www.w3.org/2000/svg" viewBox="0 0 100 100">
  <g transform="translate(50 50) scale(1.71486) translate(-25.6644 -19.3500)">
  <path d="M22.09,27.89c.34.05.64.05.99.14-1.66.59-3.64.03-4.94-1.15-1.84-1.67-2.01-4.76-.46-6.68.8-.99,1.85-1.6,3.12-1.77l.86-.03c.05,0,.17.09.18.13-1.79.29-3.34,1.5-3.9,3.23-.38,1.16-.32,2.38.23,3.46.74,1.46,2.29,2.44,3.93,2.67Z"/>
  <path d="M27.95,21.87c-.1.36-.33.72-.71.81s-.77.02-1.14-.14l.39-.43.18-.2c.24-.27.41-.53.57-.88l.88.33.92.31s.03.13-.01.13l-1.08.08Z"/>
  <path d="M14.5,20.2c.63-1.28.82-2.7.34-4.06-.35-1-.99-1.71-1.79-2.4l-.44-.38-.44-.38c-.36-.32-.69-.63-1.01-1s-.65-.98-.69-.95l-.08.08-2.03,1.1-.8.39c-1.39.68-2.76,1.31-4.25,1.76l-.95.29s-.04-.13-.01-.13l13.88-8.02c.44-.25.79-.46,1.26-.66-.28.37-.54.6-.85.87-1.39,1.19-2.83,2.27-4.38,3.25l-1.37.86c1.49,1.57,3.65,2.23,4.63,4.2s.48,4.33-1.17,5.7l-.09-.05.23-.46Z"/>
  <path d="M36.46,25.47c-.48.16-.94.32-1.47.27.79-.38,1.46-.72,2.02-1.31,1.04-1.09,1.52-2.55,1.28-4.03-.18-1.09-.69-2.02-1.55-2.72-.93-.75-2.08-1.15-3.29-1.17l-1.34.05c.42-.27.82-.39,1.27-.47,1.25-.25,2.5-.02,3.61.6.47.26.85.59,1.2.99,1.25,1.43,1.57,3.62.79,5.33-.51,1.13-1.36,1.95-2.52,2.46Z"/>
  <path d="M47.57,32.17l1.42.06c-.49.26-.92.35-1.41.43l-1.28.2h-1.51c-.63,0-1.25-.2-1.83-.41-.93-.34-1.74-.88-2.4-1.6-1.35-1.49-1.6-3.47-.52-5.15.43-.58.96-1,1.69-1.15l.1.09c-1.52.82-1.96,2.8-1.27,4.33.14.3.32.64.56.87l.75.75c1.24,1.03,3.08,1.53,4.68,1.56l1.02.02Z"/>
  </g>
</svg>
