<?xml version="1.0" encoding="UTF-8"?>
<svg id="Layer_1" data-name="Layer 1" xmlns="http://www.w3.org/2000/svg" viewBox="0 0 52.5 48.15">
  <path d="M29.87,6.03c-.23.25-.52.4-.9.35-.29-.04-.58-.27-.71-.6-.31-.8-.02-1.77.65-1.9.39-.08.68.04.97.35v-1.21s.39,0,.39,0v3.29s-.37,0-.37,0l-.04-.29ZM29.8,4.61c-.09-.24-.34-.41-.55-.42-.23,0-.5.13-.6.37-.14.34-.14.78,0,1.12.11.25.36.38.6.38.55-.02.79-.79.55-1.45Z"/>
  <path d="M22.38,5.99c.55.16.99.01,1.4-.31l.02.44c-.41.22-.82.32-1.28.26-.6-.07-1.09-.47-1.24-1.07-.25-1.03.15-2.04,1.17-2.2.48-.07.91.02,1.34.25l-.02.44c-.45-.36-.98-.49-1.53-.26-.18.08-.39.31-.46.5-.27.76-.11,1.74.59,1.95Z"/>
  <path d="M26.37,5.61c-.13.52-.55.77-1.03.78-.53,0-.96-.31-1.07-.84-.05-.26-.05-.59,0-.85.11-.53.55-.85,1.07-.84.49,0,.89.27,1.02.75.08.29.09.68,0,1ZM25.91,5.66c.14-.36.13-.77-.01-1.1-.1-.24-.37-.37-.6-.37s-.47.16-.57.4c-.13.34-.13.72,0,1.06.1.25.34.4.57.4s.5-.13.61-.4Z"/>
  <rect x="27.08" y="3.01" width=".39" height="3.31"/>
  <g>
    <path d="M2.68,43.44l-.02-2.65v-13.14s.02-3.11.02-3.11l.02-1.75v-.88s.17,0,.17,0c.27,1.41.55,2.8.68,4.24l.18,1.99.05.78.06,1.19.05,1.48.05,2.13c2.15-.09,4.26-.23,6.37-.61l1.97-.36c1.09-.2,2.13-.46,3.19-.75l1.1-.3c.7-.19,1.38-.4,2.05-.69.8-.35,1.64-1.08,1.91-1.88.33-.96.59-1.89.86-2.88l.79-2.93.54-1.94c.14.32.08.58.06.87-.08.95-.16,1.87-.3,2.81-.21,1.4-.44,2.73-.77,4.11-.13.54-.41,1.06-.73,1.51l-.6.66c-.63.54-1.35.91-2.13,1.18-2.05.7-4.84,1.38-6.95,1.57l-1.79.16c-1.65.15-3.26.06-4.91-.09l-.64-.06-.05,2.34-.05,1.48-.06,1.13-.07,1.05c-.1,1.52-.29,3-.55,4.49l-.27,1.51-.18.14v-.97s-.03-1.83-.03-1.83Z"/>
    <path d="M36.88,23.74l-.92,4.24-1,3.56-.09.09s-.07-.09-.08-.13l.84-6.6.44-3.29c.06-.46.19-.94.42-1.34s.53-.76.89-1.01l1.01-.68,1.38-.81c1.55-.91,2.92-2.05,4.13-3.38l.64-.7,1.2-1.47.71-.98.66-.96,1.08-1.73.81-1.36c.05.12.05.29,0,.4l-.98,2.4-.86,1.67-.89,1.44-.82,1.15-.4.51-.39.46-.36.41-1.08,1.1-.74.66-.67.54-1.67,1.13-1.56.91c-.89.52-1.26,1.15-1.43,2.15l-.28,1.6Z"/>
    <path d="M30.86,26.2c0,1.14-.92,2.06-2.06,2.06s-2.06-.92-2.06-2.06.92-2.06,2.06-2.06,2.06.92,2.06,2.06ZM29.52,26.21c0-.72-.59-1.31-1.31-1.31s-1.31.59-1.31,1.31.59,1.31,1.31,1.31,1.31-.59,1.31-1.31Z"/>
  </g>
</svg>