<?xml version="1.0" encoding="UTF-8"?>
<svg xmlns="http://www.w3.org/2000/svg" viewBox="0 0 100 100">
  <g transform="translate(50 50) scale(1.72536) translate(-26.8136 -25.8441)">
  <path d="M28.03,21.32c.69.28,1.09.82,1.19,1.56.05.4.02.82-.36,1.13l.1-.55c.05-.63-.33-1.2-.89-1.48-.73-.37-1.7,0-2.37.54-.3.25-.59.55-.82.86l-.97,1.28-.81,1.02-.98,1.13-.17.2-1.12,1.12-.37.33-.68.59c-1.46,1.28-3.32,2.43-5.13,3.16-3.11,1.26-6.42,1.36-9.73.95l-.05,2.4-.05,1.41-.07,1.26-.05.78-.18,2c-.13,1.44-.41,2.82-.67,4.25l-.11.09s-.06-.12-.06-.16v-1.04s-.03-1.62-.03-1.62l-.02-2.62v-13.14s.02-3.11.02-3.11v-1.62s.03-1.03.03-1.03h.16s.23,1.24.23,1.24c.3,1.59.5,3.17.61,4.79l.07,1.05.06,1.13.05,1.48.05,2.13,2.18-.1.63-.05.57-.06c2.49-.27,4.96-.94,7.16-2.14.67-.36,1.3-.73,1.9-1.19l.92-.7.51-.41.54-.45.37-.32.63-.58.36-.34.57-.56.41-.43.57-.63.33-.37.36-.42.33-.38.55-.65.35-.41.75-.67c.34-.3.78-.53,1.21-.67.64-.22,1.31-.24,1.93.01Z"/>
  <path d="M25.24,30.55c1.2,1.71,3.67,1.81,5.33.7l.6-.46.51-.48.47-.51.66-.88.81-1.37,1.3-2.51.85-1.47,1.04-1.64.8-1.18,1.36-1.87.49-.64.62-.79.47-.58,1.57-1.88.39-.45.43-.49.46-.53.6-.67.73-.82,1.77-1.95.81-.88.67-.74.8-.88.67-.75.38-.43s.12-.05.15-.06c.04-.02,0,.14-.02.18l-.51.74-1.33,1.84-.63.85-.74.96-1.79,2.28-.75.95-2.37,3.04-.73.96-1.02,1.37-.74,1.02-.67.95-1.19,1.77-.97,1.56-.97,1.7-.68,1.23c-.46.84-.97,1.62-1.58,2.35l-.94.97-.93.7c-.39.3-.85.53-1.33.63l-.98.21c-1.64.19-3.29-.52-4.06-2.04h.19Z"/>
  <path d="M29.49,27.07c0,1.14-.92,2.07-2.07,2.07s-2.07-.92-2.07-2.07.92-2.07,2.07-2.07,2.07.92,2.07,2.07ZM28.15,27.08c0-.72-.59-1.31-1.31-1.31s-1.31.59-1.31,1.31.59,1.31,1.31,1.31,1.31-.59,1.31-1.31Z"/>
  </g>
</svg>
