<?xml version="1.0" encoding="UTF-8"?>
<svg id="Layer_1" data-name="Layer 1" xmlns="http://www.w3.org/2000/svg" viewBox="0 0 54.55 33.62">
  <g>
    <path d="M17.1,19.7c1.15-2,1.17-4.29-.35-6.02-.25-.28-.5-.54-.78-.78l-.5-.44-.47-.41-.43-.39c-.49-.44-.89-.96-1.23-1.56-2.59,1.47-5.28,2.79-8.21,3.63.1-.22.28-.28.45-.38l1.02-.61,3.83-2.24,2.78-1.61.52-.3,3.74-2.14,2.81-1.57c-.2.4-.53.62-.85.9-1.79,1.57-3.64,2.83-5.71,4.1l.58.56.27.22.69.5,1.57,1.13.3.26c1.46,1.24,2.03,3.12,1.51,4.97-.17.59-.4,1.18-.82,1.62l-.67.69-.04-.13Z"/>
    <path d="M37.15,28.19c-1.3.1-2.35-.58-2.9-1.72l-.19.26-.39.49-.31.31c-.38.38-.85.64-1.4.77.58-.91,1.11-1.75,1.53-2.71l.32-.74.47-1.29.76.28,1.15.42c-.44.13-.81.13-1.23.12l-.29,1.23,1.8,1.81.27.29.42.48Z"/>
    <path d="M29.21,22.18l.23.29c-1.34.04-2.34-.58-2.91-1.76-.29.42-.55.79-.91,1.09l-.24.2c-.36.24-.68.43-1.14.55l.31-.51.29-.46.5-.88c.52-.92.89-1.85,1.21-2.88l.98.36.94.34c-.44.14-.84.12-1.23.12l-.29,1.26.58.55.81.82.88.91Z"/>
    <path d="M23.53,20.2c-.15-.11-.44-.25-.54-.39-.28-.4-.34-.84-.23-1.35l.59.34.62.39c.42-.52.89-.99,1.62-1.22-.34,1.39-1.06,2.61-1.98,3.67-.24-.26-.12-.89-.08-1.43Z"/>
    <g>
      <path d="M39.05,28.14c.66-1.38.82-2.76.35-4.23-.68-2.1-2.65-3.44-4.86-3.2-.59.06-1.15.19-1.66.46-.46.24-.87.54-1.21.92l-1.09,1.22-.31.38-.32.37-.55.58c-1.44,1.5-3.63,1.97-5.63,1.32-.85-.27-1.76-.82-2.32-1.5-.39-.47-.68-.98-.88-1.57-.15-.44-.27-.9-.27-1.38v-.7c0-1.14.7-2.58,1.68-3.34.08-.07.15.05.09.11-.64.66-1,1.44-1.16,2.31-.31,1.6.19,3.18,1.41,4.26s3.13,1.41,4.72.8c.85-.32,1.6-1,2.18-1.7l.71-.86.31-.38.32-.37.53-.53.34-.29.6-.41c2.61-1.51,6.09-.63,7.5,2.04.9,1.71.79,4.06-.35,5.69l-.13-.02Z"/>
      <path d="M49.98,31.24h.72c.36.01.7-.02,1.07.11-.98.33-1.9.54-2.88.61h-1.2s-.76-.1-.76-.1c-2.41-.34-4.94-2.43-4.78-5.11.05-.82.32-1.59.85-2.21.38-.45.85-.76,1.43-.9l.14.04s-.05.08-.08.1l-.5.37c-.44.33-.67.84-.83,1.36-.37,1.19-.1,2.44.7,3.39l.78.78.83.56c.43.29.91.44,1.41.6.99.31,2.01.39,3.09.41Z"/>
    </g>
  </g>
  <path d="M29.7,3.86c.25.05.59-.11.7-.32.1-.19.14-.42.15-.65-.25.18-.46.29-.75.26-.6-.06-.89-.58-.79-1.18.08-.46.45-.73.9-.75.41-.01.76.21.91.61.18.5.2,1.06.03,1.58-.16.48-.61.83-1.12.76l-.53-.08-.02-.33.54.11ZM30.39,2.61c.17-.27.15-.63,0-.87-.14-.22-.43-.27-.67-.18-.37.15-.44.79-.19,1.09.22.27.67.27.86-.04Z"/>
  <path d="M33.33,3.55c-.14.43-.5.63-.89.62-.94-.02-1.12-1.3-.85-2.25.12-.43.46-.68.85-.69.43-.01.79.25.91.69.14.52.15,1.09-.03,1.63ZM32.97,1.92c-.07-.25-.29-.41-.53-.4-.6.03-.67,1.17-.46,1.94.07.25.3.41.53.4.61-.03.68-1.19.47-1.95Z"/>
  <path d="M25.67,3.73v.28c-.34.11-.67.18-1.02.13-.71-.1-1.02-.79-.81-1.53.13-.46.53-.71.99-.71.37,0,.71.18.84.55.07.21.09.46.1.69h-1.6c-.04.37.21.65.6.73l.91-.15ZM25.41,2.85c0-.36-.17-.57-.46-.62-.2-.04-.44.02-.6.17-.1.09-.17.31-.19.46h1.25Z"/>
  <path d="M22.61,2.24c-.21-.06-.46-.01-.58.07-.1.08-.23.31-.23.46v1.33s-.36,0-.36,0V1.98s.35,0,.35,0l.04.25c.19-.2.4-.32.68-.31.33,0,.63.19.67.53l.05.42v1.25s-.35,0-.35,0v-1.44c0-.13-.14-.38-.27-.42Z"/>
  <polygon points="35.61 2.43 35.62 2.72 34.49 2.72 34.49 4.1 34.1 4.1 34.1 1.24 35.73 1.24 35.74 1.54 34.49 1.53 34.49 2.42 35.61 2.43"/>
  <polygon points="19.96 3.81 19.98 4.1 18.19 4.1 18.19 1.27 18.58 1.25 18.58 3.8 19.96 3.81"/>
  <path d="M37.41,3.81v.3s-.66-.03-.66-.03c-.21-.01-.4-.25-.4-.47v-1.32s-.27-.04-.27-.04v-.27s.26-.01.26-.01v-.62s.35,0,.35,0v.62s.73,0,.73,0v.3s-.73,0-.73,0v1.25c0,.08.1.26.17.27l.54.02Z"/>
  <path d="M38.49,3.94l-.36.71-.3-.04c.66-1.09.67-2.3.01-3.42l.31-.02.33.68c.31.65.29,1.4,0,2.08Z"/>
  <path d="M28.41,4.6l-.3.04c-.52-.83-.76-1.97-.34-2.79l.36-.7.3.03c-.64,1.06-.68,2.28-.01,3.42Z"/>
  <rect x="20.37" y="1.97" width=".35" height="2.13"/>
  <rect x="20.37" y="1.16" width=".35" height=".44"/>
</svg>