<?xml version="1.0" encoding="UTF-8"?>
<svg id="Layer_1" data-name="Layer 1" xmlns="http://www.w3.org/2000/svg" viewBox="0 0 43.36 72.4">
  <path d="M7.01,7.62h-2.26s-.47,1.28-.47,1.28l-.7-.04,1.9-4.97h.78s1.89,4.99,1.89,4.99h-.71s-.43-1.26-.43-1.26ZM6.77,7.08l-.91-2.46-.93,2.47h1.83Z"/>
  <path d="M11.81,5.9c.63,1.31.08,3.04-1.12,3.14-.56.05-.99-.17-1.33-.56l-.06.46h-.6s0-5.16,0-5.16h.62s.01,1.89.01,1.89c.38-.41.79-.62,1.36-.58.42.04.89.34,1.12.81ZM11.33,7.78c.12-.44.12-.98.01-1.38-.13-.5-.51-.78-.97-.78-.38,0-.79.26-.92.7-.15.48-.15,1.03,0,1.51.13.44.54.7.93.7.41,0,.81-.23.95-.74Z"/>
  <path d="M23.22,9.05c-.81.02-1.3-.5-1.3-1.22,0-.56.33-1.09.93-1.19.52-.09,1.06-.09,1.62-.11.02-.4-.26-.81-.67-.87-.54-.08-.99.01-1.58.21v-.54c.56-.16,1.1-.28,1.67-.2.68.09,1.18.66,1.19,1.35l.03,2.46h-.61s-.06-.47-.06-.47c-.27.33-.68.57-1.22.58ZM24.5,7.05l-1.31.06c-.42.02-.68.41-.65.77s.31.62.73.65c.79.04,1.21-.58,1.22-1.47Z"/>
  <path d="M32.43,9.05c-.82.01-1.43-.44-1.63-1.18-.14-.49-.14-1.11,0-1.61.2-.75.83-1.17,1.58-1.18s1.41.38,1.63,1.13c.16.54.16,1.17,0,1.71-.21.69-.8,1.12-1.57,1.13ZM33.37,7.78c.14-.48.13-1.03-.01-1.46s-.54-.69-.93-.7-.81.24-.96.67c-.17.49-.17,1.07,0,1.57.14.42.57.67.96.67s.8-.26.95-.74Z"/>
  <path d="M18.07,5.21v3.71s-.6,0-.6,0l-.07-.47c-.49.65-1.47.84-2.12.2-.21-.21-.36-.72-.36-1.03v-2.43s.62,0,.62,0v2.43c0,.18.15.6.29.71.3.24.8.2,1.09.05.24-.13.52-.53.52-.87v-2.32s.63.01.63.01Z"/>
  <path d="M37.21,5.7c-.32-.15-.76-.08-1,.07-.21.13-.47.53-.47.84v2.33s-.63,0-.63,0v-3.72s.61,0,.61,0l.07.43c.31-.3.64-.51,1.08-.54.77-.06,1.36.51,1.37,1.28l.03,2.56h-.63s0-2.43,0-2.43c0-.24-.18-.68-.43-.79Z"/>
  <path d="M28.21,8.41l.02.54-1.12-.05c-.39-.02-.76-.43-.76-.84l-.02-2.3-.44-.05v-.48s.45-.05.45-.05v-1.07s.61-.01.61-.01v1.1s1.27,0,1.27,0v.52s-1.27,0-1.27,0v2.24c0,.14.21.43.34.43l.91.02Z"/>
  <path d="M13.39,10.08c-.28.28-.74.29-1.06.29v-.51s.51-.09.51-.09c.13-.02.25-.34.25-.49v-4.06s.62,0,.62,0v3.95c0,.25-.12.72-.32.92Z"/>
  <path d="M19.93,8.93h-.62s0-3.72,0-3.72l.57-.02.14.35c.4-.36.9-.51,1.48-.43v.59c-.33-.1-.76-.14-1.07.06-.3.18-.45.63-.5.95v2.21Z"/>
  <rect x="29.04" y="5.2" width=".61" height="3.74"/>
  <rect x="13.09" y="3.77" width=".62" height=".77"/>
  <rect x="29.04" y="3.77" width=".61" height=".77"/>
  <g>
    <path d="M29.22,71.1l-19.32-11.18c2.61.54,4.84,1.75,7.17,2.78l3.47,1.86,1.22-2.43.8-2.07,2.62-8.12c.71-2.19,1.8-4.82,3.31-6.48l1.31-1.44c1.41-1.55,2.37-2.76,2.55-4.9.34,1.02.11,2.05-.3,2.99-.9,2.09-2.43,3.36-3.45,5.11-.75,1.29-1.3,2.63-1.78,4.04l-1.07,3.12c-.81,2.38-1.68,4.66-2.71,6.95-.56,1.25-1.38,2.31-2.19,3.43l3.16,2c2.03,1.29,3.83,2.76,5.62,4.4-.06.05-.23.04-.41-.06Z"/>
    <path d="M32.73,36l-.06,1.29c-.23-.86-.41-1.71-.9-2.49-.51-.83-1.13-1.56-1.76-2.3l-1.56-1.85c-1.32-1.57-2.4-4.62-2.92-6.73l-.89-3.63c-.88-3.6-2.58-6.65-4.42-9.88l.18-.04c2.96,3.52,4.63,6.42,5.82,10.87l1.04,3.91c.35,1.3.76,2.57,1.43,3.73l.64,1.11,1.79,2.5c.49.68.96,1.39,1.21,2.19l.4,1.32Z"/>
    <path d="M25.58,47.74c-.25-.09-.51-.24-.71-.42-.67-.58-1.25-1.14-1.81-1.83-2.96-3.7-3.55-8.89-1.47-13.18.79-1.51,1.72-2.94,3.15-4.02l-1.61,2.93c-1.94,4.41-2.02,8.9.25,13.19.63,1.2,1.38,2.2,2.19,3.33Z"/>
    <path d="M29.71,38.02c0,1.18-.95,2.13-2.13,2.13s-2.13-.96-2.13-2.13.95-2.13,2.13-2.13,2.13.96,2.13,2.13ZM25.66,38.43c.28.7.87,1.01,1.56.92.72-.1,1.16-.74,1.1-1.45-.05-.65-.56-1.19-1.28-1.22-.62-.02-1.17.35-1.41,1.03-.06.18-.06.51.02.72Z"/>
  </g>
</svg>