<?xml version="1.0" encoding="UTF-8"?>
<svg id="Layer_1" data-name="Layer 1" xmlns="http://www.w3.org/2000/svg" viewBox="0 0 52.5 37.87">
  <path d="M20.6,4.76c-.31.06-.65.08-.93-.02-.32-.11-.48-.37-.51-.69-.03-.37.15-.67.53-.79-.18-.12-.36-.25-.41-.39-.16-.43.06-.84.48-.95.25-.07.56-.06.81.02.32.1.47.37.48.65,0,.31-.15.53-.49.68.35.08.56.37.55.72s-.17.6-.52.76ZM20.57,2.95c.16-.18.13-.5-.04-.65-.22-.19-.6-.18-.8.03-.17.17-.15.52.04.68.22.18.59.18.8-.05ZM20.68,4.24c.06-.11.06-.41,0-.52-.11-.22-.37-.31-.6-.29-.28.02-.49.19-.53.44-.05.36.16.63.53.65.21.01.46-.05.59-.28Z"/>
  <polygon points="25.2 4.74 24.81 4.76 24.81 3.38 23.4 3.38 23.4 4.75 23.02 4.75 23.02 1.88 23.4 1.88 23.4 3.08 24.81 3.08 24.81 1.88 25.2 1.87 25.2 4.74"/>
  <path d="M27.71,4.13c-.12.46-.49.69-.91.7-.47,0-.86-.28-.95-.75-.05-.23-.05-.53,0-.76.1-.47.49-.76.95-.75.43,0,.79.24.91.67.07.26.08.61,0,.89ZM27.3,4.17c.13-.32.12-.68,0-.98-.09-.21-.33-.33-.53-.33s-.42.14-.5.36c-.12.3-.12.64,0,.94.09.22.3.35.5.36s.44-.12.54-.35Z"/>
  <path d="M30.1,2.63v2.12s-.34,0-.34,0l-.04-.26c-.29.35-.81.46-1.18.13-.14-.12-.23-.43-.23-.61v-1.39s.35,0,.35,0v1.39c0,.12.09.37.19.42.2.12.45.1.64-.02.14-.08.26-.33.26-.53v-1.26s.35,0,.35,0Z"/>
  <path d="M33.55,4.71c-.44.18-.87.1-1.28-.04v-.35c.58.28,1.24.26,1.29-.11.01-.09-.12-.27-.21-.3l-.7-.2c-.22-.06-.37-.3-.36-.53,0-.28.17-.51.45-.58.34-.08.69-.04,1.04.04l.02.34c-.33-.12-.63-.17-.98-.1-.16.03-.28.3-.15.43.07.07.27.13.38.17l.59.19c.19.06.29.35.27.52-.01.19-.14.42-.36.51Z"/>
  <path d="M31.15,4.75h-.35s0-2.12,0-2.12h.35s.03.25.03.25c.22-.29.49-.34.87-.32v.35c-.17-.05-.43-.06-.58.02-.14.07-.3.32-.3.5v1.33Z"/>
  <g>
    <path d="M28.67,20.56c-1.32-.14-2.37-.64-3.4-1.44l-.49-.52c-.33-.34-.57-.76-.84-1.17-.77.04-1.5.03-2.27-.04l.04-.12,1.95-.53c-.19-.55-.35-1.07-.36-1.65l-.02-.88c.07-.78.25-1.52.6-2.22.29-.57.62-1.11,1.1-1.54l.37-.33c.63-.56,1.46-.99,2.3-1.22,1.41-.39,2.9-.28,4.22.37l.85.53s.11.11.13.08l.1-.12.6-.92.06-.09s.11.08.11.1l-.4,1.4c1.88,1.84,2.41,4.56,1.3,6.94-.27.57-.63,1.05-1.04,1.53s-.94.82-1.49,1.14c-1,.57-2.24.82-3.4.69ZM27.41,15.11l1.16-.75c.73-.48,1.38-1.02,1.97-1.66l.91-.97.74-.94-.52-.44c-1.25-.93-2.83-1.2-4.34-.81-.55.14-1.03.38-1.51.68-.96.6-1.51,1.32-1.99,2.34-.54,1.31-.58,2.82,0,4.13,1.02-.37,1.97-.69,2.88-1.19l.71-.39ZM30.31,19.61c.54-.18,1.08-.38,1.48-.77l.77-.74.44-.56c.89-1.39,1.11-3.09.58-4.65-.16-.47-.48-1.13-.82-1.42-.45.81-.89,1.55-1.5,2.22l-.36.39-.75.7c-1.06.98-2.54,1.76-3.92,2.21-.67.22-1.31.32-2.01.46l.18.26c1.31,1.9,3.7,2.68,5.92,1.93Z"/>
    <path d="M9.85,26.12c-1.07.44-2.05.85-3.02,1.4l-1.4.79-.42.24s-.08-.09-.07-.09c0,0,.04-.06.06-.09l2.31-1.7,1.48-.84c1.53-.87,3.18-1.5,4.87-2.03,2.6-.81,5.42-1.16,8.13-1.16h.88s1.63.02,1.63.02h1.63c1.01.02,2,.03,3-.11l1.61-.22c1.58-.22,3.05-.83,4.4-1.67l.5-.38.38-.32c.62-.52,1.12-1.09,1.55-1.78.55-.89.94-1.82,1.06-2.89l.15.09c-.04.79-.12,1.52-.39,2.24-.3.82-.68,1.6-1.25,2.25l-.38.44c-.86.99-2.29,1.93-3.51,2.43s-2.91.89-4.26,1.01l-.85.08-.82.05-1.38.04h-3.38s-1.01,0-1.01,0l-.93.02-.82.03-.88.05-.82.07c-.98.09-1.9.27-2.87.46-1.78.36-3.46.85-5.17,1.56Z"/>
    <path d="M6.09,33.46c-.45.4-.83.82-1.2,1.27l-.31.38c-.46.58-.84,1.13-1.24,1.79l-.16-.02c.33-.89.72-1.68,1.2-2.48l.87-1.27.31-.37.44-.5c.62-.7,1.33-1.26,2.08-1.8,2.37-1.71,5.73-2.71,8.63-2.96l.86-.08.88-.05h2.06s.64.04.64.04c1.91.11,3.76.4,5.62.83.03,0,.14.08.12.1-.04.03-.12.07-.17.07l-2.07-.04-4.08.03c-1.53,0-2.98.16-4.5.41-1.87.32-3.63.84-5.36,1.58l-1.34.67c-.74.37-1.38.85-2.05,1.32l-.34.28-.44.38-.45.4Z"/>
    <path d="M15.36,20.58c-1.43,1.18-4.12,2.21-6.08,2.17v-.15c1.12-.29,2.13-.71,3.12-1.27.58-.32,1.12-.66,1.62-1.07l.65-.55.46-.41c.68-.72,1.29-1.47,1.83-2.3.45-.71.81-1.44,1.2-2.19l.48-.9c.37-.7.72-1.38,1.16-2.03,1.33-1.99,2.92-3.52,5.42-3.75l.13.12-.9.39c-.98.43-1.65,1.06-2.34,1.85-.36.41-.67.84-.94,1.32l-.65,1.17-.89,1.8c-.43.87-.83,1.72-1.34,2.54-.32.5-.64.98-1.01,1.44l-.2.24-.75.75-.63.57-.34.28Z"/>
    <path d="M48,12.06c-.3-.61-.36-1.26-.45-1.96l-3.56.45-1.85.29-3.76.62-.99.15h-.17s0-.13.02-.15l1.49-.78.98-.4c2.32-.94,5.25-1.33,7.78-1.05l-.09-1.64c-.04-.67-.14-1.29-.29-1.94l.05-.1s.12.01.14.04l.51.55c.51.69.79,1.51.89,2.37l.11,1,.85.28c.05.02.14.15.14.2l-.51.03-.49.03-.02.37-.08,1.23-.07,1.21s-.02.17-.05.15l-.14-.06-.43-.87Z"/>
  </g>
</svg>