<?xml version="1.0" encoding="UTF-8"?>
<svg id="Layer_1" xmlns="http://www.w3.org/2000/svg" version="1.1" viewBox="0 0 100 100">
  <!-- Generator: Adobe Illustrator 30.3.0, SVG Export Plug-In . SVG Version: 2.1.3 Build 182)  -->
  <defs>
    <style>
      .st0 {
        fill: #58180d;
      }
    </style>
  </defs>
  <path class="st0" d="M61.73,50.69c-.09-2.83-1.24-5.37-3.07-7.29l1.15-1.39c1.24,1.24,2.39,2.54,3.43,3.85.18,1.61.29,3.27.29,4.99,0,0-1.79-.15-1.79-.15ZM63.23,56.31c-1.02,1.26-2.12,2.52-3.31,3.73l-1.15-1.37c1.79-1.94,2.92-4.49,2.98-7.31l1.79-.18c0,1.77-.11,3.49-.29,5.15h0l-.02-.02ZM55.87,63.66c-1.61.18-3.27.27-4.99.29l.15-1.79c2.83-.09,5.39-1.26,7.29-3.07l1.39,1.13c-1.26,1.26-2.54,2.41-3.85,3.43v.02ZM53.31,49.96l4.13-5.06c1.35,1.5,2.23,3.47,2.36,5.61,0,0-6.5-.55-6.5-.55ZM53.31,52.17l6.5-.64c-.09,2.17-.95,4.13-2.3,5.66,0,0-4.2-5.02-4.2-5.02ZM51.07,41.9c2.17.11,4.15.95,5.66,2.3l-4.99,4.2-.66-6.5h0ZM51.76,53.74l5.06,4.13c-1.5,1.37-3.45,2.23-5.61,2.39l.57-6.5h0l-.02-.02ZM55.85,38.49c1.26,1.02,2.5,2.12,3.73,3.31l-1.37,1.15c-1.92-1.81-4.49-2.94-7.34-2.98l-.18-1.77c1.77,0,3.49.11,5.15.29h0ZM45.42,63.66c-1.26-1.02-2.52-2.12-3.73-3.31l1.37-1.15c1.92,1.81,4.49,2.94,7.34,2.98l.18,1.77c-1.77,0-3.49-.11-5.15-.29ZM38.06,56.31c-.18-1.61-.27-3.27-.29-4.99l1.79.15c.09,2.81,1.24,5.37,3.07,7.27l-1.13,1.39c-1.24-1.24-2.41-2.54-3.43-3.85h0l-.02.02ZM38.06,45.87c1.02-1.26,2.12-2.5,3.31-3.73l1.15,1.37c-1.79,1.92-2.92,4.49-2.96,7.34l-1.79.18c0-1.77.11-3.49.29-5.17h0v.02ZM49.55,53.76l.64,6.5c-2.17-.11-4.13-.95-5.66-2.3l5.02-4.2h0ZM47.98,52.19l-4.13,5.06c-1.37-1.5-2.23-3.45-2.36-5.61l6.5.55h0ZM44.47,44.28c1.5-1.37,3.47-2.23,5.61-2.39l-.55,6.5-5.06-4.13v.02ZM47.96,49.99l-6.5.64c.11-2.17.95-4.13,2.3-5.66l4.2,4.99h0v.02ZM45.42,38.49c1.61-.18,3.27-.27,4.99-.29l-.15,1.79c-2.83.09-5.37,1.26-7.29,3.07l-1.39-1.13c1.26-1.26,2.54-2.41,3.85-3.43v-.02ZM65.09,45.1c-1.22-1.5-2.54-3.03-3.98-4.46-1.46-1.44-2.96-2.78-4.46-3.98-1.92-.22-3.93-.35-5.99-.35s-4.07.13-5.99.35c-1.52,1.22-3.01,2.54-4.46,3.98-1.44,1.46-2.78,2.96-3.98,4.46-.22,1.92-.35,3.93-.35,5.99s.13,4.04.35,5.99c1.22,1.5,2.54,3.01,3.98,4.46,1.46,1.44,2.94,2.78,4.46,3.98,1.92.22,3.93.35,5.99.35s4.07-.13,5.99-.35c1.52-1.22,3.03-2.54,4.46-3.98,1.44-1.46,2.78-2.94,3.98-4.46.22-1.92.35-3.93.35-5.99s-.13-4.07-.35-5.99Z"/>
  <path class="st0" d="M75.63,39.4c-2.72-1.7-5.99-3.07-9.68-4.09-2.63-.73-5.41-1.28-8.31-1.61-2.28-.27-4.64-.4-6.98-.4-1.55,0-3.12.07-4.64.18,1.64-1.19,3.29-2.25,4.95-3.2,3.56-1.99,7.12-3.38,10.36-4.02,1.39-.27,2.72-.4,3.96-.4,3.29,0,5.94.95,7.78,2.81,2.41,2.39,3.29,6.1,2.56,10.74h0Z"/>
  <path class="st0" d="M82.37,51.09c0,3.38-1.99,6.63-5.79,9.39-.73-3.12-2.06-6.39-3.96-9.75-1.33-2.36-2.94-4.71-4.73-7.01-1.44-1.79-2.98-3.54-4.66-5.24-1.08-1.08-2.23-2.14-3.4-3.14,1.99.31,3.93.73,5.77,1.24,3.91,1.08,7.42,2.65,10.17,4.46,4.31,2.92,6.61,6.34,6.61,10.01h0v.02Z"/>
  <path class="st0" d="M73.08,73.5c-1.86,1.86-4.49,2.81-7.78,2.81-.93,0-1.92-.09-2.96-.24,1.68-2.72,3.07-5.99,4.09-9.68.73-2.63,1.28-5.41,1.59-8.31.27-2.28.4-4.64.4-6.98,0-1.55-.07-3.12-.18-4.64,1.19,1.64,2.25,3.29,3.2,4.95,1.99,3.56,3.38,7.12,4.02,10.36.99,5.13.18,9.17-2.41,11.73h.02Z"/>
  <path class="st0" d="M66.37,60.24c-.31,1.99-.73,3.93-1.26,5.77-1.08,3.91-2.65,7.42-4.46,10.17-2.92,4.31-6.34,6.61-9.99,6.61-3.4,0-6.63-1.99-9.41-5.79,3.12-.73,6.39-2.06,9.75-3.96,2.36-1.33,4.73-2.94,7.01-4.73,1.81-1.44,3.56-3.01,5.24-4.66,1.1-1.1,2.14-2.23,3.14-3.4h0Z"/>
  <path class="st0" d="M55.27,68.68c-1.64,1.19-3.29,2.25-4.95,3.2-3.56,1.99-7.14,3.38-10.36,4.02-1.37.27-2.72.4-3.93.4-3.29,0-5.94-.95-7.78-2.81-2.41-2.39-3.29-6.1-2.56-10.74,2.72,1.68,5.99,3.07,9.68,4.09,2.63.73,5.41,1.28,8.31,1.59,2.28.27,4.64.4,7.01.4,1.55,0,3.09-.07,4.62-.18h0l-.02.02Z"/>
  <path class="st0" d="M41.48,66.8c-1.99-.31-3.93-.73-5.77-1.24-3.91-1.08-7.42-2.63-10.17-4.46-4.31-2.92-6.61-6.34-6.61-9.99,0-3.4,1.99-6.63,5.79-9.41.73,3.12,2.06,6.39,3.96,9.75,1.35,2.36,2.94,4.73,4.73,7.01,1.41,1.79,3.01,3.56,4.66,5.24,1.1,1.08,2.23,2.14,3.4,3.14h0v-.02Z"/>
  <path class="st0" d="M38.97,26.07c-1.68,2.72-3.07,5.99-4.09,9.68-.73,2.63-1.28,5.41-1.61,8.31-.27,2.28-.4,4.62-.4,6.98s.07,3.09.18,4.62c-1.19-1.64-2.25-3.29-3.2-4.95-1.99-3.54-3.38-7.12-4.02-10.36-.99-5.1-.18-9.17,2.41-11.73,1.86-1.86,4.49-2.81,7.78-2.81.93,0,1.92.09,2.96.24h0v.02Z"/>
  <path class="st0" d="M60.05,25.15c-3.12.73-6.39,2.06-9.75,3.96-2.36,1.33-4.71,2.94-7.01,4.73-1.79,1.44-3.54,3.01-5.24,4.66-1.08,1.1-2.14,2.23-3.14,3.4.31-1.99.73-3.93,1.26-5.77,1.08-3.91,2.65-7.42,4.46-10.17,2.89-4.31,6.34-6.61,10.01-6.61,3.38,0,6.63,1.99,9.41,5.79h-.02Z"/>
  <path class="st0" d="M50.65,12.04c-21.52,0-39.05,17.5-39.05,39.05s17.5,39.03,39.05,39.03,39.03-17.5,39.03-39.03S72.18,12.04,50.65,12.04ZM50.65,94.78c-24.11,0-43.71-19.6-43.71-43.71S26.55,7.38,50.65,7.38s43.71,19.6,43.71,43.71-19.6,43.71-43.71,43.71v-.02Z"/>
</svg>