<?xml version="1.0" encoding="UTF-8"?>
<svg id="Layer_1" data-name="Layer 1" xmlns="http://www.w3.org/2000/svg" viewBox="0 0 52.5 46.38">
  <path d="M38.93,32.94c0,1.14-.93,2.07-2.07,2.07s-2.07-.92-2.07-2.07.93-2.07,2.07-2.07,2.07.92,2.07,2.07ZM37.6,32.94c0-.72-.58-1.3-1.3-1.3s-1.3.58-1.3,1.3.58,1.3,1.3,1.3,1.3-.58,1.3-1.3Z"/>
  <path d="M20.31,5.43h-.46s-.47-.93-.47-.93c-.06-.11-.26-.36-.38-.36l-.74-.04v1.34s-.43,0-.43,0v-3.16s1.3.03,1.3.03c.48.01.8.43.76.89.03.35-.17.63-.48.76.15.16.33.33.4.48l.51,1.01ZM19.43,3.15c-.01-.29-.23-.52-.49-.53h-.69s0,1.15,0,1.15l.68-.02c.3,0,.51-.27.49-.6Z"/>
  <path d="M24.95,5.16c-.23.25-.52.4-.9.35-.29-.04-.58-.27-.71-.6-.31-.8-.02-1.77.65-1.9.39-.08.68.04.97.35v-1.21s.39,0,.39,0v3.29s-.37,0-.37,0l-.04-.28ZM24.87,3.73c-.09-.24-.34-.41-.55-.42-.23,0-.5.13-.6.37-.14.34-.14.78,0,1.12.11.25.36.38.6.38.55-.02.79-.79.55-1.45Z"/>
  <path d="M27.98,5.51c-.47-.03-.75-.35-.75-.78,0-.39.28-.76.7-.78l.94-.06c.02-.22-.15-.48-.39-.53-.36-.08-.68,0-1.06.14v-.35c.57-.22,1.35-.24,1.62.14.15.21.23.5.23.75v1.42s-.38,0-.38,0l-.05-.29c-.21.24-.49.38-.86.36ZM28.66,4.97c.17-.23.21-.44.23-.74l-.92.05c-.13,0-.33.24-.33.36-.01.32.15.51.46.53.16.01.46-.07.56-.2Z"/>
  <path d="M21.37,5.51c-.52.01-.83-.32-.83-.78,0-.36.21-.7.6-.76.33-.06.68-.06,1.04-.07.01-.25-.17-.52-.43-.56-.34-.05-.64,0-1.02.13v-.34c.36-.1.7-.18,1.07-.13.44.06.75.42.76.86l.02,1.58h-.39s-.04-.3-.04-.3c-.17.21-.44.37-.78.37ZM22.19,4.24l-.84.04c-.27.01-.44.26-.42.49s.2.4.47.41c.51.03.78-.37.79-.94Z"/>
  <path d="M31.49,3.43c-.24-.18-.52-.13-.73,0-.15.09-.3.37-.3.59v1.42s-.4,0-.4,0v-2.38s.38,0,.38,0l.05.29c.32-.39.91-.52,1.32-.14.16.14.26.48.26.69v1.55s-.4,0-.4,0v-1.49c0-.13-.08-.44-.19-.52Z"/>
  <path d="M34.06,5.12v.34s-.75-.04-.75-.04c-.23-.01-.44-.29-.45-.52v-1.48s-.29-.04-.29-.04l-.02-.3.29-.03v-.69s.39,0,.39,0v.7s.82,0,.82,0v.34s-.82,0-.82,0v1.38c0,.08.08.3.14.31l.66.05Z"/>
  <rect x="26.17" y="3.05" width=".39" height="2.39"/>
  <rect x="26.17" y="2.13" width=".39" height=".49"/>
  <g>
    <path d="M2.67,39.94v-13.17s.02-3.11.02-3.11v-1.62s.03-1.01.03-1.01h.16c.26,1.39.54,2.75.67,4.17l.19,2.05.06.84.07,1.27.04,1.34.05,2.15c4.59-.12,9.4-.56,13.59-2.63l1.75-.86,1.05-.51,1.56-.69c.63-.28,1.26-.49,1.92-.69,1.59-.47,3.23-.78,4.84-.37,1.25.32,2.11.89,2.86,1.93.21-1.33.38-2.59.79-3.82l.77-2.32.6-1.44.79-1.61.61-1.08.71-1.13,1.24-1.71.63-.78.39-.45.58-.62.81-.81.73-.68.45-.4,1.48-1.14.13.02s-.04.1-.07.13c-1.05,1.11-2.04,2.23-2.94,3.46l-.69.94-1.04,1.56-.64,1.05-.83,1.48-.89,1.79-.88,2.07-.79,2.24c-.4,1.12-.64,2.22-.9,3.39-.46,2.09-.72,4.16-.81,6.31l-.16.09-.16-1.78-.06-1.69.06-1.62.09-1.21c-2.2-2.38-5.39-1.6-8.15-.44-1.41.59-2.73,1.25-4.08,1.97-.84.45-1.65.84-2.53,1.21l-1.37.46c-1.77.59-4.7,1.01-6.57,1.01h-1.51c-1.12,0-2.21-.15-3.33-.29l-.05,2.36-.04,1.48-.07,1.2-.07,1.04c-.1,1.44-.27,2.83-.51,4.25l-.32,1.76c.06,0-.16.05-.16.02l-.02-.9-.02-1.88-.02-2.58Z"/>
    <path d="M41.43,28.9l-.58-.61c-.56-.59-.9-1.32-1.16-2.08-.82-2.4-.45-5,.6-7.28l.75-1.43.68-1.08,1.1-1.51.62-.79.44-.55.8-.96,1.62-2.03.53-.74.92-1.41.55-.92.7-1.19c.05.18.03.34-.03.51l-.59,1.61-1.03,2.13-.5.85-1.44,2.07-.66.89-.89,1.22-.64.91-1.3,2.07-.42.78c-.45.83-.77,1.71-1.02,2.63l-.27,1.48v1.58c.14,1.39.57,2.66,1.39,3.81,0,.02-.16.06-.19.03Z"/>
  </g>
</svg>