<?xml version="1.0" encoding="UTF-8"?>
<svg xmlns="http://www.w3.org/2000/svg" viewBox="0 0 100 100">
  <g transform="translate(50 50) scale(1.31277) translate(-25.6750 -39.8100)">
  <path d="M26.24,53.11c1.37,3.78.16,7.37-1.97,10.62,1.96,1.18,3.91,2.35,5.68,3.81l2.96,2.45c.03.06.07.2.1.29l-19.62-11.36c2.33.48,4.45,1.45,6.53,2.49l1.54.77,2.49,1.37c1.24-2.49,2.14-5.29,1.7-8.1-.16-1.04-.55-1.99-1.03-2.91-1.07-2.07-2.02-4.42-1.73-6.73.39-3.12,3.5-5.4,6.54-4.86,2.04.36,3.78,1.85,4.4,3.84-.53-.61-.96-1.24-1.57-1.75-2.36-1.97-5.85-1.59-7.47,1.16-1.09,1.86-.6,3.93.17,5.98.31-.49.64-.89,1.17-1.13.82-.36,1.75-.15,2.34.53.74.84.71,2.14-.04,2.96-.57.62-1.38.81-2.19.55ZM27.23,52.08c.64-.59.59-1.59-.04-2.08-.59-.47-1.33-.37-1.87.13-.19.18-.22.48-.11.71l.71,1.51c.43.08.95.05,1.3-.27Z"/>
  <path d="M36.28,30.82c.79-1.75.49-3.48-.48-5.1,1.73,1.56,1.98,4.25.79,6.2-.77,1.27-2.08,1.97-3.52,2.2-3.11.4-5.22-1.76-6.01-4.66-.34-1.27-.52-2.57-.51-3.91l.02-2.97.04-3.63c.02-2.05-.46-3.98-1.15-5.89-.53-1.28-1.12-2.42-1.74-3.72,2.47,2.76,3.93,6.62,4.01,10.27l.07,3.52c.07,3.35-.03,7.77,3.02,9.49.48.27,1.04.37,1.59.41,1.63.05,3.12-.75,3.88-2.22Z"/>
  <path d="M37.96,36.87h-14.32c1.31-.71,2.58-.8,3.89-1.06,2.39-.3,4.75-.28,7.13.09,1.11.26,2.22.32,3.3.97Z"/>
  <path d="M34.61,28.22c0,1.17-.95,2.12-2.12,2.12s-2.12-.95-2.12-2.12.95-2.12,2.12-2.12,2.12.95,2.12,2.12ZM33.25,28.22c0-.75-.61-1.36-1.35-1.36s-1.35.61-1.35,1.36.61,1.36,1.35,1.36,1.35-.61,1.35-1.36Z"/>
  </g>
</svg>
