<?xml version="1.0" encoding="UTF-8"?>
<svg id="Layer_1" data-name="Layer 1" xmlns="http://www.w3.org/2000/svg" viewBox="0 0 53.5 34.36">
  <path d="M35.99,3c.27.94.1,2.23-.86,2.26-.41.01-.75-.23-.89-.66-.17-.52-.17-1.11,0-1.63.14-.43.48-.67.89-.66s.73.26.86.69ZM34.76,4.82c.09.13.39.17.52.11.48-.2.51-1.26.32-1.93-.06-.23-.28-.39-.47-.39-.55,0-.64.7-.62,1.4.01.28.07.56.25.81Z"/>
  <path d="M25.84,3.5c.33.73.04,1.67-.62,1.76-.33.04-.57-.06-.81-.31l-.02.26h-.34s0-2.94,0-2.94h.35s0,1.07,0,1.07c.21-.22.45-.35.76-.33.26.02.54.2.67.49ZM25.51,3.64c-.09-.22-.32-.34-.53-.33-.51.01-.72.76-.47,1.33.1.22.32.34.54.33.5-.02.7-.76.47-1.33Z"/>
  <g>
    <path d="M18.75,20.81l.25-.52c.83-1.68.82-3.73-.31-5.21l-.19-.25c-.28-.37-.62-.66-.98-.97l-.4-.35-.54-.47c-.65-.56-1.16-1.13-1.59-1.88l-1.25.69-.78.42-1.05.52c-1.23.61-2.44,1.14-3.76,1.57l-1.23.4s-.13-.03-.15-.04c-.03,0,.05-.08.1-.1l15-8.65s.1.07.08.09l-.09.08-.68.64-.44.38c-1.03.9-2.11,1.69-3.25,2.44l-.79.52-1.33.84.54.52.56.44,1.62,1.14c.64.45,1.53,1.28,1.82,1.92l.29.65c.29.65.32,1.37.25,2.08-.09.92-.41,1.78-1,2.5l-.61.65-.11-.04Z"/>
    <g>
      <path d="M53.32,32.48c-.85.24-1.64.41-2.5.53h-1.58c-.63-.09-1.24-.2-1.83-.43-1.65-.63-3.14-1.95-3.5-3.71-.25-1.2.05-2.48.87-3.4.16-.18.34-.32.56-.47.32-.22.92-.43.95-.24-1.55.83-1.97,2.86-1.23,4.41.13.28.3.58.52.79l.75.75c1.46,1.22,3.53,1.6,5.42,1.58l1.63.03-.07.15Z"/>
      <g>
        <path d="M40.55,32.57c-.09-.06-.11-.14-.12-.25l-.29-2.67-.4-3.72-.06-.32-5.96-2.48-3.72,6.15-6.6-3.79-.92-.53-1.3-.74.18-.25.8-.96,2.42-2.9.34-.41.34-.41,1.96-2.36s.06-.08.07-.08l.09.08-.29.43-.48.72c-1.33,2-2.73,3.9-4.19,5.83l7.18,3.89,2.35-3.77,1.39-2.16,3,1.36,1.71.8,2.11,1.02.23.11.04.94.05,1.13.05,1.48.03,3.85Z"/>
        <path d="M28.34,19.72c-.19,1.68-1.31,3.43-3,3.9.52-.84,1-1.61,1.41-2.46.37-.76.64-1.48.92-2.29l.6.22,1.22.43v.12s-1.15.07-1.15.07Z"/>
        <path d="M29.84,22.38c-.1.33-.29.68-.64.79-.41.14-.82.07-1.23-.11l.38-.43.57-.69.17-.39,1.17.43.76.28c-.41.13-.73.13-1.19.12Z"/>
      </g>
    </g>
  </g>
  <path d="M28.29,4.83v.28c-.34.11-.67.18-1.02.13-.71-.1-1.02-.79-.81-1.53.13-.46.53-.71.99-.71.37,0,.71.18.84.55.07.21.09.46.1.69h-1.6c-.04.37.21.65.6.73l.91-.15ZM28.03,3.94c0-.36-.17-.57-.46-.62-.2-.04-.44.02-.6.17-.1.09-.17.31-.19.46h1.25Z"/>
  <path d="M31.68,5.2c-.02-.06-.03-.29.03-.34l.9-.94c.33-.34.59-.7.39-1.04-.22-.38-.78-.29-1.32-.03v-.38s.79-.15.79-.15c.28-.05.63.1.81.3.24.27.21.6.1.91l-.39.48-.85.87h1.33s0,.31,0,.31h-1.79Z"/>
  <path d="M19.75,4.9c.49.15.88.01,1.25-.28v.39c-.35.2-.71.28-1.12.23-.54-.06-.97-.42-1.1-.95-.22-.92.13-1.82,1.05-1.95.43-.06.81.01,1.19.22v.39c-.42-.32-.88-.44-1.37-.23-.16.07-.35.28-.41.45-.24.68-.09,1.55.52,1.74Z"/>
  <path d="M23.35,3.06v2.14s-.34,0-.34,0l-.03-.26c-.3.36-.84.47-1.21.11-.12-.11-.21-.42-.21-.59v-1.39s.35,0,.35,0v1.39c0,.11.09.34.17.41.14.11.42.11.58.04.14-.06.32-.28.33-.47l.02-1.37h.35Z"/>
  <polygon points="38.23 3.52 38.25 3.82 37.12 3.82 37.12 5.2 36.73 5.19 36.73 2.33 38.36 2.33 38.37 2.63 37.12 2.63 37.12 3.52 38.23 3.52"/>
  <path d="M40.04,4.91v.3s-.67-.04-.67-.04c-.21-.01-.4-.26-.4-.47v-1.31s-.25-.04-.25-.04v-.27s.25-.03.25-.03v-.61s.35,0,.35,0v.62s.73,0,.73,0v.3s-.73,0-.73,0v1.22c0,.07.07.27.13.28l.59.04Z"/>
  <path d="M31.04,5.7l-.3.04c-.52-.83-.76-1.97-.34-2.79l.36-.7.3.03c-.64,1.06-.68,2.28-.01,3.42Z"/>
  <path d="M41.13,4.99l-.36.74h-.31c.64-1.12.66-2.33,0-3.44l.31-.02.35.73c.3.62.32,1.37,0,2.01Z"/>
</svg>