<?xml version="1.0" encoding="UTF-8"?>
<svg xmlns="http://www.w3.org/2000/svg" viewBox="0 0 100 100">
  <g transform="translate(50 50) scale(1.71711) translate(-25.9350 -19.1950)">
  <path d="M15.42,18.03c.13-1.88-.73-3.17-2.09-4.35l-.37-.32-.44-.38-.43-.39c-.5-.45-.91-.98-1.25-1.58-2.04,1.18-4.12,2.25-6.35,3.03l-.9.31-.83.27s-.12-.07-.12-.09l1.61-.95,2.88-1.69,2.03-1.18,4.57-2.63.88-.5,2.36-1.33.64-.36.09-.05s.07.09.07.11l-.52.47-.67.59-.34.29-.42.34c-1.45,1.18-2.99,2.19-4.62,3.17l.46.46c.77.78,2.43,1.52,3.56,2.83,1.64,1.89,1.41,4.99-.58,6.61l-.07-.09c.46-.81.76-1.64.82-2.57Z"/>
  <path d="M46.45,32.55h-2.76c-1.22,0-2.39-.2-3.6-.4-1.71-.3-3.35-.7-4.98-1.28-1.27-.45-2.42-1.08-3.45-1.94l-.97-.97c-.68-.68-1.34-2.05-1.59-3.05-.22-.86-.31-1.73-.21-2.62.09-.78.2-1.59.69-2.27-.4,1.87-.3,3.68.49,5.36.73,1.55,1.89,2.76,3.4,3.56.69.37,1.34.67,2.09.93,2.61.89,5.26,1.5,8.01,1.87,1.26.17,2.44.29,3.69.34l1.97.07-.11.14c-.89.1-1.75.26-2.66.26Z"/>
  <path d="M30.71,30.13l-.79-.34-1.34-.48-1.27-.35c-.83-.23-1.66-.34-2.53-.43-2.1-.22-4.13-.08-6.22.39l-.04-.12c4.01-2.15,9.36-1.61,13.09.93l1.07.82.94.93.25.28-.03.15-2.08-1.27-1.04-.52Z"/>
  <path d="M22.4,23.45l-.36.37-.62.45c-.23.16-.44.22-.77.3l.44-.7c.79-1.27,1.42-2.58,1.88-4.02l.64.23,1.29.47c-.44.14-.81.12-1.25.11-.13,1.05-.5,2.04-1.24,2.8Z"/>
  </g>
</svg>
