<?xml version="1.0" encoding="UTF-8"?>
<svg id="Layer_1" data-name="Layer 1" xmlns="http://www.w3.org/2000/svg" viewBox="0 0 49.05 39">
  <path d="M34.79,38.11l.85-.82.37-.32c1.14-1,2.34-1.89,3.63-2.69l.89-.55.58-.35-1.34-2.2-1.44-2.32-.69-1.38-.52-1.23-.88-2.13c-.35-.84-.76-1.61-1.27-2.36-1.66-2.43-4.41-3.78-7.37-3.4-.66.08-1.27.19-1.9.36l-1.68.46-.78.23-1.48.4c-1.9.51-4.18.59-5.96-.23-.41-.19-.78-.42-1.09-.73l-.38-.38c-.27-.27-.5-.59-.7-.92l-.96-1.55c-.29-.48-.59-.93-.95-1.36l-.26-.31-.6-.59-.34-.28c-1.08-.9-2.63-1.48-4.03-1.74-1.11-.21-2.2-.29-3.34-.3l.02,2.28c0,.07-.04.19-.09.3-.47-.82-.77-1.64-.9-2.53l-.12-.13c.04-.09.08-.2.07-.28-.05-.73,0-1.42.17-2.12.22-.89.97-1.75,1.85-1.83.46-.04,1.02.03,1.23.25l.1.1c.17.17-.72-.03-1.23.31-.22.15-.43.34-.57.56-.26.42-.41.93-.44,1.42l-.1,1.42c3.23-.16,6.42.18,8.77,2.52.31.31.61.6.86.96l.76,1.11.75,1.14.58.73c1.49,1.9,4.6,1.69,6.81,1.09l.94-.26,2.03-.6c.96-.28,1.89-.45,2.89-.57,2.29-.26,4.56.37,6.31,1.84l.34.29.63.62.29.34.7.99.54.96c.48.86.8,1.77,1.12,2.7l.42,1.21.36,1.02c.33.92.78,1.76,1.26,2.62l.56,1.01.55,1.02.47.96.18.41,3.27-1.67c1.31-.67,2.67-1.09,4.08-1.48v.14s-13.71,7.93-13.71,7.93c-.05-.02-.12-.07-.12-.08Z"/>
  <path d="M24.46,6.27v-.32s1.01-1.05,1.01-1.05c.31-.32.49-.72.28-1.01-.25-.33-.82-.22-1.29.04v-.38c.63-.24,1.4-.26,1.68.27.16.31.1.73-.14.98l-1.09,1.16h1.31s.02.3.02.3h-1.79Z"/>
</svg>