<?xml version="1.0" encoding="UTF-8"?>
<svg id="Layer_1" data-name="Layer 1" xmlns="http://www.w3.org/2000/svg" viewBox="0 0 52.5 39.32">
  <g>
    <path d="M9.44,30.31c-1,.46-2.32,1.43-3.05,2.28-.64.65-1.18,1.31-1.69,2.07l-1.3,1.95s-.06.09-.08.08l-.12-.06c.36-.87.73-1.63,1.16-2.44.53-.96,1.09-1.88,1.86-2.65l1.1-1.09c1.07-1.07,3.36-1.96,4.9-2.31.96-.21,1.89-.37,2.87-.45l2.74-.23c1.16-.1,2.27-.17,3.42-.33,1.83-.24,3.59-.58,5.36-1.09.68-.2,1.31-.39,1.94-.69l1.73-.83c.66-.36,1.28-.74,1.87-1.2l.12-.04s.02.11,0,.13l-.42.43-.42.4c-.98.92-3.05,2.12-4.36,2.6l-1.66.6-1.52.42-2.32.45c-1.34.26-2.66.36-4.01.47l-.75.06-1,.08-.52.05c-1.91.17-4.14.56-5.87,1.35Z"/>
    <path d="M23.14,24.58l1.26-.49,1.42-.72c.72-.36,1.34-.84,1.99-1.33l.37-.32.63-.57c.51-.46.96-.96,1.39-1.49l.39-.48.88-1.16.08.12c-.34,1.46-.98,2.75-1.94,3.89-.44.53-.94.97-1.49,1.39-1.83,1.42-4.13,2.05-6.5,1.8-.09.02-.11-.14-.02-.14l1.53-.51Z"/>
    <g>
      <path d="M31.33,12.26l-2.99-.29-.94-.06c-1.57-.1-3.29.01-4.82.41-.99.27-1.89.65-2.75,1.22-.02,0-.13-.03-.11-.05l.05-.1.41-.35c1.17-.98,2.66-1.61,4.17-1.92,1.06-.21,2.1-.32,3.18-.3l1.57.03,2.5.16,1.76.11,1.06.04h1.32c1.42,0,2.77-.29,4.14-.66l2.17-.59,1.61-.34c1.26-.26,2.49-.28,3.83-.21l-.11-2.12c-.03-.64-.16-1.24-.29-1.87.02,0,.18-.02.2,0l.45.46c.6.62.94,2.01,1.01,2.96l.04.67.96.15v.13s-.96.05-.96.05l-.02.44-.07,1.06-.06.95-.03.49c-.02.28-.66-.72-.81-1.51l-.26-1.38c-1.48.14-2.9.39-4.31.77l-2.23.72c-.77.25-1.49.53-2.29.72-2.57.6-4.74.43-7.38.17Z"/>
      <path d="M14.25,23.62l-.45.4-.34.28c-.62.5-1.28.9-1.97,1.28-1.62.89-3.64,1.35-5.44.98l-1.13-.32-.03-.09s.07-.08.08-.07c.6.14,1.16.19,1.78.18,1.84-.09,3.17-.76,4.68-1.73.41-.26.78-.54,1.15-.86l.47-.41c.71-.61,1.33-1.29,1.97-1.97l1-1.07,2.12-2.13c.66-.54,1.28-1.06,1.99-1.52,1.92-1.26,4.12-1.87,6.41-1.96h1.28c1.96,0,5.44.86,7.3,1.61l1.97.79v.1s-.08.03-.1.03l-.92-.23-3.45-.76c-2.76-.6-6.35-.68-9.05.19-1.37.44-2.63,1.11-3.72,2.03l-.34.29-.47.41-.57.5-.98.96-.71.67-.75.75-.59.6-.69.63-.51.46Z"/>
    </g>
  </g>
  <path d="M26.66,19.85c0,1.05-.85,1.9-1.9,1.9s-1.9-.85-1.9-1.9.85-1.9,1.9-1.9,1.9.85,1.9,1.9ZM25.17,20.63c.27-.43.27-1.24-.05-1.62-.48-.58-1.22-.57-1.69-.15s-.54,1.03-.31,1.56c.15.34.43.57.79.66.47.12.97-.01,1.25-.46Z"/>
  <polygon points="24.31 4.55 24.29 2.13 23.57 3.99 23.19 4.01 22.47 2.13 22.45 4.55 22.08 4.55 22.08 1.68 22.65 1.68 23.38 3.63 24.11 1.68 24.68 1.68 24.68 4.55 24.31 4.55"/>
  <path d="M33.74,4.29c.36.08.7,0,1.01-.16l.02.33c-.71.27-1.54.21-1.8-.44-.15-.37-.13-.81.04-1.15s.5-.5.87-.52c.41-.01.77.2.9.61.05.18.07.4.08.62h-1.61c-.01.32.15.62.49.69ZM34.49,3.3c0-.43-.27-.64-.62-.64-.37,0-.62.28-.63.64h1.24Z"/>
  <path d="M27.83,2.81c-.17-.19-.45-.17-.63-.09-.15.06-.33.31-.33.52v1.32s-.36,0-.36,0v-2.12s.34,0,.34,0l.03.27c.3-.36.84-.47,1.21-.11.12.11.21.42.21.59v1.39s-.35,0-.35,0v-1.32c0-.1-.05-.34-.12-.42Z"/>
  <polygon points="18.47 4.56 18.44 4.27 19.07 4.25 19.07 2.06 18.39 2.2 18.39 1.84 19.06 1.71 19.45 1.71 19.45 4.25 20.09 4.26 20.08 4.56 18.47 4.56"/>
  <path d="M30.75,2.43v2.12s-.33,0-.33,0l-.03-.27c-.29.34-.75.46-1.14.19-.15-.11-.28-.4-.28-.59v-1.45s.34,0,.34,0v1.44c0,.15.15.39.3.43.17.05.42,0,.55-.08.12-.08.24-.32.24-.49v-1.3s.35,0,.35,0Z"/>
  <path d="M32.54,4.26v.3s-.66-.03-.66-.03c-.21-.01-.4-.25-.4-.47v-1.32s-.27-.04-.27-.04v-.27s.26-.01.26-.01v-.62s.35,0,.35,0v.62s.73,0,.73,0v.3s-.73,0-.73,0v1.25c0,.08.1.26.17.27l.55.02Z"/>
  <rect x="25.43" y="2.43" width=".35" height="2.13"/>
  <rect x="25.43" y="1.61" width=".35" height=".44"/>
</svg>