<?xml version="1.0" encoding="UTF-8"?>
<svg id="Layer_1" data-name="Layer 1" xmlns="http://www.w3.org/2000/svg" viewBox="0 0 52.5 37.87">
  <g>
    <path d="M7.33,33.82l1.08-1.14.6-.54c.57-.51,1.2-.9,1.86-1.27.82-.46,1.67-.8,2.58-1.05l1.57-.44,1.5-.5c.49-.16.93-.43,1.37-.69,1.39-.82,2.09-2.49,1.22-3.95-.28-.47-.67-.89-1.15-1.15-.99-.55-2.01-.67-3.09-.37-.82.23-1.53.61-2.18,1.14-.26.22-.52.44-.73.71l-.62.83-.12-.1c.3-.61.61-1.13,1.02-1.64l.44-.44c.48-.48,1.03-.83,1.65-1.12,1.22-.57,2.6-.58,3.86-.06.44.18.86.42,1.19.75l.5.51c.68.87.97,2,.8,3.11-.1.64-.35,1.25-.78,1.72l-.33.36-.43.39c-.65.58-1.4,1.02-2.24,1.26l-1.9.54-1.4.37-1.64.55c-1.1.37-2.97,1.68-3.79,2.53l-.28.29-.31.32c-.49.51-.94,1.02-1.36,1.59-.52.7-.98,1.37-1.44,2.14l-.12-.11c.54-1.39,1.69-3.49,2.67-4.52Z"/>
    <path d="M36.14,20.38c-1.29,1.05-2.98,1.83-4.61,2.22-2.42.58-4.5.36-6.83-.43-1.28-.43-2.49-.93-3.74-1.44-1.6-.66-3.23-1.19-4.96-1.34-1.1-.1-2.15.07-3.19.4-.7.22-1.3.56-1.85,1.04l-.29.25s-.13.02-.12,0l.05-.13.26-.35.56-.57c.47-.47,1.08-.74,1.7-1,2.28-.94,5.15-.57,7.46.26l2.76,1,1.32.5c.81.31,1.63.54,2.49.71,2.98.61,6.16-.06,8.76-1.61.52-.31,1.01-.6,1.47-.98l.44-.37.1-.07s.09.04.08.06l-.04.12-.32.39c-.28.34-.6.65-.94.93l-.52.42Z"/>
    <g>
      <path d="M40.68,14.04l-.82.48-2.82,1.68-1.88.95-1.16.47c-1.17.48-2.4.65-3.67.68-1.82.04-3.58-.3-5.21-1.07l-1.35-.71c-1,.68-1.95.97-3.16,1.03l-.05-.13c.65-.17,1.25-.37,1.78-.74l.81-.56-.41-.33-.33-.28-.48-.44.14-.07,1.39.8c.75-.89,1.11-1.6,1.27-2.74.2-1.44-.44-2.94-1.55-3.9-1-.86-2.29-1.2-3.59-.99-1.2.19-2.06.76-2.89,1.62-.41.53-.75,1.07-1,1.67h2.37s-1.14,2-1.14,2l-.78,1.35-.76,1.3-1.19-2.1-.81-1.38-.65-1.17h2.64c.12-.66.3-1.28.65-1.86.66-1.1,1.36-1.72,2.52-2.24,2.06-.92,4.66-.32,6.1,1.39.39.46.69.92.91,1.48.79,2.07.32,4.37-1.31,5.91l1.31.48c.72.27,1.47.42,2.24.5l.55.06c.63.07,1.24.07,1.87,0l.62-.07c1.2-.13,3.13-.76,4.18-1.33l1.91-1.03,2.11-1.21,1.09-.6,1.58-.74c1.92-.9,4-1.27,6.13-1.2l1.17.03-.08-1.63c-.04-.74-.13-1.54-.3-2.25-.01-.04,0-.12.01-.15.05-.13.81.58,1.15,1.4.36.88.5,1.79.5,2.75l.91.12.1.17-1,.03-.04.84-.06,1-.06,1.07-.13.12-.38-.72c-.37-.7-.46-1.46-.56-2.25-1.5.12-3.72.35-4.96.88l-2.01.86-1.4.76Z"/>
      <path d="M31.93,14.42c-1.45.41-2.9.56-4.4.39-.02,0-.15-.06-.12-.08l.13-.07c1.02-.23,1.98-.51,2.96-.87,1.14-.47,2.26-.91,3.27-1.62l1.17-.83c.43-.3.8-.65,1.17-1.02l.38-.38c.47-.49.9-.97,1.31-1.51l.9-1.22.67-1.03s.12.06.11.09l-.33,1.19c-.19.68-.46,1.29-.85,1.86l-.95,1.43-.31.37-.75.75-.66.6-.28.22c-.58.46-1.2.84-1.88,1.12l-1.52.62Z"/>
    </g>
  </g>
  <path d="M32.22,5.36h-.41s-.43-.85-.43-.85c-.06-.11-.27-.31-.41-.32l-.58-.02v1.19s-.38,0-.38,0v-2.81s1.03,0,1.03,0c.23,0,.54.12.66.31.17.25.19.58.06.86-.05.12-.25.25-.37.32.1.09.28.25.33.36l.49.95ZM31.44,3.33c-.01-.3-.2-.47-.47-.48h-.58s0,1.02,0,1.02h.58c.29,0,.48-.23.47-.55Z"/>
  <path d="M16.06,2.52h.39s0,1.91,0,1.91c0,.29-.14.65-.39.8-.4.26-.93.26-1.35.03-.27-.15-.43-.5-.44-.8v-1.95s.38,0,.38,0v1.97c.02.41.33.67.72.65.19-.01.43-.07.54-.23.09-.14.15-.38.15-.53v-1.85Z"/>
  <path d="M17.49,6.18h-.35s0-2.93,0-2.93h.34s.03.25.03.25c.14-.15.33-.28.54-.31.36-.04.67.12.83.42.23.44.22.96,0,1.4-.18.3-.47.47-.84.43-.22-.03-.39-.15-.56-.32v1.07ZM18.63,4.71c.08-.27.07-.58,0-.83s-.31-.4-.53-.4-.46.14-.54.4c-.08.27-.08.59,0,.86.08.25.3.4.54.4s.46-.14.54-.42Z"/>
  <path d="M41.27,5.12c-.2.23-.46.36-.8.31-.25-.04-.52-.24-.63-.54-.27-.71-.02-1.57.58-1.69.35-.07.61.03.87.31v-1.08s.35,0,.35,0v2.93s-.33,0-.33,0l-.04-.26ZM41.21,3.84c-.08-.22-.3-.36-.5-.37s-.44.12-.52.34c-.13.33-.13.71.02,1.03.09.18.32.3.5.29.49,0,.72-.7.5-1.29Z"/>
  <path d="M33.38,5.43c-.47,0-.82-.25-.93-.67-.08-.28-.08-.63,0-.92.12-.43.47-.67.9-.67s.81.22.93.64c.09.31.09.67,0,.97-.12.39-.46.64-.9.64ZM33.92,4.71c.08-.27.07-.59,0-.83s-.31-.4-.53-.4-.46.14-.55.38c-.1.28-.1.61,0,.9.08.24.33.38.55.38s.46-.15.54-.42Z"/>
  <path d="M23.42,5.43c-.43-.01-.74-.23-.87-.61-.11-.32-.11-.71,0-1.04.14-.4.49-.61.9-.61s.76.21.9.61c.11.32.11.71,0,1.03-.14.39-.48.62-.93.61ZM23.96,4.78c.13-.32.12-.69,0-.98-.1-.22-.32-.34-.54-.33-.5.02-.73.71-.5,1.29.09.22.3.36.5.37.21,0,.44-.11.55-.35Z"/>
  <path d="M38.71,3.62c-.16-.19-.45-.17-.63-.09-.15.06-.33.3-.33.51v1.32s-.36,0-.36,0v-2.12s.34,0,.34,0l.03.27c.3-.36.84-.47,1.21-.11.12.11.21.42.21.59v1.39s-.35,0-.35,0v-1.32c0-.1-.05-.34-.12-.42Z"/>
  <polygon points="21.91 5.38 21.52 5.4 21.51 2.86 20.51 2.86 20.5 2.57 22.91 2.57 22.92 2.87 21.91 2.86 21.91 5.38"/>
  <polygon points="26.4 5.37 26.37 5.08 27 5.06 27 2.88 26.32 3.01 26.32 2.65 27 2.52 27.38 2.52 27.38 5.07 28.02 5.07 28.02 5.37 26.4 5.37"/>
  <path d="M36.69,3.25v2.12s-.33,0-.33,0l-.04-.27c-.29.34-.75.46-1.14.19-.15-.11-.28-.4-.28-.59v-1.45s.34,0,.34,0v1.44c0,.15.15.39.3.43.18.05.42,0,.55-.08.12-.08.24-.32.24-.49v-1.3s.35,0,.35,0Z"/>
</svg>