<?xml version="1.0" encoding="UTF-8"?>
<svg xmlns="http://www.w3.org/2000/svg" viewBox="0 0 100 100">
  <g transform="translate(50 50) scale(1.71766) translate(-28.4125 -20.2150)">
  <path d="M17.3,21.08c.91-1.81.84-3.94-.49-5.5-.31-.36-.64-.69-1-1l-.37-.32-.47-.41c-.67-.58-1.2-1.15-1.66-1.95-1.86,1.07-3.7,2.04-5.68,2.77l-1.11.41-1.24.41s-.12.01-.14.01-.02-.1,0-.11l.88-.52,2.73-1.6,3.88-2.26.88-.51,4.26-2.44.68-.38.68-.38,1.11-.62c0,.08-.03.17-.08.22l-.63.57-.5.44c-1.21,1.06-2.5,1.98-3.86,2.83l-1.48.93c.62.66,1.35,1.15,2.06,1.63.86.59,2.08,1.48,2.49,2.39l.29.65c.29.65.32,1.37.25,2.08-.09.92-.41,1.78-1,2.5l-.63.66-.09-.08.23-.45Z"/>
  <path d="M49.98,33.05l1.72.02-.04.14c-.84.24-1.65.42-2.52.54h-1.58c-.63-.09-1.24-.2-1.83-.42-1.65-.64-3.14-1.95-3.5-3.71-.22-1.06,0-2.2.62-3.08.42-.58.99-.99,1.7-1.11l.06.11c-1.56.82-1.98,2.89-1.21,4.44.13.26.29.55.5.75l.79.78c.6.59,1.97,1.11,2.88,1.31.79.17,1.57.23,2.41.24Z"/>
  <path d="M38.78,27.96l.05,1.51.03,3.85c-.09-.06-.11-.14-.12-.25l-.29-2.67-.41-3.78c0-.11-.04-.21-.1-.28l-5.92-2.46-3.72,6.15-8.81-5.05c.04-.09.1-.18.16-.25l.8-.96.66-.79.34-.41.31-.37.37-.45,3.38-4.06.07-.08s.06.05.09.08c-1.57,2.38-3.22,4.68-4.95,6.97l.57.32,1.15.61,1.15.61,2.59,1.42,1.71.95,2.3-3.69,1.44-2.24,3.04,1.38,1.66.78,2.15,1.04s.18.11.18.17l.03.67.05,1.29Z"/>
  <path d="M29.19,23.91s.05.12.03.13c-.72.53-1.55.83-2.45.89h-1.07c-.68,0-1.98-.4-2.53-1l1.47-.04.82-.02.07-2.4.22-.04,2.51.2c-.38.48-1.15.68-1.71.82-.1.5-.25.96-.52,1.43l1.3.02h.51s1.35.03,1.35.03Z"/>
  </g>
</svg>
