<?xml version="1.0" encoding="UTF-8"?>
<svg id="Layer_1" data-name="Layer 1" xmlns="http://www.w3.org/2000/svg" viewBox="0 0 52.5 37.87">
  <g>
    <g>
      <path d="M49.23,13.49c-.27-.48-.55-.94-.65-1.48l-.26-1.4c-1.88.19-3.74.44-5.62.75l-1.67.28-3.01.49-.07-.11s.05-.06.07-.07l.51-.3c1.02-.6,2.11-.99,3.25-1.33,2.06-.61,4.33-.83,6.46-.61l-.06-1.25c-.04-.77-.13-1.51-.29-2.27l-.04-.11c-.04-.12.33-.02.7.5.75,1.05.94,2.12,1,3.39l.92.32c.06.02.06.19,0,.19l-.91.02-.05.86-.06,1-.06,1s-.01.1-.04.1h-.12Z"/>
      <path d="M32.89,20.35c-1.4.85-3.32.96-4.88.43-.83-.28-1.51-.72-2.15-1.3-.5-.44-.89-.97-1.2-1.54-.75.05-1.43.04-2.16-.02l-.12-.07s.05-.07.08-.08l1.9-.49c-.16-.58-.33-1.08-.33-1.65v-1.07c.21-1.85,1.01-3.24,2.52-4.3,2.07-1.45,4.96-1.48,7.02.13l.7-1.03s.12-.11.13-.08.03.13.02.16l-.39,1.33.55.57c.67.83,1.14,1.8,1.26,2.86l.06.48c.16,1.42-.41,3.2-1.36,4.3-.48.55-1.02,1-1.64,1.37ZM30.8,13.69l.75-.75.57-.63.29-.34.28-.35.28-.35-.49-.39c-.34-.26-.71-.48-1.11-.64-1.89-.78-4.2-.3-5.57,1.05l-.28.28-.21.24c-1.18,1.54-1.48,3.52-.74,5.39,1.66-.55,3.69-1.47,5.04-2.54l.91-.72.3-.26ZM31.83,19.79c.77-.44,1.33-.88,1.82-1.63l.27-.42.38-.81c.51-1.39.44-2.92-.27-4.22l-.5-.78c-.64,1.25-1.56,2.42-2.64,3.36-.64.56-1.31.99-2.05,1.4-1.22.68-2.51,1.06-3.91,1.23.33.57.7,1.03,1.21,1.36l.98.65c1.5.72,3.29.68,4.71-.13Z"/>
      <g>
        <path d="M20.19,19.29l.04.51s-.06.12-.08.11c-.03-.02-.09-.09-.11-.12l-.39-.8c-.76-2.03-.73-4.27.12-6.27.48-1.13,1.36-2.25,2.3-3.04.39-.33,1.3-.94,1.6-.99.04,0,.02.14,0,.16-.5.58-.93,1.16-1.35,1.79-1.09,1.59-1.9,3.7-2.1,5.62l-.05.45c-.09.86-.07,1.69,0,2.59Z"/>
        <path d="M8.51,14.44c-1.01,1.26-1.09,3.42-.44,4.89l.27-.2.73-.72.34-.34.38-.34.8,3.23.46,1.94-1.91-.55-3.2-.96.54-.51,1.36-1.34c-1.37-1.89-1.26-4.59.2-6.37s3.96-2.51,6.12-1.61c.69.29,1.35.67,1.84,1.23l.26.3c.46.52.86,1.33,1.05,2.03.34,1.23.22,2.51-.34,3.66-.27.56-.66,1.03-1.07,1.5l-.08.09s-.11-.06-.1-.09l.44-.86c.29-.56.42-1.14.49-1.77.2-1.87-.74-3.78-2.43-4.66-1.55-.81-3.46-.63-4.83.46-.2.16-.38.34-.53.53l-.35.44Z"/>
      </g>
    </g>
    <g>
      <path d="M6.66,28.17c.65-.51,1.31-.93,2-1.34l.71-.42c.97-.58,1.99-.99,3.04-1.41,1.18-.48,2.35-.82,3.6-1.1s2.48-.51,3.77-.61l.99-.08.57-.03h4.32s1.57.01,1.57.01l1.15-.03c1.79-.05,3.85-.39,5.52-1.05.44-.18.87-.36,1.27-.62l1.14-.74.89-.87c.64-.67,1.14-1.41,1.49-2.27.25-.56.39-1.1.48-1.73-.03-.02.15-.07.15-.03l-.05.91c-.18,1.27-.66,2.44-1.43,3.47-.42.56-.92,1.03-1.45,1.5-1.66,1.45-4.13,2.26-6.32,2.52-1.14.14-2.25.22-3.41.23l-5.39.02c-4.19.01-8.91,1.18-12.66,3.04l-1.09.54-1.78,1.03-.11-.09.5-.4.55-.43Z"/>
      <path d="M7.81,33.12l-.34.28-.6.54-.94.93-.8.97c-.55.67-.97,1.5-1.14,1.65-.02.02-.07-.04-.1-.07.28-.76.61-1.44,1-2.14.43-.75.89-1.46,1.48-2.1l.51-.55.84-.79c.78-.74,1.67-1.26,2.62-1.77,2.05-1.11,5.16-1.93,7.47-2.07l1.76-.11h1.45c2.25.02,4.44.39,6.62.94l-.08.13-1.73-.04-1.19-.02h-1.76s-.89.02-.89.02c-2.65.07-5.12.27-7.68.98-1.58.44-3.8,1.32-5.1,2.23l-1.41.98Z"/>
    </g>
  </g>
  <polygon points="32.88 5.21 32.5 5.23 32.5 3.85 31.09 3.85 31.09 5.23 30.71 5.22 30.71 2.35 31.09 2.35 31.09 3.55 32.5 3.55 32.5 2.35 32.88 2.35 32.88 5.21"/>
  <path d="M16.76,2.38h.39s0,1.91,0,1.91c0,.29-.14.65-.39.8-.4.26-.93.26-1.35.03-.27-.15-.43-.5-.44-.8v-1.95s.38,0,.38,0v1.97c.02.41.33.67.72.65.19-.01.43-.07.54-.23.09-.14.15-.38.15-.53v-1.85Z"/>
  <path d="M18.19,6.04h-.35s0-2.93,0-2.93h.34s.03.25.03.25c.14-.15.33-.28.54-.31.36-.04.67.12.83.42.23.44.22.96,0,1.4-.18.3-.47.47-.84.43-.22-.03-.39-.15-.56-.32v1.07ZM19.33,4.57c.08-.27.07-.58,0-.83s-.31-.4-.53-.4-.46.14-.54.4c-.08.27-.08.59,0,.86.08.25.3.4.54.4s.46-.14.54-.42Z"/>
  <path d="M35.4,4.6c-.12.46-.48.69-.91.7-.39,0-.75-.18-.9-.55s-.14-.8,0-1.16.5-.56.9-.55c.43,0,.78.24.9.67.07.26.08.6,0,.89ZM35.01,4.59c.09-.28.08-.61,0-.87s-.32-.38-.55-.38-.45.15-.53.4c-.09.27-.09.59,0,.86.08.25.31.4.53.4s.47-.13.56-.41Z"/>
  <path d="M24.12,5.29c-.43-.01-.74-.23-.87-.61-.11-.32-.11-.71,0-1.04.14-.4.49-.61.9-.61s.76.21.9.61c.11.32.11.71,0,1.03-.14.39-.48.62-.93.61ZM24.66,4.64c.13-.32.12-.69,0-.98-.1-.22-.32-.34-.54-.33-.5.02-.73.71-.5,1.29.09.22.3.36.5.37.21,0,.44-.11.55-.35Z"/>
  <path d="M37.79,3.11v2.12s-.34,0-.34,0l-.04-.27c-.28.37-.84.48-1.21.12-.12-.12-.2-.41-.2-.59v-1.39s.35,0,.35,0v1.39c0,.11.08.34.16.4.17.14.45.11.62.03.14-.07.29-.3.3-.5v-1.32s.36,0,.36,0Z"/>
  <polygon points="22.61 5.24 22.22 5.26 22.21 2.72 21.21 2.72 21.2 2.43 23.61 2.42 23.62 2.72 22.6 2.72 22.61 5.24"/>
  <polygon points="27.1 5.23 27.07 4.94 27.7 4.92 27.7 2.74 27.02 2.87 27.02 2.51 27.7 2.38 28.08 2.38 28.08 4.92 28.72 4.93 28.71 5.23 27.1 5.23"/>
  <path d="M38.85,5.22h-.36s0-2.12,0-2.12h.33s.08.19.08.19c.23-.21.51-.29.84-.25v.34c-.19-.06-.43-.08-.61.03-.17.1-.26.36-.29.54v1.26Z"/>
</svg>