<?xml version="1.0" encoding="UTF-8"?>
<svg id="Layer_1" data-name="Layer 1" xmlns="http://www.w3.org/2000/svg" viewBox="0 0 52.5 48.15">
  <g>
    <path d="M4.17,43.51l-.02-2.66v-13.16s.02-3.11.02-3.11v-1.63s.02-.89.02-.89c0-.05.11-.18.14-.18.26,1.31.54,2.68.67,4.03l.14,1.42.06.78.06.92.07,1.2.04,1.41.06,2.12,2.52-.04.57-.03,1.06-.07c1.64-.1,3.23-.41,4.79-.93l.61-.24.99-.44.67-.37c1.14-.63,2.12-1.46,2.98-2.44l.72-.91.58-.91c.49-.78.78-1.63.98-2.53.42-1.94.14-4.18-.83-5.89-.24-.41-.47-.83-.8-1.18l-1.01-1.06c.28.03.48.16.68.32l.64.5c.47.36,1.1,1.22,1.43,1.8.85,1.51,1.2,3.2,1.09,4.93-.1,1.48-.76,3.43-1.6,4.6l-.56.78-.35.43-1.02,1.03-.38.32c-.64.54-1.33.98-2.07,1.38-1.58.85-3.38,1.39-5.16,1.53l-.78.06c-1.83.15-3.88-.06-5.74-.3l-.05,2.38-.04,1.41-.07,1.2-.06.92-.06.78-.13,1.34c-.13,1.41-.41,2.74-.67,4.12l-.15-.02v-1.14s-.03-1.59-.03-1.59Z"/>
    <g>
      <path d="M27.72,14.38l-.32-.92-.04-.12s.09-.09.11-.09c.31.57.6,1.16,1.02,1.66l.32.39c.63.76,1.61,1.54,2.47,2.04,1.85,1.08,4,1.47,6.14,1.25.95-.1,1.87-.22,2.73-.57l1.61-.65,1.14-.62c.86-.47,1.65-1.04,2.34-1.75l1.03-1.08.47-.6.6-.81,1.5-2.37.79-1.41.73-1.32s.11-.13.17-.19c0,.14-.01.3-.04.38l-.68,1.88-.72,1.68-.71,1.4-.5.85-.96,1.37-.95,1.09-1.03.95c-.52.48-1.1.9-1.72,1.23l-1.39.73-1.71.62c-1.12.41-3.09.53-4.35.43s-2.89-.49-3.91-1.09l-.8-.47c-1.25-.74-2.89-2.52-3.35-3.87Z"/>
      <path d="M29.39,22.44l.62.82.85,1.34.43.84c.59,1.15.96,2.31,1.2,3.59-.02.06-.07.15-.11.18l-5.33-8.19-.7-1.15-.08-.13s.13-.09.17-.06l.68.48.51.43.4.36.61.61.42.48.34.41Z"/>
    </g>
  </g>
  <path d="M24.87,5.49h-1.45s-.3.82-.3.82l-.45-.02,1.22-3.19h.5s1.21,3.2,1.21,3.2h-.46s-.27-.81-.27-.81ZM24.72,5.14l-.58-1.58-.6,1.59h1.18Z"/>
  <path d="M31.12,6.05c-.21.24-.49.38-.84.35-.29-.02-.6-.24-.74-.57-.35-.82-.03-1.86.68-1.96.39-.06.68.08.93.36v-1.21s.4,0,.4,0v3.3s-.38,0-.38,0l-.04-.28ZM31.04,5.68c.15-.37.14-.79-.01-1.13-.11-.25-.36-.37-.61-.35-.54.04-.75.78-.54,1.43.08.25.32.42.54.44.25.02.51-.1.62-.38Z"/>
  <path d="M26.55,5.96c.36.19.73.09,1.08-.07v.38c-.75.28-1.53.14-1.79-.54-.14-.38-.14-.8,0-1.18.26-.68,1.05-.81,1.8-.55v.38c-.36-.16-.73-.25-1.06-.08-.56.27-.57,1.38-.02,1.67Z"/>
  <rect x="28.34" y="3.94" width=".4" height="2.4"/>
  <rect x="28.34" y="3.02" width=".4" height=".49"/>
</svg>