<?xml version="1.0" encoding="UTF-8"?>
<svg id="Layer_1" data-name="Layer 1" xmlns="http://www.w3.org/2000/svg" viewBox="0 0 53.5 33.62">
  <path d="M18.61,5.11h-.35s0-2.93,0-2.93h.34s.03.25.03.25c.19-.22.44-.35.76-.32.69.06,1,1.04.64,1.79-.13.27-.4.44-.64.46-.32.03-.56-.09-.78-.33v1.08ZM19.76,3.64c.07-.25.07-.56,0-.79-.07-.29-.29-.45-.55-.45-.22,0-.45.15-.53.4-.08.27-.08.59,0,.86.08.25.31.4.53.4.23,0,.46-.13.54-.42Z"/>
  <path d="M39.09,2.07c.29.92.11,2.26-.83,2.29-.41.01-.77-.22-.9-.64-.3-.93-.13-2.28.84-2.31.41,0,.75.23.89.66ZM38.73,2.12c-.07-.25-.29-.41-.53-.4-.61.03-.68,1.19-.47,1.95.07.25.29.41.53.4.6-.03.67-1.18.46-1.95Z"/>
  <path d="M36.61,2.1c.27.94.1,2.23-.86,2.26-.41.01-.75-.23-.89-.66-.17-.52-.17-1.11,0-1.63.14-.43.48-.67.89-.66s.73.26.86.69ZM35.39,3.92c.09.13.39.17.52.12.48-.2.51-1.26.32-1.93-.06-.23-.28-.39-.47-.39-.55,0-.64.7-.62,1.4.01.28.07.56.25.81Z"/>
  <path d="M17.5,4.06c-.35.4-1.22.34-1.81.12v-.38c.38.19.79.32,1.21.22.23-.05.38-.25.39-.45s-.15-.41-.36-.46l-.62-.15c-.18-.04-.43-.18-.52-.34-.17-.29-.15-.66.07-.91.35-.4,1.03-.33,1.65-.19v.37c-.59-.26-1.28-.29-1.42.15-.04.11.02.38.13.43.41.22.94.15,1.25.46s.32.8.04,1.12Z"/>
  <path d="M22.19,4.29v-1.39c0-.16-.11-.4-.27-.47s-.41-.03-.54.05c-.12.07-.27.31-.27.48v1.33s-.36,0-.36,0V1.36s.35,0,.35,0v1.07c.22-.19.39-.31.65-.32.44-.03.78.29.78.73l.02,1.46h-.36Z"/>
  <path d="M24.98,3.92v.29c-.73.27-1.54.2-1.8-.47-.14-.36-.12-.77.04-1.11s.52-.53.91-.53.74.2.86.59c.06.2.08.44.08.65h-1.61c-.02.34.21.69.6.71.3.02.5-.04.91-.14ZM24.71,3.04c.02-.42-.25-.63-.58-.64-.39,0-.65.29-.66.64h1.24Z"/>
  <path d="M28.92,3.93v.28c-.34.11-.67.18-1.02.13-.71-.1-1.02-.79-.81-1.53.13-.46.53-.71.99-.71.37,0,.71.18.84.55.07.21.09.46.1.69h-1.6c-.04.37.21.65.6.73l.91-.15ZM28.65,3.04c0-.36-.17-.57-.46-.62-.2-.04-.44.02-.6.17-.1.09-.17.31-.19.46h1.25Z"/>
  <polygon points="41.36 2.62 41.37 2.92 40.24 2.92 40.24 4.3 39.85 4.29 39.85 1.43 41.49 1.43 41.49 1.73 40.24 1.73 40.24 2.62 41.36 2.62"/>
  <polygon points="32.49 4.3 32.48 4 33.11 3.99 33.11 1.8 32.43 1.94 32.43 1.58 33.07 1.46 33.49 1.45 33.49 4 34.13 4 34.13 4.3 32.49 4.3"/>
  <path d="M43.16,4v.31s-.6-.02-.6-.02c-.24,0-.46-.22-.47-.48v-1.27s-.26-.1-.26-.1v-.25s.25-.03.25-.03v-.61s.36,0,.36,0v.62s.73,0,.73,0v.3s-.72,0-.72,0v1.27c0,.09.13.26.22.26h.5Z"/>
  <path d="M31.66,4.8l-.3.04c-.52-.83-.76-1.97-.34-2.79l.36-.7.3.03c-.64,1.06-.68,2.28-.01,3.42Z"/>
  <path d="M44.3,3.95l-.41.88h-.31c.67-1.2.64-2.33,0-3.46l.33.02.35.72c.27.57.27,1.22.05,1.85Z"/>
  <path d="M25.99,4.29h-.35s0-2.12,0-2.12h.35s.03.25.03.25c.22-.29.49-.34.87-.32v.35c-.17-.05-.43-.06-.58.02-.13.07-.3.32-.3.5v1.33Z"/>
  <g>
    <path d="M40.69,22.56c0,4.93-4,8.93-8.93,8.93s-8.93-4-8.93-8.93,4-8.93,8.93-8.93,8.93,4,8.93,8.93ZM39.61,22.56c0-4.6-3.73-8.33-8.34-8.33s-8.34,3.73-8.34,8.33,3.73,8.33,8.34,8.33,8.34-3.73,8.34-8.33Z"/>
    <path d="M19.19,19.62c-.13.16-.28.27-.45.35.26-.57.49-1.05.66-1.62.44-1.58.11-3.24-.97-4.48-.25-.29-.52-.56-.81-.81l-.4-.35-.37-.32-.3-.26c-.62-.54-1.13-1.12-1.55-1.85-1.77,1.01-3.52,1.94-5.39,2.66l-1.37.52-1.42.45.04-.16,12.84-7.43,2.26-1.26c-.07.26-.23.35-.39.49l-.47.41-.4.35-.34.28-1.3,1.02c-1.16.91-2.38,1.65-3.67,2.45.42.43.86.81,1.34,1.14l1.26.88c.53.37,1.01.77,1.43,1.26,1.2,1.41,1.4,3.35.65,5.04-.12.28-.27.56-.46.79l-.39.46Z"/>
    <path d="M53.26,31.43l.13.02s-.05.13-.07.15l-2.31.51-1.95-.02c-.37,0-.79-.1-1.13-.22l-1.01-.38c-.57-.21-1.05-.59-1.5-1-.72-.65-1.25-1.45-1.48-2.41-.42-1.74.43-3.87,2.27-4.3l.1.11c-1.25.69-1.8,2.16-1.53,3.54.1.48.26.94.56,1.32l.38.49.41.41c.36.37.8.63,1.27.87,1.47.74,2.92.89,4.56.9h1.31Z"/>
    <path d="M32.56,23.43l2.25.06c-.94.85-2.36,1.1-3.61,1-.92-.08-1.79-.34-2.55-.99l2.31-.06.06-1.79.03-.67,2.63.19.06.1-.47.3c-.36.23-.79.33-1.22.42-.11.49-.26.97-.51,1.43h1.02Z"/>
  </g>
</svg>