<?xml version="1.0" encoding="UTF-8"?>
<svg id="Layer_1" data-name="Layer 1" xmlns="http://www.w3.org/2000/svg" viewBox="0 0 54.55 33.51">
  <g>
    <g>
      <path d="M38.86,25.01c.9-.48,1.51-1.28,1.91-2.19.42-.96.48-2,.23-3.03-.45-1.77-1.88-2.9-3.63-3.33-.75-.14-1.49-.17-2.26-.04l-.13-.03s.04-.08.07-.1c1.28-.58,2.69-.61,4-.11,1.27.46,2.24,1.39,2.76,2.64,1.04,2.52.01,5.43-2.55,6.48-.46.19-.92.32-1.44.28l1.06-.57Z"/>
      <path d="M50.17,32.02h1.54s-.07.17-.07.17c-.79.19-1.56.49-2.37.49h-1.88s-1.14-.22-1.14-.22l-1.01-.38c-.57-.21-1.05-.59-1.5-1-.72-.65-1.25-1.45-1.48-2.41-.31-1.27.05-2.69.99-3.63.65-.65,1.65-.77,1.3-.52l-.48.35c-.32.23-.71.86-.85,1.32-.32,1.03-.21,2.13.37,3.04l.46.61.4.41.46.37.77.48c.86.45,1.78.7,2.74.82l1.76.1Z"/>
    </g>
    <g>
      <path d="M17.72,18.92c.43-1.59.09-3.22-.98-4.45-.24-.28-.5-.54-.78-.78l-.44-.38-.37-.32-.31-.26c-.61-.56-1.12-1.11-1.55-1.85-1.45.83-2.87,1.56-4.38,2.23-1.23.53-2.43.98-3.7,1.37-.04,0-.13-.02-.12-.03l.06-.09,2.6-1.53,1.94-1.13,1.62-.94,2.31-1.33,4.42-2.53,2.03-1.15.14-.05s.03.11,0,.13l-.23.2-.6.54-.37.32-.38.31-.56.45c-1.39,1.12-2.85,2.06-4.41,3.01.42.44.86.81,1.34,1.15l1.26.87c.52.38,1.01.77,1.43,1.27,1.23,1.47,1.41,3.5.56,5.2-.26.51-.74,1.16-1.23,1.44.27-.59.5-1.05.67-1.66Z"/>
      <g>
        <path d="M22.49,26.8c1.01.66,2.09,1.01,3.29.99.24.15-.66.31-1.19.31-1.14,0-2.15-.31-3.07-.93s-1.59-1.53-1.89-2.62c-.54-1.93.02-3.98,1.57-5.27.95-.76,2.1-1.14,3.32-1.05l.11.05s-.02.07-.03.09c-1.19.21-2.25.8-3.03,1.73-1.13,1.36-1.39,3.26-.65,4.86l.35.6c.29.51.75.87,1.23,1.24Z"/>
        <path d="M30.5,21.43l-.47,1c-.18.38-.19.81-.21,1.29-.65-.57-.84-1.47-.51-2.26l.44-1.09,1.66.61.22.1c-.23.12-.39.2-.57.23l-.57.1Z"/>
      </g>
    </g>
  </g>
  <path d="M35.8,4.66c-.44-.55-.44-1.79-.01-2.35.21-.28.55-.34.89-.28.27.05.56.3.65.63.25.85.13,2.08-.61,2.25-.34.08-.69.04-.93-.26ZM36.95,2.68c-.07-.23-.29-.38-.5-.37-.2,0-.41.16-.48.39-.24.78-.13,1.95.48,1.96.65,0,.74-1.19.5-1.98Z"/>
  <path d="M25.18,4.65c-.18.23-.43.34-.75.3-.24-.02-.5-.21-.63-.48-.34-.74-.03-1.7.63-1.77.33-.03.55.07.78.32v-1.08s.36,0,.36,0v2.93s-.34,0-.34,0l-.06-.25ZM25.15,3.39c-.08-.22-.29-.37-.48-.39-.22-.02-.45.09-.54.31-.14.32-.14.71,0,1.03.1.22.32.33.54.32.48-.04.67-.7.48-1.27Z"/>
  <path d="M26.97,4.61c.36.1.71.01,1.06-.12l.03.31c-.36.13-.74.2-1.11.12-.69-.15-.94-.9-.71-1.57.14-.41.49-.64.92-.65s.81.22.92.65l.06.58h-1.6c-.01.31.12.58.44.67ZM27.77,3.63c0-.38-.21-.58-.49-.63-.41-.05-.74.22-.75.64h1.24Z"/>
  <path d="M14.99,4.6c.49.15.88.01,1.25-.28v.39c-.35.2-.71.28-1.12.23-.54-.06-.97-.42-1.1-.95-.22-.92.13-1.82,1.05-1.95.43-.06.81.01,1.19.22v.39c-.42-.32-.88-.44-1.37-.23-.16.07-.35.28-.41.45-.24.68-.09,1.55.52,1.74Z"/>
  <path d="M17.66,5.27c-.05.13-.21.37-.33.38l-.54.06v-.31c.14,0,.35-.01.41-.07.11-.1.21-.36.25-.51l-.85-2.06h.37s.67,1.64.67,1.64l.66-1.63h.38s-1.01,2.49-1.01,2.49Z"/>
  <path d="M22.52,3.05c-.19-.08-.43-.05-.57.04-.12.07-.27.3-.27.48v1.33s-.36,0-.36,0v-2.12s.35,0,.35,0l.04.25c.17-.17.37-.29.62-.31.44-.03.78.29.78.73l.02,1.46h-.36s0-1.39,0-1.39c0-.13-.1-.39-.24-.45Z"/>
  <polygon points="39.6 3.21 39.61 3.51 38.48 3.51 38.48 4.89 38.09 4.88 38.09 2.02 39.73 2.02 39.73 2.32 38.48 2.32 38.48 3.21 39.6 3.21"/>
  <polygon points="33.23 4.89 33.2 4.6 33.84 4.58 33.84 2.4 33.16 2.53 33.16 2.18 33.83 2.05 34.22 2.04 34.22 4.59 34.85 4.59 34.85 4.89 33.23 4.89"/>
  <path d="M41.4,4.59v.31s-.64-.03-.64-.03c-.25-.01-.43-.25-.43-.5v-1.25s-.26-.08-.26-.08v-.26s.25-.03.25-.03v-.61s.35,0,.35,0v.63s.73,0,.73,0v.3s-.73,0-.73,0v1.28c0,.09.15.25.24.25h.48Z"/>
  <path d="M32.38,5.37l-.28.07-.37-.75c-.4-.81-.16-1.95.36-2.74h.32c-.65,1.06-.69,2.28-.03,3.42Z"/>
  <path d="M42.67,3.45c.09.97-.49,1.98-.61,1.97l-.24-.03c.66-1.17.64-2.29,0-3.44h.31c.27.46.5.95.55,1.49Z"/>
  <rect x="19.16" y="1.95" width=".35" height="2.94"/>
  <path d="M29.04,4.88h-.35s0-2.12,0-2.12h.34s.02.25.02.25c.23-.26.53-.37.89-.3v.3c-.25-.03-.48-.03-.64.08-.12.08-.25.32-.25.49v1.29Z"/>
  <rect x="20.25" y="2.76" width=".35" height="2.13"/>
  <rect x="20.25" y="1.95" width=".35" height=".44"/>
</svg>