<?xml version="1.0" encoding="UTF-8"?>
<svg id="Layer_1" data-name="Layer 1" xmlns="http://www.w3.org/2000/svg" viewBox="0 0 52.5 48.15">
  <path d="M14.89,4.6c.3.09.58.34.6.74.01.26-.08.5-.23.72-.24.13-.51.26-.78.26h-1.27s0-3.22,0-3.22h1.13c.17,0,.41.05.57.09.31.18.46.43.45.79-.03.26-.14.45-.47.63ZM14.93,3.89c-.03-.23-.21-.43-.4-.43l-.89-.03v1.02s.89-.03.89-.03c.23,0,.4-.26.39-.53ZM15.03,5.3c-.03-.3-.23-.51-.5-.51l-.89-.02v1.22s.9-.02.9-.02c.34,0,.53-.32.5-.67Z"/>
  <path d="M39.8,6.6c-.2.67-.97.74-1.74.55l-.04-.39c.39.12.65.18.99.11.16-.03.41-.26.43-.42l.04-.49c-.28.3-.51.4-.9.36-.26-.03-.56-.23-.7-.54-.36-.82-.02-1.84.7-1.91.37-.04.64.06.87.36l.04-.3h.39s0,2.2,0,2.2c0,.13-.04.35-.08.48ZM39.42,5.54c.09-.29.09-.66,0-.92-.1-.29-.36-.43-.63-.42s-.49.18-.58.47c-.08.27-.08.59,0,.86.08.29.33.46.58.47s.53-.13.63-.45Z"/>
  <path d="M23.07,7.14v-.4c.64.31,1.35.13,1.4-.27l.06-.51c-.28.26-.54.41-.93.35-.28-.04-.58-.26-.71-.6-.29-.76-.02-1.69.65-1.83.4-.08.72.06.97.35l.03-.3h.38s0,2.2,0,2.2l-.07.44c-.1.64-.96.81-1.78.58ZM24.46,5.5c.07-.28.06-.6,0-.85-.09-.29-.34-.45-.59-.46s-.52.14-.62.42-.1.66,0,.95.36.43.62.42.51-.16.6-.49Z"/>
  <path d="M21.13,6.38c-.47.07-.81-.16-.99-.53-.39-.81-.05-1.87.65-1.98.39-.06.67.05.93.36v-1.22s.41,0,.41,0v3.3s-.39,0-.39,0l-.04-.28c-.14.15-.34.31-.58.34ZM21.66,5.58c.09-.31.08-.66,0-.94s-.34-.45-.6-.45-.51.17-.59.45c-.09.3-.09.66,0,.97.09.28.35.45.59.45.26,0,.52-.15.61-.47Z"/>
  <path d="M26.56,6.03c.41.07.78-.03,1.13-.18l-.02.38c-.88.33-1.8.2-2.05-.64-.09-.3-.08-.68.02-.97.16-.49.58-.75,1.08-.76.4,0,.76.17.93.55.11.25.13.56.13.84h-1.79c-.02.37.17.71.57.78ZM27.37,4.91c.02-.47-.27-.72-.66-.71-.42,0-.72.3-.73.72h1.38Z"/>
  <path d="M30.41,5.61c-.13.51-.54.77-1.02.78-.44,0-.84-.2-1.01-.62s-.16-.89,0-1.3.57-.62,1.01-.62c.48,0,.88.27,1.01.75.08.29.09.68,0,1ZM29.98,5.6c.1-.32.09-.69,0-.98s-.36-.43-.61-.43-.51.17-.6.45c-.1.3-.1.66,0,.97.09.28.35.45.6.45s.52-.15.62-.46Z"/>
  <path d="M32.55,4.32c-.19-.17-.52-.15-.72-.04-.15.08-.33.34-.33.56v1.48s-.4,0-.4,0v-2.38s.38,0,.38,0l.04.3c.31-.4.89-.53,1.33-.16.14.11.26.44.26.62v1.63s-.39,0-.39,0v-1.54c0-.11-.08-.37-.17-.45Z"/>
  <path d="M36.56,4.33c-.2-.17-.51-.16-.72-.05-.18.1-.34.37-.34.62v1.42s-.4,0-.4,0v-2.38s.38,0,.38,0l.05.29c.32-.39.91-.52,1.32-.15.18.16.26.52.26.76v1.49s-.4,0-.4,0v-1.55c0-.11-.08-.37-.16-.44Z"/>
  <path d="M19.33,3.93v2.38s-.38.01-.38.01l-.06-.29c-.22.26-.49.38-.83.35-.49-.04-.74-.44-.74-.95v-1.52s.39,0,.39,0v1.61c0,.17.18.45.34.48.21.05.47,0,.62-.1.12-.08.26-.34.26-.51v-1.49s.4,0,.4,0Z"/>
  <rect x="16.14" y="3.01" width=".39" height="3.31"/>
  <rect x="33.9" y="3.93" width=".4" height="2.39"/>
  <rect x="33.9" y="3.01" width=".4" height=".49"/>
  <g>
    <path d="M27.15,33.08l-.62-1.04c-.79-1.33-1.14-3.75-1.13-5.37v-.52s.03-.95.03-.95c-.52.16-.98.4-1.36.78l-1.16,1.16-.68.73-.75.8-.38.4-.67.67c-.53.54-1.08,1.03-1.7,1.47l-.75.52c-2.09,1.47-5.17,2.12-7.71,2.28l-1.01.06c-1.07.07-2.13.06-3.2,0l-1.39-.09-.05,2.45-.05,1.41-.06,1.2-.07,1.05c-.14,2.07-.44,4.07-.85,6.09l-.15-.02v-.95s-.03-1.81-.03-1.81l-.02-2.62v-13.14s.02-3.11.02-3.11v-1.62s.03-1.03.03-1.03h.16s.23,1.24.23,1.24c.29,1.6.5,3.17.61,4.79l.07,1.05.06,1.2.05,1.41.05,2.12c2.69-.1,5.26-.31,7.88-.91,1.94-.44,4.06-1.33,5.54-2.62l1.02-.88,1.29-1.31.36-.41.5-.56.7-.78,1.09-1.09.35-.28c.95-.76,2.14-1.17,3.31-.83-.28,2.34-.35,4.76.37,6.95.2.6.41,1.19.77,1.7l.73,1.03c.67.93,2.38,2.1,3.52,2.54l1.54.59s.13.13.1.13l-.14.02c-1.78-.35-3.39-.93-4.81-2.09-.63-.52-1.24-1.08-1.67-1.81Z"/>
    <path d="M29.96,28.63c.08,1.94,1.51,3.83,3.54,4.04l-.15.15c-1.14-.02-2.16-.49-2.9-1.29-.28-.3-.53-.62-.73-.96-.59-1.05-.8-2.22-.56-3.41.15-.75.4-1.46.78-2.12.29-.5.59-.99.98-1.41l.65-.69.51-.47c.5-.46,1.06-.81,1.64-1.18,1.03-.64,2.08-1.14,3.16-1.69l2.29-1.16c1.68-.85,3.84-2.43,5.15-3.78l.94-.97.37-.41c.67-.76,1.27-1.54,1.82-2.39l1.11-1.7.58-.97.6-1.02c.06.17.04.31-.03.46l-1.17,2.64c-.51,1.15-1.16,2.21-1.94,3.2l-.99,1.27-.39.45-.82.87-.5.49-1.21,1.05c-1.15,1-2.45,1.76-3.82,2.44l-2.02,1.01-1.26.64-1.82,1.06-.9.65-.5.41-.74.73-.81,1.09c-.63.85-.92,1.91-.87,2.98Z"/>
  </g>
</svg>