<?xml version="1.0" encoding="UTF-8"?>
<svg id="Layer_1" data-name="Layer 1" xmlns="http://www.w3.org/2000/svg" viewBox="0 0 52.5 37.87">
  <g>
    <path d="M10.61,32.3c-.77.34-2.46,1.46-3.1,2.04l-.66.6-.88.87-.83,1c-.56.67-.97,1.49-1.14,1.65-.02.02-.07-.04-.1-.07.28-.76.61-1.44,1-2.14,1.24-2.18,3.02-3.87,5.21-5.08s5.22-2.05,7.65-2.2l1.88-.11h1.13s1.95.11,1.95.11c1.69.1,3.31.43,4.93.82l-.06.14-1.54-.03-.76-.02h-2.82s-.69.02-.69.02l-2.42.12c-1.57.08-4.4.57-5.85,1.1l-1.33.49-1.56.69Z"/>
    <g>
      <path d="M6.1,29.57l.87-.67c.55-.43,1.14-.78,1.74-1.14l.67-.4c1.32-.79,3.89-1.8,5.43-2.21,1.28-.34,2.53-.63,3.84-.78l.56-.07.62-.06.94-.07.63-.03h4.13s1.82.01,1.82.01l1.03-.03c1.99-.06,4.87-.53,6.54-1.53l.75-.45c.6-.36,1.09-.81,1.56-1.33.63-.68,1.13-1.41,1.47-2.29.24-.54.37-1.09.46-1.67l.06-.09s.1.07.1.1l-.06.85c-.07.99-.45,1.9-.95,2.75l-.58.86-.28.34-.76.75c-1.01,1-2.56,1.76-3.93,2.21-2.17.7-4.74.82-7.03.82h-.94s-3.45,0-3.45,0c-4.27,0-8.89,1.17-12.72,3.04l-1.05.52-1.77,1.03c-.05.06-.17-.05-.12-.1l.43-.35Z"/>
      <path d="M35.93,16.1c0,3.3-2.67,5.97-5.97,5.97s-5.97-2.67-5.97-5.97,2.67-5.97,5.97-5.97,5.97,2.67,5.97,5.97ZM34.63,16.1c0-2.9-2.35-5.26-5.26-5.26s-5.26,2.35-5.26,5.26,2.35,5.26,5.26,5.26,5.26-2.35,5.26-5.26Z"/>
    </g>
  </g>
  <g>
    <path d="M20.98,17.95c0-.95-.3-1.96-.9-2.68s-1.16-1.19-2.02-1.5c-1.56-.55-3.25-.26-4.56.75-.41.32-.73.67-1.08,1.07l.99.31,1.24.38-.86.85-.55.5-1.18,1.15-.3.26-.94.93-.83-3.45-.42-1.74,2.54.72c.54-1.11,1.11-1.76,2.19-2.38,1.22-.71,2.67-.89,4.03-.5,1.16.33,2.25,1.04,2.92,2.04.5.74.84,1.54.93,2.44.16,1.56-.24,2.81-1.18,4.05-.56.74-1.66,1.43-2.57,1.69-1.01.29-2.03.28-3.03-.02l-.02-.12.99-.02.45-.06c.95-.13,2.23-.8,2.9-1.55.78-.87,1.25-1.94,1.25-3.11Z"/>
    <path d="M48.59,12.99l-.27-1.43-4.65.6-2.21.37-2.59.43-.79.12s-.14-.1-.14-.12c.77-.48,1.56-.92,2.43-1.2l1.9-.61c.83-.27,1.68-.36,2.56-.46,1.16-.13,2.27-.13,3.41-.01l-.06-1.26c-.04-.8-.13-1.57-.32-2.36l.12-.07c1.16.9,1.52,2.5,1.57,3.95l.83.29.15.08s-.04.15-.08.15l-.89.02-.05.86-.06.95-.06,1.05s-.05.16-.08.15c-.2-.1-.64-1.07-.72-1.47Z"/>
  </g>
  <polygon points="33.12 6.17 32.73 6.19 32.73 4.81 31.33 4.81 31.33 6.18 30.94 6.18 30.94 3.31 31.33 3.3 31.33 4.51 32.73 4.51 32.73 3.31 33.12 3.31 33.12 6.17"/>
  <path d="M14.5,3.34h.39s0,1.91,0,1.91c0,.29-.14.65-.39.8-.4.26-.93.26-1.35.03-.27-.15-.43-.5-.44-.8v-1.95s.38,0,.38,0v1.97c.02.41.33.67.72.65.19-.01.43-.07.54-.23.09-.14.15-.38.15-.53v-1.85Z"/>
  <path d="M15.93,6.99h-.35s0-2.93,0-2.93h.34s.03.25.03.25c.14-.15.33-.28.54-.31.36-.04.67.12.83.42.23.44.22.96,0,1.4-.18.3-.47.47-.84.43-.22-.03-.39-.15-.56-.32v1.07ZM17.07,5.53c.08-.27.07-.58,0-.83s-.31-.4-.53-.4-.46.14-.54.4c-.08.27-.08.59,0,.86.08.25.3.4.54.4s.46-.14.54-.42Z"/>
  <path d="M28.68,5.5v.66s-.38,0-.38,0v-.66s-1.29,0-1.29,0v-.38s1.17-1.8,1.17-1.8l.5-.02v1.88s.41.01.41.01v.29s-.41,0-.41,0ZM28.31,5.2l-.03-1.5-.95,1.5h.98Z"/>
  <path d="M24.62,6.18l.02-.33.83-.85c.38-.38.71-.78.48-1.16s-.81-.28-1.31,0v-.38c.66-.26,1.46-.25,1.7.31.14.32.05.72-.19.97l-1.06,1.12h1.3s0,.31,0,.31h-1.8Z"/>
  <path d="M35.62,5.58c-.13.46-.52.67-.94.67-.4,0-.73-.21-.86-.59-.12-.34-.12-.74,0-1.08.14-.39.47-.58.86-.59.45-.01.83.23.95.69.07.27.08.62,0,.91ZM35.25,5.53c.08-.27.08-.6,0-.85s-.31-.39-.54-.39-.45.14-.54.39c-.1.27-.1.61,0,.88.09.25.31.39.54.39s.46-.14.54-.42Z"/>
  <path d="M21.86,6.25c-.43-.01-.74-.23-.87-.61-.11-.32-.11-.71,0-1.04.14-.4.49-.61.9-.61s.76.21.9.61c.11.32.11.71,0,1.03-.14.39-.48.62-.93.61ZM22.41,5.6c.13-.32.12-.69,0-.98-.1-.22-.32-.34-.54-.33-.5.02-.73.71-.5,1.29.09.22.3.36.5.37.21,0,.44-.11.55-.35Z"/>
  <polygon points="20.35 6.2 19.96 6.22 19.96 3.68 18.95 3.68 18.95 3.38 21.36 3.38 21.36 3.68 20.35 3.68 20.35 6.2"/>
  <path d="M38.02,4.06v2.12s-.34,0-.34,0l-.03-.26c-.29.33-.76.46-1.15.18-.15-.11-.27-.4-.27-.59v-1.45s.34,0,.34,0v1.42c0,.15.14.4.29.44.18.05.41.01.55-.08.12-.08.24-.31.24-.48v-1.31s.36,0,.36,0Z"/>
  <path d="M41.8,5.8c-.17.5-.96.53-1.6.32v-.36c.57.28,1.25.26,1.28-.11,0-.12-.11-.29-.23-.32l-.61-.16c-.32-.08-.48-.37-.41-.7.12-.51.8-.55,1.45-.39l.03.34c-.57-.2-1.16-.16-1.17.18,0,.09.12.25.2.27l.47.12c.15.04.34.11.47.22.15.12.18.42.12.6Z"/>
  <path d="M39.07,6.18h-.35s0-2.12,0-2.12h.34s.02.25.02.25c.23-.26.53-.37.89-.3v.3c-.24-.03-.49-.02-.64.07-.12.08-.25.32-.25.49v1.3Z"/>
</svg>