<?xml version="1.0" encoding="UTF-8"?>
<svg id="Layer_1" data-name="Layer 1" xmlns="http://www.w3.org/2000/svg" viewBox="0 0 52.5 46.38">
  <g>
    <path d="M33.69,29.38c-.45-.38-.93-.67-1.45-.91-1.83-.85-3.84-1.07-5.84-.72-1.3.23-2.5.57-3.7,1.08l-1.72.74-.88.4c-1.2.55-2.35,1.09-3.59,1.55-3.13,1.16-6.56,1.87-9.9,1.69l-.89-.05-.05,2.41-.05,1.48-.06,1.13-.07.98-.15,1.75c-.13,1.48-.41,2.89-.69,4.37l-.17.05v-.92s-.03-1.87-.03-1.87l-.02-2.62v-13.14s.02-3.11.02-3.11v-1.62s.03-1.03.03-1.03h.16s.23,1.24.23,1.24c.3,1.6.5,3.17.61,4.79l.07,1.05.06,1.13.05,1.48.05,2.11c1.38-.1,2.71-.24,4.06-.51,1.74-.36,4.05-.98,5.65-1.67l1.97-.84,1.49-.69,2.29-1.03c1.66-.75,4.19-1.51,5.96-1.49h.78c1.33.02,2.6.34,3.8.93.54.27,1.08.54,1.51.96l.79.77.5.65s.05.13.05.16c.01.04-.13,0-.16-.03l-.32-.3-.4-.34Z"/>
    <g>
      <path d="M43.32,28.74l.05.18s-.14.02-.17-.02l-.27-.29-.46-.53c-.4-.46-.69-1.04-.91-1.62-.78-2.02-.69-4.35.03-6.39.27-.78.58-1.53,1.01-2.23l.74-1.23,1.33-1.84.56-.7.35-.43.8-.96.8-.96.59-.75c.81-1.01,1.49-2.08,2.14-3.2l.83-1.41.12.14-.82,2.24-.24.52-.94,1.8-.89,1.36-.65.9-.84,1.13-1.07,1.47-.55.79-.8,1.24-.47.81c-.79,1.38-1.45,3.13-1.6,4.71v1.59c.15,1.32.54,2.57,1.33,3.67Z"/>
      <path d="M40.56,33.53c-.44,1.12-1.45,2.12-2.72,2.13-.11,0-.14-.19,0-.16.44-.16.87-.32,1.14-.67l.4-.51c.92-1.17.62-3.38-.22-4.68l-.96-1.5-.68-.94-.99-1.54c-.3-.46-.49-.99-.65-1.53-.56-1.86-.18-4.02.97-5.57.53-.72,1.15-1.29,1.93-1.74l1.27-.58s.16.07.13.09l-.12.09-1.08.82-.49.49c-.36.37-.62.79-.88,1.24-.44.76-.68,1.58-.76,2.46-.13,1.41.23,2.74.99,3.9l.53.81.98,1.48.6,1.02c.47.81.76,1.69.88,2.62.11.78.01,1.54-.27,2.26Z"/>
    </g>
  </g>
  <path d="M34.57,6.27v-.4c.33.14.69.21,1.01.11.36-.1.45-.49.45-.89-.3.27-.55.4-.93.35-.7-.08-1.01-1-.74-1.81.11-.34.41-.57.68-.63.41-.08.72.06.97.35l.02-.3h.38s0,2.26,0,2.26c0,.24-.1.54-.26.74-.29.38-.97.35-1.59.21ZM35.97,4.61c.17-.64-.05-1.27-.59-1.29-.26-.01-.52.13-.62.42s-.1.67,0,.95.37.43.62.42.5-.17.59-.5Z"/>
  <path d="M20.65,5.18c-.39.45-1.37.38-2.04.14v-.43c.43.22.88.36,1.36.25.25-.06.42-.28.43-.51s-.16-.46-.41-.52l-.69-.16c-.2-.05-.48-.2-.59-.38-.19-.33-.16-.74.08-1.02.4-.45,1.16-.37,1.85-.21v.42c-.67-.3-1.43-.32-1.6.16-.04.12.01.44.14.49.57.23,1.09.19,1.41.51.34.33.36.9.04,1.26Z"/>
  <path d="M29.26,5.44v-1.55c0-.12-.1-.38-.19-.46-.18-.14-.52-.12-.7-.02-.15.08-.32.35-.33.56v1.48s-.4,0-.4,0v-3.3s.4,0,.4,0v1.22c.37-.42.96-.54,1.39-.14.13.12.23.47.23.66v1.56s-.4,0-.4,0Z"/>
  <path d="M23.28,5.52c-.48-.02-.75-.35-.75-.78,0-.4.28-.76.7-.79l.93-.05c.02-.23-.14-.48-.38-.54-.36-.08-.67-.01-1.07.13v-.35c.35-.12.7-.18,1.08-.14.42.05.75.42.75.85l.02,1.59h-.39s-.04-.29-.04-.29c-.21.24-.49.38-.85.36ZM24.17,4.25c-.38,0-.66,0-1,.08-.22.05-.29.39-.21.58.07.16.27.28.49.28.48-.01.72-.41.72-.94Z"/>
  <path d="M33.09,3.45c-.21-.18-.52-.16-.72-.05-.15.08-.33.34-.33.55v1.48s-.4,0-.4,0v-2.38s.38,0,.38,0l.04.3c.31-.4.89-.53,1.33-.16.14.11.26.44.26.62v1.63s-.39,0-.39,0v-1.55c0-.11-.08-.37-.17-.44Z"/>
  <path d="M26.56,5.43c-.45.15-.91.07-1.35-.06v-.41c.63.31,1.38.3,1.43-.13.01-.11-.13-.32-.24-.34l-.68-.18c-.33-.09-.52-.35-.5-.66.02-.27.22-.56.54-.62.38-.08.78-.03,1.15.07v.37c-.63-.24-1.29-.2-1.31.19,0,.1.15.28.25.3l.68.18c.28.07.5.31.52.57.02.3-.12.61-.47.72Z"/>
  <rect x="21.45" y="2.14" width=".39" height="3.31"/>
  <rect x="30.44" y="3.05" width=".4" height="2.39"/>
  <rect x="30.44" y="2.14" width=".4" height=".49"/>
</svg>