<?xml version="1.0" encoding="UTF-8"?>
<svg id="Layer_1" data-name="Layer 1" xmlns="http://www.w3.org/2000/svg" viewBox="0 0 27.52 72.4">
  <path d="M7.35,9.39h-.62s0-5.15,0-5.15h.6s.06.45.06.45c.34-.39.77-.61,1.33-.56,1.2.1,1.75,1.83,1.12,3.14-.23.47-.7.77-1.11.81-.57.05-.97-.16-1.36-.58v1.89ZM9.35,6.81c.12-.44.12-.98.01-1.38-.13-.5-.51-.78-.97-.78-.38,0-.79.26-.92.7-.15.48-.15,1.03,0,1.51.13.44.54.7.93.7.41,0,.81-.23.95-.74Z"/>
  <path d="M5.51,7.56c-.61.71-2.13.6-3.17.22v-.68c.67.34,1.37.57,2.12.39.39-.09.66-.44.67-.8s-.26-.72-.63-.81l-1.08-.26c-.31-.07-.75-.31-.91-.59-.3-.51-.26-1.15.13-1.59.62-.71,1.81-.58,2.88-.33v.65c-1.04-.46-2.23-.5-2.49.26-.07.19.02.69.22.77.89.37,1.69.31,2.19.79.53.52.55,1.4.07,1.96Z"/>
  <path d="M12.38,7.5c.62.13,1.22-.01,1.76-.27l.04.58c-1.24.48-2.69.37-3.15-.76-.27-.64-.23-1.41.07-2.01s.87-.88,1.52-.91c.72-.02,1.35.35,1.57,1.07.09.31.12.7.14,1.09h-2.81c-.02.57.26,1.08.86,1.21ZM13.69,5.77c0-.76-.48-1.13-1.08-1.12-.64,0-1.08.48-1.09,1.12h2.17Z"/>
  <path d="M21.12,7.73c-.47-.43-.45-1.27-.03-1.71.21-.22.69-.41.97-.42l1.25-.03c.06-.35-.18-.8-.63-.88-.56-.09-1.07.02-1.61.22v-.55c.57-.17,1.12-.28,1.7-.19.62.09,1.14.62,1.15,1.28l.04,2.52-.6.02-.05-.48c-.52.6-1.5.84-2.18.22ZM23.17,6.94c.11-.27.15-.53.19-.85l-1.28.05c-.37.01-.68.35-.68.67,0,.38.23.68.66.73s.93-.13,1.12-.6Z"/>
  <path d="M15.87,6.92c.23.66,1.21.79,2.14.41v.55c-1.09.4-2.26.23-2.71-.72-.31-.64-.31-1.37-.04-2.03.41-.99,1.64-1.21,2.75-.8v.55c-.55-.19-.99-.3-1.53-.15-.67.18-.96,1.21-.61,2.19Z"/>
  <rect x="25.21" y="2.81" width=".62" height="5.16"/>
  <rect x="19.11" y="4.23" width=".62" height="3.74"/>
  <rect x="19.11" y="2.81" width=".62" height=".77"/>
  <g>
    <path d="M9.44,32.75c-.41-.12-.74-.51-1.03-.91-.59-.83-.92-1.79-1.01-2.82-.21-2.33.69-4.18,1.93-6.1l2.14-2.7c1.41-1.78,2.76-3.56,4-5.45-1.87-1.13-3.5-2.3-5.11-3.65-.6-.58-1.28-1.05-1.71-1.81l16.02,9.27c-2.07-.26-3.78-1.17-5.61-1.89l-3.21-1.7c-1.08,2.85-2.69,5.15-4.55,7.59-1.36,1.78-2.59,3.58-2.93,5.82-.2,1.54.14,2.92,1.06,4.35Z"/>
    <path d="M7.85,46.77c-.99,1.17-1.8,2.33-2.73,3.57.92-3.06,2.88-5.52,5.25-7.47l2.54-1.64c-3.55-1.15-6.5-3.79-8.1-7.08-.43-.88-.78-1.78-.91-2.75.89,1.48,1.62,2.81,2.72,4.01,1.31,1.47,2.77,2.68,4.52,3.6.9.48,1.85.82,2.83,1.12l2.67.82-3.12,1.54c-1.58.78-3.04,1.7-4.3,2.93l-1.36,1.34Z"/>
    <path d="M16.46,70.27c-.52-.27-.73-.67-1.08-1.02l-2.9-3.57-.46-.53-1.2-1.33c-2.88-3.21-3.69-8.08-1.7-11.89.24-.45.52-.86.89-1.25-.43,1.38-.82,2.58-.88,3.99-.12,2.62.51,5.17,1.98,7.32l1.34,1.74.77.98c1.21,1.79,2.27,3.6,3.23,5.56Z"/>
  </g>
</svg>