<?xml version="1.0" encoding="UTF-8"?>
<svg xmlns="http://www.w3.org/2000/svg" viewBox="0 0 100 100">
  <g transform="translate(50 50) scale(1.71490) translate(-24.1650 -20.2152)">
  <path d="M25.24,15.66c0,.97-.79,1.76-1.76,1.76s-1.76-.79-1.76-1.76.79-1.76,1.76-1.76,1.76.79,1.76,1.76ZM24.1,15.66c0-.61-.5-1.11-1.11-1.11s-1.11.5-1.11,1.11.5,1.11,1.11,1.11,1.11-.5,1.11-1.11Z"/>
  <path d="M36.26,34.37l-2.45,1.39c-.06,0-.17,0-.24,0l.6-.59.3-.27.4-.35.48-.41c.96-.82,1.97-1.54,3.04-2.21l1.27-.8s-.06-.13-.08-.17l-.8-1.07-.71-.99c-1.07-1.48-2.17-2.9-3.32-4.31l-.2-.25-.42-.52-1.1-1.46-.05-.13s.12-.03.15-.01l.64.46.96.74.34.29.39.36.29.28.44.44.67.72c1.44,1.56,2.47,3.4,3.26,5.37l.73-.39,1.65-.85,1.38-.63,1.11-.45,2.37-.79.13.11-11.2,6.51Z"/>
  <path d="M23.85,11.6l.95-.2c.28-.06.58-.03.87,0,2.15.25,3.75,1.85,3.96,4.02.17,1.71-.48,3.4-1.78,4.54-.45.4-.96.69-1.51.94-2.53,1.15-5.81.32-7.68-1.6l-.5-.51c-.54-.56-.97-1.2-1.41-1.84l-.62-.89c-.36-.52-.72-1.02-1.15-1.48l-.48-.53-.4-.41c-.59-.6-1.22-1.11-1.92-1.59-1.95-1.34-4.14-2.18-6.47-2.61-1.03-.19-2.03-.33-3.07-.39l-.69-.04.02,2.25c0,.07-.05.21-.09.3-.5-.79-.76-1.62-.91-2.52l-.13-.09s.06-.09.1-.12c-.06-1.03-.03-2.14.49-3.05.62-1.08,2.01-1.43,2.76-.79l.09.1s-.1.07-.13.06c-.72-.07-1.41.25-1.74.91-.2.41-.33.86-.36,1.32l-.09,1.39c5.14-.3,10.33,1.19,13.79,5.11l.38.44.25.31,1.01,1.37c.44.6.82,1.21,1.31,1.76l.45.5c.36.4.76.76,1.22,1.03l.88.5c1.29.62,2.74.8,4.12.42.53-.14,1-.39,1.46-.67,1.74-1.09,2.56-3.43,1.79-5.36-.25-.62-.68-1.23-1.21-1.61l-.29-.22c-.96-.62-2.11-.86-3.24-.57l-.14-.03s.07-.12.1-.12Z"/>
  <path d="M22.38,25.37c-.75,0-1.44-.15-2.14-.33-1.36-.37-2.61-.93-3.74-1.78,0,0,0-.13.03-.12l.12.06c1.5.68,3.07,1.16,4.73,1.26l.58.03h.9c.81,0,1.57-.17,2.36-.39,3.04-.87,5.75-3.26,6.43-6.4.32-1.45.24-2.97-.28-4.33l-.54-1.13c-.1-.06.03-.17.1-.1l.56.74.53.98c.36.66.57,2.02.56,2.85-.02,3.56-2.24,6.41-5.42,7.83-.94.42-2.43.84-3.41.84h-1.36Z"/>
  </g>
</svg>
