<?xml version="1.0" encoding="UTF-8"?>
<svg id="Layer_1" data-name="Layer 1" xmlns="http://www.w3.org/2000/svg" viewBox="0 0 53.5 33.51">
  <g>
    <path d="M18.07,13.81l-.5-.47-.7-.62-.62-.57-.29-.28c-.38-.38-.69-.81-.95-1.28-2.31,1.32-5.18,2.74-7.68,3.48l-.43.13s-.1-.07-.1-.1l2.99-1.76,1.27-.74,3.57-2.07,4.7-2.69.96-.55,1.49-.84s.15-.03.21-.01l-.59.58-.47.41c-1.71,1.5-3.57,2.74-5.54,3.94.55.54,1.09.95,1.66,1.36l1,.69c.57.4,1.09.87,1.52,1.42,1.49,1.9,1.18,4.88-.73,6.44l-.07-.08c1.12-1.96,1.18-4.25-.28-5.96l-.41-.44Z"/>
    <g>
      <path d="M53.29,31.77s.13.08.11.09l-.11.07c-.85.25-1.7.42-2.59.54l-1.39-.02-1.26-.22c-.39-.07-.75-.23-1.11-.4-1.43-.67-2.68-1.92-3.02-3.49-.37-1.73.48-3.78,2.19-4.19.05-.01.2.07.18.09-1.57.85-1.98,2.96-1.18,4.49.51.97,1.4,1.71,2.38,2.19,1.18.59,2.54.82,3.86.84l1.11.02h.84Z"/>
      <g>
        <path d="M40.42,25.45l.05,1.25.05,1.47.03,3.86c-.09-.06-.11-.14-.12-.25l-.26-2.45-.38-3.44-.07-.82-6-2.5-3.72,6.15-8.83-5.06.67-.83,3.39-4.05.37-.45.37-.44.91-1.09.34-.41s.08-.08.07-.08c0,0,.05.05.07.07.02.02-.01.07-.05.12-1.28,1.93-2.59,3.8-3.97,5.66l-.91,1.22.95.5.86.46.49.26,2.04,1.1,2.83,1.57,1.79-2.87,1.02-1.61.93-1.44.9.41,5.16,2.4.98.47.03.84Z"/>
        <path d="M35.85,18.44c-3.66.12-6.77,2.01-8.67,5.12l-.09-.1c.3-1.33.97-2.49,1.94-3.45l.57-.51c2.18-1.76,5.07-2.41,7.76-1.52.48.19.95.34,1.37.74-.99-.15-1.89-.32-2.88-.29Z"/>
        <path d="M30.03,13.35c1.48.77,1.95,2.99.87,4.39-.27.35-.62.61-1.09.71.16-.36.33-.65.44-.99.51-1.58-.02-3.25-1.36-4.31.39-.14.79.02,1.14.2Z"/>
      </g>
    </g>
  </g>
  <path d="M34.7,2.43c.29.92.11,2.26-.83,2.29-.41.01-.77-.22-.9-.64-.3-.93-.13-2.28.84-2.31.41,0,.75.23.89.66ZM34.34,2.47c-.07-.25-.29-.41-.53-.4-.61.03-.68,1.19-.47,1.95.07.25.29.41.53.4.6-.03.67-1.18.46-1.95Z"/>
  <path d="M32.23,2.46c.27.94.1,2.23-.86,2.26-.41.01-.75-.23-.89-.66-.17-.52-.17-1.11,0-1.63.14-.43.48-.67.89-.66s.73.26.86.69ZM31.01,4.28c.09.13.39.17.52.11.48-.2.51-1.26.31-1.93-.06-.23-.28-.39-.47-.39-.55,0-.64.7-.62,1.4.01.28.07.56.25.81Z"/>
  <path d="M35.66,4.42c-.44-.55-.44-1.79-.01-2.35.21-.28.55-.34.89-.28.27.05.56.3.65.63.25.85.13,2.08-.61,2.25-.34.08-.69.04-.93-.26ZM36.81,2.44c-.07-.23-.29-.38-.5-.37-.2,0-.41.16-.48.39-.24.78-.13,1.95.48,1.96.65,0,.74-1.19.5-1.98Z"/>
  <path d="M39.5,2.08c.43.56.42,1.84-.03,2.37-.23.26-.58.32-.91.24-.25-.06-.52-.31-.61-.62-.25-.85-.13-2.08.61-2.25.35-.09.72-.02.94.27ZM38.58,4.35c.28.17.61.02.71-.27.18-.52.18-1.1.02-1.62-.1-.31-.43-.49-.73-.32-.4.23-.4,1.09-.31,1.72.02.17.17.41.31.49Z"/>
  <path d="M22.08,2.95c.33.73.04,1.67-.62,1.76-.33.04-.57-.06-.81-.31l-.02.26h-.34s0-2.94,0-2.94h.35s0,1.07,0,1.07c.21-.22.45-.35.76-.33.26.02.54.2.67.49ZM21.75,3.09c-.09-.22-.32-.34-.53-.33-.51.01-.72.76-.47,1.33.1.22.32.34.54.33.5-.02.7-.76.47-1.33Z"/>
  <path d="M29.47,3.96v.66s-.38,0-.38,0v-.66s-1.29,0-1.29,0l.02-.38,1.16-1.79.5-.02v1.88s.41.01.41.01v.29s-.41,0-.41,0ZM29.09,3.66v-1.53s-.97,1.53-.97,1.53h.97Z"/>
  <path d="M24.53,4.28v.28c-.34.11-.67.18-1.02.13-.71-.1-1.02-.79-.81-1.53.13-.46.53-.71.99-.71.37,0,.71.18.84.55.07.21.09.46.1.69h-1.6c-.04.37.21.65.6.73l.91-.15ZM24.27,3.4c0-.36-.17-.57-.46-.62-.2-.04-.44.02-.6.17-.1.09-.17.31-.19.46h1.25Z"/>
  <path d="M15.99,4.36c.49.15.88.01,1.25-.28v.39c-.35.2-.71.28-1.12.23-.54-.06-.97-.42-1.1-.95-.22-.92.13-1.82,1.05-1.95.43-.06.81.01,1.19.22v.39c-.42-.32-.88-.44-1.37-.23-.16.07-.35.28-.41.45-.24.68-.09,1.55.52,1.74Z"/>
  <polygon points="41.94 2.98 41.96 3.27 40.83 3.27 40.83 4.65 40.45 4.65 40.45 1.79 42.07 1.78 42.09 2.09 40.83 2.08 40.83 2.97 41.94 2.98"/>
  <path d="M19.59,2.52v2.13s-.34,0-.34,0l-.03-.26c-.3.36-.84.47-1.21.11-.12-.11-.21-.42-.21-.59v-1.39s.35,0,.35,0v1.37c0,.12.09.36.17.42.15.12.42.11.58.04.14-.06.32-.28.33-.47l.02-1.37h.35Z"/>
  <path d="M43.75,4.36v.31s-.63-.03-.63-.03c-.23-.01-.43-.25-.43-.48v-1.31s-.26-.03-.26-.03v-.27s.25-.03.25-.03v-.61s.35,0,.35,0v.63s.73,0,.73,0v.3s-.72,0-.72,0v1.28c0,.08.12.24.2.25h.52Z"/>
  <path d="M44.49,1.72c.74,1.24.73,2.26-.01,3.47h-.31c.66-1.11.67-2.34,0-3.45l.31-.02Z"/>
  <path d="M27.28,5.15l-.3.04c-.52-.83-.76-1.97-.34-2.79l.36-.7.3.03c-.64,1.06-.68,2.28-.01,3.42Z"/>
</svg>