<?xml version="1.0" encoding="UTF-8"?>
<svg id="Layer_1" data-name="Layer 1" xmlns="http://www.w3.org/2000/svg" viewBox="0 0 52.5 37.87">
  <g>
    <path d="M32.63,12.66l-3-.28-1.31-.07h-1.17c-1.05,0-2.06.17-3.07.43s-1.94.68-2.81,1.25l-.08-.12.34-.29.42-.34c.24-.2.51-.37.79-.53,1.32-.75,2.73-1.17,4.24-1.33.84-.09,1.64-.16,2.49-.12l2.75.13,2.49.17c.95.06,1.88.06,2.84.03,1.35-.04,2.61-.29,3.9-.66,1.65-.48,3.95-1.11,5.58-1.12l1.96-.02-.08-1.63c-.04-.76-.13-1.48-.29-2.21l-.03-.14s.13-.06.15-.04l.52.53c.46.6.73,1.28.87,2.02l.16,1.59.9.13s.06.06.12.17l-1.02.02-.02.37-.07,1.23-.09,1.41c-.1-.06-.22-.14-.25-.2l-.34-.68c-.31-.64-.38-1.35-.49-2.05l-.63.06c-1.35.14-2.65.41-3.96.78l-2.35.78c-.64.21-1.25.44-1.92.59-2.65.61-4.84.4-7.54.14Z"/>
    <g>
      <path d="M15.19,24.52c-.82.71-2.13,1.47-3.15,1.92-.37.16-.74.27-1.13.38-1.54.43-3.13.41-4.57-.2l.12-.13c.93.24,1.83.24,2.76.07,1.03-.19,1.99-.57,2.88-1.12l.82-.51c.51-.31.97-.68,1.41-1.09l.75-.69.53-.53,1.68-1.76.32-.37.97-.98.79-.77.53-.48.38-.31c.84-.69,1.7-1.29,2.69-1.75,3-1.39,6.21-1.44,9.43-.79,2.11.45,4.12,1.11,6.1,1.98.03.02.1.07.09.06,0,0-.04.06-.07.1-4.09-1.04-8.43-2.05-12.62-1.06-1.48.35-3.16,1.13-4.32,2.07l-.31.25-.37.32-.54.47-.47.41-1.11,1.09-1.94,1.94-.4.35-.47.41-.46.42-.34.29Z"/>
      <path d="M5.81,35.66l-.93,1.41-.07.09s-.1-.04-.13-.07c.24-.79.52-1.49.89-2.22.47-.93,1.01-1.78,1.69-2.58l.92-.96.58-.55c1.16-.95,2.45-1.67,3.89-2.11,1.07-.33,2.14-.46,3.24-.59,1.56-.18,3.17-.93,4.18-2.14.39-.46.46-.98.67-.93-.07.86-.46,1.63-1.05,2.24l-.35.35c-.83.84-2.28,1.4-3.48,1.66l-2.01.43c-.75.16-1.44.43-2.14.74-.74.33-1.4.73-2.05,1.2-.58.43-1.13.86-1.63,1.38l-1.01,1.06-.31.37-.9,1.2Z"/>
    </g>
  </g>
  <path d="M28.5,5.02c-.42-.02-.67-.31-.67-.69,0-.36.25-.68.63-.7l.83-.05c.02-.2-.13-.43-.34-.48-.32-.07-.6,0-.95.12v-.31c.31-.1.62-.16.96-.12.37.05.66.37.67.76l.02,1.42h-.35s-.04-.26-.04-.26c-.18.21-.44.34-.76.32ZM29.29,3.89c-.34,0-.59,0-.89.07-.2.04-.26.35-.19.52.06.14.24.25.44.25.43-.01.65-.36.64-.84Z"/>
  <path d="M34.57,4.58v.29c-.73.27-1.54.2-1.8-.47-.14-.36-.12-.77.04-1.11s.52-.53.91-.53.74.2.86.59c.06.2.08.44.08.65h-1.61c-.02.34.21.69.6.71.3.02.5-.04.91-.14ZM34.31,3.7c.02-.42-.25-.63-.58-.64-.39,0-.65.29-.66.64h1.24Z"/>
  <path d="M21.53,4.72c-.16-.26-.15-.61.04-.84.11-.14.4-.26.58-.27l.74-.03c0-.22-.12-.43-.33-.48-.33-.08-.65,0-.96.11l-.02-.29c.3-.11.65-.18.98-.13.39.06.67.39.67.79l.02,1.39h-.35s-.02-.26-.02-.26c-.39.43-1.09.42-1.34.02ZM22.87,3.89l-.71.03c-.25.01-.4.23-.38.44.02.19.2.36.42.36.46,0,.73-.38.67-.84Z"/>
  <path d="M36.98,4.41c-.14.41-.48.61-.87.62-.45.01-.84-.24-.95-.69-.07-.27-.07-.61,0-.88.12-.45.5-.7.95-.69.41.01.75.23.88.64.1.3.1.68,0,1ZM36.63,4.31c.09-.27.08-.6,0-.85s-.31-.39-.54-.39-.45.14-.54.39c-.09.27-.09.6,0,.87.08.25.31.39.54.39s.46-.13.55-.41Z"/>
  <path d="M39.4,2.83v2.14s-.34,0-.34,0l-.03-.26c-.3.36-.84.47-1.21.11-.12-.11-.21-.42-.21-.59v-1.39s.35,0,.35,0v1.37c0,.12.09.36.17.42.14.11.42.11.58.04.14-.06.32-.28.33-.47l.02-1.37h.35Z"/>
  <path d="M16.69,3.12c-.19-.08-.43-.05-.57.04-.12.07-.27.3-.27.48v1.33s-.36,0-.36,0v-2.12s.35,0,.35,0l.04.25c.17-.17.37-.29.62-.31.44-.03.78.29.78.73l.02,1.46h-.36s0-1.39,0-1.39c0-.13-.1-.39-.24-.45Z"/>
  <path d="M31.54,3.12c-.17-.08-.44-.04-.57.04-.12.08-.27.31-.27.48v1.33s-.36,0-.36,0v-2.12s.35,0,.35,0l.04.25c.17-.17.37-.29.62-.31.44-.03.78.29.78.73l.02,1.46h-.36s0-1.39,0-1.39c0-.14-.1-.38-.25-.45Z"/>
  <path d="M41.24,4.92c-.44.18-.87.1-1.28-.04v-.35c.58.28,1.24.26,1.29-.11.01-.09-.12-.27-.21-.3l-.7-.2c-.22-.06-.37-.3-.36-.53,0-.28.17-.51.45-.58.34-.08.69-.04,1.04.04l.02.34c-.33-.12-.63-.17-.98-.1-.16.03-.28.3-.15.43.07.07.27.13.38.17l.59.19c.19.06.29.35.27.52-.01.19-.14.42-.36.51Z"/>
  <path d="M19.41,4.62c-.26.5-.97.46-1.59.28v-.37c.57.27,1.25.27,1.28-.12,0-.11-.13-.28-.24-.31l-.62-.16c-.25-.06-.41-.29-.41-.55,0-.29.18-.52.46-.58.35-.08.72-.04,1.05.07v.32c-.55-.2-1.15-.19-1.18.17,0,.1.14.26.24.28l.58.14c.11.03.33.16.4.27.08.13.09.42.02.55Z"/>
  <path d="M25.05,3.09c-.4-.1-.75.17-.75.53l-.02,1.34h-.34s0-2.12,0-2.12h.33s.03.26.03.26c.28-.32.71-.45,1.11-.21.21.13.32.44.32.69v1.38s-.35,0-.35,0v-1.42c0-.17-.14-.4-.33-.45Z"/>
  <path d="M27.49,4.66v.31s-.64-.03-.64-.03c-.21-.01-.42-.24-.42-.46v-1.29s-.26-.08-.26-.08v-.26s.25-.03.25-.03v-.61s.35,0,.35,0v.63s.73,0,.73,0v.3s-.73,0-.73,0v1.28c0,.09.14.25.23.25h.49Z"/>
  <path d="M21.08,4.66v.31s-.62-.03-.62-.03c-.23-.01-.44-.25-.44-.49v-1.3s-.26-.03-.26-.03v-.27s.26-.03.26-.03v-.61s.35,0,.35,0v.63s.73,0,.73,0v.3s-.73,0-.73,0v1.28c0,.09.16.25.25.25h.47Z"/>
  <rect x="14.43" y="2.08" width=".38" height="2.88"/>
</svg>