<?xml version="1.0" encoding="UTF-8"?>
<svg id="Layer_1" data-name="Layer 1" xmlns="http://www.w3.org/2000/svg" viewBox="0 0 53.5 34.95">
  <g>
    <path d="M18.79,21.79c1.15-1.95,1.17-4.27-.33-5.99-.28-.32-.56-.6-.88-.88l-.43-.38-.44-.38-.46-.42c-.49-.44-.88-.97-1.22-1.54-2.23,1.27-4.84,2.57-7.28,3.35l-.79.25s-.12-.08-.11-.1l1.69-1,5.89-3.43.69-.39,2.82-1.62.88-.5,3.04-1.72s.13-.02.12.01-.04.11-.07.13l-.97.87-.55.47c-1.54,1.31-3.2,2.39-4.97,3.45l.63.61.31.24.77.55.3.2c1.07.73,2.13,1.51,2.68,2.71.86,1.88.41,4.23-1.24,5.58l-.07-.09Z"/>
    <g>
      <path d="M47.91,33.73c-1.05,0-2.04-.11-3.03-.31l-2.62-.51-1.44-.38-1.1-.34-1.4-.55c-.9-.35-1.69-.89-2.43-1.51l-1.01-1c-.66-.66-1.3-1.99-1.56-2.95-.24-.89-.33-1.79-.24-2.72l.22-1.23c.13-.35.16-.73.48-1.02-.7,2.94.15,5.92,2.4,7.88,1.16,1.01,2.89,1.77,4.37,2.22l1.26.38,1.9.49c3.15.73,6.33,1.1,9.57,1.14h.14s-.05.14-.05.14l-2.7.29-2.73-.02Z"/>
      <path d="M36.6,32.21l-.71-.39-1.09-.54c-2.56-1.13-5.41-1.73-8.23-1.65-.88.02-1.71.07-2.58.24l-1.21.24s-.12-.06-.1-.08l.09-.08c1.36-.72,2.83-1.12,4.37-1.26,1.64-.09,2.99,0,4.58.41,1.36.35,2.62.89,3.8,1.65.5.32.98.64,1.39,1.05l.88.87.26.3s-.06.17-.1.1l-1.35-.86Z"/>
    </g>
    <g>
      <path d="M30.39,25.58c.11.12-1.97.27-2.9-1.68-.29.42-.59.83-.98,1.15l-.25.2c-.33.19-.63.38-1.07.49.76-1.19,1.45-2.33,1.92-3.63l.4-1.1,1.02.38.82.28-.02.12-1.14.07-.3,1.2,2.4,2.45.08.09Z"/>
      <path d="M24.51,23.34c-.5-.16-.82-.64-.82-1.1v-.6s.46.25.46.25l.78.49c.4-.52.85-.89,1.43-1.18l.19.03c-.4,1.36-1.04,2.58-2.04,3.62-.13-.53-.08-1.01,0-1.5Z"/>
    </g>
  </g>
  <path d="M32.03,4.67c.15-.14.34-.26.55-.29.6-.07,1,.37,1.01.93s-.36,1.01-.95,1.01c-.4,0-.76-.22-.89-.61-.32-.92-.1-2.1.75-2.29.29-.07.62-.02.9.06v.32c-.45-.15-.81-.2-1.17.09-.13.24-.21.46-.2.78ZM33.06,5.82c.2-.28.19-.65.01-.92s-.61-.31-.82-.05c-.23.28-.23.72,0,1.01.2.24.62.23.81-.03Z"/>
  <path d="M34.97,6.31c-.35-.04-.62-.25-.74-.59-.2-.56-.2-1.2,0-1.76.14-.4.5-.62.93-.59.92.07,1.06,1.38.79,2.28-.14.45-.53.7-.98.65ZM35.57,4.04c-.07-.23-.29-.38-.5-.37-.61.01-.71,1.22-.45,2,.08.23.3.37.52.35.59-.04.68-1.21.44-1.98Z"/>
  <path d="M27.25,5.99c.36.08.7,0,1.01-.16l.02.33c-.71.27-1.54.21-1.8-.44-.15-.37-.13-.81.04-1.15s.5-.5.87-.52c.41-.01.77.2.9.61.05.18.07.4.08.62h-1.61c-.01.32.15.62.49.69ZM28.01,5c0-.43-.27-.64-.62-.64-.37,0-.62.28-.63.64h1.24Z"/>
  <path d="M19.81,5.96c.49.15.88.01,1.25-.28v.39c-.35.2-.71.28-1.12.23-.54-.06-.97-.42-1.1-.95-.22-.92.13-1.82,1.05-1.95.43-.06.81.01,1.19.22v.39c-.42-.32-.88-.44-1.37-.23-.16.07-.35.28-.41.45-.24.68-.09,1.55.52,1.74Z"/>
  <path d="M23.42,5.63c-.12.46-.49.69-.91.7-.47,0-.86-.28-.95-.75-.05-.23-.05-.53,0-.76.1-.47.49-.76.95-.75.43,0,.79.24.91.67.07.26.08.61,0,.89ZM23.01,5.67c.13-.32.12-.68,0-.98-.09-.21-.33-.33-.53-.33s-.42.14-.5.36c-.12.3-.12.64,0,.94.09.22.3.35.5.36s.44-.12.54-.35Z"/>
  <path d="M25.35,4.51c-.15-.18-.45-.17-.63-.09-.15.06-.33.31-.33.52v1.32s-.36,0-.36,0v-2.12s.34,0,.34,0l.03.27c.3-.36.84-.47,1.21-.11.12.11.21.42.21.59v1.39s-.35,0-.35,0v-1.32c0-.1-.05-.33-.12-.42Z"/>
  <polygon points="38.22 4.58 38.23 4.88 37.1 4.88 37.1 6.25 36.71 6.25 36.71 3.39 38.35 3.39 38.35 3.69 37.1 3.69 37.1 4.58 38.22 4.58"/>
  <path d="M40.02,5.96v.31s-.65-.03-.65-.03c-.21-.01-.42-.24-.42-.46v-1.29s-.26-.08-.26-.08v-.26s.25-.03.25-.03v-.61s.35,0,.35,0v.63s.73,0,.73,0v.3s-.73,0-.73,0v1.28c0,.09.14.25.24.25h.48Z"/>
  <path d="M41.11,6.03l-.36.76-.32-.02c.66-1.11.65-2.37-.01-3.44h.32c.51.76.77,1.87.37,2.71Z"/>
  <path d="M31.01,6.77s-.27.04-.31-.03l-.35-.69c-.25-.67-.3-1.39.01-2.03l.35-.71h.32c-.59.97-.67,2.1-.18,3.12l.16.34Z"/>
</svg>