<?xml version="1.0" encoding="UTF-8"?>
<svg id="Layer_1" data-name="Layer 1" xmlns="http://www.w3.org/2000/svg" viewBox="0 0 52.5 46.38">
  <path d="M20.02,4.16l-.75.02v1.3s-.43,0-.43,0v-3.2s1.06,0,1.06,0c.24,0,.59.1.76.28.33.36.33.92.03,1.31-.12.16-.47.29-.67.3ZM20.45,3.15c-.02-.27-.23-.52-.49-.52h-.69s0,1.21,0,1.21h.62c.36,0,.6-.29.56-.69Z"/>
  <path d="M30.24,5.43v-1.55c0-.13-.11-.41-.22-.48-.21-.14-.51-.11-.71.02-.15.1-.3.37-.3.6v1.42s-.4,0-.4,0v-3.3s.39,0,.39,0l.02,1.22c.37-.41.93-.53,1.35-.16.15.14.25.48.26.69v1.55s-.39,0-.39,0Z"/>
  <path d="M24.52,5.89c-.07.17-.28.42-.42.43l-.55.05v-.34c.12,0,.38,0,.45-.07.13-.11.25-.4.3-.57l-.97-2.33h.41s.75,1.84.75,1.84l.75-1.85h.42s-1.15,2.83-1.15,2.83Z"/>
  <path d="M22.84,4.36c.17.16.17.5.09.69-.22.53-1.08.53-1.78.31v-.41c.64.32,1.4.29,1.43-.12.01-.12-.13-.32-.24-.35l-.64-.16c-.32-.08-.54-.31-.55-.61s.18-.62.53-.69c.38-.08.78-.03,1.15.07v.37c-.61-.24-1.29-.2-1.31.19,0,.09.11.27.21.3l.55.14c.18.05.39.12.55.27Z"/>
  <path d="M32.94,4.6c.09.41.5.66.88.56l.57-.14-.02.34c-.39.15-.83.21-1.22.05-.48-.2-.68-.67-.68-1.17s.18-.93.63-1.14c.4-.19.86-.14,1.27.02v.35c-.3-.11-.58-.19-.9-.13-.47.09-.67.64-.54,1.26Z"/>
  <path d="M26.54,4.7c.15.48.78.59,1.41.32v.35c-.77.29-1.58.14-1.82-.61-.1-.32-.1-.71,0-1.03.24-.74,1.06-.91,1.83-.62v.35c-.67-.27-1.29-.17-1.43.38-.08.29-.07.58.02.86Z"/>
  <rect x="31.42" y="3.05" width=".4" height="2.39"/>
  <rect x="31.42" y="2.13" width=".4" height=".49"/>
  <g>
    <path d="M24.63,29.2c-1.47-1.71-1.58-4.21-.1-5.96.56-.66,1.24-1.18,2.03-1.55.73-.33,1.46-.59,2.26-.65l1.27-.09c1.76-.12,4.52.67,5.71,1.86l.91.91c.46.47.76,1.04,1.05,1.63.93,1.93,1.06,4.13.48,6.17l-.53,1.38c-.3.77-.79,1.48-1.38,2.06l-.71.7-.46.39c-.95.81-2.39,1.51-3.6,1.89-3.01.94-6.02.65-8.92-.51l-.81-.32-1.97-.92-.97-.5-2.25-1.13-1.83-.84c-1.74-.8-5.19-1.68-6.97-1.33l-1.82.35-1.34.24-.02,1.44-.08,2.67-.06,1.06-.07,1.05c-.11,1.6-.31,3.16-.59,4.73l-.25,1.35-.16.05v-.94s-.03-1.87-.03-1.87l-.02-2.62v-13.14s.02-3.11.02-3.11v-1.7s.03-.82.03-.82c0-.04.05-.16.06-.2s.1.08.1.12l.23,1.25c.29,1.58.49,3.13.6,4.73l.07,1.05.06,1.13.05,1.48.05,2,.63-.1,1.4-.37c.7-.19,1.39-.38,2.12-.42,1.53-.07,2.99.15,4.46.54,1.18.31,2.28.69,3.38,1.2l1.79.82,1.24.59,1.64.75,1.51.6c1.1.44,2.23.72,3.41.88,1.45.2,2.87.08,4.27-.28.86-.22,1.68-.49,2.43-.95l.83-.51.46-.33.34-.28.87-.89c.74-.75,1.19-1.7,1.5-2.72.67-2.21.38-4.55-.93-6.44-.49-.7-1.08-1.28-1.8-1.71-1.7-1.02-3.87-1.4-5.8-1.02-1.09.22-1.95.48-2.83,1.19-1.54,1.24-1.9,3.31-.99,5.07.44.84,1.19,1.5,2.15,1.59.85-.03,1.61-.38,2.12-1.08,0-.01.13-.04.13,0-.09.47-.8,1.01-1.44,1.24-1.14.41-2.19,0-2.96-.9Z"/>
    <path d="M29.27,24.64c1.01.02,1.85.48,2.46,1.19,1.01,1.2,1.15,3.03.58,4.48-.17.43-.37.84-.62,1.21-1.47,2.13-4.16,3.39-6.7,2.82-.92-.2-1.76-.53-2.49-1.11l-.55-.43-.71-.69c-.36-.35-.6-.77-.85-1.2-.57-.98-.89-2.03-.94-3.17s.1-2.33.58-3.39l.37-.83c.26-.57.58-1.12,1.01-1.59l.74-.81.85-.7c.48-.39,1.04-.66,1.62-.92,1.64-.72,3.58-1.07,5.37-1.23l3.96-.35c3.11-.28,5.53-.72,8.11-2.57l.99-.77.38-.33.51-.47.72-.75.5-.56.32-.38.45-.53.96-1.23,1.21-1.67.61-.87,1.03-1.48c.06.1.04.21-.01.31l-1.26,2.13-1.2,1.9-.46.67-1.22,1.66-.28.35-.28.34-.5.56-.8.81-.6.54-.38.32-1.4.99-.86.49-.42.21c-1.48.73-3.69,1.23-5.35,1.4l-2.03.21-.83.08c-1.32.13-2.6.28-3.91.54-2.57.5-4.82,1.61-6.17,3.89-1.23,2.08-1.53,4.6-.31,6.71.25.44.53.87.9,1.21l.63.57c.52.48,1.18.8,1.85,1.02,1.22.41,2.47.35,3.65-.12,1.46-.58,2.62-1.63,3.25-3.08.43-.99.52-2.02.2-3.05s-1.38-2.07-2.56-2.17c-.03-.01-.07-.08-.09-.16Z"/>
  </g>
</svg>