<?xml version="1.0" encoding="UTF-8"?>
<svg id="Layer_1" data-name="Layer 1" xmlns="http://www.w3.org/2000/svg" viewBox="0 0 52.75 33.62">
  <path d="M15.39,5.04h-.35s0-2.93,0-2.93h.34s.03.25.03.25c.19-.22.44-.35.76-.32.69.06,1,1.04.64,1.79-.13.27-.4.44-.64.46-.32.03-.56-.09-.78-.33v1.08ZM16.53,3.57c.07-.25.07-.56,0-.79-.07-.29-.29-.45-.55-.45-.22,0-.45.15-.53.4-.08.27-.08.59,0,.86.08.25.31.4.53.4.23,0,.46-.13.54-.42Z"/>
  <path d="M14.27,4c-.35.4-1.22.34-1.81.12v-.38c.38.19.79.32,1.21.22.23-.05.38-.25.39-.45s-.15-.41-.36-.46l-.62-.15c-.18-.04-.43-.18-.52-.34-.17-.29-.15-.66.07-.91.35-.4,1.03-.33,1.65-.19v.37c-.59-.26-1.27-.29-1.42.15-.04.11.01.39.13.44.5.21.96.17,1.25.45.3.3.32.8.04,1.12Z"/>
  <path d="M18.96,4.23v-1.39c0-.16-.11-.4-.27-.47s-.41-.03-.55.05c-.12.07-.27.31-.27.48v1.33s-.36,0-.36,0V1.3s.35,0,.35,0v1.07c.22-.19.39-.31.65-.32.44-.03.78.29.78.73l.02,1.46h-.36Z"/>
  <path d="M21.75,3.85v.29c-.73.27-1.54.2-1.8-.47-.14-.36-.12-.77.04-1.11s.52-.53.91-.53.74.2.86.59c.06.2.08.44.08.65h-1.61c-.02.34.21.69.6.71.3.02.5-.04.91-.14ZM21.48,2.98c.02-.42-.25-.63-.58-.64-.39,0-.65.29-.66.64h1.24Z"/>
  <path d="M25.7,3.86v.28c-.34.11-.67.18-1.02.13-.71-.1-1.02-.79-.81-1.53.13-.46.53-.71.99-.71.37,0,.71.18.84.55.07.21.09.46.1.69h-1.6c-.04.37.21.65.6.73l.91-.15ZM25.43,2.98c0-.36-.17-.57-.46-.62-.2-.04-.44.02-.6.17-.1.09-.17.31-.19.46h1.25Z"/>
  <path d="M32.62,4.27c-.36.05-.72,0-1.06-.08v-.38c.31.15.65.23.98.16.32-.07.49-.36.47-.68,0-.27-.17-.51-.44-.58-.29-.08-.6-.02-.89.1v-1.39s1.51,0,1.51,0v.3s-1.15,0-1.15,0v.68c.3-.03.56-.04.79.05.38.14.56.46.58.85.02.48-.26.9-.79.98Z"/>
  <polygon points="35.64 2.56 35.65 2.86 34.52 2.86 34.52 4.23 34.13 4.23 34.13 1.37 35.76 1.37 35.77 1.67 34.52 1.67 34.52 2.56 35.64 2.56"/>
  <polygon points="29.27 4.23 29.25 3.94 29.88 3.93 29.88 1.74 29.2 1.88 29.2 1.52 29.85 1.4 30.26 1.39 30.27 3.94 30.9 3.94 30.9 4.23 29.27 4.23"/>
  <path d="M37.44,3.94v.3s-.67-.04-.67-.04c-.21-.01-.4-.26-.4-.47v-1.31s-.25-.04-.25-.04v-.27s.25-.03.25-.03v-.61s.35,0,.35,0v.62s.73,0,.73,0v.3s-.73,0-.73,0v1.23c0,.06.07.25.13.26l.59.04Z"/>
  <path d="M28.44,4.73l-.3.04c-.52-.83-.76-1.97-.34-2.79l.36-.7.3.03c-.64,1.06-.68,2.28-.01,3.42Z"/>
  <path d="M38.53,4.03l-.36.74h-.31c.64-1.12.66-2.33,0-3.44l.31-.02.35.73c.3.62.32,1.37,0,2.01Z"/>
  <path d="M22.76,4.23h-.35s0-2.12,0-2.12h.35s.03.25.03.25c.22-.29.49-.34.87-.32v.35c-.17-.05-.42-.06-.58.02-.13.07-.3.32-.3.5v1.33Z"/>
  <g>
    <path d="M36.21,22.52c0,4.93-4,8.93-8.93,8.93s-8.93-4-8.93-8.93,4-8.93,8.93-8.93,8.93,4,8.93,8.93ZM35.13,22.52c0-4.6-3.73-8.33-8.34-8.33s-8.34,3.73-8.34,8.33,3.73,8.33,8.34,8.33,8.34-3.73,8.34-8.33Z"/>
    <path d="M14.26,19.93c.37-.77.68-1.47.8-2.31.16-1.15-.08-2.29-.72-3.27-.23-.36-.51-.7-.83-.98l-.76-.68-.5-.44c-.68-.6-1.3-1.22-1.74-2.02-1.76,1.01-3.49,1.89-5.34,2.64-.9.37-1.77.66-2.69.96l-.11.03s-.06-.07-.08-.11l11.44-6.64,2.68-1.52c.35-.2.65-.37,1.06-.56-.18.33-.41.49-.66.71l-.5.44-.37.31-.38.31c-1.47,1.19-3,2.2-4.67,3.22.43.44.91.83,1.41,1.19l.7.49c.62.43,1.21.85,1.73,1.4,1.48,1.55,1.66,3.89.58,5.73-.3.41-.54.85-1.06,1.12Z"/>
    <path d="M47.43,31.91l-1.4.19h-1.13c-1.03-.02-2.66-.61-3.49-1.26l-.28-.22-.43-.39-.38-.43-.43-.64c-.21-.31-.34-.7-.43-1.07-.42-1.78.38-3.89,2.25-4.33l.11.09-.45.32c-.13.09-.33.28-.43.42l-.3.45c-.72,1.36-.48,2.96.52,4.11s2.16,1.68,3.57,2c.82.19,1.63.23,2.48.24h.69c.37,0,.68-.01,1.07.09-.54.22-.99.36-1.55.44Z"/>
    <path d="M28.15,20.95c-.13.94-.49,1.87-1.11,2.62-.5.6-1.09,1.1-1.89,1.29,1.01-1.55,1.77-3.03,2.32-4.74l1.84.68-.12.12-1.04.03Z"/>
  </g>
</svg>