<?xml version="1.0" encoding="UTF-8"?>
<svg id="Layer_1" data-name="Layer 1" xmlns="http://www.w3.org/2000/svg" viewBox="0 0 52.5 39.32">
  <polygon points="26.94 4.48 26.55 4.5 26.55 3.12 25.15 3.11 25.15 4.49 24.76 4.49 24.76 1.62 25.15 1.61 25.15 2.82 26.55 2.82 26.55 1.61 26.94 1.61 26.94 4.48"/>
  <path d="M29.45,3.86c-.12.46-.49.69-.91.7-.47,0-.86-.28-.95-.75-.05-.23-.05-.53,0-.76.1-.47.49-.76.95-.75.43,0,.79.24.91.67.07.26.08.61,0,.89ZM29.04,3.91c.13-.32.12-.68,0-.98-.09-.21-.33-.33-.53-.33s-.42.14-.5.36c-.12.3-.12.64,0,.94.09.22.3.35.5.36s.44-.12.54-.35Z"/>
  <path d="M31.84,2.37v2.12s-.34,0-.34,0l-.04-.26c-.29.35-.81.46-1.18.13-.14-.12-.23-.43-.23-.61v-1.39s.35,0,.35,0v1.39c0,.12.09.37.19.42.2.12.45.1.64-.02.14-.08.26-.33.26-.53v-1.26s.35,0,.35,0Z"/>
  <polygon points="21.15 4.49 21.12 4.2 21.75 4.19 21.75 2 21.08 2.13 21.07 1.78 21.74 1.65 22.14 1.64 22.14 4.19 22.77 4.2 22.77 4.49 21.15 4.49"/>
  <path d="M32.9,4.49h-.35s0-2.12,0-2.12h.35s.03.25.03.25c.22-.29.49-.34.87-.32v.35c-.17-.05-.43-.06-.58.01-.14.07-.3.32-.31.5v1.33Z"/>
  <g>
    <path d="M30.77,20.32c-1.32.16-2.61-.09-3.77-.75s-1.65-1.23-2.31-2.34c-.76.04-1.5.03-2.26-.03v-.12s1.79-.48,1.79-.48l.12-.03c.09-.02-.31-.96-.31-1.59v-1.07c0-1.25.89-3.02,1.86-3.83l.31-.26c1.64-1.36,3.92-1.69,5.93-.95.47.17.91.46,1.32.74.04.03.18,0,.21-.04l.61-.93s.12-.1.13-.07.03.13.02.17l-.38,1.33c2.15,2.04,2.49,5.32.84,7.73l-.74.89c-.22.26-.51.45-.79.65-.78.53-1.63.88-2.57.99ZM27.82,15.08c.66-.32,2.06-1.3,2.58-1.77l.59-.54c.69-.63,1.28-1.34,1.86-2.08.02-.03.09-.11.07-.13l-.11-.1c-1.71-1.53-4.12-1.71-6.06-.56-.84.5-1.49,1.15-1.95,2.02-.77,1.37-.86,3.13-.22,4.58l1.98-.77,1.28-.63ZM26.09,18.5c1.77,1.41,4.01,1.54,5.94.45.28-.16.53-.34.76-.56l.25-.25c.54-.54.95-1.13,1.21-1.86.62-1.7.43-3.58-.72-5.08-.47.78-.88,1.49-1.46,2.15-.43.5-.9.93-1.4,1.36-1.54,1.32-3.67,2.2-5.68,2.46v.1s.56.71.56.71c.14.18.32.34.53.51Z"/>
    <path d="M7.97,27.09l-1.29.71-.95.54v-.2s.42-.31.42-.31l1.18-.89c.43-.32.87-.59,1.33-.86.8-.46,1.57-.9,2.41-1.28,1.37-.62,2.76-1.09,4.21-1.49,2.1-.57,4.65-.89,6.81-.9h1.73s.51,0,.51,0h3.78c.92,0,1.8-.11,2.71-.25,1.45-.22,2.82-.65,4.12-1.32.51-.26.97-.55,1.39-.93l.53-.47c.51-.45.91-.97,1.26-1.56.56-.85.89-1.78,1.03-2.78.04-.02.1-.04.1-.02l.04.11c0,.95-.19,1.85-.58,2.71-.3.64-.6,1.28-1.09,1.8l-.64.68c-.68.73-1.51,1.27-2.38,1.74-1.33.72-3.26,1.19-4.78,1.36l-.61.07-.81.06-.97.06-3.98.02h-2.7s-.56.05-.56.05l-1.13.08c-1.1.07-2.14.27-3.22.49-1.64.33-3.2.76-4.76,1.38-1.08.43-2.12.83-3.13,1.39Z"/>
    <path d="M5.7,34.44l-.33.4c-.46.56-.86,1.14-1.24,1.77l-.07.09s-.11-.05-.13-.07l.72-1.64,1.08-1.74.3-.38.35-.41.35-.4c.87-.98,2.62-2.3,3.81-2.83l1.6-.72c1.39-.62,4.22-1.16,5.8-1.26l1.06-.07h2.38s1.07.06,1.07.06c1.75.11,3.42.4,5.16.81,0,.04-.09.14-.14.14l-5.77-.02c-1.17,0-2.26.09-3.41.22-2.44.28-4.78.87-7.02,1.88-1.12.5-2.11,1.14-3.11,1.84l-.35.28-.37.32-.54.47-.94.94-.27.32Z"/>
    <path d="M48.61,11.47l-.33-1.59-.7.07-5.63.82-3.01.5-.91.14-.11-.13,1.2-.65c2.45-1.18,5.1-1.76,7.83-1.7l1.27.08-.06-1.12c-.03-.82-.12-1.6-.31-2.4l.02-.15s.14.01.17.04l.36.37c.51.51.75,1.21.91,1.92l.22,1.6,1.02.36-.11.15-.9.02-.03.34-.08,1.24-.08,1.31s-.16.07-.18.03c-.2-.33-.48-.81-.57-1.24Z"/>
    <path d="M19.21,16.33l-.05-.5v-1.13s.07-.62.07-.62c.13-1.17.56-2.26,1.19-3.25.26-.41.57-.75.89-1.12.26-.29.53-.55.82-.81.5-.36.99-.66,1.55-.97l.07.09s-.03.1-.05.13l-.41.48c-.86,1.02-1.53,2.14-2.08,3.37s-.82,2.35-.96,3.62c-.11,1.16-.1,2.28.02,3.46l-.12.11c-.47-.91-.82-1.85-.93-2.88Z"/>
  </g>
</svg>