<?xml version="1.0" encoding="UTF-8"?>
<svg xmlns="http://www.w3.org/2000/svg" viewBox="0 0 100 100">
  <g transform="translate(50 50) scale(1.71637) translate(-26.4950 -22.9253)">
  <path d="M29.61,14.49c-2.1-.2-4.41-.03-6.35.8-.41.18-.79.44-1.2.61l-.14.06s0-.13.03-.16l.28-.22c.41-.32.81-.61,1.26-.87,1.8-1.03,4.36-1.32,6.43-1.23l1.38.06,3.07.2c2.27.15,3.93.07,6.11-.54l2.11-.58c.9-.25,1.81-.41,2.74-.46l1.07-.06h.62s.64.01.64.01l-.07-1.44c-.03-.74-.12-1.45-.28-2.17,0-.04,0-.1,0-.13s.12.02.15.04c1.12,1,1.37,2.33,1.39,3.81l.61.07c.12.01.23.05.34.16l-.95.04-.04,1-.06.94-.06.82-.18-.07c-.42-.72-.69-1.47-.77-2.3l-.09-.31-1.52.19c-.94.12-1.85.32-2.76.62l-2.55.84c-3.28,1.08-5.27.84-8.56.52l-2.7-.26Z"/>
  <path d="M16.32,25.74l-.87.66c-.46.35-.95.6-1.46.86-.92.47-1.88.79-2.92.89-.88.08-2.35.03-3.03-.55,1.17.23,2.24.25,3.34-.08.72-.22,1.41-.5,2.06-.89s1.21-.76,1.77-1.23l.31-.26,1.82-1.82,1.19-1.25.3-.33,1.13-1.13.33-.3.5-.44c1.28-1.15,3.05-2.13,4.73-2.54,3.08-.76,6.58-.32,9.56.72l1.03.36,1.93.75-.06.12-.9-.22c-1.31-.32-2.6-.59-3.94-.82-2.57-.43-5.1-.48-7.6.28-.86.26-1.67.59-2.4,1.11l-.85.59-.56.44-.44.38-.69.62-2.64,2.61-.76.69-.5.44-.36.3Z"/>
  <path d="M10.69,16.95l-.59-.03c-1.38.04-2.58.7-3.41,1.79-.32.42-.58.85-.74,1.34h2.18s-.61,1.05-.61,1.05l-1.05,1.83-.82,1.38-1.8-3.1-.66-1.15h2.46c.14-1.19.76-2.3,1.66-3.04.44-.36.92-.67,1.45-.86,1.7-.62,3.55-.31,4.93.86,1.64,1.38,2.14,3.63,1.37,5.63-.25.64-.64,1.16-1.11,1.64-.93.94-2.06,1.34-3.4,1.4l-.14-.11c.8-.18,1.49-.49,2.14-.99,1.66-1.29,2.26-3.43,1.35-5.35-.37-.78-.99-1.39-1.75-1.81-.45-.25-.95-.44-1.47-.46Z"/>
  <path d="M9.06,34.12c-.86,1.05-1.64,2.13-2.33,3.29l-.09.08s-.08-.04-.1-.06l1.03-2.24c.45-.74.89-1.46,1.45-2.12l.4-.47.69-.68.37-.32.67-.52c.38-.29.81-.5,1.25-.69,2.06-.9,4.06-1.21,6.3-1.38l.92-.07.87-.06c1.89-.13,3.73-.34,5.59-.73,1.4-.29,3.88-.99,5-1.65l1.87-1.08.44-.33s.14-.03.21,0l-.95.92-.34.28c-1.55,1.27-3.63,2.14-5.56,2.71-1.5.44-2.99.71-4.54.89l-.56.06-.62.06-.69.06-.69.06-.75.06-.81.07c-1.98.16-3.89.46-5.7,1.27-.96.43-1.73,1.06-2.5,1.76l-.29.26-.52.56Z"/>
  <path d="M24.86,26.88c-.45.03-.88,0-1.35-.11,2.19-.7,4.25-1.54,5.99-2.98l.27-.23,1.08-1.05.58-.61.22-.29,1.18-1.5c-.09,1.12-.81,2.54-1.49,3.38l-.22.28-.38.44c-1.19,1.38-3.44,2.48-5.33,2.62l-.56.04Z"/>
  <path d="M28.33,21.84c0,.97-.79,1.76-1.76,1.76s-1.76-.79-1.76-1.76.79-1.76,1.76-1.76,1.76.79,1.76,1.76ZM27.08,22.22c.12-.54,0-1.12-.4-1.39-.33-.22-.68-.24-1.06-.09-.27.11-.53.38-.63.73-.18.59.08,1.22.63,1.46.61.27,1.31-.03,1.46-.71Z"/>
  </g>
</svg>
