<?xml version="1.0" encoding="UTF-8"?>
<svg id="Layer_1" data-name="Layer 1" xmlns="http://www.w3.org/2000/svg" viewBox="0 0 52.5 46.38">
  <path d="M3.41,26.74l.02-3.15v-1.62s.03-1.03.03-1.03h.16s.23,1.24.23,1.24c.3,1.6.5,3.17.61,4.79l.07,1.05.06,1.2.05,1.41.05,2.09h2.04s2.67-.06,2.67-.06l.7-.05.64-.07c1.87-.2,3.98-.87,5.73-1.6,1.2-.5,2.33-1.05,3.49-1.65l1.26-.65,1.62-.85,1.63-.84,2.07-1.02,1.75-.79c1.13-.51,2.28-.84,3.45-1.27l2.16-.79.74-.31c1.28-.55,2.91-1.45,3.89-2.38l.69-.65.83-.86.33-.37.93-1.1.82-1.01,1.22-1.52.64-.77,1.4-1.7.65-.82.62-.79.67-.88,1.02-1.44.64-.98.69-1.14s.1-.11.1-.08.04.14.02.16l-.24.51-.66,1.32-1.25,2.12-1.16,1.73-.76,1.07-1.82,2.47-1.5,2.02-1.07,1.39-.54.66-.74.81-.71.7-.8.68c-1.05.9-2.25,1.57-3.53,2.09l-1.61.65-2.79,1.01-1.53.58-2.17.93-3.41,1.65-1.09.54-.85.41-1.42.68-1.66.74-1.86.75c-1.03.41-2.07.69-3.16.92-1.83.39-3.96.44-5.83.34l-.97-.06-.85-.06-1.12-.07-.05,2.48-.05,1.41-.07,1.26-.06.91-.15,1.75c-.13,1.48-.41,2.9-.68,4.36l-.11.09s-.06-.12-.06-.16v-1.04s-.03-1.62-.03-1.62l-.02-2.62v-13.1Z"/>
  <polygon points="23.66 2.14 23.66 5.36 23.07 5.36 21.66 2.67 21.64 5.36 21.23 5.36 21.23 2.13 21.81 2.12 22.34 3.13 23.04 4.47 23.24 4.75 23.24 2.13 23.66 2.14"/>
  <path d="M30.71,5.07c.4.09.78,0,1.13-.17l.02.37c-.8.31-1.72.23-2.03-.49-.17-.41-.15-.91.05-1.29s.56-.57.98-.58c.46-.02.87.22,1.01.69.06.2.08.45.09.7h-1.81c-.01.36.17.69.55.77ZM31.56,3.96c0-.48-.31-.72-.69-.71-.41,0-.69.31-.7.72h1.39Z"/>
  <path d="M26.4,4.66c-.13.52-.55.77-1.03.78-.53,0-.96-.31-1.07-.84-.05-.26-.05-.59,0-.85.11-.53.55-.85,1.07-.84.49,0,.89.27,1.02.75.08.29.09.68,0,1ZM25.95,4.71c.14-.36.13-.77-.01-1.1-.1-.24-.37-.37-.6-.37s-.47.16-.57.4c-.13.34-.13.72,0,1.06.1.25.34.4.57.4s.5-.13.61-.4Z"/>
  <path d="M28.58,3.41c-.19-.21-.5-.19-.71-.1-.17.07-.37.34-.37.58v1.48s-.4,0-.4,0v-2.39s.38,0,.38,0l.04.3c.34-.41.94-.53,1.36-.13.13.13.23.47.23.66v1.56s-.4,0-.4,0v-1.49c0-.11-.06-.38-.14-.47Z"/>
</svg>