<?xml version="1.0" encoding="UTF-8"?>
<svg id="Layer_1" xmlns="http://www.w3.org/2000/svg" version="1.1" viewBox="0 0 1037.11 1011.63">
  <!-- Generator: Adobe Illustrator 30.3.0, SVG Export Plug-In . SVG Version: 2.1.3 Build 182)  -->
  <path d="M627.86,42.91c-.21,1.07-.01,1.2.44.29,1.23-2.48,3.75,1.09,3.75-1.67,0-2.38-3.69-1.16-4.19,1.38Z"/>
  <path d="M176.87,965.38c-1.96,0-4.31,5.35-1.61,4.44,2.4-.8,3.72-4.44,1.61-4.44Z"/>
  <path d="M63.49,81.66c-1.28-2.08-5.76-2.17-2.41,0,3.08,1.99,3.64,1.99,2.41,0Z"/>
  <path d="M1017.77,909.24c1.32-2.13-2.41-2.14-2.41,0,0,1.8.92,2.41,2.41,0Z"/>
  <path d="M630.58,969.3c2.01-1.24.13-4.28-1.88-3.04-2.01,1.24-.13,4.28,1.88,3.04Z"/>
  <path d="M1034.19,366.05c-.82-1.11-.79-3.12.08-4.81,1.86-3.61.8-6.92-2.21-6.92-2.65,0-3.01-3.43-.63-5.82s1.9-11.82,3.52-11.82c1.44,0-.1-5.16-2.33-3.78-2.68,1.65,2.17-2.75.35-9.1-2.09-7.31,3.62-6.64-1.17-19.2-.74-1.95-3.31-20.24-.24-18.33,4.36,2.7-4.17-4.34.57-7.7.94-.67.3-1.19-1.47-1.2-2.33-.02-2.67-.49-1.31-1.84,3.22-3.22-4.71-9.41-1.36-9.41,2.32,0,2.29-6.41.26-6.41-2.56,0,5.66-12.87,2.86-14.6-2.4-1.48.01-15.87-1.62-15.87-1.71,0,.36-9.24-3.45-12.03-1.45-1.06-2.34-2.22-1.98-2.57,1.22-1.22,1.9-21.47.86-25.49-1.67-6.46,2.81-11.44-.4-10.81-3.62.71-.19-25.05-4.17-29.85-3.48-4.2.33-12.8-1.38-14.52-2.81-2.81-1.43-25.06-4.92-28.55-2.68-2.68-1.23-9.83-3.49-14.05-2.17-4.05-3.17-19.8-4.86-20.9-2.22-1.45-8.28-14.29-7.41-15.69,1.04-1.69-9.6-5.72-11.69-4.43-2.75,1.7-2.62-4.22-5.28-.5-3.96,5.54,5.37-5.99-9.29-8.96-6.43-1.3-9.26-2.1-12.01-2.83,6.48,5.35,7.18,5.44.8,4.22-3.09-.59-6.18-2.04-6.86-3.22-.69-1.18-2.17-1.79-3.3-1.36-3.06,1.17-10.37-7.33-13.4-7.34-2.77,0-4.1,2.84-1.72,3.66,7.27,2.49-30.16-9.63-28.67-7.23,1.44,2.32-1.67,4.1-2.93,2.06-1.4-2.27-4.56,1.25-8.15-2.35-1.41-1.41-3.81-2.56-5.34-2.56-4.56,0-11.4-3.84-11.44-6.42-.05-3.5-.61.76-6.4,1.96-7.01,1.46-9.62,4.18-9.62.74,0-7.46-33.15-5.71-35.59-9.56-.96-1.51-1.25-1.48-1.27.14-.02,1.21-.83,1.6-1.93.92-2.83-1.75-20.62-2.24-26.3-.73-4.05,1.08-5.31.75-6.91-1.82-2.66-4.27-2.81-1.17-18.42-.35-10.59.55-16.44-.91-19.01-4.77-.81-1.22-1.19-1.15-1.2.24-.03,2.72-8.99,2.57-11.57-.19-1.73-1.85-2.33-1.81-3.85.27-1.8,2.47-13.3,5.32-14.63.26-.93-3.56-3.05-4.16-4.07-1.15-.52,1.55-1.3,1.49-3.43-.27-6.22-5.13,2.15,8-6.38,4.76-5.99-2.28-8.46,4.55-6.48-.64,1.45-3.81-2.16-6.17-6.17-4.03-2.09,1.12-3.7,1.02-5.3-.31-3.2-2.65-.45.11-6.41,4.01-8.41,5.51.79-3.53-6.72-2.74-2,.21-3.62-.5-3.63-1.6-.02-1.35-.49-1.25-1.48.32-1.11,1.76-1.98,1.87-3.67.47-2.68-2.23-9.33-.79-8.33,1.8,1.33,3.45-16.43-1.07-19.94,3.16-1.83,2.21-8.27,1.97-8.27-.29,0-1.89-12.64-1.03-14.67.99-2.59,2.58-5.33,2.55-7.53-.09-2.45-2.95-34.22-2.3-39.18.8-2.49,1.56-5.77,1.91-10.79,1.15-11.18-1.69-41.95-1.44-45.32.37-1.95,1.04-4.56,1.08-7.37.1-5.22-1.82-24.52.72-26.27,3.45-.86,1.33-1.19,1.29-1.2-.17-.03-2.4-7.05-2.65-11.26-.39-1.77.95-3.37,1.01-3.91.15-1.18-1.9-6.7-.42-9.07,2.44-1.56,1.88-2.34,1.69-4.87-1.23-2.73-3.14-3.59-3.29-9.2-1.61-8.74,2.62-15.92,1.2-21.7,3.4-2.23.85-4.42.96-4.86.25-1.14-1.85-10.59-1.87-14.03-.03-8.42,4.51-57.06.75-62.34,5.53-1.42,1.29-3.13,1.8-3.79,1.14-2.08-2.08-8.83-1.46-9.73.89-1.65,4.29-16.31-5.09-20.81-1.36-2.66,2.21-10.31,3.26-11.36,1.56-1.6-2.58-8.38,4.49-13.37,1.81-1.64-.88-3.26-1.31-3.61-.97-1.36,1.36-14.38,1.92-15.16.65-.9-1.45-8.6-1.02-11.26.62-.89.55-4.47.96-7.96.91-10.57-.15-16.71,6.07-21.48,3.52-3.83-2.05-1.86.24-13.17.78-11.18.54-7.56,3.56-15.02,2.69-5.72-.67-15.17,2.21-15.17,4.63,0,.73-2.17.57-4.81-.35-7.95-2.77-13.62,2.85-15.3.14-.57-.92-2-.94-3.67-.05-5.24,2.8-26.48-2.25-34.04,1.79-4.43,2.37-19.18,2.02-18.58-.44.64-2.61.17.4-4.03.4-2.09,0-2.77-.68-2-2,.65-1.1-.27-.74-2.04.8-4.57,4-12.78,1.9-13.85,4.81-1.53,4.18-1.93-3.66-8.56.68-2.08,1.36-3.37,3.14-2.87,3.94,1.37,2.22-.98,11.17-2.67,10.13-2.99-1.84.78-13.91-7.25-8-5.9,4.34,2.61,1.52,2.55,7.05-.02,2.29-.23,2.32-1.58.23-1.13-1.75-1.56-1.83-1.58-.31-.02,1.25-.84,1.61-2.03.9-2.94-1.77,1.76,4.22,4.46,4.22,2.52,0,2.01,5.19-.59,6.06-2.47.82-2.32,4.03-.4,2.85.8-.5,1.83,0,2.28,1.11.49,1.21.86.9.94-.79.15-3.38,2.64-3.71,3.87-.52,1.63,4.24,10.24.93,9.42,6.53-.9,6.17,3.19-5.24,10.8-.49,2.35,1.47,3.79,1.34,6.75-.58,8.86-5.75,60.23-2.48,61.63-4.75,1.3-2.11,6.71-1.69,7.64.6.61,1.51,1.23,1.41,2.52-.4.93-1.32,1.71-1.78,1.73-1.01.01.77,1.1.51,2.41-.58,2.84-2.35,7.95-.87,6.29,1.82-.72,1.17-.45,1.43.73.7,2.76-1.71-1.07-4.15,2.44-4.15,1.32,0,2.81.65,3.3,1.45.99,1.61,8.88-1.49,8.9-3.49,0-.68,1.66-.82,3.67-.32,5.92,1.49,17.19-3.15,17.19-.49,0,1.01.84.93,2.2-.2,3.1-2.57,7.42.93,7.42-1.6,0-2.31,4.81-2.3,4.81-.24s12.14-3.29,13.49-1.95c.52.52.95.07.95-1,0-3.55,36-1.55,36.9-.99.75.47,1.85.07,2.43-.88.62-1.01,3.03-1.29,5.83-.68,8.94,1.96,8.53-6.48,13.25-2.56,3.44,2.86,17.04.09,30.04-.5,2.34-.11,3.92-.74,3.51-1.4-1.14-1.85,2.34-1.42,5.75.7,4.62,2.89,8.08-2.29,7.21-3.69-2.43-3.92,7.26,1.03,4.51,4.29-1.42,1.68,1.82-2.94,12.43-2.65,9.12.26,28.5,1.81,25.1-7.05-.59-1.54,0-2.43,1.62-2.43,2.02,0,2.35,1.1,1.56,5.21-1.24,6.49-1.05,1.9,9.85,1.37,12.28-.6,16.45-3.48,21.15-2.26,6.41,1.68,8.75-5.81,12.59-1.7,3.17,3.4,25.37.04,27.94-1.28,5.23-2.68,5.01,3.65,14.02.51,7.72-2.69,7.66,1.46,10.67-2.66,1.5-2.06,2.7-2.42,4.16-1.27,3.67,2.89,9.99,3.52,13.91,1.39,7.92-4.31,11.53,3.96,17.77-1.69,2.31-2.09,3.76-2.42,5.23-1.21,2.51,2.08,47.74,3.36,47.74.27,0-.96.88-1.16,2.01-.46,3.81,2.36,29.74.85,34.06-1.99,3.69-2.42,4.03-2.42,4.03-.05,0,3.94,11.23,2.7,11.23,1.14,0-3.81,18.76,3.77,26.06.69,1.87-.79,2.82-.47,2.83.99.02,1.74.29,1.76,1.33.11,1.72-2.72,9.68-4.1,12.09-2.1,1.04.87,2.77,1.03,3.83.38,2.68-1.65,17.93,1.61,27.19-.58,11.72-2.78,17.88,3.5,24.07-1.58,2.77-2.27,4.4.87,14.6.64,5.36-.12,6.76.36,6.1,2.09-.5,1.32-.06,1.96,1.06,1.55,2.76-1.01,19.45-1.78,25.08-3.02,8.41-1.85,10.05,6.14,17.31,1.38,6.47-4.24,1.38.77,18.38,1.67,13.86.74,14.49,3.21,18.47,1.09,5.84-3.12,6.1,5.01,16.19,3.37,3.11-.5,5.91-.15,6.51.83,2.01,3.25,9.23,3.96,12.01,1.18,2.82-2.82,6.57-1.77,5.32,1.49-.42,1.09.08,2.07,1.09,2.18,11.34,1.27,17.09,2.64,17.09,4.06,0,1.1.69,1.03,1.92-.21,2.66-2.66,11.5-2.59,9.89.08-.83,1.38-.36,1.32,1.49-.18,5.77-4.68.63,4.32,8.74,1.23,4.31-1.64,7.62.03,7.62,3.84,0,2.57,6.84,3.43,9.54,1.19,3.91-3.24,5.27,4.09,9.32,2.73,1.1-.37,2.71.25,3.59,1.37,1.75,2.23,11.87,3.53,14.55,1.88,2.35-1.45,6.32-.66,9.35,1.85,5.04,4.19,8.01-6.25,7.28,2.94-.05.66,1.57,1.6,3.61,2.07,10.89,2.56,6.39,27.59,11.02,24.73,1.9-1.17-1.4.8,2.76,14.05,4.5,14.31,5.37,20.31,3.49,23.83-.91,1.69-.99,3.08-.2,3.08,3.26,0,3.72,23.81,5.6,26.82,1.75,2.81.17,12.85,1.86,16.88,1.68,4.01-2.29-.26-1.31,11.23.32,3.7,12.29,60.8,5.58,56.68-1.89-1.16-1,12.63,1.04,16.26,2.06,3.66,1.02,12.28-1.3,10.84-2.2-1.36.66,9.01.1,10.44-.17.44-.57,2.25-.89,4.01-.54,2.97-.43,3,1.48.43,3.88-5.23,4.75,1.21,1.35,10-1.38,3.58-1.38,11.23,0,11.23,1.59,0,1.59,3.27,0,3.02-6.93-1.1,1.3,5.37-2.07,7.45-2.34,1.44-1.41,17.13,1.17,19.72,1.75,1.76,2.13,1.76,2.23,0,.17-2.82,2.26.64-.03,4.91-2.72,5.09,2.27,4.06.64,6.71-.51.82-.13,1.49.83,1.49,1.24,0,1.27.91.09,3.1-2.41,4.51-1.1,10.27-3.05,9.06-2.2-1.36.08,19.46-2.89,20.6-2.54.97-.5,7.51,1.09,6.52,4.65-2.87.34,12.32.1,7.31-.09-1.81-.54-1.9-2.04-.4-1.5,1.5-1.5,2.35,0,3.85,2.79,2.79,1.28,9.3,3.27,9.3,2.24,0,1.94,11.67-.4,15.24-2.36,3.6-2.23,9.83.32,14.64,2.34,4.42-1.47,17.93.59,19.2,2.71,1.68,1.47,9.87-1.62,10.68-3.22.84-5.58,8.69-3.07,10.24,3.17,1.96-3.89,14.22.71,25.99,2.29,5.86,1.01,10.11-3.9,12.97-1.53.89-1.91,1.65-.83,1.67,2.63.07.56,5.12-1.32,3.95-1.89-1.17-1.99,2.51.17,2.51,2.33,0,.8,7.34,3.38,8.93,1.24.77,1.12,1.5-.39,2.43-1.65,1.02-1.72,1.78-.29,3.21,4.55,4.55-8.41,13.74-2.26,18.24,8.68,6.35-6.04,19.55-1.03,16.46,2.49-1.53,4.21,5.61,1.85,7.07-2.75,1.7-.43,19.74-2.38,18.54-2.65-1.63-1.57,27.83-4.54,32.65-.81,1.32-.6,1.63.6.88,1.8-1.11,2.67,2.58,2.12,9.07-.33,3.94,2.94,1.8,2.94,5.21,0,3.67-4,1.24-2.67,4.71,1.4,3.64-2.41-.56-3.08,12.76-.77,15.24-6.68,10.43-4.58,15.89,2.12,5.54,6.73-5.28,4.59,3.64-2.05,8.57-6.2,7.76-1.2,11.81,2.95,2.38,3.29,3.98,2.62,12.25-.42,5.23-1.06,9.8-1.42,10.16-1.46,1.46,4.53,4.42.7,5.59-8.04,2.45-7.89,2.24-7.6,11.22.22,6.55.82,8.51,2.44,7.89,1.18-.46,1.69-1.59,1.11-2.51-.62-1-.27-1.21.87-.5,1.99,1.23,2.03,13.75.05,13.75-1.32,0-3.87,5.02-.78,3.84,3.16-1.21,4.49,4.06,1.72,6.82-2.97,2.97-2.54,5.14-3.09,8.99-.75,5.31,4.77,9.86.02,13.33-2.58,1.89-2.56,2.08.34,3,5.06,1.61,2.7,18.24-.69,22.1-1.93,2.21-2.14,2.92-.59,2.03,1.98-1.14,2.06-.96.45,1.04-1.56,1.93-1.47,3.12.47,5.89,2.46,3.52,2.84,15.72.58,18.77-.66.88-1.56,3.95-2,6.82-1.34,8.56,3.72,2.99,3.72,7.62,0,1.32-.72,2.41-1.59,2.41-1.75,0-1.44,4.46.53,7.62,1.51,2.42-.16,5.64-2.26,4.34-.82-.51-1.49-.16-1.49.78,0,2.47,3.21.69,3.21,4.1s3.21.47,3.21,7.31-3.21,2.04-3.21,4.62c0,.93.61,1.7,1.35,1.7,1.8,0,1.42,25.66-.14,25.66-.66,0-1.2.7-1.2,1.55,0,2.58,3.86-1.74,4.32,3.64.7,8.12,2.39,11.16-2.32,13.23-4.81,2.11-3.63,7.13-2.55,4.43,1.02-2.53,4.95-2.98,2.15.4-2.49,3-9.62,3.36-9.62,0s-3.64-2.8-2.49-.93c2.24,3.62-19.88,2.75-21.83,5.56-.64.91-2.78.41-5.28-1.23-3.76-2.46-4.72-2.51-8.84-.46-3.52,1.76-4.43,1.82-3.83.25,1.21-3.14-24.81-1.97-24.03.07s-13.85,1.42-15.95-.67-7.56,3-14.86,3.01c-2.69,0-5.71.83-6.71,1.83-2,2-7.55.62-6.21-1.54,1.1-1.77-3.84-1.71-3.84-.25,0,1.98-19.72,1.81-20.95-.18-.75-1.22-1.55-.62-2.29,1.71-2.01,6.32-5.82.02-13.71,4.1-6.75,3.49-5.92-1.41-12.13.15-5.94,1.49-3.13-4.22-7.4-4.17-1.5.02-1.55.34-.19,1.21,1.39.88,1.29,1.97-.37,4.25-4,5.47-4.3-1.07-16.1.34-10.77,1.28-29.51,1.56-31.63,3.68-2.24,2.24-8.5-.96-15.16,1.36-7.17,2.5-7.28-2.17-13.37.98-7.62,3.95-4.54-3.67-11.63-1.41-18.37,5.85-11.34-3.03-21.54,1.91-9.5,4.6-8.01-4.67-14.23-1.47-4.61,2.38-7.41-1.34-6,3.02,1.39,4.28-.15-.91-6.26-1.41-6.78-.56-2-3.05-9.85-1.28-7.36,1.66-6.93-1.2-8.12,1.91-.95,2.46-9.68,2.18-11.26-.37-.45-.72-2.69.56-4.98,2.85-3.72,3.72-4.33,3.88-5.66,1.5-1.77-3.17-11.95-3.69-12.97-.66-.5,1.48-1.27,1.54-2.94.26-2.73-2.11-14.66-2.55-13.39-.5,1.13,1.83-2.51,2.38-2.51-1.1,0-3.74-2.82-.05-6.26-3.49-4.59-4.59-1.69,3.71-8.91,1.89-6.11-1.53-10.49,3.95-10.49.89,0-2.55-2.58.92-3.77-1.96-1.45-3.49-4.56,4.35-6.41,2.51-1.61-1.61-.03,2.16-3.23,2.16-3.36,0,.42-5.88-2.53-5.88-1.04,0-1.44.72-.9,1.6,1.48,2.4-.7,1.94-3.34-.7-2.95-2.95-4.28-.83-27.93-.14-23.99.71-23.49,3.06-24.75,1.02-1.13-1.83-5.86-.55-7.76,2.11-.81,1.13-1.8.77-2.89-1.09-1.75-2.97-12.72-4.1-12.72-1.31,0,1.88-8.41.46-9.71-1.63-1.07-1.72-14.37-1.03-17.51.91-1.11.68-2.51.44-3.11-.54-2.06-3.33-19.82,3.18-22.91.09-1.92-1.92-12.81-.6-14.34,1.73-.59.9-1.95.98-3.21.19-3.11-1.95-7.8.12-7.8-1.76,0-2.09-10.2-1.5-12.56.73-1.73,1.63-2.96,1.47-6.42-.88-6.29-4.26-27.76-2.25-28.68-1.33-.55.55-2.28-.16-3.84-1.58-2.57-2.32-3.32-2.34-7.74-.14-3.19,1.59-5.24,1.87-5.91.8-.65-1.05-1.52-.85-2.39.53-1.16,1.82-1.38,1.81-1.4-.04-.04-3.82-12.86.62-12.86-1.8,0-1.76-6.91.09-8.45,2.27-.83,1.18-1.93.83-3.38-1.06-2.14-2.8-5.98-3.89-5.62-1.6,1.17,7.42-3.89,4.1-2.6,2,1.15-1.86-3.33-4.4-1.75-1.85,1.39,2.25-5.15,2.51-8.58.34-1.5-.95-4.34-.63-8,.91-9.45,3.95-19.35-.94-19.35,2.37,0,1.32-.68,1.28-2.41-.15-2.01-1.67-2.41-1.44-2.41,1.41,0,3.94-2.44,4.5-4.39,1.01-.74-1.32-3.3-2.56-5.69-2.76-7.54-.62.35-3.04-13.17-2.55l8.02,2.28c-10.04,2.82-15.24,4.47-15.24,2.24,0-1-1.47-1-4.11.01-5.64,2.14-5.85,2.06-4.83-2.04,1.23-4.97-.15.91-2.67-.64-2.37-1.46.77,1.09-1.36,4.32-1.3,1.98-1.86,1.89-3.79-.62-2.54-3.33-8.91-2.36-8.91,1.36,0,2.95-6.42,1.98-6.42.6,0-1.55-11.98,5.01-14.26,5.01-2.64,0-3.93-3.48-1.78-4.81,1.19-.74-.03-1.16-3-1.04-7.03.29-4,2.92-7.02,2.53-8.91-1.16-2.94,3.21-6.32,3.51-4.05.36-6.17,1.18-10.3-1.22-2.18-1.27-3.94-1.41-4.94-.41-1.86,1.86-7.26.12-5.99-1.93,1.12-1.81-1.94-2.06-3.33.19-1.42,2.3-5.29-1.08-3.6.78,1.32,1.46-3.71,6.53-8.28,4.08-4.02-2.15-9.76-2.16-9.76-.02,0,3.37-4.84,3.35-9.58-.02-7.78-5.54-15.1-1.45-18.9-3.8-4.19-2.59-6.37,4.51-11.48-.11-3.91-3.53-3.67-1.47-10-4.46-7.51-3.55-1.8-11.57-6.77-14.81-4.89-3.18,4.15-4.32,1.02-14.5-1.17-3.79-1.14-5.91.08-7.13,1.24-1.24,1.13-1.73-.4-1.73-3.74,0,.72-10.14-2.07-15.12-2.34-4.18-2.23-25.12-4.05-26.48-1.69-1.26-.74-9.81-3.15-23.36-1.14-6.38-1.18-9.96-.12-10.62,1.03-.65.97-1.39-.18-2.1-2.59-1.6,1.06-7.93-1.79-11.35-1.09-1.31-1.5-2.38-.9-2.38s.42-1.18-.39-2.62c-3.15-5.62,3.37-10.37-2.1-17.31-4.46-5.68.2-2.83.2-11.11,0-7.05,4.73-9.92,2.17-8.49-2.26,1.26-4.94-3.79-1.4-5.77,3.11-1.74.34-.46.17-22.08-.22-27.73-6.38-17.97-2.42-27.53,1.62-3.9,1.66-5.26.19-5.75-2.29-.76-2.57-6.2-.39-7.55,2.15-1.33-.78-4.51.96-8.46,8.61-19.56-4.17-13.47,1.47-24.38,6.85-13.25-3.03-13.7.24-18.96,2.42-3.89.35-8.38,2.13-8.38,2.03,0-1.96-11.76.59-14.31,3.42-3.42-3.9-11.09.57-14.79,3.35-2.78-.32-6.62,3.16-11.93,1.34-2.05,1.97-4.51,1.38-5.46-1.82-2.94-1.48-16.68.51-20.37,2.31-4.29,2.46-11.19.28-12.54-2.27-1.4-1.99-6.79.4-7.78,4-1.66-6.32-4.79-2.29-7.27,1.6-.99,7.98-8.43,4.86-14.26-3.07-5.74,2.77-6.42,4.18-5.72,2.32,1.15-7.01-5.78-4.44-5.82,2.88-.05-.41-8.05,1.98-8.05,2.01,0,1.52-6.42-.4-6.42-2.23,0,1.19-6.02-1.94-6.73-1.6-.37-1.11-2.67,1.96-9.31,4.39-9.46,5.39-23.63,1.84-25.83-1.46-.9-1.37-1.87.38-4.02,2.02-2.48,2.01-2.67-.1-1.45-4.03,2.32,3.79-3.8,2.27-7.75-.63-1.65-.19-2.65,1.16-2.66,1.82-.02,1.82-.25-.02-1.41-3.69-2.34,1.85-3.19-.82-13.2-3.35-12.56,3.58-3.04,3.67-31.08,0-3.43.58-12.49-1.51-11.19-2.11,1.3-1.82-4.85-.57-3.61.54.54,1.83.17,2.89-.82,2.52-2.35,1.16-11.14-2.1-13.54-2.26-1.67-2.09-2.09,1.44-3.51,2.21-.89,3.03-1.66,1.83-1.71-3.1-.15-.54-4.99.41-10.77.84-5.04,4.87-2.03,3.18-15.22-1.75-13.65-.16-28.62-2.8-28.69-1-.03-.68-.93.69-2.01,3.12-2.43,3.43-13.98.38-13.98-2.66,0-2.73-4.33-.08-5.21,4.24-1.41.09-56,4.66-53.18,1.13.7,1.42.44.74-.66-2.47-3.99-2.58-13.36-.18-15.75,2.14-2.14,2.13-2.69-.12-4.93-1.39-1.39-1.93-2.96-1.2-3.49,1.61-1.18,1.79-30.64.18-30.64-2.84,0,.47-34.82-2.91-36.91-2.03-1.26-3.43-18.87-1.6-20,1.54-.96.31-12.41-1.54-14.26-2.23-2.23,2.47-9.02-.08-9.02-2.09,0-2.09-3.72.02-2.42,2.14,1.32.16-4.07-2.74-7.45-1.6-1.87-1.74-2.97-.48-3.75,3.12-1.93-2.45-3.05-1.19-9.63,1.04-5.43-3.05-3.22-.53-6.26,1.43-1.72,1.29-2.8-.61-4.7-3.55-3.55-3.27-6.92.35-4.12,5.8,4.49-2.8-2.92-2.8-6.32,0-2.5-2.71-2.41-3.83.13-.49,1.1-.73.59-.54-1.14.54-4.75-4.81-2.84-7.76-6.87-1.58-2.15-2.26-2.11-6.06.37-2.35,1.54-4.28,2.24-4.28,1.55,0-1.36-3.33.05.92,3.24,2.89,2.17,2.75,2.28-2.01,1.72-4.39-.52-5.32.02-6.67,3.9-1.1,3.17-1.02,5.1.29,6.52,1.42,1.54,1.39,1.75-.14.88-2.68-1.51-2.54,1.82-.32,2.56,2.23.75,1.96,3.74,3.95,8.39,2.02,4.72-5.59,13.83-2.02,10.88,3.83-3.18.66,5.58,4.53,12.71,4.65,8.56-1.94,21.95,1.04,20.12,2.24-1.39,1.09,25.89,3.4,28.2,1.01,1,.98,3.2-.07,6.21-1.83,5.24-.43,11.61,1.77,8.06,1.81-2.92-.18,15.58,1.35,18.06,1.79,2.87-.87,11.55,1.86,9.86,2.51-1.55,2.2-.3-1.9,7.45-3.58,6.76-3.59,6.96-.61,9.89,1.77,1.75,2.38,3.42,1.45,4.01-2.92,1.87-3.92,8.42-2,13.06,3.88,9.37-3.76,13.36-.76,31.26,1.38,8.22,1.4,11.01.15,21.15-.59,4.84-.37,8.72.54,9.28,2.94,1.82-5.21,9.99-1.99,15.14s-2.3,11.53.65,20.65c1.23,3.82,1.2,5.88-.11,7.46-1.36,1.63-1.34,2.35.06,2.81,2.74.91-.13,11.11-1.75,10.1-4-2.47-4.69,21.78-3.06,20.78.89-.55,2.18,9.52-1.31,8.18-3.59-1.38.22,6.66,1.52,8.28,2.65,3.32-3.83,8.95-1.82,14.38,1.83,4.96.69,17.43-1.56,16.94-1.44-.32-1.47.39-.12,2.91,2.85,5.32-2.47,6.59-.56,8.49,1.59,1.59-2.55-.54-1.48,5.06,1.08,5.67,3.6,3.12,3.6,5.71,0,.93-.62,1.31-1.39.84-2.02-1.25.33,12.42-1.67,11.19-1.4-.86-1.5.14-1.78,17.95-.23,14.28-3.18,9.61-3.18,8.15,0-2.28-2.5-1.2-.14,3.21,3.38,6.32-3.45-.07-.34,10.8,2.7,9.44-.3,24.29,2.33,27.46,3.17,3.82-3.28,9.73-1.05,13.33.61.99-.15,3.2-1.7,4.91-2.12,2.35-2.87,6.16-3.03,15.54-.33,18.63,3.97,14.37.56,20.76-1.76,3.3-1.81,4.36-.24,4.89,2.86.96,2.49,5.22-.46,5.22-4.84,0,2.73,3.93-.82,10.57-1.58,2.96-1.6,4.25-.05,6.11,2.15,2.59-.15,8.98-3.23,8.98-2.42,0,1.23,2.37-1.43,5.58-3.31,3.99,2.53,6.33-.02,10.45-.87,1.41-.56,2.85.86,3.92,1.75,1.33,1.9,3.16.69,8.46-2.36,10.32.64,12.46-2.87,17.83-4.38,6.71,2.4.22-.44,15.55-1.26,6.8-1.26,9.64-.02,10.06,1.1.37,1.22,1.57.33,3.26-6.75,12.86-2.32,53.24.79,58.26.53.86-.23,2.87-1.68,4.47-5.14,5.67,4.73,5.68.77,10.45-4.03,4.86,1.2,69.31,2.96,73.63,3.42,8.41.51,33.21,4.55,38.2,3.15,3.88,1.77,26.65,5.13,30.87,1.57,1.97,1.15,14.81-.61,18.94-2.48,5.82,6.64-.72,1.81,6.65-2.89,4.41-2.02,14.6,1.61,18.8,1.23,1.42,2.53,4.08,2.88,5.9.68,3.51,6.31,9.96,8.7,9.96,2.97,0-.35,4.73,9.24,9.17,8.31,3.84,8.52,6.51,8.56,4.81.06-3.16,6.2,5.43,14.99,2.18,2.05-.76,5.48-.38,8.64.94,2.89,1.21,5.25,1.74,5.25,1.18,0-2.84.54,5.26,22.21.13,7.97-1.89,4.13,4.67,12.87.15,7.59-3.92,6.9,1.41,5.12,2-5.46,1.82,9.21,4.72,3.26,2.37-1.34-.53.49-1.82,4.53-3.18,11.4-3.85,9.36,2.58,12.04-.1,1.92-1.92,5.11-.51,4.51-3.34-.65-3.08,6.36,1.13,5.18,3.03-1.25,2.02,2.46,2.07,2.46-.08s3.34-2.24,2.81.3c-.62,2.94,5.52,3.56,7.1.73,1.58-2.82,6.63-1.71,5.18,1.14-1.71,3.38,6.76-8.33,5.09-3.2-2.06,6.34,11.02-4.04,8.06.75-1.49,2.41,6.6,3.91,5.69-3.17-.07-.57,1.29-1.4,3.02-1.85,4.95-1.29,1.9,3.69,4.7,3.69.86,0,1.15-1.26.65-2.81-2.22-6.9,4.11,8.93,8.83-1.43,1.5-3.28,2.29-3.63,4.99-2.18,5.07,2.72,1.83-1.6,4.91-1.6,2.46,0-1.46,3.76,3.67,1.43,7.33-3.34,13.88,5.58,13.88.9,0-3.74,13.78-.3,12.16-1.92-1.09-1.09,3.24-5.22,5.46-5.22,1,0,1.37.72.82,1.6-1.65,2.67,5.19,1.8,8.01-1.02,1.96-1.96,3.08-2.16,4.44-.8,2.38,2.38,4.5,2.33,3.99-.09-.22-1.05.95-2.2,2.59-2.56,6.25-1.36-5.35,8.14,3.62,6.43,5.56-1.06,4.2-3.56,8.81-3.56,1.76,0,2.79.68,2.27,1.52-.52.84.53,1.24,2.32.89,10.55-2.03,2.32-7.23,6.38-7.23,1.03,0,1.42.72.88,1.61-.62,1,1.1,1.34,4.58.89,10.44-1.34,3.77,6,11.03,2.11,4.31-2.31,4.49-2.29,6.23.47,1.11,1.75,1.36,1.75,1.38.03.05-3.9,6.44,1.98,6.44-2.65s3.92,1.76,9.67-.07c2.32-.74,2.9-.38,2.24,1.35-1.38,3.6,7.16,2.08,6.14.44-.5-.82,1.11-.93,3.76-.26,6.7,1.69,11.95.4,17.53,2.52,5.63,2.14,1.75-1.55,9.17-.95,7.39.6,7.56-4.1,7.59-1.08.03,2.34,7.4,2.73,8.8.47.52-.84,2-1.13,3.29-.63,3.54,1.36-1.07,4.86,3.8,2.26,6.01-3.21,3.15,3.12,6.93,3.12,2.43,0-1.06-4.28,2.15-4.28,1.2,0,1.81.6,1.36,1.33s.3,1.34,1.68,1.34c4.01,0,.15,3.08,7.71,2.14,8.42-1.05,16.13-1.26,18.34-2.63,2.15-1.33,13.33-.93,13.33.47,0,.59,2.17.75,4.83.36,8.59-1.26,5.94,4.18,13.62,1.26,2.9-1.1,5.05-1.13,6.3-.09,2.12,1.76,15.09,1.43,18.14-.45,2.78-1.72,5.3,1.84,13.24,1.47,9.8-.46,8.61,4.3,14.57.13,4.71-3.3,6.46-3.38,5.25-.23-.67,1.74-.19,2.14,1.65,1.43,3.87-1.49,1.35,3.37,4.99,1.98,1.32-.51,2.41-.14,2.41.83,0,1.26.6,1.25,2.12-.01,1.92-1.59,8.51-1.37,10.23.35.38.38,2.63.14,4.99-.52,6.9-1.93,11.91,3.92,15.24,2.56,1.04-.43.63-.83-.91-.9-6.17-.28-2.33-2.57,4.41-2.63,9.79-.09,8.23,3,3.61,1.74-6.19-1.69,1.69,2.99,4.09,1.21,2.17-1.6,8.59-1.47,12.62.26,1.74.75,3.87-.04,6.07-2.24,4.43-4.43,7.74-2.17,3.77.84-2.69,2.04-2.59,2.2,1.41,2.25,2.37.03,4.77-.68,5.32-1.57,1.6-2.59,3.71,2.12,10.75-.34,3.71-1.29,4.38-2.25,3.52-5.03-1.05-3.38-1.01-3.39,2.3-.43,5.2,4.64,9.89-.07,9.89,3.37,0,3.77,6.26,4.01,8.83.34,2.12-3.03,2.95-3.2,7.32-1.55,6.78,2.56,9.49-.71,9.56,2.28.08,3.6,2.48-3.1,7.32-3.86,5.04-.78,6.45-4.03,7.89.51.76,2.38,1.83,3.01,3.72,2.18,4.46-1.96,21.75-3.48,24.4-2.14,3.43,1.72,5.92-2.06,9.74-.02,3.62,1.94,5.04,1.89,3.8-.11-.58-.93,1.23-1.7,4.32-1.83,19.99-.86,17.02-3.52,20.04-.51,4.59,4.59,10.13-4.88,13.92-.77,1.39,1.51,1.3,1.68-.39.72-1.43-.81-1.98-.57-1.57.69.82,2.45,1.87,1.71,5.48,1.71,1.53,0,2.06-.77,1.37-2-.89-1.58-.68-1.59.97-.06,3.57,3.3,5.14-4.54,7.41-2.26.71.71.23,1.96-1.07,2.78-4.8,3.04,4.86,1.25,4.86-2.64,0-2.3,1.93-2.98,3.63-1.27,1.41,1.41,17.74,1.89,19.62.58,2.7-1.87,10.1-2.73,12.23-1.42,2.94,1.82,8.23-3.21,14.63-2.5,6.56.73,1.99-2.91,9.62-2.21,9.86.91,15.2-2.73,27.23-.48,12.51,2.35.81-2.04,13.03-.95,9.56.85,4.92-.04,8.27-3.13,1.64-1.51,2.27-1.18,3.04,1.6.81,2.95,1.22,3.13,2.55,1.11,1.4-2.14,1.58-2.14,1.63,0s.22,2.14,1.61,0c.85-1.32,1.56-1.78,1.58-1.01.01.77,1.08.53,2.36-.54,3.28-2.72,5.68.83,5.68-1.42,0-2.41,6.1,1.25,8.07-1.92,2.43-3.92,11.61,2.59,14.83.6,2.32-1.43,4.31,4.65,4.34,1.58.03-2.31,10.01-2.33,11.5-.02.7,1.08,2.63.97,5.75-.32,16.89-7,30.59,4.83,28.66,1.71-.96-1.55,11.84-5.4,11.37-2.97-.4,2.07,11.71,2.62,11.71-.02,0-2.8,6.21-4.28,8.83-2.1,1.82,1.51,2.88.86,5.45-3.36,4.22-6.94,1.07-7.87,3.12-7.87,3.36,0,1,5.99,6.81.4,2.06-1.99,2.9-3.61,1.85-3.61-3.54,0-5.4-5.88-3.32-10.45,3.59-7.89-3.1-5.61.69-14.41,4.98-11.58.13-14.59-1.39-10.02-.83,2.48-2.99-6.52-.74-7.9,1.01-.62,1.14-.2.34,1.09-.86,1.4-.67,1.71.58.94,2.94-1.82-3.74-10.56-4.98-10.56-.72,0,.28-2.15,2.22-4.77,3.17-4.29,3.33-5.38,1.59-10.83-2.73-8.53-2.57-20.87-4.17-24.77-1.95-4.78,4.57-10.1-.01-8.34-3.22,1.24-3.11-2.61-.44-2.64,1.34-.02,1.2-.54-.4-1.58-6.35-4.1,9.97.39,5.02-2.96-3.19-2.15.23-3.58-2.8-10.87-1.15-2.76-1.64-5.46-1.09-6.01,1.44-1.44,1.51-10.64.08-10.64-2.11,0-1.29-4.34,1.2-6.41,2.81-2.33,3.17-8.22.65-10.74-3.43-3.43,3.66-6.68.09-10.98-3.39-4.08-1.87-29.83,1.89-32.16.78-.48.97-1.62.41-2.52-1.57-2.53-1.93-22.18-.39-21.24,2.7,1.67,1.28-2.45-1.45-4.21-2.62-1.68-2.61-1.74.14-.88,2.63.82,2.84.25,1.89-5.33-1.89-11.18,4.84-10.28,1.27-16.01-2.08-3.32-1.27-19.81,1.2-24.42.82-1.52,1.2-5.18.85-8.12-1.5-12.51,6.94-4.08,1.55-18.21-1.83-4.79-2.26-7.96-1.26-9.25,1.6-2.04,1.42-10.99-.27-13.72-1.58-2.55-2.49-16.44-1.03-15.54.74.46,3.04-.62,5.11-2.39,5.64-4.81-.9-.9-1.25-4.78-.32-3.57.03-5.71-2.99-3.21-3.91,3.25-2.58-3.21-.7-3.21,2.55,0-.29-6.58,2.87-7.66,1.62-.55,1.88.23,1.02,3.06-.78,2.58-.62,3.28.5,2.19,3.38-3.3,2.91-12.91-.71-14.3-4.98-1.91,5.15,7.87-1.33,1.95-2.32-2.12-2.57-3.22-1.13-4.96,2.76-3.33-1.45-4.34,2.32-4.34,7.56,0,.96-7.84.51-17-.47-9.46,5.59.5,5.36-7.27-.11-3.55-.2-3.59-1.49-.59-.76,1.76-1.49,2.85-1.61,2.41-2.99-10.2,6.35-4.93,4.23-10.46-2.03-5.28.11-11.22-2.78-7.18-3.16,4.43.9-4.17-1.59-5.71-1.75-1.08-1.96-10.33-.24-10.33,1.26,0,8.08-9.17,3.01-4.98-1.49,1.23-3.22,1.72-3.84,1.09-1.59-1.59,7.87-8.16,4.66-6.48-3.54,1.86,5-8.71,1.77-6.72-2.84,1.74-1.53-1.11-4.17-6.99-2.02-4.49,3.26-16.48-.18-19.7-2.48-2.32-1.25-7.55,1.79-7.55,3.22,0,3.49-5.18,5.54-3.91,2.18,1.34,1.72-3.17-.57-5.6-1.61-1.7-1.59-2.28.08-2.89,1.55-.57,1.37-1.29-.74-2.83-5.65-4.13,3.07-5.9-1.52-15.1-3.59-7.21,1.23-11.4,2.5-10.62,2.09,1.29-1.23-5.57,1.6-5.57,1.16,0,.85-1.06-.79-2.69-1.91-1.91-2.46-4.4-1.91-8.55,1.29-9.57-3.61-9.76-.17-14,1.82-2.24,1.78-2.43-.27-1.29-1.96,1.09-2.03.94-.4-.81,2.89-3.11,1.28-7.93,3.61-7.93,1.72,0,3.09-9.61-1.2-9.65-1.71-.02-2.13-.48-1.06-1.2,2.22-1.5,4.02-8.4,2.2-8.4s-1.39-12.7.73-12.32c2.03.37,2.38-3.92.53-6.42ZM1030.71,315.35c1.47-3.85,3.56-1.74.9.9-1.58,1.57-1.77,1.39-.9-.9ZM668,7.76c-4.35-.18.86-2.09,2.11-.84.53.53-.41.91-2.11.84ZM819.7,14.3c-3.96-2.56,2.87-1.84,4.01,0,1.26,2.03-.87,2.03-4.01,0ZM45.05,87.28c2.4,1.48,1.8,2.41,0,2.41-2.15,0-2.13-3.72,0-2.41ZM39.53,83.27c-.84,0-3.33-3.21-.99-3.21s1.83,3.21.99,3.21ZM197.61,970.62c-3.14,3.11-.03-4,1.1-2.88.49.49,0,1.79-1.1,2.88ZM557.34,998.93c-4.35-.18.86-2.09,2.11-.84.53.53-.41.91-2.11.84ZM984.08,744.02c-1.53-2.47-3.23,1.12-4.56-2.34-1.09-2.83,1.09-6.67,6.02,1.96,1.36,2.38,0,2.73-1.47.37ZM1018.27,627.48c2.81-1.12,5.09,1.14.97.97-1.87-.08-2.25-.46-.97-.97ZM1028.1,379.98c-2.33,0,.16-3.21.99-3.21s1.37,3.21-.99,3.21Z"/>
  <path d="M982.88,718.01c.43-5.64-2.71.82-1.79,2.31,1.21,1.96,1.5,1.59,1.79-2.31Z"/>
  <path d="M993.04,221.87c-.07,1.69.31,2.64.84,2.11,1.24-1.24-.66-6.46-.84-2.11Z"/>
  <path d="M17.23,527.96c1.07-2.64-.66-9.31-.74-2.84-.03,2.65.3,3.92.74,2.84Z"/>
  <path d="M31.79,73.44c-1.57,1.59-1.39,1.77.9.9,3.85-1.47,1.74-3.56-.9-.9Z"/>
  <path d="M46.6,71.64c-2.4,5.96-9.27,2.33-4.9,5.09,6.39,4.04,8.2-13.29,4.9-5.09Z"/>
  <path d="M983.02,44.35c-.29-.38.46-1.88,1.66-3.34,5.39-6.49-5.54.95-3.66,4,1.29,2.09,2.68.23,1.99-.66Z"/>
  <path d="M1036.2,361.54c-2.84,1.76-1.46,6.95.63,1.51.55-1.43.28-2.07-.63-1.51Z"/>
  <path d="M207.03,1000.57c0,2.29,3.21,1.83,3.21.99s-3.21-3.32-3.21-.99Z"/>
  <path d="M1020.18,971.79c1.81,0,2.4-.92,0-2.41-2.13-1.32-2.14,2.41,0,2.41Z"/>
</svg>