<?xml version="1.0" encoding="UTF-8"?>
<svg xmlns="http://www.w3.org/2000/svg" viewBox="0 0 100 100">
  <g transform="translate(50 50) scale(0.68660) translate(-65.9582 -42.5706)">
  <path d="M91.84,68.37l1.88.5s-.2.53-.28.68l-2.01,3.55s-.45-.03-.49-.1l-2.26-3.95c-.06-.26-.08-.27-.04-.27l2.1-.02c.49,0,.6-2,2.5-3.1,2-1.16,4.34-.68,5.75,1.03,1.53,1.85,1.38,4.43-.44,6.2-.54.52-1.89,1.1-2.55,1.1h-.8s.79-.57.79-.57c.53-.39,1.36-1.15,1.76-1.82.59-1,.35-2.59-.3-3.48-1.12-1.53-3.47-1.59-5.6.25Z"/>
  <path d="M20.09,45.15c.78.78-2.81,1.02-5.26-2.39l-2.14,2.1c-.28.27-1.33.74-1.5.83-.44.08-.7.13-.7.13l.67-1.03c1.24-1.92,2.78-5.16,3.55-7.27.08-.23.63-.41.81-.35l2.8,1.03c.83.3-1.97.42-2.03.63l-.53,1.99,3.36,3.36.97.97Z"/>
  <path d="M20.09,55.79c.78.78-2.81,1.02-5.26-2.39l-2.14,2.1c-.28.27-1.33.74-1.5.83-.44.08-.7.13-.7.13l.67-1.03c1.24-1.92,2.78-5.16,3.55-7.27.08-.23.63-.41.81-.35l2.8,1.03c.83.3-1.97.42-2.03.63l-.53,1.99,3.36,3.36.97.97Z"/>
  <path d="M60.72,46.11l-1.79,1.13c-.98.62-1.72-1.9-2.15-1.01-.31.65-1.75,1.55-2.45,1.41-.11-.02-.69-.37-.9-.48l.61-.65.94.68c.37.27,1.27-1.62.63-1.8l-1.3-.35c.86-.48,1.04-.62,1.08-1.58,0-.2-.68.05-1.3.31.04.31.04.28-.05-.38.51-.33,1.72-.59,2.21-.33.25.13-.25,1.17-.09,1.39l.7.98.6-1.73c.09-.26.84-.95,1.12-.91.47.06,1.22.49,1.7.85.07.9.44.8.54.05l1.33-.89c.25-.17,1.37.32,1.43.62l.33,1.79c.16.84-.95,2.23-1.4,2.05l-1.54-.62c-.39-.83-.65-1.39-.25-.52ZM59.35,46.3l.03-2.48-1.14-.75v3.86s1.11-.64,1.11-.64ZM62.81,46.57l.1-3.03c0-.17-1.08-.15-1.08.02l-.08,2.7c0,.17,1.06.48,1.07.31Z"/>
  <path d="M106.57,43.84c-.63.18-1.17.29-1.81.08.16-.31.49-.91.5-1.11l.13-2.35c0-.15-.44-.43-.78-.66.76-.19,1.62-.05,1.7.14l.94,2.15c.32.21.68.44.34.22l1.24-2.32c.08-.15.6-.26.87-.33.41.14.86.28.54.18-.23.44-.51.93-.51,1.08l.02,2.68c.15.04,1.15.13,1.14-.07l-.07-1.4c0-.08-.14-.59-.07-.59l.87-.03,1.41-.07,1.87-.1c.38-.02.5,1.1.44,1.83-.03.4,1.11.34,1.08.01l-.19-2.13.88.27.17,2.43c.25-.11,1.01-.63.95-.85l-.38-1.57.89.05c.16,0,.81.47.93.37l.86-.7c.31.34.95.76,1.31.64l1.36-.49c.15-.05.94.2.95.36l.05.82-1.69.15c-.23.02.16,1.1.39,1.06l1.26-.21c.08-.01.07.25,0,.3-.14.12-.85.53-.99.47l-1.34-.52-.19.24-.87.34-.89-.62-.51.32h-.51s-1.9.07-1.9.07l-.84-.14-1.21.15-5.56.05c-.35,0-1,.01-.93,0l.39-2.14-.99,1.45-.39.58c-.13.18-.56-.4-.53-.44-.1.15-.21.35-.34.38ZM106.87,43.28l-.59-1.4c-.34-.17-.54-.27-.42-.21l-.13,1.6c-.01.17.64.47.62.41l.52-.4ZM114.59,43.14l-.26-1.31-.67-.04.15,1.87c.01.19.82-.31.78-.52ZM112.29,44.1l.24-2.3-.67,1.01c-.12.19,0,.5.42,1.29ZM119.95,43.28l-.24-1.58c-.33.29-.9.87-.81,1.07l.57,1.02.48-.51ZM121.72,43.42l-.2-1.04c-.03-.17-.6-.48-.62-.31l-.16,1.2c-.03.19.73.45.71.4l.28-.25Z"/>
  <path d="M93.94,40.18c-.79.77-2.06.76-2.84-.03s-.78-2.05,0-2.83,2.04-.8,2.84-.03.82,2.03.06,2.83l.67.65,2.54-2.16,1.65-1.47c.96-.86.17,2.22-1.51,4-1.35,1.43-3.07,2.74-4.96,2.92l-2.49.24c-.1,0-.57-.38-.69-.51.14-.05.99-.35,1.25-.51l3.92-2.33-.44-.77ZM92.18,37.86c-.31-.42-1.53.61-1.31,1.16.14.37.99.74,1.4.64.29-.07.18-1.44-.09-1.8Z"/>
  <path d="M90.19,58.04c-.22.02-1.11-.37-.98-.35,3.61-1.85,6.71-3.96,9.59-6.74.26-.17.57-.36.53-.34-.59,3.85-3.5,6.37-7.02,7.19l-2.12.23Z"/>
  <path d="M17.7,27.41l-1.54.25c-.37,2.87-1.82,4.98-4.04,6.44l-1.43.63.21-.56c1.34-2.22,2.9-5.35,3.85-7.8.06-.15.45-.46.54-.43l2.26.87.86.33c.14.05-.55.23-.71.26Z"/>
  <path d="M106.97,57.28c-.11.11-.59.24-.75.23l-1.49-.13.66-.74-.1-2.64c0-.16-.44-.59-.58-.75h1.11s1.54-.03,1.54-.03c.27,0,.87.6.97.86.24.59-.95,1.34-.84,1.49l1.08,1.58c.55.81.41-2.3,1.17-2.29l1.48.02c.14,0,.68.2.81.17l1.47-.37.06,2.03c0,.22.8.49.83.29.04-.24.15-.93.12-1.09l-.22-1.1.98-.08.14,2.6c.29-.08,1.1-.65,1.01-.9l-.48-1.24,1.8-.53c1.1-.32.99,1.25,1.68.86l1.51-.85c.21-.12.67-.45.67-.64,0-.17-.14-.92,0-.88.26.08.82.25.82.41v3.1c-.01.13.25.63.32.77h-1.07s-1.98,0-1.98,0h-2.45s-3.81.01-3.81.01c-.14,0-.65-.39-.66-.52l-.17-2.14-.6,1.05c-.08.14-.07,1.02-.17,1.15-.39.51-1.82.5-2.4.23l-.96.32c-.27.09-.91-.4-1.21-.58l-.27.34ZM107.01,54.65l-.56-1.1c-.08-.15-.2.48-.32,1.1-.09.49,1.07.39.88,0ZM118.17,56.61l-.26-1.31-.66-.04.14,1.88c.01.17.82-.35.78-.52ZM121.11,57.23l.23-1.98-.69.07c-.07.22-.29.88-.18,1.02l.64.89ZM107.27,56.78l-.79-1.24c-.1-.15-.49.68-.39.83.14.21.56.83.55.82l.63-.41ZM110.99,55.95c-.02-.29-.87-.31-.89-.03-.07.87.95.82.89.03Z"/>
  <path d="M25.75,42.07c-.82.96-2.01,1.69-2.73,1.63-.11,0-.75-.4-.93-.5l.6-.65.93.67c.38.27,1.27-1.62.63-1.79l-1.3-.35.65-.38c.2-.12.36-.76.43-1.25.03-.2-.68.09-1.3.37.04.3.04.27-.06-.4.52-.33,1.72-.59,2.22-.33.25.13-.24,1.16-.09,1.39l.66.98.58-1.5c.11-.3.46-.79.71-.97.31-.23,1.44-.05,1.68.26.27.35.65,1.53.54,1.97l-.38,1.41c-.14.53-1.68,1.03-2.38.1-.13-.18-.64-.86-.48-.64ZM27.89,42.61l.09-3.03c0-.17-1.07-.16-1.08.02l-.09,2.71c0,.17,1.07.48,1.08.31Z"/>
  <path d="M20.31,78.89s-.5.17-.57.16l-1.31-.17c-.46-.06-1.5-.55-1.81-.86l-1.77-1.71-2.95,2.54c-.17.14-1.24.39-1.19.37l.31-.7c1.58-2.65,2.73-4.99,3.87-7.99-.05-.02.45-.1.64-.02l1.04.45,1.53.54c.12.04.14.2.22.42l-2.12.3c-.04.16-.56,1.73-.27,2.04l3.65,3.84.75.79Z"/>
  <path d="M9.21,75.35c-.02-.7-1.35-1.1-1.51-3.08.27-.64.33-.77.29-.69l1.78,1.03c.15.09.73-.23.86-.34l1.09-.87,1.08-.76c.96-.68-.51,3.61-2.95,6.74-.49.11-.6.14-.58.13l-.07-2.16Z"/>
  <path d="M28.17,72.29c1.09.88,1.15,3.14-.16,4.14-.61.47-2.16-.44-2.06-1.03.11-.67-.92,1.12-2.3,1.16-.36.01-1.31-.7-1.31-1.05v-1.27c0-1.09,1.61-2.19,2.87-2l-.66.39-.88.52c-.14.09.17.4.34.49l1.56.85c-.21.47.18-.41.3-.68l.67-1.46c.12-.25,1.42-.23,1.63-.05ZM27.89,75.89l.09-3.03c0-.18-1.09-.16-1.1.02l-.07,2.71c0,.17,1.07.48,1.08.31ZM23.98,76.2c.17-.2.69-.78.6-.93l-.75-1.3-.89,1.31,1.04.92Z"/>
  <path d="M27.56,54.39c-1.27.36-.87-1.52-2.71-1.19-.14.02.26.78.27.7.5.38.52.4.37.28l-1.41.15c-.41-.11-.64-.17-.6-.16.14-.25.39-.89.23-.91l-1.68-.2.69-.89,1.18-1.52.84-.73.22,2.75c.02.2.72-.14.78-.33l.66-2.01c.13-.4,1.57-.44,1.87-.15.37.36.85,1.6.72,2.09l-.38,1.45c-.05.2-.82.62-1.05.68ZM28.01,54.01l-.09-3.78-1.13.59v2.68s1.21.51,1.21.51Z"/>
  <path d="M26.84,65.45c-.93-.16-.48-1.91-1.49-.73s-2.25,1.48-3.01.78c-.05-.04-.13-.45-.22-.85l.81.34c.13.06.7.37.84.36.45-.02.83-1.33.56-1.69-.09-.12-.58-.48-.73-.48l-.89-.04c-.04-.76.48-1.53.4-1.5l1.8-.62c.19-.06.19.75,0,.78l-1.26.14c-.14.02-.48.52-.48.55l2,.64c.37.21.64.37.38.22l.89-1.9c.17-.37,1.52-.47,1.82-.18,1.02.97.92,3.09.01,3.91-.21.19-1.14.33-1.42.28ZM27.89,64.8l.09-3.03c0-.18-1.08-.16-1.08.01l-.09,2.71c0,.17,1.07.49,1.08.31Z"/>
  <path d="M19.12,66.47l1.09.95c0,.06.06.49-.13.48l-1.28-.06c-1.5-.07-2.9-1.41-3.94-2.76l-1.96,1.88-1.76,1.07c-.07.04-.47-.28-.42-.35l.76-1.03c1.84-2.51,3.2-7.6,3.69-7.4l1.46.61,1.66.47c.01-.12-.02.24-.05.5l-1.73.06c-.41.02-.82,2.1-.61,2.3l3.23,3.27Z"/>
  <path d="M13.67,60.26l-3.17,6.36s-.32-2.36.5-4.11,2.67-2.25,2.67-2.25Z"/>
  <path d="M16.88,17.67c-.25.08-.86.59-1.05.75l-.85,3.19c.52,0-.07,0-.33,0l-.81-1.27c-.28-2.41.94-4.76,1.21-4.66l2.41.91,1-.11c-.23.52-.33.79-.39.8l-1.19.38Z"/>
  <path d="M27.93,27.77c.21-.05.4.69.2.72l-1.45.18c-.17.02-.07.58.08.65l1.68.77c.16.07.13.99.08,1.17-.18.68-1.65,1.5-2.31,1.26-.33-.12-.89-.37-1.04-.37l-2.21-.09c.12-.16.51-.58.52-.74l.12-1.62c.06-.79-1.21-.85-.91-1.06l.91-.65c.17-.12.75-.02.76.19l.03,3.49c0,.41,1.03-.37,1.95.19.16.1.85.24.93.07l.46-1.02c.1-.22-.47-.94-.71-.96l-1.13-.1c.01.23-.03-.3-.02-.35l.39-1.1c.1-.28,1.22-.52,1.67-.62Z"/>
  <path d="M60.4,56.85l-.81,1.19c-.16.23-1.26.45-1.44.24l-1-1.15c-.15-.18-1.8,2.64-3.47,1.25-.05-.04-.13-.46-.22-.86l.81.34c.13.06.7.37.84.36.45-.02.83-1.33.56-1.69-.09-.12-.58-.47-.73-.48l-.89-.04c-.03-.77.49-1.52.4-1.49l1.81-.61c.18-.06.15.68-.05.73l-1.68.44c-.18.05.74.43.9.51l1.49.77.54-1.58c.09-.27.83-.93,1.11-.89.49.07,1.22.48,1.7.84.07.89.45.82.55.03l1.35-.86c.39-.24,1.62.66,1.63,1.13l.02,1.86c.01.99-1.65,1.81-2.09,1.35l-1.34-1.39ZM59.35,57.39l.03-2.48-1.14-.74.02,3.86,1.09-.64ZM62.81,57.66l.09-3.03c0-.17-1.06-.15-1.07.01l-.1,2.71c0,.17,1.07.48,1.07.31Z"/>
  <path d="M50.67,56.23l-5.48,2.19c.13-1.46.74-2.48,1.79-2.94,1.24-.54,2.49-.31,3.69.75Z"/>
  <path d="M52.06,46.69l-5.9.21c.62-1.33,1.53-2.08,2.68-2.16,1.35-.09,2.45.55,3.22,1.95Z"/>
  <path d="M52.06,34.72l-5.9.21c.62-1.33,1.53-2.08,2.68-2.16,1.35-.09,2.45.55,3.22,1.95Z"/>
  <path d="M42.07,41.14l.38,5.89c-1.35-.58-2.13-1.47-2.24-2.61-.13-1.35.48-2.47,1.86-3.27Z"/>
  <path d="M11.75,53.26l-2.02-4.38c1.34.1,2.28.58,2.7,1.42.5.99.29,2-.68,2.96Z"/>
  <path d="M37.11,53.95l6.03,5.79c-1.69.66-3.21.46-4.41-.63-1.42-1.28-1.99-3.03-1.62-5.16Z"/>
  <path d="M61.9,36.09c-.28-.04-.88-.76-1.36-1.32-.28-.39,0,.51-1.66,1.39-.39.21-1.46-.7-1.62-1.16-.19-.53-.6,1.17-1.1,1.15l-2.61-.12.57-.55,1.51-2.06c.15-.21-.35-1.46-.56-1.32l-1.11.78c.07.58.02.17-.05-.39l.96-.73c.3-.23,1.41.16,1.53.52.1.3.02,1.25-.17,1.5l-1.37,1.82c.4.01,1.09.03,1.28-.01,1.58-.4.61-3.23,2.03-3.77.81-.31,1.71.15,2.38,1.26-.23.37.04-.06.42-.69l1.15-.68c.26-.16,1.37.29,1.43.59l.34,1.75c.16.8-.6,2.22-2.01,2.03ZM59.42,35.12l-.1-2.24c0-.19-.39-.48-1.04-.9l-.04,3.87,1.18-.73ZM62.81,35.48l.1-3.03c0-.17-1.08-.15-1.08.02l-.08,2.71c0,.17,1.06.48,1.07.31Z"/>
  <path d="M28.12,21.64l-2.02.13c-.29-.58-.84-1.75-.67-2.24l.66-1.95c.57-.04,1.5-.12,1.77.11.39.34.72,1.53.82,2.03l-.55,1.91ZM27.61,21.52l-.09-3.78-1.13.59v2.68s1.21.51,1.21.51Z"/>
  <path d="M22.15,11.06h.74s.83.43.83.43c.25.13.84-.88.84-1.16,0-.24-.46-.97-.7-.99l-1.14-.1c.01.23-.04-.29-.02-.35l.41-1.1c.05-.14.55-.36.7-.38l1.23-.23c.2-.04.06.69-.14.72l-1.37.17c-.16.02-.08.59.07.65l1.68.76c.16.07.12.98.08,1.18-.16.68-1.72,1.45-2.41,1.32-.15-.03-.53-.54-.79-.93Z"/>
  <path d="M116.49,72.74c-.13.11-.52.2-.91.28-.29.06-.75-.6-.83-.93l-.35-1.34.98-.79,1.22.84,1.6-.65c.48-.2,1.47.88,1.47,1.41s-.96,1.59-1.46,1.42l-1.47-.51-.25.28ZM116.73,72.24l-.16-1.14-.94-.21-.11,1.44.77.24.44-.33ZM118.46,71.31c-.05-.23-.82-.12-.82.13,0,1.08,1.02.73.82-.13Z"/>
  <path d="M107.93,68.59l1.41.03c-.07.15-.35.67-.36.82l-.22,2.35c-.05.55-1,1.27-1.8,1.26-.5-.01-1.62-.7-1.63-1.16l-.09-2.46c0-.15-.43-.61-.51-.71l2.29-.04-.71.41c-.17.1-.3.89-.27,1.09l.25,1.86c.03.24.66.56.89.57.31.02.98-.48.98-.79l.03-2.04-.27-1.19Z"/>
  <path d="M110.56,73.36l.26,1.11-1.39.06c.12-.25.36-.67.36-.81l.03-1.63c0-.32-.18-.98-.31-1.51l1.48-.4c.37-.1,1.37.38,1.58.52l.19,1.4-2.2,1.27ZM111.3,72.57l.54-1.28c.14-.32-1.08-1.01-1.15-.66l-.23,1.23c-.04.22.75.92.84.72Z"/>
  <path d="M99.34,10.96c0,2.78-2.26,5.04-5.05,5.04s-5.05-2.26-5.05-5.04,2.26-5.04,5.05-5.04,5.05,2.26,5.05,5.04ZM97.25,10.95c0-2.12-1.72-3.83-3.84-3.83s-3.84,1.71-3.84,3.83,1.72,3.83,3.84,3.83,3.84-1.71,3.84-3.83Z"/>
  <path d="M99.34,27.59c0,2.78-2.26,5.04-5.05,5.04s-5.05-2.26-5.05-5.04,2.26-5.04,5.05-5.04,5.05,2.26,5.05,5.04ZM97.25,27.59c0-2.12-1.72-3.83-3.84-3.83s-3.84,1.71-3.84,3.83,1.72,3.83,3.84,3.83,3.84-1.71,3.84-3.83Z"/>
  <path d="M112.81,13.94l-2.59-.06c-.14,0-.6-.47-.5-.58l.7-.75-.47-.56-.61.68c-.18.21-.76,1.08-1.04,1.09l-3.57.14.61-.86v-1.9c0-.38-.34-1.13-.52-1.49-.2,0,.23-.01.57-.02l2.05-.08c1.17-.05,1.96,1.14,2.36,2.44.45-.44.84-.85,1.06-.85h1.24s.05,1.94.05,1.94c0,.17.39.54.65.85ZM108.54,12.97l-.17-2.55-1.09-.41-1.09-.05-.08,2.91.7.81,1.74-.71Z"/>
  <path d="M113.92,14.99c-.06.12-.95.43-1.15.46-.45.05,1.34-.81,1.08-1.47l-.6-1.53-.67-1.26h1.52s2.05,0,2.05,0c-.21.16-.62.39-.69.54l-1.54,3.27Z"/>
  <path d="M109.58,29.71l-1.05-.03-1.11-.03c-.18,0,.51-.25.65-.35.24-.18.32-1.4.03-1.41l-1.97-.13.13,1.48c.01.17.83.44.66.44h-1.12s-1.1.02-1.1.02c.18-.2.59-.59.59-.74l.07-1.95-.23-1.43c-.79.06-.19.01.25-.02l1.64-.06c-.1.06-.72.28-.73.45l-.17,1.48,1.97-.13c.31-.02.19-1.23-.06-1.38l-.74-.43,1.67.05c.31,0,.69.02.6.02-.15.23-.52.81-.52,1.04v1.99c0,.22.34.76.55,1.13Z"/>
  <path d="M117.12,27.56c-.04-.14.43-.45.58-.45h1.33c.07-.01.02.09-.09.15-.52.43-.99.85-.87,1.14l.56,1.25h-.54s-1.27.03-1.27.03l-2.66.05c-.22,0-.37-.89-.42-1.16l-.22-1.47c-.11-.02.92-.2.92,0l.02,1.52c0,.24.74,1.05.78.81l.29-1.59c.02-.12-.35-.58-.42-.68l1.16-.21.14,2.78c.54-.3,1.1-.69,1.03-.94l-.31-1.22Z"/>
  <path d="M113.02,28.38c0,.82-.66,1.48-1.48,1.48s-1.48-.66-1.48-1.48.66-1.48,1.48-1.48,1.48.66,1.48,1.48ZM112.26,28.09c-.12-.2-.91-.78-1.01-.69-.38.36-.37,1.62.11,1.95.27.18,1.07-.97.9-1.26Z"/>
  <path d="M22.9,21.81c.16-.19.6-.62.61-.78l.04-1.97c0-.21-.86-.62-.9-.61.06-.06.37-.37.47-.42l1.22-.67v.96s-.03,2.33-.03,2.33c0,.19.31.61.63,1.02.21-.08.16,0,.06.07l-2.09.06Z"/>
  <path d="M63.44,23.53c0,.28-.49,1.08-.71,1.26-.28.22-1.4.34-1.61.05l-1-1.4-.96,1.36c-.2.28-1.41.28-1.66.02-1.21-1.24-.77-3.65.29-4.08.75-.3,1.71.19,2.37,1.25-.24.39.02-.03.43-.7l1.19-.66c.42-.23,1.6.65,1.61,1.1l.04,1.8ZM59.02,24.03l-.09-2.26c0-.2-.39-.47-1.03-.89l-.04,3.87,1.17-.72ZM62.41,24.39l.1-3.03c0-.17-1.08-.15-1.08.02l-.09,2.7c0,.17,1.07.48,1.07.31Z"/>
  <path d="M54.25,24.98c.16-.19.6-.63.61-.79l.04-1.96c0-.21-.86-.62-.9-.61.05-.05.36-.37.47-.42l1.22-.67v.96s-.03,2.33-.03,2.33c0,.16.32.62.62,1.02.21-.08.16,0,.06.07l-2.09.06Z"/>
  <polygon points="111.54 39.69 112.22 40.43 110.85 40.43 111.54 39.69"/>
  <path d="M45.03,24.24s.64-2.26.72-2.37c.09-.12,2.47-1.08,2.97-1.29-.49-1.43-4.92-.78-4.92-.78l-.22,4.46-4.93.06s3.2,2.07,6.41,2.09c3.21.02,6.69-2.09,6.69-2.09l-6.71-.07Z"/>
  <path d="M45.03,35.57s.64-2.26.72-2.37c.09-.12,2.47-1.08,2.97-1.29-.49-1.43-4.92-.78-4.92-.78l-.22,4.46-4.93.06s3.2,2.07,6.41,2.09c3.21.02,6.69-2.09,6.69-2.09l-6.71-.07Z"/>
  <path d="M45.03,47.83s.64-2.26.72-2.37c.09-.12,2.47-1.08,2.97-1.29-.49-1.43-4.92-.78-4.92-.78l-.22,4.46-4.93.06s3.2,2.07,6.41,2.09c3.21.02,6.69-2.09,6.69-2.09l-6.71-.07Z"/>
  <path d="M43.93,59s-.16-3.03,1.17-4.61c.8-.95,4.67-1.2,5.24-1.1-.57-1.66-7.53-1.1-7.53-1.1l-.57,6.83-7.07.16s1.68,1.96,7.44,1.9c6.52-.07,7.77-1.9,7.77-1.9l-6.45-.18Z"/>
  </g>
</svg>
