<?xml version="1.0" encoding="UTF-8"?>
<svg xmlns="http://www.w3.org/2000/svg" viewBox="0 0 100 100">
  <g transform="translate(50 50) scale(1.31234) translate(-14.3888 -39.7900)">
  <path d="M13.5,32.15c.19.1.36.26.5.43l-1.33-.44-8.44-3.05c.5-1.86,1.92-3.66,3.33-4.84l2.57-2.15c2.39-2.19,4.19-4.58,5.94-7.32-1.82-1.12-3.52-2.27-5.11-3.66-.63-.55-1.34-1.07-1.75-1.81l16.05,9.27c-1.6-.15-2.9-.82-4.32-1.32-1.56-.68-3.04-1.43-4.57-2.29-1.39,3.37-3.38,6.21-6.03,8.68l-1.6,1.36c-1.14.97-2.13,2.07-2.9,3.4,2.18.95,4.27,1.88,6.33,3.01l1.33.73Z"/>
  <path d="M13.52,64.25c1.33,1.93,2.48,3.88,3.56,6.02-.29-.16-.49-.41-.69-.66l-3.69-4.64c-.98-1.24-2.05-2.31-3.1-3.48l-1.1-1.21c-1.53-1.7-2.65-3.95-2.47-6.26l.27-1.75,1.94-.07h5.12c.63.05,1.2,0,1.89.24l-4.78.59-3.2.37c-.37,3.02,1.39,5.07,3.31,7.21,1.06,1.18,2.02,2.35,2.93,3.66Z"/>
  <path d="M12.87,48.78c-.64.62-1.47.76-2.27.84-1.28.12-2.48-.19-3.59-.8-3.01-1.63-4.1-5.23-3.17-8.51.34-1.18.84-2.27,1.71-3.12l.79-.76c2.04-1.72,4.54-2.44,7.25-2.01v.2c-4.67.11-8.93,3.51-8.71,8.41.11,2.51,1.4,4.42,3.65,5.48,1.4.65,2.85.69,4.34.28Z"/>
  </g>
</svg>
