<?xml version="1.0" encoding="UTF-8"?>
<svg xmlns="http://www.w3.org/2000/svg" viewBox="0 0 100 100">
  <g transform="translate(50 50) scale(1.31492) translate(-13.8550 -40.4300)">
  <path d="M7.06,28.96c1.95.9,3.77,1.69,5.62,2.66.88.47,1.71.87,2.52,1.5l-3.96-1.37-5.81-2.11c.75-2.44,2.35-4.07,4.21-5.58l1.33-1.09c2.51-2.19,4.52-4.83,6.28-7.64-2.5-1.51-4.79-3.2-6.88-5.32h.33s15.72,9.13,15.72,9.13c-2.36-.33-4.37-1.38-6.43-2.3l-2.42-1.3c-1.31,3.02-2.81,5.38-5.09,7.76-1.12,1.17-2.51,2.14-3.68,3.34-.64.69-1.17,1.35-1.75,2.32Z"/>
  <path d="M20.26,40.22c.03,4.24.37,8.3.82,12.44l.43,3.98c-.11-.11-.22-.26-.27-.42-2.43-7.97-2.97-16.43-1.49-24.64l.63-3.01c.03-.13.12-.29.24-.44l-.03.64-.16,3.58-.18,5.88v1.98Z"/>
  <path d="M12.47,61.92c1.73,1.95,3.18,4.02,4.39,6.29l1.41,2.64c-.5-.39-.78-.8-1.14-1.25l-2.76-3.49-2.12-2.5-2.52-2.74c-.77-.84-1.4-1.8-1.86-2.84-.74-1.67-.8-3.43-.32-5.19l2.77-.09h3.75c.81,0,1.56.03,2.35.25l-4.44.57-3.48.4-.04,1.26c.23,2.38,1.58,3.98,3.1,5.69l.91,1.03Z"/>
  <path d="M12.81,48.22c-1.59,1.38-3.78,1.9-5.79,1.31l-.21-.1s.11-.17.09-.12c3.69.37,6.89-2.5,6.74-6.2-.18-4.37-3.76-6.98-7.69-7.97l.33-.11c4.46.17,8.51,3.27,8.69,7.86.08,2.04-.64,4-2.16,5.33Z"/>
  <path d="M11.84,44.55c-2.06,1.3-4.77,1.36-7.14,1.16-1.22-.23-2.34-.47-3.41-1.16l3.05-.08c-1.25-.77-2.03-1.93-1.97-3.48,1.27,1,2.48,2.2,3.49,3.42l.55.06.18-4.72,2.36.14,2.27.2c-.53.31-.98.56-1.51.66l-1.85.35c-.15,1.19-.45,2.26-.99,3.38h2.23s2.74.09,2.74.09Z"/>
  <path d="M8.24,43.92c.1-1.16.9-2.04,2.01-2.07.59-.02,1.13.21,1.61.61-1.26.58-2.33,1.02-3.61,1.46Z"/>
  </g>
</svg>
