<?xml version="1.0" encoding="UTF-8"?>
<svg xmlns="http://www.w3.org/2000/svg" viewBox="0 0 100 100">
  <g transform="translate(50 50) scale(1.31471) translate(-13.8450 -40.4050)">
  <path d="M15.16,33.12l-2-.71-7.67-2.77c.6-2.15,2.07-3.81,3.7-5.18l1.98-1.65c2.27-1.9,4.51-4.91,6.13-7.49-2.51-1.55-4.85-3.23-6.85-5.34.15,0,.35.03.46.1l15.34,8.88.06.23c-3.12-.8-5.93-2.1-8.7-3.69-1.62,4.01-4.21,7.33-7.51,9.97-1.06.85-2.3,2.25-3,3.49l1.28.57c2.28,1,4.46,2.1,6.63,3.33l.15.27Z"/>
  <path d="M12.63,62.06c2.12,2.4,4.18,5.79,5.67,8.77-.43-.29-.69-.66-.99-1.05l-2.95-3.74c-1.01-1.28-2.08-2.43-3.17-3.63l-1.41-1.55c-.59-.64-1.07-1.36-1.5-2.12-1.04-1.84-1.23-3.85-.69-5.93l3.57-.09h2.3c1.04,0,2.05-.04,3.03.28l-7.53.9c-.1.01-.34.08-.43.12-.25,2.37.87,4.35,2.41,6.11l.62.7,1.08,1.23Z"/>
  <path d="M6.83,49.32c2.1.18,4.11-.54,5.49-2.18,2.03-2.41,1.68-6-.23-8.38-1.51-1.89-3.57-2.94-5.84-3.56-.07-.02-.23-.17-.23-.2,4.52.02,8.75,3.11,9,7.77.21,4.03-2.67,7.1-6.66,7-.53-.1-1.02-.05-1.52-.45Z"/>
  <path d="M11.77,44.87c-.97.44-1.8.76-2.78.92-2.33.38-5.52.3-7.61-1.07l3.01-.09c-1.24-.71-2.07-2.01-1.95-3.46,1.36,1.07,2.47,2.19,3.51,3.43l.52.04.18-4.74,1.33.08,2.3.14.93.16c-1.02.63-2.14.81-3.3.95-.13,1.23-.46,2.31-.99,3.41l4.76.03.09.19Z"/>
  <path d="M11.92,42.62c-1.19.56-2.35,1.03-3.63,1.47.07-1.14.92-2.08,2.09-2.08.55,0,1.07.26,1.54.6Z"/>
  </g>
</svg>
