<?xml version="1.0" encoding="UTF-8"?>
<svg xmlns="http://www.w3.org/2000/svg" viewBox="0 0 100 100">
  <g transform="translate(50 50) scale(1.31298) translate(-13.5200 -40.8050)">
  <path d="M13.67,33.54l-4.63-1.62-5.15-1.87c.67-2.31,2.27-3.99,4.04-5.44l1.15-.95.71-.6,1.98-1.97.71-.84c1.21-1.44,2.26-2.96,3.26-4.53-1.99-1.22-3.81-2.42-5.44-3.96l-1.41-1.33.2-.09,15.85,9.19c-2.02-.25-3.68-1.13-5.46-1.82l-3.43-1.81c-1.7,4.08-4.01,7.08-7.39,9.85-1.19.97-2.38,2.23-3.13,3.61,2.08.91,4.05,1.8,6.04,2.85.74.39,1.42.72,2.11,1.3Z"/>
  <path d="M10.02,61.32c1.4,1.54,2.62,3.06,3.73,4.77s2.11,3.36,2.96,5.18c-.66-.54-1.02-1.14-1.5-1.71l-2.08-2.64c-1.38-1.75-2.82-3.35-4.36-4.95l-.72-.83c-1.8-2.06-2.8-4.54-2.2-7.27l.14-.63,3.68-.09h2.56s2.69.2,2.69.2c-.35.16-.65.19-1.04.23l-3.98.47-1.95.22-.99.11c-.33,2.82,1.18,4.86,3.07,6.95Z"/>
  <path d="M5.13,49.74c1.83.15,3.49-.26,4.87-1.42,3.14-2.63,2.62-7.39-.42-10.14-.9-.81-1.91-1.42-3.02-1.92l-2.19-.79c2.22-.1,4.3.67,6.04,1.99,3.18,2.43,4.1,7.07,1.73,10.25-1.11,1.49-2.8,2.33-4.64,2.48-.8,0-1.6.02-2.36-.46Z"/>
  <path d="M9.72,44.69c-.6.41-1.22.76-1.96.95-1.88.48-4.15.27-5.66-.97l.82-.11,2.01-.03.09-3.09.99.06,2.45.19c-.6.6-1.35.8-2.15,1.01l-.66,1.82,3.39.03.68.13Z"/>
  <path d="M20.66,42.59l-1.54.11c-.17,1.28-.7,2.54-1.58,3.51-.6.64-1.25,1.16-2.19,1.39,1.23-1.9,2.22-3.77,2.92-5.95l1.77.64.62.29Z"/>
  <path d="M20.96,45.57c-.1.55-.48,1.01-1.07,1.06-.41.03-.83-.05-1.23-.22l.91-1.03.52-.86,1.38.5,1.01.37c-.57.12-.94.14-1.52.17Z"/>
  </g>
</svg>
