<?xml version="1.0" encoding="UTF-8"?>
<svg xmlns="http://www.w3.org/2000/svg" viewBox="0 0 100 100">
  <g transform="translate(50 50) scale(1.31601) translate(-15.1650 -40.8350)">
  <path d="M11.95,32.41l-6.43-2.33c.36-1.2.89-2.17,1.63-3.08.32-.4.65-.82,1.03-1.16l1.1-.98,1.39-1.15,1-.86c1.45-1.26,3.58-3.89,4.65-5.55l.99-1.54c-1.97-1.22-3.82-2.42-5.47-3.99l-1.37-1.31.3-.02,15.71,9.13c-1.82-.19-3.32-.99-4.94-1.59-1.33-.65-2.61-1.3-3.9-2.01-1.71,3.95-3.7,6.67-6.92,9.43l-.83.71c-1.02.87-2.03,2.03-2.75,3.27l2.09.94c2.06.93,4.04,1.88,6.04,3.17-1.14-.26-2.19-.69-3.31-1.09Z"/>
  <path d="M17.54,70.47l-3.46-4.38-2.61-2.98-1.48-1.6c-1.66-1.79-2.86-4.05-2.67-6.54l.26-1.72,2.56-.09h4.11c.8,0,1.54.04,2.31.25l-8.01.96c-.33,2.54,1.01,4.66,2.7,6.53,1.54,1.7,2.95,3.4,4.2,5.34,1.05,1.64,1.97,3.22,2.86,4.99-.34-.19-.53-.45-.78-.77Z"/>
  <path d="M7.08,49.76c2.22.11,4.05-.69,5.39-2.36,1.95-2.44,1.46-6.07-.53-8.39-1.55-1.81-3.51-2.78-5.87-3.43v-.13c2.36.02,4.67.85,6.43,2.46,1.97,1.8,2.91,4.44,2.41,7.09-.27,1.43-.96,2.72-2.05,3.66-1.58,1.36-3.75,1.91-5.84,1.29-.18-.04-.19-.35.06-.18Z"/>
  <path d="M9.45,44.41l2.07.05c-.65.58-1.33.88-2.11,1.07-1.76.43-4.1.25-5.56-1.07l2.87-.08.11-3.08,1.42.09,2,.18c-.63.57-1.36.79-2.14,1.01-.17.61-.37,1.16-.66,1.8l2.01.03Z"/>
  </g>
</svg>
