<?xml version="1.0" encoding="UTF-8"?>
<svg xmlns="http://www.w3.org/2000/svg" viewBox="0 0 100 100">
  <g transform="translate(50 50) scale(1.71967) translate(-26.5097 -21.4450)">
  <path d="M7.56,31.05l.36-.29c.81-.67,1.86-1.24,2.83-1.68.49-.22,1.02-.37,1.55-.46l.81-.13c1.45-.24,2.39-.37,3.58-1.43,1.6-1.42,1.34-3.91,0-5.48l-.66-.66-.27-.23c-.39-.33-.83-.6-1.29-.84-1.57-.82-3.43-1.45-5.18-1.14-2.36.41-3.74,2.87-2.86,5.18.36.93.98,1.72,1.85,2.22l.44.25.1.05s-.03.08-.06.12c-.66-.21-1.2-.55-1.73-.98-2.16-1.99-2.02-5.11.19-6.98.52-.44,1.15-.72,1.82-.87,1.84-.39,3.8.07,5.51.82.71.31,1.78.92,2.31,1.4l.39.36.36.4c.61.68,1.05,1.5,1.31,2.39.61,2.09-.17,4.26-2.05,5.41-.94.57-1.8.87-2.88,1.01l-1.49.19c-.78.1-1.49.36-2.19.69-.61.29-1.18.58-1.73.96l-.41.29c-.62.44-1.2.91-1.72,1.47l-.4.42c-.4.42-.78.84-1.13,1.32l-.58.8-.93,1.44-.06.1s-.11-.1-.1-.12c.38-.83.77-1.58,1.24-2.35.32-.52.64-1.01,1.03-1.48l.34-.41.38-.44.87-.87.49-.43Z"/>
  <path d="M28.31,12.38l-1.09-.07c-1.79-.11-3.8.09-5.49.68-.7.25-1.32.6-1.93.97-.02-.02-.08-.09-.08-.08,0,0,.06-.08.08-.09l.4-.34c1.43-1.22,3.73-2,5.6-2.12l1.23-.08c1.02-.07,2.01.01,3.03.08l3.07.2c1.06.07,2.08.14,3.13.03l1.34-.13c.76-.08,1.48-.28,2.22-.48,1.69-.48,3.84-1.1,5.54-1.15l1.24-.04h.91s-.08-1.61-.08-1.61c-.04-.76-.11-1.48-.3-2.22-.02-.06.03-.21.08-.21.99.72,1.49,2.22,1.55,3.43l.04.73.97.15v.13s-.47.03-.47.03l-.49.03-.03.43-.07,1.12-.08,1.27s-.02.16-.05.15l-.14-.06c-.56-.86-.75-1.83-.89-2.84-1.55.14-3.03.41-4.51.82l-1.95.63-1.25.43-1.33.37c-1.6.34-3.19.46-4.82.32l-3.07-.27-2.31-.22Z"/>
  <path d="M24,18.84c-2.12-.1-4.13-.49-6.14-1.18-1.13-.45-2.19-.96-3.24-1.58l-.05-.12s.11-.02.12-.02c.91.31,1.76.57,2.69.82,2.15.54,4.31.85,6.53.84h1.08c1.99,0,3.93-.24,5.88-.62l.95-.19,2.63-.62,1.84-.48,3.67-1.04.21.09-1.98.97-2.07.88-.9.35-1.54.53c-1.93.66-3.91,1.07-5.94,1.25l-.69.06-.79.05c-.76.05-1.5.04-2.26,0Z"/>
  </g>
</svg>
