<?xml version="1.0" encoding="UTF-8"?>
<svg xmlns="http://www.w3.org/2000/svg" viewBox="0 0 100 100">
  <g transform="translate(50 50) scale(1.71563) translate(-27.2150 -22.7270)">
  <path d="M10.61,32.3c-.77.34-2.46,1.46-3.1,2.04l-.66.6-.88.87-.83,1c-.56.67-.97,1.49-1.14,1.65-.02.02-.07-.04-.1-.07.28-.76.61-1.44,1-2.14,1.24-2.18,3.02-3.87,5.21-5.08s5.22-2.05,7.65-2.2l1.88-.11h1.13s1.95.11,1.95.11c1.69.1,3.31.43,4.93.82l-.06.14-1.54-.03-.76-.02h-2.82s-.69.02-.69.02l-2.42.12c-1.57.08-4.4.57-5.85,1.1l-1.33.49-1.56.69Z"/>
  <path d="M6.1,29.57l.87-.67c.55-.43,1.14-.78,1.74-1.14l.67-.4c1.32-.79,3.89-1.8,5.43-2.21,1.28-.34,2.53-.63,3.84-.78l.56-.07.62-.06.94-.07.63-.03h4.13s1.82.01,1.82.01l1.03-.03c1.99-.06,4.87-.53,6.54-1.53l.75-.45c.6-.36,1.09-.81,1.56-1.33.63-.68,1.13-1.41,1.47-2.29.24-.54.37-1.09.46-1.67l.06-.09s.1.07.1.1l-.06.85c-.07.99-.45,1.9-.95,2.75l-.58.86-.28.34-.76.75c-1.01,1-2.56,1.76-3.93,2.21-2.17.7-4.74.82-7.03.82h-.94s-3.45,0-3.45,0c-4.27,0-8.89,1.17-12.72,3.04l-1.05.52-1.77,1.03c-.05.06-.17-.05-.12-.1l.43-.35Z"/>
  <path d="M35.93,16.1c0,3.3-2.67,5.97-5.97,5.97s-5.97-2.67-5.97-5.97,2.67-5.97,5.97-5.97,5.97,2.67,5.97,5.97ZM34.63,16.1c0-2.9-2.35-5.26-5.26-5.26s-5.26,2.35-5.26,5.26,2.35,5.26,5.26,5.26,5.26-2.35,5.26-5.26Z"/>
  <path d="M20.98,17.95c0-.95-.3-1.96-.9-2.68s-1.16-1.19-2.02-1.5c-1.56-.55-3.25-.26-4.56.75-.41.32-.73.67-1.08,1.07l.99.31,1.24.38-.86.85-.55.5-1.18,1.15-.3.26-.94.93-.83-3.45-.42-1.74,2.54.72c.54-1.11,1.11-1.76,2.19-2.38,1.22-.71,2.67-.89,4.03-.5,1.16.33,2.25,1.04,2.92,2.04.5.74.84,1.54.93,2.44.16,1.56-.24,2.81-1.18,4.05-.56.74-1.66,1.43-2.57,1.69-1.01.29-2.03.28-3.03-.02l-.02-.12.99-.02.45-.06c.95-.13,2.23-.8,2.9-1.55.78-.87,1.25-1.94,1.25-3.11Z"/>
  <path d="M48.59,12.99l-.27-1.43-4.65.6-2.21.37-2.59.43-.79.12s-.14-.1-.14-.12c.77-.48,1.56-.92,2.43-1.2l1.9-.61c.83-.27,1.68-.36,2.56-.46,1.16-.13,2.27-.13,3.41-.01l-.06-1.26c-.04-.8-.13-1.57-.32-2.36l.12-.07c1.16.9,1.52,2.5,1.57,3.95l.83.29.15.08s-.04.15-.08.15l-.89.02-.05.86-.06.95-.06,1.05s-.05.16-.08.15c-.2-.1-.64-1.07-.72-1.47Z"/>
  </g>
</svg>
