<?xml version="1.0" encoding="UTF-8"?>
<svg xmlns="http://www.w3.org/2000/svg" viewBox="0 0 100 100">
  <g transform="translate(50 50) scale(1.72468) translate(-26.5828 -26.6900)">
  <path d="M27.15,33.08l-.62-1.04c-.79-1.33-1.14-3.75-1.13-5.37v-.52s.03-.95.03-.95c-.52.16-.98.4-1.36.78l-1.16,1.16-.68.73-.75.8-.38.4-.67.67c-.53.54-1.08,1.03-1.7,1.47l-.75.52c-2.09,1.47-5.17,2.12-7.71,2.28l-1.01.06c-1.07.07-2.13.06-3.2,0l-1.39-.09-.05,2.45-.05,1.41-.06,1.2-.07,1.05c-.14,2.07-.44,4.07-.85,6.09l-.15-.02v-.95s-.03-1.81-.03-1.81l-.02-2.62v-13.14s.02-3.11.02-3.11v-1.62s.03-1.03.03-1.03h.16s.23,1.24.23,1.24c.29,1.6.5,3.17.61,4.79l.07,1.05.06,1.2.05,1.41.05,2.12c2.69-.1,5.26-.31,7.88-.91,1.94-.44,4.06-1.33,5.54-2.62l1.02-.88,1.29-1.31.36-.41.5-.56.7-.78,1.09-1.09.35-.28c.95-.76,2.14-1.17,3.31-.83-.28,2.34-.35,4.76.37,6.95.2.6.41,1.19.77,1.7l.73,1.03c.67.93,2.38,2.1,3.52,2.54l1.54.59s.13.13.1.13l-.14.02c-1.78-.35-3.39-.93-4.81-2.09-.63-.52-1.24-1.08-1.67-1.81Z"/>
  <path d="M29.96,28.63c.08,1.94,1.51,3.83,3.54,4.04l-.15.15c-1.14-.02-2.16-.49-2.9-1.29-.28-.3-.53-.62-.73-.96-.59-1.05-.8-2.22-.56-3.41.15-.75.4-1.46.78-2.12.29-.5.59-.99.98-1.41l.65-.69.51-.47c.5-.46,1.06-.81,1.64-1.18,1.03-.64,2.08-1.14,3.16-1.69l2.29-1.16c1.68-.85,3.84-2.43,5.15-3.78l.94-.97.37-.41c.67-.76,1.27-1.54,1.82-2.39l1.11-1.7.58-.97.6-1.02c.06.17.04.31-.03.46l-1.17,2.64c-.51,1.15-1.16,2.21-1.94,3.2l-.99,1.27-.39.45-.82.87-.5.49-1.21,1.05c-1.15,1-2.45,1.76-3.82,2.44l-2.02,1.01-1.26.64-1.82,1.06-.9.65-.5.41-.74.73-.81,1.09c-.63.85-.92,1.91-.87,2.98Z"/>
  </g>
</svg>
