<?xml version="1.0" encoding="UTF-8"?>
<svg xmlns="http://www.w3.org/2000/svg" viewBox="0 0 100 100">
  <g transform="translate(50 50) scale(1.72569) translate(-25.8492 -25.8148)">
  <path d="M38.93,32.94c0,1.14-.93,2.07-2.07,2.07s-2.07-.92-2.07-2.07.93-2.07,2.07-2.07,2.07.92,2.07,2.07ZM37.6,32.94c0-.72-.58-1.3-1.3-1.3s-1.3.58-1.3,1.3.58,1.3,1.3,1.3,1.3-.58,1.3-1.3Z"/>
  <path d="M2.67,39.94v-13.17s.02-3.11.02-3.11v-1.62s.03-1.01.03-1.01h.16c.26,1.39.54,2.75.67,4.17l.19,2.05.06.84.07,1.27.04,1.34.05,2.15c4.59-.12,9.4-.56,13.59-2.63l1.75-.86,1.05-.51,1.56-.69c.63-.28,1.26-.49,1.92-.69,1.59-.47,3.23-.78,4.84-.37,1.25.32,2.11.89,2.86,1.93.21-1.33.38-2.59.79-3.82l.77-2.32.6-1.44.79-1.61.61-1.08.71-1.13,1.24-1.71.63-.78.39-.45.58-.62.81-.81.73-.68.45-.4,1.48-1.14.13.02s-.04.1-.07.13c-1.05,1.11-2.04,2.23-2.94,3.46l-.69.94-1.04,1.56-.64,1.05-.83,1.48-.89,1.79-.88,2.07-.79,2.24c-.4,1.12-.64,2.22-.9,3.39-.46,2.09-.72,4.16-.81,6.31l-.16.09-.16-1.78-.06-1.69.06-1.62.09-1.21c-2.2-2.38-5.39-1.6-8.15-.44-1.41.59-2.73,1.25-4.08,1.97-.84.45-1.65.84-2.53,1.21l-1.37.46c-1.77.59-4.7,1.01-6.57,1.01h-1.51c-1.12,0-2.21-.15-3.33-.29l-.05,2.36-.04,1.48-.07,1.2-.07,1.04c-.1,1.44-.27,2.83-.51,4.25l-.32,1.76c.06,0-.16.05-.16.02l-.02-.9-.02-1.88-.02-2.58Z"/>
  <path d="M41.43,28.9l-.58-.61c-.56-.59-.9-1.32-1.16-2.08-.82-2.4-.45-5,.6-7.28l.75-1.43.68-1.08,1.1-1.51.62-.79.44-.55.8-.96,1.62-2.03.53-.74.92-1.41.55-.92.7-1.19c.05.18.03.34-.03.51l-.59,1.61-1.03,2.13-.5.85-1.44,2.07-.66.89-.89,1.22-.64.91-1.3,2.07-.42.78c-.45.83-.77,1.71-1.02,2.63l-.27,1.48v1.58c.14,1.39.57,2.66,1.39,3.81,0,.02-.16.06-.19.03Z"/>
  </g>
</svg>
