<?xml version="1.0" encoding="UTF-8"?>
<svg xmlns="http://www.w3.org/2000/svg" viewBox="0 0 100 100">
  <g transform="translate(50 50) scale(1.71700) translate(-24.8564 -22.6511)">
  <path d="M34.7,37.75l.57-.52.37-.32c1.52-1.33,3.16-2.43,4.95-3.48-.35-.66-.73-1.29-1.17-1.89l-.43-.57-.26-.31-.34-.4-1.39-1.37c-.99-.98-2.15-1.74-3.39-2.36l-.68-.34-1.18-.51-1.13-.38c-.6-.2-1.2-.35-1.83-.41l-1.81-.19-1.82-.06c-1.88-.06-3.61-.11-5.36-.85-.91-.38-1.68-.95-2.31-1.7-.42-.49-.78-.99-1.07-1.57l-.33-.67-.67-1.34c-.49-.98-1.07-1.89-1.81-2.69l-.73-.78c-1.59-1.7-4.2-2.79-6.5-3.21-1.24-.23-2.42-.35-3.7-.4v.99s0,1.47,0,1.47c0,.04-.14.06-.15.03l-.23-.46c-.31-.63-.5-1.27-.61-1.96l-.13-.14c.04-.08.08-.2.08-.26-.11-1.56.16-3.31,1.66-3.88.55-.2,1.12-.15,1.61.19l.07.09c.09.11-.23.05-.62.09-1.06.12-1.54,1.21-1.61,2.25l-.09,1.36c1.63-.08,3.05-.02,4.64.26,2.04.36,4.17,1.21,5.74,2.53l.37.31c.38.32.72.66,1.03,1.04l.26.31c.79.94,1.37,1.98,1.94,3.06l.5.94.64,1.05.51.68.47.47c.26.26.57.44.89.62,1.39.77,3.14,1,4.75,1.06l1.22.05c1.11.04,2.17.1,3.27.3,1.61.3,3.11.81,4.55,1.59.88.47,1.71.96,2.47,1.6l.99.83,1.13,1.14c1.15,1.28,2.08,2.71,2.75,4.27,1.47-.83,2.93-1.56,4.47-2.18l2.83-.96s.09.11.07.12l-.11.07-13.48,7.79c-.1.06-.2.06-.31.03l.44-.42Z"/>
  </g>
</svg>
