<?xml version="1.0" encoding="UTF-8"?>
<svg xmlns="http://www.w3.org/2000/svg" viewBox="0 0 100 100">
  <g transform="translate(50 50) scale(1.71637) translate(-24.8550 -20.2420)">
  <path d="M39.19,31.89l1.2-.75s-.11-.16-.15-.2l-1.16-1.1-.94-.94-.67-.71c-.97-1.03-1.76-2.17-2.37-3.45l-.52-1.24-.45-1.42-.3-1.07-.47-2.03-.52-2.36-.39-1.49-.53-1.6c-.2-.59-.48-1.12-.77-1.67-.59-1.11-1.36-2.07-2.36-2.83-1.32-1-2.94-1.55-4.55-1.11-.86.24-1.62.69-2.27,1.31-1.4,1.33-1.93,3.38-1.15,5.13.52,1.15,1.38,1.99,2.55,2.6-.44.02-.84-.22-1.17-.47l-.64-.48-.44-.44-.39-.49c-.24-.31-.4-.66-.55-1.02-.38-.96-.43-2.14-.14-3.12.24-.8.64-1.5,1.19-2.13.45-.51.97-.91,1.56-1.26,1.54-.91,3.32-.99,4.98-.33l.8.39.76.49.79.65.42.4c1.07,1.04,2.21,3.16,2.61,4.59l.56,2.01.33,1.54.29,1.47.53,2.55c.19.92.46,1.78.79,2.65.7,1.9,1.78,3.41,3.1,4.91l.5.57.53.6.47.53.38.43,1.2-.66,1.75-.88c1.44-.72,2.9-1.23,4.47-1.68l.11.11-2.77,1.64-.91.53-2.85,1.65-1.83,1.05-2.99,1.71-.56.32-1.65.93c-.08.05-.16.06-.34.06l.3-.3.42-.39.49-.44.48-.41c1.01-.87,2.08-1.64,3.24-2.36Z"/>
  <path d="M28.59,13.43c.9,1.72.63,3.75-.62,5.21s-3.44,2.27-5.41,2.09c-.73-.07-1.43-.25-2.11-.52-1.06-.43-2.09-1.3-2.83-2.18-.51-.6-.95-1.21-1.4-1.86l-1.23-1.78c-.46-.67-1.08-1.34-1.7-1.87-2.91-2.52-6.84-3.36-10.62-3.5v.97s0,1.55,0,1.55c-.05,0-.15-.02-.16-.04l-.22-.45c-.31-.63-.5-1.27-.61-1.96l-.13-.14c.04-.08.08-.19.08-.26-.1-1.56.16-3.29,1.66-3.88.56-.18,1.12-.14,1.62.19l.05.16-.61.03c-1.02.05-1.55,1.24-1.61,2.31l-.08,1.29,1.32-.05c1.8-.07,3.56.17,5.3.67,1.61.46,3.08,1.17,4.39,2.18.82.63,1.52,1.31,2.12,2.14l.64.87.72,1.03c1.12,1.62,2.34,3.18,4.26,3.82,2.24.74,4.81.19,6.28-1.65.94-1.17,1.17-2.73.62-4.12-.16-.42-.38-.76-.66-1.11-.34-.42-.64-.49-.51-.66l.57.41.34.34c.22.21.37.47.52.77Z"/>
  </g>
</svg>
