<?xml version="1.0" encoding="UTF-8"?>
<svg xmlns="http://www.w3.org/2000/svg" viewBox="0 0 100 100">
  <g transform="translate(50 50) scale(1.71392) translate(-25.6317 -19.0150)">
  <path d="M14.32,20.37c-.04-.14.09-.34.18-.49.99-1.94.79-4.33-.76-5.84l-.48-.46-.6-.53-.5-.44c-.64-.57-1.24-1.18-1.64-1.92-1.41.79-2.79,1.52-4.25,2.17-1.02.45-2,.86-3.07,1.19l-.75.24s-.12,0-.15-.01.05-.1.08-.12l15-8.66.05.14-.68.61-.47.41-.34.29-.42.34c-1.45,1.19-2.98,2.19-4.62,3.17.07.11.17.23.27.31.24.21.47.42.72.6l1.65,1.17c.43.3.82.63,1.18,1.01,1.25,1.3,1.56,3.13,1.01,4.84-.31.75-.69,1.46-1.43,2Z"/>
  <path d="M48.97,31.92c-.94.35-1.85.53-2.81.61h-1.26c-1.14,0-2.95-.71-3.8-1.51l-.49-.46c-1.52-1.43-1.77-4.23-.08-5.78.33-.3.73-.47,1.18-.61l.11.12c-.28.17-.51.29-.7.52l-.31.38c-.21.26-.33.57-.42.89-.24.83-.21,1.69.15,2.5.29.64.72,1.23,1.29,1.63l.77.54c.56.39,1.21.58,1.88.75.88.23,1.76.29,2.67.3h.39c.47.02.9-.03,1.42.1Z"/>
  <path d="M36.07,32.11c-.09-.06-.11-.14-.12-.25l-.26-2.39-.38-3.5-.07-.82-6-2.49-3.72,6.15-4.25-2.44-2.95-1.69-1.64-.94.27-.33.34-.41.83-.99.31-.37.31-.38.29-.34.91-1.09.23-.28,2.19-2.63.37-.44s.07-.09.07-.09c0,0,.05.06.07.07.03.02-.02.06-.05.12-1.56,2.35-3.18,4.62-4.88,6.87l1.05.55.41.22,1.6.85.9.48.49.27,2.74,1.53,2.34-3.76,1.4-2.17.64.29,2.41,1.09.98.46,1.19.56,1.81.88.03.84.05,1.25.05,1.47.03,3.86Z"/>
  <path d="M24.76,22.66l1.7.05c-1.03.93-2.56,1.13-3.88.96-.84-.1-1.62-.38-2.27-.97l2.29-.07.03-.43.06-2.02,2.27.17.48.05-.34.3c-.44.23-.89.4-1.39.5-.11.49-.28.98-.53,1.44h1.58Z"/>
  <path d="M27.23,22.09l-.77.11-2.36.02.3-.45c.55-.69,1.51-.81,2.23-.34.23.19.37.33.59.67Z"/>
  </g>
</svg>
