<?xml version="1.0" encoding="UTF-8"?>
<svg xmlns="http://www.w3.org/2000/svg" viewBox="0 0 100 100">
  <g transform="translate(50 50) scale(1.71666) translate(-30.1010 -18.9516)">
  <path d="M18.07,13.81l-.5-.47-.7-.62-.62-.57-.29-.28c-.38-.38-.69-.81-.95-1.28-2.31,1.32-5.18,2.74-7.68,3.48l-.43.13s-.1-.07-.1-.1l2.99-1.76,1.27-.74,3.57-2.07,4.7-2.69.96-.55,1.49-.84s.15-.03.21-.01l-.59.58-.47.41c-1.71,1.5-3.57,2.74-5.54,3.94.55.54,1.09.95,1.66,1.36l1,.69c.57.4,1.09.87,1.52,1.42,1.49,1.9,1.18,4.88-.73,6.44l-.07-.08c1.12-1.96,1.18-4.25-.28-5.96l-.41-.44Z"/>
  <path d="M53.29,31.77s.13.08.11.09l-.11.07c-.85.25-1.7.42-2.59.54l-1.39-.02-1.26-.22c-.39-.07-.75-.23-1.11-.4-1.43-.67-2.68-1.92-3.02-3.49-.37-1.73.48-3.78,2.19-4.19.05-.01.2.07.18.09-1.57.85-1.98,2.96-1.18,4.49.51.97,1.4,1.71,2.38,2.19,1.18.59,2.54.82,3.86.84l1.11.02h.84Z"/>
  <path d="M40.42,25.45l.05,1.25.05,1.47.03,3.86c-.09-.06-.11-.14-.12-.25l-.26-2.45-.38-3.44-.07-.82-6-2.5-3.72,6.15-8.83-5.06.67-.83,3.39-4.05.37-.45.37-.44.91-1.09.34-.41s.08-.08.07-.08c0,0,.05.05.07.07.02.02-.01.07-.05.12-1.28,1.93-2.59,3.8-3.97,5.66l-.91,1.22.95.5.86.46.49.26,2.04,1.1,2.83,1.57,1.79-2.87,1.02-1.61.93-1.44.9.41,5.16,2.4.98.47.03.84Z"/>
  <path d="M35.85,18.44c-3.66.12-6.77,2.01-8.67,5.12l-.09-.1c.3-1.33.97-2.49,1.94-3.45l.57-.51c2.18-1.76,5.07-2.41,7.76-1.52.48.19.95.34,1.37.74-.99-.15-1.89-.32-2.88-.29Z"/>
  <path d="M30.03,13.35c1.48.77,1.95,2.99.87,4.39-.27.35-.62.61-1.09.71.16-.36.33-.65.44-.99.51-1.58-.02-3.25-1.36-4.31.39-.14.79.02,1.14.2Z"/>
  </g>
</svg>
