<?xml version="1.0" encoding="UTF-8"?>
<svg xmlns="http://www.w3.org/2000/svg" viewBox="0 0 100 100">
  <g transform="translate(50 50) scale(1.71656) translate(-28.4124 -18.9100)">
  <path d="M17.07,20.23c1.3-2.34,1.12-4.82-.85-6.59l-.33-.3-.43-.38-.5-.44c-.62-.55-1.21-1.15-1.63-1.92l-.3.16-.65.36c-1.72.94-3.45,1.81-5.3,2.46l-1.08.38-.78.25s-.1-.07-.11-.1l15.14-8.74c-.03.23-.23.37-.39.51l-.5.44-.47.41-.31.25-.32.25c-1.44,1.16-2.93,2.15-4.56,3.13,1.11,1.22,2.67,1.87,3.83,3.08,1.83,1.91,1.67,5.02-.31,6.79h-.15Z"/>
  <path d="M50.57,31.74l1.05.02s.12.1.09.11l-.13.05-1.33.34-1.37.19h-1.2c-.5,0-1-.14-1.47-.28-1.8-.51-3.49-1.89-3.96-3.74-.44-1.73.39-3.88,2.24-4.34l.11.12c-.28.17-.51.29-.7.52l-.31.38c-.22.27-.34.6-.44.94-.35,1.21-.05,2.45.77,3.4.9,1.05,2.05,1.65,3.4,1.99.88.22,1.77.27,2.68.29h.56Z"/>
  <path d="M38.78,26.66l.05,1.5.03,3.86c-.09-.06-.11-.14-.12-.25l-.26-2.45-.29-2.63-.17-1.64-1.08-.45-4.9-2.04-3.72,6.15-8.06-4.63-.78-.45.27-.33.34-.41,2.65-3.17.23-.28,2.02-2.42.34-.41.28-.33.08.1s-.04.06-.06.09l-3.63,5.19-1.25,1.69,1.05.55,2.04,1.09.86.46.53.29,2.7,1.5,2.37-3.8,1.37-2.13.38.17,1.13.5.65.29,1.12.52,2.04.96,1.72.83.05.98.04,1.09Z"/>
  <path d="M29.3,24.11c-1.28.1-2.39-.6-2.9-1.74l-.32.44-.31.37c-.46.47-.96.89-1.68,1.03.81-1.23,1.51-2.43,1.99-3.78l.34-.95.69.25,1.24.45c-.45.13-.84.13-1.24.13l-.26,1.12c-.02.07.04.19.08.23l1.82,1.82.56.63Z"/>
  <path d="M25.12,20.71c.2.54-.05,1.26-.58,1.65-.33-.82-.55-1.6-.77-2.44l.02-.12s.09-.04.11-.04l.35.13c.39.14.72.43.87.82Z"/>
  </g>
</svg>
