<?xml version="1.0" encoding="UTF-8"?>
<svg xmlns="http://www.w3.org/2000/svg" viewBox="0 0 100 100">
  <g transform="translate(50 50) scale(1.71282) translate(-30.1267 -19.1700)">
  <path d="M19,19.98c.88-1.77.8-3.97-.51-5.45-.3-.35-.62-.67-.97-.97l-.4-.35-.63-.56c-.59-.52-1.09-1.08-1.5-1.8l-1.21.67-.91.48-.75.38c-1.19.6-2.38,1.12-3.64,1.55l-.84.29-.73.23s-.11-.03-.13-.04c-.03-.01.05-.08.08-.1l2.84-1.67,4.39-2.56.64-.37,3.43-1.96,3.64-2.06.11-.04s.06.07.04.09l-.08.08-.69.64-.36.32-1.01.82c-1.4,1.13-2.88,2.08-4.43,3.03.2.21.35.38.54.52l.56.44,1.62,1.14c.62.44,1.52,1.27,1.8,1.89l.32.69c.29.63.31,1.34.25,2.03-.08.96-.42,1.85-1.03,2.59l-.6.62-.09-.08.24-.49Z"/>
  <path d="M53.46,32.06c-.47.25-.88.34-1.35.42l-1.33.21h-1.51c-.61,0-1.22-.19-1.78-.4-.93-.34-1.74-.88-2.42-1.59l-.31-.38c-1.17-1.41-1.23-3.69.02-5.13.4-.42.85-.7,1.44-.83l.11.1c-1.52.81-1.96,2.78-1.27,4.32.15.33.34.66.59.91l.72.72c1.28,1.06,2.99,1.48,4.64,1.57h1.16s1.31.08,1.31.08Z"/>
  <path d="M40.42,25.77l.05,1.16.05,1.48.03,3.85c-.08-.06-.11-.14-.13-.25l-.28-2.67-.18-1.58-.26-2.45-5.99-2.49-3.72,6.15-5.57-3.19-1.99-1.15-1.26-.72.18-.25.8-.96,2.42-2.9.34-.41.34-.41.8-.96,1.22-1.47.08.05s-.02.09-.04.12l-.53.79-.2.3-4.16,5.79,1.85.98.9.48.77.42.9.49,2.76,1.53,2.3-3.69,1.44-2.24.8.36.69.31,2.4,1.1.64.3.77.37,1.05.51.67.33.05.92Z"/>
  <path d="M29.04,21.69c-.08.21-.18.44-.34.6-.36.35-.98.3-1.52.07l.4-.45.52-.62.22-.45,1.44.53.47.19c-.43.11-.73.12-1.18.12Z"/>
  </g>
</svg>
