<?xml version="1.0" encoding="UTF-8"?>
<svg xmlns="http://www.w3.org/2000/svg" viewBox="0 0 100 100">
  <g transform="translate(50 50) scale(1.71600) translate(-28.4100 -19.3750)">
  <path d="M17.07,20.74l.48-1.1c.17-.4.26-.86.32-1.3.17-1.27-.23-2.69-1.06-3.63l-.23-.26-.48-.47-.33-.29-.44-.38-.47-.41c-.63-.55-1.12-1.11-1.56-1.85-1.45.83-2.87,1.56-4.38,2.23-1.23.53-2.43.98-3.7,1.37l-.12-.03s.05-.09.08-.1l14.96-8.64.15.06-.27.25-.59.54-.4.34-.35.29c-1.56,1.29-3.2,2.39-4.97,3.46.42.44.86.81,1.34,1.15l1.26.88c.53.37,1.01.77,1.43,1.26.85,1.01,1.22,2.3,1.05,3.61-.07.53-.19,1.04-.44,1.5l-.27.49-.53.66c-.12.15-.24.25-.46.36Z"/>
  <path d="M51.66,32.36l-2.33.51-1.95-.02-1.08-.21-1.05-.39c-.57-.21-1.05-.59-1.5-1-.72-.65-1.25-1.45-1.48-2.41-.42-1.74.43-3.87,2.24-4.29.03,0,.13.08.13.1-.68.38-1.18.97-1.41,1.71-.42,1.29-.14,2.66.8,3.62l.44.44c.36.37.8.63,1.27.87.78.39,1.61.64,2.49.77l1.89.13h1.6s-.03.17-.03.17Z"/>
  <path d="M21.25,25.74c1,1.43,2.68,2.22,4.49,2.24.09-.01.11.14.01.15l-.85.14c-1.12.1-2.2-.18-3.16-.76-1.05-.63-1.79-1.59-2.12-2.77-.26-.95-.27-1.88,0-2.84.62-2.22,2.69-3.68,4.99-3.47.02.06.03.1.01.11l-.11.04c-.94.17-1.79.58-2.48,1.22-1.5,1.33-1.96,3.56-1.11,5.35l.34.59Z"/>
  <path d="M38.86,25.19c.91-.49,1.53-1.3,1.93-2.24.49-1.17.48-2.47-.02-3.63-.62-1.45-1.98-2.37-3.51-2.7-.72-.13-1.42-.14-2.16-.03l-.13-.03s.05-.08.07-.1c.75-.34,1.5-.49,2.33-.46.85.05,1.66.27,2.4.69,2.11,1.18,2.95,3.87,2.1,6.09-.47,1.25-1.41,2.19-2.63,2.69-.46.19-.92.32-1.44.28l1.06-.57Z"/>
  <path d="M33.43,24.68c-1.24.16-2.42-.59-2.92-1.72-.59.87-1.16,1.43-2.18,1.84l-.1-.08.61-.94c.43-.66.8-1.36,1.08-2.11l.61-1.61.54.2,1.38.5c-.38.14-.8.14-1.23.13l-.3,1.24,2.52,2.56Z"/>
  <path d="M27.51,23.92c-.21-1.01-.01-1.93.59-2.69.33-.42.89-.86,1.46-1.02-.37,1.39-1.04,2.62-2.04,3.7Z"/>
  </g>
</svg>
