<?xml version="1.0" encoding="UTF-8"?>
<svg xmlns="http://www.w3.org/2000/svg" viewBox="0 0 100 100">
  <g transform="translate(50 50) scale(1.71674) translate(-28.4100 -19.6218)">
  <path d="M18.64,16c.51,1.8-.04,3.76-1.45,4.95-.02.02-.09-.09-.08-.1.44-.76.7-1.54.81-2.4.1-1.19-.21-2.38-.95-3.33-.19-.24-.39-.5-.62-.7l-1.33-1.18-.71-.68c-.39-.37-.7-.82-.97-1.29-1.46.84-2.94,1.61-4.5,2.29-1.09.48-2.15.86-3.28,1.24-.15.05-.32.09-.45.01l11.14-6.48.77-.44.88-.5,2.15-1.21c.07-.04.22-.03.26,0l-.85.78-.47.41-.38.31c-1.54,1.27-3.16,2.35-4.89,3.39l.41.39.51.43.91.66,1.1.78.45.37c.72.59,1.3,1.43,1.55,2.33Z"/>
  <path d="M27.55,21.78l1.44.06c-.55.49-1.16.73-1.85.88-1.42.31-3.15.1-4.29-.88l2.3-.07.07-1.99.02-.46.96.06.81.05.96.11c-.52.46-1.11.64-1.73.79-.12.5-.29.96-.51,1.45h1.81Z"/>
  <path d="M40.13,26.01c.04,1.21-.27,2.33-.93,3.3l-.11.04s0-.11.02-.14c.68-1.47.79-3.05.14-4.55-.89-2.05-2.94-3.13-5.16-2.72-1.34.25-2.17.95-3.03,1.98l-.97,1.16-.23.27-.69.68-.31.26c-1.93,1.59-5.02,1.46-6.93-.2-.59-.51-1-1.14-1.28-1.86-.2-.5-.34-1.02-.33-1.56v-.69c.02-1.23.77-2.62,1.74-3.38.04.04.08.09.08.09,0,0-.05.05-.07.08l-.29.34c-.43.5-.67,1.11-.82,1.75-.19.81-.19,1.6.04,2.4.18.64.47,1.22.93,1.69l.31.32c.4.41.89.68,1.44.88,1.24.46,2.62.39,3.81-.22l.68-.45.27-.23.47-.47.62-.7.82-1,.7-.75.27-.23c1.92-1.67,5.08-1.67,7.08.09.68.6,1.17,1.32,1.46,2.18l.24,1.02.05.61Z"/>
  <path d="M51.71,32.43l-.08.16c-.84.21-1.62.44-2.48.5h-1.63s-.58-.08-.58-.08c-1.87-.29-3.74-1.56-4.49-3.35s.05-4.47,2.09-4.88c.02.02.1.09.09.09,0,0-.07.04-.1.06-1.83,1.06-2,3.81-.46,5.36l.38.38.42.34c.57.46,1.23.73,1.92.96,1.05.35,2.13.44,3.23.45l1.69.02Z"/>
  </g>
</svg>
