<?xml version="1.0" encoding="UTF-8"?>
<svg xmlns="http://www.w3.org/2000/svg" viewBox="0 0 100 100">
  <g transform="translate(50 50) scale(1.71775) translate(-25.6262 -18.4600)">
  <path d="M15.8,14.65c.6,1.82.1,3.89-1.42,5.15l-.07-.09c1.26-2.16,1.12-4.74-.72-6.42l-.82-.75-.37-.32-.57-.5-.4-.4-.24-.27c-.24-.28-.44-.6-.65-.93-2.59,1.47-5.15,2.7-8.01,3.59-.06-.02-.16-.06-.19-.08l15.03-8.69.09.1-.94.85-.51.44c-1.42,1.21-2.95,2.24-4.54,3.22l-.57.35.52.49.27.22.79.59c.8.59,1.83,1.19,2.46,1.99l.25.32c.27.34.45.75.59,1.16Z"/>
  <path d="M37.23,29.86l-1.06-.32-1.51-.49c-2.28-.74-4.42-1.77-6.52-2.93-2.89-1.6-5.56-3.49-8.01-5.7l-.3-.27-.9-.87-.48-.48s-.06-.11-.08-.14.11,0,.14.02l.96.64,3.27,2.19c1.57,1.05,3.13,2.04,4.76,3l.88.52c1.97,1.16,3.97,2.2,6.01,3.25l.75.38,2.08,1.07v.14Z"/>
  <path d="M48.8,31.43c-.89.26-1.77.44-2.7.55l-1.14-.02c-.6,0-1.2-.16-1.77-.35-.66-.21-1.26-.54-1.81-.94l-.7-.62c-.45-.4-.74-.91-.99-1.46-.83-1.84-.04-4.44,1.92-4.95h.19s-.02.11-.06.13c-1.38.74-1.89,2.7-1.2,4.24.27.61.72,1.14,1.22,1.57,1.15.99,2.71,1.47,4.21,1.6l1.74.05,1.11.02s.11.1.09.11l-.12.06Z"/>
  </g>
</svg>
