<?xml version="1.0" encoding="UTF-8"?>
<svg xmlns="http://www.w3.org/2000/svg" viewBox="0 0 100 100">
  <g transform="translate(50 50) scale(1.71784) translate(-30.1050 -18.5850)">
  <path d="M40.69,22.56c0,4.93-4,8.93-8.93,8.93s-8.93-4-8.93-8.93,4-8.93,8.93-8.93,8.93,4,8.93,8.93ZM39.61,22.56c0-4.6-3.73-8.33-8.34-8.33s-8.34,3.73-8.34,8.33,3.73,8.33,8.34,8.33,8.34-3.73,8.34-8.33Z"/>
  <path d="M19.19,19.62c-.13.16-.28.27-.45.35.26-.57.49-1.05.66-1.62.44-1.58.11-3.24-.97-4.48-.25-.29-.52-.56-.81-.81l-.4-.35-.37-.32-.3-.26c-.62-.54-1.13-1.12-1.55-1.85-1.77,1.01-3.52,1.94-5.39,2.66l-1.37.52-1.42.45.04-.16,12.84-7.43,2.26-1.26c-.07.26-.23.35-.39.49l-.47.41-.4.35-.34.28-1.3,1.02c-1.16.91-2.38,1.65-3.67,2.45.42.43.86.81,1.34,1.14l1.26.88c.53.37,1.01.77,1.43,1.26,1.2,1.41,1.4,3.35.65,5.04-.12.28-.27.56-.46.79l-.39.46Z"/>
  <path d="M53.26,31.43l.13.02s-.05.13-.07.15l-2.31.51-1.95-.02c-.37,0-.79-.1-1.13-.22l-1.01-.38c-.57-.21-1.05-.59-1.5-1-.72-.65-1.25-1.45-1.48-2.41-.42-1.74.43-3.87,2.27-4.3l.1.11c-1.25.69-1.8,2.16-1.53,3.54.1.48.26.94.56,1.32l.38.49.41.41c.36.37.8.63,1.27.87,1.47.74,2.92.89,4.56.9h1.31Z"/>
  <path d="M32.56,23.43l2.25.06c-.94.85-2.36,1.1-3.61,1-.92-.08-1.79-.34-2.55-.99l2.31-.06.06-1.79.03-.67,2.63.19.06.1-.47.3c-.36.23-.79.33-1.22.42-.11.49-.26.97-.51,1.43h1.02Z"/>
  </g>
</svg>
