<?xml version="1.0" encoding="UTF-8"?>
<svg id="Layer_1" data-name="Layer 1" xmlns="http://www.w3.org/2000/svg" viewBox="0 0 24.61 25.41" fill="#2c2013" preserveAspectRatio="none">
  <path d="M14.96.93s0,.03.01,0c.03-.06.09.03.09-.04,0-.06-.09-.03-.1.03Z"/>
  <path d="M4.21,22.91s-.1.13-.04.11c.06-.02.09-.11.04-.11Z"/>
  <path d="M1.51,1.86s-.14-.05-.06,0c.07.05.09.05.06,0Z"/>
  <path d="M24.25,21.58c.03-.05-.06-.05-.06,0,0,.04.02.06.06,0Z"/>
  <path d="M15.02,23.01s0-.1-.04-.07c-.05.03,0,.1.04.07Z"/>
  <path d="M24.64,8.63s-.02-.07,0-.11c.04-.09.02-.16-.05-.16-.06,0-.07-.08-.01-.14s.05-.28.08-.28c.03,0,0-.12-.06-.09-.06.04.05-.07,0-.22-.05-.17.09-.16-.03-.46-.02-.05-.08-.48,0-.44.1.06-.1-.1.01-.18.02-.02,0-.03-.03-.03-.06,0-.06-.01-.03-.04.08-.08-.11-.22-.03-.22.06,0,.05-.15,0-.15-.06,0,.13-.31.07-.35-.06-.04,0-.38-.04-.38-.04,0,0-.22-.08-.29-.03-.03-.06-.05-.05-.06.03-.03.05-.51.02-.61-.04-.15.07-.27,0-.26-.09.02,0-.6-.1-.71-.08-.1,0-.31-.03-.35-.07-.07-.03-.6-.12-.68-.06-.06-.03-.23-.08-.33-.05-.1-.08-.47-.12-.5-.05-.03-.2-.34-.18-.37.02-.04-.23-.14-.28-.11-.07.04-.06-.1-.13-.01-.09.13.13-.14-.22-.21-.15-.03-.22-.05-.29-.07.15.13.17.13.02.1-.07-.01-.15-.05-.16-.08-.02-.03-.05-.04-.08-.03-.07.03-.25-.17-.32-.17-.07,0-.1.07-.04.09.17.06-.72-.23-.68-.17.03.06-.04.1-.07.05-.03-.05-.11.03-.19-.06-.03-.03-.09-.06-.13-.06-.11,0-.27-.09-.27-.15,0-.08-.01.02-.15.05-.17.03-.23.1-.23.02,0-.18-.79-.14-.85-.23-.02-.04-.03-.04-.03,0,0,.03-.02.04-.05.02-.07-.04-.49-.05-.63-.02-.1.03-.13.02-.16-.04-.06-.1-.07-.03-.44,0-.25.01-.39-.02-.45-.11-.02-.03-.03-.03-.03,0,0,.06-.21.06-.28,0-.04-.04-.06-.04-.09,0-.04.06-.32.13-.35,0-.02-.08-.07-.1-.1-.03-.01.04-.03.04-.08,0-.15-.12.05.19-.15.11-.14-.05-.2.11-.15-.02.03-.09-.05-.15-.15-.1-.05.03-.09.02-.13,0-.08-.06-.01,0-.15.1-.2.13.02-.08-.16-.07-.05,0-.09-.01-.09-.04,0-.03-.01-.03-.04,0-.03.04-.05.04-.09.01-.06-.05-.22-.02-.2.04.03.08-.39-.03-.48.08-.04.05-.2.05-.2,0,0-.04-.3-.02-.35.02-.06.06-.13.06-.18,0-.06-.07-.82-.05-.93.02-.06.04-.14.05-.26.03-.27-.04-1-.03-1.08,0-.05.02-.11.03-.18,0-.12-.04-.58.02-.63.08-.02.03-.03.03-.03,0,0-.06-.17-.06-.27,0-.04.02-.08.02-.09,0-.03-.05-.16-.01-.22.06-.04.04-.06.04-.12-.03-.07-.07-.09-.08-.22-.04-.21.06-.38.03-.52.08-.05.02-.11.02-.12,0-.03-.04-.25-.04-.33,0-.2.11-1.36.02-1.49.13-.03.03-.07.04-.09.03-.05-.05-.21-.03-.23.02-.04.1-.39-.12-.5-.03-.06.05-.25.08-.27.04-.04-.06-.2.11-.32.04-.04-.02-.08-.03-.09-.02-.03.03-.34.05-.36.02-.02-.03-.2-.02-.27.01-.02.01-.11.02-.19.02-.25,0-.4.14-.51.08-.09-.05-.04,0-.31.02-.27.01-.18.08-.36.06-.14-.02-.36.05-.36.11,0,.02-.05.01-.11,0-.19-.07-.32.07-.36,0-.01-.02-.05-.02-.09,0-.12.07-.63-.05-.81.04-.11.06-.46.05-.44-.01.02-.06,0,0-.1,0-.05,0-.07-.02-.05-.05.02-.03,0-.02-.05.02-.11.1-.3.05-.33.11-.04.1-.05-.09-.2.02-.05.03-.08.07-.07.09.03.05-.02.27-.06.24-.07-.04.02-.33-.17-.19-.14.1.06.04.06.17,0,.05,0,.06-.04,0-.03-.04-.04-.04-.04,0,0,.03-.02.04-.05.02-.07-.04.04.1.11.1.06,0,.05.12-.01.14-.06.02-.06.1,0,.07.02-.01.04,0,.05.03.01.03.02.02.02-.02,0-.08.06-.09.09-.01.04.1.24.02.22.16-.02.15.08-.12.26-.01.06.03.09.03.16-.01.21-.14,1.44-.06,1.47-.11.03-.05.16-.04.18.01.01.04.03.03.06,0,.02-.03.04-.04.04-.02,0,.02.03.01.06-.01.07-.06.19-.02.15.04-.02.03-.01.03.02.02.07-.04-.03-.1.06-.1.03,0,.07.02.08.03.02.04.21-.04.21-.08,0-.02.04-.02.09,0,.14.04.41-.08.41-.01,0,.02.02.02.05,0,.07-.06.18.02.18-.04,0-.05.11-.05.11,0s.29-.08.32-.05c.01.01.02,0,.02-.02,0-.08.86-.04.88-.02.02.01.04,0,.06-.02.01-.02.07-.03.14-.02.21.05.2-.15.32-.06.08.07.41,0,.72-.01.06,0,.09-.02.08-.03-.03-.04.06-.03.14.02.11.07.19-.05.17-.09-.06-.09.17.02.11.1-.03.04.04-.07.3-.06.22,0,.68.04.6-.17-.01-.04,0-.06.04-.06.05,0,.06.03.04.12-.03.15-.03.05.23.03.29-.01.39-.08.5-.05.15.04.21-.14.3-.04.08.08.6,0,.67-.03.12-.06.12.09.33.01.18-.06.18.03.25-.06.04-.05.06-.06.1-.03.09.07.24.08.33.03.19-.1.27.09.42-.04.05-.05.09-.06.12-.03.06.05,1.14.08,1.14,0,0-.02.02-.03.05-.01.09.06.71.02.81-.05.09-.06.1-.06.1,0,0,.09.27.06.27.03,0-.09.45.09.62.02.04-.02.07-.01.07.02,0,.04,0,.04.03,0,.04-.06.23-.1.29-.05.02.02.07.02.09,0,.06-.04.43.04.65-.01.28-.07.43.08.57-.04.07-.05.1.02.35.02.13,0,.16,0,.15.05-.01.03,0,.05.03.04.07-.02.46-.04.6-.07.2-.04.24.15.41.03.15-.1.03.02.44.04.33.02.35.08.44.03.14-.07.15.12.39.08.07-.01.14,0,.16.02.05.08.22.09.29.03.07-.07.16-.04.13.04,0,.03,0,.05.03.05.27.03.41.06.41.1,0,.03.02.02.05,0,.06-.06.27-.06.24,0-.02.03,0,.03.04,0,.14-.11.01.1.21.03.1-.04.18,0,.18.09,0,.06.16.08.23.03.09-.08.13.1.22.07.03,0,.06,0,.09.03.04.05.28.08.35.04.06-.03.15-.02.22.04.12.1.19-.15.17.07,0,.02.04.04.09.05.26.06.15.66.26.59.05-.03-.03.02.07.33.11.34.13.48.08.57-.02.04-.02.07,0,.07.08,0,.09.57.13.64.04.07,0,.31.04.4.04.1-.05,0-.03.27,0,.09.29,1.45.13,1.35-.04-.03-.02.3.02.39.05.09.02.29-.03.26-.05-.03.02.21,0,.25,0,.01-.01.05-.02.1-.01.07-.01.07.04.01.09-.12.11.03.03.24-.03.09-.03.27,0,.27.04,0,.04.08,0,.07-.17-.03.03.13-.05.18-.06.03-.03.41.03.47.04.04.05.04.05,0,0-.07.05.02,0,.12-.06.12.05.1.02.16-.01.02,0,.04.02.04.03,0,.03.02,0,.07-.06.11-.03.24-.07.22-.05-.03,0,.46-.07.49-.06.02-.01.18.03.16.11-.07,0,.29,0,.17,0-.04-.01-.05-.05,0-.04.04-.04.06,0,.09.07.07.03.22.08.22.05,0,.05.28,0,.36-.06.09-.05.23,0,.35.06.11-.03.43.01.46.06.04.03.24-.04.25-.08.02-.13.21-.07.24.08.05-.09.34.02.62.05.14.02.24-.09.31-.04.02-.05.04-.02.04.06,0,.01.12-.03.09-.05-.03-.05.06,0,.06.06,0,.02.17.08.21.03.02.03.04,0,.06-.04.02-.04.04,0,.08.11.11-.2.33-.05.43.21.15-.14.47-.02.39.06-.04.1.13.04.17-.07.04-.01.47-.06.44-.06-.04-.04.66-.11.78-.02.03-.01.04.01.02.04-.03.06.06.05.22,0,.09.07.04.07.12,0,.09-.1.03-.06.11.03.09-.06-.01-.07.3-.02.36-.16.25-.11.38.05.13.16-.13.11.09-.05.2-.15.18-.03.28.07.06.08.09.06.29-.01.12-.03.23-.03.24-.03.03.11.11.02.13-.19.06-.19.05-.18.27,0,.16.02.2.06.19.03-.01.04-.04.03-.06-.01-.02,0-.03.02-.01.05.03.05.33,0,.33-.03,0-.09.12-.02.09.08-.03.11.1.04.16-.07.07-.06.12-.07.21-.02.13.11.23,0,.32-.06.04-.06.05,0,.07.12.04.06.43-.02.53-.05.05-.05.07-.01.05.05-.03.05-.02.01.02-.04.05-.03.07.01.14.06.08.07.37.01.45-.02.02-.04.09-.05.16-.03.2.09.07.09.18,0,.03-.02.06-.04.06-.04,0-.03.11.01.18.04.06,0,.13-.05.1-.02-.01-.04,0-.04.02,0,.06.08.02.08.1s.08.01.08.17-.08.05-.08.11c0,.02.01.04.03.04.04,0,.03.61,0,.61-.02,0-.03.02-.03.04,0,.06.09-.04.1.09.02.19.06.27-.06.32-.11.05-.09.17-.06.11.02-.06.12-.07.05,0-.06.07-.23.08-.23,0s-.09-.07-.06-.02c.05.09-.47.07-.52.13-.02.02-.07,0-.13-.03-.09-.06-.11-.06-.21-.01-.08.04-.11.04-.09,0,.03-.07-.59-.05-.57,0s-.33.03-.38-.02-.18.07-.35.07c-.06,0-.14.02-.16.04-.05.05-.18.01-.15-.04.03-.04-.09-.04-.09,0,0,.05-.47.04-.5,0-.02-.03-.04-.01-.05.04-.05.15-.14,0-.33.1-.16.08-.14-.03-.29,0-.14.04-.07-.1-.18-.1-.04,0-.04,0,0,.03.03.02.03.05,0,.1-.1.13-.1-.03-.38,0-.26.03-.7.04-.75.09-.05.05-.2-.02-.36.03-.17.06-.17-.05-.32.02-.18.09-.11-.09-.28-.03-.44.14-.27-.07-.51.05-.23.11-.19-.11-.34-.03-.11.06-.18-.03-.14.07.03.1,0-.02-.15-.03-.16-.01-.05-.07-.23-.03-.18.04-.17-.03-.19.05-.02.06-.23.05-.27,0-.01-.02-.06.01-.12.07-.09.09-.1.09-.13.04-.04-.08-.28-.09-.31-.02-.01.04-.03.04-.07,0-.07-.05-.35-.06-.32-.01.03.04-.06.06-.06-.03,0-.09-.07,0-.15-.08-.11-.11-.04.09-.21.05-.15-.04-.25.09-.25.02,0-.06-.06.02-.09-.05-.03-.08-.11.1-.15.06-.04-.04,0,.05-.08.05-.08,0,.01-.14-.06-.14-.02,0-.03.02-.02.04.04.06-.02.05-.08-.02-.07-.07-.1-.02-.67,0-.57.02-.56.07-.59.02-.03-.04-.14-.01-.18.05-.02.03-.04.02-.07-.03-.04-.07-.3-.1-.3-.03,0,.04-.2.01-.23-.04-.03-.04-.34-.02-.42.02-.03.02-.06.01-.07-.01-.05-.08-.47.08-.55,0-.05-.05-.31-.01-.34.04-.01.02-.05.02-.08,0-.07-.05-.19,0-.19-.04,0-.05-.24-.04-.3.02-.04.04-.07.03-.15-.02-.15-.1-.66-.05-.68-.03-.01.01-.05,0-.09-.04-.06-.06-.08-.06-.18,0-.08.04-.12.04-.14.02-.02-.02-.04-.02-.06.01-.03.04-.03.04-.03,0,0-.09-.31.01-.31-.04,0-.04-.16,0-.2.05-.02.03-.05.02-.08-.03-.05-.07-.14-.09-.13-.04.03.18-.09.1-.06.05.03-.04-.08-.1-.04-.04.03.05-.12.06-.2,0-.04-.02-.1-.01-.19.02-.23.09-.46-.02-.46.06,0,.03-.02.03-.06,0-.05-.04-.06-.03-.06.03,0,.09-.06.11-.1.02-.02-.03-.08-.06-.14-.07-.18-.01,0-.07-.31-.06l.19.05c-.24.07-.36.11-.36.05,0-.02-.03-.02-.1,0-.13.05-.14.05-.12-.05.03-.12,0,.02-.06-.02-.06-.03.02.03-.03.1-.03.05-.04.05-.09-.01-.06-.08-.21-.06-.21.03,0,.07-.15.05-.15.01,0-.04-.29.12-.34.12-.06,0-.09-.08-.04-.11.03-.02,0-.03-.07-.02-.17,0-.1.07-.17.06-.21-.03-.07.08-.15.08-.1,0-.15.03-.25-.03-.05-.03-.09-.03-.12,0-.04.04-.17,0-.14-.05.03-.04-.05-.05-.08,0-.03.05-.13-.03-.09.02.03.03-.09.16-.2.1-.1-.05-.23-.05-.23,0,0,.08-.12.08-.23,0-.19-.13-.36-.03-.45-.09-.1-.06-.15.11-.27,0-.09-.08-.09-.04-.24-.11-.18-.08-.04-.28-.16-.35-.12-.08.1-.1.02-.35-.03-.09-.03-.14,0-.17.03-.03.03-.04,0-.04-.09,0,.02-.24-.05-.36-.06-.1-.05-.6-.1-.63-.04-.03-.02-.23-.08-.56-.03-.15-.03-.24,0-.25.02-.02.02-.03,0-.05-.06-.04.03-.19-.04-.27-.03-.03-.04-.06-.02-.06s0-.03,0-.06c-.07-.13.08-.25-.05-.41-.11-.14,0-.07,0-.26,0-.17.11-.24.05-.2-.05.03-.12-.09-.03-.14.07-.04,0-.01,0-.53,0-.66-.15-.43-.06-.66.04-.09.04-.13,0-.14-.05-.02-.06-.15,0-.18.05-.03-.02-.11.02-.2.21-.47-.1-.32.04-.58.16-.32-.07-.33,0-.45.06-.09,0-.2.05-.2.05,0-.05-.28.01-.34.08-.08-.09-.26.01-.35.08-.07,0-.16.08-.28.03-.05.05-.11.03-.13-.04-.07-.04-.4.01-.49.05-.1.06-.27,0-.3-.05-.03-.05-.16,0-.19.1-.04-.15-.11-.05-.17.04-.02.19-.2.12-.34-.07-.14.07-.15.1-.14.06.03-.17-.14-.11-.14.07,0,0-.19.05-.19.05,0,.04-.15,0-.15-.05,0,.03-.14-.05-.16-.04,0-.03-.06.05-.22.1-.23.13-.56.04-.62-.03-.02-.03-.04,0-.1.05-.06.05-.06,0-.03-.1.06.09-.09.05-.18-.02-.04,0-.06.03-.06.04,0,.04,0,0-.03-.09-.06.04-.08-.02-.31-.08-.3.09-.07.09-.74,0-.08.01-.3-.04-.27-.05.03-.04-.12-.01-.09.01.01.04,0,.07-.02.06-.06.03-.27-.05-.32-.05-.04-.05-.05.03-.08.05-.02.07-.04.04-.04-.07,0-.01-.12,0-.26.02-.12.12-.05.08-.36-.04-.33,0-.68-.07-.68-.02,0-.02-.02.02-.05.07-.06.08-.33,0-.33-.06,0-.07-.1,0-.12.1-.03,0-1.33.11-1.27.03.02.03.01.02-.02-.06-.1-.06-.32,0-.38.05-.05.05-.06,0-.12-.03-.03-.05-.07-.03-.08.04-.03.04-.73,0-.73-.07,0,.01-.83-.07-.88-.05-.03-.08-.45-.04-.48.04-.02,0-.3-.04-.34-.05-.05.06-.21,0-.21-.05,0-.05-.09,0-.06.05.03,0-.1-.07-.18-.04-.04-.04-.07-.01-.09.07-.05-.06-.07-.03-.23.02-.13-.07-.08-.01-.15.03-.04.03-.07-.01-.11-.08-.08-.08-.16,0-.1.14.11-.07-.07-.07-.15,0-.06-.06-.06-.09,0-.01.03-.02.01-.01-.03.01-.11-.11-.07-.18-.16-.04-.05-.05-.05-.14,0-.06.04-.1.05-.1.04,0-.03-.08,0,.02.08.07.05.07.05-.05.04-.1-.01-.13,0-.16.09-.03.08-.02.12,0,.16.03.04.03.04,0,.02-.06-.04-.06.04,0,.06.05.02.05.09.09.2.05.11-.13.33-.05.26.09-.08.02.13.11.3.11.2-.05.52.02.48.05-.03.03.62.08.67.02.02.02.08,0,.15-.04.12-.01.28.04.19.04-.07,0,.37.03.43.04.07-.02.28.04.23.06-.04.05,0-.05.18-.09.16-.09.17-.01.24.04.04.06.08.03.1-.07.04-.09.2-.05.31.09.22-.09.32-.02.74.03.2.03.26,0,.5-.01.12,0,.21.01.22.07.04-.12.24-.05.36s-.05.27.02.49c.03.09.03.14,0,.18-.03.04-.03.06,0,.07.07.02,0,.26-.04.24-.1-.06-.11.52-.07.5.02-.01.05.23-.03.19-.09-.03,0,.16.04.2.06.08-.09.21-.04.34.04.12.02.42-.04.4-.03,0-.03,0,0,.07.07.13-.06.16-.01.2.04.04-.06-.01-.04.12.03.14.09.07.09.14,0,.02-.01.03-.03.02-.05-.03,0,.3-.04.27-.03-.02-.04,0-.04.43,0,.34-.08.23-.08.19,0-.05-.06-.03,0,.08.08.15-.08,0,0,.26.06.23,0,.58.06.65.08.09-.08.23-.03.32.01.02,0,.08-.04.12-.05.06-.07.15-.07.37,0,.44.09.34.01.49-.04.08-.04.1,0,.12.07.02.06.12-.01.12-.12,0,.07.09-.02.25-.04.07-.04.1,0,.15.05.06,0,.21-.08.21-.06,0,.03.06-.03.13-.08.09.06.15,0,.25-.02.03-.01.07.02.09.04.03.05.08.02.2-.06.25.02.3-.07.42-.1.16.06,0-.01.37-.03.16-.03.23,0,.24.03,0,.03.04,0,.08-.16.31-.06,1.27.02,1.39.01.02,0,.07-.04.11-.12.14.11.14.02.25-.1.12.03,1.65.07,1.75.08.2.01.79.11.91.08.09.04.64.12.74.04.05.03.35-.01.45-.06.14.16-.02.04.16-.07.11-.05.35.04.45.03.03.06.1.07.14.02.08.15.24.21.24.07,0,0,.11.22.22.2.09.2.16.2.11,0-.08.15.13.36.05.05-.02.13,0,.21.02.07.03.13.04.13.03,0-.07.01.13.53,0,.19-.05.1.11.31,0,.18-.09.16.03.12.05-.13.04.22.11.08.06-.03-.01.01-.04.11-.08.27-.09.22.06.29,0,.05-.05.12-.01.11-.08-.02-.07.15.03.12.07-.03.05.06.05.06,0s.08-.05.07,0c-.01.07.13.08.17.02.04-.07.16-.04.12.03-.04.08.16-.2.12-.08-.05.15.26-.1.19.02-.04.06.16.09.14-.08,0-.01.03-.03.07-.04.12-.03.05.09.11.09.02,0,.03-.03.02-.07-.05-.16.1.21.21-.03.04-.08.05-.09.12-.05.12.06.04-.04.12-.04.06,0-.03.09.09.03.17-.08.33.13.33.02,0-.09.33,0,.29-.05-.03-.03.08-.12.13-.12.02,0,.03.02.02.04-.04.06.12.04.19-.02.05-.05.07-.05.11-.02.06.06.11.06.1,0,0-.03.02-.05.06-.06.15-.03-.13.19.09.15.13-.03.1-.08.21-.08.04,0,.07.02.05.04-.01.02.01.03.06.02.25-.05.06-.17.15-.17.02,0,.03.02.02.04-.01.02.03.03.11.02.25-.03.09.14.26.05.1-.05.11-.05.15.01.03.04.03.04.03,0,0-.09.15.05.15-.06s.09.04.23,0c.06-.02.07,0,.05.03-.03.09.17.05.15.01-.01-.02.03-.02.09,0,.16.04.28,0,.42.06.13.05.04-.04.22-.02.18.01.18-.1.18-.03,0,.06.18.07.21.01.01-.02.05-.03.08-.02.08.03-.03.12.09.05.14-.08.08.07.17.07.06,0-.03-.1.05-.1.03,0,.04.01.03.03s0,.03.04.03c.1,0,0,.07.18.05.2-.03.38-.03.44-.06.05-.03.32-.02.32.01,0,.01.05.02.11,0,.2-.03.14.1.32.03.07-.03.12-.03.15,0,.05.04.36.03.43-.01.07-.04.13.04.32.03.23-.01.21.1.35,0,.11-.08.15-.08.13,0-.02.04,0,.05.04.03.09-.04.03.08.12.05.03-.01.06,0,.06.02,0,.03.01.03.05,0,.05-.04.2-.03.24,0,0,0,.06,0,.12-.01.16-.05.28.09.36.06.02-.01.02-.02-.02-.02-.15,0-.06-.06.11-.06.23,0,.2.07.09.04-.15-.04.04.07.1.03.05-.04.2-.03.3,0,.04.02.09,0,.14-.05.11-.11.18-.05.09.02-.06.05-.06.05.03.05.06,0,.11-.02.13-.04.04-.06.09.05.26,0,.09-.03.1-.05.08-.12-.03-.08-.02-.08.05-.01.12.11.24,0,.24.08,0,.09.15.1.21,0,.05-.07.07-.08.17-.04.16.06.23-.02.23.05,0,.09.06-.07.17-.09.12-.02.15-.1.19.01.02.06.04.07.09.05.11-.05.52-.08.58-.05.08.04.14-.05.23,0,.09.05.12.05.09,0-.01-.02.03-.04.1-.04.48-.02.41-.08.48-.01.11.11.24-.12.33-.02.03.04.03.04,0,.02-.03-.02-.05-.01-.04.02.02.06.04.04.13.04.04,0,.05-.02.03-.05-.02-.04-.02-.04.02,0,.08.08.12-.11.18-.05.02.02,0,.05-.03.07-.11.07.12.03.12-.06,0-.05.05-.07.09-.03.03.03.42.05.47.01.06-.04.24-.07.29-.03.07.04.2-.08.35-.06.16.02.05-.07.23-.05.24.02.36-.07.65-.01.3.06.02-.05.31-.02.23.02.12,0,.2-.07.04-.04.05-.03.07.04.02.07.03.07.06.03.03-.05.04-.05.04,0s0,.05.04,0c.02-.03.04-.04.04-.02,0,.02.03.01.06-.01.08-.06.14.02.14-.03,0-.06.15.03.19-.05.06-.09.28.06.35.01.06-.03.1.11.1.04,0-.06.24-.06.27,0,.02.03.06.02.14,0,.4-.17.73.12.68.04-.02-.04.28-.13.27-.07,0,.05.28.06.28,0,0-.07.15-.1.21-.05.04.04.07.02.13-.08.1-.17.03-.19.07-.19.08,0,.02.14.16,0,.05-.05.07-.09.04-.09-.08,0-.13-.14-.08-.25.09-.19-.07-.13.02-.34.12-.28,0-.35-.03-.24-.02.06-.07-.16-.02-.19.02-.01.03,0,0,.03-.02.03-.02.04.01.02.07-.04-.09-.25-.12-.25-.02,0,0-.05.05-.11.08-.1.08-.13.04-.26-.07-.2-.06-.5-.1-.59-.05-.11.11-.24,0-.2-.08.03-.07-.06-.01-.06.03,0,.03-.01,0-.04-.15-.1.24,0,.12-.07-.08-.05,0-.09-.07-.26-.03-.07-.04-.13-.03-.14.03-.03.04-.25,0-.25-.05,0-.03-.1.03-.15.07-.06.08-.2.02-.26-.08-.08.09-.16,0-.26-.08-.1-.04-.71.05-.77.02-.01.02-.04,0-.06-.04-.06-.05-.53,0-.51.06.04.03-.06-.03-.1-.06-.04-.06-.04,0-.02.06.02.07,0,.05-.13-.05-.27.12-.24.03-.38-.05-.08-.03-.47.03-.58.02-.04.03-.12.02-.19-.04-.3.17-.1.04-.43-.04-.11-.05-.19-.03-.22.04-.05.03-.26,0-.33-.04-.06-.06-.39-.02-.37.02.01.07-.01.12-.06.13-.11-.02-.02-.03-.11,0-.09,0-.14-.07-.08-.09.08-.06-.08-.02-.08.06,0,0-.16.07-.18.04-.01.04,0,.02.07-.02.06-.01.08.01.05.08-.08.07-.31-.02-.34-.12-.05.12.19-.03.05-.06-.05-.06-.08-.03-.12.07-.08-.03-.1.06-.1.18,0,.02-.19.01-.41-.01-.23.13.01.13-.17,0-.08,0-.09-.04-.01-.02.04-.04.07-.04.06-.07-.24.15-.12.1-.25-.05-.13,0-.27-.07-.17-.08.11.02-.1-.04-.14-.04-.03-.05-.25,0-.25.03,0,.19-.22.07-.12-.04.03-.08.04-.09.03-.04-.04.19-.19.11-.15-.08.04.12-.21.04-.16-.07.04-.04-.03-.1-.17-.05-.11.08-.39,0-.47-.06-.06-.03-.18.04-.18.08,0,.08-.12.13-.09.05.03.04-.08-.01-.13-.04-.04-.04-.05,0-.07.04-.01.03-.03-.02-.07-.13-.1.07-.14-.04-.36-.09-.17.03-.27.06-.25.05.03-.03-.13.04-.13.03,0,.02-.03-.02-.06-.05-.05-.06-.1-.05-.2.03-.23-.09-.23,0-.33.04-.05.04-.06,0-.03-.05.03-.05.02,0-.02.07-.07.03-.19.09-.19.04,0,.07-.23-.03-.23-.04,0-.05-.01-.03-.03.05-.04.1-.2.05-.2s-.03-.3.02-.29c.05,0,.06-.09.01-.15ZM24.56,7.43c.03-.09.08-.04.02.02-.04.04-.04.03-.02-.02ZM15.91.1c-.1,0,.02-.05.05-.02.01.01,0,.02-.05.02ZM19.53.25c-.09-.06.07-.04.1,0,.03.05-.02.05-.1,0ZM1.07,1.99c.06.04.04.06,0,.06-.05,0-.05-.09,0-.06ZM.94,1.9s-.08-.08-.02-.08.04.08.02.08ZM4.71,23.04c-.07.07,0-.1.03-.07.01.01,0,.04-.03.07ZM13.28,23.71c-.1,0,.02-.05.05-.02.01.01,0,.02-.05.02ZM23.45,17.64c-.04-.06-.08.03-.11-.06-.03-.07.03-.16.14.05.03.06,0,.07-.03,0ZM24.26,14.86c.07-.03.12.03.02.02-.04,0-.05-.01-.02-.02ZM24.49,8.97c-.06,0,0-.08.02-.08s.03.08-.02.08Z"/>
  <path d="M23.42,17.02c.01-.13-.06.02-.04.05.03.05.04.04.04-.05Z"/>
  <path d="M23.66,5.2s0,.06.02.05c.03-.03-.02-.15-.02-.05Z"/>
  <path d="M.41,12.49c.03-.06-.02-.22-.02-.07,0,.06,0,.09.02.07Z"/>
  <path d="M.75,1.66s-.03.04.02.02c.09-.03.04-.08-.02-.02Z"/>
  <path d="M1.11,1.62c-.06.14-.22.06-.12.12.15.1.2-.32.12-.12Z"/>
  <path d="M23.42.97s.01-.04.04-.08c.13-.15-.13.02-.09.1.03.05.06,0,.05-.02Z"/>
  <path d="M4.93,23.75c0,.05.08.04.08.02s-.08-.08-.08-.02Z"/>
  <path d="M24.31,23.07s.06-.02,0-.06c-.05-.03-.05.06,0,.06Z"/>
</svg>