<?xml version="1.0" encoding="UTF-8"?>
<svg id="Layer_1" data-name="Layer 1" xmlns="http://www.w3.org/2000/svg" viewBox="0 0 47.91 16.84" fill="#2c2013" preserveAspectRatio="none">
  <path d="M11.97,14.85s.08-.08.02-.08-.04.08-.02.08Z"/>
  <path d="M26.62,1.4c-.07,0,.12.13.07.04-.01-.02-.04-.04-.07-.04Z"/>
  <path d="M35.86,1.71s0-.04-.01-.06c-.05-.03-.05.15.01.06Z"/>
  <path d="M4,1.11s-.05-.01-.07,0c-.07.03.1.03.07,0Z"/>
  <path d="M1,1.4s.12-.11.07-.11-.08.11-.07.11Z"/>
  <path d="M46.93,9.01c-.04-.18.12-4.19.12-4.19,0-.13-.08-.59-.05-.66.02-.04-.01-.21-.08-.33-.01-.02-.02-.15-.02-.29,0-.36-.07-.17-.08-.38,0-.24-.06-.35-.06-.61,0-.23-.07-.25-.09-.51-.02-.31-.16-.27-.12-.42.02-.07.01-.08-.05-.06-.11.04-.13-.13-.06-.13.05,0,.05-.01.01-.06-.07-.08-.1.02-.14-.08-.04-.1-.1-.16-.22-.2-.09-.03-.1-.03-.08.02.03.08-.05.13-.05.03,0-.11-.12-.09-3.06-.21-.18,0-.19-.1-.19-.04,0,.07-.88.02-.9,0-.06-.06-.05.09-.35.01-.07-.02-.12-.02-.12,0,0,.05-.27.02-.24-.01,0-.02,0-.03-.02-.03-.06,0-.03.11-.07.12-.07,0-.15.04-.18-.03-.03-.07-.02-.01-.26-.05-.25-.04,0,.05-.52.02-.59-.04-.54.09-.63,0-.06-.06-.12-.08-.08-.02.01.02-.01.04-.05.04-.13,0-.09-.11-.18-.04-.07.06-1.03.04-1.32-.02-.12-.03-.15.03-.3.18,0-.2-.02-.2-.03-.21-.39-.07-.48.06-.55.02-.06-.04-.76-.05-.76,0,0,.06-.48-.09-.51,0-.02.06-.16,0-.12-.05.03-.05-.1-.05-.1,0,0,.04-.84.01-.82.05.02.04-.15.04-.13,0,.03-.05-.33,0-.29-.06.02-.02,0-.03-.05-.01-.12.04-.51.06-.53.03-.03-.05-.29,0-.29-.04,0-.06-.38.05-.38-.03,0-.03-.02-.03-.08,0-.06.03-.78.03-.78,0,0-.04-1.15-.01-1.55-.05-.86-.09-.92.07-.92-.02,0-.03-.01-.04-.05,0-.05.04-.13.04-.46,0-.26-.03-.29.08-.29.03,0-.08-1.31.04-1.42-.13-.06-.1-.01.11-.18.07-.17-.04-.33.1-.41.02-.03-.04-.03-.04,0-.02.07.04,0-.11-.02-.06-.07.1-.92,0-.92.07,0,.07-.04-.09-.12-.03-.07.05-.56.03-.63-.03-.05-.04-.07-.04-.09,0-.05.07-.03-.03-.18-.01-.44.06-1.2.05-1.2.05-.33,0-.23-.11-.32-.03-.03.03-.05.03-.05,0,0-.07-.36,0-.32-.06.02-.03,0-.03-.03,0-.11.09-1.68-.06-1.68.02,0,.05-.04,0-.74-.03-1.64-.05-1.59-.14-1.64-.07-.04.05-.06.06-.06.02,0-.08-.12.02-.12-.05,0-.04,0-.04-.03,0-.03.04-1.08.1-1.02,0,0,0-3.48.06-6.7-.05-.19,0-.29-.03-.32-.06-.02-.03-.03-.03-.03,0,0,.07-.52,0-.56.05-.03.05-.49.02-.51-.03-.01-.03-.03-.04-.06,0-.07.06-.09-.03-.51-.03-.37,0-.4-.11-.39-.06.03.17-.08-.02-.27.05-.19.07-.14-.08-.24,0-.07.06-.32.01-.48,0-.1-.01-.14-.1-.14.04,0,.12-.09.22-.09.11,0-.28-.53-.11-.59-.2-.04-.06-1.86.04-1.97-.02-.03-.02-.04,0-.02.03.02.05-.02.05-.21.04-.31-.03-.21.04-.79.05-.63.01-.39.07-.8.11-.63.07-.4.14-.64.1-.25-.05-.33.11-.33.05,0-.02-.02,0-.04.04-.04.06-.05.06-.08,0-.1-.13-.21.12-.3-.01-.04-.06-.04-.06-.02,0,.01.05,0,.07-.05.07-.09,0-.37.31-.24.31.07,0-.05.13-.01.17.07.07,0,.43.21.28.13-.09.13,0,.28-.02.14-.03.05.07.18.05.05,0,.08-.03.08-.06-.01-.05.1-.06.2-.02.09.03.04.13.11.13.09,0-.05.02-.05.08,0,.02.02.03.04.01.05-.03.05.26,0,.23-.12-.07-.03.38.03.37.06-.01.06.05,0,.09-.07.04.05.07.01.16-.01.03,0,.05.01.04.05-.03.04.16,0,.16-.07,0-.02.12.07.15.08.03.09.05.08.17,0,.07,0,.13.01.13.05,0-.05.16.03.4.05.14.05.16-.03.22-.07.06-.08.09-.01.06.05-.02.13.18.1.27-.04.15.12.2.03.2-.03,0-.04.02-.02.07.11.28-.04.2.01.31.05.12-.03,1.22.04,1.33.11.17-.03,3.09.1,3.22.01.01,0,.04-.02.07-.06.07-.04.17-.09.24-.03.05,0,.23.06.3.02.03.01.06-.02.08-.08.05-.1.51-.15.9-.02.17.09.07.09.15,0,.06-.08-.03-.08.04,0,.02-.02.03-.04.02-.03-.02-.03,0,0,.06.09.17-.16,0-.16,3.91.19.16.22.17.17.26-.05.07-.03.19.02.19s.12-.13.12-.04c0,.07.12.15.1.2-.04.06.3.16.87.25.16.03.14.02.15-.16.03.18,0,.18.28.17.14,0,.26,0,.27.03.06.08.86.02,1.32.08.14.02.2,0,.25-.04.05-.04.07-.05.09-.02.02.06,3.93.08,4.03,0,.04-.03.06-.03.06,0,0,.1.73-.08.98-.04.29.05.12-.03.33-.03.07,0,.2-.02.3-.05.09-.03.36-.05.6-.05.68,0,.5-.11.74-.08.65.07.83-.08.98-.02.14.06.46-.02.54.03.1.07.15-.1.18,0,.02.06,0,0,.45-.02.78-.02.92-.03.97-.06.03-.02.07-.01.09.01.05.05.56.06.56,0,0-.05.08-.06.08.01,0,.13,1.33-.05,1.36-.01.03.05,2.5.16,2.5.16.03-.05.23-.07.24-.03.05.14,2.95.18,3.08.13.04-.02,1.61.16,1.73.1.15-.08.15.04.33-.01.26-.07.59.08.64,0,.04-.06.32.06.43,0,.04-.02.12-.02.22,0,.18.04.93.01.99-.04.06-.05.28,0,.41,0,.3.01.33-.1.49-.04.12.05.51.05.54,0,.02-.04.11-.04.18,0,.07.04.58.05.65.11.03.02.08.02.15,0,.13-.05.22-.05.2,0-.04.06,1.55.08,1.62.08.26,0,.58.03.57.03,0,0,1.44.11,1.52.18.1.08,2.93.13,3.09.26.04.04.06.03.06-.02,0-.18.52.1,2.48.14.52.01.5.08.5.04,0-.05.57-.01.6-.06.02-.04,0,.05.76.03.31,0,.58,0,.6,0,.08.05.54.05.57,0,.02-.03.03-.03.03.02,0,.05.04.07.16.07,0,0,1.56.05,1.59.15.03.08.07-.06.2-.02.15.05.89.05.95,0,.04-.03.06-.03.08,0,.03.05.23.02.24-.04.03-.24.08-.15.32-.4.02-5.33-.01-5.33.03-5.33.03,0,.03,0,0-.03-.08-.06-.05-1.99-.05-1.99ZM2.27,1.28s.06.04.04.05c-.08.05-.23-.12-.04-.05ZM36.41,16.15c-.06,0,0-.08.02-.08s.03.08-.02.08ZM46.31,5.01c-.13.16-.14,5.23-.09,5.25.03.01.03.04,0,.08-.07.14-.03,2.41-.03,2.45-.02.61.1.57.04.61-.05.03-.1.44-.06.52.02.04.02.2,0,.39-.05.47.06.53.02.6-.05.07.01,1.04-.05,1.08-.06.04-.87.04-.94,0-.19-.1-.89-.05-.89-.11,0-.04-.28-.03-.34,0-.08.05-.07-.03-.34-.06-.21-.03-.19-.02-.25.16-.03-.15-.01-.17-.2-.17-.25,0-.62-.16-.74-.06-.14.12-.16.16-.16.08,0-.09-.17-.12-.3-.05-.06.03-.12.04-.12.03,0-.15-1.5-.02-1.67-.08-.12-.05-.11.06-.18.01-.07-.05-.45-.02-.69-.08-.24-.05-.36.05-.4,0-.04-.05-.52-.03-.78-.09-.11-.03-.55.05-.58,0-.03-.05-.28,0-.45-.04-.54-.13-.57.04-.66-.03-.06-.05-.15.01-.4-.03-.32-.06-.32.1-.38-.01-.04-.07-.13-.08-.15-.02,0,.02-2.45-.29-2.88-.29-.64,0-.5-.07-.68.02-.14.07-.21.05-.16-.05.01-.03,0-.01-.04.03-.05.06-.06.07-.06,0,0-.05-.03-.06-.12-.05-.77.12-.8-.2-.86.19-.01-.26.01-.24-.56-.27-.96-.05-.79-.09-1.04-.02-.11.03-.19.04-.2.02,0-.02-.1-.02-.25,0-.58.08-2.09.05-2.44.05-1.53,0-1.29-.08-1.79-.06-.11,0-.16,0-.14-.03.02-.03-.01-.04-.07-.04-.14,0-.08.13-.14.04-.02-.03-.04-.04-.04-.01,0,.1-1.14-.04-1.29.05-.06.03-.09.03-.13-.02-.04-.05-.05-.05-.1,0-.03.04-.05.05-.05.02,0-.07-.09,0-.13-.03-.03-.03-.44-.03-.44,0,0,.04-.1-.06-.84-.1-.57-.03-.72-.12-.7-.1.03.04-.13.08-.19.05-.04-.03-.94-.06-1,.02-.03.04-.06.04-.13-.02-.11-.09-.72-.15-.73-.07,0,.03,0,.03-.03,0-.05-.08-.21-.09-.3-.03-.05.03-.09.04-.09.02,0-.07-.11-.08-.17-.03-.03.03-.07.04-.08.02-.03-.04-.34-.01-.36.04,0,.02-.04.02-.07,0-.09-.08-.94-.02-.91-.07.03-.04-.19-.06-.15.01.04.06.03-.04-.41-.04-.2,0-.29.01-.23.03.06.02.07.03.03.03-.1,0-.05.13-.1.04-.07-.12-2.21.03-2.21.03-.06-.04-.24-.06-.22-.03.03.05-.48.09-.61.05-.17-.05-.18.05-.3-.01-.07-.04-.07-.04-.02.03.03.04.04.06.01.04-.07-.04-.32.06-.32.01s-.14-.04-.16.02c-.02.05-.4.06-.48,0-.02-.01-.04,0-.04.03,0,.05-.04.05-.19.04-.28-.03-.19.03-.55.05-.12,0-.24.03-.26.05-.04.04-.15.01-.13-.03.02-.03-1.25,0-1.27.07,0,.03-.05.03-.12,0-.17-.09-1.34-.01-1.34-.06,0-.03-.15,0-.21.05-.05.04-.14-.05-.1-.1.04-.04-.07.01-.05.05.03.04-.32-.03-.39,0-.09.03-.14-.11-.17-.02-.07.19-2.25-.1-2.37-.03-.09.05-.1.04-.12-.01-.01-.06-.02-.06-.02,0,0,.08-.08.09-.08,0,0-.05-.13-.08-.25-.06-.09.02-.35-.09-.36-.14,0,0-.05-1.4.04-1.52.13-.17-.12.11-.07-.03,0,0,.52-5.19.29-5.19-.04,0-.05-.08.02-.08.09,0-.03-.25,0-.3.04-.07.06-.35.02-.42-.02-.04-.03-.08,0-.09.05-.03-.04-.4.01-.47.02-.03.02-.05-.01-.06-.04-.01-.04-.03,0-.05.11-.08.02-.44,0-.76-.02-.25-.16-.29-.1-.29.08,0,.01-.3.09-.19.06.09-.01-.17-.04-.21-.05-.06.04-.27.02-.29-.02-.02-.05-.94-.08-.99-.04-.06-.04-.41,0-.39.02.01.02,0,0-.03-.05-.07-.11-1.09-.2-1.2-.03-.04-.1-.48-.09-.59,0-.03-.01-.05-.03-.05-.05,0,0-.1-.11-.13-.04-.01-.07-.05-.05-.08.02-.05-.05-.12-.08-.09-.01.01-.1.45-.1.25,0-.13-.14-.05-.09-.23.03-.12.09-.16.14-.11s.2.05.26-.01c.08-.1.27.02.36-.05.13-.11,2.04-.18,2.08-.11.01.02.04.02.05-.01.04-.07,1.32-.08,1.48.05.08.06,0-.05.12-.05.04,0,.08.02.08.05,0,.03.01.03.04,0,.07-.11.04.07.43-.02.09-.02.1-.02.08.04-.05.14.11-.09.18.02.02.04.04.04.04,0,0-.06.09-.06.06,0-.03.05.11.05.08,0-.02-.03.8-.07.76.03-.02.05-.01.05.03,0,.09-.12.39.05.45-.04.02-.04.04-.03.08,0,.09.08.41.06.48.1.02.01.04,0,.04-.01,0-.08.67-.07.85,0,.09.04.13-.05.24-.03.16.03.58.03.57,0-.03-.04.08-.03.13.01.07.07.02-.05.22-.02.19.03.15-.06.22-.06.02,0,.03.02.01.04-.04.07.18.03.27.08.05.03.19,0,.2-.04.01-.04.2-.01.2.03,0,.05,1.99.03,1.99.03.08.07.09.07.19,0,.23-.15.27.06.62,0,.23-.03.12.02.22.02.04,0,.06-.01.05-.03-.03-.04.13-.08.22-.05.12.04.59.03.69.07.13.05.14-.13.41-.06.22.06.35-.03.35.04,0,.06.09.05.06.01-.03-.05.2.03.29-.06.06-.06.07-.06.12,0,.07.07.31.1.41.05.11-.06.33.07.33,0,0-.06.16.02.13-.03-.08-.13.19.17.66.02.07-.02,0,.05.37.06.48,0,.83.04.83-.01,0,0,1.7.11,2.01.06.1-.02.19-.01.25.02.05.03.11.04.13.03.07-.03.31.07.34.03.03-.04.4-.05.4,0,0,.05.09.05.06,0-.03-.05.08-.08.12-.04.04.04.93.07.9.03,0-.01.09-.02.22-.01.34.01.22.12.34.05.09-.05.68-.04.71,0,.01.02.04.02.06.01.07-.04.19-.05.19-.01,0,.02.04.01.1-.02.21-.14.2.11.41-.02.09-.06.1-.06.16.01.03.04.06.06.06.04,0-.05.23-.06.23-.02,0,.04.15.03.15,0,0-.04.36,0,.42.05.04.03.05.03.03,0-.03-.06.1-.09.17-.05.08.04.34-.08.51.03.05.03.34.02.4-.01.02-.01.07-.01.11,0,.13.07.6-.04,1.1.03.4.05,1.02,0,1.09.04.06.03.42.05.39.01,0-.02,0-.04.04-.05.07-.03.21.05.21.11,0,.02.02.01.04-.02.03-.05.04-.05.08,0,.02.03.04.04.04.02,0-.02.02-.02.04,0,.07.07.29-.1.25-.04-.02.04.54.03.69,0,.13-.03.04.05.17.05.21,0,.24.1.37-.03.05-.05.07-.07.06-.04-.05.09.2.15.31.07.09-.05.28.14.36.06.07-.07.25.04.28-.01.03-.05.44-.01.5.05.05.04.07.04.11-.02.05-.07.21-.06.21.02,0,.02.02.02.05-.02.07-.08.24-.12.29-.06.05.06.7.04.74-.02.04-.07.23.07.3.03.08-.05.16.1.25.02.08-.06.16.02.35,0,.07,0,.12.01.12.03,0,.03.02.03.08,0,.13-.07.92.13.87.05-.03-.05.09-.1.09-.03,0,.07.16.02.98.02.3,0,.51-.01.51-.04,0-.02.03-.04.06-.04.09,0,0,.07.2.06.08,0,.17.02.19.04.06.06.12.06.12,0,0-.05.05-.02.27-.05.24-.04.68.05.7,0,.02-.05.26.04.47,0,.08-.01.16-.02.17,0,.04.05.2.05.23,0,.04-.06.2,0,.17.05-.02.03,0,.03.03,0,.07-.04.53-.05.64-.01.05.02.08.02.07,0-.04-.06.1-.08.17-.03.03.03.09.04.13.03.09-.03.57,0,.55.03-.02.04.16.03.25.05.03,0,.05-.01.04-.04,0-.04,0-.04.04-.01.06.05.74.06.83.01.05-.03.1-.02.18.02.14.08.3.03.32.36.01.24.09.34.06.39-.04.06.09.25.03.37-.08.16.11.08.17,1.08.02.29.09.89.11.91.01.01,0,.04-.02.06Z"/>
</svg>