<?xml version="1.0" encoding="UTF-8"?>
<svg id="Layer_1" data-name="Layer 1" xmlns="http://www.w3.org/2000/svg" viewBox="0 0 46.69 24.23" fill="#2c2013" preserveAspectRatio="none">
  <path d="M45.82,8.31c.06-.04.05-.13-.02-.2-.04-.04-.05-.07-.02-.11.04-.05.1-.53.01-.64-.08-.09,0-.23-.05-.2-.04.02-.04,0-.05-.18,0-.12.04-.14.07-.04.02.08.02-.74-.02-.78-.02-.02-.03.02-.03.08,0,.09,0,.1-.03.04-.06-.15.17-.52.08-.46-.1.06-.19-.27-.13-.23.02.01.06-.02.08-.07.04-.09.04-.09-.03-.06-.1.06-.18-.05-.13-.16.08-.16.09-.38.03-.53-.09-.21.02-.12-.1-.22-.2-.17.14-.07-.04-.48-.12-.28,0-.12,0-.4,0-.3.08-.46-.04-.43-.04.01-.07,0-.06-.02.01-.06-.05-.18-.04-.26.04-.55.04-.75-.02-.77-.07-.02-.05-.22.02-.31.03-.04.03-.05.02-.04-.04.04-.17-.08-.17-.16,0-.09.1-.15.06-.15-.05,0,.08-.12.01-.21-.08-.1.06-.28-.05-.23-.11.04-.05-.2-.18-.2-.11,0-.06-.14-.1-.1-.01.01-.05-.01-.09-.06-.13-.17-.61-.22-.58-.06.04.22-.26-.22-.32-.12-.02.03-.01.04.02.02.02-.01.04,0,.04.02,0,.07-.14-.01-.17.04-.03.05-.26.07-.12-.07.08-.08-.09,0-.09.04,0,.05,0-.01-.15.03-.15.04-.1-.02-.3-.06-.18-.03-.14-.07-.32.02-.36.17-.53-.08-.58,0-.03.05-.09-.02-.21.04-.12.06-.09-.02-.33-.05-.14-.02-.16,0-.19.06-.02.07-.03.07-.06.01-.06-.11.14-.24-.05-.12-.12.08-.27.12-.24.06.01-.02,0-.03-.03-.03-.08,0,0,.06-.06.06-.09,0,.04-.33-.16-.11-.1.11-.22.08-.34.11-.1.02.03-.16-.2-.04-.06.03-.07.03-.05,0,.02-.04.02-.04-.03,0-.06.05-.23.05-.23,0,0-.03-.72-.04-.85.07-.04.04-.07.05-.05.02.06-.1-.21.06-.21-.06,0-.07-.04-.08-.11-.02-.07.07-.16.07-.16,0,0-.07-.11-.07-.14,0-.02.04-.04.05-.07.02-.07-.06-.11.04-.08-.05.04-.09-.2-.02-.23,0-.11.09-.11-.2-.44.04-.08.06-.2.01-.17-.06.02-.05,0-.05-.06,0-.14.08-.4.07-.35-.01.03-.05-.04-.04-.09.01-.04.04-.06.04-.08,0-.03-.05-.04-.05-.09,0-.06.08-.13.09-.16,0-.05-.14-.4.11-.34-.03.03-.09-.09-.07-.09-.02,0,.04-.1.04-.17,0-.07-.04-.27.02-.37-.07-.06-.05-.07-.05-.04.01.05.14-.15-.03-.19.08-.05.12-.32.01-.22-.05.04-.03.04-.04-.02-.06-.09-.03,0,0-.1.12l-.08.09s-.14-.17-.14-.12-.14.06-.17,0c-.03-.05-.39-.03-.45.03-.06.06-.12.06-.1,0,.04-.11-.39-.02-.51-.12-.04-.03-.05-.03-.03,0,.05.09-.2.11-.15.01.01-.02-.04-.03-.11-.03-.18,0-.15.12-.23.09-.1-.04-.07.11-.18-.05-.11-.17-.08.03-.03.03.05,0,.07.11-.03.03-.07-.06-.18-.05-.14.02.02.02,0,.03-.02.01-.07-.04.03-.08-.09-.14-.11-.06-.02,0-.07.08-.02.04-.04.04-.04,0,0-.03-.05-.05-.13-.05-.18,0-.25-.13-.17,0,.09.15,0,.12-.03.05-.03-.08-.14-.02-.12.02.04.06-.48.07-.27-.01.07-.03.07-.15.02-.06-.02.04-.04.04-.04.01,0-.03-.03-.04-.11,0-.22.08.11-.08-.02-.08-.1,0-.09.13-.19.09-.04-.01-.05-.04-.04-.06.01-.02,0-.03-.02-.01-.08.05.07.13-.14.1-.08,0-.18.22-.28.04-.03-.06-.04-.06-.08-.01-.03.04-.05.05-.12.01-.14-.07-.59-.08-.55,0,.02.03-.03.05-.11.04-.04,0,0,.08-.09.05-.03-.01-.06-.05-.06-.08,0-.06-.1-.07-.13-.02-.03.05-.11.05-.07,0,.04-.07-.03.01-.15.03-.14.02-.22.09-.19.01.03-.07-.07-.05-.32-.08-.24-.03-.18.06-.25.03-.09-.03-.14.13-.23.06-.08-.06-.19.02-.27-.04-.08-.07-.33-.06-.37,0-.06.1-.48.05-.43-.12.01-.04,0-.05-.01-.02-.05.06-.32.05-.3.09.04.06-.11.1-.26.07-.11-.02-.16-.01-.19.03-.09.11-.1-.09-.23-.02-.05.03-.07.02-.07,0,0-.02-.05-.04-.11-.03-.15.02-.22-.08-.32-.05-.12.03-.14-.13-.14-.04,0,.07-.12.01-.3.13-.12.08-.13.08-.18.01-.03-.04-.04-.08-.03-.1.03-.04-.1,0-.1.05,0,.04-.11.05-.11,0,0-.05-.11.09-.14.13-.08-.15-.07-.17-.23-.14-.22.04-.28,0-.25.08.05.13-.08-.09-.14-.05-.03.02-.05-.09.03-.07.05.02.05.01.01-.03-.08-.08-.13.06-.18.01s-.18-.04-.18.02c0,.03.02.04.05.02.03-.02.03,0,0,.04-.04.05-.04.06,0,.06.03,0,.04.01.02.03-.05.05-.16-.16-.26-.1-.04.02-.06.02-.08-.03-.02-.06-.03-.06-.03,0,0,.1-.06,0-.1.06-.03.05-.23.02-.27.08-.02.03-.04.03-.06-.01-.05-.08-.27-.02-.2-.05.08-.04.01-.09-.11-.09-.17,0-.06.06-.18.16-.04.04-.06.04-.04,0,.02-.03.01-.05,0-.05-.09,0-.14-.05-.32.05-.13.07-.15.08-.18.03-.02-.03-.04-.04-.04-.01,0,.07-.13.09-.2.03-.05-.03-.11-.04-.23-.01-.23.05-.52.05-.55.08-.05.05-.1-.1-.17-.02-.04.04-.2.09-.16-.03.05-.14-.18-.05-.15.01.02.06-.42.05-.49,0-.1-.07-.16-.1-.13-.06.07.11-.66.23-.66.1,0-.13-.16,0-.15.04.02.04-.32.04-.38,0-.08-.05-.18.11-.22,0-.03-.08-.08-.07-.11.03-.04.15-.04-.04-.16,0-.09.04-.24-.08-.33-.07-.12.01-.21,0-.29.08-.09.09-.39.1-.44.01-.04-.07-.19-.13-.19-.07,0,.05-.1,0-.13.11-.03.1-.08.1-.11,0-.02-.06-.04-.07-.12-.03-.16.07-.16-.09-.26-.02-.07.05-.41.03-.45.09-.02.03-.03.03-.05,0-.04-.06-.17-.04-.15.02.02.06-.15.08-.12-.02.02-.05.01-.05-.04,0-.03.04-.06.06-.06.03,0-.06-.18-.06-.21,0-.02.03-.04.02-.07-.01-.06-.07-.17-.11-.19-.07,0,.02-.11.02-.22,0-.3-.03-.36.04-.46-.01-.05-.03-.06-.02-.05,0,.06.09-.35.13-.2.04.04-.02.04-.04,0-.08-.03-.03-.07-.03-.16,0-.13.05-.31.04-.36-.02-.04-.05,0,.06-.11.15-.07.07-.08.07-.16-.02-.05-.05-.09-.07-.1-.05-.03.08-.11-.07-.33,0-.19.06-.25-.05-.25,0,0,.06-.27-.08-.43-.03-.17.05-.26-.03-.26.06,0,.11-.05-.04-.21-.04-.08,0-.09.01-.07.07q.02.08-.04,0c-.09-.12-.81-.06-.89-.04-.19.04-.09-.06-.16-.06-.02,0-.04.03-.04.06,0,.06,0,.07-.09.03-.1-.04-.02-.16-.13-.11-.04.01-.12.04-.18.06-.1.03-.1.03-.06-.03.03-.04,0-.03-.05.02-.1.09-.23.12-.23.05,0-.06-.18.04-.21-.06-.03-.07-.2-.06-.37.02-.09.04-.11.04-.14,0-.02-.03-.03-.06-.02-.08.02-.03-.15-.01-.24.03-.04.02-.12.02-.19.01-.12-.02-.29.02-.29.08,0,.05-.08.04-.16-.03-.1-.09-.57-.07-.51.02.08.13-.24-.01-.44-.02-.26,0-.29-.11-.26,0,.03.09-.09.08-.07.01.02-.06-.14-.07-.18-.01-.02.03-.03.02-.03-.01,0-.08-.12.01-.12-.04,0-.05-.13.03-.21-.04-.05-.04-.06-.04-.06.02,0,.05-.03.06-.09.05-.13-.02-.03-.12-.13-.1-.08.01-.2.11-.18.15.02.03-.09.03-.09,0,.02-.21-.17-.01-.11-.1.02-.03-.13-.04-.2-.01-.05.02-.17-.04-.37.07-.13.08-.27.08-.22,0,.03-.05-.06-.05-.06,0,0,.05-.12.03-.16-.02-.01-.02-.06-.02-.1,0-.09.04-.28.06-.26.02.02-.04-.21-.03-.21.02,0,.02-.02.01-.03-.01-.04-.06-.2-.03-.2.04,0,.05-.26.07-.09-.06.12-.09-.18-.02-.22,0-.07.04-.23.05-.2,0,.02-.04-.11-.05-.08.02.02.04-.02.05-.14.04-.67-.07-.64.06-.74-.03-.09-.09-.14,0-.27-.01-.15-.01-.04.15-.23.13-.5-.06-.5-.08-.55.03-.06.14-.27.06-.27.02,0-.08-.07-.02-.1.08-.01.06-.06.13-.1.15-.19.1.05.29.12.25.05-.03.14.21.18.21.15.02.21.06.29-.05.05-.07.08-.09.16-.07.08.02.09.03.05.07-.08.1.38.01.53-.13.17-.16.11.13.23.08.1-.04.21-.02.28-.08.1-.1.1.19.41.09.06-.02.1-.01.13.02.03.04.03.03.01-.02-.04-.11.05-.02.2-.1.08-.04.1-.04.14.02.04.05.06.06.08.02.04-.06.44-.04.46.02.05.15.36-.17.43-.07.04.07.04.12,0,.09-.04-.03-.06.18.05.03.07-.1.32-.05.32-.09,0-.05.12-.07.19-.04.05.03.08.02.09-.03.05-.13.11.16.18.06.03-.04.03-.04.03,0,0,.05,0,.05.04,0,.03-.05.04-.05.04,0,0,.07.03.08.13.04.08-.03.03-.1-.03-.07-.03.02-.03.01,0-.02.06-.06.17-.01.17.08,0,.1.17.08.13.03-.05-.07.1.03.1-.03,0-.05.11.03.16-.04.05-.07,0,.02.13.03.13.01.07-.05.15-.05.04,0,.05.01.02.04-.04.04-.01.14.04.14s.02-.19.07-.19-.01.04.03.11c.05.09.1-.04.32-.04.18,0,.41-.04.39-.07-.02-.03.12-.05.06.01-.06.06-.05.12.01.07.08-.06.07.03.15-.04.08-.07.16.02.2-.04.03-.06.18-.05.15,0-.04.06.06-.04.18.06.08.07.08.07.23-.02.13-.07.15-.08.17-.03.02.06.32.07.32.01,0-.02.02-.02.03-.01.06.04.01-.09.15-.02.15.08.58-.11.65.07.02.06.23.07.26.01.04-.07.25.02.24-.06-.01-.06.07-.06.06,0-.01.06.36.06.47,0,.07-.04.09-.04.1,0,.02.05.25.06.33,0,.02-.02.07-.01.09,0,.06.04.63.02.66-.03.02-.03.19-.08.16.04-.04.15.14-.08.18,0,.02.04.6.03.66,0,.06-.04.26.1.22.05-.02-.03,0-.04.08-.03.04,0,.1-.15.08-.02-.01.1.11.12.19.04.05-.04.41-.21.35.1,0,.04.13-.06.16-.02.04.04,0-.07.07-.07.1,0,.16-.17.22-.08.05.09-.03.08.07.16.06.05.06.04.04-.01-.02-.05,0-.06.03-.04.03.01.06,0,.06-.03,0-.04,0-.04.03,0,.09.15.3-.13.25-.04-.04.08.18.01.15.1-.03.07.26.07.23,0-.01-.04,0-.04.06,0,.05.03.07.03.06,0-.03-.05.13-.13.13-.1,0,.01.02,0,.05-.02.06-.05.1-.02.08.05-.03.07.08.12.05.07-.03-.05.05-.12.06,0,0,.08,0,.08.04-.02.03-.09.05-.1.15-.08.08.02.11,0,.11-.03,0-.03.03-.01.06.04.12.17.01-.04.28-.01.31.04.33-.2.44-.04.11.15.01-.05.32-.03.23.02.34,0,.34.06,0,.02.03,0,.07-.04.07-.08.23-.11.23-.04,0,.05.09.05.05,0-.05-.08.5.1.73-.02.18-.1.16.09.4.04.32-.06.34-.03.31-.12-.03-.08.07-.07.04-.02-.06.1.42.14.49.02.04-.08.23-.08.2,0-.03.08.14.05.14.01,0-.05.12-.03.14.03.03.07.18.07.29,0,.09-.06.52-.07.57,0,.05.07.45-.23.39-.07-.03.08.06.07.06,0,0-.07,0,.04.21.03.21-.02.26,0,.35-.08.08-.08.23-.1.17-.03-.05.06,0,.11.07.21.07-.13.08-.17.14-.12.04.04.05.03.05-.01,0-.11.14.03.2-.08.04-.08.11-.08.08,0-.03.07.08.25.04.11-.03-.1.05-.12.12-.02.09.13.05-.07.13-.07.05,0-.03.11.03.11s0-.04.04-.12c.03-.05.04-.05.04,0,0,.03,0,.07,0,.09,0,.06.23,0,.2-.05-.03-.04.08-.11.04-.04-.04.07.15.03.14-.03-.01-.06.11-.06.1,0-.02.08.22,0,.13.06-.04.03-.04.04.01.06.04.02.07,0,.09-.04.09-.23.26-.09.2-.09-.07,0-.04.06.07,0,.08-.04.1-.02.08.08-.01.07.08.02.12-.07.06-.13.11-.03.11-.11s.12-.07.14.02c.01.06.04.07.08.05.1-.04.23,0,.23-.08,0-.07.11-.07.11,0,0,.1.13.01.31.01.13,0,0-.12.18-.09.2.03.35,0,.44.1.12.15.19-.09.32.02.12.1.25-.1.43.01.08.05.19-.08.25-.06.05.01-.03-.09.15-.05.19.04.22,0,.3.08.05.05.08.05.12,0,.03-.03.06-.04.06-.02s.03,0,.06-.02c.11-.09.17.12.17-.02,0-.06,0-.06.03-.01.04.09.19.03.26.07.05.04.17.04.17,0,0-.11.53-.12.66,0,.15.13.37-.24.42-.03.03.12.05,0,.33.02.33.01.13-.25.53-.01.23.13.09-.09.24,0,.12.06.04-.04.11-.04.08,0-.07.3.05.13.07-.1.25-.14.25-.06,0,.03-.02.04-.04.03-.06-.04-.06.16.1-.02.04-.04.06-.08.04-.08s-.02-.01,0-.02c.05-.05.18.1.18.01,0-.07.12.21.09.1-.02-.07-.02-.07.03,0,.05.06.06.06.08,0,.02-.05.08-.06.3-.02.02,0,.02.02.02.05-.01.06.13.1.1.02-.03-.07.11-.14.07-.19-.03-.05.07,0,.04.05-.03.04.06.1.09.04.02-.03.04-.03.05.02.02.05.04.05.07.02.05-.04.15,0,.14.05,0,.03.05.04.05-.02,0-.08.07-.1.12-.04.03.04.05.05.05.01,0-.03.02-.04.04-.03.05.03.01-.05.12-.05.12,0,.03.12.1.13.02,0,.04-.03.04-.08,0-.1.08-.16.15-.11.06.05.33.09.35.05.03-.05.36-.03.4.02.06.11.2-.09.35,0,.1.06.17-.01.21.04.05.08.12-.09.25,0,.22.14.22-.05.37-.02.14.03.05-.09.17.01.05.04.07.05.06.03-.03-.06.29-.06.33,0,.02.03.03.02.03-.02,0-.07,0-.08.16-.09.12,0,.13.02.06.09-.04.04-.02.05.08.03.21-.03.16-.13.3-.02.05.04.11.06.13.05.05-.03.5-.05.55-.03.06.04.48.03.48,0,0-.06.11.08.19,0,.05-.06.3-.06.34,0,.04.06.15.09.18.05.01-.02.06-.03.09-.02.11.04.09-.09.17-.02.06.05.26.09.23.04-.01-.02-.04-.02-.07,0-.09.05.15-.2.07-.07-.06.09.37.08.47-.01.07-.06.08-.06.13,0,.07.07.08.11.02.08-.06-.04-.07.09.16.11.06,0,.06,0,0-.07-.13-.16.05.05.1,0s-.15-.1.04-.09c.19,0,.17.15.21.07.03-.05.18-.07.11,0-.07.07-.06.13.01.07.04-.03.06-.03.06,0,0,.06.11.05.11,0,0-.06.19-.07.21-.01.02.04.03.05.06.02.07-.07.21.06.11-.06-.07-.09.02-.09.1,0,.06.06.06.06.09,0,.04-.1-.02-.13.03-.13.09,0-.03.19.11.19.06,0,.06,0,0-.04-.05-.03-.05-.04,0-.04.1,0,.07.11.17.11.04,0,.05-.02.04-.05-.01-.04,0-.05.05-.03.1.03.08-.08.04-.05-.02.01-.05,0-.06-.02-.03-.06.07-.05.13,0,.04.04.05.04.08,0,.03-.05.04-.05.09.02.05.07.06.07.08,0,.04-.1.15-.09.12.01-.04.16.13-.09.21,0,.03.03.06.02.09-.03.05-.06.05-.06.03,0-.05.16.14-.13.26,0,.09.09.42.06.37.04-.03-.01-.04-.04-.03-.05.04-.06.34-.04.43.03.12.08.11,0,.19.06.05.04.05.04.03,0-.02-.04,0-.05.08-.03.18.04.32-.12.36-.05.02.03.07.02.16-.03.16-.07.23-.05.12.04-.07.05-.06.06.12.03.25-.03.09,0,.22.1.08.07.07.22,0,.17-.05-.03-.06.1.02.1.06,0,.08.06.02.09-.02.01-.02.06,0,.12.07.16-.1.18,0,.22.1.04,0,.58.07.67.03.03.03.05,0,.05-.05,0-.07.12.01.09.04-.02.06,0,.06.06s-.02.08-.06.06c-.03-.01-.06,0-.06.03,0,.1.2,0,.12.11-.07.09.03.14.03.27,0,.17.12.3.02.35-.08.04-.04.4.04.36.07-.03.11.11.06.2-.02.04-.06.13-.08.19-.03.11-.03.12.03.11.1-.02.05.09.1.21.05.1-.04.19.05.16.08-.03.05.17-.04.24-.07.05-.07.05,0,.11.1.07.02.12.02.07,0-.02-.02-.04-.04-.04-.06,0-.04.11.02.14.11.04-.02.2.07.33.07.1,0,.18.05.18.07,0-.04.55.06.63.16.13-.06.28-.03.33.05.08-.1.29,0,.33.08.03.01.2.06.26.06.09.07.29.02.31-.08.03-.04.43-.01.43.04,0,.03.13-.02.18-.09.09.1.11-.01.2-.07.06-.07.12-.01.18.06.06.07.19,0,.22-.07.03-.06.12,0,.17.04.04.05.07.01.15-.1.26-.11.52,0,.28.05-.1.05-.1.05-.01,0,.13-.09.13-.13.41-.02.17-.02.2.03.2.08,0,.08.09,0,.15-.07.06-.02.07,0,.19.02.12.07.23.03.22-.16-.03.03.18-.05.2-.08.03-.02.36,0,.36.04,0,.02.14-.02.16-.04.01-.04.06-.01.19.07.33-.18.31-.03.42.06.04.06.07.03.14-.06.13-.08.26-.04.28.05.03.02-.08.07-.04.08.05-.11.15-.01.24.09.08-.05.13,0,.17.01.01,0,.03-.01.03-.05,0-.1.23-.06.28.05.07.09.18.04.16-.02-.01-.02.01,0,.08.07.19-.11-.01-.06.11.01.04,0,.06-.04.06-.06,0-.06,0,0,.07.01.01.02.04.03.06,0-.02-.07-.07-.07-.02s.07.04.07.02c.05.24-.15.84.02.61.04-.05.05-.05.05.05,0,.08,0,.12-.05.12-.08,0-.01.03,0,.21.01.17.08.21.03.21-.12,0-.05.42.04.42.05,0,.04.1-.03.23-.05.09-.06.12-.02.15.07.04,0,.16-.03.14-.13-.08.21.94.05.88-.07-.03-.09.17-.03.35.05.15.05.17-.02.27-.05.07-.06.12-.04.14.02.01.03.04.02.06-.04.06-.02.39.02.41.06.02.05.1-.01.16-.08.06-.01.34-.07.37-.04.03-.04.1,0,.07.05-.03.09.05.05.1-.02.03-.03.16-.03.3,0,.36-.09.38-.01.42.09.06-.04.07-.04.2,0,.04-.02.07-.04.07-.07,0,.05.08.04.14-.02.09,0,.17.06.17.13,0,0,.11,0,.15-.01.11-.13.33-.06.4.06.06.06.23,0,.29-.04.04-.04.05,0,.02.05-.02.05-.02,0,.02-.06.06-.06.21,0,.25.07.05-.08.12.02.22.08.08.07.14-.02.14s-.1.11-.01.17c.06.04.06.06.01.11-.06.08-.09.33-.03.33.07,0-.04.27.03.27.02,0,0,.04-.04.09-.08.09-.33.14-.28.05.02-.03,0-.03-.03,0-.13.11-.36-.15-.43-.12-.08.03-.24-.07-.31-.08-.06,0-.16-.09-.12-.03.04.06-.06.03-.2.07-.08.02-.09.01-.07-.04.01-.04,0-.06,0-.04-.05.03-.06-.11-.12-.08-.05.03-.06-.06-.12-.06-.05,0,.02.04-.05.13-.05.07-.14.05-.14-.04,0-.05-.07-.06-.11-.01-.01.01-.07.03-.14.05-.1.02-.12.01-.15-.06-.03-.08-.03-.08-.06.01-.02.05-.03.07-.03.05,0-.06-.22-.06-.25,0-.02.03-.04.03-.06,0-.04-.06-.15-.08-.15-.03,0,.06-.08.04-.14-.03-.09-.11-.04.03-.17,0-.14-.04-.17.12-.23.03-.06-.1-.13.07-.27,0-.12-.06-.21.01-.25-.04-.02-.04-.25.03-.25.08,0,.03-.17,0-.17-.11,0-.11-.02-.1-.06.01-.05.13-.08.08-.44.05-.14-.01-.21-.15-.21-.06,0,.03-.02.04-.05.01-.07-.05-.3-.09-.3-.05,0,.05-.19.07-.25.14-.03.04-.05.04-.11,0-.04-.03-.05-.05-.02-.03.07.04.03-.08-.07-.02-.12.06-.5-.06-.5.02,0,.06-.1.1-.14.05-.02-.02-.1-.06-.19-.09-.21-.08-.1-.13-.17-.13-.08,0,.03.13-.14.08-.18-.05-.27.08-.4,0-.15-.09-.06.11-.23-.06-.14-.13-.06-.02-.19-.03-.12,0-.41.14-.35-.02.04-.11-.08.03-.16,0-.02,0-.06.01-.09.04-.06.08-.15.08-.15,0,0-.07-.08-.08-.14-.02-.05.05-.28.01-.28-.04,0-.05-.34-.02-.34,0,0,.02-.18.1-.12.01.06-.07-.02-.12-.1-.05-.05.04-.06.04-.08,0-.03-.09-.11.13-.15.04-.01-.02-.05-.04-.09-.02-.09.02-.23-.09-.3-.14.07.34-.03-.08-.23.08-.04.03-.06.02-.07-.02-.02-.05-.03-.05-.06-.01-.04.06-.26.04-.33-.03-.07-.07-.13-.07-.29,0-.28.12-.29-.13-.43-.08-.03.01-.06,0-.06-.02,0-.03,0-.03-.03,0-.03.05-.18.11-.15.06.04-.06-.43,0-.43-.09,0-.04-.16.04-.2.1-.08.11,0-.28-.15-.1-.06.07-.08.08-.08.03,0-.04-.02-.06-.05-.05-.07.03,0,.12-.07.08-.06-.04-.17-.04-.23-.05-.06-.01.02-.18-.1-.05-.09.1-.26.14-.29.07-.02-.06-.2-.08-.23-.02-.03.05-.17.03-.21-.04-.03-.05-.03-.05-.04,0,0,.05,0,.05-.04,0-.03-.05-.04-.05-.09.01-.12.16-.45-.04-.53.1-.08.15-.31-.09-.39,0-.06.06-.1.05-.1-.01s-.1-.11-.17-.07c-.09.06-.82,0-.77.09.02.04-.06.1-.1.03-.04-.07-.18.01-.21-.04-.03-.05-.16-.04-.18.01-.01.03-.02.01-.01-.03.01-.13-.19-.04-.2-.02-.02.02-.16.12-.15.01.02-.09-.19-.08-.26.02-.05.07-.05.07-.11,0-.09-.12-.1,0-.22,0-.08,0-.41.11-.35-.05.02-.05,0-.05-.07,0-.28.15-.4-.04-.3.02.1.06-.05-.1-.17-.03-.07.04-.33.05-.32,0,.01-.05-.16-.12-.16-.07s-.13.05-.1,0c.03-.04-.09-.03-.17.02-.09.06-.19-.18-.14-.05.03.08-.03.09-.06.02-.03-.08,0,.08-.09.08-.04,0-.08,0-.11,0-.09.02-.21-.05-.21-.13,0-.11-.01.01-.12.01-.04,0-.06-.02-.05-.04.01-.02-.01-.02-.06,0-.12.08-.04.11-.18.11s-.08.08-.13.08-.02-.13-.07-.1c-.02.01-.04,0-.05-.03-.03-.09-.14.1-.14.01,0-.07-.06.02-.1-.04-.04-.06-.22-.05-.29.02-.06.05-.07.05-.09,0-.01-.04,0-.05.01-.04.09.05.02-.11-.09,0-.11.11-.49-.16-.61.05-.03.06-.18.09-.1-.01.05-.06.04-.06-.04-.03-.14.04-.43.03-.47-.03-.05-.08-.05.11-.12.06-.09-.07-.58.03-.66-.08-.06-.08-.12-.01-.05.04.08.05-.03.05-.06,0-.03-.05-.3-.02-.44.05-.13.07-.19.05-.19-.04,0-.08-.08-.02-.06.03.03.05-.08.05-.12,0-.05-.09-.52.01-.52.11,0,.02-.03.04-.06.04-.1,0-.02-.17-.11-.13-.09.03,0,.07-.08.1-.08.03-.05-.03-.19-.06-.05,0-.09,0-.07.01.01.02-.02.02-.07,0-.1-.04-.3-.01-.3.04,0,.02-.03.03-.06.03-.11,0,.02-.24-.3-.06-.28.16-.26-.16-.57.07-.11.08-.25.08-.21,0,.04-.06-.03-.04-.08.02-.07.1-.19-.02-.15-.03.03,0-.18-.08-.34,0-.1.05-.11.05-.09,0,.07-.17-.18.09-.08.09.03,0,.01.02-.03.04-.25.11-.02-.05-.09-.09-.02-.01-.05,0-.06.03-.03.07-.21.08-.21.01,0-.03-.01-.03-.03,0-.06.09-.41.02-.57.09-.11.04-.21-.02-.18-.11.03-.09-.34.22-.16.12.03-.02.03-.01,0,.03-.04.05-.06.04-.11-.02-.11-.14-.18.09-.25-.03-.02-.04-.04-.04-.06.02-.02.06-.03.06-.09-.01-.1-.12-.07,0-.19,0-.1,0-.08.09-.04.06.05-.03.05.07,0,.05-.08-.03,0-.19-.1-.15-.08.03.02.13-.07.1-.08-.03-.02.08-.13.05-.04-.01-.09,0-.12.03-.05.05-.21.04-.18-.01.02-.04-.1-.09-.09-.03.01.07-.14.02-.1.07.03.05-.08.04-.09-.08,0-.05-.04-.08-.08-.08-.06,0-.06,0,0,.04.1.06-.06.12-.14.1-.12-.02-.01,0-.13.08-.1.07-.15.03-.05-.05.15-.11-.14,0-.08-.1.02-.03.01-.03-.02-.02-.07.04.05.07-.21.16-.2.07-.21.07-.28,0-.06-.06-.07-.07-.08,0-.02.11-.21.03-.25.1-.03.05-.24.04-.29-.02-.07-.08-.23.05-.23,0,0-.01-.04,0-.09.04-.12.08-.15-.01-.12.07.07.17-.35-.11-.46.04-.04.06-.05.06-.1.01-.07-.07-.2-.12-.17-.07.02.03-.05.05-.16.04-.02,0-.06.02-.09.05-.06.08-.2.08-.17,0,.03-.07-.06-.08-.12-.02-.04.04-.48.06-.55.02-.02-.01-.04,0-.04.02,0,.08-.11-.05-.23.06-.14.13-.1-.08-.34.02-.14.05-.18-.07-.29,0-.1.05-.13-.02-.2.07-.06.07-.06.05-.18-.11-.07.13-.07.17-.18.13-.14-.05-.24.04-.19-.03.04-.06-.05-.06-.05,0,0,.06-.29-.03-.33.06-.02.05-.03.05-.05,0-.02-.04-.03-.04-.03.02,0,.08-.03.07-.12.09-.14.03.03-.15-.2-.06-.13.05-.17-.2-.17-.06,0,.1-.15.03-.15.13,0,.05-.02.05-.11-.01-.17-.11-.22-.14-.19-.1.01.02-.03.06-.09.09-.11.04-.13.04-.17-.02-.05-.06-.05-.06-.08.03-.02.1-.1.15-.08.05.02-.08-.13-.08-.18,0-.05.07-.05.07-.11,0-.03-.04-.06-.06-.06-.04,0,.05-.12-.08-.12-.02,0,.09-.4-.13-.45.05-.03.1-.13.1-.13,0,0-.11-.15-.04-.13,0,.04.07-.06.07-.11,0-.04-.06-.06-.07-.08-.03-.04.09-.18-.2-.18-.03,0,.08-.11.04-.11.1,0,.03-.03.03-.09.02-.14-.04-.35-.02-.38.04-.03.05-.18.11-.16-.05.02-.14,0,0-.08,0-.03,0-.06.03-.07.08-.02.09-.14.07-.14-.03,0-.11-.05.04-.34.08-.14.02-.16.02-.14-.03.01-.03,0-.06,0-.06-.05,0-.18-.04-.15-.01s-.16.3-.22.08c-.02-.07-.03-.07-.06-.03-.02.03-.12.06-.27.07-.53.03-.39.24-.51.13-.09-.07-.12,0-.22-.05-.11-.06-.07.09-.16.06-.14-.05.1-.29-.05-.16-.17.15-.38.04-.32-.16.02-.07.02-.11,0-.11-.05,0,.02-.09.06-.41.05-.5.07-.57,0-.51-.08.07-.12-.03-.04-.11.04-.04.05-.09.04-.11-.12-.19.08-.5.03-.55-.03-.03-.06-.26-.07-.53,0-.24,0-.28.1-.26.04,0-.03-.13-.02-.27.01-.19-.09-.24-.01-.36.1-.14-.03-.37.01-.45.04-.07.04-.27,0-.4-.04-.11-.04-.13.02-.18.09-.06,0-.03.02-.25,0-.11,0-.15-.05-.15-.06,0-.04-.15.03-.2.05-.03.07-.14.02-.17-.02-.01-.03-.06-.01-.1.04-.13-.1-.16,0-.2.08-.03.06-.11.03-.09-.04.03-.13-.13-.09-.13.04,0,.1-.15.02-.15s-.07-.06.02-.13c.07-.05.07-.06.02-.1-.08-.06,0-.16-.04-.26-.03-.08-.03-.09,0-.08.07,0,.14-.28.05-.16-.03.05-.04.05-.07,0-.06-.09.12-.19.05-.19-.05,0-.04-.32.02-.38.06-.06.06-.2,0-.2s.02-.14-.04-.17c-.06-.04.02-.03.07-.3.03-.16.03-.18-.04-.16-.09.03-.09.01,0-.15.13-.23-.05-.11-.03-.24.02-.12-.08-.13,0-.22.08-.08.08-.22.03-.14-.03.04-.04.04-.08-.03-.06-.1-.05-.12.02-.12.08,0,.08-.22,0-.37-.07-.14-.07-.18,0-.24.07-.06.07-.34,0-.44-.05-.07-.05-.08,0-.14.1-.11.08-.76.03-.71-.03.02-.05.02-.07-.03-.04-.1-.03-.13.03-.13.07,0,.08-.25.02-.45-.02-.08-.02-.13,0-.16.08-.08-.14-.11-.03-.24.09-.1-.02-.06-.02-.21,0-.05-.02-.09-.04-.09-.06,0-.05-.12.01-.19.07-.08.11-.3.06-.33-.03-.02-.02-.06.02-.14.08-.16,0-.04-.04-.11-.04-.07-.05-.26-.01-.28.06-.03.04-.13-.02-.11-.08.03-.11-.1-.05-.19.07-.1.11-.51.04-.49-.06.01-.06-.07,0-.07.05,0,.02-.15.08-.15.08,0-.05-.05-.05-.16,0-.04-.03-.07-.06-.07-.22,0,.24-.48.04-.31-.03.03-.06.03-.06.01-.02-.13-.01-.24.01-.24.05,0,.03-.18-.03-.23-.04-.03-.05-.06-.02-.09.05-.05.05-.27,0-.23-.07.04-.01.23-.07.14-.06-.09.06-.17,0-.21-.05-.03.02-.09-.04-.23-.08-.21.1,0,.06-.33-.04-.29-.14-.14-.04-.4.14-.38-.09-.16-.09-.33,0-.12.07.01.07-.29,0-.27-.09-.2-.03-.27.06-.07.02-.17-.06-.17s-.07-.07,0-.16c.12-.13-.06-.1-.01-.26.01-.04,0-.08-.02-.08s-.01-.04.02-.09c.09-.14-.01-.07-.01-.25,0-.17-.12-.09-.03-.17.18-.14-.07-.14-.03-.22.02-.04.07-.61-.01-.58-.1.04.02-.45-.04-.5-.03-.03-.02-.35,0-.4.03-.05-.21-.27-.27-.24-.08.03-.1.27-.06.3.05.03,0,.17-.05.17-.05,0-.16.19-.08.19.07,0,.07.08.01.08-.06,0,0,.06-.07.18-.06.11-.03.15.06.08.06-.05.06-.05.01.01-.08.1-.06.41-.12.57-.05.15.03.24-.04.31-.03.03-.03.06,0,.08.1.06.04.45-.08.53-.08.06.08.01.09.34,0,.41.02.48.08.46.04,0,.03.02-.03.07-.08.08-.08.19,0,.19.06,0-.02.22.03.25.05.03.02.13-.06.19-.07.05-.07.05,0,.03.11-.03.15.04.07.12-.14.14.08.49,0,.43-.02-.01-.06,0-.08.02-.05.07.02.3.08.29.03,0,.05,0,.06.02,0,.09,0,.11-.05.09-.03-.01-.02,0,.02.03.06.05.07.08.03.21-.06.25.14.32.06.41-.05.06,0,.07-.05.2-.02.06-.01.1.03.13.06.05.1.47.05.55-.06.09.08.18-.02.27-.09.07.07-.04.1.15.01.07-.08.03-.04.09.01.02,0,.04,0,.04-.04,0-.02.76.04.81.04.03.07.34.03.34-.05,0-.11.26-.07.3.02.02.04.13.04.25,0,.29.07.16.1.25.01.04,0,.05-.06.03-.05-.01-.07,0-.06.02.04.06,0,.32.05.35.06.04-.03.08.04.15.1.12-.15,0,0,.58.06.21.05.32-.01.32-.09,0-.1.18-.02.33.08.14.1.31.03.27-.02-.01-.05.03-.06.08-.03.15-.07.17.02.27.1.1,0,.02-.02.28-.01.14,0,.18.05.2.06.02.06.03,0,.08-.14.1.06.26-.04.36-.02.02-.03.04,0,.04.08-.02.1,0,.06.06-.1.12.09.56-.02.54-.06-.01-.03.35-.08.53-.02.08-.01.13.01.15.1.06,0-.25.08-.25.07,0,.05.24-.02.29-.13.1.08.08-.07.52-.1.3.14.06.03.39-.07.24.02.19,0,.37,0,.06,0,.11.01.1.21-.03.04.12.01.1-.04-.02-.03.17.01.26.06.14-.19.22-.02.22.12,0,.04.08,0,.06-.04-.02-.09.17-.02.2.07.03.07.14,0,.12-.1-.04.02.35-.05.71-.02.12-.02.14.03.13.07-.03.07.09,0,.16-.13.13.03.22.03.12,0-.06.08,0,0,.06-.08.06-.1.38-.03.46.04.05.04.07,0,.13-.08.09-.12.34-.07.4.03.04.03.08-.01.15-.09.17.08.21.04.31-.04.1.09.14,0,.24-.08.08-.08.13,0,.11.18-.07-.13.3-.02.24.04-.02.05-.01.03.05-.04.13.08.08.02.2-.05.1-.06.63-.11.77-.03.08-.03.11.02.12.08.03.07.24,0,.27-.11.04.03.06.03.18,0,.1.17.2.13.26-.04.06.04,0,.18.09.16.1.16,0,.32.05.08.02.09.03.04.09-.04.05-.03.05.05,0,.11-.07.35-.11.25,0-.05.06-.04.06.01.04.04-.01.07,0,.07.02,0,.09.14-.15.43-.02.15.06.3-.26.54-.08.09.07.1.02.2,0,.11-.02.39-.07.4.05,0,.04.02.01.04-.06.04-.12.04-.13.21-.1.11.02.19,0,.22-.02.08-.07.1.11.05.11-.05,0,0,.06.06.01.03-.02.09-.05.13-.07.07-.02.09-.01.09.06,0,.08,0,.08.02,0,.02-.1.17-.17.25-.12.11.06.08-.1.14-.06.02.01.04,0,.06-.02.03-.05.22-.03.2.02-.02.05.17.19.17.14,0-.06-.08-.02-.08-.08s.05.03.14-.04c.12-.1.08.11.29-.01.21-.12.16.09.29-.05.12-.14.13.08.22,0,.14-.12.4.21.52.03.05-.07.05-.07.12,0,.05.06.08.07.1.03.04-.07.21-.02.27-.1.06-.07.16-.07.14,0-.02.06.13.07.18,0,.02-.02.02,0,.01.05-.02.08-.02.09.05.03.11-.1.35-.02.23-.1-.03-.02-.04-.04-.01-.04.06,0,.14.16.18.13.03-.03.17.1.13.04-.03-.06.09-.16.09-.09,0,.06.12.06.11,0-.02-.08.12.03.12-.1,0-.08.06-.11.09-.04.01.02.05.03.08.02.08-.03.18.1.29.07.12-.03.04.1.11.1.06,0,.02-.09.08-.06.06.04-.02-.09.14-.1.06,0,.08-.01.06-.02-.11-.05.11-.16.11-.03,0,.06.09.06.18,0,.08-.05.06.05.18-.07.11-.11.21-.04.11.03-.12.09.13.03.2-.05.06-.06.07-.06.11,0,.04.06.06.06.1.02.04-.04.04-.05,0-.02-.04.02-.04.02-.03-.01.03-.05.28-.06.3,0,.02.06.42.07.41.01-.03-.18.09-.1.06-.05-.04.07.21,0,.36,0,.12,0,.13,0,.08-.05-.03-.04-.04-.06,0-.06.06,0,.08,0,.08.02,0,.06.1.08.18.03.07-.05.09-.05.11,0,.03.09.33.06.39-.04.06-.09.24-.11.24-.04,0,.03.01.03.04,0,.03-.04.05-.05.09,0,.12.1.21-.11.31.02.08.11.23,0,.26.05,0,.02.01,0,0-.02-.01-.05.1-.1.16-.08.08.02.13-.12.26-.02.09.07.15.07.12,0-.01-.03,0-.01.04.03.05.06.06.06.04.01-.08-.22,1.01-.05,1.06-.23.02-.07.07-.09.15-.07.4.08.49-.08.53.03.05.13.52-.13.45.03-.02.05-.01.06.02.04.07-.04.02-.12.1-.12.03,0,.06.03.06.06,0,.05,0,.05.03.01.04-.07.16.02.16-.04s.19-.03.23.04c.02.04.03.04.03,0,0-.1.16.08.23-.05.06-.12.21-.02.38-.1.13-.07.15.02.16-.08,0-.1.02.03.08.03.02,0,.03-.01.02-.03-.01-.02,0-.03.03-.03.08,0-.03.06.12.07.14,0,.32.03.39-.02.07-.06.75-.05.7-.03-.06.02-.02.11.06.04.08-.06.22-.06.45-.09.25-.04.19.1.32.1.08,0,.2-.13.16-.17-.02-.02.02,0,.08.03.17.09.11-.04.23,0,.13.05,0-.08.34-.04.12.01.21.04.2.05-.04.06.19.03.28-.04.13-.09.33-.1.36-.02.02.05.04.05.1.02.12-.06.23.01.23-.04,0-.05.06.03.13-.03.05-.04.18,0,.1.09-.07.08-.15,0-.11.04.04.04.14.06.14.02,0-.01.04-.03.08-.03.11,0,.19-.13.25-.12.02,0,0,.02-.02.04-.05.03-.04.04.03.02.05-.01.08,0,.07.01-.02.04.14.1.11.02-.02-.06.04-.12.11.1.09-.06.31-.23.24-.12-.05.07.16.03.2.03.07,0-.03-.07.21-.08.17-.01.18,0,.14.06-.03.06-.02.07.08.06.07,0,.13-.03.14-.05.04-.05.36-.06.33,0-.06.1.21-.14.21.01,0,.08.46.06.44.02-.03-.05.1-.09.15-.04.03.03.02.04-.01.04-.05,0-.07.05.17.05.11,0,.17.01.17.04,0,.03.02.02.04-.01.07-.1.05.05.23,0,.18-.05.46.03.44-.05-.01-.06,0,.01.06.01s.16.15.13.09c-.03-.06.06-.06.06,0,0,.03.01.03.04,0,.02-.03.04-.04.04-.01,0,.03.04.03.12-.01.11-.05.12-.05.16,0,.08.1.81.05.87-.01.04-.04.04-.05,0-.03-.07.04-.08-.11.06-.02.04.03.04.04,0,.06-.08.05.09.09.13.04.04-.06.26-.06.24-.03-.02.04.1.04.07-.01-.03-.06.08.03.14-.03.07-.07.12.07.21.04.08-.03.07.03.19.04.14,0,.2.08.26.02s.17-.02.19-.09c.01-.04.05-.03.14.02.24.14.47-.13.55,0,.04.07.14.08.14.02,0-.12.16.08.24.08.03,0,.07.02.08.04.04.07.1.04.08-.04-.04-.12.03-.03.16-.1.22-.12.11.2.28.03.07-.07.08-.08.08-.03,0,.07.06.09.09.03.03-.05.14,0,.12.03-.02.04.1.04.07-.01-.01-.02,0-.02.04.01.06.05.06.04.07-.02,0-.16.11.16.11.01,0-.1.34-.07.34-.03,0,.05.15.05.15,0-.01-.07,0-.09.06-.03.11.11.45-.13.39-.02-.02.03.04.1.1.12.08.03.05-.13.15-.04.05.04.06.04.08-.01.02-.05.03-.05.08,0,.09.09.08-.01.36,0,.15,0,.17.01.16.08-.01.07,0,.07.05.02.22-.19.3.14.27.03-.03-.1.13-.07.13-.03,0,.06-.08.02-.08.08,0,.05.05,0,.23-.07.24-.08.19.07.36.04.12-.02.21.09.25.03.01-.02.07-.05.12-.06.09-.02.1-.02.09.08-.02.16.09,0,.08-.01-.02-.03.13-.03.11,0-.02.02.06.16.06.08,0-.08.1.02.26-.06.19-.1.29-.12.27-.06-.02.04.01.06.1.06.23,0,.35.06.65.06.16,0,.18,0,.16.06-.01.04.02.01.07-.05.08-.1.09-.1.14-.05.06.08.12.08.12,0,0-.09.03,0,.32.01.22,0,.35.1.49.19.23-.14.23-.15.46-.11.31.06.33.24.55.12.04-.02.14-.05.22-.06.15-.02.16-.02.18.08.04.17.04-.02.15.03.07.03.07-.05,0-.1-.05-.03,0-.11.07,0,.1.14.22-.1.29.01.04.07.1-.02.13.04.02.05.02-.06-.06-.05-.04,0-.04,0-.01-.03.08-.08.38.15.59.04.13-.07.01.03.17.1.15.07.1-.07.16-.06,0,0,.34.02.29-.05-.05-.08.06.07.17.03.1-.04.23-.04.23,0,0,.02.04.04.09.04.15,0,.14.07.28,0,.07-.04.11-.04.14,0,.03.03.04.03.03,0-.01-.06.1-.14.06.02-.02.09-.02.1.02.05.03-.04.05-.05.06,0,.02.06.18.06.09.01-.13-.08.34-.1.28,0-.02.03,0,.03.04,0,.07-.06.21-.08.21-.04,0,.04.28,0,.3-.04.01-.02.2-.13.19-.02-.03.15.34,0,.32.14-.02.09.02.08.1-.01.13-.16.03.06.31,0,.22-.04.11.04.22.04.1,0,.09.08.33.09.3.01.09.12.72.15.23,0,.13,0,.22-.1.04-.05.07-.05.11-.02.04.04.05.03.02-.01-.02-.04-.02-.05.02-.03.07.03.2-.07.17-.12-.04-.06.11-.09.06-.19-.03-.06-.01-.21.03-.18.05.03.09-1.01.02-1.07-.06-.05-.02-.22.04-.18.06.04-.03-.05.02-.11.08-.11-.05-.41.01-.41.04,0,.02-.08.06-.28.02-.12.02-.14-.03-.14-.07,0-.08-.08-.02-.15.09-.09-.15-.13.02-.32.1-.12-.02-.05,0-.25,0-.07,0-.12-.03-.12-.05,0,0-.16.06-.2.09-.06-.1-.11,0-.27.07-.11.04-.19,0-.3l-.09.22c0-.43.1-.23.1-.45,0-.18.04-.3.09-.27.02.01,0-.02-.06-.08-.17-.15-.05-.25-.03-.23.03.02.08-.2.04-.23s-.03-.49,0-.53c.16-.24-.07-.28-.08-.44-.01-.18,0-.27.04-.25.04.03.05,0,.05-.36,0-.36-.1-.27-.07-.39.03-.12-.15-.25.02-.25.06,0,.03-.18.08-.32.06-.18-.31-.43-.11-.43.11,0-.01-.32.06-.37.03-.02.01-.22-.03-.29-.01-.02,0-.03.02-.03.06,0,.05-.1-.02-.15-.05-.04-.05-.06.02-.12.09-.08.08-.17-.01-.16-.09,0-.07-.06-.03-.06.08,0-.11-.23.01-.23.07,0,.15-.22.1-.31-.02-.04-.03-.07-.01-.07.05,0-.13-.08-.09-.15.06-.09-.12-.2.02-.2.12,0,.07-.26.04-.29-.03-.03-.03-.07,0-.13.07-.14.07-.46,0-.52-.05-.04-.05-.05,0-.07.08-.03.09-.12.02-.14-.03-.01-.03-.06.02-.18.06-.16.06-.16-.01-.24-.1-.11-.08-.18-.04-.11.09.14,0-.21.11-.42.03-.06.02-.09-.04-.15-.07-.07-.07-.22,0-.18.05.03.08-.11.03-.15-.06-.05-.09-.27-.04-.3.07-.04-.06-.18.03-.45.08-.23,0-.24.01-.32.01-.05.03-.43.05-.69.02-.22-.07-.23-.01-.27ZM23.12.57c0-.05.09-.05.06,0-.04.06-.06.04-.06,0ZM24.36.58s.05-.1.08-.07c.03.03-.05.12-.08.07ZM24.8,1.3c-.05,0-.05-.08,0-.08s.05.08,0,.08ZM29,.61c-.05,0-.05-.08,0-.08s.05.08,0,.08ZM29.96,1.22c-.05,0-.05-.08,0-.08s.05.08,0,.08ZM36.55,1.22c.03-.05.15-.05.11,0-.03.05-.15.05-.11,0ZM2.33,15.17c.06-.09.05.11,0,.11s-.05-.04,0-.11ZM1.46,7.25s.04.05.03.07c-.05.05-.11-.15-.03-.07ZM1.64,18.82c0-.13.07-.13.05,0-.02.13-.05.12-.05,0ZM2.21,8.81c0-.07.02-.08.05,0,.03.08-.05.08-.05,0ZM13.42,23.1c-.11.04.02-.07.05-.05.01.01,0,.03-.05.05ZM15.59,22.17c0-.05.09-.05.06,0-.04.06-.06.04-.06,0ZM16.07,22.81s-.13.07-.06-.02c.05-.06.1-.05.06.02ZM26.9,22.66c-.06,0,0-.08.02-.08s.03.08-.02.08ZM33.68,22.74c.03-.05.11-.05.08,0-.03.05-.11.05-.08,0ZM44.82,19.99c-.06.09-.04-.11,0-.13.05-.03.05.06,0,.13ZM45.23,2.38c-.03.06-.03-.16,0-.1.01.03.01.07,0,.1ZM45.76,7.63s-.02,0-.02-.05c0-.1.05.02.02.05Z"/>
  <path d="M8.38,22.74s.06,0,.05-.02c-.03-.03-.15.02-.05.02Z"/>
  <path d="M23.12,1.47s-.08-.08-.08-.02.08.04.08.02Z"/>
  <path d="M13.89,22.17c-.03.05.06.05.06,0,0-.04-.02-.06-.06,0Z"/>
  <path d="M23.69,21.67c-.05.08-.05.15,0,.08.05-.08.05-.15,0-.08Z"/>
  <path d="M25.83,1.32s0,.06.02.05c.03-.03-.02-.15-.02-.05Z"/>
  <path d="M7.45,1.76c-.06,0,0,.08.02.08s.03-.08-.02-.08Z"/>
  <path d="M17.8.8c-.07.05,0,.05.08,0,.07-.05,0-.05-.08,0Z"/>
  <path d="M5.61,1.64c-.06,0,0,.08.02.08s.03-.08-.02-.08Z"/>
  <path d="M4.28,23.01c0,.05.08.05.08,0s-.08-.05-.08,0Z"/>
  <path d="M7.48.76c-.08,0-.12.07-.05.06.08-.01.12-.06.05-.06Z"/>
  <path d="M16.06.79c-.08-.03-.02.05.02.05.05,0,.04-.03-.02-.05Z"/>
  <path d="M30.19,21.96s-.08-.08-.08-.02.08.04.08.02Z"/>
  <path d="M40.18,22.24s-.14-.05-.06,0c.07.05.09.05.06,0Z"/>
  <path d="M44.59,22.66s.02.06.06,0c.03-.05-.06-.05-.06,0Z"/>
  <path d="M44.48,2.24s-.08-.08-.08-.02.08.04.08.02Z"/>
  <path d="M22.58,22.62s.02.06.06,0c.03-.05-.06-.05-.06,0Z"/>
  <path d="M42.72,23.21c.05.06.08.08.08.05,0-.01-.18-.18-.08-.05Z"/>
  <path d="M43.05,23.27s.03-.08-.02-.08,0,.08.02.08Z"/>
  <path d="M4.01,23.89s.02.06.06,0c.03-.05-.06-.05-.06,0Z"/>
</svg>