<?xml version="1.0" encoding="UTF-8"?>
<svg id="Layer_1" data-name="Layer 1" xmlns="http://www.w3.org/2000/svg" viewBox="0 0 67.79 38.81" fill="#2c2013" preserveAspectRatio="none">
  <path d="M66.85,25.2c-.08,0,.03,0,0-.31-.03-.49,0-.89-.05-.99-.03-.05-.03-.08,0-.08.03,0,.03-.05,0-.12-.03-.09.36-4.15.11-4.44-.04-.05-.04-.06.02-.06.06,0,.06,0,.01-.04-.03-.02-.04-.04-.02-.04.12,0-.16-6.57-.35-6.57-.07,0-.07-.08,0-.08.13,0-.19-3.3-.3-3.39-.04-.03-.05-.06-.03-.1.12-.19-.04-.12,0-.18.01-.02,0-.05-.01-.06-.04-.02-.03-.21.01-.51.04-.26-.06-.58-.13-1.5-.04-.58-.14-.5-.1-.57.03-.05-.09-.6-.13-.63-.02-.01-.02-.05-.01-.08.06-.16-.36-1.94-.05-3.57.04-.2.15-.89.03-1.05-.12-.15.07.04.06-.1,0-.08-.06-.1-.07-.03,0,.08-.02-.22-.12-.21-.14.01.04-.18-.18-.16-.06,0-.11,0-.11-.02,0-.04-.03,0-.14-.06-.12-.07-.1.02-.17-.07-.07-.08-.18-.04-.2-.11-.01-.03-.03-.03-.05,0-.05.05-.36.07-.48.02-.04-.01-3.92.07-3.93.07-.29.02-.44-.04-.85.01-.41.06-.45-.07-.45,0,0,.09-1.88.01-1.92.05-.06.06-.18.08-.18.03,0-.07-.1-.08-.4-.04-.65.08-1.58-.02-1.84.04-.17.04-.08-.03-.38-.01-.96.06-.95-.05-.98,0-.03.04-.58,0-.71.05-.13.05,0-.08-1.36.02-1.24.09-1.68-.07-1.6.06.01.02,0,.03-.02.01-.09-.05-.27-.06-.31,0-.07.09-.09-.03-.92-.02-.54,0-.59.01-.64.07-.03.04-.06.05-.13.01-.33-.16-.24.06-.34-.04-.07-.07-.07.04-.4.02-.35-.02-.33.11-.39.01-.06-.1-.13.04-.41,0-.24-.03-.11.02-.37.02-.21,0-.25.07-.25.03s-.13-.02-.24-.01c-.04,0-.06.02-.05.04.01.02,0,.04-.02.04-.08,0,.01-.12-.13-.09-.59.12-1.29.09-1.35.12-.09.06-.42-.05-.38.06.03.08-.01.08-.09,0-.04-.04-.09-.05-.14-.03-.21.07-1.55.06-1.63.11-.06.04-.19-.08-.19-.02,0,.06-.36.02-.33.08.03.04-.04.1-.07,0-.03-.11,0-.02-1.42,0-.74.01-1,.03-1.02.06-.02.03-.04.03-.05.01-.04-.06-.68-.03-.72.03-.02.04-.04.04-.06,0-.04-.06-.31-.02-.77,0-.37.02-.33.11-.36.07-.03-.05-.63.04-.69,0-.02-.01-.03,0-.02.01.01.02-.12.04-.35.04-.54,0-.52.09-.65.04-.25-.09-1.12.07-1.29,0-.05-.02-.09-.02-.09,0,0,.04-.21.13-.22.09-.01-.04-1.08-.04-1.08.07,0,.07.02-.04-.37-.04-.36,0-.36-.06-.36,0,0,.04-.25.04-.29,0-.01-.01-.04-.01-.06,0-.08.05-.91.02-.91.1,0,.05-.07-.05-.24,0-.06.02-.13.02-.14,0-.03-.04-.15-.06-.15-.02,0,.04-.4.06-.36,0,.03-.05-.09,0-.09.04,0,.07-.12.07-.21,0-.06-.05-.1-.06-.12-.04-.03.05-.25.05-.25,0s-.09-.05-.06,0c.01.02-.04.04-.12.03-.25,0-.33.11-.41.04-.06-.05-.52-.07-.49-.03,0,.02,0,.03-.02.03-.06,0-.03-.11-.07-.06-.03.04-.43.06-.43.02,0-.07-.58.1-.52,0,.02-.03.02-.04-.02-.02-.06.04-.33.05-.44.06-.02,0-.02.02,0,.05.02.03,0,.02-.04,0-.05-.04-.06-.04-.04,0,.02.04.01.05-.04.03-.11-.03-.57-.04-.62-.01-.02.01-.05,0-.06-.02-.01-.03-.02-.03-.02.01,0,.08-.13.11-.18.05-.07-.07.04-.1-.14-.05-.19.05-.25.01-.34.05-.11.05-.14-.1-.14-.04,0,.02-.02.02-.04,0-.04-.04-.15-.02-.19.03-.04.06-.21-.07-.3.02-.1.1-.07-.07-.26,0-.19.07-1.06.07-1.12.1-.07.04-.5.06-.5.02,0-.03-.02-.02-.06.02-.09.09-.34.02-.97.09-.48.05-.43-.02-.54.05-.07.03-.08.03-.06,0,.06-.1-.23.13-.15,0,.07-.12-.12.16-.28,0-.03-.03-.05-.03-.05,0,0,.07-.29,0-.33.05-.03.05-.26.04-.23,0,.02-.04-.16-.04-.14,0,.02.04-.05.04-.08-.01-.01-.02-.04-.03-.07,0-.2.15-.39-.12-.31,0,.02.04.02.05-.02.02-.08-.05-.35-.07-.32-.02.03.05-.03.05-.08,0-.08-.08-.05.07-.71.07-.28,0-.43.02-.48.05-.13.11.05-.12-.07-.07-.12.05-1.96.09-1.96.07,0-.07-.15-.05-.19.02-.03.05-.05.05-.07.02-.04-.05-.58-.1-.53-.01.03.05-.11.05-.08,0,.06-.09-.75-.02-.79.04-.03.04-.03.04-.03,0,0-.07-.01.01-.15-.06-.17-.09-.06.03-.48,0-1.18-.1-1.34-.03-1.42-.1-.1-.08-.33.05-.29-.06.03-.08-.06-.06-.06-.02,0,.06-.12.08-.2.04-.06-.03-.1-.03-.16,0-.14.08-.14-.04-.36-.04-.19,0-.05-.09-.23-.03-.07.02-.16.03-.24,0-.18-.05-.5-.02-.46.04.04.07-.1-.07-.1-.03,0,.05-.04-.05-.21-.03-.24.02-.33-.11-.41.02-.06.1-.11.08-.09.04.07-.11-.35-.12-.4-.03-.01.02-.04.02-.08-.01-.12-.11-.92-.06-.89-.12,0-.02-.04-.02-.11-.01-.22.03-.8-.08-.92-.01-.13.07-.07-.07-.22-.03-.16.04-.14-.11-.26,0-.06.05-.08.05-.11.01-.03-.04-.18-.05-.62-.05-.76,0-.56-.06-.75-.03-.11.01-.13,0-.09-.02.04-.02.04-.04.01-.04-.09,0,0,.1-.33.06-.25-.03-2.13-.07-2.13-.18,0-.04-.18-.02-.16.04.01.06-.07.05-.07.02,0-.03-.11-.21-.1-.12.01.09.08.15.03.15-.02,0-.05-.04-.08-.1-.05-.1-.13-.1-.09,0,.03.09-.09.04-.08-.04,0-.08-.1-.08-.09-.02.01.06-.15.1-.1.03.04-.06-.07-.02-.02.08.06.12-.08.12,0,.18.03.02.04.01.02-.01-.08-.13.32.08-.05.04-.07,0-.31.15-.08.12.05,0,.03.11-.03.13-.03.01-.06.05-.05.08,0,.09.02-.03.08-.03.02,0,0,.04-.04.09-.09.1-.05.18.05.1.04-.03.06-.03.07,0,.01.04.04.04.09,0,.09-.05.34.04.3.11-.02.03,0,.03.03.01.07-.04.66-.02.68.02.03.05.61.05.61,0,0-.05.1-.02.09.04-.02.08.25-.05.36.05.06.04.06.04.03,0-.03-.04,0-.05.12-.03.22.04,1.02.05,1.04.1,0,.02.04,0,.07-.02.13-.13.21.13.32,0,.06-.07.1-.07.18,0,.1.1.08-.04.27,0,.15.03.19-.06.28-.02.14.07.31.11.31.07,0-.02.07-.03.17-.01.3.04.19-.19.3-.05.07.08.37.11.39.04.02-.04.03-.04.08,0,.11.1.78.06.91.14.07.04.52-.01.52.05,0,.05.11.05.11,0s.19-.05.19,0c0,.07.42-.14.37-.04-.02.03.02.04.12.04.19,0,2.23.04,2.23.11,0,.06.09.05.06,0-.07-.12.47.01.49.04.05.05.2-.13.26-.02.08.14,3.62,0,3.72.07.02.01.05,0,.07-.03.02-.05.03-.05.1,0,.15.1,1.07-.03,1.07.03,0,.06.2-.02.23-.09.04-.07.04-.07.11,0,.17.18.21-.08.25.03.02.06.09.07.06-.02-.02-.06-.02-.06.03-.02.13.1,1.28-.06,1.33-.03.09.05.71,0,1.32-.02.46-.02.47-.1.57-.06.2.07.68-.08,1.01-.04.29.04.17-.05.39-.03.2.02.11-.04.25-.03.11.01.24-.07.24-.15,0-.07.08-.06.07-.02-.02.14.11.15.94.07.35-.03,2.38-.11,3.57-.18,0,0,.29-.01.19.05-.1.06.07.04.09,0,.03-.05.86-.03.89-.06.04-.04.02.07.31.02.14-.02.2-.02.2.01,0,.03,0,.03.03,0,.05-.08.37.04.46-.02.03-.03.05-.02.05.01,0,.04,0,.04.02,0,.01-.04.03-.04.05-.01.05.08.26-.07.32.01.02.03.03.03.03-.02,0-.06,0-.06.06,0,.07.07.13.08.13.02,0-.12.37.01.4-.05.03-.05.59,0,.57-.04-.02-.04.28-.04.31,0,0,.01,3.84-.21,3.84-.19,0,.06.19.03.19,0,0-.05.66.02.93-.09.05-.02.07-.02.04.02-.09.14.58-.16,2.93-.15.43,0,.53,0,.55-.06.03-.08.1-.02.07.02-.01.02.12.03.35.01.57-.03.69,0,.71-.08.03-.08.15-.06.12-.02-.04.06,1.12-.03,1.66-.03.58,0,.65-.02.65-.1,0-.07.02-.07.13,0,.14.09.14,0,.55,0,.99-.04,1.22-.16,1.22-.1,0,.02.03.03.07.02.21-.04.39-.05.37,0-.03.05-.01,0,.3-.01.16,0,.24-.02.23-.05-.01-.02.01-.03.08-.01.41.1,1.48-.1,1.56.04.02.03.03.03.03,0,0-.05.43-.1.46-.05.01.02.07.02.13,0,.16-.05.71-.05.83,0,.17.06.14-.09.23,0,.07.07.19-.1.13,0-.05.08.06.02.06-.06,0-.15.14.08.28.04.15-.05,2.72-.07,2.75-.13.02-.04.17,0,.17.03,0,.03.22.05.15,0-.08-.05,2.7-.04,2.73-.04.94.01.8-.09,1.03-.04.18.04.12-.03.18.03s.19.06.11.01c-.07-.04.45,0,.45-.05,0-.04.23-.05.23,0,0,.06.15,0,.68,0,.24,0,.35-.02.35-.05,0,0,5.77-.12,5.77.01,0,.06.18.02.21.08.05.08.13-.11.23.05.1.15-.01.12.01.26,0,.04-.01.07-.04.07-.03,0-.04.01-.01.03.06.04.05.25-.01.31-.05.05-.05.06,0,.08.09.03,0,.13-.05.1-.06-.03-.06.04,0,.07.04.01.03.03-.02.07-.09.08-.05.48-.02.46.04-.02,0,.24-.05.33-.04.08.03.01.01.57,0,.25,0,.42.02.42.02,0,.03.03.02.08-.03.12.1.17.03.21-.06.03,0,.49.06.54.03.02.04.05.03.06-.06.06-.08.3-.03.4.03.06.05.16.05.22-.02.24.13.23.13.79,0,.12.02.21.04.19.05-.03-.02.15.02.12.02-.01.03.02.03.07,0,.45.08.73.09.97.01.28.14.21.07.31-.08.1.07.2.02.29-.04.06-.01.82.03.94.03.08.07.39.08.66,0,.09.04,0,.08.07.03.05-.11,0,.05,1.05.04.23.2,2.56.23,2.59.07.08-.04,0-.01.34,0,.07.25,3.06.21,3.96-.04.85.09.84,0,.87-.06.02-.05.09-.02.07.04-.02,0,.2,0,.39,0,.17-.09.11-.05.17.04.07,0,.32.05.36.04.03.06.34,0,.25-.05-.08-.05.03,0,.06.05.03.06.15,0,.11-.04-.02-.04-.02,0,.03.07.09.09.26.03.31-.17.14.16.36.04.29-.05-.03-.11.26-.07.32.03.05.03.66,0,.68-.08.06.06.3-.02.53-.22.63.15,6.34.16,6.35,0,0-.47,5.51-.39,5.51.04,0,.04.05,0,.16-.03.07.02,1.42.07,1.45.05.04-.03,0-.04.36-.01.46-.13.39-.05.49.08.1-.05.08-.06.3-.02.28-.05.45-.09.52-.05.09-.07.09-.19.03-.15-.08-.34.03-.45-.03-.1-.06-.33.02-.5-.02-.17-.05-.2.03-.49,0-.27-.03-.43.04-.46,0-.06-.09-.88.02-.97-.04-.12-.07-.42.25-.36.03.05-.2-.07.13-.18.06-.12-.07-1.81-.05-1.81-.05-.08-.07,0,.04-.66.04-.31,0-1.43,0-1.74-.05-.2-.03.04.12-.17.06-.17-.04-.09-.09-.26-.05-.21.05-.79-.05-.79.05,0,.03-.08.06-.08-.06,0-.07,0-.07-.04-.03-.03.05-.05.05-.11.01-.1-.06-.05.02-.54-.01-.48-.03-.39.04-.54-.03-.19-.1-.18.06-.24,0-.01-.01-.03,0-.03.03,0,.03-.02.03-.05-.02-.04-.06-.07-.06-.17-.03-.07.02-.12.03-.12.01,0-.07-.91-.02-.96-.1-.02-.02-.03-.02-.03.01,0,.05,0,.05-.9-.02-.44-.03-1.34-.04-1.34-.09,0,0-.14-.05-.11,0,.05.08-.41-.09-.41,0,0,.05-.11.05-.11,0s-.03.02-.1-.03c-.08-.07-.04.04-.18.04-.07,0-.07,0-.03-.04.05-.03.04-.04-.02-.01-.12.04-.45.05-.49.11-.04.06-.1-.17-.1-.1,0,.07-.13.05-.1.02.03-.05-.56,0-.62.04-.04.03-.06.03-.07,0-.03-.08-.57-.02-.53-.08.03-.04-.25-.05-.23,0,.05.07-.11.08-.17,0-.04-.05-.08-.06-.1-.04-.04.04-.44.06-.5.02-.09-.05-.45-.03-.55.03-.22.14,0-.11-.38-.08-.28.02-.36-.07-.38-.01-.02.05-.22.07-.24.03,0-.02-.18-.02-.38-.02-.46.01-.33-.05-.7-.03-.35.02-.57.05-.7,0-.18-.05-.1.12-.19.05-.07-.06-.77-.09-.72-.03.05.06-.15.07-.13,0,.01-.03-.04-.04-.21-.02-.33.04-.68-.02-.93.04-.26.06-.23-.04-.35-.02-.16.03-.1-.09-.32,0-.11.04-.14.05-.16,0-.06-.09-.15.11-.15,0,0-.03-.01-.04-.03-.01-.03.05-.16.05-.24,0-.04-.03-.05-.02-.03.03.04.09-.09.03-.07-.01.02-.04-.09,0-.14,0-.04,0-.01.12-.07.12-.02,0-.03-.02-.01-.04.02-.03,0-.04-.03-.02-.1.03-.26-.08-.26,0,0,.09-.26-.03-.35.02-.05.03-.33.02-.37-.02-.01-.01-.05,0-.07.02-.07.06-.18-.02-.15.03.03.05-.06.1-.06.04s-.08-.05-.07-.01c.03.2-.12-.09-.12,0,0,.03-.02.04-.04.02-.05-.03-.38-.05-.38-.02,0,.06-4,.3-4.2.37-.14.05-.72,0-.75.05-.03.04-.26-.05-.23,0,.04.06-.24.12-.19.03.04-.06,0,.02-.24.01-.25,0-.18.09-.25.05-.05-.03-.37-.04-.47-.08-.05-.02-.07-.02-.05.01.06.1-.81.05-1.28.11-.41.06-.31-.12-.55-.01-.1.05-.22-.11-.17-.03.04.07-.04.05-.38.06-.41.01-.39.08-.45.03-.11-.09-1.16.07-1.43-.02-.08-.03-.26.14-.32.04-.03-.05-.03-.04-.04,0,0,.05,0,.05-.04,0-.03-.05-.04-.05-.04,0,0,.05,0,.05-.03,0-.06-.1-2.23.09-2.89.03-.08,0-.11,0-.11.04.01.06-.07.07-.07,0,0-.07-.1-.08-.12-.01-.02.06-.57.06-.62.11-.02.02-.05.02-.08,0-.05-.04-.49-.06-.55-.03-.08.05-.22-.13-.24-.05-.02.06-.15.08-.12.03.03-.05-.11-.04-.17.01-.04.04-.05.04-.05,0,0-.03-.02-.04-.05-.02-.06.04-.42.05-.47.02-.07-.04-.14-.04-.11,0,.02.02-.02.03-.09.02-.37-.08-.7.06-.59-.02.07-.05,0-.06-.07,0-.04.04-.05.04-.05,0,0-.09-.15.08-.16-.01,0-.04,0-.04-.02,0-.02.04-.03.04-.05,0-.02-.04-.03-.04-.03,0,0,.06-.21.06-.31,0-.08-.04,0,.05-.89,0-.09,0-.22.11-.19.18.02.05-.01.15-.13-.17h-.66c-.85.03-.79.09-.85.04-.06-.05,0,0-.87,0-.51,0-.46.12-.55.04-.1-.08-2.36-.03-2.37-.03-.04-.03-.74-.06-.77.03-.02.04-.03.04-.07-.01-.12-.16-1.14.01-1.08-.1.05-.08-.32.08-.32,0,0-.06-.74-.04-.76.02-.02.06-.1.06-.07,0,.04-.06-.13-.08-.35-.05-.28.05-.26-.04-.36-.02-.23.06-.27.06-.25.02.02-.03.01-.04-.02-.02-.03.02-.06,0-.08-.02-.02-.04-.03-.04-.03,0,0,.06-.12.06-.12,0,0-.07,0,.1-1.29,0-.07,0-.16,0-.19.04-.07.05-.22,0-.17-.07.02-.02,0-.03-.02-.02-.06.04-.62.06-.62.02,0-.05-.17.06-.29.03-.15-.04-.99-.01-.95-.08.03-.06-.12.06-.16.12-.02.04-.05.03-.1-.03-.13-.15-.38.01-.44-.07-.02-.03-.04-.03-.08,0-.04.03-.05.03-.05,0,0-.07-.11-.05-.12.02,0,.06,0,.06-.05,0-.05-.07-.12-.09-.08-.03.01.02-.01.04-.06.04-.12,0-.1-.14-.17-.08-.06.05-.19,0-.16.04.03.04-.36.04-.36,0,0-.03-.42-.02-.45.02-.02.02-.18-.06-.22-.02-.04.04-.36.08-.36.05,0-.03-.55-.02-.63,0-.03.01-.05,0-.06-.03,0-.03-.01-.03-.04,0-.07.11-.04-.07-.3-.02-.19.04-.55.03-.6-.02-.05-.04-.04-.41.02-.56.07-.17.18-1.44.06-1.7-.01-.03-.01-.1,0-.15.07-.2-.16-1.8-.19-1.81-.05-.03.08-.22.01-.29-.1-.1.13-.09-.09-1.35-.16-.93-.21-3.04-.23-3.11-.09-.31.04,0,.02-.38-.02-.3.06-.15.04-.29-.07-.44-.06-1.9-.1-1.95-.09-.09.13-.2.06-.2-.05,0,0-1.02-.14-3.25-.1-1.42.1-1.46.02-1.51-.05-.03-.05-.2,0-.08.04.11.04-.3.05-.48,0-.09-.06-.4-.02-.37.09.06-.11-.43.03-.52.03-.02.03-.03,0-.03-.05,0-.03-1.4-.02-1.44.02-.09.02-.18,0-.24-.05-.14-.06-.59-.01-.62.02-.02,0-.03-.04-.03-.06,0-.06,0-.03-.03.34-.22-.43-9.06-.43-9.79s.06-.53.01-.75c-.06-.31.05-.6-.04-.63-.03-.01-.04-.03-.01-.05.1-.08.03-.95.09-.91.05.03.02-.2-.03-.26-.09-.1.07-.31.05-.45-.18-1.2-.02-2.28-.17-2.19-.05.03-.06-.21-.14-.24-.03-.01-.05-.04-.05-.07,0-.08-.1-.05-.1.02,0,.04.01.06.03.05.05-.03.07.14-.09,0-.06-.05-.09-.06-.17-.02-.13.06-.17-.01-.17.04,0,.07.13.01,0,.11-.11.09-.11.19-.04.12s.12-.06.07.01c-.06.07-.09.45-.03.42.04-.03.05.11,0,.07-.03-.02-.03-.01-.01.03.06.09.06.24.01.2-.03-.02.05.86.08.97.04.14.02.96-.03,1.02-.04.05.03.92-.02,1.01-.04.07,0,.86.05.92.04.05.04.06,0,.09-.06.04-.05.39-.1.39-.02,0-.02.01,0,.03.04.02.04.08.01.26-.05.33.02.02.09,1.24,0,.05.07,1.3.13,1.3.03,0,.04.06.02.18-.08.62.14,1.73.23,4.14.04.99.08.46.07,1.41,0,.74.06.7.02.74-.06.07-.12,1.1-.03,1.25.06.11-.03.24.04.27.03.01.04.03,0,.05-.08.06-.06,3.03-.13,3.03-.03,0-.02.49,0,.49.14-.01-.05.32-.01.36.08.08.07,2.58.17,2.62.02,0,.02.07,0,.13-.04.2.03.43-.02,1.06-.02.28-.03.63-.02.63.03,0,.04.67.01.72-.01.02,0,.02.05-.02.07-.05.07-.05.03.02-.06.11.01.09-.04.24-.03.09-.03.12.02.15.04.02.05.04.02.06-.08.05-.05.18.04.18.07,0,.07,0,.03.06-.17.2-.04,2.4,0,2.41.02,0,.45,5.36.45,5.36.12.54-.12.44,0,.61.11.15-.06.16-.07.5,0,.19-.09.57-.14.57-.03,0-.11.22-.02.1.03-.04.06-.05.08-.03.03.05-.04.04-.04.18,0,.06-.02.11-.04.13-.05.03-.02.16.04.16.05,0,0,.09-.05.06-.07-.04-.04.06.04.12.04.04.06.08.05.1-.03.05.03-.03.13.05.07.05.07.06,0,.1-.08.05-.09.1-.02.1.14,0,.3.09.3,0,0-.1.26-.04.11.02-.05.02.26.05.38-.03.18-.13-.01.09.31.04.27-.04.33-.08.29-.02-.04.07.02-.02.13.03.12.07.04-.05.26,0,.22.05.3.05.24-.02-.03-.04,0-.04.2,0,.32.07.32,0,.6,0,.26-.02.33-.09.29-.02-.02.04-.01.04.06,0,.06-.03.08-.03.06,0-.03.05.05.06.05-.02,0-.08.19-.06.19-.03,0,.04.77,0,.75.05-.05.08.52-.09.58.02.03.05.04.05.14,0,.14-.07.27-.07.24,0-.03.08.05.08.08,0,.02-.04.04-.05.09-.02.07.04,1.02.02,1.09-.02.02-.01.05,0,.07.03.06.09.26-.07.34-.03.07.05.53.09.73.06.34-.04.61.09.61.04,0-.03.42-.04.39.01-.01.02.01.01.05-.02.07-.06.21-.06.21,0,0,.05.24-.05.3.01.07.07.09-.09.23-.01.09.05,0-.02,1.38.01.5.01.46.09.46.02,0-.07.06-.09.1-.03.05.08,1.54,0,1.69.09.07.04.04-.02.37-.03.32-.02.47-.08.44-.03-.04.06,1.86.06,1.85.06.41,0,.76.02.78.04.04.04.05.03.03-.05-.02-.09.03-.1.18-.02.09.05.15.05.29.02.25-.05.31.06.31,0s.6.01.68-.05c.1-.09.03.09.82.03.25-.02.3-.01.32.04.02.05.03.05.11,0,.05-.04.09-.04.09-.02,0,.04.19.03.27-.02.03-.02.04-.01.02.02-.02.03-.01.04.02.03.32-.12.11-.01.4,0,.22,0,.16-.07.21-.05.02.02.38.1.33.02-.02-.03,0-.02.05.01.07.06.08.06.17,0,.14-.1.09.05.16,0,.06-.03.18.11.13.03-.02-.03,0-.05.08-.04.21,0,.69-.03.73-.06,0,0,1.07.09,1.17-.01.09-.09.13.05.29,0,.17-.04.51-.05.55-.01.06.05,0-.04,1.09-.06.46,0,.49-.01.49-.09,0-.04.01-.06.03-.04.07.09.32.23.26.14-.03-.04.27-.07.84-.06.61,0,.46-.09.65-.02.07.03.17.04.2.03.13-.04.67-.06.65-.03-.02.04.48.03.55,0,.08-.05.17.1.21,0,.02-.06.16-.08.19-.02.04.07.79-.04.79.04,0,.03.02.03.09,0,.1-.06.85-.09.81-.03-.03.05.1,0,.07-.05-.05-.08.04.06.16.01.11-.04.2.03.16-.03-.02-.02-.01-.07,0-.11.03-.06.04-.05.06.02.06.19,1,0,1.12.09.04.03.06.03.08-.01.03-.05.66-.11.95-.09.19.01.22-.11.29-.09.07.03.45-.05.9-.06.49,0,.53-.16.56-.08.02.06.09.05.07.01-.04-.12.17.06.39,0,.48-.14,1.15-.02,1.32-.14.05-.03.1-.04.11-.03.03.05.25.08.27.04.04-.07.43.05.49-.16l.03-.08c.03.06.07.17.14.18.27.02.39.01.39-.01,0-.03.23-.02.44.03.1.02.14,0,.21-.06.07-.07.08-.07.06-.02-.04.11.19.04.2.02.03-.04.23-.07.21-.03-.03.05.14.05.14,0,0-.03.28-.06.24,0-.04.06-.02-.04.4-.04.17,0,.32,0,.32-.02,0-.02.06-.03.14-.02.4.01,1.19-.07,1.19,0,0,.05-.09-.03.61-.03.72,0,.76-.06.78-.02.04.06.92-.05.98.05.05.09.07-.07.28-.03.21.03.18-.09.26-.02.08.06.7.03.77.07.03.02.03,0,.01-.02-.02-.04,0-.04.12-.02.22.04.68.04.73.01.02-.01.05-.01.06,0,.05.09,1.01.01.9.08-.09.06.08.04.08,0,0-.05.19-.03.19,0,0,.03,1.26,0,1.26.04,0,.07.59-.09.7.02.04.04.06.04.07.01.02-.05.25-.05.3,0,.02.02.1.02.2,0,.17-.03.42,0,.53.05.11.06.03-.08.22-.01,0,0,4.83.21,4.94.18.09-.03.09-.03.04.04-.05.07-.05.07.01.01.05-.05.1-.05.21-.03.22.05.2-.06.25-.02.03.03.75.05.75.01,0-.02.06-.01.14,0,.21.06,1.41.06,1.39,0-.01-.06.07-.05.07-.01,0,.04.87.02.99-.02.12-.04,0,.06.24.03.07,0,1.48-.04,1.48.04,0,.02.02.02.04-.01.09-.15,1.14-.02,1.35-.09.08-.03.12-.02.14,0,.04.06.38.04.36-.03-.02-.06.05-.08.08.03.02.07.18.09.28.03.03-.02.08-.01.11,0,.1.05.38.03.71.08.33.05.34-.06.43-.04.07.01.01-.1.14-.13.13-.03.08-.13.15-.13.21,0,.11-.7.22-.83.03-.04.03-.05,0-.05s-.03-.02,0-.06c.04-.04.04-.06,0-.04-.06.03-.06.04,0-.2.05-.25.13-.18.08-.24-.06-.07,0-.05.02-.21.06-.39-.06-1.51-.02-2.48.02-.44.02-.66-.01-.68-.03-.02-.01-.06.03-.14.12-.19,0-.36.05-.61.05-.19.05-.63.09-.69.04-.07.04-.35,0-.41-.02-.03-.02-.08,0-.15.06-.13.06-.49,0-.54-.03-.03-.03-.05,0-.05.19,0,.09-.92.19-1.42.06-.28-.05-3.85-.17-3.85ZM5.68,2.19s-.08-.08-.02-.08.04.08.02.08ZM28.19,1.51s-.08-.08-.02-.08.04.08.02.08ZM29.98,2.12s-.08-.08-.02-.08.04.08.02.08ZM49.87.4c-.06,0,0-.08.02-.08s.03.08-.02.08ZM66.42,37.66c-.05,0-.05-.08,0-.08s.05.08,0,.08Z"/>
  <path d="M11.41,2.69s.06,0,.05-.02c-.03-.03-.15.02-.05.02Z"/>
  <path d="M.81,1.32c.05-.06.05-.06,0-.02-.09.07-.13-.02-.1.04.04.06.04.06.1-.02Z"/>
  <path d="M12.42,1.83s-.08-.08-.08-.02.08.04.08.02Z"/>
  <path d="M47.89.4c0-.05-.09-.05-.06,0,.04.06.06.04.06,0Z"/>
</svg>