<?xml version="1.0" encoding="UTF-8"?>
<svg id="Layer_1" data-name="Layer 1" xmlns="http://www.w3.org/2000/svg" viewBox="0 0 66.98 25.01" fill="#2c2013" preserveAspectRatio="none">
  <path d="M64.96,10.22c-.05,0-.04.08-.02.08s.08-.08.02-.08Z"/>
  <path d="M66,2.22s0-.01-.04,0c-.07.02-.08,0-.06-.04.04-.1-.11-.1-.08-.19.03-.07-.05-.02-.08-.18-.06-.33-.52-.34-.52-.42,0-.06-.03.03-.1-.04-.04-.03-.06-.03-.1,0-.04.04-.03.04.01.02.05-.03.05-.02,0,.03-.04.04-.08.05-.15.04-.4-.1-.26.11-.38.11-.05,0-.05-.01-.02-.05.06-.07-.49-.03-.58.05-.05.04-.07.05-.09,0-.03-.08-.17-.06-.19.03-.02.07-.02.07-.09,0-.09-.09-.19-.09-.21,0-.03.11-.2.04-.2,0,0-.06-.26.03-.45-.03-.1-.03-.13-.03-.15.03-.03.09-.09.12-.14.09-.08-.07-.55-.08-.69-.02-.22.09-.36,0-.36.08,0,.07-.07.07-.1,0-.07-.2-.28.04-.37,0-.03,0-.07.01-.09.04-.04.05-.05.05-.13-.03-.09-.09-.19-.11-.26-.04-.03.03-.08.03-.2-.02-.22-.09-.08,0-.29,0-.09,0-.12-.02-.1-.05.05-.06-.08-.05-.08-.02,0,.09-.45.1-.52.01-.08-.11-.12-.03-.28.16l-.08-.09c-.08-.1-.2-.09-.2.01,0,.08-.15.07-.09.03.07-.04-.18-.12-.16-.09.03.05-.09.18-.12.13-.05-.07-.17-.1-.23-.05-.09.07,0-.04-.15-.11-.09-.04-.11-.03-.1.07,0,.01-.07.02-.15.03-.23.01-.26.12-.26.05,0-.05-.15-.08-.15.03s-.06.08-.13,0c-.07-.07-.2-.11-.16-.04.02.04-.09.12-.07,0,.01-.06,0-.07-.02-.03-.05.07-.15,0-.18.04-.03.05-.21-.01-.21.04,0,.05-.11.05-.11,0,0-.05-.26-.01-.34.05-.08.06-.17.07-.12,0,.07-.08-.23-.08-.25-.05-.05.08-.17-.13-.77.09-.04.01-.05,0-.04-.02.04-.06-.06-.07-.6-.06-.48,0-.68,0-.65.05.05.07-.06.08-.13,0-.1-.1-.14-.1-.25,0-.09.07-.27.07-.22,0,.04-.06-.11-.03-.16.03-.1.13-.11-.08-.37,0-.25.08-.15-.06-.44.01-.13.03-.17.03-.21-.01-.07-.08-.41-.03-.41.06,0,.08-.05.07-.11-.02-.03-.04-.09-.08-.15-.08-.13,0-.01.07-.16.1-.15.03-.2.07-.27.01-.07-.06-.48-.06-.59-.09-.11-.03-.15.14-.15.07,0-.05-.15-.05-.15,0,0,.02-.05.03-.11.02-.16-.02-.08.07-.19,0-.1-.05-.05.02-.14-.03-.11-.06-.28.1-.28.04,0-.04-.11-.04-.11,0s-.13.04-.1,0c.01-.02,0-.03-.05-.01-.06.02-.06.02-.01-.05.11-.14-.05.04-.11,0-.05-.03-.06.07-.14.04-.04-.01-.05,0-.03.02.02.03,0,.04-.04.02-.11-.04-.25.1-.31.01-.02-.04-.32-.07-.32.02s-.1,0-.2.06c-.04.02-.07.02-.08-.02-.03-.07-.49-.08-.46,0,.03.07-.02.07-.11-.01-.14-.13-.16.07-.45-.03-.24-.08-.44.01-.4-.06.01-.03,0,0-.05.04-.14.16-.64-.01-.93,0-.36.02-.12.22-.34.1-.17-.09-.12.04-.19,0-.07-.04-.02.1-.19,0-.2-.12-.25.07-.34-.02-.08-.08-.13.11-.24.05-.09-.06-.34-.01-.34-.08,0-.03-.03-.01-.07.03-.07.08-.25.09-.33.02-.06-.06-.21.12-.16.05.04-.07-.1-.06-.07,0,.03.05-.09.02-.19.06-.04.02-.06.01-.04-.02.04-.06-.09-.09-.26-.05-.29.07-.17-.11-.42.03-.17.1-.17.1-.15,0,.01-.04,0-.08-.02-.08-.02,0-.03-.02-.02-.05.01-.03,0-.02-.03,0-.06.06-.09.07-.31.11-.11.02-.14,0-.12-.02.04-.06-.1-.11-.12-.05-.02.06-.09.05-.07.02,0-.02-.09-.03-.21-.03-.43,0-.02.16-.35.17-.11,0-.14-.01-.13-.05.04-.09-.12.01-.28-.05-.18-.07-.23.21-.26.05-.02-.11-.1,0-.15-.07-.02-.03,0-.03.03-.01.03.02.04.02.02,0-.1-.11-.22.02-.15.02.05,0,0,.11-.04.11-.02,0-.03-.02-.01-.04.01-.02,0-.03-.04-.01-.05.02-.05.03-.02.08.07.08-.08.03-.08-.07,0-.16-.16.1-.21,0-.05-.08-.09.12-.18.06-.07-.06-.25-.09-.28-.05-.03.05-.17-.03-.17.04,0,.06-.31.06-.31,0,0-.06-.06.02-.1-.04-.02-.03-.04-.03-.08,0-.07.06-.57.07-.71.02-.08-.03-.12-.03-.18.03-.07.06-.2.05-.2,0,0-.05-.59-.02-.68.03-.07.04-.1.04-.16-.01-.09-.08-.16-.08-.16,0,0,.05-.02.05-.09.03-.17-.06-.6.04-.6-.11,0-.07-.18,0-.12,0,.09.03.05.08-.06.08-.06,0-.14,0-.18.02-.17.06-.14-.18-.34-.07-.27.14-.2-.02-.41-.02-.09,0-.11.01-.07.05.06.08,0,.11-.08.04-.17-.12-.09.15-.25,0-.07-.07-.32-.09-.32-.03,0,.02-.05.02-.12.01-.21-.03-.13.12-.24.04-.08-.06-.3-.08-.36-.04-.09.07-.19-.09-.28-.02-.06.05-.27.03-.29-.03-.02-.05-.13-.07-.1.03.01.04,0,.05-.01.02-.05-.07-.23-.13-.27-.08-.06.06-.28.03-.32.08-.03.05-.23-.09-.26-.06-.05.05-.12-.1-.33.02-.13.07-.26.07-.26,0,0-.02-.05-.03-.14-.01-.21.04-.2-.07-.28-.02-.04.03-.04.04,0,.04.06,0,.03.1-.05.04-.07-.05-.51-.08-.51-.03,0,.04-.07.03-.2-.03-.04-.02-.07,0-.08.04-.03.14-.18-.19-.27-.07-.05.07-.22.1-.21.04.01-.05-.16-.07-.33-.02-.28.07-.17-.16-.31-.04-.06.05-.07.05-.12-.02-.07-.09-.03-.02-.11.08-.06.08-.05.07-.39-.11-.42.3-.4.1-.35.08.05-.02-.11-.05-.26.03-.11.06-.23.04-.19-.02.01-.02,0-.03-.04-.03-.08,0-.09-.12-.1-.01,0,.25-.25-.02-.29.04-.02.04-.48.02-.73-.03-.15-.03-.2-.03-.23.02-.05.06-.3.08-.26.02.01-.02,0-.03-.06,0-.11.04-.41-.07-.33-.11.06-.04,0-.06-.1.04-.07.07-.07.07-.14.01-.09-.08-.08-.07-.17.15-.07-.08-.18-.2-.15-.12.04.1-.14.07-.13.02.01-.06-.16-.04-.2-.11-.02-.04-.04-.03-.05.01-.02.05-.05.05-.13.04-.15-.04-.16-.14-.16-.06,0,.03-.02.04-.04.03-.02-.01-.03,0-.01.04.04.1-.27,0-.32-.05-.04-.06-.05-.06-.03,0,.06.17-.33.15-.4.08-.09-.09-.3.03-.25-.05.02-.04.02-.04-.03,0-.06.05-.39.1-.36.05.01-.02,0-.03-.04-.03-.08,0,0,.06-.17.06-.08,0-.11-.01-.09-.04.02-.03.01-.03-.02-.02-.1.06-.17-.12-.26,0-.03.04-.07.05-.09.04-.06-.04-.2.02-.17.07.01.02,0,0-.04-.04-.07-.09-.18-.12-.16-.04.01.06-.16.09-.2.04-.03-.05-.2-.1-.2-.06,0,.04-.58.05-.56.01.03-.05-.22-.04-.36,0-.1.03-.14.03-.15,0-.02-.06-.08-.05-.08.01,0,.03-.03.06-.08.06-.1,0-.09-.09-.04-.06.04.03.12-.11-.19-.02-.24.07-.2-.11-.34.01-.1.09-.04,0-.33-.03-.15-.01-.18,0-.16.04.03.07-.04.11-.1.07-.23-.15-.6.17-.52.08.07-.07-.2-.19-.29-.13-.05.03-.51.07-.45.05.03-.01.05-.04.05-.06,0-.05-.05,0-.21-.05-.09-.02-.12-.01-.16.03-.06.08-.47.11-.55.04-.13-.11-.67.14-.66-.02,0-.09-.16-.06-.15,0,.01.07-.1.09-.16.03-.08-.08-.4-.08-.46,0-.04.05-.05.05-.13,0-.05-.03-.08-.04-.06-.02.04.06-.08.05-.11,0-.04-.07-.21.07-.35-.02-.1-.06-.18-.04-.15.04.04.09-.04.09-.12,0-.1-.11-.24-.13-.21-.03.06.17-.06-.17-.2,0-.04.05-.33.09-.3.04.02-.03-.18-.11-.25-.11-.06,0-.04.26-.2.1-.07-.07-.22-.1-.25-.06-.05.09-.55-.11-.5,0,.03.08-.01.1-.1.05-.11-.06-.41-.06-.41,0,0,.08-.07.09-.13.02-.05-.06-.12-.07-.52-.07-.63,0-.53.11-.63.07-.04-.01-.06,0-.06.03,0,.04,0,.04-.03,0-.05-.09-.05.03-.12.03-.02,0-.03-.02-.01-.04.03-.05-.51-.05-.57.05-.04.06-.05.06-.11-.02-.1-.13,0,0-.5-.01-.41-.01-.32.07-.41,0-.07-.04-.09-.04-.15.05-.04.05-.07.08-.07.05,0-.1-.23-.24-.18-.11.03.07,0,.11-.07.07-.06-.04-.3-.04-.35,0-.03.02-.06.01-.09-.02-.05-.06-.15-.08-.15-.03,0,.05-.53.19-.44.05.03-.05-.59,0-.59-.06,0-.05-.15.16-.15.1,0-.06-.11.02-.11-.04,0-.06-.1-.05-.15.01-.05.06-.19.04-.24-.03-.03-.05-.16,0-.13.05.03.05-.14,0-.18-.05-.01-.02-.08-.03-.14-.02-.12.02-.22-.05-.17-.11.03-.04-.07,0-.07.1s-.12.08-.1.04c.03-.06-.07-.02-.04-.07.04-.06-.26-.02-.07.05.06.02.06.03.01.06-.04.02-.08.01-.12-.03-.13-.12-.73-.06-.84-.11-.13-.05-.13.16-.28.08-.12-.07-.11-.13-.19-.05-.12.12-.25-.11-.25.04,0,.17-.17-.1-.26-.06-.03.01-.04,0-.03-.03.01-.02,0-.04-.01-.04-.06,0,0,.05-.15.11-.18.06-.23-.1-.23-.11,0-.04-.24-.05-.15,0,.07.05.03.1-.04.03-.05-.05-.07-.05-.13,0-.1.07-.16.07-.19-.01-.03-.1-.59-.08-.63-.01-.07.11-.15-.15-.38-.07-.07.02-.15.03-.18.02-.07-.03-.27.16-.26.23.02.08-.08.13-.12.07-.02-.03-.02,0,0,.05.04.14.03.84-.01.87-.07.04-.09.2-.04.31.05.11.07.54.03.6-.05.08-.07.18-.04.15.06-.04,0,.15.1.26.04.05.05.07.02.07-.03,0-.04.04-.04.09.01.14-.09.24-.04.34.02.04.02.07,0,.07s0,.02.02.05c.07.09-.05.06,0,.16.02.04,0,.05-.02.03-.02-.02-.04-.02-.04,0,0,.05-.08.17,0,.12.09-.06-.03.28.04.17.03-.04.04-.04.04,0,0,.03.02.04.05.02.08-.04-.05.02-.02.18.01.07,0,.11-.03.11s-.04.01-.01.05c.06.07,0,.22.04.22.03,0,.12.2.08.17-.03-.02-.05.08-.04.22,0,.05-.01.06-.08.05-.17-.04.16.04.05.25-.06.11.04.04.03.15,0,.04-.03.07-.05.06-.1-.04.08.27.03.33-.05.06-.02.33-.07.37-.05.03-.05.25-.09.27-.06.02-.04.08.03.08.05,0,.06.03.05.13-.02.17.05.07.05.15,0,.03-.03.07-.06.08-.05.02-.06.06-.04.18.03.22-.08.33-.02.29.07-.04-.02.42.04.65.03.12.03.15-.02.18-.06.04-.08.14-.02.14.04,0,.07.48-.02.51-.06.02-.08.16-.02.2.06.03-.02.08.03.15.04.05.02.18-.03.18-.06,0-.04.25-.03.34.02.17-.06.15-.03.22.03.08-.11.15-.05.19.05.03.04.14.01.07-.06-.16-.14.22-.04.22.03,0,.03,0,0,.02-.05.02-.02.17.03.17.04,0,.04.13,0,.1-.08-.05-.07.09,0,.15.07.05.08.07.04.14-.06.13-.03.15-.07.29-.04.12.05.03.05.24,0,.2-.02.1-.1.08-.09-.02.06.16.11.17.08,0,.09.01.03.07-.06.06-.08.14-.03.18.04.04.03.35.07.47.06.19-.19.27-.04.57.11.21-.12.21.01.31.13.1-.09.08,0,.27.1.19-.1.11,0,.31.08.17-.03.11-.03.26,0,.13-.08.16.03.28.09.1.09.12.02.33-.06.18-.07.32-.02.32.05,0,.02.07.11.14.06.05.06.06,0,.1-.07.05-.12.47-.07.51.06.04-.05.14.05.18.08.03.07.15.02.12-.06-.04-.09.05-.04.11.04.04.03.07,0,.11-.12.12.06.81-.04.93-.05.07.03.08-.03.22-.1.22.11.32.07.42-.01.03,0,.07.01.08.05.03,0,.13-.06.13-.1,0,.04.1-.01.19-.04.06-.01.39.04.49.02.03.02.09.01.11-.04.11.15.08.01.18-.06.05-.07.07-.03.15.05.12.06.25,0,.25s-.05.15,0,.15.05.09,0,.06c-.05-.03-.05.1,0,.17.03.05.04.05.02,0-.01-.04,0-.07.01-.07.04,0,.09.14.06.18-.05.08.1.27-.02.41-.06.07-.06.07,0,.05.04-.01.06-.01.05,0-.03.05-.06.43-.03.43.06,0,.11.18.07.26-.04.1.13.54.06.54-.04,0-.04.12-.06.34-.03.28.12.14.05.32-.05.12.03.2.15.17.04-.01.1,0,.12.03.08.08.26.11.26.05,0-.06.21-.07.3-.01.07.04.15-.03.17.03.02.05.14-.09.18-.13.21.16.19.17.28.08.1-.09.14-.09.15,0,0,.04.01.05.02.02.03-.07.09-.02.06.06-.02.05,0,.05.04-.01.05-.06.06-.06.06-.02,0,.14.14-.25.36-.03.07.07.21.09.21.03,0-.02.01-.04.03-.03.08.01.1,0,.05-.04-.08-.05.03-.06.06.02.03.07.2.08.21,0,0-.03.01-.03.04,0,.02.04.04.04.04.01,0-.03.03-.04.06-.02.08.03.03.13.11.13.07,0,.12-.08.05-.08-.03,0-.03-.01.01-.04.08-.05.18,0,.34.02.15.01.16.08.23.01.07-.07.07-.03.24-.1.15-.06.16,0,.11,0s-.08.08.04.05c.05,0,.06,0,.04,0-.07.03-.06.09.02.08.13,0,0-.3.15-.17.08.07.41.13.37.06-.02-.04,0-.04.1-.03.26.04.17-.08.45.04.27.12.13-.04.29.04.16.07.3-.13.28-.04-.02.08.28.03.41.08.14.05.22-.13.29.04.02.05.03.06.04.04,0-.07.35-.08.51-.02.12.04.15.05.2,0,.03-.03.07-.04.08-.02.06.06,0-.09.29,0,.34.1.52.03.47.1-.03.05.08.03.15-.03.03-.03.06-.03.06-.01,0,.06.27-.03.36.04.04.03.06.03.08-.02.02-.05.03-.05.08-.02.08.07.37.03.35.07-.04.06.48-.05.8.01.11.02.16.02.18-.02.02-.04.03-.04.03,0,0,.07.12-.02.12.04,0,.05.15.06.15-.01,0-.04.03-.05.14-.02.31.08,1.13.11,1.26.05.14-.07.35-.1.35-.06,0,.05.14.08.18.04.02-.02.07-.02.14,0,.11.04.22.02.22-.04,0-.04.11-.05.11,0,0,.06.06-.03.13.03.08.06.18-.03.31-.01.12.02.21-.12.16-.03-.05.08.14.02.19.09.02.03.07,0,.14-.09.11-.12.11-.13.17-.05.08.11.04.13.14.13.05,0,.07-.01.06-.03-.04-.04.14-.12.22-.09.11.04.22-.02.41.03.08.02.14.03.14.01,0-.07.69-.06.88.01.03.01.09,0,.11-.03.12-.13.44.14.57-.03.06-.08.07-.08.13-.02.16.16.16-.08.39.02.08.03.09.03.07,0-.02-.03,0-.04.04-.02.11.04.11-.06.25,0,.09.03.74.1.78,0,.07-.18.41.1.36.04-.03-.03.16-.17.3-.07.19.12.1-.11.26-.02.07.04.72.1.82-.02l.06-.08.04.08c.04.08.19.12.19.04,0-.02.03-.04.06-.04.08,0,.03.08.12.08.06,0,.06,0,0-.04-.06-.04.25-.03.47.02.15.03.12-.06.04-.06-.11,0,.07-.07.15-.03.23.12.38-.04.38.03,0,.06.47.05.37,0-.12-.05.03-.09.16-.02.18.09.07-.05.28,0,.18.04.05-.05.23-.05.06,0,.11.02.11.04,0,.04.5.02.57-.02.06-.04.17.1.29.07.12-.03.28.13.29.08,0-.02,0-.06,0-.09,0-.07.22-.13.22-.06,0,.07.18.11.25.06.13-.1.68.05.73-.07.02-.05.03-.05.08,0,.09.09.23,0,.47.06.35.08.16-.15.3-.09.11.05.2.02.27.09.07.07.04-.01.23-.02.2-.01.14-.1.27-.07.12.03.1-.08.18,0,.08.08.18.07.26,0,.06-.06.07-.06.14,0,.14.13.14-.1.29-.03.06.03.4.12.5.03.12-.12.34.06.52-.03.14-.06.19.13.58.06.15-.03.24-.03.27,0,.07.05.42.03.41-.03-.01-.06.13-.06.16,0,.04.06.21-.04.21.04,0,.02.02.03.04.02s.04,0,.04.02c0,.03.01.03.05,0,.04-.03.06-.03.07,0,.01.04.03.04.07,0,.06-.07-.01.01-.08-.09-.04-.07-.04-.08,0-.04.07.06.27.06.31,0,.04-.07-.02.05.14.05.06,0,.13.02.15.04.05.05.13.01.13-.06,0-.05.01-.05.11,0,.13.07.36.08.33.02-.04-.06.36-.03.41.03.02.03.06.04.09.02.06-.04.21-.04.19,0-.03.06.07.03.14-.03.14-.12.06.07.34,0,.24-.07.25.06.38.02.15-.04.25.23.38.07.09-.1.14.05.22-.02.07-.07.15.06.32-.02.21-.1.21.07.7.05.14,0,.27.01.28.03.05.07.12.06.12-.02,0-.15.26-.06.29-.04.05.04.48.04.48,0,0-.02.04-.03.1-.03.14,0,.04.07.23.07.07,0,.13-.02.13-.04,0-.05.16-.03.22.03.07.07.23-.02.19.04-.04.07.32-.03.32.05,0,.03.02.03.07,0,.09-.05.35-.04.35.01,0,.02.02.02.03-.01.02-.04.04-.04.06-.01.04.07.17-.03.15-.12-.02-.09.01-.09.11,0,.13.13.24,0,.29.08.04.07.65-.02.68.03.02.04.21,0,.21-.03,0-.02.05-.02.11-.01.33.05.67-.07.75,0,.07.07.2.02.16.09-.04.07.12-.09.15-.07.03.03.53.05.53.02,0-.02.05-.02.11-.01.18.03.05.09.25.06.08,0,.13,0,.13.02,0,.03.02.03.08,0,.11-.06.25.03.21-.03-.03-.05.12-.09.14-.04.02.05.14.04.32.09.25.06,0-.12.24-.07.2.04.04-.12.21,0,.13.09.21,0,.32.07.07.04.09.04.13,0,.06-.07.17-.07.29,0,.14.08.29-.01.33.04.03.05.21.05.21,0,0-.02.06-.04.12-.04.3,0,.42-.05.39.04-.01.03,0,.03.04-.02.03-.04.06-.05.06-.03,0,.09.43.14.54.06.09-.07.32-.09.37-.03.08.08.24,0,.5.06.32.08.05-.07.42-.04.36.03.28-.16.42,0,.2.2.12-.07.24.03.08.07.05-.02.26.05.12.04.16.04.2,0,.05-.05.22-.06.22,0s.09-.03.17.05c.03.03.1.06.14.06.08,0,.08,0-.01-.06-.18-.11.08,0,.32-.07.19-.05.17.11.27.02.07-.06.23.02.2.1-.01.03,0,.05.02.05.06,0,.04-.11.2-.11.08,0,.11.02.1.05-.03.07.17.07.22,0,.05-.06.19-.04.15.03-.02.03,0,.03.13,0,.03,0-.19-.2.06-.07.1.05.87.09.81-.01-.03-.05-.01-.04.14.03.17.09.52.09.51,0,0-.12.18.06.21-.03.02-.07.19.14.25.08.06-.06.13.04.38.02.24-.02.23.09.28.02.03-.06.06.02.26,0,.24-.02.03.13.59-.04.19-.06.22.09.31.05.03-.01.04,0,.03.02-.04.06.15.05.23-.01.15-.11.42.15.6.06.11-.05.45-.09.47-.05.03.05.25.04.27-.02.04-.11.17.13.26.06.07-.05.04.01.21,0,.06,0,.12.01.12.03,0,.04.39.01.43-.03.05-.05.09.02.31.05.21.02.28.09.28.03s-.08.02-.08-.04.06-.05.14.02.32.07.37,0c.05-.08.25.12.35.08.08-.03.27.1.24.05-.04-.06.22-.01.34-.11.03-.03.06-.03.06-.01,0,.18,1.2.05,1.03.16-.03.02-.04.04-.02.04.08,0,.06-.1.39-.09.33,0,.25-.11.33-.03.07.07.18.02.19.11,0,.11.03-.05.13,0,.12.04.29-.11.32-.03.02.07.15-.11.22-.11.02,0,.02.02-.01.04-.08.05.19.1.31.06.13-.04.31-.04.34,0,.03.05.22.08.22.03,0-.05.93-.04.94.01,0,.03.05.03.12.02.17-.05.28.06.39-.01.14-.09.09.07.37,0,.28-.07.17.06.54.03.58-.04.65.05.65-.01,0-.07.06.03.3.04.31,0,.26.22.42.01.1-.13.17-.04.17-.1,0-.11.18.1.25-.27.05-.25.12-.28.07-.47-.02-.08-.02-.13,0-.12.05.03.05-.11,0-.08-.05.03-.05-.08,0-.11.05-.03.05-.17,0-.17s-.03-.1.06-.09c.07,0,.07,0,0-.03-.04-.02-.06-.06-.05-.07.03-.05-.1-.11-.07-.16.01-.02,0-.04-.02-.06-.05-.03-.05-.36,0-.36s.02-.4-.04-.47c-.06-.07-.12-.37-.08-.37.05,0,.02.09.07.06.03-.02.03-.04,0-.08-.06-.07-.06-.38,0-.45.07-.08-.03-.05-.04-.19,0-.4-.1-.41-.04-.41.07,0,.12-.15.09-.22-.02-.04-.02-.1,0-.14.06-.16-.12-.55,0-.63.13-.08-.06-.33.02-.38.14-.1-.08-.45-.03-.48.05-.03-.04-.22.05-.32.1-.11.02-.52,0-.54-.04-.07.1-.14.01-.3-.04-.08-.04-.1,0-.11.06-.02.07-.16,0-.16-.05,0-.05-.15,0-.15.02,0,.03-.02,0-.07-.03-.06-.03-.3,0-.3.03,0,.02-.37,0-.38-.05-.03.05-.13.08-.11.04.03,0-.22-.04-.26-.06-.06-.05-.14.01-.14.04,0,.06-.04.06-.14,0-.21.03-.36-.01-.41-.06-.08.07-.59,0-.75-.06-.13.1-.08.01-.23-.09-.14.08-.12-.04-.21-.06-.05-.06-.05,0-.05.08,0,.09-.13,0-.19-.1-.08.03-.05,0-.23-.03-.17.06-.07.06-.15,0-.02-.02-.03-.04-.02-.03.02-.04-.03-.02-.15.03-.26-.09-.21,0-.31.09-.09,0-.16.06-.2.06-.04-.02-.15.03-.11.05.03.05-.06,0-.06-.03,0-.02-.03,0-.08.03-.06.03-.07,0-.05-.08.05.02-.08-.03-.11-.05-.03-.08-.22-.04-.27.07-.08.07-.28.02-.4-.04-.09-.05-.13-.02-.19.09-.17-.14,0-.04-.13.06-.07.06-.43,0-.5-.03-.04-.03-.07.01-.12.07-.08.12-.25.06-.22-.05.03,0-.16.01-.24,0-.07.05,0,.05-.14,0-.07-.01-.08-.05-.05-.04.03-.04,0-.03-.09.1-.71-.2-1.68-.03-1.68.04,0,.05-.03.04-.08-.03-.11.05-.05.05-.12,0-.02-.02-.03-.04-.02-.07.04-.04-.47,0-.5.04-.03.04-.1,0-.08s-.08-.12-.04-.15c.07-.04-.07-.64,0-.73.05-.06.02-.16.06-.36.04-.26-.18-.41-.1-.51.06-.07,0-.44.04-.44.03,0,.08-.16.02-.13-.05.03-.03-.09.07-.07.11.02,0-.11.05-.11.03,0,.06-.29-.05-.4-.09-.09.03-.21.09-.19.03,0,.02,0-.03-.04-.08-.05-.08-.06-.02-.08.12-.04-.04-.05.02-.2.05-.14-.04-.09-.04-.17,0-.02.01-.03.03-.02.03.02.06-.21,0-.12-.03.04-.03,0-.01-.1.04-.24.03-.49.09-.64.07-.17-.1-.11.03-.42.05-.14-.11-.12,0-.23.03-.03.04-.06.02-.06-.03,0-.03-.18.01-.3,0-.03,0-.04-.02-.03-.02.01-.04-.01-.04-.05,0-.14.14-.06.03-.18-.09-.1-.01-.17-.07-.17-.05,0,0-.12.04-.09.05.03.01-.16.08-.19ZM.1,12.59c-.08-.05.03-.05.06,0,.03.05.02.05-.06,0ZM.47,22.84s-.08-.08-.02-.08.04.08.02.08ZM64.64,1.52c.07-.03.12.03.02.02-.04,0-.05-.01-.02-.02ZM57.85,1.8s.03,0,.02.04c-.05.13-.08,0-.02-.04ZM48.86,2.1s.05.02,0,.02c-.09,0-.17-.06-.12-.09.06-.04,0,.04.11.07ZM44.47,2.75c.06.03.04.06,0,.06-.05,0-.05-.09,0-.06ZM31.32,2.31c.05,0,.05.08,0,.08s-.05-.08,0-.08ZM30.94,3s0,.05-.08,0c-.09-.06.08-.05.08,0ZM22.78,2.87c.14.05,0,.08-.04.02-.01-.02,0-.03.04-.02ZM.98,8.96c.05,0,.1.08.05.08-.05,0-.1-.08-.05-.08ZM1.02,9.31s-.02.06-.06,0c-.03-.05.06-.05.06,0ZM2.3,23.72c-.03-.05.11-.05.08,0-.03.05-.04.05-.08,0ZM2.91,23.6c-.1,0,.02-.05.05-.02.01.01,0,.02-.05.02ZM20.87,24.02s-.08-.08-.02-.08.04.08.02.08ZM22.52,23.87s-.08-.08-.02-.08.04.08.02.08ZM23.76,24.52c-.05,0-.05-.09,0-.06.06.03.04.06,0,.06ZM25.74,24.48c0-.05.09-.05.06,0-.04.06-.06.04-.06,0ZM36.04,23.83c-.08,0-.08-.08,0-.08s.08.08,0,.08ZM52.06,24.21s-.08-.08-.02-.08.04.08.02.08ZM65.25,3.17c-.08.06-.11.28-.04.34.04.04.04.06,0,.09-.08.06,0,.17-.06.21-.08.05.13.09.05.18-.09.09,0,.18-.13.28-.05.04-.06.06-.03.05.1-.02.05.5.04.53-.05.08-.07.21-.03.21.06,0-.02.15.03.21.07.08-.1.23-.09.4.01.15-.08.13-.05.19.02.03.04.02.06-.01.07-.11.02.37-.04.33-.03-.02-.05.32,0,.32.06,0,.06.17.01.25-.05.08-.03.32.03.32.05,0,.02.4-.04.47-.09.11.1.17,0,.26-.07.07-.06.16.02.13.06-.02.06-.02,0,.05-.1.11-.01.09-.06.21-.04.11.1.32.05.36-.03.02-.12.2-.03.2.07,0,.07.26,0,.34-.03.04-.04.06-.01.08.07.04-.06.27,0,.27.05,0-.02.03.03.16.02.06.02.11,0,.14-.05.05-.06.24-.01.2.06-.03-.05.08.05.18.1.11,0,.16.01.24.08.33-.07.49-.07.64,0,.04-.01.07-.03.06-.04-.02-.05.14.01.11.05-.02.11.26.07.32-.03.05.06.01.06.09,0,.03-.03.06-.06.06-.04,0-.06.04-.05.16,0,.23-.07.32-.02.29.04-.02.18.03.09.08-.1.07-.19-.07-.14.08.05.16.03.19.09.35.06.14.05.19,0,.16-.03-.01-.02,0,.01.03.09.08.06.7.02.73-.08.06.03.45-.06.75-.04.14-.04.17.02.24.04.04.05.08.03.09-.06.04.05.24,0,.27-.04.02-.02.12.06.29.04.09.04.11-.03.16-.15.1.05.1,0,.25-.04.1-.02.09-.06.15-.04.05.02.24.07.24.02,0,.03.03.03.06,0,.07-.04,0-.06.37,0,.19-.03.34-.07.39-.05.08-.04.23.02.31.04.05-.05.03-.06.41-.01.51-.09.58,0,.82.11.32-.14.23.01.4.06.07.06.08-.02.15-.05.05-.07.1-.05.12.05.08.04.52-.02.54-.07.03-.04.21.04.31.06.07.06.09.02.13-.05.05-.06.28-.02.33.05.05.03.13-.03.13-.03,0-.06,0-.06,0,0,.11.16.36.04.38-.11.02-.03.25-.12.23-.11-.02.13.18.02.27-.02.02-.01.03.03.03.12,0-.04.19.03.19.06,0-.05.23.04.23.04,0,.03.02-.02.05-.12.09,0,.38.02.39.05.03.04.09-.02.09-.04,0-.05.05-.04.2.03.57.19.34.15.54-.01.05-.03.09-.05.08-.04-.03-.05.06,0,.06.05,0,.02.27-.03.37-.04.08.06.32.13.32.03,0,.05.03.05.06,0,.09-.09.02-.06.14.05.16-.1.11-.02.27.15.29-.47.09-.71.23-.21.12-.05-.03-.31-.03-.38,0-.68-.04-.7-.09-.02-.04-.04-.04-.09,0-.11.09-.23-.04-.27.09-.05.18-.07-.15-.33,0-.05.03-.07.03-.07,0,0-.03,0-.04-.02-.02-.05.05-.83-.24-.79.04,0,.04-.03.03-.13-.03-.17-.11-.32.08-.39-.03-.04-.06-.12-.03-.28-.07-.2-.05-.18.17-.34.08-.09-.05-.64-.07-.67-.02-.03.04-.17.03-.17,0,0-.07-.22,0-.11-.08.07-.05-.01-.06-.07.01-.05.06-.38.06-.52,0-.05-.02-.06-.02-.05.01.03.06-.04.1-.07.05-.03-.05-.03.01-.25-.04-.28-.06-.22.11-.34-.03-.07-.09-.12-.11-.1-.04.01.06-.11.1-.07.03.04-.06-.04-.02-.14.07-.09.08-.08-.02,0-.06.05-.03.05-.04,0-.08-.05-.04-.06-.04-.06.01,0,.18-.21-.11-.13.02.05.09-.07,0-.12,0-.01,0,0-.02.01-.05.02-.04.02-.04-.03,0-.04.04-.07.04-.1,0-.03-.03-.04-.03-.04,0,0,.08.14.13.03.13-.09,0-.06-.08-.23-.07-.18.01-.22-.08-.22.02,0,.06,0,.06-.05,0-.05-.07-.1-.07-.36,0-.14.03-.13-.09-.23-.09-.09,0,0-.09-.16-.03-.16.06-.52-.03-.59.03-.08.06-.22.08-.22.03,0-.06-.23-.08-.23-.02,0,.05-.22.05-.25,0-.03-.05-.21-.08-.24-.04-.01.02-.05.02-.09,0-.09-.05-.46-.05-.46,0,0,.02-.04.02-.1.01-.19-.04-.15.14-.28-.01-.13-.16-.07.04-.26-.04-.07-.03-.1-.03-.12,0-.04.06-.2.1-.2.06,0-.1-.46-.12-.56-.03-.1.09-.1.09-.18.02-.09-.09-.3-.05-.27-.1.02-.03-.29-.03-.5,0-.05,0-.07,0-.07-.04.02-.08-.15.02-.12.07.02.03,0,.03-.05,0-.06-.03-.09-.03-.12.01-.08.09-.18-.04-.17-.06.02-.03-.13-.03-.13,0,0,.04-.14.04-.17,0-.04-.06-.16-.05-.22.02-.07.07-.19.03-.16-.04.03-.08-.11-.03-.07-.09.04-.06-.03-.04-.13.04-.12.1-.18.1-.24,0-.07-.1-.14-.1-.12,0,.03.15-.01-.05-.16-.05-.06,0-.09.02-.07.04.02.03,0,.04-.04.02-.1-.04-.13,0-.15-.09-.01-.05-.02-.04-.02.02,0,.05-.02.08-.04.07-.06-.04-.04.12-.11-.01-.13-.24-.28.17-.22-.02.03-.1-.21-.07-.21-.03,0,.06-.15.02-.15.08,0,.02-.04.01-.09-.02-.12-.08-.48-.09-.52-.02-.06.09-.07-.05-.18-.01-.04.02-.05,0-.03-.03.02-.03,0-.03-.08.01-.14.07-.11.04-.24,0-.14-.03-.27-.08-.27-.03,0,.06-.14.08-.22.03-.11-.07-.27-.1-.3-.06-.05.08-.19.1-.27.05-.11-.07-.67-.11-.73-.05-.07.06-.28,0-.28.03s-.26.04-.29,0c-.02-.04-.68-.06-.69-.05-.03.05-.21-.02-.21.04,0,.08-.08-.05-.59-.08-.07,0-.23.08-.19.01.04-.06-.05-.05-.12.02-.07.07-.1.07-.19,0-.1-.09-.55-.11-.55-.03,0,.15-.13-.07-.22.05-.04.06-.05.06-.03-.01.01-.07,0-.08-.16-.07-.34.01-.47.18-.41.03.01-.04.01-.05,0-.04-.04.04-.21-.07-.21,0,0,.05-.15.05-.15,0,0-.05-.19-.04-.26.02-.03.02-.07.02-.11.01-.08-.03-.03.05-.12.05-.06,0-.06,0,0-.04.04-.03.04-.04,0-.04-.45-.05-.57.09-.68,0-.08-.07-.02.01-.15-.04-.06-.02-.1-.02-.1,0,0,.11-.6-.21-.66.01-.01.05-.04.07-.05.05-.04-.05-.1-.05-.21-.08-.11-.03-.08.11-.3.06-.24-.05-.42-.07-.42-.03,0,.05-.26.04-.29,0-.03-.05-.11-.02-.24-.06-.14-.04-.04.06-.16.06-.04,0-.08-.01-.08-.03,0-.03-.37-.03-.41,0-.04.04-.26-.09-.33,0-.05.06,0,.02-.13-.03-.18-.08-.25.09-.3.02-.03-.06.06-.03-.04-.07-.11-.05-.18.04-.38,0-.23-.05-.25.07-.43.07-.15,0-.08.13-.2,0-.19-.19-.45.08-.47-.01-.02-.07-.98-.07-.93-.15.02-.03-.12-.04-.11.07,0,.06,0,.07-.04.04-.03-.03-.05-.02-.06.01-.04.13-.08-.18-.34-.04-.15.08-.34-.29-.34-.1,0,.09-.13.04-.04.1.07.05-.01.06-.07-.02-.06-.08-.15,0-.15-.05,0-.05-.11-.04-.11-.01,0,.03-.15.03-.15,0,0-.04-.21-.01-.3.04-.14.09-.32-.06-.31,0,.02.18-.24-.14-.18-.04.04.06-.05.06-.05.01s-.31,0-.36.05c-.04.05-.26.11-.18.02.06-.07.01-.12-.05-.06-.07.06-.33.11-.36.08-.03-.05-.34-.08-.37-.04-.01.02-.04.03-.05.02-.07-.04-.47-.06-.52-.02-.07.06-.19-.02-.34.03-.12.04-.18.02-.09-.04.07-.05-.38-.01-.51.04-.06.02-.1.01-.13-.02-.06-.06-.28-.07-.28-.01,0,.02.02.04.04.04.05,0,.03.06-.08,0-.12-.06-.45-.09-.48-.05-.01.02-.07.04-.12.04-.17,0-.1.18-.19.04-.06-.08-.2-.11-.2-.04,0,.1-.34-.01-.34-.09,0-.02-.02-.01-.05.02-.06.07-.24.12-.28.07-.02-.04-.32-.07-.25.01.07.08,0,.11-.08.04-.07-.06-.08-.06-.18,0-.11.06-.25.05-.21-.02.03-.04-.14-.05-.14,0,0,.05-.28-.01-.25.04.03.04-.21-.04-.19-.08.02-.03-.13,0-.16.04-.05.08-.24-.13-.55.03-.06.03-.1.03-.13.01-.09-.07-.28-.09-.34-.03-.07.07-.12.08-.08.02.01-.02,0-.02-.05,0-.15.09-.03-.06-.39,0-.47.07-.36-.17-.53-.07-.14.09-.25-.08-.3,0-.04.07-.21-.02-.21.05,0,.07-.15.01-.15-.02,0-.04-.36-.03-.39.01-.02.03-.04.02-.08,0-.1-.08,0,.05-.29.02-.1,0-.18,0-.17.02.01.02,0,.03-.02.03-.1,0,.02-.24-.19-.17-.1.03-.1.07-.01.16.11.11.01.02-.2,0-.16-.02-.12-.09-.18-.09-.05,0,.03.08-.05.08-.09,0-.04-.09-.1-.06-.03.02-.02.04.03.08.06.05.06.05-.04.05-.09,0-.1-.01-.08-.08.02-.06.01-.07-.01-.04-.05.07-.07.02-.17.06-.12.05-.22-.11-.22,0,0,.09-.39.05-.36,0,.03-.07-.04-.09-.09-.03-.08.1-.25-.06-.29.04-.02.06-.21.07-.21.02,0-.05-.17-.05-.23,0-.03.03-.04.03-.03,0,.03-.05-.96-.05-1.04,0-.06.03-.21,0-.25-.07-.02-.02-.02,0,0,.04.03.1.03.1-.13.04-.22-.08-.24.11-.33-.02-.03-.05-.07-.06-.12-.04-.07.03-.07.03,0,.06.1.04.02.09-.07.03-.11-.08-.26.02-.51-.01-.26-.03-.19.09-.44,0-.22-.07-.2,0-.36-.05-.09-.03-.12-.03-.13.02-.03.07-.12.07-.18,0-.05-.06-.68-.04-.75.02-.05.04,0-.03-.31-.02-.33,0-.32,0-.32.07,0,.03,0,.06-.01.06-.06,0-.29-.1-.34-.15-.12-.11-.02.03-.11.09-.1.06.09-.18-.07-.04-.05.05-.08.05-.08.02s-.03-.04-.09-.02c-.13.04-.34,0-.41.07-.11.13-.23-.17-.33-.03-.09.12-.22-.08-.26.02-.01.03-.04.03-.11,0-.11-.05-.7-.03-.72.02-.02.06-.22-.06-.3,0-.09.07-.17-.09-.27-.05-.1.04.06-.2-.06-.05-.09.11-.2,0-.29.08-.1.08-.19-.2-.34-.02-.07.09-.1-.09-.17-.05-.02.01-.03,0-.03-.02,0-.02-.03-.02-.06.02-.1.1-.13-.04-.25.03-.05.03-.09.03-.17,0-.18-.09-.64-.11-.73-.04-.04.04-.05.04-.04,0,0-.04-.07-.05-.35-.06-.56,0-.57-.08-.74-.01-.09.04-.12.04-.13,0-.01-.04-.03-.04-.07,0-.09.08-.22-.12-.31-.12-.02,0,0,.02.02.04.04.03.03.03-.06.03-.19,0-.26.08-.3-.01-.03-.07-.13-.08-.15-.01-.01.03-.04.03-.1,0-.14-.07-.07.03-.19.03-.05,0-.05,0-.01-.03.04-.03.04-.04-.03-.08-.17-.09.02.1-.19.05-.22-.05-.15.1-.39-.03-.28-.15-.53.07-.74-.04-.16-.09-.51.04-.52-.09,0-.12-.04.03-.1.1-.02.03-.17-.11-.17-.02,0,.04,0,.03-.04,0-.03-.04-.05-.05-.09,0-.09.08-.25-.09-.25-.12,0-.05-.11.07-.12.02,0-.05-.07.18-.1.11-.02-.06-.1-.06-.07,0,.02.04.02.04-.02,0-.04-.03-.07-.03-.12.03-.07.07-.2.07-.16,0,.02-.04-.14-.02-.2.02-.03.02-.05,0-.05-.04,0-.06,0-.06-.03-.01-.03.07-.08.05-.18.04-.08,0,.03-.1-.14-.11-.21-.01-.39-.07-.36-.01.04.06-.11.03-.08.07.03.06-.29-.04-.37.07-.12.16-.3-.18-.52-.02-.1.07-.24.09-.21.03.03-.04-.15-.04-.12,0,.04.07-.04.04-.11-.04-.13-.14.06-.26-.01-.41-.08-.15,0-.35-.12-.47-.05-.05-.05-.06,0-.07.08-.01.08-.08.01-.11-.07-.03-.05-.19-.07-.28,0-.03,0-.05.04-.05.07.01.06-.13-.01-.2-.05-.05-.05-.08-.02-.15.06-.1.02-.31-.06-.36-.08-.04,0-.16-.06-.33-.05-.18.08-.19,0-.22-.08-.03.06-.19.09-.04.02.09.09,0,.02-.07-.1-.1-.02-.26-.14-.34-.05-.03-.04-.04.01-.09.14-.11-.09-.33.03-.45.06-.06.06-.12.01-.69-.04-.48.13,0-.01-.48-.05-.16-.02-.2.06-.1.05.06.05.06.04.01-.04-.11.09-.08-.02-.18-.19-.17.06-.22,0-.49-.05-.23.07-.14,0-.38-.08-.33-.09-.45,0-.51.07-.05.07-.06,0-.1-.05-.04-.05-.05-.01-.05.04,0,.03-.03-.03-.09-.13-.13-.02-.15-.08-.2-.03-.02-.03-.04.01-.07.06-.05.13-.19.07-.16-.02.01-.02-.03,0-.11.08-.29-.18-.33-.07-.61.03-.08.04-.15.02-.16-.05-.03.02-.13-.04-.25-.1-.18.17-.16,0-.28-.07-.05-.08-.07-.03-.1.03-.02.07-.04.08-.05.04-.01,0-.19-.05-.16-.07.04.12-.23,0-.16-.05.03-.05-.13,0-.13.06,0-.06-.33.03-.41.07-.06.03-.34-.06-.44-.06-.06-.05-.16.02-.16.04,0,.02-.25.01-.59,0-.44-.1-.52-.02-.49.06.02.07-.12.02-.21-.06-.09.14-.15.04-.15-.03,0-.04-.02-.03-.04.03-.05.1.02.1-.04s-.07,0-.07-.12c0-.11.07-.06.07-.12,0-.02-.02-.03-.04-.01-.03.02-.04,0-.02-.06.04-.13.03-.31.07-.37.02-.03,0-.05-.02-.05-.07,0,.01-.19-.04-.19s-.04-.1.02-.15c.06-.05.08-.27.02-.27-.02,0-.02-.04,0-.09.05-.13-.01-.32.04-.35.05-.03.04-.18-.02-.26-.09-.12.05-.13,0-.22-.04-.06-.02-.26.02-.32.11-.14-.04-.86,0-.86.09,0,.11-.01.08-.12l-.07-.23c-.06-.19.09-.18.07-.28-.02-.12.08-.39,0-.53-.02-.05-.03-.07,0-.06.02.01.04-.05.05-.16.02-.32-.1,0,.02-.4.05-.15.03-.69-.02-.75-.07-.07-.06-.17,0-.15.04.02.06,0,.06-.06,0-.06-.02-.07-.07-.06-.06.02-.05.01,0-.03.04-.03.06-.06.03-.06-.06,0-.09-.16-.05-.13.04.03.06-.12-.02-.08-.05.02-.05,0-.01-.06.06-.11.09-.27.03-.18-.06.1,0-.31-.06-.43-.08-.17.04-.61-.03-.79-.05-.12.02-.11.03-.52.02-.57.3-.74.23-.57-.05.12.48.02.53.1.03.05.18.02.22.06.06.06.19.05.26-.02.07-.06.08-.06.12,0,.07.1.07.03.19.13.04.04.06.05.05.02-.03-.05,0-.06.16-.05.13.01.05-.11.14-.11s.01.1.14.04c.16-.08.08.15.39.04.16-.05.05.04.2.04.06,0,.09-.02.07-.04-.01-.02.02-.04.07-.04.15,0,.1.1.22.03.12-.08.22.08.26.02.06-.09.45.05.48-.01.03-.05.11-.05.08,0-.03.06.08.02.1.08.03.09.22-.12.17,0-.03.09.05.07.05.03,0-.03.18-.2.25-.11.05.06.14.09.14.03,0-.12.37.13.43.09.06-.04.18-.05.18-.01,0,.05.09.05.06,0-.05-.09.42-.06.49-.12.05-.04.25-.03.31,0,.08.05.12-.16.28.03.07.08.07.08.09,0,.03-.09.13-.09.23,0,.06.05.08.06.1.02.04-.07-.07-.07-.03-.14.02-.03.04-.03.09,0,.08.07.19.11.21.07.03-.04.48,0,.48-.05s.02.03.26.06c.14.02.17,0,.19-.06.03-.07.03-.07.08-.02.05.06.16.08.15.03-.01-.07.01-.09.08-.05.13.07.22-.12.18,0-.03.08.15.09.18,0,.03-.1.4-.09.4-.05,0,.05.28.04.33,0,.03-.03.06-.03.1,0,.07.06.15-.02.24.04.05.04.07.04.1-.01.13-.17.28.15.35-.07.02-.08.03-.08.1,0,.06.05.07.05.05.01-.05-.1.16.2.22.03.01-.04.03-.04.07,0,.06.05.13.06.1.01-.03-.05.08-.09.11-.04.05.07.43-.07.57.02.07.05.26.03.26-.02,0-.04.12-.05.11.01-.01.07.13.09.18.02.05-.07.36-.11.36-.04,0,.08.18.02.13.1-.04.07.08-.09.2-.05.16.06.11-.18.29-.06.11.07.67.13.63.07-.01-.02-.07-.04-.12-.04-.34,0,.25-.13.25-.03,0,.08.47.08.53,0,.06-.07.06-.05.21.11.18-.27.21-.05.49-.05.04,0,.07.01.06.03-.04.06.16.02.22-.04.14-.14.19,0,.44.03.22.03.22.07.25.02.05-.07.22-.12.3-.08.23.11.5.14.5.05,0-.09.11-.12.18-.04.12.13.38.1.4.07.03-.05-.06-.01-.06-.07s.1-.05.15.02c.03.04.08.05.16.02.15-.04.23.02.23-.03s.13-.03.21.03c.05.04.06.04.06-.01,0-.09.21-.03.21-.02,0,.02.37.02.38,0,.03-.05.34.11.43.03.04-.03.05-.03.05,0,0,.1,0-.06.17-.02.16.04.05-.06.19-.06.06,0,.07,0,.03.03-.07.05,0,.08.09.04.16-.06.23.11.32-.04.12-.19.16.03.08-.03-.06-.04,0,.07.05.04.02-.01.06,0,.09.05.1.14.16-.08.34,0,.13.06.22.09.21.06-.01-.07,0-.09.06-.05.04.03.07.03.1,0,.06-.06.19-.04.19.03,0,.08.06.06.13-.03.05-.07.06-.07.06-.02,0,.07.09.07.16,0,.08-.08.3.22.3.05,0-.04.02-.05.07-.03.15.06-.15-.17.04-.07.18.1.23-.15.4-.04.1.06.56.09.57.03,0-.02.02-.02.04.02.02.03.04.04.04.01,0-.07.23.04.31-.01.07-.04.13.03.2-.03.09-.07.11.07.32.05.08,0,.12,0,.12.04,0,.03.02.05.04.05.06,0-.04-.07.09-.05.12.02.08-.02.13-.11.08-.12.05.11.23.05.19-.07.12.11.43.02.24-.07.15.03.26-.02.06-.03.09-.03.14.02.08.08.21.08.21,0,0-.06,0-.06.04,0,.05.09.18.08.21,0,.07-.23.2.17.3.03.05-.06.06-.06.19,0,.17.07.25.07.25,0,0-.06.1-.08.13-.02.01.02.04.03.06.02.09-.05.05.11.28,0,.15-.07.21-.08.21-.03s.12.07.23.03c.17-.06.11.12.21,0,.05-.07.06-.07.19,0,.14.08.24.11.2.05-.03-.05.09-.14.12-.1.04.05.32.18.34.15.01-.01,0-.02-.03-.02-.09,0,.15-.22.21-.04.02.08.13.11.13.04,0-.05.11-.05.11,0,0,.07.07.04.1-.04.01-.04.04-.07.05-.05.04.06.23.13.23.09,0-.05.13-.05.18,0,.09.09.14-.16.26-.05.04.03.05.04.04.02-.01-.03,0-.05.01-.05.05,0,.04.16.12.18.12.04-.14-.15,0-.15.02,0,.03.02.02.03s.04.03.12.02c.18-.02.28,0,.28-.08,0-.1.09,0,.28,0,.06,0,.11,0,.11.03,0,.04.23.07.25.03.04-.07-.28,0-.11-.08.09-.05.22-.01.18.05-.03.05.25.05.25,0,0-.05.31-.03.34.03.03.04.04.04.05,0,.01-.04.04-.04.11.02.15.13.01-.03.29,0,.24.03.17-.06.12-.06-.04,0-.03,0,0-.03.06-.04.2-.01.18.03-.01.02.71.15.64-.02-.03-.08.28-.05.26.01-.01.06.24.05.34,0,.13-.08.34.22.49.03.07-.09.22,0,.24-.07.03-.08.14.14.25.07.1-.06.1.03.54.04.49.01.27-.16.48-.06.09.05.43.11.42,0,0-.08.05-.03.26-.02.31.02.28.14.48.04.25-.13.18.19.36-.02.07-.09.15-.1.13-.03-.01.06.3.05.38-.02.11-.09.07.08.24.08.02,0,.03.01.02.03-.02.04.09.05.09-.02,0-.1.15.07.15-.02,0-.03.01-.03.03-.02.07.07.01-.11.28.02.2.1.22.1.22,0,0-.08,0-.08.08,0,.06.06.08.07.06.02-.02-.06,0-.06.07-.05.14.02.07-.05.14-.05.06,0-.03.08.05.08.12,0,.05-.24.16-.1.08.1.19.06.18.12-.02.12.18-.09.16-.11-.02-.02.22-.08.25-.03.02.04.22.12.25.03.04-.11.16.06.2-.02.03-.05.24-.02.21.04-.04.07.19-.17.42-.05.14.07.06-.15.38.02.18.09,0-.03.31-.01.39.02,0-.21.37-.08.08.03.13.03.15,0,.03-.04.28-.05.31,0,.06.09.63.03.7-.07.04-.06.05-.06.07.01.04.14.69.05.7.04.08-.05,0,.08.21.02.21-.06.1.06.21,0,.09-.04.26-.03.4-.09.33-.13.02.13.45.03.03,0,.05,0,.05.03-.02.1.14-.09.17,0,.02.06.09.06.09,0,0-.08.31-.06.31,0,0,.03.01.02.03,0,.06-.1.43.13.43-.03,0-.06,0-.06.1,0,.19.12.3-.08.33.05.01.05.02.05.02,0,0-.05.02-.06.06-.05.08.03.11.01.07.07-.02.03,0,0,.05-.05.07-.08.1-.09.16-.05.08.05.17.06.14.02,0-.02.05-.03.13-.04.2-.01.14.08.18.05.06-.04.39.11.39-.04,0-.07.08-.06.08-.02,0,.04.25-.02.29.04.05.08.08-.07.2,0,.08.05.21.01.21-.05,0-.06.02-.07.12-.01.1.05.49.07.55.03.08-.06.28-.06.3,0,.02.05.03.04.09-.02.08-.09.26-.13.25-.05-.01.06,0,0,.24.04.2.03.34.01.31-.04-.01-.02.01-.03.06-.03.1,0,.12.14.48,0,.09-.04.12-.03.18.04.09.1.15.1.22,0,.07-.12.05-.01.29,0,.12,0,.15,0,.15-.05,0-.1.05-.12.09-.03.06.12.21.05.17.12-.04.06.07,0,.05-.07-.09-.23.4.21.4-.04,0-.04.02-.05.09-.03.11.04.37.04.42,0,.06-.04.11.07.21.02.29-.13,0-.02,1.06-.04.89-.01.96-.03,1.05.02.11.06.12-.12.17-.07.05.05.15-.07.19,0,.03.05.1-.02.1.04,0,.07.07-.04.26,0,.1.01.12,0,.12-.04,0-.08.11-.08.14,0,.03.08.1,0,.19.06.04.03.06.03.06,0s.04-.03.14.01c.23.09.13-.03.48-.01.18.01.2,0,.2-.07,0-.21.32.23.28.06-.01-.06.21-.07.25-.01.03.05.17-.03.15-.09-.01-.06.05-.05.12.02.03.03.08.05.1.04.06-.04.05.09.17-.02.09-.09.15-.1.21-.03.07.07.32.11.32.05,0-.1.1-.14.19-.07.06.04.12.05.2.03.22-.05.22.13.35-.02.11-.11.09-.03.37.02.32.05.11-.14.41-.07.2.04.62.02.71-.03.05-.03.08-.03.11,0,.08.08.18-.06.22,0,.04.06.18,0,.25.01.06.01.2-.13.23-.07.03.05.28.05.3,0,.03-.09.2.1.25.02.03-.05.2,0,.2.06,0,.04.17.05.11-.02-.06-.07.06-.04.21-.07.1-.02.1.09.31-.03.29-.16.16.09.46-.04.09-.04.2.03.16-.02-.12-.2.62.31.34.31-.08,0-.03.06,0,.32.04.31.15.27.05.34ZM.86,17.1s.11,0,.11.02-.11.03-.11-.02ZM65.6,8.58s-.04-.04-.01-.04c.06,0,.15.13.01.04ZM65.75,5.56c.05,0,.04.08.02.08s-.08-.08-.02-.08ZM65.76,4.55s.03,0,.02.04c-.05.13-.08,0-.02-.04Z"/>
  <path d="M57.16,24.33c.05,0,.04-.08.02-.08s-.08.08-.02.08Z"/>
  <path d="M.98,13.87c.06-.06.01-.11-.02-.02-.02.05-.02.06.02.02Z"/>
  <path d="M23.37,3.08c.07.05.08.05.08,0s-.17-.06-.08,0Z"/>
  <path d="M4.46,3.19s.03.02.07,0c.17-.11-.07-.07-.07,0Z"/>
  <path d="M30.16,3.15s.08-.08.02-.08-.04.08-.02.08Z"/>
  <path d="M43.47,3.01s-.02.02.02.02c.1,0,.04-.05-.02-.02Z"/>
  <path d="M39.1,3.1c.07,0,.03-.06-.02-.06-.05,0-.06.06.02.06Z"/>
  <path d="M64.91,10.61c-.06,0,0,.08.02.08s.03-.08-.02-.08Z"/>
  <path d="M64.85,11.83c0,.05,0,.07.02.05.03-.06-.02-.18-.02-.05Z"/>
  <path d="M7.11,2.31c-.08,0-.03.08.05.08s.03-.08-.05-.08Z"/>
  <path d="M65.9,4.58s.01-.07,0-.1c-.03-.06-.03.16,0,.1Z"/>
  <path d="M3.64,24.49s-.05-.01-.07,0c-.07.03.1.03.07,0Z"/>
  <path d="M65.85,5.45s.08-.08.02-.08-.04.08-.02.08Z"/>
  <path d="M21.35,2.14s0,.06.02.05c.03-.03-.02-.15-.02-.05Z"/>
  <path d="M23.41,2.14s-.09-.15-.05-.05c.01.04.04.06.05.05Z"/>
  <path d="M65.8,10.26c.05-.08.05-.15,0-.08-.05.08-.05.15,0,.08Z"/>
  <path d="M13.57,24.79c-.03.05.04.05.08,0,.03-.05-.04-.05-.08,0Z"/>
  <path d="M32.59,24.53c.06-.06.01-.11-.02-.02-.02.05-.02.06.02.02Z"/>
  <path d="M33.31,24.53c0,.1.05.04.02-.02-.01-.03-.02-.02-.02.02Z"/>
</svg>