<?xml version="1.0" encoding="UTF-8"?>
<svg id="Layer_1" data-name="Layer 1" xmlns="http://www.w3.org/2000/svg" viewBox="0 0 60.45 24.64" fill="#2c2013" preserveAspectRatio="none">
  <path d="M49.07,1.32s-.01.03.05.02c.12-.03,0-.07-.05-.02Z"/>
  <path d="M26.82,1.53s-.05-.01-.07,0c-.07.03.1.03.07,0Z"/>
  <path d="M57.38,1.46s-.03-.05-.04-.04c-.04.04.09.18.04.04Z"/>
  <path d="M42.03,1.23s-.05-.01-.07,0c-.07.03.1.03.07,0Z"/>
  <path d="M59.34,12.02c-.06-.04-.06-.71,0-.83.03-.06.03-.08,0-.06-.07.05.02-.51-.05-.51-.06,0,.06-.09.03-.12-.04-.04-.06-.71-.02-.84.07-.26-.07-.27,0-.48.07-.19-.03-.09-.03-.22,0-.03.01-.05.03-.04.04.02.03-.37,0-.43-.02-.03-.02-.04,0-.03.06.04.04-.24-.02-.22-.05.02-.06-.7,0-.8.05-.09-.03,0-.04-.27,0-.28-.05-.77-.05-.9,0-.19-.09-.12-.04-.4.05-.26-.07-.26,0-.35.07-.08-.02-.01-.03-.14-.07-.76-.05-1.33-.1-1.39-.04-.06.05,0,0-.38-.03-.22-.04-.3,0-.33.03-.02.03-.03,0-.03-.1,0,.03-.29-.2-.49-.05-.04-.05-.05,0-.05.05,0,.06-.06.07-.41.01-.58,0-.62-.05-.71-.04-.05-.04-.09-.02-.12.06-.07.06-.33,0-.35-.04-.01-.04,0-.02.03.06.1-.05-.06-.14,0-.19.12-.05-.14-.21-.14-.12,0,0,.08-.16.14-.24.08-.19.49-.09.49.05,0,.05.01,0,.07-.12.13.01.4-.08.64-.03.08-.04.13-.01.15.05.03,0,.25.12.4.04.06.06.11.04.11-.06,0-.03.3.06.52.06.16.06.18,0,.16-.08-.03-.07.05-.02.05.04,0,.07.34.03.37-.02,0-.01.06,0,.1.03.09.03.32,0,.35-.04.04.06.12.03.36-.01.11,0,.18.04.25.04.06.05.1.02.12-.05.03,0,.01.02.47.03.72.05.9.1.93.04.02.04.04,0,.09-.09.11.04.47-.05.42-.07-.03.1.08.07.13-.04.06-.04.39,0,.5.02.05.01.11,0,.13-.07.07.04.34-.05.34-.04,0-.04,0,0,.03.06.04.08.2.03.27-.03.04-.02.05.03.03.04-.02.06,0,.06.03,0,.11.09.22,0,.15-.09-.08-.05.6-.03.6.01,0,.02.03,0,.07-.01.04,0,.11.02.15.05.1,0,.04-.02.38-.03.61-.15.73-.04.69.1-.04.03,1.01.01,1.04-.01.02.04,0,.04.77,0,.51.02.74.05.78.03.03.03.06,0,.06-.06,0-.11.27-.08.41.01.07.02.13,0,.15-.03.03-.02.04-.06.14-.05.11.09.15.03.23-.06.07,0,.16-.05.27-.03.05-.03.07,0,.05.23-.14-.5,6.22-.51,6.46-.06.88-.13.39-.19,1.27-.03.42-.03.39-.53.37-.57-.02-.56.07-.56.01,0-.06-.11.02-.11-.04,0-.08-.04.07-.21,0-.23-.09-.13.19-.3.03-.12-.12-.12,0-.52-.03-.17-.02-.07-.06-.27-.06-.42-.02-.33-.12-.47,0-.08.07-.1.07-.16.01-.12-.1-.88-.03-.79-.09.04-.03.04-.03-.01-.03-.11,0-.11.12-.23.09-.05-.01-.06-.03-.03-.05.03-.02,0-.02-.07-.02-.21.02-.11.07-.38.04-.27-.03-.32,0-.38-.06-.04-.03-.05-.03-.05,0s-.03.04-.11.02c-.14-.04-1.46-.05-1.46-.01,0,.02-.05,0-.1-.02-.16-.09-.14.05-.23-.02-.06-.05-.89-.07-.91-.01-.01.03-.03.03-.05,0-.07-.08-.47-.13-.47-.05,0,.04,0,.04-.03,0-.03-.05-.8-.1-.83-.05-.03.04-.17,0-.33-.08,0,0-2.04.02-2.19-.06-.13-.07-.14.05-.55.03-.38-.02-.37-.09-.4-.04-.02.04-.84.02-.9-.01-.02-.01-.04,0-.04.02,0,.06-4.43-.11-4.53,0-.06.06-.09.06-.09-.01s0-.02-.36-.06c-.43-.04-.39.08-.43.02-.03-.04-.5-.06-.5-.02s-.19.07-.2.03c-.01-.04-.61-.04-.67-.08-.07-.05-.26.1-.3.06s-.75.01-.93-.04c-.18-.05-.08.05-.22.01-.05-.01-.13,0-.17.02-.04.02-.08.03-.1.02-.08-.08-.78.07-2.19.07-.28,0-.32,0-.34.07-.03.09-.09.1-.09.02,0-.15-.18-.03-.92-.03-.79,0-.64.1-.78.04-.15-.06-1.35.09-1.75.08-.24,0-.41,0-.41.02,0,.07-.51-.09-.59.09-.01.03-.03.02-.05-.04-.06-.19-.02.07-1.57.07-.69,0-.67-.11-.67-.04s-.26,0-.31.08c-.03.04-.05.04-.11-.01-.07-.06-.2-.05-.2.02,0,.04-.11.05-.11,0,0-.07-4.42.03-4.42.03.03.05-2.12.13-2.19.07-.05-.04-.05-.04-.03,0,.03.04.02.05-.04.03-.13-.05-.05.09-.23,0-.15-.08,0,.02-.73.02-.57,0-.69.03-.65.16.04.12-.06.04-.06-.05,0-.07-.03-.07-.28-.08-.44,0-.55.08-.51.01.04-.06-.05-.05-.05-.01,0,.05-.33.05-.36,0-.01-.02-.05-.04-.07-.04-.07,0,.08.06.04.09-.04.04-.1-.11-.19-.05-.08.05-.24.02-.46.06-.16.03-.14.05-.15.22-.11-.2-.1-.22-.26-.19-.21.04-1.06,0-1.14.06-.03.03-.06.03-.08,0-.06-.1-1.08.07-.99-.08.03-.06-.07,0-.04.05.03.04,0,.04-.16,0-.19-.05-.04.04-.3.03-.27-.01-.1-.07-.32-.03-.2.03-.81-.03-.8.02.02.11-.1-.07-2.1-.05-.74,0-1.55-.14-1.55-.08,0,.04-.17.11-.14.03.03-.08-.12-.06-.14,0-.03.08,0-.05-.61-.04-.62,0-.64-.1-.64-.05,0,.05-1.57-.02-1.58,0-.04.06-.41-.11-.35,0,.03.05,0,.03-.08.06-.05.02-.06.01-.04-.04.02-.04.01-.06-.01-.04-.09.05.05.14-.19.11-.09-.01-.15,0-.15.02,0,.05-.11.09-.16.06-.19-.12-.66.11-.71,0-.02-.04-.03-.04-.05-.01-.02.04-.06.03-.16,0-.26-.09-.25.11-.5.04-.16-.04-.18-.04-.1,0,.04.03.02.04-.08.03-.2-.02-.09-.06-.18-.37-.04-.13-.03-1.16.03-1.18.02,0,.02-.04,0-.08-.03-.06.07-1.58-.06-1.73-.05-.06-.06-.07-.01-.06.16.06,0-.93-.01-1.53,0-.68-.06-.55-.04-.68.01-.06,0-.1-.03-.1-.04,0-.03-.02,0-.06.09-.11.04-1.06.09-1.18.03-.08-.05-.01-.05-.14.01-.28-.06-1.93-.06-1.93.12.07-.02-4.51.02-4.55.05-.05.1-1.15.05-1.23,0-.02,0-.04.02-.05.05-.03,0-.79.06-.76.05.03-.07-.09-.03-.12.07-.07-.08-1.53-.01-2.29.01-.16-.05-.53-.01-.58.05-.07.07-.25.02-.26-.03,0-.03-.03,0-.07.08-.1-.06-.05.02-.2.07-.13.02-.71.07-.71s.01-.33.07-.47c.14-.36-.14-.92.46-.89.27.01.7-.1.84-.05.09.03.57.03.56,0,0-.07.01-.09.04-.04.07.11,1.89.02,1.99.05.23.06.15-.13.25-.05.08.07.87.07.84.01-.03-.07.12-.06.14-.01,0,.03.15.03.41,0,.68-.07,1.07.11,1.13-.06.02-.07.03-.07.04,0,.02.08.09.09.09.02,0-.03,0-.04.03,0,.04.06.2,0,.38.05.07.02.13.02.14.01.04-.04.21-.04.19,0-.02.03,0,.03.07.01.1-.03.93-.03,1.04,0,.04.01.07,0,.07-.03,0-.03.02-.03.07-.02.1.05,1.16.1,1.16.14,0,.03.08.02.15-.02,0,0,.1,0,.25,0-.01-.02-.02-.07.03-.07s.01.05-.01.07c.71,0,2.6.04,2.59.05-.01.02,0,.03.02.03.07,0-.01-.1.15-.06.21.05.54.06.54.02,0-.02.02-.03.05-.01.07.05.7.06.81.01.09-.03.1-.03.08.02-.02.06.03.08.07.02.03-.05.44,0,.51.05.04.03.06.03.07,0,.01-.03.04-.04.1-.02.15.06.49-.06.57.05.03.04.03.04.02-.01-.03-.09.09-.12.27-.07.24.06.82,0,.85.08.03.08,0-.09.59-.01.17.02.18.02.23-.08.05-.11.12-.14.08-.04-.08.21.44.04.39.12-.04.06.21,0,.25.06.02.03.03.02.03-.02,0-.2,1.13.23,1.33.07.05-.04.06-.04.03,0-.03.05-.02.05.02,0,.06-.05.32-.07.29-.01-.01.02.04.04.11.05.2.02.09-.09.21-.06.04.01.08.03.08.05s.07.02.16.02c.25,0,.26.09.35,0,.09-.09.07.04.16,0,.1-.04.07.11.16,0,.04-.06.05-.06.05,0,0,.07-.12.13-.15.08-.01-.02-.07-.02-.12,0q-.1.02.02.05c.37.07.22-.09.42,0,.18.07.09-.04.18-.04.02,0,.03.03.02.06-.03.07.05.06.13-.02.13-.12.01.16.15-.01.09-.12.15-.04.06.02-.12.09.3.01.33,0,.09-.03.17.1.2.07.01-.01.06,0,.11.01.13.05.29,0,.27-.09-.02-.1.09-.05.08.04-.03.14.36-.04.4.08.03.09.11-.02.21,0,.57.11,1.18.05,1.21.13.02.06.09,0,.14-.12.04-.09.11-.03.08.02-.04.07.07.11.28.11.26,0,.2.08.36.04.18-.04.57.08.54.03-.01-.02.05-.03.18,0,.18.03.21.02.27-.06.04-.05.07-.07.07-.05-.04.29.34.07.48.14.09.05.24,0,.26-.08.03-.1.19-.08.14-.02-.09.11.23.09,1.57.04.37-.01.42.06.51,0,.11-.08.08.03.57.02.56,0,.67.08.67-.01,0-.08.09-.07.06-.02-.05.07.32-.02.27.09-.01.03,0,.02.03-.02.08-.1.55-.11.49-.07-.04.02-.03.04.03.05.05.01.07,0,.05-.02-.01-.02,0-.02.04,0,.06.05.06.04.06,0,0-.08.08-.08.08,0,0,.1,0-.03.13-.03.17,0,.08-.18.19-.06.19.19.5-.01.6.05.07.04.15.05.12,0-.01-.02.02-.03.09-.03.16.02.29-.13.32-.09.03.05.34.06.36.01.04-.06.11-.05.09.01-.03.07.05.03.43,0,.28-.02.21-.1.3-.06.07.04.34.03.44-.02.04-.02.1-.01.14.01.09.06,0-.03.43-.03.45,0,.67-.05.7,0,.05.08.38-.16.43-.09.04.05.48.04.55-.01.05-.04.06-.04.08,0,.05.14,1.47-.1,1.38.04-.02.03.01.04.12.02.21-.04.29,0,.47-.01.14,0,.23.12.18.04-.04-.06.1-.2.12-.13.02.07.14.03.11.09-.03.06.1-.03.1.03,0,.05.15,0,.15-.03s.11-.04.11,0c0,.05.46-.02.38.03-.08.05.07.05.09-.01.02-.04.03-.04.05,0,.04.05.28.05.27,0,0-.04.11-.09.07-.03-.05.09.11-.07.15,0,.04.07.16-.15.21-.07.05.08.13.04.18.09.01.01.05,0,.08-.03.11-.1.58.08.52-.02-.03-.05.13-.03.11,0-.04.06.5.07.55.03.09-.08.26.1.38,0,.04-.03.07-.04.09-.02.03.04.35.05.33,0-.02-.04.1-.04.1,0,0,.04.55,0,.57-.04,0-.02.06,0,.13.03.2.1.36-.03.49.06.15.09.3-.16.42-.01.04.05.2.12.17.08-.05-.08.6-.05.62,0,.02.04.24-.02.28-.09.07-.1.11.16.26.09.11-.06.08.02.37-.04.14-.03.22-.03.23,0,.02.05.16.01.16-.04,0-.02.02-.02.05,0,.03.02.11.04.18.04.23-.01.45.08.45.01,0-.06.11-.05.11,0s.54.03.5-.02c-.01-.02,0-.01.04.01.1.08.35-.02.32.03-.01.02.03.03.09.03.13,0,0-.08.94,0,.23.02.32.02.32-.02,0-.06.1-.06.19,0,.14.09.33-.1.29,0-.03.09.23-.03.27-.05.09-.05,0,.03.54.05.57.03.69.07.74.03.06-.04.52-.05.67,0,.11.03.13.03.2-.09.05-.08.07-.1.07-.06,0,.09.15.12.28.07.21-.08.28.15.45-.04.16-.18.12.15.48,0,.16-.07.36-.04.42-.13.03-.04.05-.05.07-.02.05.08.1.04.06-.04-.07-.12.11-.08.13-.03.02.06.04-.2-.02-.2-.04,0-.04,0,0-.02.07-.03.06-.14-.03-.2-.07-.05-.07-.06,0-.1.06-.05.06-.05-.01-.05-.15,0-.1.08-.32.03-.08-.02-.15-.02-.18,0-.06.06-.1.04-.1-.06,0-.14-.08-.06-.05,0,.04.06-.01-.03-.09.03-.07.06-.05-.02-.23.06-.09.04-.15.04-.2.02-.09-.05-.37-.05-.4,0-.02.04-.15.03-.19,0-.01-.01-.06,0-.11.03-.18.12-.15-.09-.43.02-.13.05-.16.05-.25,0-.1-.05-.22-.04-.22.03,0,.02-.03.02-.06-.01-.06-.05-1.04-.08-1.07-.03-.03.05-.79-.07-.9,0-.07.04-.25-.09-.3-.06-.04.02-.45.07-.52.06-.97-.16-1.31.09-1.26-.03.03-.07-.07-.12-.04-.06.04.06-.1.06-.07,0,.04-.06-.16.01-.21.01-.14,0-.19-.02-.17-.05.03-.05-.13-.02-.19.04-.1.08-.1-.08-.23,0-.13.07-.74-.04-.74.05s-.04-.05-.24-.04c-.22.01-.34,0-.32-.03,0-.02-.02-.03-.07-.03-.16,0,0,.1-.29.08-.23-.01-.41-.07-.54-.02-.14.05-.27-.04-.57-.05-.29-.02-.28-.13-.3-.05-.03.08-1.48.02-1.52.08,0,.01-2.05-.19-1.96-.03.05.07-.33-.13-.33-.01,0,.08-.09-.08-.21-.06-.11.02-.13-.1-.13-.03,0,.06-.09.06-.05,0,.05-.09-.19.19-.27.05-.03-.05-.21-.05-.21,0,0,.04-.29.03-.33-.01-.02-.02,0,.03-.88.05-.19,0-.26.08-.39.03-.16-.06-.11.08-.29,0-.16-.06-.34-.02-.31-.08.04-.06-.1.09-.31.06-.08-.01-.19,0-.25.03-.11.06-.35.04-.39-.03-.02-.03-.03-.03-.03,0,0,.07-.17-.01-.24.04-.06.05-.08.05-.92.05-.97,0-.76.09-.97.07-.09,0-.14,0-.13.02.03.05-.37,0-.44-.06-.11-.09-.04.07-.22.03-.12-.02-.82.13-.82.04,0-.05-.28.16-.21.05.03-.05-.18-.03-.24.02-.05.05-.14.07-.11.02.03-.05-.59-.05-.65,0-.03.03-.07.03-.12,0-.12-.06-.04.02-.25-.04-.12-.03-.14-.03-.19.04-.03.05-.06.06-.06.03,0-.1-.12.09-.14.01-.01-.04-.28-.04-.36,0-.02.01-.09-.01-.14-.06-.16-.15-.02.05-.17.01-.04-.01-.08-.04-.08-.06s-.01-.03-.02-.02c-.05.05.2.23-.07.09-.14-.07-.11-.02-.32,0-.1.01-.12,0-.08-.02.07-.05.02-.05-.08,0-.13.07-.07-.08-.16-.08-.02,0-.03.02-.02.05.04.11-.52.1-.39.02.04-.02.04-.03-.01-.03-.13,0-.03.13-.27.09-.1-.02-.13-.03-.09-.06.03-.02,0-.02-.06,0-.18.04-.15.08-.3.07-.16,0,0,.04-.38.05,0,0-.95.02-1.05-.04-.05-.03-.09.04-.75,0-.39-.02-.31-.08-.73-.04-.09,0-.05.12-.11.12s.02-.06-.04-.1c-.12-.08-.43,0-.54-.11-.08-.08-.11-.08-.14,0-.03.06-.03.06-.03,0,0-.09-.09-.08-.06-.02.04.07-.06,0-.18,0-.15,0-.16-.18-.24-.07-.06.07-.17.12-.18.07-.02-.06-.87-.03-1.13-.13-.28-.11-.21.08-.33-.02-.04-.04-.06-.02-.08.05-.06.22-.22,0-.16-.09.03-.05-.14-.08-.11-.04.03.05-.04.04-.09-.01-.04-.04-.06-.03-.1.02-.08.11,0-.03-.29,0-.27.03-.07-.07-1.09-.14-.19-.01-.13-.08-.31,0-.07.03-.12.04-.11.02.03-.05-.07-.07-.04-.12.03-.05-.14,0-.22.06-.05.04-.07.04-.09,0-.02-.03-.01-.04.02-.02.06.03.07-.03-.21-.04-.27-.01-.29-.07-.29-.01,0,.09-.06-.06-.13,0-.07.05-.47-.05-.54,0-.03.03-.07.02-.13,0-.1-.05-.42-.07-.42-.03s-.08-.05-.08.07c0,.06-.01.07-.02.03-.03-.09-.08-.11-.27-.09-.3.03-.5-.13-.5-.07,0,.03-.04.16-.05.19-.14-.16-.14-.18-.4-.19-.31-.01-.21-.07-.3-.07-.17,0,.13.24-.03.12-.09-.07-.01,0-.23-.04-.24-.04-.1.05-.74,0-.25-.02-.46-.03-.47,0-.04.05-.13.06-.1,0,.05-.07-.63,0-.63-.04,0-.03-.33,0-.46-.04-.12-.04-.02.03-.41.02-.09,0-2.95-.1-2.95-.01,0,.05,0,.05-.05,0-.08-.11-.54-.03-1.03-.11-.28-.04-.36-.04-.41.04-.03.04-.04.04-.06,0-.03-.08-.14-.04-.6-.09-.25-.03-.29-.02-.31.03-.03.07-.1.08-.1,0,0-.14-4.38.09-6.28.03-.61-.02-.5-.06-.66,0-.18.07-.11-.01-.19.06-.04.03-.07.04-.09.01-.08-.12-1.18-.03-1.1.2,0,.02-.01.04-.05.04-.05,0-.06.02-.05.12.02.24-.14.12-.14.36,0,.18-.12.44-.12.67,0,.24-.11.12-.11.2,0,.02.02.03.04.02.05-.03.05.07,0,.13-.04.04-.04.05,0,.05.03,0,.04.01.03.03-.23.37-.21,7.45-.2,7.49.03.08-.08.13-.04.21.03.08-.06.08-.03.15.04.1.1,2.07.04,3.24-.07,1.39.06,1.35.03,1.38-.03.05-.03.55,0,.6.01.02,0,.05-.02.06-.05.03.01.01.03.44.03.63-.06,1.14,0,1.18.05.04-.03.4.04,1.02.07.62.04.36.07,2.15,0,.66-.07.71-.08.93,0,.51-.12.43-.03.52s-.06.1,0,.14c.05.03,0,.45.05.45.06,0-.06.15.06.16.07,0,.07,0,0,.02-.05.01-.06.04-.05.09.04.12-.1.23-.01.23.04,0,.04,0,0,.02-.04.01-.02.03.04.06.15.07.08.29.15.29.02,0,.03.02.02.04-.03.06.12.09.2.04.11-.06.13-.05.1.03-.06.17,1.78-.1,1.78,0,0,.02.03.01.06-.02.15-.15.29.08.34-.05.03-.08.08,0,.12-.05.03-.05.15-.05.11,0-.02.03-.01.03.02.01.07-.04.25-.06.78-.07.71-.01.52-.12.72-.06.18.06,1.56.09,1.55.09,1.67.06,2.46.16,2.52.06.02-.03.04-.03.05,0,.07.11,1.28.12,1.3.06,0-.02.04-.02.11,0,.24.1,5.37-.05,5.41-.04.05.02.09.01.09,0,0-.07.12-.08.21-.02.14.09,0-.03.26-.02.45.01,1.17-.03,1.24-.07.07-.04.09-.03.14,0,.09.09.5-.03.66,0,.15.04.17-.17.26-.06.05.07.19.04.62.03.42-.01.52-.14.43-.07-.13.11,2.14-.03,2.15-.05.05-.07.07.07.52,0,.34-.05.4-.05.38,0-.01.02.05.02.14,0,.23-.03.68.03.65-.01-.03-.05.04-.03.09.02.04.04.05.03.05-.02,0-.13.28.06.31-.03.02-.07.24.07.38.02.16-.05.45.02.45-.06,0-.04,0-.04.03,0,.06.1.67,0,.71.09.02.03.03.03.05,0,.04-.06.18-.04.61-.05,1.2,0,4.77-.3,5.75-.26.2,0,.12-.13.23-.04.11.09.02-.07.1-.07.02,0,.04.02.04.04,0,.08.06-.08.19,0,.09.05.36.02.32-.04-.03-.05.05-.05.07,0,.02.07.8.02.8.02.34-.01.34-.16.34-.05,0,.04.03.05.11.04.3-.04.62-.04.59,0-.01.02,0,.02.04,0,.06-.05.28-.07.32-.03.01.01.06,0,.09-.01.12-.07.33-.05.42.02.05.04.07.05.06.03-.05-.09.35-.1.29,0-.02.03,0,.03.03,0,.08-.06.31-.02.33-.08.02-.05.21-.01.18.03-.03.05-.12-.04-.08.03.02.04.04.04.08,0,.07-.06.4-.07.49-.02.15.09.02-.11.32-.03.24.06.2-.01,1,.02.46.02.6.01.63-.03.03-.04.05-.04.09,0,.08.08,1.9.04,1.94.07s.21-.02.24-.07c.02-.04.03-.04.07.02.1.14,1.76.08,1.84.03.05-.03.03.03.24.05.24.01.25.11.29.06.03-.04.67-.05.69-.01.01.01.06,0,.11-.01.12-.05.49-.06.51-.02,0,.02.08.01.18,0,.29-.07.48.1.52.03.03-.04.03,0,.5.02.49.03.43.05.56-.01.07-.03.12-.03.13-.01.03.05.34.08.47.04.03,0,.99.1,1.44.08.13,0,.24.01.29.05.1.06.23.08.19.03-.02-.04.35-.03.55,0,.1.02.12.02.08-.02-.09-.07.06.01.23.02.16,0,.22.11.18,0-.02-.06-.02-.06.05.01.06.07.1.08.17.05.15-.06.29.06.36-.01.07-.07.04.05.26.02.1-.01.13,0,.11.03-.01.03,0,.02.03-.02.11-.14.28,0,1.28.02.17,0,.15.11.25.02.06-.06.07-.06.13,0,.04.04.07.05.07.03,0-.08.66.06.71-.02.01-.02.07-.03.14-.02.2.04.6.04.6,0,0-.02.03-.01.06.01.26.21,2.1.05,2.1.15,0,0,.4.04.4,0,0-.04.09,0,.05.05-.04.06.04-.03.13.01.09.04.43.04.43,0,0-.02.03-.03.08-.03.1,0,.09-.08.03-.08-.03,0-.05-.03-.05-.06,0-.05.02-.06.2-.07.1,0,.08-.05.14-.13.05-.06-.03-.12.03-.16.07-.04-.03-.12,0-.37.02-.2.02-.41.07-.45.03-.02.02-.03,0-.03-.06,0-.07-.17,0-.08.07.12.77-6.42.67-6.42-.03,0-.03,0,0-.03.05-.04.03-.08.07-.27.02-.07.01-.12,0-.12-.05,0-.06-.23,0-.29.08-.09-.08-.29,0-.31.06-.02.05-.11-.03-.16-.04-.03-.05-.04,0-.03.15.05.01-.78.06-.78.03,0,.04-1.24,0-1.39-.03-.14.12-.24.04-.3ZM40.9,2.05c.08-.05.15-.05.08,0-.08.05-.15.05-.08,0ZM26.81,1.73s-.05-.01-.04-.03c.03-.04.17.03.04.03ZM26.62,2.17s-.02.05-.1,0c-.09-.06.13-.05.1,0ZM25.34,1.55s-.12.04-.09,0c.03-.04.09-.04.09,0ZM23.24,1.36c.05,0,.05.08,0,.08s-.05-.08,0-.08ZM22.86,1.94c0,.05-.09.05-.06,0,.04-.06.06-.04.06,0ZM17.62,1.08c.06.04.04.06,0,.06-.05,0-.05-.09,0-.06ZM49.48,22.42s-.08-.08-.02-.08.04.08.02.08ZM49.78,22.99c.04-.06.06-.04.06,0,0,.05-.09.05-.06,0Z"/>
  <path d="M12.06,1.67s0,0,.01-.01c0,0-.01,0-.02,0,0,0,0,.01,0,.01Z"/>
  <path d="M54.21,23.41s.08-.08.02-.08-.04.08-.02.08Z"/>
</svg>