<?xml version="1.0" encoding="UTF-8"?>
<svg id="Layer_1" data-name="Layer 1" xmlns="http://www.w3.org/2000/svg" viewBox="0 0 46.11 39.13" fill="#2c2013" preserveAspectRatio="none">
  <path d="M.95,3.71s-.06-.05-.1,0c-.03.05.1.05.1,0Z"/>
  <path d="M44.74,10.83s.03-.06.01-.1c-.06-.22-.07.13-.01.1Z"/>
  <path d="M45.21,2.41s-.02-.23-.08-.26c-.02-.01-.05-.07-.05-.12-.02-.11-.11-.16-.11-.06,0,.13-.21-.19-.24-.1-.01.03-.05.01-.12-.05-.09-.09-.11-.09-.14-.04-.04.07-.14.03-.14-.06,0-.06-.34-.09-.45-.04-.09.05,0-.05-.23-.02-.12.02-.15.01-.13-.03.02-.03.02-.04-.01-.02-.03.02-.05,0-.05-.04,0-.06,0-.06-.02,0-.05.18-.23-.09-.27-.02-.04.07-.14.08-.25.03-.09-.04-.13-.04-.22,0-.18.09-.31-.05-.38,0-.05.03-.11-.07-.18-.02-.09.06-.34-.04-.29.03.04.06-.05.07-.05-.02,0-.1-.12.02-.2-.04-.07-.05-.26-.02-.31-.07-.05-.06-.04.06-.11.06-.02,0-.02-.02,0-.05.02-.03.01-.04,0-.02-.06.06-.11-.11-.16,0-.03.08-.1.07-.08.03.03-.05-.2,0-.2-.01-.03,0-.04.03-.02.06.03.09-.1.01-.1-.02,0-.05-.12-.08-.17-.04-.07.06-.1-.04-.1.04,0,.03-.02.02-.04-.03-.04-.1-.11-.11-.12-.02,0,.06,0,.06-.02,0-.02-.08-.02-.08-.1-.04-.03.01-.05.04-.04.06.02.03-.07.03-.27-.02-.11-.02-.13.1-.13.02,0-.07-.12-.05-.1-.02.02.03-.09.21-.12.13-.03-.07-.15-.03-.18-.09-.03-.05-.2-.05-.23,0-.03.04-.22.05-.26.01-.05-.05-.23-.05-.31.01-.06.04-.12.05-.18.03-.13-.04-.17,0-.2-.05-.03-.05-.24-.05-.27,0-.03.05-.33.04-.31,0,.02-.03-.39-.06-.44.05-.02.04-.05.06-.07.05-.09-.06-.84-.09-.9-.04-.07.06-.22-.04-.25.04-.01.04-.03.04-.07,0-.07-.07-.15-.06-.15,0s-.08.06-.14-.01c-.06-.07-.12-.02-.21-.05-.12-.05-.27-.06-.24-.02.04.07-.28-.04-.18.02.09.06.01.1-.09.04-.16-.09-.25.08-.33-.02-.05-.06-.24-.03-.21.03.02.03,0,.03-.07,0-.05-.02-.67-.1-.71.02-.02.05-.04.06-.07.04-.07-.06-.33-.09-.33-.05,0,.1-.19.01-.24-.11-.01-.03-.02-.01-.03.05,0,.22-.27.04-.24-.04.03-.08-.23.03-.55-.03-.08-.02-.12-.01-.12.02s-.02.03-.07,0c-.14-.07-.15.12-.27,0-.04-.04-.07-.05-.08-.02-.03.08-.28-.12-.33.05-.05.17-.55-.05-.63.09-.07.13-.13-.09-.27,0-.07.04-.25.03-.22-.02.02-.04-.22-.02-.3.02-.11.06-.43.09-.46.05-.04-.06-.18.08-.2,0,0-.03-.05-.03-.12,0-.15.04-.07,0-.29-.01-.21-.02-.18-.06-.37.04-.11.05-.15.06-.16.03-.02-.07-.12.02-.16-.05-.02-.04-.08-.04-.27,0-.4.07-.36,0-.44.04-.08.05-.25.07-.27.03-.04-.06-.12-.04-.14.04-.02.08-.1.11-.1.04,0-.02-.02-.04-.05-.04-.08,0-.04-.08-.18-.07-.18,0-.37-.01-.4.05-.02.05-.28.05-.37,0-.03-.02-.03-.01-.02.02.04.06,0,.06-.09,0-.07-.04-.09-.04-.13.02-.09.13-.14-.08-.05-.02.03.02.03.01.02-.01-.03-.05-.18-.02-.18.04,0,.02-.02,0-.04-.03-.02-.04-.03-.05-.04-.03,0,.06-.16.07-.16,0,0-.07-.13.08-.2,0-.06-.06-.16-.05-.22.02-.06.08-.15.07-.15,0,0-.1.01.02-.22.06-.14.02-.16.01-.16-.06,0-.14-.08-.02-.24-.03-.04,0-.06.01-.05.05.03.08-.02.1-.08.03-.03-.04-.05-.04-.03-.01.03.04.02.05-.04.04-.11-.02-.17.13-.17.06,0-.08-.3.03-.26-.04.03-.05-.09-.13-.06.02.02.08,0,.09-.05.08-.04,0-.07-.04-.06-.06,0-.03-.02-.04-.07-.02-.05.02-.07.01-.06-.01.03-.05-.05-.04-.13,0-.04.02-.05.02-.03-.01.04-.06-.09,0-.09.04,0,.05-.06-.03-.14.04-.05.04-.07.04-.08,0-.01-.03-.04-.04-.09,0-.12.07-.22-.05-.22.05,0,.2-.23-.2-.23,0,0,.11-.53-.03-.61.08-.07.08-.08-.02-.23,0-.43.05-.46-.06-.46.02,0,.06-.06-.02-.09.05-.01.03-.02.02-.02-.02,0-.07-.08-.09-.14-.03-.04.04-.62.1-.57,0,.01-.03,0-.01-.05.03-.15.16-.23-.08-.55.04-.08.03-.15.04-.15.02,0-.04-.35-.02-.39.03-.06.06-.15.05-.28-.02-.21-.11-.17.09-.4.04-.16-.03-.05.06-.23.04-.21-.02-.09.12-.24.02-.13-.08-.17.02-.21-.05-.07-.11-.17.13-.26,0-.03-.05-.05-.05-.07-.02-.04.05-.31.06-.4.01-.11-.06-.05.08-.3.05-.22-.02-.16.1-.26.08-.04,0-.06-.02-.06-.02,0-.04-.6-.1-.73.07-.08.1-.01-.03-.13-.03-.05,0-.07-.02-.05-.05.02-.03,0-.03-.04,0-.04.04-.06.04-.06,0s-.02-.03-.07,0c-.14.07-.08-.09-.25.02-.15.1-.12-.01-.39,0-.31.02-.14-.22-.3-.07-.1.09-.21.07-.27.16-.04.06-.05.06-.07,0-.03-.08-.24-.04-.17,0,.07.04.01.1-.05.04-.06-.05-.41-.1-.41-.06.01.08-.01.09-.09.03-.1-.07-.26-.08-.26-.02,0,.03-.02.03-.06,0-.11-.09-.11.12-.21.06-.07-.04-.38-.05-.38,0s-.09,0-.06-.05c.05-.08-.37,0-.92,0-.16,0-.1.18-.24.07-.04-.03-.06-.04-.04-.01s-.04.01-.12-.03c-.43-.21-.3.15-.66.01-.28-.11-.2.08-.74.07-.14,0-.1-.15-.2-.02-.11.15-.05-.05-.27-.06-.48,0-.44.12-.54.02-.08-.08-.2.03-.2.06,0,.05-.08,0-.06-.03.02-.03-.37-.03-.42,0-.09.05-.38-.11-.44,0-.04.07-.11.08-.11.01,0-.06-.12-.07-.16-.02-.01.02-.08,0-.17-.02-.19-.08-.19,0-.28-.07-.05-.04-.06-.04-.03,0,.03.05.02.05-.03,0-.05-.04-.06-.04-.06,0,0,.03-.03.04-.08.03-.11-.03-.06.06-.11.03-.02-.01-.04,0-.05.03-.01.03-.04.02-.1-.04-.11-.12-.04-.01-.16-.01-.55,0-.22.18-.8.06-.11-.02-.14-.01-.16.03-.03.07-.1.08-.1,0s-.11-.11-.11-.06c0,.07-.2-.04-.35.06-.15.1-.05-.03-.19-.03-.11,0,0,.06-.09.09-.03.01-.07,0-.08-.03-.02-.06-.17-.08-.17-.03,0,.04-.39.03-.45,0-.09-.06-.3.11-.42,0-.08-.07-.24-.08-.35-.02-.15.08-.23-.09-.39,0-.12.06-.19.02-.33.07-.08.02-.09.02-.07-.03.01-.03,0-.06-.01-.06-.06,0,0,.09-.12.07-.14-.02-.04-.15-.13-.15-.03,0-.05-.02-.05-.04,0-.08-.3-.01-.38.09-.05.06-.08.07-.08.03,0-.04-.01-.04-.05.02-.09.12-.12-.06-.17.18-.05.26.17.56.24.6.09.04.3.03.31-.02.08-.23.1-.06.38.04.14.05.16.05.2-.02.08-.13.22.05.27-.03.03-.05.26,0,.29-.05.04-.06.28.17.28.06,0-.08.08-.07.08-.02,0,.06.26.05.28,0,.01-.04.04-.03.11.01.1.07.44.06.51,0,.06-.06.11-.05.09.01-.03.07.2.06.24-.01.02-.04.04-.03.05.01.06.15.14-.15.56,0,.09.04.32,0,.38-.05.05-.04.07-.04.14,0,.13.07.02.08.12.09.11,0,.04-.07.13-.07.09,0-.03.08.13.07.16-.01.09-.07.18-.07.08,0,0,.11.06.03.09-.12.19.1.25,0,.02-.03.01-.04-.02-.02-.03.02-.04.02-.02-.02.02-.04.04-.04.08,0,.04.04.05.03.03-.03-.04-.13.02.06.14.04.11-.02.07.11.11-.02.03-.08.03-.08.03-.02,0,.06.01.06.04.02.05-.09.27-.08.31.02.07.17.12-.3.17-.11.02.07.05.08.15.07.17-.02.1.04.24.03.16,0,.16-.01.16-.07s.08-.08.13-.03c.04.04.25-.01.36.05.06.03.08.03.08-.02,0-.08.15-.08.18,0,.07.17.15-.09.28-.02.11.06.17,0,.16.07-.01.07.05,0,.08.04.02.04-.03-.07.03-.11.07-.04.2.04.17.1-.03.08.08.08.06-.07,0-.04.05-.03.19.03.25.13.03-.06.7-.05.27,0,.4,0,.45-.05.06-.04.1-.04.18-.01.11.04.62.1.75.02.1-.05.41-.07.32-.01-.08.05.03.05.06-.02.03-.07.13-.02.11.01-.03.04.24.05.32,0,.05-.03.08-.03.1,0,.06.1.39-.1.58,0,.18.09.22-.07.48,0,.21.05.21-.05.37-.02.06.01.13,0,.19-.03.09-.06.16-.02.11.06-.03.05.11.05.08,0-.03-.05.04-.07.09.03.06.1.01-.03.1-.03.03,0,.05.02.04.04-.01.02,0,.03.04.01.11-.04-.06-.06-.01-.11s.1.12.18.05c.04-.04.04-.03.03,0-.02.07.19.08.26.01.04-.04.06-.04.12,0,.05.04.06.04.03,0-.02-.04-.02-.05.03-.03.04.01.06,0,.07-.02,0-.04,0-.04.02,0,.03.08.1.05.08-.03-.05-.18.15,0,.1.05-.03.03.08.03.11-.06.03-.08.09-.04.23-.01.07.02.1.04.08.07-.01.03,0,.02.05-.02.11-.09.15.01.11-.08-.04-.12.09.02.09.08,0,.07.09.07.06,0-.07-.19.26.04.23-.01,0-.02,0-.06.03-.1.05-.07.05-.07.09,0,.03.05.05.06.07.02.05-.07.42-.07.47,0,.03.05.09-.09.25-.08.07,0,.11,0,.1-.04,0-.03,0-.04.03-.03.09.06-.04.16.16.12.19-.04.33-.04.36-.07.04-.04.26.11.3.05.04-.06.15.02.11-.04-.03-.05.11-.05.27,0,.08.02.14.02.19-.02.13-.1.85,0,.83-.08-.01-.06.05-.06.24.01.14.05.17.05.33,0,.17-.06.53-.1.53-.05,0,.04.47.01.55-.03.07-.04.47-.07.45.03-.02.09.08.08.05.03-.03-.05.06-.1.06-.04s.09.05.06,0c-.03-.05.07-.02.22-.09.15-.08.39.02.33.06-.07.05.07.05.1-.02.01-.03.06-.07.1-.1.09-.05.07-.03,0,.15.36-.2.41-.24.44-.18.02.05.04.05.1.01.15-.09.09.14.25,0,.07-.06.06.02.17-.03.07-.04.07-.03.03.04-.02.04-.03.08,0,.08.09,0,.04-.2.14-.06.04.06.07.06.1.03.03-.03.03-.05.01-.05-.03,0,.05-.15.1-.07.03.04.03.04.03,0,0-.04.02-.04.06,0,.08.08.17.06.1.03-.16-.06.2-.11.16.02,0,.03,0,.01.04-.05.04-.08.06-.09.06-.04,0,.16.16-.12.23,0,.03.04.05.04.11,0,.09-.06.27-.06.27,0s.09.05.06,0c-.04-.06.14.05.23.01.11-.04.05.08.21.02.14-.05.43-.07.48-.03.02.02.07.03.11.01.1-.04.28.18.18.05-.1-.13.08,0,.13-.13.03-.09.11-.01.29,0,.19.02.38.08.38.02,0-.05.14-.06.17,0,.04.06.21-.02.21.04,0,.02.03.01.06-.02.09-.09.23-.04.32-.1.09-.06.15.08.15,0,0-.06.15-.05.15,0,0,.07.26.09.43.03.12-.04.18-.05.21-.02.08.08.16-.11.16,0,0,.07.01,0,.14.04.12.04.19.01.12-.06-.06-.08.03-.06.05-.02.03.08.84.04.94-.05.09-.08.09.1.26,0,.17-.09.16.09.26,0,.06-.05.29-.02.29.04,0,.02.04.03.1.03.14,0,.07-.08.16-.08.03,0,.05-.02.04-.04-.04-.06,0-.04.08.03.15.15.09-.16.23,0,.11.11.05-.04.22,0,.15.04.11-.06.19-.06.02,0,.02.03-.01.06-.1.12.05-.02.15.06.1.08.15.07.13-.03-.01-.07,0-.09.07-.09.05,0,.07.01.06.03-.02.04.12.03.15,0,.01-.01.05,0,.07.01.06.05.4.07.43.03.01-.02,0-.02-.03,0-.04.02-.04.02-.01-.02.03-.04.07-.03.16.01.32.17.26-.15.43,0,.07.06.08.06.1,0,.02-.05.08-.06.37-.05.47.01.43-.07.47-.02.04.07.13-.07.13-.01,0,.05.18.14.14.11-.05-.06.1-.12.21-.09.13.04.14.04.25,0,.18-.07.26.13.34,0,.04-.05.05-.05.08,0,.03.05.05.05.12,0,.16-.1.19.11.34.03.1-.05.55,0,.62-.04.03-.02.07-.02.09,0,.06.04.4.03.38,0-.03-.05.15.04.24-.03.12-.1-.03.13.13.04.04-.02.08-.03.1-.01.04.04.14.05.12.01-.03-.04.1-.07.19-.04.04.02.1,0,.13-.01.11-.08.1.16.22.05.13-.13.71.09.71.01,0-.04.3-.12.28-.04-.01.05.06.04.09,0,.04-.06.1-.05.1.02,0,.07.08.12.05.04-.03-.07,0-.08.07,0,.05.05.07.05.14-.02.09-.08.13-.1.1-.04-.02.03.12.15.26.06.12-.08.27-.06.26.03,0,.05.02.06.13.04.07-.01.17-.03.22-.05.12-.04.29.03.48-.02.21-.05.3.05.34-.05.03-.09.26-.02.28,0,.03.05.16.02.32.06.09.02.11.02.13-.05.02-.08.1-.09.17-.01.05.05.14.06.14,0s.28-.02.44.06c.29.14.19-.18.55,0,.18.09.26,0,.33.06.05.04.2.01.2-.05,0-.15.9.29.69.45-.04.03-.04.05-.02.05.05,0,.03.17-.02.18-.02,0-.03.1-.02.22.02.34-.1.39-.02.44.06.04-.02.14.05.16.09.04-.22,0-.08.16.04.05.04.07-.04.12-.08.06-.08.08-.05.26.06.34-.1.12-.05.35.04.18-.09.11-.02.24.09.17.02.61,0,.61-.04,0-.03.44.01.46.05.03,0,.16-.05.13-.05-.03-.04.09.01.17.04.06.04.09,0,.15-.06.1.01.19-.05.31-.07.14.1.25.06.3-.03.03,0-.08-.06-.05-.05.03-.05.14,0,.12.03,0,.05.02.06.06.02.11-.05,0-.09.06-.04.06-.08-.03-.06.15.02.21-.07.17-.07.24,0,.02.01.03.03.02.04-.02.04.53,0,.57-.05.05.15.34.04.4-.14.09.04.2-.03.24-.02.01-.03.06-.02.1.05.16.04.46-.01.51-.08.08-.13.04-.13.1,0,.06.08-.04.08.06,0,.18.09.29.02.4-.08.12.15.18.06.27-.08.08,0-.12-.09-.12-.06,0,0,.13,0,.22,0,.03.02.04.04.02.03-.02.03-.01.02.01-.04.07-.06.39-.02.41.05.03.05.22,0,.19-.06-.04-.12.07-.1.17.03.15.03.47.09.55.04.05.04.06-.01.06-.11,0,0,.18-.1.16-.07-.02-.02.4.06.48.15.15-.28.05-.06.32.1.12.04.08.03.25,0,.22-.16-.01-.03.42.09.3-.1.28.01.36.11.08.05.4-.03.16-.04-.14-.08.02,0,.16.1.19-.09.32,0,.36.03.01.03.03-.02.07-.1.08.02.41-.04.41-.03,0-.02.56,0,.76,0,0,.02.01.05.04.07.06.07.06-.01.07-.14.02-.04.2-.05.5,0,.06,0,.38-.05.37-.03,0-.15.15-.05.41.04.09.05.19.04.21-.05.08-.05.25,0,.33.05.07.05.09,0,.14-.05.05-.05.06,0,.13.09.12-.04,0-.03.33,0,.31-.1.28-.04.34.09.09-.09.25.06.36.07.05.08.06.02.1-.13.08.09.36-.04.28-.03-.02-.04,0-.02.06.03.14-.06.38,0,.48.03.05.02.08-.02.11-.1.08.01.5.07.54.07.05.02.18-.05.16-.07-.03-.06.09-.02.09.06,0,.09.13.04.15-.09.06.14.23-.02.23-.08,0-.07.11,0,.17.11.08-.08.35,0,.4.04.03.12.31.03.31-.07,0-.07.23,0,.41.08.18.08.29,0,.25-.11-.04,0,.24.05.28.07.07,0,.1,0,.33,0,.1-.01.14-.05.13-.06-.02-.02.21.04.25.06.04-.04.06.05.13.04.03.05.05.02.05-.03,0-.04.02-.03.04.03.06-.15.11-.06.12.04,0,.05.03.03.11-.03.15,0,.27.07.25.06-.02.07.13.01.2-.05.06-.1.4-.07.4.05,0,.07-.14.07.02,0,.06,0,.13-.02.14-.04.04-.05.23,0,.28.09.11-.11.33,0,.45.07.07.06.15,0,.15-.07,0-.1,0,0,.12.1.13.1.18,0,.15-.12-.04-.08.09-.04.11.04.02.03.14-.02.21-.03.05.07.07.03.13-.06.09-.05.5.02.61.13.22-.13.2.04.34.16.13-.06.02-.02.21.05.19-.09-.03-.07.16.01.15.02.17.05.14.02-.01.05,0,.06.04.03.09,0,0-.08.05-.11.09.15.14.01.24-.08.06-.09.28-.02.33.04.02.04.04,0,.09-.08.09.02.12-.06.28-.08.15.01.11,0,.33,0,.08,0,.13.02.12.06-.03.07.07-.12.23l.08.15c.09.17.07.45-.03.55-.04.04-.05.08-.02.12.05.08.02.16-.05.16s-.07.16,0,.33c.08.18.07.24-.01.24-.06,0-.07.03-.07.17,0,.12.01.17.05.17.08,0,.06.06-.02.09-.12.03-.05.33,0,.4.04.07.04.09-.01.11-.05.02-.05.03-.02.08.07.09-.12.22,0,.15.05-.03.05-.02,0,.02-.03.03-.04.07-.02.08.04.04.01.34-.04.38-.06.04-.02.21.05.21.02,0,.04,0,.03.32-.1-.22-.1-.26-.1.03,0,.32.07.22.07.61,0,.49.14.43.04.51-.06.05-.13.22-.08.21.12-.02.2.14.09.19-.06.02-.1.24-.05.23.07,0,.09.01.04.04-.05.03-.05.05,0,.08.06.06.06.12,0,.09-.03-.02,0,.02.04.07.07.08.08.13.07.25-.04.34-.04.64.02.61.05-.03.1.06.03.06-.06,0-.11.1-.07.13.04.02.1.49.08.6,0,.04.02.1.05.13.12.12-.06.07-.03.22,0,.04,0,.06-.02.05-.04-.03-.14.06-.17.14-.03.09-.83.02-.89.08-.05.05-.38.03-.47-.03-.08-.06-.11-.06-.23-.01-.29.11-1.03,0-1.14.15-.03.04-.05.04-.05.01,0-.06-.19-.15-.28-.13-.11.02-.25.13-.31.09-.06-.04-.44-.05-.44-.01,0,.04-.19.04-.19,0s-.19-.07-.21-.04c-.02.03-.31.02-.43-.01-.06-.02-.08-.01-.08.02.02.09-.48,0-.54.1-.04.07-.34-.04-.32-.11,0-.04,0-.04-.03,0-.09.09-.17-.08-.3.05-.12.12-.97.09-1.02.06-.08-.05-.04.12-.22.07-.16-.04-.31,0-.34-.06-.02-.03-.26.03-.31.08-.01.01-.05,0-.09-.01-.09-.05-.06.02-.25-.04-.25-.09-.1.08-.3,0-.08-.03-.11-.02-.14.02-.05.07-.21.07-.25.01-.02-.03-.03-.03-.06,0-.02.04-.05.04-.13-.01-.13-.09-.04.01-.29.02-.25,0-.19.1-.28.03-.09-.08-.38,0-.44-.05-.06-.06-.09.06-.22.03-.04-.01-.09,0-.11.02-.03.05-.16.05-.18,0-.02-.07-.29-.08-.36-.01-.06.06-.07.06-.11,0-.07-.1-.06,0-.28-.07-.17-.05-.24-.02-.14.05.06.05.06.05-.01.05-.11,0-.05-.11-.14-.07-.1.04-.1-.09-.26-.03-.15.06-.07-.04-.18.06-.08.07-.08.07-.26-.03-.18-.09-.34-.11-.29-.02.05.08-.21-.05-.15.03.02.03-.01.02-.06-.02-.08-.06-.1-.06-.18,0-.13.08-.16-.02-.21.06-.03.04-.03.04-.03,0,0-.1-.18-.07-.13-.15.02-.03-.03,0-.11.05-.22.16-.12,0-.22,0-.02,0-.03.03-.02.06.03.07-.03.08-.09.02-.06-.06-.43-.1-.43-.04,0,.05-.2.01-.22-.04-.01-.04-.18-.05-.08,0,.07.05.01.12-.06.02-.03-.04-.05-.06-.05-.04,0,.06-.31.05-.43,0-.1-.05-.11-.05-.09,0,.05.14-.25.08-.32,0-.06-.07-.11-.07-.09,0,.03.08-.21.17-.21.08,0-.07-.14-.1-.19-.05-.03.03-.04.03-.04,0,0-.05-.21-.05-.2.01.01.06-.12.07-.09,0,.02-.06-.19-.08-.22-.02-.01.02-.04.02-.07,0-.08-.07-.07.06-.14.02-.02-.01-.02,0-.01.04.03.09-.04.07-.11-.02-.08-.12-.19-.06-.62-.07-.2,0-.23.17-.29.08-.08-.13-1.01-.04-.94-.16.01-.02-.02-.02-.06-.01-.07.02-.08.03-.02.07.15.11.01.15-.18,0-.12-.09-.25-.1-.25-.01,0,.02-.06.03-.13.02-.19-.02-.11.05-.17.05-.02,0-.03-.03-.01-.06.02-.05,0-.05-.07-.02-.13.05-.01-.02-.7-.05-.23,0-.2.21-.3.09-.07-.09-.37-.13-.37-.06,0,.07-.08.12-.11.07-.03-.04-.23-.18-.28-.21-.12.13-.15.18-.19.12-.03-.04-.03-.04-.03,0,0,.03-.02.04-.04.03-.07-.05-.16.13-.13-.01.02-.11-.1-.05-.07,0,.01.02,0,.02-.05-.01-.11-.08,0,.04-.05.04-.16.03-.2.02-.2-.04,0-.05,0-.05-.03,0-.06.1-.3-.21-.5-.03-.18.15-.99-.05-.99,0,0,.05-.16.09-.13.04.04-.06-.12.03-.16-.03-.04-.06-.1-.05-.07.02.03.07-.03.08-.09.01-.06-.06-.23-.08-.32-.03-.05.03-.09.02-.13-.02-.08-.08-.28-.08-.28,0,0,.05-.02.06-.09.03-.18-.06-.53-.03-.53-.1,0-.05-.2-.05-.12,0,.09.06.01.12-.09.07-.08-.04-.08-.05-.03-.07.09-.03,0-.09-.08-.02-.06.06-.2.06-.33-.01-.08-.04-.09-.04-.11.03-.02.07-.13.12-.13.05,0-.03-.27-.16-.34-.16-.03,0-.06.03-.07.06-.02.06-.27.07-.35,0-.03-.02-.05-.02-.05,0,0,.02-.06.02-.16-.02-.29-.1-.12.05-.34.08-.16.03-.16.05-.43-.04-.17-.06-.23-.06-.25-.03-.04.06-.52.08-.51.02.01-.07-.05-.06-.08,0-.03.07-.16.08-.12,0,.01-.03,0-.05-.01-.04-.1.06-.26-.12-.39.02-.09.1-.17.04-.1,0,.04-.03.04-.03,0-.03-.03,0-.04-.02-.03-.04.04-.07-.04-.04-.15.04-.14.11-.08,0-.16.07-.11.09-.13-.08-.22,0-.14.11-.44.07-.39-.06.02-.05.01-.05-.04-.01-.05.04-.06.04-.06,0,0-.08,0,.04-.27.02-.09,0-.15,0-.12,0,.06.02.07.13.01.13s-.07-.09-.12-.06c-.02.01-.02,0-.01-.05.04-.12-.04.04-.14-.01-.1-.05-.5-.04-.5.02,0,.05-.25.06-.34,0-.08-.05-.27-.06-.3-.02-.03.06-.2.01-.22.08-.03.1-.03-.06-.31-.04-.25.02-.12-.04-.25-.04-.14,0-.05-.1-.23-.03-.17.06-.2-.02-.26.04-.03.03-.47.11-.47.01s-.07-.06-.09.04c-.02.08-.03.09-.08.05-.09-.08-.3-.11-.38-.05-.13.09-.37-.03-.37.08,0,.03-.01.05-.03.03-.06-.06.04-.12-.2-.12-.26,0-.29-.09-.31.01-.02.07-.19.15-.17.08.01-.06-.35-.13-.46-.09-.1.04-.32.06-.32.03,0-.04-.65-.13-.45,0,.1.06-.23.06-.44-.03-.11-.05-.16-.05-.19-.02-.06.06-.11.06-.11-.02,0-.13-.02.07-.24.08-.08,0-.15.02-.16.03-.06.06-.21.03-.23-.05-.01-.06-.04-.07-.09-.05-.12.04-.48-.05-.5-.13-.04-.16.02.25-.19.14-.1-.06-.17.04-.14-.04.03-.09-.25-.17-.41-.11-.12.05-.23-.07-.19-.08.02,0,0-.02-.03-.04-.14-.08-.1.11-.28-.03-.29-.23-.21.16-.32-.04-.05-.1-.12-.11-.12-.03,0,.04-.04.06-.1.06-.16,0-.05-.15-.14-.16-.08,0-.22-.03-.24,0-.05.09-.48-.03-.38-.04.02,0,0-.03-.04-.05-.07-.05-.15-.05-.5-.01-.27.03-.3-.1-.34.04-.02.08-.02.08-.1-.02-.11-.14-.17-.03-.12-.13.04-.07.03-.07-.04-.06-.14.04.02-.03-.04-.24-.05-.17-.02-.33-.07-.33-.03,0-.03-.02,0-.07.03-.06.02-.1-.06-.19-.19-.23.07-.17-.07-.44-.09-.19.02-.19-.03-.29-.06-.11.05-.07-.07-.19-.08-.08-.08-.09,0-.14.09-.06.1-.13.02-.13s-.12-.06,0-.06c.11,0,.06-.04.06-.28,0-.18-.12-.15-.09-.2,0-.02.08-.27.03-.51-.03-.15,0-.03.1-.12.11-.1-.02-.25.03-.3.02-.02-.06-.06-.06.09,0,.15-.1.24-.07.15.04-.09-.06-.04-.02-.26.03-.19-.03-.15.04-.19.12-.07-.14-.2-.03-.27.07-.05.07-.23,0-.23-.05,0-.05,0,0-.02.04-.02.04-.03,0-.05-.04-.02-.04-.03,0-.03.03,0,.04-.03.02-.1-.02-.1.04-.14.07-.05.03.06.04-.06-.03-.13-.16-.16,0-.24-.06-.39-.05-.13.1-.11.04-.26-.09-.23.05-.4,0-.48-.05-.08.03-.15-.04-.15-.09,0,.06-.05.02-.21-.04-.15.11-.1.03-.16-.09-.06.09-.37-.03-.51-.11-.12.02-.14,0-.29-.03-.15.11-.28.02-.5-.07-.17.08-.25.08-.38,0-.08-.12-.2-.17-.18-.02.01,0-.01.03-.06.13-.14-.03-.28.08-.28.07,0,.08-.14.01-.16-.03-.01-.03-.04.03-.11.11-.13,0-.02-.11-.09-.06-.05-.06-.05,0-.07.1-.03.12.1.09-.04-.02-.09-.01-.1.03-.08.04.02.04.02,0-.02-.09-.1.09-.1-.02-.22-.08-.09-.07-.28,0-.35.03-.03.04-.04.01-.03-.04.02-.07-.03-.05-.11.01-.06-.15-.17.02-.14.06.01-.05-.53.06-.53.05,0,.05,0,.01-.03-.04-.02-.04-.04,0-.06.07-.04.05-.1-.04-.1-.05,0-.07-.01-.05-.02.03-.01.04-.39.01-.5,0-.02.02-.3.11-.26.05.02.05.01,0-.05-.13-.15.08-.06,0-.27-.03-.09-.03-.13.03-.22.05-.08.05-.09.01-.06-.14.11-.1-.13-.02-.08.03.02.03,0,0-.03-.06-.07-.09-.45-.05-.48.05-.03-.03-.08.05-.1.11-.04-.07-.58.03-.64.07-.05-.1-.09-.04-.2.02-.04.02-.06,0-.06-.04,0-.04-.09.02-.49.05-.33-.12-.05-.08-.37.01-.09.04-.18.07-.2.06-.05.05-.34,0-.35-.06-.02-.06-.19,0-.22.03-.02.03-.04,0-.06-.04-.02-.04-.03,0-.03.07,0,.06-.1-.01-.24-.06-.11-.06-.12.02-.18.08-.06.08-.18,0-.13-.04.02-.1-.08,0-.1.1-.03.06-.48,0-.55-.05-.06-.04-.07.02-.12.08-.06.08-.16-.01-.23-.1-.08.04-.04,0-.16-.03-.13.09-.04.02-.23-.06-.17.02-.18-.06-.28-.11-.13.08-.1,0-.25-.05-.1-.05-.12.02-.12.07,0,.08-.15,0-.18-.08-.03-.1-.14-.06-.11.03.02.16-.06.09-.17-.07-.1.02-.15-.04-.26-.03-.06-.03-.07.01-.06.09.03.04-.59-.05-.66-.05-.04-.06-.06-.02-.1.04-.04.05-.03.05.02,0,.16.07-.01.08-.19,0-.24-.03-.41-.09-.38-.06.03.2-.25.15-.21-.1.08-.15-.29-.08-.55.02-.07.01-.11-.01-.11-.08,0,.11-.28-.05-.49,0,0,.07-1.44-.03-1.56-.03-.04-.03-.05,0-.05.07,0,.09-.12.03-.16-.14-.1.13-.29.01-.43-.07-.09-.07-.32,0-.31.09.01.09-.46,0-.56-.05-.06-.05-.08,0-.11.08-.06.09-.25.02-.33-.09-.1.02-.13.02-.06,0,.03.02.06.03.06.08,0,.06-.59-.03-.65-.05-.03-.02-.24.03-.28.04-.02.04-.04,0-.08-.06-.08.01-.12-.04-.27-.03-.08-.03-.1.02-.12.05-.02.05-.03.02-.07-.06-.06-.06-.14.01-.14.14,0-.04-.13.01-.21.03-.06,0-.34-.03-.37-.05-.03-.01-.35.05-.37.09-.03.11-.1.05-.19-.08-.12,0-.22-.05-.36-.08-.21.15-.04.02-.24-.08-.12-.08-.15.01-.12.08.02.1-.03.04-.12-.02-.04-.02-.07.02-.1.05-.04.05-.06,0-.2-.07-.21,0-.17.02-.13.02.03-.03-.06.04-.14.06-.08,0,.02-.09-.07-.07-.06-.07-.07.03-.14.09-.08.09-.08.04-.19-.1-.18-.02-.29-.07-.41-.05-.12.1-.09.07-.32-.04-.23.1-.18.03-.32-.05-.1-.05-.26,0-.29.07-.04.04-.1-.06-.13-.1-.04-.13-.11-.04-.11.03,0,.06-.02.06-.05,0-.16.19-.09.04-.29-.1-.14-.11-.3-.01-.31.05,0,.06,0,.01-.03-.08-.05.03-.1-.07-.15-.12-.07.04-.03.01-.48-.02-.43.12-.37,0-.46-.07-.05-.09-.12-.03-.08.02.01.04,0,.04-.03,0-.11-.09-.04-.04-.21.04-.15-.03-.22.04-.18.05.03.09-.01-.09-.1-.07-.03-.13-.05-.11-.04.05.05-.07.12-.15.1-.08-.02-.08,0-.07.08.01.07.03.09.06.07.02-.02.2-.13.16-.02-.04.1.12.14-.03.11-.19-.04-.05.09-.14.15-.06.04.03.17-.04.17-.06,0,.02.06-.03.13-.02.03-.03.09-.01.16.04.17.03.42-.02.41-.08-.02.04.22-.07.22-.05,0-.06.01-.02.06.04.04.04.06,0,.06-.06,0,0,.09.04.06.05-.03.05.24,0,.27-.09.05.02.3-.1.15-.1-.13-.01.02-.01.1,0,.05.06,0,.06.05s-.06,0-.02.13c.05.16-.04.12-.04.08,0-.04-.12-.09.03.11.06.08.09.13.07.12-.05-.04-.17.14-.17.26,0,.2.12.14.02.29-.04.05-.05.1-.03.1.04,0,.04.15,0,.21-.06.09.08.24-.02.44-.04.08-.04.11.03.21.08.13.06.19-.04.13-.05-.03-.06-.02-.06.07,0,.14.01.15.05.08.05-.08.06.01-.02.09-.03.03-.05.06-.03.06s0,.02-.03.04c-.08.05.02,0,.03.11,0,.11.05.21,0,.26-.06.08-.08.48-.02.51.04.02.04.05,0,.1-.05.08-.04.31,0,.38.02.03,0,.07-.02.1-.1.12.13.19.02.3-.04.04-.04.07-.02.12.03.05.02.06-.08.06-.29,0,.08.17,0,.24-.07.07.08.15-.02.19-.09.04.02.08,0,.41,0,.11,0,.23.03.25.06.08.06.23,0,.25-.1.04.06.15,0,.28-.08.2.03.27,0,.37-.02.05-.03.05-.06.01-.03-.04-.03-.04-.03.01,0,.13.13.04.05.18-.03.05-.03.09,0,.1.04.03.03.31-.01.35-.03.03-.06.38.03.34.09-.03.04.2-.06.27-.06.04-.07.07-.04.1.06.06.02.18.08.18.05,0,.05.08,0,.07-.06-.01-.08.17-.04.15.04-.02.01.25-.04.22-.04-.03.05.15.11.12.1-.04-.02.28-.02.22,0-.06-.1-.08-.05.02.06.12.04.42-.03.46-.05.03-.05.05-.02.09.05.06.08.32.04.36-.04.04.01.13.06.11.02-.01.02,0-.01.05-.03.04-.04.06,0,.04.07-.04.06.07-.01.18-.05.08-.05.1,0,.14.11.1-.1.2,0,.27.04.03.04.04,0,.05-.07.03-.06.13.02.19.06.04.06.06.02.14-.05.1-.05.26,0,.32.04.05-.04.49,0,.57.02.04.02.06,0,.06-.08,0,.08.13,0,.2-.03.03-.04.03-.04-.01,0-.06-.07-.04.02.09.1.15-.03.1,0,.2.01.03,0,.06-.02.08-.04.03-.02.17.04.24.06.07.09-.01.12.05.03.05.02-.04-.24.22l.19.27c-.12.12-.16.14-.12.25.06.15-.04.06-.04.14,0,.02.02.03.04.02.11-.07-.01.63.04.63.04,0,.08.12.05.2-.03.11-.11-.02-.05.15.02.06.06.12.07.12.07,0,.03.11-.05.16-.07.05-.08.07-.04.14.06.11.08.49.04.52-.06.03-.04.08.05.17.07.07.08.09.04.17-.07.13-.01.16-.06.26-.06.13.11.45-.03.53-.03.02-.03.03.02.03.12,0-.03.23.06.17.04-.02.04-.01,0,.05-.06.11-.12.02-.12.08,0,.08.15-.03.15.06,0,.03-.02.05-.04.03s-.04.01-.04.05c0,.06-.02.07-.09.06-.05,0-.06,0-.03,0,.08.04.11.09.1.19,0,.05,0,.09.02.09.03,0,.02.1-.01.14-.04.04-.03.12.04.18.08.08.03.13-.03.07-.14-.14-.12.1-.07.13.06.04-.03.07.05.16.08.08,0,.11.06.19.05.06-.02,0-.03.45-.01,1.09-.17.89-.09,1.1.08.2,0,.74.05,1.24.02.21,0,.3-.05.27-.05-.03-.05.05,0,.08.04.03.08.41.06.52-.03.13-.15.03-.09.15.05.09,0,.51.05.57.07.09-.1.11-.01.22.08.1-.05.27.05.33.04.03.04.04-.02.09-.24.18.23.42-.02.57-.06.03-.07.28-.02.31.04.03.04.67,0,.67-.04,0-.02.24-.06.28-.05.05-.04.14,0,.13.05-.01.06.16.01.23-.04.05,0,.22.05.12.02-.04.03-.01.02.09-.02.22.07.1-.01.26-.1.2-.21.03-.09.27.11.2.18.14.13.18-.08.06-.03.26-.11.32-.02.01,0,.08.05.14.08.12.08.12,0,.12-.11,0-.13.08-.09.08.03,0,.16.18.07.24-.12.09.09.12,0,.26-.08.14.18.15.04.2-.13.05-.08.27-.14.11-.05-.13-.03.12.03.12.07,0,0-.02.05-.1.06-.09.12.03.09.17-.01.06-.03.14-.03.16,0,.08-.21.25-.13.23.08-.02.03.04.1.08.1.06-.01.4.03.48.03.06.03.29,0,.29-.03,0-.02-.03.07.39.04.17-.1.21-.04.25.24.17.07.54.14.67.05.09-.03.05.03.12.03.04.03.06-.01.1-.07.06-.07.14,0,.17.08.03,0,.07.07.14.11.11-.04.64.22.83.16.12.22.06.15.14-.07.09.28.13.37.05.08-.07.37-.13.4-.07.04.06.22,0,.2-.06-.02-.05,0-.05.14-.03.23.04.32,0,.37.09.06.11.38.04.48.12.04.03.06.03.08,0,.02-.03.04-.03.07,0,.07.06.33.12.35.08.03-.04.17,0,.17.04,0,.06.1-.05.31.09.16.11.23.12.29.05.08-.08.29-.06.37.03.1.13.11.01.2.09.06.05.08.02.21-.13.06.23.15.21.15.15,0-.22.23.06.23-.01,0-.07.09-.05.2.03.12.09.18.1.24.01.07-.09.14,0,.22,0,.05,0,.05.08.17,0,.14-.09.09.02.17.02.03,0,.02-.02,0-.06-.04-.05-.03-.06.05-.06.15,0,.17.19.21.12.04-.07.41,0,.47-.09.03-.04.03-.04.03,0,0,.04.05.07.12.09.31.06,0-.13.12-.13.03,0,.08.02.1.05.07.07.28.07.36,0,.05-.05.08-.05.1-.01.03.05.31.09.37.05.08-.05.07-.19.11-.06.02.07.05.08.21.08.13,0,.19-.02.19-.05,0-.06.08-.06.15,0,.07.07.47.07.52,0,.03-.05.06-.05.15,0,.11.06.19.05.15-.02-.03-.04.04-.1.07-.02.03.07.27.09.24,0-.04-.09.16-.06.19-.02.02.03.04.03.07,0,.06-.05.33-.04.32.01-.01.06.13.08.23.02.07-.04.11-.04.18,0,.15.08.3-.03.39,0,.29.08.13-.05.22-.08.03-.01.06,0,.07.03.03.08.52.08.6,0,.09-.08.08-.01.34.01.1,0,.18.03.19.05.02.06.07.04.09-.04.02-.09.19-.09.33.01.1.07.21.08.25.02.05-.08.2.16.34.02.07-.07.5-.11.54-.05.03.06.09.04.09-.02,0-.08.04-.07.1,0,.04.05.06.06.1.02.06-.05.12-.06.09-.01-.03.05.12.09.08.06-.04-.04.04-.13.11-.13.1,0-.03.16.24.12.13-.02.27.02.27-.06,0-.07.16-.09.13,0-.04.11.09-.01.2.07.07.05.19.04.27-.03.07-.05.04.01.22-.03.09-.02.16-.01.23.02.28.14.13-.04.34-.05.2,0,.32-.08.36,0,.03.05.39.17.47.09.06-.06.44-.03.49.04.02.03.05.01.1-.05.1-.14.12,0,.1.04-.03.05.04.01.19.05.06.02.13.01.15,0,.21-.18.59.14.74,0,.1-.1.28.19.42.04.06-.07.08-.07.15-.02.14.09.09-.05.21.03.14.09.23-.24.23-.07,0,.14.7.06.75-.02.04-.06.24-.04.28.03.06.11.59.04.52.18-.01.02.02,0,.07-.06.11-.12.4-.17.38-.07,0,.04.02.05.08.03.19-.04.07.19.24-.01.08-.1.1-.11.13-.06.03.04.04.04.04,0,0-.03.03-.03.1.03.1.08.37.11.41.05.02-.03.37-.11.51-.02.05.03.08.04.06.01-.02-.04,0-.04.05,0,.15.08.45-.06.47.02,0,.03.03.03.08,0,.07-.06.14-.03.14.06,0,.11.03-.05.13,0,.12.04.14-.14.24-.06.08.06.09-.02.28.06.3.12-.01-.04.25-.07.07,0,.14,0,.14.01,0,.11.63.13.8.03.17-.11.31.2.46.06.09-.08.07-.02.34,0,.16.01.19,0,.17-.04-.03-.08.13-.08.24,0,.11.08.18-.03.23.01.04.04.43.03.7.06.34.03.09-.18.39-.02.15.08.17.08.23.02.04-.04.07-.05.07-.02,0,.08.11.05.13-.04.02-.08.03-.08.09-.02.11.1.15-.01.3.07.17.09.12-.1.21-.01.12.12.25-.16.21,0-.01.05,0,.08.02.06s.03,0,.03.02c0,.06.22-.05.39-.02.14.02.07-.03.23-.04.16,0,.17-.13.24-.1.03.01.04.04.03.06-.03.05.02-.03.17.06.1.06.13.06.24.01.36-.15.49.04.66-.06.17-.11.13.11.24.02.1-.09.11.1.2-.01.07-.08.16-.07.28.02.11.08.29.1.36.03.09-.09.27.1.26-.03,0-.08.05-.05.27-.02.23.03.23.07.26,0,.02-.05.04-.05.1-.02.07.04.25.03.3-.02.03-.03.09.07.2.04.15-.04.35.08.35-.01,0-.12.54-.06.58-.02.08.08.1-.13.18-.05.08.08.22-.07.32.01.04.04.07.04.11,0,.03-.03.06-.03.06,0,0,.05.16,0,.3,0,.14,0,0-.08.36-.05.96.07.68-.2,1.11-.05.34.12.17-.09.39-.04.14.04.07.1.16.07.05-.02.05-.01.03.03-.02.03-.01.04.02.03.09-.03-.01-.11.13-.08.15.03.1-.13.18-.07.06.04.3.04.27,0-.05-.07.32.02.39.11.03.04.05.06.04.03-.05-.09.26-.19.34-.11.07.07,0-.02.4-.05.58-.04.43-.18.65-.04.18.11.17.17.21.09.09-.16.47.03.47-.06,0-.08.05.05.19,0,.14-.06.37-.05.44.01.05.04.07.04.1-.02.09-.15.11.13.25,0,.11-.1.07,0,.19-.06.16-.09.29.13.54,0,.19-.1.29-.02.39-.1.14-.13,0,.08.29.05.25-.02.11-.12.21-.25.06-.07-.06-.07-.02-.13.04-.06.11.08.15,0,.01-.02,0-.04-.02-.04-.04,0-.04-.13,0-.18.05-.05.03-.27-.03-.3-.04-.01-.05-.05-.04-.08.05-.12-.11-.18.03-.22.15-.04-.03-.33.08-.27.09.06-.25-.29-.11-.37.11-.07-.21-.25.02-.48.05-.05.04-.07-.02-.18-.14-.24.03-.65-.1-.69-.08-.03-.08-.09,0-.09.07,0,.08-.1,0-.12-.05-.02-.07-.3-.02-.33.02-.02.09-.18-.01-.16-.08.01-.14-.11-.03-.11.13,0,.04-.23.12-.23.09,0-.05,0-.05-.11,0-.14-.11-.08-.11-.47,0-.34-.06-.33-.01-.35.06-.03-.04-.18.06-.28.08-.08.06-.44-.02-.57-.05-.08-.05-.09,0-.12.03-.02.07-.02.1-.01.06.03-.06-.12-.12-.16-.07-.05-.06-.15.02-.13.08.01.12-.12.04-.17-.04-.03-.04-.04.01-.08.07-.05.05-.05-.1-.17.28-.09.09-.08.17-.3.02-.05.02-.09,0-.09-.14.02-.16-.08-.05-.2.12-.12.05-.23.12-.23.07,0-.06-.09-.03-.15.01-.02,0-.05-.03-.06-.03-.01-.03-.02.01-.02.13,0,.07-.58.04-.56-.05.03.02.12-.04.15-.06.04-.05-.12.02-.17.08-.06.03-.06.08-.16.06-.14-.17-.18-.05-.27.08-.06.01-.15.06-.25.03-.07.04-.31.02-.3-.01,0-.02-.01-.03-.03-.01-.06.15-.02.12-.06-.04-.07-.16.02-.11-.12.04-.13.04-.24.09-.23.02,0,.01-.05-.03-.13-.07-.13-.07-.14-.01-.18.12-.09-.13-.21-.01-.26.08-.03.03-.19.08-.42.04-.22-.05-.08-.03-.26.01-.16-.05-.02-.05-.21,0-.2.09-.1.01-.22-.05-.08-.05-.09,0-.16.05-.05.05-.08.02-.09-.09-.03-.03-.26.05-.12.03.04.19.07.08-.01-.12-.09.03-.2,0-.37-.03-.14-.05-.13-.05.01,0,.15-.03.22-.1.22-.03,0-.03,0,0-.02.07-.03.06-.15,0-.2-.12-.1-.02-.11.11-.15l-.19-.2.09-.07c.13-.1.04-.27-.02-.31-.05-.03-.05-.04.02-.11.08-.08.08-.12,0-.31-.07-.15.07-.1.03-.21-.01-.03,0-.07.01-.08.05-.03.01-.18-.06-.25-.08-.08,0-.19-.05-.22-.02-.01-.03-.04-.03-.06,0-.05.11-.04.13.01.02.05.05-.07-.03-.21-.05-.09-.05-.11,0-.11.07,0,.07-.1,0-.12-.06-.02-.06-.26-.03-.24.03.02.15-.19-.05-.62-.03-.06-.03-.1,0-.13.07-.09.06-.29-.01-.31-.06-.02-.06-.03,0-.06.04-.03.05-.04,0-.04-.09,0,.07-.12.01-.12-.02,0-.01-.02.01-.04.03-.03.03-.06,0-.1-.04-.05-.04-.05,0-.03.14.09-.09-.21-.04-.21.07,0,.08-.49,0-.54-.1-.06.11-.09.04-.3-.03-.07-.06-.11-.09-.09-.06.04.24-.33.09-.24-.02.01-.03-.01-.02-.05.03-.12-.16-.14-.12-.25.01-.03.04-.05.05-.04.04.03-.02-.11.02-.2.04-.1.05-.7,0-.73-.02-.01,0-.04.03-.07.08-.06.05-.21-.04-.21-.07,0-.07-.09,0-.06.08.03.07-.02,0-.17-.06-.11-.06-.12,0-.16.07-.04.09-.15.03-.15-.02,0-.01-.04.02-.09.09-.14,0-.09-.02-.61,0-.04-.02-.06-.04-.05-.02.01-.04-.05-.03-.17,0-.35.15-.06.15-.32,0-.22-.09-.07-.04-.47.05-.41-.04-.14-.03-.65l.1.23c0-.09.01-.23-.05-.29-.17-.14.12-.12.07-.2-.03-.05-.04-.43-.07-.58-.05-.21.14-.03.03-.28-.03-.07-.04-.12-.02-.11.06.04.09-.04.05-.12-.03-.05-.02-.12.02-.24.07-.2.08-.45.02-.49-.07-.04.04-.41-.01-.45-.05-.03-.04-.09.02-.09.08,0,.07-.07-.03-.16-.08-.06-.08-.07-.02-.07.06,0,.07-.02.04-.12-.05-.24.12-.07.06-.37-.06-.27.03-.45-.06-.49-.06-.02-.04-.19.03-.28.02-.03.02-.05,0-.05-.05,0,.13-.15.06-.15-.08,0,.02-.35-.07-.32-.06.02-.09-.24.03-.28.08-.03.1-.08.03-.1-.07-.02.11-.45-.06-.45-.1,0,.17-.59.05-.71-.04-.04-.03-.17,0-.17.05,0,.07.13.08.01,0-.05-.03-.1-.06-.12-.07-.04-.04-.1.04-.1.05,0,.09-.12.03-.08-.03.02-.04,0-.04-.06,0-.07,0-.08.06-.04.08.07.07,0-.02-.16-.07-.12-.07-.22,0-.27.08-.05-.26-.18-.05-.24.08-.03.11-.17.03-.17-.03,0-.02-.02.02-.04.16-.09-.1-.1-.01-.37.08-.24-.08-.32.02-.36.06-.02.08-.14.02-.14-.04,0-.04-.07,0-.13.03-.05,0-.25.03-.3.04-.06.04-.25,0-.27-.04-.02-.06-.23.01-.18.08.05-.03-.09.04-.12.09-.04,0-.85.03-.98.05-.19-.1-.17.03-.32.17-.18-.04-.52.04-.61.02-.03.03-.07,0-.1-.05-.08-.05-.22,0-.24.08-.03-.08-.16,0-.2.07-.04-.03-.21.06-.21.06,0,.07-.1.01-.13-.02-.01-.04-.06-.04-.1,0-.11.06,0,.1-.1.01-.04,0-.07-.02-.08-.06-.02-.06-.11.01-.14.1-.04-.05-.28.02-.23.05.03.05-.06,0-.06-.03,0-.03-.28.06-.26.12.03.04-.77-.03-.77ZM23.07,2.6c-.09-.06.08-.05.08,0s0,.05-.08,0ZM31.43,1.59s.05,0,.04.02c-.04.07-.17.03-.04-.02ZM40.52,1.57c-.08,0-.07-.08-.02-.08s.1.08.02.08ZM40.85,1.54c-.08.11-.13.07-.01-.01.06-.05.06-.05.01.01ZM41.07,1.57c-.06,0,0-.08.02-.08s.03.08-.02.08ZM43.42,1.72c-.07,0-.08-.02,0-.05.08-.03.08.05,0,.05ZM43.85,27.37c-.03.06-.03-.16,0-.1.01.03.01.07,0,.1ZM.75,25.71c.1-.03.05.05-.02.05-.08,0-.07-.03.02-.05ZM.4,6.82s.03.05.01.05c-.08,0-.12-.17-.01-.05ZM.56,5.56c-.07-.08.03-.07.06-.02.04.07,0,.08-.06.02ZM8.97,38.1c0-.05.09-.05.06,0-.04.06-.06.04-.06,0ZM13.85,38.03s.05-.1.08-.07c.03.03-.05.12-.08.07ZM16.21,38.02c-.03-.05.11-.05.08,0-.03.05-.04.05-.08,0ZM16.44,38.71c-.03-.05,0-.1.03-.02.03.07,0,.08-.03.02ZM17.46,38.75c-.05,0-.05-.09,0-.06.06.04.04.06,0,.06ZM18.89,38.14c-.07,0-.12-.06-.02-.06s.09.06.02.06ZM43.79,29.75c-.05.03-.05-.04,0-.08.05-.03.05.04,0,.08ZM43.83,28.89c-.05,0-.05-.09,0-.06.06.04.04.06,0,.06ZM44.47,3.67c-.06,0,0-.08.02-.08s.03.08-.02.08ZM44.92,5.49s-.03-.14,0-.07c.01.03,0,.06,0,.07ZM45.2,2.94c-.05,0-.05-.08,0-.08s.05.08,0,.08Z"/>
  <path d="M44.28,32.27s-.08-.08-.08-.02.08.04.08.02Z"/>
  <path d="M.07,25.47c-.05-.03-.05.06,0,.06.04,0,.06-.02,0-.06Z"/>
  <path d="M.85,3.63s.08-.08.02-.08-.04.08-.02.08Z"/>
  <path d="M44.51,37.47s.07,0,.09-.05c.04-.11-.09.04-.09.05Z"/>
  <path d="M43.79,15.88c.01.08.04.07.01.02,0,0,0-.02-.01-.02Z"/>
  <path d="M44.7,11.65s.05-.06,0-.1c-.05-.03-.05.1,0,.1Z"/>
  <path d="M.82,34.29s-.05-.01-.07,0c-.07.03.1.03.07,0Z"/>
  <path d="M6.83,3.4s.02.06.06,0c.03-.05-.06-.05-.06,0Z"/>
  <path d="M10.92,37.94c-.08-.02-.11.03-.03.06.15.06.13-.04.03-.06Z"/>
  <path d="M4.54,37.89s0,.06.02.05c.03-.03-.02-.15-.02-.05Z"/>
  <path d="M13.59,3.21c-.06,0,0,.08.02.08s.03-.08-.02-.08Z"/>
  <path d="M.76,33.59c0,.13.04.02.02-.05-.01-.03-.02,0-.02.05Z"/>
  <path d="M.82,3.5c.07,0,.08-.07.01-.09-.04-.01-.11.1-.01.09Z"/>
  <path d="M.68,33.4c.05,0,.04-.08.02-.08s-.08.08-.02.08Z"/>
  <path d="M17.53,3.03s0,.06.02.05c.03-.03-.02-.15-.02-.05Z"/>
  <path d="M31.4,2.44s.02.06.06,0c.03-.05-.06-.05-.06,0Z"/>
  <path d="M29.78,38.18s0,.04.04.04c.13,0,0-.1-.04-.04Z"/>
  <path d="M38.3,38.15c.04-.11-.09.04-.09.05,0,.04.07,0,.09-.05Z"/>
  <path d="M14.11,2.29c-.08,0-.08.08,0,.05.08-.03.07-.05,0-.05Z"/>
  <path d="M15.32,2.25s-.1.08-.02.08.07-.08.02-.08Z"/>
  <path d="M-.03,17.18c-.08-.03-.02.05.02.05.05,0,.04-.03-.02-.05Z"/>
  <path d="M6.61,2.52s.04-.02-.02-.08c-.1-.08-.01.08.02.08Z"/>
  <path d="M24.2,1.78c-.04-.11-.16.06-.03.06.03,0,.05-.02.03-.06Z"/>
  <path d="M-.08,25.59s0,.04.03.06c.16.1,0-.09-.03-.06Z"/>
  <path d="M.05,35.87s0-.02-.04-.02c-.07,0-.07,0,0,.08.04.04.09.08.11.08.06,0-.1-.09-.07-.13Z"/>
  <path d="M.23,37.26c0,.05,0,.07.02.05.03-.06-.02-.18-.02-.05Z"/>
</svg>