<?xml version="1.0" encoding="UTF-8"?>
<svg id="Layer_1" data-name="Layer 1" xmlns="http://www.w3.org/2000/svg" viewBox="0 0 68.4 17.54" fill="#2c2013" preserveAspectRatio="none">
  <path d="M67.14,7.25c.08-.11.08-.21,0-.12-.17.17.02-.13-.11-.13-.07,0-.08-.04-.02-.1.08-.08.08-.39,0-.34-.04.02,0-.17.04-.09.05.07.04-.26,0-.29-.06-.04.02-.1-.05-.17-.04-.04-.03-.04.02-.03.05.02.06,0,.04-.03-.03-.09-.02.01-.13-.09-.09-.09-.08-.26.01-.24.12.02-.06-.39-.05-.46,0-.02-.02-.03-.05-.03-.08,0-.1-.11-.03-.15.14-.09-.14-.08-.12-.36.02-.27.16-.09-.13-.41-.11-.11-.02-.63-.1-.58-.04.03-.02-.08-.07-.04-.05.03-.05-.04,0-.13.06-.09-.01-.19-.14-.19-.08,0-.08,0,.01-.08.05-.04.07-.07.05-.05-.17.09-.05-.63-.18-.58-.08.03,0-.01-.06-.15-.07-.17.07-.14-.02-.26-.08-.11.02-.18-.07-.28s-.03-.24-.13-.28c-.23-.09-.2-.25-.4-.21-.15.03-.19-.08-.27-.04-.09.03-.07-.11-.16-.07-.03.01-.05.04-.04.05.03.05-.06.09-.11.04-.03-.03-.03-.04,0-.04.03,0,.04,0,.03-.02-.04-.04-.27.14-.24.05.02-.06-.12-.12-.16-.06-.01.02-.08.02-.15,0-.2-.04-.29.03-.42-.05-.05-.04-.11-.05-.14-.03-.06.04-.12,0-.09-.04.03-.04-.1,0-.1.05s-.02-.02-.11.03c-.07.04-.17,0-.18-.07-.03-.22-.08.13-.32.02-.11-.05-.49.16-.49.07,0-.07-.16-.11-.31-.08-.21.04-.2-.11-.26-.02-.02.04-.06.04-.15-.01-.22-.12-.03.04-.15.09-.04.01-.04,0-.02-.07.06-.17-.25.03-.25-.1,0-.08-.05,0-.2,0-.11,0-.2.06-.1.06.03,0,.06.01.06.03,0,.05-.23.02-.27-.03-.05-.08-.06.02-.13-.04-.08-.06,0,.08-.77-.01-.24-.03-.12.05-.22.05-.03,0-.06-.03-.06-.06,0-.06,0-.07-.09-.04-.09.04.03.19-.11.04-.23-.24-.23.08-.37-.06-.06-.06-.07-.04-.18.11l-.07-.08c-.08-.1-.18-.1-.18,0s-.1.1-.16,0c-.06-.09-.18-.1-.18-.02,0,.13-.19-.14-.27-.02-.03.05-.04.05-.07,0-.03-.04-.05-.04-.11,0-.15.09-.12-.09-.22.01-.05.05-.17.04-.17-.02,0-.06-.18,0-.13-.08.02-.03.01-.03-.03,0-.09.08-.11,0-.28.07-.21.09-.32-.06-.52-.06-.04,0-.07-.01-.06-.03.02-.04-.17-.04-.17.02,0,.05-.11.1-.13.05-.03-.05-.32.05-.37,0-.02-.02-.3-.03-.46-.1-.04-.02-.07,0-.09.04-.04.11-.11-.07-.16,0-.03.05-.43.06-.43.01,0-.03-.21-.11-.28-.02-.05.06-.2.04-.16-.02.01-.02-.01-.03-.06-.03-.13,0-.02.1-.19.06-.07-.02-.11,0-.11.02,0,.02-.06.04-.13.04-.18,0-.1-.09-.22-.07-.14.02-.13-.07-.29-.02-.06.02-.12.02-.14.02-.16-.04-.75.01-.79.08-.04.07-.16.01-.14-.06.03-.07-.15-.08-.18,0-.04.09-.03-.05-.12-.05-.08,0,.01.05-.11.11-.18.08-.1-.11-.36-.1-.2,0-.22-.07-.28-.01-.07.07.09.01.09.08,0,.12-.34-.16-.29-.07.04.06-.09,0-.17.05-.04.02-.05.02-.03-.01.02-.03,0-.04-.05-.04-.13,0,.01.09-.35.05-.43-.04-.25.09-.43.02-.21-.08-.09.17-.25.02-.12-.11-.41-.02-.42,0-.01.01-.46-.15-.44,0,.01.08-.09.05-.12-.03-.03-.08-.13-.07-.16.02-.03.09-.04.09-.21,0-.14-.08-.36-.08-.43-.01-.03.03-.07.03-.11,0-.15-.08-.43.07-.48,0-.04-.06-.25-.04-.37.03-.11.06-.12.06-.16,0-.06-.08-.1-.09-.1,0,0,.06-.14.08-.17.02-.03-.06-.19-.02-.15-.07.04-.06-.17.03-.17-.05,0-.03-.02-.02-.04.02-.03.05-.08.07-.18.06-.19-.01-.17-.09-.24-.03-.17.16-.31-.05-.36.03-.04.07-.1-.06-.14-.02-.05.05-.17-.13-.21.01-.02.08-.12.09-.1,0,0-.03,0-.03-.03-.02-.06.04.04.12-.08.05-.33-.18-.24.1-.44.01-.06-.03-.09-.03-.07,0,.01.02,0,.04-.04.04-.09,0-.04-.08-.1-.08-.05,0,.02.05-.05.11-.04.04-.07.03-.11-.01-.04-.04-.05-.06-.01-.07.05-.02-.22-.08-.16,0,.07.08-.06.09-.23.02-.15-.07-.16-.07-.2,0-.08.15-.34-.13-.42,0-.06.09-.01-.04-.08-.04-.02,0-.03.01-.02.03.01.02-.06.01-.17,0-.15-.03-.2-.03-.28.03-.05.04-.1.05-.1.03,0-.05-.14-.05-.16,0-.02.07-.52.07-.54,0-.03-.08.05-.15-.06-.09-.16.09.06.18-.17.14-.19-.03-.13.07-.22.03-.1-.04.01-.09-.1-.09-.14,0-.03.15-.15.09-.2-.09-1.1-.03-1.2-.07-.05-.02-.07-.01-.07.05s-.02.07-.11.07c-.18-.01-.29-.18-.36-.11-.09.09-.18-.11-.3.05-.11.15-.1,0-.48-.07-.12-.02-.03.24-.35.08-.09-.04-.14-.05-.17-.02-.05.04-.53.03-.6-.01-.05-.03,0,.03-.16.11-.24.12-.12-.1-.39-.08-.16.01-.08.07-.13.07-.07,0-.01-.14-.12,0-.05.06-.07.07-.05.03.02-.04,0-.07-.04-.07-.14,0-.14-.18-.21-.02-.04.1-.14.12-.18.05-.02-.04-.33-.03-.4.02-.02.01-.04.01-.04,0,0-.04-.67-.06-.54,0,.12.05.11.07-.03.07-.09,0-.11-.01-.1-.06.02-.06-.06-.05-.27.03-.23.09-.08,0-.19-.07-.14-.09-.01.25-.19.09-.08-.08-.12-.08-.12-.01,0,.04-.06.05-.2.05-.34,0-.64.07-.64.01s-.09-.01-.15-.11c-.09-.15.02.13-.11.02-.05-.04-.06-.04-.03,0,.06.1-.09-.07-.2,0-.06.04-.06.04,0,.02.14-.04,0,.17-.04.11-.02-.03-.18-.19-.14-.08.03.09-.16.13-.24.06-.1-.09-.18-.13-.15-.07.04.07-.15,0-.18.11-.04.1-.02-.03-.31,0-.28.02-.22-.07-.41-.04-.17.03-.15-.06-.24-.03-.1.04,0,.1-.09.08-.13-.03-.14.09-.25,0-.04-.04-.07-.04-.07-.02,0,.06-.09.05-.23-.02-.11-.06-.12-.06-.17,0-.03.04-.07.06-.1.04-.08-.05-.11.1-.23.03-.07-.04-.44-.12-.51-.02-.04.06-.06.06-.21,0-.2-.08-.27-.08-.27,0,0,.04-.02.05-.07.03-.12-.05-.32-.04-.38.01-.11.11-.14-.07-.27,0-.1.06-.17-.06-.27-.01-.11.05-.2.04-.24,0-.06-.07-.15-.07-.12,0,.03.09-.04.1-.13.02-.07-.06-.08-.06-.1-.02-.03.09-.11.07-.09-.02.01-.04,0-.08-.01-.08-.07,0,.01.18-.1.12-.09-.05-.18.02-.22-.04-.02-.03-.05-.03-.1,0-.09.05-.19.01-.19-.07,0-.06,0-.05-.04,0-.02.04-.06.06-.08.04-.06-.03.03.02-.03.09-.03.04-.05.04-.1,0-.05-.04-.05-.04-.03,0,.03.06,0,.06-.09.01-.04-.02-.07-.02-.08,0-.04.06-.18-.05-.16-.11.01-.03-.01-.02-.06.03-.13.13-.11,0-.37.04-.01,0,0,.03.02.06.06.07,0,.11-.09.04-.13-.09-.18.08-.24,0-.03-.04-.28-.12-.28-.03,0,.07-.08.07-.08,0,0-.03-.01-.03-.04,0-.03.04-.05.05-.08.01-.05-.05-.25-.03-.32.03-.05.05-.2.03-.14,0,.09-.04,0-.09-.11-.06-.16.03-.08-.07-.19-.04-.13.03-.02.14-.16.12-.15-.02-.15.08-.25-.04-.08-.1-.18-.14-.15-.05.05.12-.13-.09-.22.03-.06.08-.11.09-.08,0,.03-.07-.04-.12-.08-.04-.04.1-.19.02-.27.07-.06.04-.07-.06-.15-.02-.03.01-.08,0-.1-.01-.08-.05-.33,0-.33.07,0,.05-.15-.01-.22.07-.04.05-.05.05-.04-.02.01-.1-.2-.16-.26-.08-.07.1-.05-.05-.16.01-.04.02-.14.05-.23.07-.14.03-.18.03-.24-.04-.18-.18-.2.02-.27-.02-.05-.03,0,.04-.04.04-.05,0-.11.11-.18.06-.04-.02-.04-.04.01-.08.18-.15-.13-.08-.13-.04,0,.03-.29.09-.38.09-.09,0-.26.08-.29.03-.02-.04-.2-.03-.3.02-.04.02-.1.02-.13,0-.08-.05-.3,0-.59-.01-.26,0-.09.09-.26.01-.12-.06-.3-.04-.43.04-.05.03-.08.03-.12-.03-.05-.06-.06-.06-.11,0-.05.05-.07.05-.11,0-.06-.07-.11-.07-.11,0,0,.08-.09.14-.15.1-.09-.05.06-.12-.17-.09-.23.02-.11-.04-.38-.05-.12,0-.21,0-.21.02,0,.04-.36.02-.47-.03-.13-.05-.21-.03-.21.05,0,.07-.09.08-.15,0-.07-.08-.17-.04-.13-.1.04-.07-.02-.04-.1.04s-.21.09-.2,0c.01-.07-.4,0-.46-.11-.04-.08-.14-.03-.06.02.04.02.02.03-.06.03-.09,0-.1,0-.06.04.1.06-.06.04-.11,0-.08-.08-.16.11-.19.02-.03-.09-.19-.02-.09-.09.11-.07-.11-.05-.11.12,0,.14-.26-.15-.32,0-.03.08-.15-.05-.12-.09.03-.05-.12.06-.2.03-.03-.01-.06,0-.08.02-.03.05-.18.02-.2-.03-.02-.05-.12-.06-.12-.01,0,.02-.08.03-.18.03-.35-.01-.18.15-.45.02-.26-.12-.21.02-.47-.02-.07,0-.13,0-.13.02,0,.05-.08.04-.14-.02-.08-.08-.17,0-.28-.06-.06-.04-.09-.04-.15.02-.08.07-.37.11-.36.04,0-.05-.45-.07-.52-.02-.04.02-.08.02-.13,0-.36-.19-.36.13-.44,0-.05-.08-.16.02-.29-.07-.14-.09-.06.03-.26.03-.2,0-.29.01-.41-.02-.14-.04-.23-.01-.23-.07,0-.02-.02-.01-.04.02-.03.06-.05.06-.1.02-.03-.03-.05-.03-.04,0,.05.08-1.25-.04-1.13,0,.06.02.07.12-.02.04-.09-.08-.28-.13-.28-.07,0,.07.11-.03.11.06,0,.08-.24.07-.21.01.04-.06-.03,0-.19-.04-.14-.04-.22,0-.19.07.02.05,0,.05-.04.04-.1-.04-.18-.02-.08-.06.1-.04-.59-.06-.78.03-.12.05-.14.05-.24,0-.16-.09-.12.03-.18,0-.06-.04-.51-.06-.49-.03.03.05-.03.08-.09.04-.03-.02-.1-.02-.16,0-.16.04-.06-.02-.19-.05-.11-.03-.08.05-.04.05.02,0,.04.03.04.06,0,.18-.23-.18-.31-.06-.03.04-.04.04-.06,0-.03-.07-.12-.06-.14.01-.02.06-.03.06-.09,0-.08-.07-.14-.08-.1-.02.04.06-.09.09-.15.04-.04-.04-.65-.11-.65.01,0,.13-.25.11-.25,0,0-.03-.02-.04-.04-.03-.07.04-.49.04-.49,0,0-.06-.04.08-.13.04-.03-.01-.07,0-.09.04-.03.05-.04.05-.09,0-.17-.17-.12.05-.18.05-.02,0-.03-.02-.02-.04.05-.08-.3.18-.23.02.02-.05-.04-.05-.41-.04-.45.01-.53.03-.5.11.03.09-.15.2-.08.28.09.11-.13.2-.09.05.02-.06,0-.07-.05-.05-.1.04.02.01,0,.14-.01.05,0,.07,0,.06.05-.05.18.24.14.29-.14.14.17.17.02.28-.11.08-.02.32.04.38.03.03.05.06.03.06s-.01.02,0,.05c.04.07,0,.39.05.43.08.05-.13.14-.05.22.07.07-.06.16,0,.2.03.02.1.28.09.34-.02.07.13.14.02.14-.06,0-.09.1-.03.13.04.03.05.66.13.73.04.04-.11.2-.04.28.08.08.05.37.16.46.06.05.06.6,0,.59-.06-.01-.02.09.05.12.07.03.08.13,0,.06-.12-.1.03.06,0,.15-.03.07.06,0,.04.16-.01.07,0,.11.03.11.03,0,.03.02,0,.07-.06.1.03.22-.03.18-.05-.03-.07.17-.02.09.08-.12.14.59.05.63-.09.03-.02.48,0,.51.02.03,0,.04-.04.04-.06,0-.06,0-.01.04.03.02.04.04.01.04-.05,0-.02.19.03.11.06-.09-.05.14.06.22.04.03.05.05.02.03-.03-.01-.05,0-.05.04,0,.06,0,.06-.04.01-.04-.07-.06-.04.02.1.04.06.05.11.02.14-.05.06-.03.56.03.56.04,0,.04.2,0,.25-.03.04-.02.08.02.15.12.19-.06,0-.06.19,0,.14-.13.09-.05.12.05.02.17.17.06.14-.06-.02-.07.02-.07.23,0,.21,0,.24.04.19.06-.08.18-.03.06.05-.07.05-.07.06-.03.13.06.09.04.26-.04.26s-.06.09-.02.06c.04-.03.05.1-.02.08-.07-.03-.07.05,0,.05.08,0,.07.18,0,.25-.07.07-.08.24-.02.24.02,0,.03.02.02.03-.03.05.06.03.03.15-.01.05-.03.08-.05.07-.05-.03-.04.15.02.23.09.13.03.17.12.24.06.05.05.05,0,.1-.06.04-.06.06-.02.14.05.1.04.38-.01.42-.08.05,0,.42.11.5.07.05-.12.12,0,.19.09.05,0,.07.02.25.01.2-.09.17-.05.35.02.1.02.12-.03.09-.1-.05.19.14.09.26-.05.06-.08.41-.04.38.05-.03.04.04,0,.09-.05.05-.02.17.05.15.11-.02-.02.31.34.34.3.02.42.15.4.05-.02-.08.17,0,.28-.14.09-.12.04-.02.22.02.14.03.13,0,.19-.15.09.14.08.16.23.13.07-.02.15-.05.16-.07.04-.06.17-.03.17.05,0,.1.16,0,.15-.04-.01-.05.46,0,.61-.05.17-.05.17.12.22.04.05-.08.33.09.44,0,.1-.09.24.07.32-.01s.18.07.28,0c.06-.04.35-.04.32,0-.03.05.59.06.64,0,.04-.04.19,0,.16.04-.01.02,0,.02.04.01.04-.01.06,0,.06.04s.02.05.06.04c.08-.03-.01-.07.1-.1.13-.03,0,.05.45.07.35,0,.33,0,.46-.15-.01.03-.08.16-.08.18,0,.03.46,0,.46.03,0,.03.08.05.08-.03s.08,0,.08-.05c0-.12.23.14.37.03.1-.08-.05.17.05.04.08-.09.39-.05.41-.11.01-.04.14-.07.11.04-.03.11.03.13.11.03.04-.05.1-.08.13-.07.12.02.05-.12.24.02.23.17.05-.03.41,0,.15.01.2,0,.24-.05.03-.05.06-.05.07-.02.04.06.19.05.16,0-.03-.05.1-.02.1-.08s.09.08.19.08c.13,0,.08.12.19.02.1-.09.34-.06.32-.1-.02-.03.1-.08.1-.03,0,.06.19.09.29.04.07-.04.1-.04.15,0,.07.06.51.06.58,0,.06-.05.21-.02.21.05,0,.07.08-.05.14-.04.06.02.21-.09.18-.13-.06-.1.26.24.26.07,0-.03.05-.05.12-.05.19,0,.35-.08.26-.02-.07.05-.02.13.08,0,.09-.12.15-.06.06.02-.18.18.17,0,.18,0,.17-.04.63-.05.7-.05.39,0,.48.09.48.05,0-.04.24-.03.26-.08.02-.04.18-.06.08,0-.05.03-.05.04,0,.09.04.04.05.04.03,0-.04-.08.09-.02.09-.08,0-.03.25-.08.21,0-.02.04-.02.04.03,0,.08-.06.54-.05.56.01.03.08.1-.07.32-.07.67-.01.68.02.68-.1s.03-.11.13-.02c.07.06.38.1.35.04-.03-.04.11,0,.18-.09.05-.05.05-.05.08.02.06.17.8,0,.94.13.04.03.05.03.03,0-.04-.07.05-.11.1-.05.06.09.02-.04.16-.04s.18-.13.18-.05c0,.07.29.02.44.09.08.04.12.03.21-.02.06-.04.11-.05.11-.03,0,.05.08-.01.25,0,.25.02.81.04.86.07.08.05.53.02.63-.04.06-.04.12-.05.16-.03.1.05.55.07.54.07.26.02.29.02.34-.05.05-.07.15-.07.1,0-.03.05.25.03.69.02.34,0,.52.12.67-.03.05-.05.08-.07.06-.04-.05.08.12.14.27.09.21-.07.08.04.37.02.26-.01.08.09.27,0,.13-.06.14-.06.22.02.1.1.13.1.16.02.03-.07.17-.04.22.04.02.03.03.03.03,0,0-.1.21-.01.07.04-.05.02.16.03.13-.04-.02-.05.07-.07.12-.02.03.03.23.05.42.06.23,0,.43-.1.41-.02-.02.08.19-.04.23,0,.04.04.1-.11.2-.01.08.08.25.08.22,0-.02-.05-.01-.06.03-.03.06.04.3.04.39,0,.05-.02.07,0,.07.03,0,.1.17.04.2.09,0,.02.01,0,0-.02-.02-.06.08-.09.14-.04.04.03.04.03.02,0-.02-.04,0-.04.1-.02.19.04.2.1.33.03.17-.09.38.13.46.05.06-.06.2.07.2.01,0-.08.3-.09.43.09.04.06,0-.04.1-.07.12-.03.22-.09.19-.04-.03.05.17.09.22.05.02-.02.07-.02.12,0,.1.04,1,.07,1.07,0,.03-.03.06-.03.09,0,.04.03.38.12.41-.02.02-.08.02-.08.08,0,.12.16.28-.11.39.03.05.07.13.08.13.03,0-.04.25-.04.4-.04.13,0,0,.06.41.06.17,0,.3.01.3.04,0,.02.01.02.02,0,.03-.06.06,0,.27-.05.28-.08.11.1.44.05.26-.04.36-.04.35.02,0,.03.01.04.04.03.09-.03.25.11.19.02-.03-.06.14-.01.18.04.01.02.04,0,.07-.06.05-.11.13-.13.11-.03,0,.04,0,.06.03.06.12-.02.4-.07.4-.02,0,.06.07-.02.39-.02.26,0,.19-.05.39-.05.24,0,.14.09.23.06.08-.03.06.05.18.02.17-.03.12.14.26.05.04-.03.07-.07.07-.09,0-.07.17-.06.25.01.09.09.03-.02.12-.02.07,0,.04.06,0,.17.15-.16.16-.18.22-.12.09.09.14-.03.36,0,.08.01.11,0,.1-.02-.02-.02,0-.04.06-.04.07,0,.08,0,.03-.04-.04-.03-.04-.04,0-.04.07,0,.12.19.17.19s-.03-.08.02-.08c.07,0,0,.11.19.02.08-.04.14-.05.15-.03.04.06.19.09.21.05.03-.06-.08-.03-.04-.06.01-.01.05,0,.08.02.06.05.72.07.75.06.15-.06.53-.08.63-.02.09.05.28.05.31,0,.03-.05.12.04.08-.02-.04-.06.05-.1.05-.05s.03,0,.14.07c.15.09.35-.06.51-.02.16.04.09-.13.24-.03.14.09.64,0,.64.07,0,.06.31,0,.39-.07.04-.03.07-.04.07-.02,0,.06.16.09.2.04.04-.07.15-.06.24.02.05.05.09.06.14.03.09-.05.12-.05.09.01-.02.03,0,.02.05-.02.17-.15.62.11.69,0,.04-.08.35-.07.39-.13.04-.06.21.06.47.05.26-.02.08.07.67.05.32-.01.41-.03.41-.07,0-.08.12-.09.19-.02.03.03.05.06.04.07-.05.05.38-.07.42-.01.03.05.18.01.18-.04,0-.07.23.05.23-.05,0-.14.17.03.13.07-.03.03.15,0,.15,0,0-.04.2-.03.24,0,.04.03.05.03.03,0-.04-.06.16-.08.17-.05.02.04.41.09.41.05,0-.04.26-.03.38.01.11.05.31.02.23-.03-.09-.06.15-.18.09.05-.03.11.07.03.05-.01-.06-.1.71.01.71-.07,0-.05.16-.06.21,0,.09.09,1.55,0,1.71-.09.2-.11.13.11.31.02.12-.06.22-.02.36-.06.05-.01.1,0,.13.03.06.07.18.07.2,0,.02-.04.05-.05.09-.03.11.05.35.05.34,0-.01-.05.15-.09.11-.03-.03.05.04.04.2.06.19.02.09-.06.16-.06.02,0,.03.02.01.04-.02.03,0,.04.04.02.1-.04.19-.01.16-.06-.08-.12.21.09.15,0-.05-.08.09.03.2-.03.12-.07.22.09.28,0,.06-.1.11.07.17.01.05-.05.17.13.12,0-.05-.13.05.04.21-.02.15-.06,0,.05.41.04.35-.01.35.06.38,0,.02-.03.04-.03.08,0,.11.1-.06-.12.08-.06.13.05.4.05.38,0-.03-.09.31.04.49-.08.1-.07.11-.07.17.02.04.05.08.11.09.13.03.07.05-.03.14-.03s-.03-.08.2-.09c.27-.01.47-.04.63.01.16.05.39.03.39-.04s.09-.07.17,0c.07.07.36.06.41-.01.02-.02.06-.03.09-.02.1.04-.02.09.12.09.2,0,.02-.14.27-.04.17.06.31.04.45.04.12,0,.2.09.23-.03.04-.16.16.06.27-.04.07-.06.04,0,.28.09.35.13.14-.13.4-.03.19.07.09-.03.21-.03.03,0,.05.02.04.04-.03.05.13.1.17.05.02-.04.38-.11.42-.01.04.1.69.13.69.08,0-.07.13.06.17,0,.03-.05.29.04.32.1.01.04.03.04.08,0,.07-.07.2-.08.2-.01,0,.07.29-.02.33.04.03.05.44,0,.58-.01.05.06.22.27.19.18-.02-.06-.01-.07.04-.04.09.04.43.05.45,0,.04-.07.16.11.36-.02.05-.03.08-.05.07-.03-.05.05.17.13.23.08.03-.02.05-.02.05,0s.03,0,.08-.04c.11-.1.04.02.14.02.06,0,.06,0,0-.04-.05-.03-.05-.04,0-.04.11,0,.07.16.18-.06.1-.2.02-.21.09-.21.08,0,.13-.1.07-.06-.06.04-.05-.13-.01-.13.06,0,.08-.17.02-.25-.04-.06-.05-.11-.01-.23.05-.19.07-.22.11-.16.02.03.03,0,.02-.06-.05-.48-.14-.28-.17-.43-.03-.18.2.06.11-.12-.02-.04-.03-.1-.02-.13.04-.06.05-.23.02-.28-.05-.08.04-.24-.06-.2-.07.03-.13-.09-.03-.11.13-.03,0-.22.08-.26.06-.04-.04-.12.06-.16.05-.02.05-.03.01-.06-.04-.02-.04-.03,0-.03.07,0,.05-.12.02-.11-.21.03-.18-.12-.12-.12s-.01-.01.04-.14c.07-.17-.11-.18,0-.24.09-.05.04.04.12.04.02,0,0-.04-.06-.1-.13-.12-.12-.11-.03-.21.06-.06.07-.09.04-.13-.05-.07-.12-.37-.08-.37.05,0-.04-.11.04-.11.09,0,.01-.29.13-.35.13-.07-.09-.06-.05-.21.04-.15-.15-.14-.03-.23.06-.04.06-.05,0-.07-.08-.03-.07-.1.01-.13.15-.04-.09-.25.05-.32.08-.05.08-.17,0-.22-.06-.04-.06-.04,0-.02.11.03.03-.07.11-.1.03-.01.02-.02-.02-.02-.06,0-.07-.09-.02-.14.04-.04.03-.1,0-.07-.05.03-.07-.06-.03-.15.02-.04.02-.08,0-.1-.03-.02-.04-.25-.02-.31.04-.09.01-.25-.04-.28-.05-.03-.06-.06-.03-.1.05-.08,0-.61.05-.68.05-.06.07-.36.03-.36s-.06-.34.01-.34c.04,0,.03,0,0-.03-.04-.02-.03-.04.03-.05.12-.03.06-.26.04-.26-.06,0-.07-.13-.01-.2ZM.88,5.68s-.03-.14,0-.07c.01.03,0,.06,0,.07ZM.93,6c-.05,0-.05-.09,0-.06.06.03.04.06,0,.06ZM1.1,7.6s-.08-.08-.02-.08.04.08.02.08ZM62.38,1.87s.05.06,0,.1c-.05.03-.05-.1,0-.1ZM42.66.99c.05,0,.05.08,0,.08s-.05-.08,0-.08ZM33.85,1.95s-.05-.02-.04-.04c.04-.06.17.04.04.04ZM27.11,1.39c.06.04-.04.16-.04.04,0-.03.02-.05.04-.04ZM5.24,1.6c.05,0,.04.08.02.08s-.08-.08-.02-.08ZM1.69,8.48c0-.06.08,0,.08.02s-.08.03-.08-.02ZM8.61,15.74c-.05,0-.05-.09,0-.06.06.03.04.06,0,.06ZM30.64,16.24s-.13.07-.06-.02c.05-.06.1-.05.06.02ZM35.78,15.78c-.05,0-.05-.08,0-.08s.05.08,0,.08ZM45.46,15.74c-.12,0,.05-.19.05-.06,0,.03-.02.06-.05.06ZM48.28,15.7c-.11,0-.25-.13-.02-.03.05.02.06.03.02.03ZM55.81,16.12s.22-.06.28-.03c.12.07-.28.05-.28.03ZM56.71,16.12c-.08,0-.08-.08,0-.05.08.03.07.05,0,.05ZM57.61,16.02s.03,0,.02.01c-.01.02,0,.05.02.06.03.01.03.02,0,.04-.06.03-.1-.08-.04-.11ZM58.82,16.08s-.14-.03-.14-.08.15.04.15.06c0,0,0,.02,0,.01ZM60.16,16.05c-.08-.05.03-.05.06,0,.03.05.02.05-.06,0ZM66.34,10.18s-.05,0-.02-.05c.09-.17.11.02.02.05ZM66.44,7.55c-.06-.04-.03.07-.08.03-.05-.03-.05.05,0,.06.07.02-.09.26.01.61.05.19-.1.05-.06.5.03.4.09.27.11.41.03.19-.15-.1-.13.17.01.2.08.08.1.2.03.17-.12-.06-.13.18,0,.19.02.06.1.16.04.04.04.07,0,.1-.03.03-.04.03-.04,0,0-.07-.12.08-.07.14.05.06-.07.16-.03.12.1-.08.15.25.08.46,0,.03,0,.05.02.05.06,0-.02.11.04.18.07.08-.07.06-.09,0-.03-.06,0,.28-.04.36-.02.03-.02.04,0,.03.03-.02.14.05.14.09,0,.02-.15.18-.15.23,0,.02.02.02.04-.02.04-.07.05-.06.05.15,0,.1,0,.15-.04.14-.02,0-.05.01-.05.05,0,.12-.05.34,0,.44.09.16-.01.47-.07.49-.03.01-.05,0-.03-.02.01-.02,0-.04-.02-.04-.11,0,.05.28.08.18.02-.06.09.14.01.11-.09-.03-.16.14-.11-.04.04-.15-.04-.1-.05.09-.02.28.2.15.08.33-.09.14.03.07,0,.23-.03.15.03.12.05.25,0,.04,0,.04-.04,0-.06-.08-.11-.04-.06.05.05.1-.04.17.03.13.07-.05-.01.03.06.17.09.18.05.62-.05.56-.03-.02-.06.14.01.11.06-.02.08,0,.11.15.02.09.01.11-.05.11-.05,0-.07.02-.05.04.04.07-.06.37-.15.43-.08.05-.21.05-.52.02-.21-.02-.29.07-.33,0-.04-.06-.17.01-.17-.03,0-.02-.23-.2-.32-.12-.04.03-.06.04-.06,0,0-.06-.1-.05-.13.02-.04.11-.15-.05-.23-.03-.05.02-.12-.09-.17-.05-.07.04-.18-.11-.22-.03-.03.04-.28.13-.28.02,0-.1-.2-.09-.17-.05.03.05-.08.05-.11,0-.04-.07-.13.08-.24.01-.07-.04-.35-.04-.43,0-.02.01-.07,0-.1-.02-.15-.12-.43-.16-.43-.06,0,.02-.04.03-.09.03-.14-.02-.15.07-.24-.02-.08-.08-.41-.08-.49,0-.04.03-.07.03-.13,0-.14-.09-.01-.1-.29-.1-.33,0-.19.15-.32.08-.06-.03-.28-.03-.39,0-.01,0-.07-.02-.13-.06-.2-.13-.11.05-.35.05-.15,0-.08.12-.15.03-.06-.08-.34-.12-.31-.04.03.07-.04.07-.12,0-.06-.06-.14-.08-.14-.03,0,.05-.5.05-.56,0-.07-.06-.31-.06-.36,0-.03.04-.05.04-.09,0-.04-.03-.05-.03-.03.01.04.12-.27.09-.4.02-.51-.26-.26.3-.53.05-.09-.08-.16-.1-.16-.04,0,.05-.19.08-.22.03-.04-.07-.33.07-.59,0-.17-.04-.18.1-.21.01-.03-.08-.15-.06-.18.03-.01.06-.04.07-.09.05-.07-.03-.07-.03,0-.04.13-.03.07-.08-.09-.08-.24,0-.09.1-.25.04-.15-.06-.18.05-.31,0-.06-.02-.1-.02-.12.03-.03.05-.04.05-.09,0-.08-.08-.05,0-.27-.02-.24-.02-.28.14-.3.07,0-.03-.04-.02-.08.02-.07.07-.12.08-.08.01.02-.03,0-.03-.04,0-.06.05-.06.04-.06,0,0-.1-.57,0-.61,0-.34.08-.22-.03-.33-.02-.15,0-.22-.09-.25.03-.03.1-.1.1-.32-.02-.1-.05-.16-.07-.13-.04.14.17-.39.01-.48.14-.08.1-.09-.04-.33-.04-.18,0-.15-.08-.23-.08-.07,0-.07.1,0,.13.03,0,.03.03.02.05-.05.06-.18-.1-.28-.02-.1.08-.25-.03-.25.05,0,.03-.02.02-.06-.03-.04-.05-.1-.07-.2-.07-.2.01-.55.01-.52.05.02.04-.06.09-.06.04,0-.06-.11-.02-.11-.08,0-.07-.39.19-.51.03-.03-.04-.03-.04-.02.01.03.09-.05.13-.1.06-.07-.08-1.03-.16-.99-.08.03.07-.04.09-.15.04-.16-.08-.41-.1-.45-.03-.08.13-.19-.1-.27.04-.02.04-.04.05-.04.02,0-.04-.02-.04-.06,0-.06.06-.17.05-.17-.02s-.5.04-.5-.07c0-.04-.01-.04-.03-.02-.05.07-.2.1-.26.05-.04-.04-.06-.03-.06.02,0,.06,0,.06-.1,0-.06-.04-.09-.04-.07-.02.02.04,0,.04-.05.03-.05-.01-.07,0-.06.01.03.05-.17.04-.11,0,.21-.13-.14-.18-.14-.11,0,.02-.06.03-.12.02-.14-.02-.33.03-.33.09s-.09-.05-.21,0c-.17.06-.37.08-.34.04.02-.03,0-.04-.05-.02-.11.04-.45-.02-.38-.06.03-.02.04-.03,0-.03-.1,0-.2.23-.5.17-.21-.04-.76-.04-.81-.08-.05-.03-.28.07-.28.01,0-.04-.15-.05-.15.02,0,.06-.24.08-.22-.02.02-.09-.05-.05-.05.04,0,.05,0,.06-.04,0-.04-.06-.35-.07-.43-.01-.07.04-.15.03-.17.09-.02.07-.08.05-.07-.03,0-.08-.16-.11-.27-.05-.15.08-.52-.14-.93,0-.17.06-.18.05-.29-.03-.09-.07-.11-.08-.15-.02-.05.06-.13.08-.13.03,0-.03-.18-.03-.21,0-.04.04-.22-.22-.18-.12.02.05,0,.07-.1.07-.18,0-.03.03-.16.09-.07.04-.1.03-.15-.03-.12-.14-.05.04-.29-.04-.11-.04-.15-.04-.19,0-.06.06-.11.07-.14.01-.04-.06-.19.02-.23-.03-.04-.07-.14-.04-.12.03.02.06.02.06-.03,0-.06-.07-.28-.09-.3-.02-.02.06-.23.03-.2.08.03.06-.1.04-.2-.03-.18-.12-.07.07-.32-.04-.28-.12-.38,0-.66.01-.14,0-.18,0-.16-.04.05-.12-.28.1-.32,0-.05-.12,0,.07-.33.03-.27-.04-.23-.1-.27-.09-.08.01-.1,0-.08-.04.02-.03,0-.03-.05,0-.12.06-.6.12-.65.08-.03-.02-.18-.04-.34-.05-.34,0-.29-.08-.34-.02-.1.14-.6-.16-.73.03-.04.05-.06.06-.08.04-.04-.06-.1.02-.1-.04s-.06.02-.12-.02c-.07-.05-.26-.06-.26-.01,0,.05-.13.05-.19,0-.04-.04-.06-.03-.1.02-.05.07-.17.09-.17.03,0-.06-.15.02-.15-.03,0-.04-.35-.01-.41.04-.05.04-.14,0-.11-.05.04-.06-.36-.06-.34-.02.03.05-.3-.05-.39.02-.04.03-.07.03-.11-.01-.07-.07-.18-.08-.18-.02s-.18-.01-.21.04c-.04.06-.22-.19-.3-.12-.08.07-.44.08-.53.02-.05-.04-.14-.05-.3-.03-.42.04-.37-.13-.55-.01-.08.05-.1.05-.1,0,0-.1-.34.01-.34-.07,0-.03-.02-.02-.04.01-.03.05-.04.05-.04-.01,0-.16-.4.09-.21.03.2-.07-.26.17-.19,0,.02-.05,0-.06-.04-.04-.1.04-.17-.1-.17-.01,0,.04,0,.04-.04,0-.02-.04-.04-.04-.04,0,0,.07-.09.06-.06.02.03-.05-.43-.04-.23.04.08.03-.23-.05-.19.02.02.03,0,.04-.03.02-.07-.03-.08-.09-.01-.09.03,0,.01-.02-.03-.04-.06-.02-.1-.01-.16.06-.11.12-.02.01-.36.01-.39,0-.34-.11-.46-.02-.08.06-.23.04-.23-.02,0-.05-.18-.04-.21,0-.03.06-.23.05-.38-.02-.13-.05-.13-.05-.21.05-.16.21-.11-.16-.39-.01-.15.08,0-.04-.63-.03-.15,0-.72.03-.86-.05-.05-.03-.16.02-.13.06.02.04-.12.03-.16-.01-.04-.04-.14.06-.22.03-.04-.02-.06,0-.06.04,0,.15-.13-.21-.4-.08-.1.05-.56.06-.56.02,0-.02-.03-.03-.08-.02-.04.01-.13,0-.19-.02-.22-.08-.1.08-.3.06-.47-.03-.44-.17-.47-.08-.03.1-.17-.09-.27,0-.08.08-.19.11-.22.06-.04-.06-.3-.09-.3-.04,0,.03-.02.02-.06-.02-.09-.09-.22-.08-.2.02.04.17-.11-.11-.44.04-.07.03-.12.03-.23-.04-.08-.04-.13-.06-.12-.04.05.08-.17-.03-.17.03,0,.07-.13.08-.19.02-.09-.08-.12,0-.12-.05,0-.04-.02-.04-.08,0-.14.07-.12-.09-.16,0-.04.06-.18-.02-.11.03.05.04.03.16-.1.09-.13-.07-.17.03-.27-.06-.1-.09-.03.02-.14.02-.11,0,.03.05.03.13,0,.02-.02.01-.05-.02-.06-.07-.21-.1-.3-.05-.07.04-.32.03-.35-.03-.04-.07,0,.09-.17.06-.26-.04-1.03,0-1.3.08-.36.1-.19-.07-.44-.03-.24.04-.45.04-.45.11,0,.07-.03.07-.1,0-.06-.06-.28-.08-.28-.02s-.23.07-.3.02c-.05-.03-.08-.04-.11,0-.08.07-.39-.04-.56.05-.17.09-.2-.08-.74.04-.18.04-.01-.21-.14-.1-.05.04-.06.04-.06,0,0-.04,0-.04-.03,0-.05.08-.6.1-.48.11.08,0,.08,0,0,.06-.07.05-.08.05-.13-.02-.15-.22-.24.15-.43.01-.16-.11-.04.04-.33,0-.31-.04-.36.12-.46,0-.03-.04-.04-.05-.03-.02.02.03,0,.05-.05.05-.13,0-.1.13-.18.02-.03-.04-.06-.05-.07-.02-.03.05-.1.05-.1,0,0-.06.08.03.08-.03,0-.05-.05-.05-.11,0-.04.04-.05.03-.02-.05.06-.2-.04.09-.15,0-.09-.08-.06.03-.17.03-.06,0-.06,0,0-.04.03-.02.04-.04.01-.04-.06,0-.08.08-.13.08-.02,0-.03-.02-.01-.04.09-.14-.51.25-.42.02.03-.09-.04-.06-.09.04-.08.15-.09.02-.29.02-.04,0-.05-.02-.04-.06.02-.05.01-.05-.03-.02-.08.07-.12-.02-.15.04-.04.06-.12-.04-.19.06-.11.15-.05-.09-.36-.04-.3.05-.36-.13-.43,0-.05.09-.11.02-.09,0,.03-.05-.24-.05-.33,0-.06.03-.07.03-.05,0,.04-.06-.1-.05-.08,0,.04.06-.76.06-.92-.03-.12-.07-.47.08-1.22,0-.4-.04-.21.07-.53,0-.36-.07-.23.1-.39,0-.03-.02-.06,0-.08.03-.03.05-.04.06-.06,0-.03-.08-.16-.05-.16.03,0,.06-.03.06-.21,0-.07-.03-.01.07-.14.07-.15,0-.14.11-.21.02-.09-.11-.43-.1-.29-.31.04-.05.05-.1.02-.12-.05-.03.04-.3-.01-.27-.09.05.02-.63-.02-.63-.07,0-.09-.33-.14-.43-.02-.04-.02-.08,0-.1.07-.05.1-.52.05-.63-.07-.14.26-.1.03-.16-.1-.03-.1-.03-.04-.1.13-.14-.09-.04-.1-.12,0-.06-.01-.11.05-.1.11.02-.05-.58.05-.78.03-.06.05-.12.03-.14-.01-.02,0-.05.02-.06.06-.03.05-.11,0-.07-.04.02-.04.02,0-.02.07-.07.06-.15.01-.08-.05.07-.11-.02,0-.05.09-.03.1-.09.02-.12-.03-.01-.04-.04-.03-.07.06-.09.09-.41.04-.41-.02,0-.03.02-.03.05,0,.06-.1,0-.05-.11.06-.11-.03-.19.05-.15.04.02.04,0,0-.04-.15-.18.07-.18-.05-.32-.08-.08-.08-.17,0-.14.05.02.05,0,.01-.35,0-.03-.02-.05-.04-.05-.05,0-.04-.22,0-.25.06-.04-.03-.42.04-.32.07.11.04,0-.04-.14-.16-.28.09-.1.02-.35-.12-.43-.04-.14-.03-.64,0-.21.02-.35.06-.39.04-.05.04-.06,0-.03-.04.02-.05.02-.03-.03.01-.04,0-.06,0-.04-.03.02-.08-.06-.08-.12,0-.01-.02-.04-.05-.06-.12-.08.25.05.06-.2-.06-.09-.07-.3-.02-.4.03-.05.02-.11,0-.18-.06-.15-.04-.7-.09-.77-.1-.15-.04-.77-.19-1.14-.15-.36.06-.16.06-.32,0-.11-.11-.08-.11-.21,0-.05-.02-.1-.04-.13-.05-.05,0-.14.05-.1.06.04.04-.09-.04-.25-.05-.1-.06-.16-.03-.19.08-.08-.11-.23-.02-.26.21-.07-.27-.58-.09-.71.05-.03.05-.06.02-.08-.07-.04-.05-.17.03-.19.04-.01.08-.04.08-.06,0-.09.53.06.47.13-.02.02,0,.02.03,0,.12-.04.08-.19.14-.1.07.11.14-.13.24-.05.07.06.4.02.51-.06.09-.06.1-.06.15,0,.1.13.42-.05.64.04.05.02.07.01.07-.05,0-.07.02-.08.15-.07.25.01.23.14.32.07.08-.06.06.03.19-.06.12-.08.18-.08.15,0-.04.09.39.12.35.06-.01-.02,0-.04.04-.04.09,0,0,.08.06.08.02,0,.04.03.04.06,0,.05.02.04.09-.03.13-.14.49-.1.49-.07,0,.06.12.04.14-.02.03-.09,0,.02.25.05.15.02.17.01.2-.07.02-.05.04-.07.05-.04.01.03.04.04.06.03.08-.05.11.13.21,0,.03-.04.06-.05.06-.03,0,.06.13.05.18-.02.08-.1.16.11.23.11.11,0,.11,0,.06.04-.05.03-.05.04.01.02.09-.03.1,0,.1-.08,0-.08.06-.11.12-.05.19.18.42-.1.36.04-.03.09.08.03.1-.03.03-.07.1-.07.1,0s.11.11.11.06c0-.05.13-.02.1-.07-.04-.06.1-.08.15-.03.06.06.25.04.25-.03,0-.05.06,0,.06.06,0,.02.03.04.05.03.11-.03-.13.15.01.1.1-.04.15-.01.12-.07-.06-.09.29.04.29-.09,0-.08.08-.07.08-.02s.28.05.25,0c-.04-.06.02-.05.1.02.09.08.42.12.42.04s.14-.11.2-.05c.07.07.2.09.27.05.1-.06.1.05.26.04.25-.01.38.11.46-.03.07-.1.2-.1.11-.04-.11.07.07-.04.21.05.06.04.09.04.08.02-.01-.06.11-.08.16-.02.08.09.24-.04.31,0,.02.01.06,0,.09-.02.04-.03.08-.03.16,0,.52.2.6.01.66.05.06.04,0-.08.07-.07.33.03-.03.12.41.11.21,0,.25-.01.25-.07,0-.09.13-.04.08.02-.03.03,0,.04.06.04.17,0,.03-.23.14-.08.08.11.2,0,.24.06.04.06.12.04.12-.03,0-.04.02-.07.07-.07.12,0,0,.07.16.11.12.03.36-.08.36-.16,0-.03.02-.02.03.03.06.21.85-.01,1.01.21.02.03.06,0,.11-.05.07-.09.19-.09.19,0,0,.05.11.05.11,0s.3-.05.32,0c.04.07.34.09.46.03.08-.04.13-.05.19-.02.05.03.07.03.05,0-.03-.05.04-.06.07.02.03.08.14.07.12,0-.03-.08.16-.1.25-.03.04.03.11.05.14.03.12-.04.19.11.26,0,.06-.08.21.03.19.06-.06.06.22-.02.22-.11,0-.12.07.06.16,0,.07-.05.26-.08.26-.04,0,.03.1.17.13.09.02-.05.43-.06.58-.01.11.03.3-.05.45,0,.17.06.15-.04.38-.03.11,0,.13,0,.1-.04-.06-.07.08-.09.08-.06,0,.04.12.04.18,0,.08-.06.22.11.26.05.04-.07.38-.09.5-.03.12.06.19.05.15-.02-.02-.03,0-.03.05-.01.14.06.26.07.23.03-.04-.07.15-.02.19-.09.02-.03.04-.02.06.04.03.08.19.12.19.05,0-.06.59.02.55-.05-.05-.08.17.05.22-.04.05-.08.17.04.16.08,0,.04.11.01.14-.04.03-.04.27-.05.36-.01.05.02.07.02.05-.01-.04-.06.15-.07.12,0-.03.07.13.03.18-.04.05-.09.22.07.25-.01.05-.14.34.16.44.06.06-.07.18,0,.45-.08.19-.06.2-.06.25,0,.07.09.15.01.18.05.05.05.19.03.24-.04.07-.09.27-.04.21.06-.01.02,0,.02.04-.01.05-.04.07-.05.09,0,.01.03.04.04.09,0,.13-.07.31.06.31-.05,0-.07.1-.08.19-.03.11.07.08-.14.21-.02.04.04.06.05.06.03,0-.06.15.16.15,0,0-.06,0-.06.04,0s.05.03.05-.04c0-.01.09-.15.12-.04.04.13.38.01.42.08.04.06.12.03.15-.04.04-.11.1,0,.19-.08.06-.05.19-.02.15.04-.03.04-.03.04.34.05.18,0,.27,0,.28-.04.02-.06.37-.07.28,0-.09.06.11.06.11-.02,0-.06.1-.08.13-.02.03.05.3.05.35,0,.07-.07.24-.06.29,0,.05.07.06.07.22,0,.44-.16.2.02.44.02.27,0,.31.13.36,0,.05-.13.03.03.18-.03.12-.05.18-.05.15,0-.01.02,0,.04.03.04.09,0,.22.06.22,0s-.15-.03-.15-.08c0-.05.27-.05.27,0,0,.05.12.02.18.08.03.03.05.03.05,0,0-.02.03-.04.07-.04.16,0,.69-.04.8,0,.17.06.04-.17.21-.13.14.03.21.13.17.06-.09-.14.41.1.49.08.09-.02.25-.04.25-.11,0-.14.21.08.27-.02.06-.1.35.15.44.02.05-.07.05-.07.05,0s0,.06.06,0c.1-.1.86,0,.9,0,.09.02.11,0,.11-.06,0-.11.17-.1.14-.02-.01.04,0,.06.04.06.11,0,.24.07.24,0s-.08.02-.08-.04c0-.05.34-.03.34,0,0,.03.15.07.15-.05,0-.22.5.2.6.02.03-.06.04-.06.1,0,.08.08.15.08.12,0-.01-.03,0-.05.02-.04.02.01.04,0,.04-.02,0-.06.13.09.17.13.05-.15.05-.17.14-.12.06.04.08.04.11,0,.02-.03.06-.04.12-.02.09.03.09.03.01.06-.06.02-.05.03.05.03.18,0,.13-.07.24-.07.18,0,.18-.16.3,0,.13.17.13-.03.33.02.05.01.1,0,.11-.02.03-.05.29-.05.29,0,0,.07.17-.04.35.04.09.04.12.04.18-.01.08-.08.5-.11.52-.04.03.07.13.06.15-.03.06-.18.25,0,.23.04-.04.06.02.08.16-.13.41.22.11.09.88.1.66.01.94-.16.94-.03,0,.06,0,.06.09,0,.12-.08.29-.08.34,0,.04.06.05.06.11,0,.08-.08.38-.08.3-.02-.05.03-.04.04.03.04.06,0,.08-.02.07-.06-.03-.09.16-.06.18-.02.04.07.29.02.29.08,0,.04.24,0,.27-.03.01-.02.08-.05.14-.06.11-.02.12-.02.11.09,0,.1,0,.11.06.07.1-.06.1-.19.15-.16.05.03-.03.09.03.09.09,0,0-.12.19-.05.32.12,0-.29.3-.06.08.06.11.07.17.03.05-.03.08-.03.09,0,.02.04.23.04.33,0,.11-.04.08.05.2-.03.07-.05.1-.05.17,0,.16.09-.04.02-.04.09,0,.05.12,0,.18-.07.04-.05.07-.05.21,0,.38.13.29.02.41-.05.06-.03.07-.03.07,0-.02.07.29.09.35.02.04-.05.17-.04.14.01,0,.01.02.03.06.03.11,0,.03-.07.17-.07.06,0,.09.02.07.04-.04.07.07.04.12-.03.04-.06.05-.06.12,0,.15.13.71-.03.86.11.04.04.07.06.07.03,0-.06.14,0,.17-.11.03-.1.09-.1.22.03.19.18-.04-.16.2-.06.07.03.69.12.72.02.03-.08.14-.07.11-.02-.04.07.57-.04.61.06.03.07.16.07.19,0,.01-.03,0-.06-.02-.06-.05,0-.02.09-.07.06-.1-.06.1-.23.18-.07.06.11.3,0,.33.07.01.02.04.01.07-.03.06-.07.16-.09.2-.03.06.1.65.11.62.02-.04-.1.12.07.22-.01.03-.03.06-.03.06,0,0,.07.14-.01.13.09,0,.09.06.08.06.01,0-.06.17-.12.23-.08.02.01.04,0,.06-.02.03-.05.14-.05.12,0-.03.05.25.07.29.13.02.03.03.03.03,0,0-.08.15.04.15-.07,0-.08.1-.08.18,0,.12.12.02-.04.32-.07.33-.03,0,.13.29.1.2-.02.16-.06.23-.01.06.05.18.01.15-.04-.03-.05.02-.05.16,0,.17.06.44.06.54.09.06.02.13-.06-.02-.06-.11,0-.11,0-.02-.04.07-.03.1-.02.14.03.05.07.21.09.25.04.04-.05.32-.05.37,0,.07.07.16.06.14,0-.05-.12.29-.02.11.03-.08.02.33.03.41-.03.07-.05.26-.05.3,0,.1.15.25-.01.29.05.04.07.13.04.13-.04,0-.07.01-.07.1-.03.05.02.1.06.1.08,0,.07.07.03.09-.05.04-.16.05.04.28.04.25,0,.43.02.46.05.05.05.09.03.1-.05.01-.07.02-.07.13-.02.07.04.12.05.13.02.02-.05.12-.06.12-.01,0,.02.03.03.07.03.27.02.93.21.93.09,0-.04,0-.07.02-.09.03-.03.23.03.22.08-.01.05.1.11.1.03,0-.09.21,0,.24.03.05.08.06-.08.26,0,.08.03.19.02.19-.01,0-.05.14.05.1-.03-.02-.03,0-.04.03-.02.11.04-.08.17.04.17.26,0,.11-.23.27-.05.08.08.11.09.15.06.04-.03.06-.03.07,0,.02.05.13-.04.15-.12.01-.03.05-.02.12.02.14.09.04.14.1.14s.01-.09.11-.07c.12.02.27-.17.17-.04-.04.05-.04.06.05.06.07,0,.1-.02.1-.07,0-.09.07-.09.16,0,.05.05.08.05.11.02.07-.07.17.13.22.09.01-.01,0-.04-.03-.06-.05-.03-.05-.04,0-.03.11,0,.17.08.3.02.18-.08.15.21.29.07.1-.1.04.02.11.02.06,0-.03-.12.05-.03.09.11.03-.03.2-.04.06,0,.09,0,.08.03-.03.04.02.16.06.16.05,0,.02-.25.07-.21.05.03-.02.1.03.09.05,0,.1.04.4.05.2,0,0,.11.29.41.08.08-.02.2.06.27.12.1.03.28-.03.14-.03-.06.02.19.03.26.01.07.15.13.12.22-.01.03,0,.08.04.1.06.05.08.14.02.1-.06-.04,0,.1.09.2.15.16-.05.12-.05.28,0,.08.17.31.21.27.05-.05-.06.25.08.56.13.28.01.25.12.36.13.13-.02.18.03.24.07.07,0,.48.1.48.07,0,.11.21.07.3-.06.11.08.53-.04.57-.06.02-.05.09.02.16.06.07.12.35.07.33-.02,0-.03,0-.04.02-.05.15.08.07.13.15.02.03.01.03-.02.02Z"/>
  <path d="M1.86,12.95c.03.05.12.01.06-.05-.05-.05-.1-.01-.06.05Z"/>
  <path d="M1.86,7.6s0-.03-.04-.02c-.14.05,0,.08.04.02Z"/>
  <path d="M7.45,15.72s-.05-.01-.07,0c-.07.03.1.03.07,0Z"/>
  <path d="M17.59,1.62c-.05.03-.05.11,0,.08.05-.03.05-.11,0-.08Z"/>
  <path d="M14.84,1.47c-.05-.03-.05.06,0,.06.04,0,.06-.02,0-.06Z"/>
  <path d="M21.26,1.49c-.05,0-.04.08-.02.08s.08-.08.02-.08Z"/>
  <path d="M25.52,2.33s.03-.08-.02-.08,0,.08.02.08Z"/>
  <path d="M63.44,1.09s-.04.09,0,.09.04-.12,0-.09Z"/>
  <path d="M11,1.41s-.08.08-.02.08.04-.08.02-.08Z"/>
  <path d="M46.03.8c-.05,0-.04.08-.02.08s.08-.08.02-.08Z"/>
  <path d="M66.98,13.28c.03-.08-.05-.08-.05,0s.02.08.05,0Z"/>
  <path d="M30,2.08s-.05-.01-.07,0c-.07.03.1.03.07,0Z"/>
  <path d="M57.93,15.28s.08-.08.02-.08-.04.08-.02.08Z"/>
  <path d="M45.49,1.73s0-.09-.04-.09c-.05,0,0,.12.04.09Z"/>
  <path d="M66.04,13.81s0-.06.01-.11c.07-.15-.08.06-.06.1.03.04.07.04.04,0Z"/>
  <path d="M34.39,16.41c-.03.08,0,.07.05,0,.07-.08-.02-.07-.05,0Z"/>
</svg>