<?xml version="1.0" encoding="UTF-8"?>
<svg id="Layer_1" data-name="Layer 1" xmlns="http://www.w3.org/2000/svg" viewBox="0 0 63.2 26.27" fill="#2c2013" preserveAspectRatio="none">
  <path d="M42.02,2.11s-.03.04.02.02c.09-.03.04-.08-.02-.02Z"/>
  <path d="M60.92,5.96s0,.06.02.05c.03-.03-.02-.15-.02-.05Z"/>
  <path d="M60.9,18.59c0-.11-.08-.02-.04.03.04.06.04.05.04-.03Z"/>
  <path d="M41.42,2.12c-.05,0-.04.08-.02.08s.08-.08.02-.08Z"/>
  <path d="M40.39,2.04s.02.06.06,0c.03-.05-.06-.05-.06,0Z"/>
  <path d="M61.03,7.33s0,.06.02.05c.03-.03-.02-.15-.02-.05Z"/>
  <path d="M2.83,16.72c.04.09-.11.17,0,.12.17-.06-.05-.24,0-.12Z"/>
  <path d="M2.13,9.59c-.02-.28-.12.03-.04.11.05.05.05.03.04-.11Z"/>
  <path d="M2.16,11.52s-.08.08-.02.08.04-.08.02-.08Z"/>
  <path d="M26.16,24.73s0,0,0,0c0,0,0,0,0,0Z"/>
  <path d="M61.94,14.72c-.13-.07.03-.06-.04-.21-.08-.17.11-.14.06-.47-.04-.29-.13-.29-.04-.37.08-.08.01-.31.07-.35.05-.03.04-.15-.01-.2-.06-.06-.07-.17-.03-.22.04-.05.1-.38.04-.29-.06.08-.03.19-.08.19-.06,0-.05-.21.02-.26.11-.1-.04-.57,0-.69.12-.29-.14-.43-.01-.5.08-.04.08-.15,0-.12-.08.03-.08-.15,0-.21.07-.05.06-.46-.02-.66-.03-.08-.04-.16-.02-.21.07-.17-.06-.39-.04-.56.02-.17-.1-.07-.1-.14,0-.03.05-.05.12-.04.05,0,.08-.19.03-.23-.08-.05-.03-.39-.09-.44-.04-.04.13-.19.06-.16-.05.03-.09-.11-.05-.16.03-.03.13-.76.02-.72-.08.03-.12-.08-.06-.15.03-.04.03-.05,0-.05-.05,0-.06-.18,0-.21.05-.03-.03-.13.04-.13s-.01-.09,0-.22c.01-.19-.16-.08-.05-.28.05-.1.05-.11,0-.11-.09,0-.12-.08-.05-.12.08-.04.08-.12,0-.1-.06.02-.11-.07-.07-.14.04-.06.04-.23,0-.28-.02-.02,0-.07.02-.11.09-.12-.03-.27.01-.43.02-.07,0-.08-.04-.06-.1.04-.06-.17-.03-.18.05-.02.08-.22.04-.24-.02-.01-.05,0-.06.03-.04.07-.09-.09-.05-.16.06-.11-.12-.46-.05-.48.05-.02.06-.14,0-.1-.04.02-.04.02,0-.02.06-.07.06-.13,0-.1-.07.03-.17-.26-.1-.3.06-.04.04-.11-.02-.08-.11.04.03-.18-.05-.22-.06-.04.04-.15-.06-.19-.08-.03-.03-.12-.14-.18-.11-.06-.02-.15-.07-.15-.07,0,.01-.19-.12-.19-.06,0-.07-.02-.06-.06.01-.04,0-.07-.07-.09-.14-.05-.11-.17-.2-.14-.11.04.02-.09-.09-.18-.05-.04-.06-.04-.02,0,.04.05.03.07-.03.11-.09.06-.05.01-.13-.09-.08-.09,0,0-.08.04-.08.03,0-.02-.05-.12-.02-.04-.04-.05-.04-.02,0,.05-.12.07-.17.02-.04-.04-.11-.04-.19-.04-.11,0,.01-.1-.11-.11-.06,0-.07,0-.03.03.03.02,0,.03-.1.03-.23,0-.24-.11-.24-.02,0,.12-.11-.04-.17.01-.02.02-.02,0,0-.04.02-.06.01-.06-.05-.03-.12.06-.13-.02-.35-.03-.04,0-.06-.03-.05-.06.03-.08-.1-.1-.21-.04-.13.07-.22.07-.13,0,.06-.05.06-.06,0-.04-.1.03-.02-.08-.18,0-.14.07-.07.04-.36,0-.24-.02-.31-.05-.27-.1.03-.04-.03-.05-.07,0-.05.05-.2.04-.24-.03-.08-.12-.39.03-.4.05-.03.04-.19,0-.19-.05,0-.02-.06-.02-.13,0-.13.03-.15.02-.14-.05,0-.04-.11-.04-.11,0,0,.05-.27.04-.39.04-.21,0-.21-.09-.38-.09-.18,0-.22-.1-.22-.03,0,.05-.12-.02-.25.06-.09.06-.23.05-.19-.02.03-.04-.19-.05-.1,0,.08.05.02.09-.06.05-.15-.08-.3.07-.29-.12,0-.01-.04-.02-.1-.03-.21-.01.09.05-.03.14-.05.04-.06.04-.06,0,0-.08-.14-.18-.1-.12.04.06-.11.07-.23.11-.07.02-.04-.06-.18-.03-.17.03-.18-.12-.23,0-.04.1-.19,0-.41,0-.07,0-.11-.01-.11-.05,0-.06-.22-.07-.3,0-.04.03-.05.03-.03,0,.02-.03,0-.04-.1-.03-.18.02-.11.1-.25.1-.07,0-.09-.02-.07-.06.04-.09-.37-.05-.44,0-.06.05-.14.06-.19.04,0,0,0,0,0-.03,0-.12-.18-.21-.14-.1.03.07-.09.12-.13.06-.04-.07-.12.03-.1-.04.02-.08-.12-.09-.2-.02-.04.04-.07.05-.08.02-.02-.05-.26-.09-.26-.03,0,.05-.12-.03-.23.04-.07.04-.08.04-.06-.02.02-.04,0-.06-.03-.06-.08,0-.02.07-.13.17-.13.11-.22-.05-.39,0-.15.04.05-.24-.09-.07-.09.11,0-.02-.05-.02-.05,0-.06.11-.14.11-.04,0-.05-.02-.04-.06.03-.07-.07-.08-.11-.01-.04.06-.27-.02-.3.04-.03.05-.06.04-.13,0-.05-.03-.05-.04,0-.08.09-.06-.07-.04-.1,0-.04.07-.29-.05-.36.06-.04.07-.12.04-.12-.05,0-.08-.09-.06-.06-.02.03.05-.1.09-.14.04-.07-.07-.09.08-.19,0-.14-.12-.15.19-.3-.15-.28.31-.07,0-.29.14-.18.12-.09-.06-.25-.03-.12.02-.03-.12-.25-.08-.17.03-.27.06-.29.02-.03-.04-.54-.03-.6.02-.04.03-.21.04-.45.02-.07,0,.01-.07-.04-.1-.05-.03-.06.06-.12.06-.02,0-.03-.02-.01-.04.07-.12-.73.19-.7.02.02-.09-.2-.11-.37-.03-.08.04-.16.05-.2.03-.33-.14-.42.14-.46.03-.03-.08-.16.02-.26-.04-.12-.07-.27.07-.34-.02-.05-.06-.96-.13-1.14-.01-.1.06-.1.06-.13-.02-.02-.05-.04-.06-.04-.04,0,.09-.39-.03-.44.05-.03.05-.08,0-.3-.02-.26-.02-.4-.06-.4-.09,0-.05-.2-.04-.31.02-.09.05-.11.04-.19-.03-.06-.06-.09-.07-.1-.03-.03.07-.15.03-.18.08-.02.03-.2.12-.13,0,.1-.2-.16.1-.25-.02-.04-.05-.05-.05-.09,0-.06.07-.16.08-.16.02,0-.05-.19-.03-.19-.07s-.2-.03-.29.02c-.1.05-.55.04-.66-.02-.1-.06-.3-.06-.34,0-.06.1-.28,0-.11-.05.08-.02-.45,0-.49.05-.03.04-.27.04-.27,0,0-.04-.13-.01-.1-.07.03-.05-.11-.05-.08,0,.03.05-.11.05-.08,0,.03-.06-.08.02-.11-.03-.04-.07-.15.05-.24-.07-.05-.06-.05-.06-.03,0,.04.11-.15.04-.11.11.03.05-.08.09-.16.05-.14-.06-.22.01-.21-.13.01-.13,0-.02-.16,0-.09.02-.12,0-.14-.06-.07-.18,0,.18-.08.05-.04-.07-.04-.02-.04.11l-.14-.07c-.25-.13-.83,0-.75-.12.04-.06-.05-.04-.1.02-.08.1-.2-.03-.11.07.04.05.04.06-.01.06-.1,0-.01-.07-.18-.05-.23.03-.1-.19-.27-.04-.08.07-.08.07-.14,0-.03-.05-.07-.06-.08-.04-.04.05-.12.07-.12.02,0-.02-.09-.04-.2-.05-.3-.03-.42-.09-.33-.03.1.07-.06,0-.14.09-.05.05-.18.01-.14-.04.03-.05-.11-.07-.08.02.02.04,0,.05-.02.03-.07-.04-.17-.02-.28-.08-.07-.04-.09-.04-.11.03-.03.08-.19.13-.24.07-.07-.07-.43,0-.57-.12-.08-.07-.1-.07-.21-.03-.07.02-.14.03-.16.02-.05-.03.04.04-.09.1-.09.04-.1.03-.13-.06-.03-.08-.05-.09-.07-.05-.05.08-.27.09-.33.02-.04-.05-.09-.06-.23-.04-.28.03-.28.03-.28.07,0,.02-.04.03-.08.03-.08,0-.08,0-.02-.07.06-.06.05-.07-.16-.05-.19.01-.23.03-.25.09-.01.04-.04.06-.05.04-.06-.08-.51-.02-.58-.13-.02-.04-.04-.04-.04,0,0,.03-.03.05-.08.05-.12,0-.04-.09-.13-.13-.09-.03-.04.09-.09.1-.27.05-.33.03-.28.09.05.06-.13.07-.28.02-.2-.06-.49-.08-.46-.04.01.02-.01.02-.06-.01-.16-.1-.14.16-.24.05-.04-.04-.04-.05,0-.02.04.02.04.02.03-.02-.02-.04-.05-.03-.11,0-.13.08-.27-.04-.23.03.03.05-.1.06-.1-.02,0-.04-.02-.05-.07-.03-.13.06-.39.05-.42,0-.05-.08-.15,0-.4,0-.11,0-.13,0-.1.05.03.04.01.05-.08.05-.1,0-.12,0-.08-.05.1-.13-.2-.11-.1,0,.04.05.04.06-.02.03-.1-.04-.15,0-.13-.08.04-.09-.13.01-.13.08,0,.07-.08.07-.08,0,0-.04-.02-.05-.06-.03-.04.02-.05,0-.04-.02.03-.05.02-.05-.07-.02-.05.02-.05.03-.01.06.07.05-.03.04-.06,0-.04-.07-.06.07-.24.02-.35-.1-.19.03-.46.05-.11.01-.13,0-.11-.05.03-.08-.01-.08-.15,0-.31.16-.2-.13-.33-.03-.08.06-.04,0-.26,0-.11,0-.15-.01-.13-.04.01-.02,0-.02-.03.02-.08.1-.16.05-.13.12.02.04,0,.04-.1,0-.13-.07-.46-.08-.48-.01-.02.05-.17.05-.15.01.02-.03-.09-.18-.16-.09-.07.08-.27,0-.2.03.09.04-.06.13-.22.15-.08,0-.15,0-.15-.01,0-.04-.39-.01-.43-.06-.05-.08-.3.1-.3-.01s-.15.11-.15.04c0-.02-.02,0-.04.02-.03.05-.04.05-.06,0-.02-.06-.03-.06-.13.01-.24.17-.06-.15-.33-.02-.14.07-.41.11-.38.06.03-.04-.09-.04-.09,0,0,.05-.11-.09-.15-.07-.16.1-.72.06-.81.15-.12.12-.37.12-.32,0,.01-.03,0-.05-.02-.05-.06,0-.1.23-.25.09-.05-.05-.07-.05-.1-.02-.07.07-.19.06-.17-.01.02-.05,0-.05-.05-.02-.05.03-.08.03-.08,0,0-.06-.1-.05-.17.02-.05.05-.06.05-.08-.03-.02-.05-.03-.07-.05-.04-.01.03-.04.04-.05.03-.05-.03-.02.19-.07.15-.09-.05.02-.27-.1-.15-.09.09-.16,0-.19.08-.02.06-.13.08-.13.03,0-.06-.28-.02-.33.05-.03.03-.06.05-.07.03-.04-.06-.17-.08-.22-.03-.07.07-.38.06-.44-.01-.04-.05-.04-.05-.02,0,.04.11-.09.02-.12.12-.02.06-.22.04-.31-.03-.03-.03-.07-.02-.13.03-.15.13-.12-.11-.22-.01-.06.06-.17.07-.15.01.01-.04-.01-.05-.1-.05-.18,0-.15.07-.33.05-.09-.01-.13,0-.15.04-.02.05-.03.05-.05,0-.05-.08-.1.04-.35.04-.27,0,0-.18-.22-.1-.06.02-.11.05-.11.07,0,.05-.14.07-.19.02-.03-.03-.05-.03-.06,0-.02.07-.19.06-.21,0-.03-.08-.2-.02-.14.02.07.04-.03.1-.1.03-.09-.08-.22,0-.19-.07.03-.05-.04-.05-.07,0-.03.06-.18.02-.16.08.02.08-.09.08-.11,0-.06-.23-.63.22-.8,0-.04-.05-.05-.05-.04,0,.01.08-.15.1-.24.02-.16-.14-.26.17-.4.02-.12-.13-.2.08-.32,0-.04-.03-.09-.02-.22.05-.16.09-.32.09-.27,0,.04-.07-.04-.04-.11.04-.06.07-.08.07-.1.02-.05-.09-.5-.05-.52,0-.04.05-.2.07-.2.02,0-.02.02-.05.05-.06.05-.02-.36,0-.42.07-.05.07-.17.07-.23.01-.05-.05-.32-.08-.32-.04,0,.05-.18.12-.2.07-.01-.04-.37-.11-.37-.01,0,.07-.06.08-.09,0-.02-.06-.27-.06-.32,0-.05.05-.16-.15-.19-.06,0,.03-.03.04-.05.03-.05-.03-.13.08-.18.04-.02-.01-.04,0-.04.04,0,.05-.02.05-.07.02-.14-.08-.85-.08-.85.01,0,.06-.28.09-.24,0,.04-.11-.16.09-.23.02-.05-.05-.11.03-.2-.05-.05-.05-.07-.05-.17,0-.15.08-.19,0-.19.05,0,.06-.13.09-.17.03-.05-.06-.17-.12-.17-.07,0,.04-.49.12-.62.1-.07,0-.1,0-.1.05,0,.04-.01.05-.02.02-.02-.06-.13-.06-.13,0,0,.1-.27-.11-.27.01,0,.08-.07.08-.13,0-.09-.12-.11.06-.23.01-.1-.04-.36.21-.31.02.03-.11-.09-.04-.07,0,.01.02,0,.05-.04.08-.07.06-.08.03-.2-.13-.03.05-.12.23-.12.18,0-.09-.27,0-.27-.11,0-.05-.01-.05-.06.02-.09.13-.15.03-.19.08-.01.02,0,.04.05.04.09,0-.13.1-.19.04s-.26-.05-.34.01c-.1.08,0,.05-.1.14-.05.05-.06.05-.04,0,.01-.04,0-.07-.01-.07-.05,0-.01.11-.09.11s-.1.09-.03.15c.03.03.05.09.04.12-.02.07.07.13.16.1.02,0,.04,0,.04.03,0,.06-.07,0-.07.06,0,.02.03.03.06.02.07-.03.14.09.18.15-.1-.34-.02-.05.26-.07.35-.03.07-.19.36-.16.28.02,0,.22.26.14.18-.05.15-.13.24-.1.09.03.03-.05.12-.05.08,0,.02-.06.17-.07.22-.02.05.18.23.03.18-.16.19.11.33-.03.05-.05.07-.05.11-.02.05.05.19.06.16,0-.03-.05.08-.05.12,0,.04.07.1-.06.19-.03.03.01.09-.01.14-.05.09-.08.21-.06.18.02-.03.08.04.06.1-.02.06-.08.25-.09.3,0,.07.11.19-.21.19-.07,0,.19.27-.11.27,0,0,.08.17-.03.2.05.01.03.02.01.02-.03,0-.07,0-.07.06.01.04.06.07.08.1.05.05-.05.12-.06.09,0-.02.04.1.04.13,0,.09-.09.57-.2.52-.12-.03.05.04.05.08,0,.04-.06.16-.05.18.02.04.1.3-.03.35.06.08.13.14-.06.06-.01-.06.04-.04-.03.03-.1.07-.07.22-.12.11.01-.14.16.1-.02.1-.05,0-.05.09.05.2.02.11-.03.06.1.1.05.01-.01.05,0,.09.02.05.04.05.04.01-.02-.08-.1.03-.13.09-.06.05.07.13.09.13.03,0-.05.2-.03.27.03.11.09.18-.1.32-.1.13,0-.15.2.06.07.19-.12.11.05.33.07.06,0,.08,0,.05-.01-.07-.03-.02-.09.07-.09.11,0,.04-.09.14-.05.04.02.05,0,.04-.02-.04-.06.09-.07.12.03.02.08.07.1.09.04.02-.05.29-.05.37-.09.03-.02.08,0,.12.03.07.07.25.08.29.03.03-.05.15.02.23-.04.07-.06.31.01.41-.05.12-.07.11.05.24.03.15-.02.18.1.26-.02.12-.19.22.1.25,0,.03-.09.1.1.23-.02.09-.08.16-.08.16,0,0,.08.18.05.12.03-.12-.05.11-.16.11-.03,0,.06.06.08.09.02.04-.06.31.02.41-.07.05-.05.09-.05.18-.01.16.07.42.06.5-.01.06-.06.07-.05.15.02.08.08.09.08.21.01.16-.08.49-.1.55-.02.05.06.24.03.27-.05.03-.07.16-.07.16,0,0,.04.02.05.07.03.27-.11.54-.11.54,0,0,.07.08.07.05,0-.02-.04,0-.05.04-.03.1.04.03.13.15,0,.12-.14.23-.05.21,0-.02.06.09.06.09.01,0-.05.05.03.11-.05.03-.03.39-.21.27.02-.09.16.11-.05.12.05,0,.04,0,.04.02,0,.01-.03.04-.04.07-.02.08.03.03-.06.11-.06.09,0,.03-.13.11-.04.05.06.22.08.22.03,0-.06.23.02.17-.08-.02-.03,0-.03.04,0,.1.08.15-.01.25,0,.1.02.02-.06.37-.07.16,0,.21,0,.17.03-.03.02-.04.04-.01.04.09,0,.13-.17.3-.07.06.03.37-.04.34-.08-.01-.02,0-.04.01-.04.05,0,.06.13.12.09.07-.04.33,0,.36-.07.02-.06.64-.06.74,0,.04.02.05.02.03,0-.04-.07.21-.05.21-.01,0,.03.17.12.13,0-.02-.06,0-.07.07-.07.06,0,.07,0,.04.03-.16.1.26.07.26,0,0-.05.17-.06.25-.01.05.03.09.04.13,0,.05-.03.04-.04-.02-.02-.16.05.13-.18.21-.02.1.18.4-.18.52-.01.09.12.54-.03.59-.08.08-.08.05,0,.32-.01.26-.01.18.07.31.07.05,0,.06-.01.04-.02-.14-.06.18-.14.12-.05-.02.03-.01.03.03,0,.08-.05.23-.05.21.01-.01.03.01.05.08.05.13,0,.08-.1.12-.06.01.01.05,0,.07-.01.07-.06.44-.06.48,0,.04.06.12-.02.22.04.04.02.1.02.18,0,.38-.15.71.1.66.02-.02-.03.01-.04.09-.04.23,0-.04-.21.17-.11.15.07.07.16.16.12.12-.05.22.2.19.03-.01-.07,0-.08.09-.06.07.02.09.01.05-.01-.07-.05.02-.1.05-.05.04.06.1-.03.09.04-.01.07.07.02.17.02.14,0-.11-.15.04-.09.04.01.09,0,.12-.01.05-.04.31.04.26.09-.04.04.12,0,.08.06-.03.05.08.06.11-.02.03-.07.16-.08.11,0-.02.03,0,.03.04,0,.06-.05.06-.05.04,0-.03.08.26.07.23,0-.03-.08.23,0,.28-.08.03-.05.26-.11.15-.03-.21.16.12.05.12.1,0,.05-.1.02-.07.05.04.04.15-.03.15-.1,0-.08.06-.1.1-.03.03.05.2.13.16.1-.02-.02.02-.05.07-.08.13-.07.13-.07.13.02,0,.14.25-.05.2.06-.03.07.06.07.06,0s.14-.15.17-.1c.03.06.1.05.07-.01-.03-.07.27-.08.24,0-.01.03,0,.05.02.05s.03.02.01.05c-.05.08.34-.27.34-.06,0,.07.41.07.47-.09.02-.04.04-.05.09-.02.12.06.35.09.43.05.13-.07.09.07.17,0,.07-.06.09-.06.14-.02.06.05.38.04.45,0,.06-.04.06.03,0,.09-.04.04-.02.04.1.03.23-.03.1.09.18.09.05,0-.03-.11.04-.11.09,0,.19-.16.22-.09.02.07.11-.01.14.05.04.06.18.02.24.08.08.08.2-.08.28.02.04.05.06.04.15-.02.12-.09.31-.08.41.01.1.09.1,0,.15,0,.05,0,.18-.11.21-.06.04.06-.11.03-.02.12.03.03.04.03.03,0-.03-.05.11-.19.14-.14.01.02,0,.05-.02.06-.03.01-.02.02.02.02.1,0,.02-.08.17-.07.07,0,.1.03.09.07,0,.04.02.03.08-.03.1-.09.2-.08.16.02-.01.03,0,.05,0,.04.14-.08.35-.11.35-.06,0,.06.25-.03.28.06.02.06.17.04.21-.02.06-.09.57-.06.42.04-.08.05.08.05.1-.02.03-.07.3-.05.39.03.19.17.31-.14.31-.02,0,.03.02.04.04.02.06-.04-.04-.11.06-.09.04,0,.07.04.07.08,0,.05.01.06.08.02.14-.06.25.11.31.05.02-.02.01,0-.02.04-.05.07-.04.08.05.04.09-.03.03-.15.13-.18.1-.03.34.03.32.08,0,.02.02.04.06.04.12,0,.11.11.16.03.02-.03.03-.04.03,0,0,.05.05.04.17,0,.13-.06.42,0,.39-.09-.02-.06.08-.07.11.01.02.04.05.05.1.03.13-.04.3-.05.32,0,.03.05.07-.04.16.04.11.1.41,0,.45.07.03.04.26.05.09,0-.15-.05.02,0,.1-.1.07-.1.17.04.15.07-.02.04.15.05.09-.03-.09-.1.17-.02.14.03-.02.04.28.09.33.06.07-.04.19-.05.21-.02.02.03.19.01.27-.04.06-.04.29-.03.29.01,0,.02.02.01.04-.02.02-.04.04-.04.04,0,0,.06.08.06.15,0,.05-.05.08-.04.21.02.29.14.92.1.88.03-.03-.05.04-.05.08,0,.03.06.12-.03.09.02-.02.04.04.24.04.12,0-.13.16.06.16-.03,0-.06.03.03.12-.06.08-.07.35-.08.51-.01.18.07.44.08.44.01,0-.07.04-.07.09,0,.04.05.06.05.13.02.09-.05.16-.03.16.05,0,.06.47.06.49,0,.02-.06.17-.06.14,0-.03.05.28.03.39-.03.11-.06.16-.05.07.01-.14.11.38-.03.43.05.03.05.27,0,.27-.05,0-.06.17-.06.11,0-.06.07.06.11.03.06-.03-.04.22-.04.55,0,.19.03.2-.07.3-.04.1.03.13-.06.28-.01.16.05.19-.09.19,0,0,.07.21.03.25.08.02.02.04.02.08-.01.11-.11.49.17.64.08.04-.02.07-.06.07-.07,0-.03.15-.06.15.04,0,.04.01.05.03.03.05-.06.16-.06.19,0,.04.09.36.06.36-.04,0-.08.11-.1.13-.02.02.08.09.1.09.03,0-.06.24,0,.29.07.08.11.1-.06.24-.02.04.01.08,0,.08-.02,0-.02.02-.02.06,0,.08.06.15,0,.2.04.06.06.28-.05.38-.02.07.03.15-.08.21-.05.06.04.02-.06.08-.06.05,0,.06.11-.02.11-.07,0-.15.08.03.05.19-.03.14-.11.25-.08.04.01.09,0,.1-.01.03-.06.13-.04.13.02,0,.07.11.07.11.02,0-.06.29.02.33-.05.02-.02.04,0,.06.05.03.09.04.09.09.02.09-.12.22,0,.27-.06.04-.06.11-.04.08.02-.02.05.01.06.17.05.15,0,.19-.02.21-.08.02-.07.13-.1.13-.04,0,.05.57.15.57.09,0-.05.12-.09.17-.05.08.06.43-.01.46.07.03.07.18.06.35,0,.12-.05.14-.05.16,0,.03.07.13.07.22,0,.18-.13.4-.1.22.01-.11.06.14.04.14.01,0-.05.2-.05.29,0,.18.12.51-.14.61-.06.07.06.25,0,.18.02-.06.03-.03.11.06.06.09-.05.05,0,.27.02.25.03.3.14.25.06-.06-.1.08.03.2-.08.08-.08.16-.09.16-.04,0,.06.18-.04.24.06.04.07.28.09.32.02.04-.06.2,0,.23-.04.01-.02.06,0,.1.03.08.08.12.09.41.11.53.04.47.14.57.02.07-.08.21-.07.18.01-.03.09.32-.03.36.11.01.05.03.06.05.03.02-.03.04-.02.07.03.03.07.07.08.16.06.17-.03.03.02.15.1.11.07.03-.03.15-.02.11,0,.05.07.12.07.09,0-.14-.22.05-.09.13.09.04.12.12.12.03,0,.05-.01.03-.03s0-.03.04-.03c.09,0,0,.06.07.1.06.04-.03-.01.03-.09.07-.08.11-.06.07.04-.05.13.04.15.04.08,0-.12.21-.14.25-.02.05.17.08-.09.35.21.26.28.11.23.22.32.09.07,0,.29.13.53.05.09.07.16.05.16-.06,0,0,.53.09.67.11.17-.07.16,0,.26.1.12-.09.26,0,.43.08.15-.08.18,0,.22.02.01.04,0,.04-.03,0-.03.02-.02.06.02.11.15-.11.17-.02.33.03.05.03.08,0,.08-.02,0-.03.02-.02.05.05.15.06.26.03.24-.02-.01-.02.02,0,.1.04.15.02.16.07.13.05-.03.06.04-.02.09-.1.06,0,.2-.06.2-.04,0-.01.11.07.01.1-.13-.01.14.05.14.04,0,.02.27-.03.31-.03.03-.04.03-.04,0,0-.06-.08-.03-.08.08,0,.06.01.07.05.04s.06-.01.09.12c.08.26-.09.17,0,.27.06.06.06.12.01.09-.02-.01-.03.03-.02.08.02.15-.08.18-.02.22.05.03.02.25-.04.32-.03.04-.03.05,0,.05.04,0,.04,0,0,.02-.04.02-.04.03,0,.07.06.07,0,.12,0,.06,0-.07-.17-.01.1.26.05.05.07.18.02.14-.05-.03-.04.11,0,.14.03.02.02.04,0,.08-.06.07-.08.35-.03.36.07.01.11.14.06.17-.06.04-.1.4-.02.29.05-.06.05-.06.07,0,.01.04,0,.09-.03.12-.05.04-.02.29.06.43.06.12-.17.15-.09.22.05.05-.05.9.02,1.19.02.1.08.1.03.17-.02.03-.03.05,0,.05.04,0,.05.31.02.34,0,0-.15.18-.07.21.06.02.07.28.02.28-.05,0-.03.1.03.15.09.07,0,.03-.08.24-.04.13-.04.13.04.12.09-.02.11.05.03.14-.08.09.08.19.04.28,0,.03,0,.06.02.07.08.05,0,.14-.1.12-.13-.02,0-.01,0,.12,0,.25.17.17-.08.35l.08.08c.13.12,0,.22.07.18.06-.04.04.12-.02.17-.03.03-.06.03-.06.02,0-.03-.07,0,.02.09.12.13-.07.22-.03.34,0,.03,0,.05-.03.05-.03,0-.02.02.02.06.05.04.06.06.02.06-.04,0-.04.01,0,.05.06.06.06.17-.01.2-.07.03-.08.14-.01.14s-.01.23.05.23c.06,0-.1.07-.08.11.03.05-.07.44,0,.55.03.05.03.08,0,.1-.24.16-.01.43-.09.43-.07,0-.08.16-.02.23.04.04.05.07.02.07-.05,0-.13.26-.1.32.01.02.09.36-.04.41-.12.04.02.02-.03.19-.06.21.13.13.09.3-.01.05-.04.08-.05.08-.05,0-.08.16-.04.23.06.11-.14.29-.08.33.02.01.02.06,0,.12-.05.12-.05.26,0,.23.04-.03.16.16.07.12-.15-.06,0,.38-.08.4-.06.02-.06.42,0,.44.05.02.07.12.02.12-.03,0-.16.17-.06.25.06.04.06.05-.02.1-.09.06-.11.17-.04.2.09.03-.08.34,0,.34.06,0,.03.26-.03.34-.05.06-.13.36-.04.4.06.02.08.2.02.22-.05.02-.07.37-.1.41,0,.02.02.09.06.17.07.13.07.15.02.19-.1.08-.03.38-.11.41-.09.03.06.07.02.21-.04.15.18.06.12.19-.04.09.01.55-.23.55-.02,0-.01-.02.02-.04.04-.03,0-.03-.17-.02-.3.03-.25.14-.34,0-.06-.09-.07-.1-.13-.04-.08.08-.22.08-.3,0-.05-.05-.07-.05-.14,0-.09.06-.2.08-.16.02.03-.05-.06-.06-.06.02s-.11.07-.14,0c-.02-.04-.04-.05-.1-.02-.14.08-.14-.11-.27-.04-.21.12-.79-.2-.91,0-.06.09-.19-.13-.19-.06,0,.05-.11.05-.11,0s.1-.02.06-.06c-.04-.04-.11.1-.16.02-.02-.03-.04-.03-.06,0-.02.04-.03.03-.03-.02,0-.07,0-.07-.06,0-.05.07-.06.07-.11,0-.04-.05-.06-.06-.07-.02-.01.04-.04.03-.11-.01-.14-.09-.23,0-.3-.08-.07-.07-.28-.06-.36.02-.08.08-.19.07-.19-.02,0-.08-.14-.06-.11-.03.04.06-.04.03-.09-.04-.03-.04-.05-.05-.05-.03.03.15-.17.23-.15.12.01-.06-.19-.06-.3,0-.09.05-.15,0-.11-.08.01-.03,0-.02-.03.02-.04.05-.07.05-.12.03-.1-.05-.27.03-.31-.03-.03-.05-.13.02-.25-.04-.04-.02-.08-.03-.08,0,0,.07-.11.03-.14-.04-.06-.18-.07.15-.18,0-.1-.14-.08.08-.25-.05-.05-.03-.08-.05-.07-.02s-.05,0-.13-.04c-.27-.13-.42.07-.42-.05,0-.1-.11,0-.28,0-.04,0-.06-.02-.05-.03.01-.02-.01-.03-.05-.04-.66-.07-.31-.22-.71-.13-.22.05-.38.03-.34-.05.02-.03,0-.03-.03,0-.09.07-.1-.04-.15.06-.07.13-.46-.04-.46.09,0,.1-.1,0-.13.07-.01.03-.03.03-.07-.02-.05-.07-.4-.09-.43-.03-.02.04-.14,0-.1-.06.03-.05-.09.03-.19.14-.07.07-.16.1-.13.03.04-.07-.27-.09-.48-.03-.16.05-.25.04-.24,0,.02-.1-.33-.02-.33.05,0,.07-.15.08-.15-.01,0-.06,0-.06-.07,0-.09.08-.3.07-.28-.01,0-.04,0-.04-.08,0-.1.07-.4.09-.4.02s-.11-.04-.15.03c-.04.08-.08.08-.12,0-.06-.09-.16.08-.21,0-.05-.08-.18.07-.23-.07-.04-.11-.02-.01-.31.02-.15.01-.21,0-.25-.05-.04-.06-.04-.06.01-.01.04.03.07.04.09.01.03-.05-.1-.07-.18-.03-.05.03-.08.03-.1-.01-.03-.05-.04-.05-.09,0-.13.11.02-.12-.13-.03-.12.08.02.08-.19.14-.18.05-.21.05-.18,0,.07-.12-.61.06-.57-.06.03-.07-.1-.12-.14-.05-.02.03-.04.04-.06.02-.05-.07-.12-.06-.1,0,.02.04,0,.05-.02.04-.03-.02-.04,0-.02.03.01.04,0,.06-.04.06-.12,0-.03-.13-.18-.05-.11.05-.23.05-.23,0,0-.02-.04-.03-.09-.01-.06.02-.12,0-.17-.05-.1-.09-.15-.1-.08-.02.06.07.02.06-.04.07-.07,0-.05.06-.15.06-.11,0,.07-.05.07-.12,0-.05-.2.08-.17.12.03.04-.2-.03-.27-.08-.1-.08-.38.2-.46.11-.04-.05-.22-.06-.33-.01-.12.05-.33-.14-.38-.05-.02.04-.04.04-.08,0-.06-.06-.22-.06-.22,0,0,.07-.03-.04-.25-.03-.25,0-.3-.12-.37-.05s-.23.02-.15.08c.07.05-.02.1-.07.01-.06-.1-.07.01-.15-.06-.08-.06-.39,0-.5-.08-.15-.09-.26.08-.35,0-.04-.03-.04-.03-.02,0,.02.03,0,.04-.05.02-.12-.03-.05-.11-.16-.03-.24.17-.26-.21-.32-.01-.04.13-.12,0-.17.07-.04.06-.09-.04-.04-.04s.06-.09-.02-.06c-.03.01-.06,0-.06-.02s-.04,0-.09.04c-.14.13-.04,0-.57.06-.08.01-.1,0-.09-.04.02-.06-.04-.08-.07-.02-.03.05-.11.05-.08,0,.08-.13-.23.11-.3.04-.08-.08-.2.09-.26,0-.07-.11-.07.08-.22-.02-.08-.05-.08-.05-.08,0s0,.06-.05,0c-.05-.06-.23-.12-.2-.07.01.02-.02.04-.07.04-.14,0-.37.19-.37,0,0-.11-.06.06-.18,0-.15-.07-.36.02-.36-.09,0-.1-.11-.02-.11.01,0,.05.08-.03.08.05s-.08.07-.08.02-.15-.05-.15,0c0,.03-.01.03-.03,0-.04-.05-.2-.06-.17,0,.05.08-.21.14-.17.08.04-.06-.41-.03-.37-.09.02-.03-.06-.09-.06-.04s-.23.1-.26.06c-.05-.06-.13-.06-.1,0,.05.12-.05-.05-.14,0-.07.04-.39.04-.51.07-.17.04,0-.15-.29-.11-.3.04-.6.15-.72.08-.13-.08-.6-.08-.69,0-.07.06-.07.06-.12,0-.08-.11-.14,0-.2-.06-.04-.04-.35,0-.35.04,0,.01-.03.03-.07.03-.14.01.05-.2-.37-.1-.06.02-.13.01-.15,0-.05-.05-.19-.05-.24,0-.09.09-.14-.1-.38.03-.16.09-.22.09-.27.03-.05-.07-.21-.15-.19-.1.02.07-.25.02-.22.07.03.04-.03.02-.12.06-.05.02-.06.01-.04-.04.02-.05,0-.06-.07-.06-.06,0-.09.03-.07.06.01.04,0,.05-.05.02-.16-.07-.41.05-.45-.02-.03-.06-.07.03-.15-.04-.08-.06-.14,0-.27.02-.12,0-.05.06-.11.12-.04.04,0-.08-.09-.11-.03-.01-.06,0-.06.02,0,.06-.25.04-.3-.02-.06-.08-.19-.11-.17-.04.03.08-.11.06-.21-.02-.07-.06-.08-.07-.08-.02,0,.03-.02.05-.05.04-.08-.03-.07.11-.16.08-.04-.01-.06,0-.06.04,0,.05-.02.05-.1.02-.12-.05-.06,0-.21-.04-.15-.05-.36-.12-.32-.07.04.06-.14.24-.14.09,0-.11-.21.03-.25-.08-.03-.07-.16-.08-.1,0,.1.12-.3-.06-.39.09-.05.08-.11.06-.1-.03,0-.02-.01-.03-.02-.04,0,0-.01,0-.05,0-.05-.01-.09,0-.09.02,0,.07-.08.03-.08-.03,0-.06,0-.06-.02,0-.02.08-.15.13-.21.08-.07-.05-.25-.08-.28-.04-.02.04-.33.04-.29-.02.04-.06-.1.08-.1.04,0-.05-.27.19-.27,0,0-.07-.38-.05-.36-.02.03.04-.1.01-.1.07,0,.05-.1.02-.1-.03,0-.17-.32.08-.42,0-.07-.06-.17.03-.17-.03,0-.04-.15-.1-.15-.02,0,.07-.08.07-.08.02,0-.05-.14-.05-.17,0-.05.09-.52-.07-.52-.11,0-.02-.03-.02-.07,0-.11.07-.27-.06-.27-.01,0,.05-.2.02-.25-.04-.07-.09-.42,0-.38-.08.04-.08-.04.06-.13.02-.04-.01-.05,0-.03.02.04.06-.11.07-.08-.01.01-.03,0-.05-.02-.04-.08.05.02.16-.12.12-.12-.03-.2,0-.17-.08.03-.09-.31.03-.35.05-.1.05-.27-.22-.22-.1.04.11-.1.02-.2.11-.03.03-.04.03-.03,0,.03-.06-.1-.1-.07-.05.03.04.01.05-.07.01-.09-.04.02-.1-.11-.07-.14.03-.21.03-.32.07-.16.05-.03-.11-.31-.08-.2.02-.15-.06-.2-.03-.07.04-.05-.09-.14-.02-.08.06-.16-.03-.12.02.02.04-.03.2-.07.07-.03-.11-.21-.1-.18-.03.02.07-.06.09-.07-.05,0-.07-.01-.08-.02-.03-.01.05-.04.06-.09.05-.11-.03-.02.05-.17.02-.16-.03-.05.13-.14.09-.03,0-.04-.04-.04-.08.03-.14-.6.05-.6-.02,0-.07-.1-.05-.13.02-.02.06-.03.06-.1,0-.16-.14-.16.1-.3-.03-.09-.08-.61-.09-.61,0,0,.05-.06.06-.13.02-.05-.03-.36,0-.48.05-.08.03-.12.03-.19-.02-.1-.06-.31-.06-.33.01,0,.02-.06.04-.11.04-.08,0-.09,0-.05-.06.11-.14-.22.11-.27.02-.02-.02-.06-.03-.09-.02-.15.06-.21-.13-.31,0-.05.06-.05.06-.05,0,0-.07-.1-.09-.13-.03-.04.06-.13.04-.13-.02,0-.09-.06,0-.09-.06-.01-.03-.02-.02-.02.02,0,.11-.22.04-.26.01-.1-.07-.08.1-.2-.01-.1-.09-.15,0-.27,0-.12-.01-.05.2-.17.11-.09-.08-.03-.14-.15-.13-.12,0-.19-.02-.16-.07.01-.02,0-.03-.03-.02-.08.03,0,.11-.09.11-.03,0-.06-.02-.06-.05,0-.04,0-.04-.03,0-.04.06-.2.02-.2-.05,0-.09-.09-.03-.11.07-.01.09-.02.09-.05.02-.03-.06-.03-.07-.03,0,0,.09-.07.09-.07,0,0-.1-.24-.08-.24-.04,0,.05.06-.03.09.04.02.06-.2.08-.2,0,0-.12-.01.07-.18.07-.08,0-.09,0-.05-.04.03-.02.04-.04.02-.04-.02,0-.02-.02.01-.03.04-.03.04-.04,0-.06-.04-.02-.06,0-.06.04,0,.05,0,.05-.06-.01-.08-.1,0,.02-.07.02-.08,0-.04.13-.1.1-.08-.05.02-.21-.11-.14-.11.06-.19-.03-.19.04s-.1.02-.13.09c-.03.07-.04,0-.17-.07-.15-.08-.05.06-.19.06-.2,0-.33.06-.3-.02.03-.08-.08-.04-.06.03,0,.04,0,.04-.05,0-.05-.04-.08-.04-.14,0-.17.11-.06-.12-.28,0-.2.11-.18-.07-.32.02-.06.04-.09.04-.17,0-.08-.04-.33-.04-.47,0-.08.02-.18-.07-.27,0-.03.03-.06.03-.06.01s-.02,0-.05.04c-.05.06-.12.06-.39-.02-.05-.02-.24.06-.27.12-.04.06-.15-.02-.19.04-.06.1-.12-.16-.43,0-.2.11-.18-.17-.4,0-.19.14-.3-.03-.3.1,0,.06,0,.06-.07,0-.06-.06-.08-.06-.12,0-.07.09-.1.01-.2.06-.07.04-.19,0-.16-.05.04-.06-.05-.04-.1.02-.04.05-.06.05-.08,0-.03-.04-.03-.04-.03,0,0,.08-.1-.02-.18.05-.1.09-.07-.08-.24.01-.08.04-.1.04-.14-.01-.03-.04-.06-.05-.08-.02-.05.06-.15.02-.27,0-.13-.01-.11-.08-.19,0-.08.08-.13-.01-.1.09.03.12-.2.03-.22,0-.01-.02-.07,0-.13.03-.1.05-.12.05-.16,0-.05-.07-.3-.08-.34-.02-.02.03-.04.03-.07,0-.06-.05-.23-.01-.32.07-.1.09-.25.13-.23.06.05-.14-.2.1-.24.02-.06-.09-.15.17-.21-.09-.04-.19-.04-.2,0-.25.05-.07-.03-.15.05-.18.07-.03.07-.23,0-.3-.06-.06-.04-.18.03-.18.02,0,.02-.02-.01-.04-.04-.03-.04-.04,0-.04.03,0,.04-.03.02-.09-.04-.12-.01-.18-.08-.17-.07.01-.1-.09-.05-.09.02,0,.03.02.02.04-.04.07.14,0-.07-.16-.05-.03.16-.15.11-.15-.05,0-.06-.18-.02-.21.05-.03.06-.15-.01-.11-.09.05.07-.08.02-.11-.08-.05.06-.66-.06-.61-.11.04-.02-.42.02-.45.03-.02.03-.06,0-.15-.06-.16-.06-.38,0-.38.08,0-.04-.21.06-.18.08.03.06,0-.03-.09-.08-.07-.08-.08-.02-.13.1-.07.06-.37.1-.37s.01-.21.08-.27c.03-.03-.08-.18-.08-.12,0,.05-.12.08-.1-.03.01-.09.1-.2.1-.12,0,.03.02.04.04.02.05-.03.04-.17.01-.11-.01.03-.04.04-.06.03-.07-.03-.06-.59.06-.69.07-.05,0-.13.07-.14.07,0-.16-.11-.16-.14,0-.01.02,0,.04,0,.05.03.05-.07,0-.13-.03-.03-.03-.05,0-.05.03,0,.04-.05.03-.12-.02-.19.17-.39.11-.37-.1.03.02-.19-.04-.23-.08-.05.16-.32.03-.28-.11.03-.03-.1-.03-.32,0-.12.05-.06.06-.15.02-.19.07-.31,0-.45-.06-.12-.03-.24.07-.24.03,0,.06-.03.07-.08.04-.16-.28.09-.12-.2.02-.04.03-.09,0-.1-.05-.04-.03-.3.02-.37.1-.12-.1-.45.02-.49.11-.04-.04-.25.05-.31.09-.05-.08-.09,0-.19.09-.1-.15-.16-.09-.28.05-.1.03-.69.09-.8.05-.1.05-.23,0-.23-.02,0-.03-.02-.02-.05.03-.08-.08-.17-.02-.23.06-.06-.02-.1.05-.22.07-.12.02-.37.08-.44.07-.09-.16-.08-.16-.17,0-.02.02-.03.03-.02.05.03.09-.1.04-.15-.07-.08.06-.08.02-.13-.04-.06.08-.1,0-.19-.06-.07.01-.24-.04-.24s.02-.18-.03-.21c-.02-.01-.02-.07.02-.16.1-.25-.07-.7.01-.73.07-.02.02-.14.09-.1.03.02.03,0,0-.04-.08-.1-.12.01-.12-.1,0-.12.1-.07.08-.34,0-.07-.17-.03-.09-.08.05-.03.06-.17,0-.35-.03-.1-.02-.16.03-.28.11-.24,0-.09-.07-.29-.03-.08-.02-.11.03-.14.07-.05.04-.15-.03-.11-.05.03-.02-.12.04-.11.06.01.08-.11-.03-.11-.09,0-.09-.01-.03-.13.09-.16.12-.71.05-.77-.05-.04-.14-.36-.03-.35.08,0,.1-.15.03-.21-.05-.04-.04-.2.02-.35.03-.08.03-.28-.06-.21-.07.06-.12-.06-.06-.13.05-.06.06-.18.03-.27-.05-.12.1-.11.02-.16-.08-.05.04-.56-.06-.56-.07,0-.05-.34.02-.38.08-.05-.1-.21-.11-.21-.04,0-.01-.1.03-.16.03-.03.01-.05-.03-.07-.15-.05,0-.35-.06-.45-.03-.05-.03-.08,0-.12.09-.09.05-.13-.1-.12-.22.02.02,0-.07-.23-.03-.09-.21,0-.15-.05.22-.18-.35-.1-.3.05.03.08-.16.02-.19.21-.02.16.04.21.05.18,0-.08.21.17.07.12-.08-.03-.04.21-.11.31-.02.03-.03.05-.01.03.03-.03.23.11.14.16-.07.04-.03.16.05.16.07,0,.08.05.01.12-.06.06-.06.48,0,.52.1.07.1.52.04.55-.07.05.06.12.04.24-.02.12.1.09.02.18-.03.04-.04.06,0,.08.08.05-.09.13,0,.13.02,0,.03.02.02.04-.05.08.11.1,0,.22-.15.17.01.26.02.15,0-.03.11.04-.01.34-.15.4.07.12,0,.47-.06.31.16.38.06.5-.1.12-.04-.19-.1-.01-.02.05,0,.09.02.11.06.05.1.31.04.36-.06.06-.03.51.03.53.04.01.03.22-.03.34-.08.17.18.51.03.56-.04.01-.04.04,0,.09.09.15-.14.63,0,.73.05.04.06.05.01.05-.08,0,.04,0,.02.13-.03.14.04.03.05.23,0,.19-.03.07-.1.25-.03.09-.03.12.02.15.05.03.05.05.01.09-.04.05-.04.06.02.1.06.03.06.06.02.2-.07.27.04.51,0,.55-.04.04-.03.19.01.22.06.04-.13.29-.07.25.04-.03.04.32,0,.39-.04.07.03.22-.01.28-.05.07-.04.22.01.2.06-.02.1.24.04.31-.06.07-.04.25-.09.48-.06.28.09,0,.08.31,0,.09-.02.17-.04.19-.05.04-.06.39-.01.42.07.04-.14.26.06.26.12,0-.18.17-.13.29.13.32-.15.55.02.75.06.07-.03.06.03.16.08.14-.13.09-.1.35.03.23-.09.27,0,.27.14,0-.14.17.02.28.07.05.07.06.01.09-.05.03-.07.09-.06.25,0,.36-.13.15-.07.37.05.16-.04.16-.04.11s-.05-.07.02.14c.08.22-.05.22.02.26.06.03.05.11,0,.08-.05-.03-.08.08-.05.18.02.06.01.12-.02.18-.11.18.04-.08.08.01.01.03,0,.07-.04.09-.06.04-.07.11-.03.6.02.23-.09.43,0,.48.04.03.04.03,0,.03-.08,0,.02.02-.07.13-.06.07-.06.08,0,.03.09-.07.09,0-.01.17-.17.31.1.03.05.48,0,.01-.04.04-.08.05-.1.03-.08.11-.04.08.05-.03.04.14.05.25,0,.09-.07.17,0,.21.03.02.02.04-.03.06-.06.03-.07.03,0,.03.17,0-.07.15.03.24.06.06.05.17-.02.19-.09.03-.07.14.02.12.09-.02.1.05.03.13-.04.04-.03.06.02.09.06.03.06.05,0,.12-.03.05-.05.1-.03.11.05.05.05.25,0,.31-.15.15.11.33-.03.28-.09-.03-.07.05-.03.05.06,0,.02.25.08.21.05-.03.07.1-.03.07-.05-.02-.06,0-.04.04.05.13-.08.17.02.32.05.07.05.1,0,.15-.05.06-.05.06.01.01.06-.05.07-.04.07.04,0,.05-.02.11-.03.14-.07.11.13.11.02.23-.08.09-.01.21.09.16.1-.05.12-.05.09.02-.03.07.05.18.14.17.15-.01.18,0,.11.06-.16.12.19.11.15,0-.02-.06.11-.15.15-.1.03.05.37-.07.37-.13,0-.07.11-.07.11-.01,0,.14.31-.15.43-.15.1,0,.04-.13.12-.02.07.09.05.02.43,0,.16,0,.31-.03.33-.05.06-.05.11,0,.05.06-.07.08.11.06.15,0,.02-.03.66-.23.5-.04-.08.09.18,0,.23-.04.12-.09.08.21.44-.11.23.3.27,0,.52.04.13.02.11-.2.21-.06.07.1.13.03.28,0,.09-.02.24-.22.28-.08.02.06.29.05.36-.01.04-.03.07-.03.14.01.09.06.22.05.22-.01,0-.02.02-.03.05-.02.1.03,0-.1.34-.1.17,0,.2,0,.17.04-.03.03-.03.05,0,.05.06,0,.07-.12.12-.09.02.01.02.04.01.06-.04.07.13.04.2-.04.08-.09.36-.13.36-.05,0,.06.1.07.12,0,.02-.07.08.02.18.03.12,0,.24,0,.21.06-.04.07.1-.09.2-.09.14,0,.05-.12.19-.04.16.1.22-.14.32-.02.07.08.27.04.27.09,0,.05.11.05.11,0s.08-.06.08.02.08.08.05,0c-.02-.04,0-.05.05-.03.05.02.06.01.04-.04-.02-.05-.01-.06.02-.03.06.05.23.09.2.05-.02-.03.14-.1.18-.02.04.08.14,0,.14.05s.31,0,.28.05c-.04.06.07.08.13.03.05-.05.29-.2-.01.05.07,0,.18-.01.21-.1.05-.13.18.16.22.07,0-.03.04-.04.06-.02.02.01.03.01.02,0-.03-.03.03-.17.11-.07.03.04.04.05.03.02-.04-.07.05-.1.14-.04.12.07.08.02.5-.03.29-.04,0,.14.27.09.26-.06.53-.08.53-.05,0,.08.32.11.49.04.17-.06.19-.06.22.03.03.1.18.09.1.04-.04-.02-.03-.04.03-.05.18-.05.11.15.29.03.12-.08.04-.02.23.07.12.06.13.06.13,0,0-.04-.02-.05-.05-.03-.07.04,0-.04.04-.05.05,0,.14-.07.21-.04.12.05.08-.14.23.04.18.21.2-.08.32.05.1.11.06-.09.19-.05.13.04.19-.08.69-.07.46.01.4-.1.46.01.05.09.15.1.18.02.02-.05.03-.05.09,0,.11.1.06-.02.18-.02.03,0,.05.02.04.04-.04.06.21-.02.21.05,0,.03.01.02.04-.01.06-.09,0,.04.11.04.06,0,.06,0,0-.04-.1-.07.09.03.16-.03.07-.06.32-.04.3.02-.01.05.04.03.15-.06.08-.07.16-.03.12.07-.04.12.13,0,.17-.07.03-.05.04-.05.1.03.03.05.06.07.06.05,0-.07.32-.09.37-.02.04.05.06.05.14,0,.17-.09.09.04.29.09.08.02.08.02.04-.02-.04-.03-.02-.04.1-.02.24.04.6.03.64-.02.06-.06.14-.05.12.01-.03.07.08.13.05.07-.03-.05.09-.08.19-.04.05.02.11.02.15,0,.1-.04,0,.05.05.08.07.04.05-.16.12-.05.03.05.04.04.06-.03.04-.14.16-.1.13.04,0,.05.1-.08.21-.03.16.07.5.04.48.12-.01.06.07.06.17-.01.09-.06.18-.04.14.03-.03.06.07,0,.04-.05-.04-.06.1-.04.16.02.06.06.21.05.3-.02.1-.09.13.1.22,0,.12-.12.19.11.31.11s.41-.25.35-.1c-.01.03,0,.06,0,.06.15.02.24.01.24,0,0-.06.31.12.24-.06-.03-.07.11-.08.08,0-.03.07.03.05.12.08.04.02.06,0,.06-.04,0-.05.01-.05.1,0,.13.07.22.02.38,0,.12-.01.16-.08.19,0,.04.1.51.04.51-.06,0-.05.1-.02.1.04,0,.1.11.11.18.03.1-.12.07,0,.22,0,.4.02.42.14.42.01,0-.11.09-.05.06.03-.03.07.1-.03.2-.1.03.12.03.16.11.12.23-.12.22.14.67-.2.33.23.12.1.26.06.11-.03.02.06.22.03.1-.02.13-.01.11.02-.02.02,0,.04.05.04.11,0,.04-.04.14-.08.05-.02.05-.01.02.03-.09.11.26-.02.27.09,0,.05,0,.05.02,0,.02-.08.17-.14.2-.07,0,.02.03.03.05.02.07-.05.15.12.18.03.02-.06.1-.07.07,0-.03.08.07.12.04.07-.03-.05.11-.23.15-.19.02.02,0,.05-.03.07-.07.05,0,.05.08-.01.03-.03.04-.03.03,0-.05.08.04.09.25.01.44-.16.5.11.5,0,0-.06-.09-.02-.05-.09.02-.03.03-.03.05,0,.04.06.27.1.27.05,0-.02.03-.03.08-.02.05.01.1,0,.15-.07.1-.12.09-.03.03.03-.09.09.15-.06.21,0,.08.08.15-.14.2-.02.04.1.14-.02.24.02.11.04.15-.15.19,0,.02.09.07.11.11.04.04-.06.43-.05.54.02.1.06.29.05.29-.02,0-.05.11-.05.12,0,.03.08.26-.08.26-.01,0,.02.09.15.26.06.12-.06.3-.07.34-.02.03.04.16.03.3-.03.32-.13.15.11.28.05.12-.05.4.01.49-.06.05-.04.07-.02.05.05,0,.05.18.03.22-.03.06-.07.15-.04.23-.02.03,0-.12.08-.05.08.08,0,.06-.11.14-.04.08.07.07-.07.23-.07.08,0,.09.01.05.05-.06.07.04.07.12,0,.04-.04.05-.04.02,0-.03.06.13.07.24.01.26-.13.28-.14.33-.06.1.13.05-.04.26.02.15.05.54.04.55-.01.03-.07.03.08.24-.03.13-.07.24-.06.21.02,0,.02.16.04.37.04.53,0,.51.08.55.02.03-.05.41-.04.55.02.08.03.26,0,.25-.05,0-.02,0-.04.02-.04.08-.01.11,0,.08.04-.05.08.17-.03.25.04.03.03.04.03.04,0,0-.03.03-.04.09-.02.18.04.23-.12.31-.01.08.11.34-.07.4.01.05.08.62.04.62.09,0,.04.28.02.36-.03.05-.03.1-.03.16,0,.12.05.18-.03.15.03-.05.07.04.09.21.03.2-.07.27-.07.27,0s.03.07.12,0c.06-.05.07-.05.15.03.16.17.37-.06.54.04.15.1.37-.14.56-.02.14.09.42-.04.45-.07.05-.07.16.12.25.04.07-.06.12,0,.05.04-.07.04.02.1.06.02.04-.08.13-.04.1.05-.03.09.14-.11.14-.17,0-.03.01-.05.03-.05.07,0-.03.24.08.2.12-.04.14-.2.21-.13.03.03.03.05-.01.08-.05.03-.04.04.01.02.1-.03.14,0,.14-.09,0-.04.01-.05.02-.02.01.03.04.04.06.03.06-.04.25.15.22.05-.03-.07.12-.08.12.01,0,.09.07.09.11,0,.04-.09.14-.11.11-.03-.02.06-.02.06.27.01.07-.01.13,0,.11.04-.03.04.14.04.16-.03.03-.08-.05.02-.09-.05-.04-.06.01.03.11-.06.05-.04.07-.05.06-.01-.02.07.15.1.08.02-.04-.04-.02-.05.08-.01.2.07.59.04.76.09.2.05.25-.11.38.02.07.07.09.07.14.02.07-.06.69-.08.69-.03,0,.03.17-.03.36-.12.08-.04.12-.04.13,0,.02.06.11-.01.17.04.08.06.12,0,.25,0,.15-.02.14-.15.39-.03.09.04.11.04.21-.03.14-.1.47-.14.41-.05-.03.05.07.05.13,0,.04-.04.06-.04.09.01.12.15.37-.13.37-.06,0,.02.04,0,.1-.04.1-.07.17-.05.17.03,0,.07.23.05.23.02,0-.08.52-.17.93.05.11.06.21.08.41.08.14,0,.27.01.28.03.04.06.06-.05.27.07.2.12.18.02.25.06.03.02.03.04,0,.06-.04.02-.02.03.05.03.16,0,.19-.14.19-.02,0,.13.24-.11.18.04-.02.04.08.06.16.02.01,0,.03,0,.05,0,.08.01.05-.12.16-.01.05.05.07.06.09.02.01-.04.02-.04.05,0,.04.07.34.05.32.08-.02.03.13.08.16.03.03-.05.21,0,.21-.03s.36-.07.43-.1c.09-.04.29.24.23.09-.03-.08.14-.03.17-.1.02-.06.2.1.2.05,0-.04.07.06.16.06.05,0,.07.02.05.06-.03.08.05.07.11,0,.05-.06.05-.06.03,0-.03.09.06.09.06,0,0-.05,0-.05.06-.01.17.14.38-.06.33.05-.04.1.29-.04.24.05-.03.05.14-.01.24-.08.03-.02.05-.02.05,0,0,.06.5-.02.5.03,0,.04.39.04.45,0,.02-.01.06,0,.09.04.06.08.18.1.18.03,0-.06.05-.07.1-.01.03.03.07.03.13-.02.18-.13.22.18.33.03.03-.04.05-.05.05-.02,0,.06.24.05.21-.02-.02-.06.04-.08.07.04.02.07.03.08.06.03.03-.05.04-.05.08,0,.05.08,0-.02.12-.03.11,0,.27.09.23.15-.02.03,0,.02.04,0,.08-.06.24-.11.12-.02-.1.07,0,.09.08-.04.06-.1.06-.1.13-.02.04.04.06.11.05.14h0c-.03.09.17-.33.17-.28,0,.05.12-.08.12-.13,0-.02-.02-.03-.04-.02-.06.03.09-.22.12-.19.03.02.02-.09-.02-.12-.05-.05-.03-.13.02-.11.03.02.04.01.02,0-.06-.06.09-.18-.02-.25-.04-.02-.05-.04-.02-.04.07,0,.09-.27.03-.4-.07-.14-.07-.24,0-.27.04-.01.03-.03,0-.06-.05-.03-.05-.05,0-.1.04-.05.04-.06,0-.06-.08,0-.11-.16-.05-.23.06-.07.09-.33.04-.43-.05-.12.14-.22,0-.17-.12.05,0-.06-.06-.15-.03-.04-.02-.07.05-.14.1-.1.1-.16-.01-.41-.03-.08,0-.24.04-.21.02.01.04,0,.04-.05.01-.12.14-.61.04-.59-.07.01-.02-.16-.05-.26-.02-.09.07.02.1-.18.05-.28.15-.29.05-.37-.1-.07-.04-.13-.11-.2-.05-.05-.04-.05.06-.06.03,0,.05-.06.05-.16,0-.21.07-.2.05-.37-.02-.29.19-.22-.08-.36l.08-.04c.1-.05.11-.19.02-.19-.05,0-.06-.02-.04-.09.04-.17-.16-.15.03-.23.15-.07.04-.39.02-.41-.07-.04.19-.18.06-.17-.1,0-.11-.08-.02-.11.09-.03.11-.2.04-.27-.04-.04-.01-.17.04-.17.02,0,.02-.09.02-.2-.03-.39.19-.17.05-.4-.09-.15,0-.22,0-.18,0,.04.08-.1.04-.22-.05-.13.05-.26,0-.26-.04,0,.11-.15.03-.1-.06.03-.06,0,0-.18.02-.08.06-.13.08-.12.06.04-.04-.13-.08-.16-.04-.02.19-.53,0-.58-.11-.03-.09-.08,0-.13.09-.06.11-.16.02-.13-.15.06.08-.26.03-.45-.05-.2.17-.29.02-.37ZM9.49,2.5s-.08-.08-.02-.08.04.08.02.08ZM13.49,1.66c-.05,0-.05-.08,0-.08s.05.08,0,.08ZM13.85,2.27c.03-.05.15-.05.11,0-.03.05-.15.05-.11,0ZM15.05,2.27c-.05.07-.05,0,0-.08.05-.07.05,0,0,.08ZM16.53,1.38s.04.03.03.05c-.07.12-.12-.09-.03-.05ZM26.48,1.71c-.07.07,0-.1.03-.07.01.01,0,.04-.03.07ZM34.73,1.2c-.06,0,0-.08.02-.08s.03.08-.02.08ZM45.23,1.45s.05,0,.04.02c-.04.07-.17.03-.04-.02ZM49.35,2.27c-.1,0,.02-.05.05-.02.01.01,0,.02-.05.02ZM51.1,1.56c-.11.04.02-.07.05-.05.01.01,0,.03-.05.05ZM51.55,1.62s.01.01.02.02c-.01,0-.04,0-.04-.02-.01-.05-.01-.05.02,0ZM52.83,1.66c-.08,0-.08-.08,0-.05.08.03.07.05,0,.05ZM56.61,2.46c-.08,0-.07-.02,0-.08.09-.07.07.08,0,.08ZM59.1,2.84s.17-.04.17-.02c0,.03-.15.05-.17.02ZM60.76,3.8c-.05,0-.05-.08,0-.08s.05.08,0,.08ZM61.22,11.95c.03-.06.04-.05.04.04,0,.2-.1.07-.04-.04ZM2.61,20.32s.05,0,.01.07c-.06.12-.07.12-.09.05-.03-.07,0-.11.08-.12ZM2.86,10.22s-.04.03-.03-.05c.01-.19.12-.1.03.05ZM2.12,3.88c-.09,0-.16-.23,0-.07.06.06.06.07,0,.07ZM2.21,3.8c0-.05.13-.05.1,0-.03.05-.1.05-.1,0ZM6.89,24.63s.1-.02.1.02c0,.02-.13.03-.1-.02ZM11.29,24.4s-.08-.08-.02-.08.04.08.02.08ZM51.74,25.37c-.05.03-.05-.04,0-.08.05-.03.05.04,0,.08ZM55.31,25.85c.05-.03.23-.17.24-.11.02.06.01.06-.24.11ZM60.65,24.53c-.06.08-.08.13-.08.07,0-.04.18-.21.08-.07ZM61.92,10.64s-.04.09-.07.04c-.03-.05.04-.09.07-.04Z"/>
  <path d="M26.16,24.73s0-.05-.02-.05c-.09-.03,0,.03.02.05Z"/>
  <path d="M25.91,1.72c0-.06-.1-.01-.14.07-.02.05-.04.1-.03.1.02,0,.17-.14.17-.17Z"/>
  <path d="M27.32,24.67s.02.06.06,0c.03-.05-.06-.05-.06,0Z"/>
  <path d="M61.37,24.13c-.06.09.12.24.06.03-.02-.06-.03-.07-.06-.03Z"/>
  <path d="M2.73,20.04c-.03.05.06.05.06,0,0-.04-.02-.06-.06,0Z"/>
  <path d="M.86,3.11s.07.05.04,0c-.03-.05.08-.03.05-.06-.03-.03-.11.02-.08.06Z"/>
  <path d="M1.67,24.65s-.03,0-.05.05c-.04.11.07-.02.05-.05Z"/>
  <path d="M16.24,25.35s.06-.02,0-.06c-.05-.03-.05.06,0,.06Z"/>
  <path d="M8.08,25.21s-.04,0-.07.03c-.07.07.1,0,.07-.03Z"/>
  <path d="M.54,2.73s.05.03.05.03c0,0,.02-.11-.05-.09-.04.02-.05.03,0,.05Z"/>
  <path d="M52.2,1.49s-.11-.07-.11-.02.11.04.11.02Z"/>
  <path d="M33.21.92s-.04,0-.06.01c-.03.05.15.05.06-.01Z"/>
  <path d="M50.1,1.57s-.11-.07-.11-.02.11.04.11.02Z"/>
  <path d="M34.96.97c0-.05-.09-.05-.06,0,.04.06.06.04.06,0Z"/>
  <path d="M51.97,1.49s-.11-.07-.11-.02.11.04.11.02Z"/>
  <path d="M27.6.91s-.07-.01-.1,0c-.06.03.16.03.1,0Z"/>
  <path d="M15.05,1.45s.02-.05.04-.07c.07-.04-.03-.06-.09.05-.07.12.05.05.04.02Z"/>
  <path d="M10,1.71s-.05-.01-.07,0c-.07.03.1.03.07,0Z"/>
</svg>