<?xml version="1.0" encoding="UTF-8"?>
<svg id="Layer_1" data-name="Layer 1" xmlns="http://www.w3.org/2000/svg" viewBox="0 0 24.96 60.98" fill="#2c2013" preserveAspectRatio="none">
  <path d="M.01,48.8s-.02.02.02.02c.1,0,.04-.05-.02-.02Z"/>
  <path d="M.11,47.8s-.09-.17-.08-.05c0,.08.05.1.08.05Z"/>
  <path d="M0,49.32s.04.05.08,0c.03-.05-.11-.05-.08,0Z"/>
  <path d="M.44,40.49c-.05.08-.05.15,0,.08.05-.08.05-.15,0-.08Z"/>
  <path d="M.59,32.28c0,.05.03.04.05-.02.03-.08-.05-.02-.05.02Z"/>
  <path d="M.52,40.3c-.05,0-.04.08-.02.08s.08-.08.02-.08Z"/>
  <path d="M.58,39.29c0-.07-.05-.08-.08,0-.03.08.08.08.08,0Z"/>
  <path d="M24.43,21.58c.1-.03-.2-.13-.05-.85.04-.2-.08-.45-.03-.49.05-.04,0-.96.07-.96.02,0,0-.03-.05-.06-.08-.06-.08-.07-.02-.13.11-.13-.04-.06.02-.32.05-.23-.07-.2-.02-.31.05-.12.05-.17,0-.15-.04.01-.04-.02,0-.17.07-.28-.04-.28.02-.38.03-.05.02-.08-.03-.1-.06-.04-.06-.04,0-.11.14-.15-.05-.22.02-.65.06-.39-.06-.24-.01-.39.02-.05,0-.08-.02-.08-.07,0-.04-.11.03-.13.11-.03.04-.12.04-.31,0-.16-.11-.1-.02-.28.07-.13.08-.23.02-.23-.07,0,.04-.5-.06-.5-.07,0-.06-.08.02-.14.09-.07-.06-.13-.01-.18.03-.03.03-.55.06-.58s-.05-.31-.04-.4c.01-.12-.07-.15,0-.27.06-.12-.03-.16-.02-.3.01-.13-.09-.05-.09-.15,0-.03.02-.05.04-.04.02.01.04-.01.04-.05,0-.13.11-.09.03-.19-.03-.04-.04-.05,0-.03.03.02.03,0,0-.07-.05-.1-.04-.34.02-.31.05.03.02-.08-.03-.14-.08-.1.03-.65-.04-.7-.06-.04-.05-.17.01-.17.03,0,.05-.03.05-.06,0-.09-.1-.04-.03-.1.07-.07-.06-.17-.01-.21.04-.04-.08-.09-.02-.29.03-.08.03-.13,0-.16-.05-.05,0-.38.07-.43.11-.09-.21.02-.13-.04.08-.06.05-.53.05-.57,0-.05-.02-.08-.06-.06-.08.03-.07-.09.01-.14.09-.05,0,0,.05-.15.11-.28,0-.18.01-.51,0-.18-.01-.26-.07-.32-.04-.05-.05-.09-.03-.09.06,0,.02-.13.08-.09.05.03-.07-.2-.09-.42-.02-.24-.09-.32-.03-.28.08.05-.05-.11.01-.22.06-.11-.08-.13-.01-.46.04-.21.02-.59-.03-.63-.05-.03-.04-.21,0-.21,0,0-.11-2.3-.15-2.34-.06-.06-.05-.11.02-.09.08.03.07-.05.02-.05-.05,0-.02-.53-.06-.72-.02-.08-.01-.12,0-.11.05.03.01-.16-.05-.26-.12-.2.06-.44-.03-.67-.09-.22.04-.44-.03-.4-.04.03-.04-.07-.05-.14,0-.08-.1-.27-.14-.27-.04,0-.1-.02-.14-.03-.05-.02-.1.02-.08-.05.03-.07.13-.02.16-.08.03-.08-.23.02-.27-.08-.03-.08-.28-.07-.31,0-.03.08-.07.07-.12-.04-.04-.08-.06-.09-.21-.09-.09,0-.19.03-.21.04-.07.04-.17-.05-.07-.05.06,0,.15-.08-.31-.08-.21,0-.35-.02-.38-.05-.04-.04-.05-.03-.05,0,0,.09-.19-.03-.44-.05-.11,0-.04-.11-.11-.08-.09.03-.64.04-.64.01,0-.06-.12-.03-.2.03-.07.06-.07.06-.05,0,.03-.09-.07-.12-.17-.05-.13.08-.09-.02-.38-.02-.14,0-.18.01-.18.06,0,.08-.02.07-.16-.02-.26-.18-1.78-.01-1.69-.16.02-.03-.02,0-.08.06-.09.1-.11.1-.17.05-.1-.09-.22-.11-.3-.05-.08.06-.15.08-.11.02.01-.02-.01-.03-.05-.02-.13.03-.09-.1-.18,0-.06.06-.15.08-.11.02.06-.1-.28-.15-.28-.07,0,.05-.23.09-.23,0,0-.08-.08-.07-.08-.02,0,.04-.14.05-.16,0-.02-.04.02.06-.03.09-.05.03.01-.05-.17-.04-.07,0-.12,0-.11-.03.01-.02-.05-.02-.13,0-.3.06-.93-.03-.96.05-.02.05-.2.05-.2,0,0-.02-.07-.02-.16,0-.24.04-.37-.03-.42.04-.05.09-.24-.14-.43.03-.12.11,0-.04-.37-.02-.13,0-.23,0-.23-.01,0-.04-.2,0-.26.05-.07.06.02.11-.05.11s0-.11-.13-.11c-.05,0-.1-.02-.12-.04-.04-.04-.21,0-.21.04,0,.02-.04.02-.09,0-.06-.02-.12-.02-.18.01-.18.09-.16-.09-.31-.01-.15.08-.11-.16-.3-.06-.1.05-.38.05-.5,0-.13-.06-.15.14-.25.03-.14-.15-.35.07-.35-.02,0-.03-.05-.03-.13-.02-.24.04-.32-.1-.54-.02-.15.06-.17-.09-.42-.04-.17.04-.27.02-.35,0,.02,0,.04-.01.05-.03.03-.05-.1-.05-.1,0,0,.02.01.03.03.03-.14-.04-.17-.12-.13-.02.01.04.01.07,0,.07-.14.03-.2.02-.2-.03,0-.08-.34-.03-.32,0,.02.04-.09.05-.11-.02-.01-.03-.03-.03-.05,0-.04.05-.28.07-.28.03,0-.04-.38-.06-.38-.01,0,.06-.23.02-.23.09,0,.03-.01.03-.03,0-.06-.1-.34.04-.35-.05,0-.03-.01-.03-.02-.01-.03.06-.51,0-.51.06,0,.03-.02.03-.05,0-.04-.03-.09-.03-.22,0-.32.09-.02-.06-.83.04-.08,0-1.24.13-1.32.19-.03.03-.44.11-.44.04,0-.08-.17.1-.24.05-.02-.02-.03,0-.02.01.02.04-.13.07-.47.11-.15.02-.1.11-.25.08-.15-.04-.09.05-.24.05-.13,0-.16.13-.38.14-.22.01-.57.21-.66.21-.03,0-.07.03-.08.08-.02.08-.11.1-.13.04-.02-.06-.12,0-.19.11-.05.08-.06.09-.07.04,0-.09-.12-.03-.12.03,0,.08.11.03.11.09,0,.06.19.07.05.07-.09,0-.16.08-.08.08.04,0,.03.01,0,.04-.11.07.07.02.13.08.04.04-.18.04-.15.13.02.06.24.16.3.14.02,0,.07-.02.11-.03.43-.08.35-.17.47-.17.15,0,.86-.41.71-.18-.04.06.07,0,.04-.05-.05-.07.44-.07.44-.12,0-.02.02-.02.05,0,.07.03.22-.05.19-.1-.03-.05.15-.05.12,0-.09.14.32-.14.64-.12.15,0,.11-.07.24-.07.27,0,.2-.17.51-.06.27.09-.01-.05.35-.08.23-.01.36-.08.44-.01.1.08.29-.1.36-.03.04.04.2-.02.2-.09,0-.03.02-.03.06,0,.08.07.39.01.42.05.05.05.36-.1.44,0,.04.05.23-.01.23-.07,0-.05.01-.05.06,0,.09.07.07-.02.17.04.13.07.1-.15.19-.05.06.06.2.06.3,0,.06-.04.09-.04.14.02.13.13.3-.12.33.02.02.1.37.07.37.04,0-.03.73-.08.76,0,.02.06.1.05.07,0-.05-.08.54-.03.54-.03.18.01.05.04.25.1.16.05.06.01.12-.05.1-.1.18.12.3-.02.11-.14.02.04.32.02.09,0,.16,0,.15.02-.03.04.1.04.1,0,0-.04.11-.05.19-.02.11.04.76.05.76,0,0-.02.03-.04.08-.04.11,0,.06.09.12.06.1-.06,2.32-.02,2.37-.1.06-.09.07.08.24,0,.19-.09.11.08.31,0,.22-.08.6.08.6,0,0-.05.12-.05.1,0-.02.06.13.05.1.01-.03-.04.1,0,.1-.09s.02-.07.16.02c.1.07.12.08.23.02.21-.11.2.05.35.05.08,0,.09.07.08.01-.01-.06.14-.16.14-.07s.12.11.2.04c.06-.05.09-.06.15-.02.1.06.42.06.42,0,0-.04,0-.04.02,0,.03.07.2.06.27-.01.04-.04.07-.05.08-.02.02.06.62.06.62,0,0-.05.05-.05.18,0,.16.06.34,0,.37.07.03.05.09.01.29-.01.24-.03.26-.1.29.01.05.19.31-.04.59.03.08.02.14.02.13,0s0-.03.04-.03c.09,0,.02.08.16.08s.05-.06.21-.06c.06,0,.11.01.11.03,0,.04.26.02.39.07.15.06.66.07.65.01-.01-.05.03-.06.09-.02.07.06.46.16.53.14.04-.01.12.01.2.06.15.09.14.08.36-.03.13.29.27.56.16.6-.06.02.09.12,0,.12-.07,0,.1.29.03.25-.05-.03-.05.03.02.11.08.11-.02.2.03.37.08.22-.09.5.01.54.09.04,0,.88.07.93.04.03.05.39.01.39-.01,0-.03.03-.04.08-.02.09.04,0,.03.22-.01.3.15.49.08.6-.06.11.06.07,0,.26-.04.16-.04.3,0,.28.05-.03.09.05.05.11-.05.06-.05.37,0,.43.02.03.02.13,0,.27-.09.61.07.75.05,1.1-.01.3.15.2.08.3-.11.15.08.46-.04.79-.11.31.02.05,0,.89-.01.44,0,.52.04.52.06,0,.07.08.02.14-.1.1.03.76-.05.8-.03.02-.03.04,0,.06.04.02.04.07,0,.24-.07.28.01.24-.05.32-.04.05-.04.05,0,.03.09-.06-.02.07.06.19.05.07.04.48-.02.52-.06.05.11.89.07,1.11-.02.13-.02.19.02.23.03.03.04.07.03.08-.04.04-.06.46-.02.5.02.03.02.12-.01.23-.12.47.14.54,0,.5-.08-.03-.08,0,0,.13.05.07.05.11.02.16-.05.09-.06.19,0,.19.03,0,.03.03,0,.08-.06.12.02.15-.04.28-.06.1-.02.04-.01.63,0,.67.13.52.05.67-.05.09-.06.38-.01.49.01.03,0,.11-.01.16-.05.13-.01.73.05.76.03.02.02.08-.04.2-.17.34.11.26-.03.71-.03.1.11.22.05.32-.06.11-.06.29,0,.33.03.02.05.05.03.08-.04.06-.04.43-.09.53-.03.06-.03.09.01.12.06.05.05.38-.02.61-.08.28.13.16,0,.48-.08.19.07.01-.01,1.08-.01.15,0,.2.04.2.08,0,.06.06-.03.16-.06.06-.07.09-.03.11.09.05-.04.6.04.56.05-.03.06.07-.03.05-.14-.04-.02.69-.05.86-.06.25.08.16.02.28-.09.22.15.27,0,.22-.08-.02-.08-.02-.04.07.03.07.03.15-.02.32-.07.28-.01.29-.06.29-.05,0,0,.15.04.15.06,0-.02.24.02.28.04.04.05.29.01.32-.02.01-.01.04.03.07.07.05.07.05,0,.08-.08.03-.09.12-.02.15.03.01.03.03,0,.05-.06.05-.19.3-.14.27.06-.04.1.12.04.19-.04.04-.03.06.02.06.17,0-.09.2-.09.36,0,.06,0,.06.03.02.07-.12.11.23.03.35-.08.12-.11.26-.05.25.06-.01.08.15.03.21-.02.03-.03.13-.02.22.02.26-.08.17-.02.33.02.06.03.14,0,.18-.06.13-.04.56.02.61.04.03.04.06.01.1-.06.08-.09.29-.05.32.06.04-.04.25.03.25.05,0,0,.11-.04.04-.06-.1-.08.04-.02.15.04.09.05.13.02.17-.07.08.04.25-.04.35-.1.12.15.1.05.22-.07.09-.05.48-.09.48-.03,0-.05.08.03.05.14-.06-.06.35.03.44.03.03.02.06-.03.09-.06.04-.07.1-.08.32,0,.21,0,.26.04.23.07-.06.01.12-.02.1-.01,0-.03.04-.03.11,0,.41-.1.65,0,.69.14.05-.1.13-.02.3.08.15-.1.25,0,.36.04.05.03.07-.05.06-.04,0,0,.2.05.23.02.01.01.03-.02.05-.05.02-.05.04-.02.12.08.18-.14.31-.04.43.06.07.08.17.04.17-.04,0-.08.16-.04.13.04-.03.05.11,0,.08-.03-.02-.03-.01-.02.02.04.07-.09.2-.09.28,0,.04,0,.04.03,0,.05-.08.07.02.06.25-.03.35.17.18.07.36-.04.07-.04.08,0,.05.03-.02.02,0-.02.05-.1.11-.13.43-.05.49.1.07-.03.25-.08.25-.06,0-.06.09,0,.06.02-.01.04.02.04.08,0,.15.06.3.01.27-.05-.03-.05.23-.03.17.02-.05.16-.12.03.13-.27.51,0,.31-.03.65-.02.27.09.33,0,.46-.09.14-.11.35-.05.39.06.03.05.2-.01.2-.05,0-.08.19-.03.27.06.1.08.62.03.74-.02.06-.02.09,0,.09.06,0,.04.15-.02.18-.07.03-.03.04.1.14l-.18.16h.09c.09.03.12.13.03.13-.08,0-.12.31-.04.37.08.06.08.11,0,.08-.05-.02-.05-.01,0,.06.07.08.07.08,0,.13-.06.05-.1.22-.04.21.2-.03-.09.14,0,.19.05.03.05.39,0,.39-.06,0-.02.15.04.19.07.04.07.05.01.16-.09.18-.07.68.02.86.09.16-.1-.02-.05.1.03.09-.06.29-.02.38.07.12-.1.28,0,.4.06.07.05.18-.02.3-.05.07-.02.25.04.25.04,0-.07-.12.03-.04.07.05.07.06,0,.11-.04.03-.07.07-.06.1.02.12-.15.09-.05.2.06.06.08.22.02.18-.07-.04-.02.07.05.13.07.05.09.14.02.1-.03-.02-.03,0,0,.05.06.12-.1.46.01.36.08-.07.05.13-.01.12-.06,0-.06.28,0,.34.05.05.05.19,0,.24-.07.07-.09.43-.02.45.18.07-.21.86-.08.86.05,0-.06.17.05.13.12-.04,0,.4.06.4.05,0,.02.12-.04.16-.12.08.13.03-.03.21-.12.13.02.08-.03.14-.02.03,0,.04.04.02.1-.04.05.07-.03.06-.11-.02.01.09-.06.22-.03.06-.03.07.01.06.07-.03.12.05.06.12-.06.07-.06.29-.09.53-.03.23.09.25.02.25-.06,0-.02.12-.08.18-.06.06.05.18,0,.3-.05.13.08.2,0,.3-.04.05-.04.06.01.08.05.02.05.03,0,.08-.08.08-.07.28,0,.28.07,0,.08.1.02.14-.06.03.02.08-.06.26-.06.15-.08.5-.02.46.07-.04.08.12.03.28-.07.19,0,.09.03.18.01.03,0,.06-.01.06-.05,0-.07.24-.03.33.03.06.03.11,0,.17-.04.1-.02.19.03.16.04-.03.06.06-.03.06s0-.04.04.48c.03.47.07.42,0,.48-.19.16.15.32-.04.25-.13-.05.02.02.02.14s.08,0,.02.25c-.07.26.01.14.01.59,0,.42.12.48.04.43-.06-.03-.02.04.07.15.11.12-.07.28.02.31.03.01.03.03,0,.08-.1.12.1.13.08.27,0,.04,0,.07.03.07.03,0,.03.03,0,.1-.09.2.11.07.02.26-.04.1-.04.16.04.32.05.1-.02.17-.15.14-.11-.03-.2.11-.26.06-.17-.13-.52.02-.61-.06-.05-.05-.26-.06-.23-.01.01.02-.04.02-.13,0-.27-.05-.4,0-.37-.08.03-.09-.31-.06-.36,0-.07.07-.31-.04-.54-.07-.44-.05-.69-.13-.69-.02,0,.05-.01.05-.06-.02-.07-.09-.21-.11-.18-.02.03.08-.04.02-.33-.02-.1-.01-.16-.04-.16-.08,0-.07-.09-.07-.15,0-.07.08-.18.07-.2-.02-.02-.09-.18-.1-.3-.03-.06.04-.09.04-.15,0-.07-.04-.29-.04-.34,0-.04.04-.18.03-.29-.03-.11-.06-.24-.04-.2.02.03.05-.05.04-.14-.01-.06-.04-.1-.04-.2,0-.21.08-.4-.06-.44-.01-.03.03-.12-.14-.12-.06,0,.07-.09.06-.06.01.03-.04-.21.04-.18.08.03.05-.04.04-.1-.02-.03-.03-.04-.03-.03,0,.03.05-.09.11-.12.07-.01-.01,0-.03.02-.04.09-.03.05-.08-.08-.07-.17.01-.18-.1-.18-.02,0,.06-.16.02-.2-.05-.02-.03-.03-.02-.03.02,0,.07-.04.08-.41.08-.28,0-.15.07-.3.07-.05,0-.1-.02-.1-.05,0-.04-.19-.05-.68-.03-.17,0-.08.23-.19.09-.03-.04-.05-.05-.05-.02,0,.05-.08.05-.12,0-.05-.06-.32-.11-.37-.07-.07.06-.14-.03-.11.04.03.07-.3.06-.38,0-.08-.07-.17,0-.52.02-.32.02-.37.03-.43.08-.03.02-.07.03-.08.02-.04-.04-.28-.04-.59-.06-.15-.01-.2,0-.2.04,0,.1-.23.02-.17-.06.02-.04,0-.04-.08-.02-.17.04-.34.02-.34.09,0,.08-.17.03-.22-.06-.04-.06-.34-.03-.47.05-.06.04-.09.04-.11,0-.02-.03-.04-.03-.06,0-.08.13.05-.25-.22-.04-.17.14-.06,0-.19-.05-.08-.03.02.04-.11.08-.15.04-.08-.06-.31-.06-.23,0-.28.01-.28.07s-.05.07-.09.02c-.06-.06-.24.02-.22-.1.01-.07-.05-.09-.08-.02,0,.02-.07.04-.13.04-.17,0-.23.17-.27.11-.04-.06-.17-.02-.17-.08s-.15-.02-.15-.08c0-.03-.01-.04-.04,0-.03.03-.06.03-.1-.02-.05-.06-.05-.06-.03,0,.04.12-.18.02-.23.11-.03.05-.29.04-.33-.01-.06-.09-.56.02-.59-.03-.04-.07-.23.08-.26-.02-.04-.11-.18.09-.34.04-.13-.04-.14.01-.18-.06-.05-.07-.36-.03-.35-.09,0-.04-.35.01-.44.07-.03.02-.05,0-.05-.03,0-.15-.16.05-.29,0-.13-.05-.32.02-.32-.07s-.16.01-.24-.06c-.09-.07-.35.06-.39-.03-.02-.06-.14-.07-.14-.02,0,.05-.12.09-.15.05-.04-.06-.18-.03-.16-.13.03-.16-.44.09-.55-.05-.06-.09-.54-.12-.69-.04-.11.06-.22.04-.19-.04.01-.03-.02-.04-.1-.03-.1.02-.11,0-.1-.06.03-.12-.06-.04-.02-.17.04-.12.02-.33.05-.31.03.02.03-.21-.01-.24-.05-.03-.04-.18.02-.15.03.02.03.01.02,0-.05-.05-.18,0-.21-.09,0-.03,0-.04.02-.03.02.01.03-.03.03-.11,0-.22.07,0,.09-.38-.04.06-.12.2-.1.12.01-.04,0-.07-.03-.07-.03,0-.03-.01,0-.03.03-.02.04-.05.02-.09-.03-.04-.02-.04.03,0,.08.06.09,0,0-.08-.09-.09-.05-.28-.11-.36-.05-.06.05-.07.02-.15-.01-.04,0-.05.03-.05.08.02.06-.13-.03-.22-.2-.19,0-.2-.03-.3-.03-.07.12-.16.07-.19-.05-.03,0-.23-.07-.36-.08-.13.02-.15,0-.33-.01-.17.12-.29.06-.29-.06,0,.03-.08-.04-.08-.06,0,.03-.05-.04-.18-.09-.17.07-.09,0-.27-.04-.11-.02-.22.04-.18.02.01.03,0,.02-.04-.05-.12-.16,0-.11-.15.06-.2.05-.33-.01-.35-.06-.02-.06-.03,0-.07.08-.07.02-.19.12-.5-.12.2-.12.21-.1.04.02-.23.06-.33.12-.31.07.03.07-.05,0-.05s-.11-.12-.07-.1c.04.03.03-.24,0-.22-.12.08.22-.36.03-.43-.08-.03-.02-.06,0-.47.02-.4.08-.36,0-.48-.07-.11-.08-.21-.01-.21.03,0,.03-.01,0-.04-.09-.06.03-.02.01-.36,0-.13,0-.22.03-.22.06,0-.07-.11-.02-.12.02,0,0-.02-.03-.04-.08-.04-.05-.19.03-.19.04,0,.05-.01.01-.05-.03-.04-.03-.06.04-.08.08-.02.08-.03.02-.07-.07-.05-.07-.21,0-.19.02,0,.03-.03.02-.09-.03-.13-.05-.02-.14-.11-.08-.08-.03-.26.08-.28.11-.02.1-.1.03-.07-.16.06.1-.13.02-.13s.07-.15,0-.15c-.06,0-.08-.12-.04-.19.03-.05.03-.07,0-.07-.04,0-.03-.01,0-.05.07-.06.05-.11.09-.26.03-.12,0,0-.08,0-.05,0-.05,0,0-.03.05-.03.04-.04,0-.1-.15-.15.05-.21.02-.55-.02-.25.12-.28,0-.26-.09.02-.14-.07-.06-.13.08-.07.03-.15.11-.15.04,0,.05-.02.02-.09-.05-.14-.16-.02-.07-.15.09-.14,0-.14,0-.24,0-.02.02-.01.04.02.05.08.05-.03,0-.05-.04-.03-.08-.2-.05-.23.02-.02.11-.29.05-.29-.07,0,.07-.22,0-.26-.06-.04,0-.45.08-.66.04-.09-.07-.08-.03-.02.02.03,0,.02-.04,0-.06-.05-.06-.06,0-.07.09-.02.02-.36.02-.39,0-.03,0-.05.04-.05.04,0,.05,0,0-.05-.07-.08,0-.23-.07-.29-.04-.04-.04-.05.01-.11.16-.18-.04-1.18.1-1.36.08-.1-.12-.2,0-.29.15-.11-.14-.08.03-.22.15-.13-.04-.05-.04-.18,0-.05,0-.06.04,0,.02.03.04.04.04.02,0-.08-.11-.09-.05-.18.08-.12,0-.33.1-.28.09.05-.06-.04,0-.14.03-.05.02-.07-.02-.09-.07-.03-.08-.24-.01-.26.03,0,0-.05-.05-.1-.08-.07-.08-.09-.04-.12.09-.06.2.04.1-.07-.09-.1-.08-.13.02-.12.07.01.09,0,.09-.09,0-.14-.07-.08-.04-.02.06.12-.2-.2-.04-.2.06,0,.06,0,.01.04-.05.04-.05.04,0,.03.08-.02.1-.21.03-.29-.03-.03-.03-.05,0-.04.03.02.05-.02.06-.11.03-.27-.15.03-.11-.21.01-.07,0-.11-.03-.11-.03,0-.03-.01,0-.02.04-.01.03-.03-.02-.07-.09-.06-.02-.15.07-.09.05.03.05.04,0,.02-.08-.03-.09.04-.01.07.13.05.16-.31.03-.2-.09.08-.01-.06-.1-.09-.07-.02.04-.01.02-.51-.01-.46.08-.44.03-.44-.06,0-.13-.18-.09-.21.02-.01.04-.07.04-.13,0-.15.09-.15.06-.19-.09-.15-.1-.55.03-.47.05.03-.06-.14-.02-.14.05,0-.07-.03-.04-.24.02-.12.01-.14-.05-.14-.12,0,.04-.07.07-.05.01,0,.02-.14.01-.34-.02-.47,0-.59-.08-.64-.06-.03-.05-.04.04-.04.09,0,.1,0,.07-.08-.07-.13.04-.05.02-.51,0-.24,0-.3.05-.33.04-.02.04-.04.01-.04-.07,0-.14-.15-.1-.22.05-.1.05-.36,0-.45-.08-.16.15-.28.02-.34-.05-.02-.05-.03-.02-.05.03,0,.04-.03.03-.05-.04-.06.12-.03.06-.16-.08-.15.13-.38-.05-.38-.08,0-.02-.12.01-.1.08.05.14-.24.08-.24-.08,0,.1-1.13.13-1.15.03-.02.1-.16-.02-.13-.08.03-.1-.04-.03-.09.07-.05.07-.16,0-.17-.05,0-.04,0,.01-.03.1-.04.1-.11-.01-.26-.18-.24.04-.12.06-.41,0-.09,0-.1-.03-.06-.03.05-.04.04-.02-.04.04-.13,0-.37,0-.53,0-.13-.11-.05-.01-.16.04-.04.06-.11.05-.15-.02-.07.07-.15.12-.1.03.03-.06-.02-.05.16,0,.08,0,.17-.03.19s-.03.06-.01.07c.03.03.1-.19.15-.15.06.04-.03-.13.04-.15.07-.02-.09-.12-.09-.18,0-.05-.08,0-.1-.06-.03-.07.08.02.12-.05.05-.08-.13.02-.13-.08,0-.02.02-.03.05-.02.04.01.05,0,.03-.07-.03-.15.15-.24.02-.2-.07.03-.09-.03-.03-.07.02-.01.03-.05.02-.09-.05-.11-.06-.47-.02-.52.02-.03.03-.08,0-.14-.03-.09,0-.39.06-.01.02-.39-.01-.11-.09-.38-.06-.19.03-.09,0-.22-.03-.11-.02-.18-.06-.16-.02,0-.04,0-.05-.02-.03-.05.04-.18.08-.16.03.01.13-.21.05-.26-.03-.02-.04-.05-.02-.08.04-.06.05-.42,0-.4-.06.04.04-.17-.08-.15-.14.02.15-.21.09-.33-.02-.05-.03-1.21.04-1.17.1.06-.08-.25,0-.25.03,0,.03-.01,0-.04-.05-.03-.05-.04,0-.1.04-.05.04-.06,0-.04-.08.05-.01-.1-.06-.22-.06-.16-.06-.19,0-.24.04-.03.05-.06.03-.08-.04-.03-.1-.21,0-.18.1.04-.05-.22-.07-.24-.05-.07.06-.18.03-.26-.05-.13.17.13.16-.05,0-.13-.11,0-.16-.07-.02-.03.02-.05.1-.05.01,0,.02-.02.02-.05,0-.09-.1.05-.11.02-.05-.21.05-.24.02-.39-.12-.65.13-.46,0-.66-.1-.15.03-.08.04-.31,0-.03.01-.04.03-.03.05.03.08-.07.03-.11-.04-.03-.04-.03-.02,0,.01.03,0,.05-.01.05-.05,0-.05-.16,0-.13.12.08-.1-.21-.04-.21.05,0,.05-.09,0-.06-.06.04.02-.19-.04-.23-.06-.03.04-.16.04-.31,0-.07.01-.09.05-.07.03.02.03.01,0-.03-.07-.09.03-.17-.04-.13-.06.04-.06-.18,0-.15.06.04-.1-.16-.05-.19.04-.03.01-.52-.03-.57-.02-.02-.02-.08,0-.14.08-.28-.07-.96-.01-.96.04,0,.06-.19,0-.19-.06,0,.1-.69,0-1.29-.02-.14-.02-.22,0-.25.06-.06.05-.1-.02-.1-.09,0-.07-.07.04-.12.05-.02.1-.06.1-.08,0-.05-.08.04-.08-.07,0-.04.02-.08.05-.08.04,0,.04,0,0-.03-.07-.05-.11-.62-.07-.73.06-.16.06-.29.02-.4-.08-.21.07-.18.03-.31-.04-.13-.06-.47-.03-.47.05,0,.03-.25-.02-.32-.07-.09.01-.02.02-.15.02-.31.08-.5,0-.47-.06.02-.04-.07.02-.15.05-.06-.04-.09.04-.09.04,0,.04,0,0-.04-.03-.02-.04-.04-.02-.04.05,0,.05-.17,0-.27-.04-.09-.03-.36-.07-.4s.06-.15.03-.23c-.01-.03,0-.06,0-.07.04-.04.05-.18.01-.23-.05-.06-.02-.63.04-.7.03-.03.03-.05,0-.04-.09.05-.03-.46-.1-.51-.02-.01,0-.08.03-.14.05-.11.06-.14,0-.26-.08-.2,0-.27-.02-.34,0-.02,0-.05.02-.07.04-.02.03-.63-.01-.76-.03-.1.08-.03.04-.14-.03-.1-.02-.35-.07-.42-.02-.03-.02-.07,0-.1.05-.06.09-.23.05-.2-.04.03-.09-.1-.04-.1.06,0-.04-.09,0-.35.01-.1.05-.75-.05-.81-.11-.06.05-.06,0-.26-.04-.21.11-.28.01-.34-.08-.05.01-.04-.04-.17-.02-.06-.02-.09.02-.11.04-.01.06-.16.02-.16-.02,0,0-.19-.08-.25-.12-.08.11-.04.06-.29-.04-.21-.04-.51-.07-.66-.03-.15.11-.22,0-.18-.11.04,0-.41-.08-.45-.04-.03.08-.3,0-.38-.04-.04.04-.24-.02-.24-.18,0,.19-.23-.01-.2-.04,0,.03-.22-.02-.22-.02,0-.03-.06-.02-.13.04-.33-.64-.24-.49-.14.08.05-.03.05-.06-.02-.01-.03-.05-.06-.09-.06-.13,0,.03.19-.03.28-.04.07-.05.22,0,.22.06,0-.03.22.03.46.02.09.02.18,0,.19-.04.03-.04.16,0,.13.04-.03.04.21,0,.21-.09,0,.11.39,0,.32-.05-.03-.05-.02,0,.03.04.05.04.07,0,.07-.04,0-.04,0,0,.02.07.03-.03.16.04.11.03-.02.04.07.03.32-.02.61.1.33.06.77,0,.04-.12,0-.12.09,0,.1.12,0,.09.14-.05.19-.06.49-.02.49.02,0,.03.05.03.1-.02.2.15.18.05.28-.05.05-.05.22,0,.26.06.04.07.19.02.26-.12.15.06-.17-.06-.08-.06.05-.05.37.01.33.02-.01.03.02.03.07-.02.13.06.17,0,.2-.05.03-.05.11,0,.08.09-.05.05.34.04.34-.03.02.02.83.04.86.04.07.02.3-.02.36-.04.07-.05.12-.01.31.06.32-.01.51.04.51s0,.17-.07.2c-.03.02-.04.05-.02.08.05.08.11.48.07.5-.02,0-.02.05,0,.1.08.15-.05.11,0,.27.01.05,0,.08-.01.07-.02-.01-.04,0-.04.05,0,.1.1.03.13.11.01.03,0,.04-.02.03-.16-.1,0,1.19-.1,1.14-.07-.03.09.08.07.11-.05.05-.05.51,0,.53.09.05-.09.15-.02.24.07.08-.06.14-.05.27.01.19.02.21.06.19.05-.03.06.15,0,.11-.02-.02-.03-.01-.02.01.04.06.06.24.03.22-.02-.01-.03.03-.03.09,0,.2-.19.27-.07.27.07,0,.13.15.07.19-.05.03-.12.33-.05.3.06-.04.09.04.05.13-.03.06-.03.08,0,.08.03,0,.04.04.03.1-.03.14.07.06.01.17-.05.09-.05.2-.01.18.02,0,.03,0,.03.03,0,.06-.06,0-.06.05,0,.08-.08.16.03.13.1-.03.15.08.09.05-.03-.02-.09.09-.1.22,0,.02-.03.03-.05.03-.07-.01-.06.05.02.08.15.06-.08.56.01.44.06-.09,0,.04.1.04s0,.04-.02.19c0,.16-.1.06-.04.22.08.2.03.45.03.47.03.06.03.22,0,.25-.04.04-.03.55.01.62.03.05,0,.57-.03.63-.01.02,0,.08.03.12.12.18-.06.49.03.54.02.01.03.04.02.06-.03.05.09.13.14.09.07-.04-.15.17-.11.17.01,0,0,.04-.01.1-.03.08-.02.1.03.1.06,0,.06,0,0,.04-.03.02-.04.04-.03.04.02,0,.02.02,0,.05-.12.19.17.59.01.45-.04-.04-.05,0-.02.16.05.3.02.45.08.49.08.05-.1.17-.04.27.04.06,0,.27-.06.41-.08.15.05.28-.02.28-.02,0-.03.02-.02.04.03.05.1-.02.1.04,0,.04-.08.06-.16.05-.04,0-.05.09.02.06.04-.01.05,0,.04.04-.02.09-.01.12-.05.05-.05-.08-.03.25.03.38.03.07.03.1-.02.11-.11.03.15.11.06.22-.04.05-.04.06,0,.06.08,0-.04.11.07.11.05,0,.05.01-.01.08-.1.11,0,0,.01.12,0,.07,0,.07-.03.03-.03-.04-.03,0-.01.14.02.19.02.2-.05.17-.06-.02-.06-.02.01.08.13.17.02.47.09.43.05-.03.05.08,0,.12-.03.02-.03.04,0,.08.03.04.03.11,0,.27-.06.35.09.21,0,.35-.06.09-.06.19-.01.19s-.02.08.05.16c.05.05.07.19.03.18-.01,0-.05.01-.08.04-.06.05-.05.32,0,.32.06,0-.07.16,0,.24.07.07.03.37.07.35.02-.01.11.03-.07.2-.15.15-.12.13-.05.14.07,0,.06.52.03.51-.16-.02.05.1.01.16-.03.06.1,0,.02.25,0,.03.02.07.05.06.05-.02.03.06-.04.13-.1.1-.09.16,0,.14.08-.02.08-.01.02.04-.1.08-.09.48-.05.46.05-.03-.03.13.04.16.02,0,.01.02-.02.02-.07,0-.1.12-.03.12.05,0,.06.09-.02.06-.09-.04.03.13.07.13.06,0-.16.17-.1.21.1.06-.1.3-.03.41.06.09.04.19-.04.19-.04,0-.08.02-.1.04-.03.06.21,0,.24.08.01.04,0,.05-.05.03-.04-.01-.05,0-.04.01.03.05-.04-.01-.07.19-.04.25-.14.1-.14.19,0,.07-.07.18,0,.14.06-.04.06.05,0,.05-.05,0-.07.08.05.05.08-.02.08-.01.02.02-.08.05-.08.13-.01.26.21.39.06.39.06.29,0-.07-.03-.07-.09-.01-.07.06-.03.27.04.24.03-.01.05,0,.03.01s0,.04.04.06c.1.04-.03.11,0,.2.01.04-.13.25-.1-.03,0-.08-.1-.13-.09.08.01.24-.1.2-.03.32.03.05.03.07,0,.09-.06.02.1.09.06.02-.02-.03,0-.04.04-.02.1.04.14.01.14.07,0,.06-.06,0-.19.04-.07.03-.08.04-.05.08s.06.03.09,0c.14-.14.09.12,0,.09-.07-.03-.14.09-.12.09.05,0,.17.08.12,0-.05-.08.12-.04-.02.33-.03.07-.02.08,0,.06.08-.05-.04.23.03.27.06.04.05.11-.02.08-.09-.03.01.03-.06.11-.03.03-.03.07-.01.1.04.06.04.72,0,.72-.06,0-.01.55.05.6.1.08-.04.13-.04.24,0,.04-.09.15-.12.14,0,0,.07,0,.06.35,0,.28-.03.33-.13.23-.04-.04-.05-.03-.05.03,0,.1.02,0,.11.06.09.05.04.19.04.43,0,.04-.02.06-.05.04-.03-.01-.01,0,.03.04.07.05.07.07.02.16-.04.07-.04.11-.01.12.07.02-.04.29.02.41.03.05.03.08,0,.09-.08.03.12.17.01.21-.05.02-.06.07-.05.29.02.4-.09.31-.01.4.05.06.02.31-.03.27-.04-.02,0,.17.04.17.07,0,.01.16-.07.19-.09.04-.12.11-.04.11.03,0,.03.01,0,.04-.03.02-.04.04-.02.04.02,0,.01.02-.02.04-.11.07.11.14.05.21-.02.02,0,.02.02,0,.03-.02.04,0,.03.06-.02.15.11.18.02.21-.07.02.01.09-.05.09-.05,0-.02.08.05.05.08-.03.05.24-.01.22-.07-.02.03.06-.05.11-.04.03-.04.03.01.03.04,0,.06.03.05.07-.02.1-.1.02-.07.13.03.12-.14.24-.03.17.08-.05,0,.04-.02.11-.11.4.02.21.08.43.03.11,0,0-.09.16-.08.14-.09.17-.02.14.04-.01.06.03.08.15.03.24-.04.18-.03.45.02.33-.19.45.03.41.02,0,.02.02,0,.04-.06.08-.09.39-.05.53.02.07.02.14,0,.17-.06.08-.07.27-.01.33.04.04.04.06-.03.12-.17.16.02.43-.06.6-.05.09-.05.1,0,.11.06.01.08.12.02.12-.05,0-.13.17-.09.14.05-.03.04.24,0,.24-.03,0-.03.11,0,.11s.03.38,0,.38c-.04,0-.05.25-.11.21-.05-.03-.04.2-.01.15.05-.11.19.06.06.19-.05.05-.06.19-.01.11.03-.04.04-.04.06,0,.02.04,0,.06-.04.06-.12,0,.1.18.04.22-.03.02-.14.29-.06.44.11.18-.1.33.02.48.03.04.03.05,0,.03-.04-.03-.07.02-.05.1.01.08-.16.14-.07.2.06.04.07.25,0,.31-.06.06-.1.06-.07,0,.02-.03.01-.03-.01-.02-.06.04.04.31.12.32.13.03-.05.25-.03.45.04.36-.05.41.01.52.03.06.02.06-.04.05-.09-.02-.1.03-.03.1.04.04.04.05,0,.02-.08-.04.15.15.09.11-.03-.02-.05,0-.05.05,0,.11-.08.1-.08.18s.08,0,.08.05c0,.08-.11.05-.03.15.07.08-.03-.02-.06.09-.02.06,0,.07.03.04.09-.08,0,.22.1.2.04,0,.05,0,0,.05-.08.1.03.08-.01.77,0,.13,0,.25.01.27.06.08.05.5-.02.62-.12.24.06.14.02.41-.02.09,0,.13.03.13.03,0,.04.01.01.03-.07.05-.13.26-.08.33.03.05.03.09,0,.14-.08.13.1.87-.05.78-.03-.02-.03,0,0,.05.06.12.13.1.1.21-.04.16.07.51-.01.62-.1.14.11.1.02.3-.08.17.09.26,0,.24-.03,0-.04.02-.04.06.01.06,0,.07-.05.02-.04-.03-.06-.04-.06,0,0,.04.05.06.14.05.07,0,.06.09,0,.15-.16.13.06.08.06.17,0,.03-.02.05-.04.03-.03-.02-.04.01-.03.09.02.14.02.14-.07.05-.06-.06-.07-.06-.03,0,.05.12.01.25.07.25.02,0,0,.03-.03.06-.06.04-.06.06-.02.06.05,0,.05,0,0,.04-.04.02-.04.04,0,.04.05,0,.07.14.01.17-.04.02-.01.17.03.17.05,0-.03.28.04.13.05-.1.04-.03.06.07.02.1-.08.03-.04.13.04.09.09.16,0,.16-.05,0-.04.02.05.08.07.04.12.09.12.1,0,.03-.07-.05-.08.01-.02.14-.09.19-.06.22.01.01.02,0,.02-.03,0-.03.02-.03.05.02.06.09.03.24-.02.17-.07-.11,0,.13.04.1.03-.02.05.09-.02.07-.07-.03-.08.05.02.08.06.02.07.05.05.22-.02.23,0,.39.07.36.06-.04-.03.14.02.24.04.1.03.2.08.23.06.04.07.17.12.14.05-.03.15.09.24.09.09,0,.1.17.15.13.02-.01.03-.04.02-.05-.02-.04.08-.03.12.01.02.02.2.07.2-.05,0-.09.07-.1.1-.02.02.04.05.05.13.04.17-.03.06.08.19.04.16-.05.21-.09.24.01.02.09.14.11.14.02,0-.03.03-.06.08-.06.07,0,.07,0,.03.06-.1.12.2-.03.25.05.03.05.25.06.25,0,0-.03.08-.03.26-.01.03,0,.04.03.03.06-.03.09.13.06.13.03s.27-.06.26.02c-.01.08.1.1.07.06-.03-.05.14-.04.21.02.06.05.39.07.44.03.05-.05.06.1.22.02.17-.09.09.06.34.02.24-.04,0,.07.23.04.09-.01.14,0,.15.04.02.06.04.06.39,0,.19-.04.13.09.24.03.04-.02.09-.02.12,0,.08.05.24.04.29,0,.09-.09.22.14.35.01.07-.07.28-.07.32,0,.01.02.06.02.12,0,.21-.09.11.1.54.07.27-.02.27-.01.23-.06-.03-.05.08-.06.11.02.04.1.49.01.55-.03.1-.09.46.21.67,0,.06-.06.08-.07.06-.02-.09.25.27-.12.23.04-.01.06.16.12.16.07,0-.06.22-.03.2-.11-.01-.06.07-.06.07,0,0,.06.06-.01.17.05.22.11.03,0,.66,0,.48,0,.37-.07.49,0,.13.09.27.08.23,0-.02-.06-.02-.06.03,0,.09.11.9.02,1,0,.19-.05.26-.05.23,0-.01.02.06.01.16-.02.25-.08.24,0,.33-.07.07-.05.27-.03.24.02-.03.06.11.11.2.07.12-.05.32-.04.32-.07,0-.04.27-.04.32,0,.03.03.08.03.14,0,.1-.04.26-.02.26.04,0,.06.15.03.2-.04.09-.14.05.04.48.01.3-.02.22.07.3.04.03-.01.06,0,.06.02,0,.03.02.03.07,0,.11-.06.28-.02.36-.1.11-.11.05.07.26.03.06-.01.13,0,.16.02.06.05.75.03.8-.03.06-.06.17-.05.21.02.03.05.07.06.21.03.28-.04.18-.1.27-.09.03,0,.02.01-.01.04-.05.03-.05.04,0,.05.12.04.27.05.27.02,0-.05.18-.08.23-.05.08.05.26.06.28.02.04-.06.12-.04.14.03.04.15,1.13-.02,1.09.1-.04.1.82.15.93.1.06-.03.1-.03.17,0,.11.06.3.07.36.02.06-.05.17,0,.26.04l-.23.02c.34.08.32-.04.44.03.11.06.27.05.27-.02,0-.06.05-.08.09-.03.04.04.19,0,.2.08,0,.03,0,.06,0,.07.01.05.35-.05.35-.11,0-.03.02-.02.04.02.04.07.19.09.19.02,0-.03.02-.03.05,0,.11.1.18-.11.27.01.05.06.17.04.24-.06.07-.09.4,0,.24-.17-.02-.02-.02-.08.02-.15.08-.16.06-.2.11-.29.02-.03.02-.04,0-.03-.04.04-.26-.42-.21-.45.06-.04.04-.17-.02-.17-.05,0-.05-.02-.02-.07.05-.1-.01-.3,0-.49,0-.07-.02-.13-.05-.14-.04-.02-.05-.04-.02-.13.07-.21-.09-.19-.1-.58,0-.28-.08-.32-.03-.29.06.04.03-.32-.03-.36-.04-.02-.03-.06.02-.17.07-.15.05-.25-.04-.17-.08.07-.06-.04-.01-.04.06,0-.02-.1.04-.18.04-.05.04-.05,0-.03-.04.03-.05.02-.03-.04.2-.5-.1-.5.05-.58.06-.04.06-.04,0-.04-.12,0-.13-.29-.02-.42.08-.08.08-.11,0-.13-.03-.01-.05,0-.04.02.02.06,0-.02-.06.01-.05.03.06-.14.03-.14-.03,0,.08-.3.01-.35-.08-.05.1-.36.05-.4-.05-.03,0-.37-.06-.37-.03,0-.03-.01,0-.03.07-.05.06-.2,0-.2-.09,0,0,0,.06-.31.04-.19.04-.22-.01-.28-.08-.08-.08-.13,0-.16.08-.03.07-.14.02-.11-.1.06.1-.31,0-.42-.04-.05-.03-.06.03-.06.05,0,.06,0,.02-.03-.11-.07.17-.25,0-.21-.09.02-.1-.09-.02-.19.03-.04.05-.08.03-.09-.04-.04.09-.13,0-.23-.1-.12.12-.17-.01-.27-.07-.05-.02-.12.05-.08.05.03-.02-.1.02-.2.05-.13.05-.35,0-.35-.14,0,.1-.19.08-.38,0-.08-.05-.35,0-.32.05.03.04-.04,0-.09-.04-.04-.03-.08-.09-.41-.02-.1.18-.41.15-.46-.03-.05-.04-.35-.05-.36-.04-.04-.02-.28.03-.38.04-.07.05-.15.03-.19-.05-.11-.04.02-.1.02-.06,0,.06-.07.04-.18-.01-.09.13-.39-.02-.33-.08.03-.02-.14.04-.16.08-.03-.05-.2.01-.2.05,0,.03-.13-.04-.19-.04-.04-.05-.08-.03-.12.06-.1-.06-.06.02-.21.07-.14-.02-.19.07-.15.09.03.07-.05.03-.05-.03,0-.16-.12-.04-.23.07-.06.1-.25.04-.21-.07.04-.08-.22-.01-.33.02-.04.02-.05-.01-.03-.03.02-.04,0-.04-.03,0-.09.06,0,.1-.07.03-.06-.01.02-.11-.07-.07-.07-.07-.08-.01-.16.03-.05.05-.1.04-.11-.03-.03.08-.1.04-.04-.03.05.05.13.03-.19-.01-.15,0-.23.03-.23.02,0,.03-.02.02-.04-.03-.05-.11-.05-.08,0,.03.05-.08.11-.04.05.01-.02,0-.05-.01-.07-.07-.05-.04-.1.05-.08l.09.03-.09-.06c-.09-.07-.12-.19-.04-.22.1-.03-.14-.21-.03-.3.07-.06.07-.14,0-.16-.04-.01-.04-.03,0-.09.04-.06.04-.22.01-.22-.03,0-.02-.4.01-.45.03-.05.02-.08-.03-.11-.11-.06.05-.1,0-.18-.05-.08.19-.16.07-.21-.03-.01-.05-.04-.04-.06.01-.02,0-.03-.04-.02-.08.03-.07-.06-.02-.06.06,0-.02-.14.03-.17.06-.04.05-.13-.02-.13-.08,0-.07-.05.02-.1.12-.07.05-.5.03-.53-.02-.02-.01-.06.01-.07.06-.03.05-.29-.02-.4-.09-.17.06-.28-.02-.43-.03-.06-.03-.09.02-.15.08-.08.08-.12,0-.12-.08,0-.07-.15-.02-.15.05,0,.02-.14.08-.17.05-.03.04-.4,0-.4-.02,0-.03-.03-.03-.08,0-.13.09,0,.01-.24-.09-.26.02-.17.04-.48,0-.09.02-.15.04-.14.04.03,0-.08.08-.04.03.02,0-.02-.04-.07-.13-.14-.05-.3,0-.27.03.02.03,0,0-.03-.04-.07-.05-.11-.01-.21.05-.16-.1-.05-.06-.29.01-.08.04-.13.05-.12.03.02.02-.19-.02-.25-.03-.05.06-.05.06-.17,0-.13.12-.17.06-.21-.1-.07-.04-.43-.1-.43-.05,0-.04-.08.03-.16.06-.07.04-.17-.03-.13-.06.04-.04-.03.03-.08.06-.04.06-.06.02-.13-.13-.22.1-.08.06-.13-.05-.06.09-.15-.04-.29-.07-.08-.07-.09-.02-.13.07-.05.08-.13.02-.13-.05,0-.05-.13,0-.18.03-.03.03-.07,0-.14-.09-.17.07-.18.02-.33-.01-.04,0-.07.02-.07.03,0,.03-.03,0-.09-.03-.08-.02-.11.07-.2.1-.1.1-.1.01-.06-.19.1-.26-.07-.11-.1.09-.01.07-.01.12-.11.03-.05.03-.1,0-.13-.03-.04-.03-.04-.02.01.03.09-.07.1-.04-.03.01-.07,0-.1-.04-.1-.05,0-.05,0-.01-.03.07-.05,0-.14.08-.13.06.01.04-.3-.02-.33-.06-.02-.06-.1.01-.16.08-.07.07-.19,0-.19-.06,0-.08-.08-.02-.14.03-.03.11-.48.02-.48-.07,0-.07-.09,0-.16.03-.03.04-.07.03-.08s0-.02.01-.02c.06,0,.05-.32-.02-.37-.06-.04-.06-.05.01-.1.16-.12-.13-.16.07-.55.09-.19-.03-.15,0-.37.03-.21-.1-.17-.01-.27.03-.03.04-.06.02-.06s-.01-.02,0-.05c.05-.08.04-.31-.01-.37-.03-.03-.04-.08-.03-.12.05-.12.04-.31-.01-.31-.13,0,.03-.17.09-.12.02.02.02,0,0-.02-.05-.09.1-.15,0-.29-.07-.09-.08-.16-.02-.13.06.03-.07-.24-.01-.28.04-.03.13-.18.13-.22,0-.04-.1.13-.14.09-.02-.02,0-.05.01-.08.07-.09.09-.3.03-.39-.11-.16.09-.18.04-.31-.03-.07-.02-.11.01-.1.04.01,0-.16-.05-.19-.04-.03.04-.26.1-.31.05-.04.05-.28,0-.32-.09-.07.05-.23-.04-.49-.16-.47.23-.76.12-.7-.06.04-.02-.25-.09-.27-.06-.02.15-.61.02-.82-.07-.11-.04-.23.05-.2.04.02.05,0,.02-.03-.04-.05-.05-.18-.01-.18.03,0,0-.76.05-.76.05,0,.03-.12-.03-.14-.05-.02-.05-.04,0-.16.1-.24-.05-.12,0-.35.04-.18-.06-.08-.06-.16,0-.06.1,0,.12-.13,0-.05,0-.09-.01-.07-.04.03-.05-.15,0-.12.03.02.03-.01.01-.08-.04-.18-.09-.06-.05-.29.03-.23-.04-.44,0-.46.04-.02.04-.19.1-.21ZM.52,1.93s0-.11.02-.11.03.11-.02.11ZM9.66.87s0-.05-.02-.06c-.07-.03.09-.04.09.01s-.1.11-.06.05ZM1.47,29.14c0,.05-.09.05-.06,0,.04-.06.06-.04.06,0ZM.86,14.58c0-.05.09-.05.06,0-.04.06-.06.04-.06,0ZM.94,23.18c.05-.1.06-.09.08.05.03.23-.17.11-.08-.05ZM.81,31.18c-.06-.15.04-.1.06-.02.02.09-.03.1-.06.02ZM.84,32.05c.03-.05.11-.05.08,0-.03.05-.11.05-.08,0ZM.75,32.73c0-.14.09-.17.06-.11-.02.02,0,.04.02.04.03,0,.04,0,0,.03-.07.04-.08.18-.09.04ZM.89,48.2c.06-.07-.03-.12.04-.09.1.06-.14.22-.04.09ZM.86,48.58s.08.13.04.13c-.04,0-.08-.11-.04-.13ZM.81,50.34s-.02,0-.02-.05c0-.1.05.02.02.05ZM.17,50.32c-.1-.13.08.04.08.05,0,.03-.03.01-.08-.05ZM.54,41.86s-.03-.14,0-.07c.01.03,0,.06,0,.07ZM.55,39.71c-.08,0-.1-.08-.03-.12.04-.03.21.12.03.12ZM.83,56.43c0-.12.1.01.1.04,0,.04-.11.06-.1-.04ZM3.84,59.87c0-.05.16-.05.13,0-.03.05-.13.05-.13,0ZM5.31,59.98s.1-.02.1.02c0,.02-.13.03-.1-.02ZM20.41,60.21c-.1,0,.02-.05.05-.02.01.01,0,.02-.05.02ZM24.12,29.54s-.14.03-.07,0c.03-.01.06,0,.07,0Z"/>
  <polygon points="22.41 60.46 22.41 60.46 22.41 60.46 22.41 60.46"/>
  <path d="M.22,45.5c0,.05,0,.07.02.05.03-.06-.02-.18-.02-.05Z"/>
  <path d="M23.68,48.78s.06-.02,0-.06c-.05-.03-.05.06,0,.06Z"/>
  <path d="M23.77,38.75c.03.09.06.07.04-.02-.03-.1-.07-.06-.04.02Z"/>
  <path d="M.17,58.42c0,.06.07.18.12.1.02-.03,0-.05-.02-.06-.07-.02-.1-.13-.1-.04Z"/>
  <path d="M-.02,56.39c0,.05.08.04.08.02s-.08-.08-.08-.02Z"/>
  <path d="M.96,25.14s.04.06.05.05c.03-.03-.09-.15-.05-.05Z"/>
  <path d="M1.02,47.66s-.11.1-.09.16c.02.06.06.07.04,0-.01-.03,0-.06.03-.06.06,0,.08-.06.02-.09Z"/>
  <path d="M1.1,44.18s0-.05-.02-.04c-.07.04-.03.17.02.04Z"/>
  <path d="M22.64,55.43c-.06,0,0,.08.02.08s.03-.08-.02-.08Z"/>
  <path d="M22.99,36.69s0,.06.02.05c.03-.03-.02-.15-.02-.05Z"/>
  <path d="M22.88,58.81s0,.06.02.05c.03-.03-.02-.15-.02-.05Z"/>
  <path d="M9.24.04c.03-.08-.05-.02-.05.02,0,.05.03.04.05-.02Z"/>
  <path d="M1.69,21.6s.01-.05,0-.07c-.03-.07-.03.1,0,.07Z"/>
  <path d="M1.71,20.5s-.04.02,0,.12c0,.02.06-.07,0-.12Z"/>
  <path d="M1.74,21.71c0-.08-.08-.02-.06.02.03.05.06.04.06-.02Z"/>
  <path d="M1.62,19.55c0,.05.08.05.08,0s-.08-.05-.08,0Z"/>
  <path d="M1.54,29.98c.03.1.05.1.05,0s-.08-.1-.05,0Z"/>
  <path d="M.68,32.05s-.04.12,0,.09c.04-.03.04-.09,0-.09Z"/>
  <path d="M1.48,32.69s-.07.09-.01.07c.05-.02.06-.07.01-.07Z"/>
  <path d="M1.49,32.96s0-.03-.04-.02c-.14.05,0,.08.04.02Z"/>
  <path d="M.88,2.23s.09.04.09,0-.07-.04-.09,0Z"/>
  <path d="M.78,31.74c-.06,0,0,.08.02.08s.03-.08-.02-.08Z"/>
  <path d="M.52,36.21c0,.05.08.04.08.02s-.08-.08-.08-.02Z"/>
  <path d="M.9,24.17c-.05,0-.04.08-.02.08s.08-.08.02-.08Z"/>
  <path d="M.93,22.17c-.11-.12-.07.05.01.05.02,0,.02-.02-.01-.05Z"/>
  <path d="M.81,30.93c0-.12-.01.02-.07-.01-.02-.01-.02,0-.01.04.03.09.07.07.08-.03Z"/>
  <path d="M.58,33.31c.03.12.07,0,.02-.05-.03-.03-.03-.01-.02.05Z"/>
  <path d="M1.35,39.6c.02-.09-.02-.19-.07-.16-.05.03.05.26.07.16Z"/>
  <path d="M1.22,37.43s.07-.15.02-.15-.04.15-.02.15Z"/>
  <path d="M1.19,41.06c.04.06.06.04.06,0,0-.05-.09-.05-.06,0Z"/>
</svg>