<?xml version="1.0" encoding="UTF-8"?>
<svg id="Layer_1" data-name="Layer 1" xmlns="http://www.w3.org/2000/svg" viewBox="0 0 59.21 31.34" fill="#2c2013" preserveAspectRatio="none">
  <path d="M25.06,29.13s.08-.08.02-.08-.04.08-.02.08Z"/>
  <path d="M1.75,11.78s.08-.08.02-.08-.04.08-.02.08Z"/>
  <path d="M57.69,4.67s-.03.11.02.11,0-.11-.02-.11Z"/>
  <path d="M1.85,12.13c.05,0,.04-.03-.02-.05-.08-.03-.02.05.02.05Z"/>
  <path d="M1.67,13.75s0-.05-.02-.04c-.07.04-.03.17.02.04Z"/>
  <path d="M27.03,1.86s0,.06.02.05c.03-.03-.02-.15-.02-.05Z"/>
  <path d="M57.56,5.36c-.05,0-.05.08,0,.08s.05-.08,0-.08Z"/>
  <path d="M24.98,29.11s-.01-.09-.07-.07c-.09.03,0,.13.07.07Z"/>
  <path d="M1.75,5.86c.04.06.06.04.06,0,0-.05-.09-.05-.06,0Z"/>
  <path d="M58.28,30.81s.15.05.06-.01c-.02-.01-.04,0-.06.01Z"/>
  <path d="M58.29,5.93s.04-.11.02-.11-.07.11-.02.11Z"/>
  <path d="M17.77,28.76s-.02.02.02.02c.1,0,.04-.05-.02-.02Z"/>
  <path d="M58.1,3.72c0,.05.08.04.08.02s-.08-.08-.08-.02Z"/>
  <path d="M59.13,25.33c0-.08-.08-.05-.08-.16.01-.25,0-.52.07-.55.04-.01.04-.02,0-.05-.04-.03-.04-.04,0-.06.07-.03-.03-.16.04-.11.06.04.06-.05,0-.05-.06,0,0-.16-.11-.26-.07-.07-.07-.07,0-.15.07-.08.06-.24,0-.24-.05,0-.04-.22,0-.24.03-.01.02-.05-.02-.14-.1-.2.02-.35-.07-.45-.09-.11.1-.2,0-.29-.07-.07-.05-.14.04-.14.08,0,.08,0,.01-.08-.09-.1,0-.05-.04-.12-.1-.16.09-.38.02-.58-.03-.08-.03-.12,0-.13.03,0,.03-.03,0-.06-.06-.08.05-.29,0-.29-.07,0,0-.24-.07-.11-.05.08-.06-.02.04-.08.07-.04.07-.06.02-.19-.11-.27.06-.17,0-.43-.05-.21.04-.38.03-.64-.03-.94-.16-.85-.09-.99.07-.13-.1-.74-.11-1.25,0-.13.23-.21.11-.21-.1,0,0-.08-.09-.15-.03-.03-.06-.08-.06-.13,0-.08,0-.08.06,0,.06.07.06.07.02-.01-.05-.09-.04-.39,0-.39.06,0-.12-.26-.04-.31.04-.02.03-.03-.02-.03-.06,0-.06-.02-.02-.12.06-.16.14-.03.07-.16-.07-.13-.02-.35-.08-.46-.08-.16.1-.16,0-.36-.05-.11-.05-.25,0-.27.02,0,.02-.05,0-.1-.06-.15.07-.07-.02-.25-.07-.14-.02-.04-.06-.29-.06-.39.19-.43.09-.43-.08,0-.19-.23-.17-.35.01-.07.03-.1.06-.09.06.04-.07-.07-.04-.21.04-.2-.06-.04-.08-.67-.01-.38-.18-.27-.05-.39.06-.06.06-.08.02-.26-.07-.26-.09-.73-.04-.79.06-.08-.06-.19-.05-.42,0,0,.02-.46-.04-.53-.03-.04-.06-.32-.12-.36-.03-.02-.03-.04,0-.08.05-.06.04-.44,0-.52-.05-.08-.18,0-.11-.09.06-.07.04-.33.11-.36.07-.03.06-.09,0-.09-.04,0-.05-.03-.04-.13.02-.18-.02-.1-.11-.19-.05-.05-.05-.06,0-.1.04-.04.05-.13.04-.46-.02-.6-.1-.45.08-.66.06-.07-.02-.1.04-.1.06,0,.08.13.07.01,0-.05-.02-.07-.04-.06-.02.01-.02,0,0-.04.07-.09-.06-.15-.08-.12-.03.03-.05-.08.03-.05.09.03.07-.17,0-.17-.09,0,.05-.02.05-.08,0-.06-.1.02-.13-.03-.01-.02.01-.04.05-.06.11-.04.06-.37,0-.41-.08-.04-.04-.19.04-.19.12,0-.04,0-.07-.13-.02-.13.05.02.11.02.04,0,.02-.12-.03-.12-.08,0-.12-.14-.12-.41,0-.36-.06-.34,0-.37.09-.04-.05-.03-.05-.1,0-.02.02-.03.04-.01.08.05-.1-.32.02-.32.05,0,.05-.01.01-.09-.05-.1-.07-.29-.02-.32.05-.03.03-.08-.03-.08-.08,0,0,.08-.08.11-.12.05-.02-.39-.11-.39-.09,0,.07-.04,0-.16-.05-.09,0,0,.09-.12.13-.18-.15-.15-.03-.28.08-.08.04-.21.08-.26s.05-.14,0-.12c-.08.05-.03-.06.09-.18.23-.23-.04-.09.04-.3.02-.06.02-.1,0-.12-.07-.04,0-.27.07-.27.04,0,.05-.01.02-.02-.06-.02-.06-.2,0-.2.2,0,.07-.48.02-.52-.1-.1.09-.23-.21-.21-.18.01-.06-.22-.2-.09-.14.13-.19-.16-.27-.01-.05.08-.13.09-.16,0-.03-.07-.1-.07-.1,0,0,.19-.43-.14-.52-.03-.05.07-.3.03-.26-.04.03-.05-.06,0-.06.07s-.11.07-.18-.01c-.04-.05-.06-.05-.08-.02-.06.09-.31.1-.46.02-.13-.06-.16-.07-.22-.02-.12.09-.19-.06-.22.03-.01.04-.05.03-.14-.02-.11-.07-.13-.07-.19,0-.1.09-.17,0-.21.06-.04.06-.13-.03-.18.05-.03.04-.04.04-.09-.01-.14-.18-.49.03-.42-.07.02-.03,0-.02-.05.02-.15.13-.32-.09-.39.03-.03.05-.04.05-.07,0-.07-.12-.16.1-.31,0-.09-.06-.2-.06-.17,0,.07.12-.16-.09-.25-.04-.13.08-.13-.17-.25.01-.06.09-.07.09-.16.04-.06-.04-.09-.05-.09-.01,0,.06-.14.01-.24.06-.13.06-.23-.12-.29-.02-.03.04-.05.04-.12,0-.11-.07-.23-.05-.2.03.03.09-.29.04-.34-.01-.06-.06-.12-.05-.1-.02.02.02-.02.2-.11.12-.09-.08-.3,0-.26-.07.03-.05-.1,0-.14.05-.02.03-.04.03-.07,0-.06-.06-.18-.06-.18,0,0,.02-.02.04-.04.04-.06,0,.02-.06-.03-.09-.05-.03-.04.06-.2.06-.19,0-.11.16-.21.07-.08-.06-.31-.07-.46,0-.08.03-.13.04-.15,0-.04-.06-.13.02-.13-.05,0-.03-.02-.02-.04.02-.05.08-.12.09-.09.01.04-.09-.17.02-.13-.04.03-.05-.43-.05-.4,0,.03.05-.14-.02-.14.03s-.1-.07-.14-.03c-.04.04.06,0,.06.09,0,.1-.11-.03-.12-.1,0-.04-.01-.03-.04.02-.05.13-.14.06-.3.03-.06-.01-.08,0-.06.03.02.02-.01.02-.06-.01-.12-.08-.21,0-.29-.07-.11-.09-.12.08-.21.02-.06-.04-.42-.04-.42,0,0,.02.02.03.04.03.09,0,.02.16-.13.02-.07-.07-.03-.01-.24-.01-.08,0-.16.01-.19.03-.05.04-.21,0-.21-.04,0-.04-.11-.05-.11.02,0,.07-.14.06-.19-.02-.02-.04-.04-.04-.06-.01-.13.19-.51-.11-.76-.02-.24.08-.22-.1-.36.02-.1.09-.12.01-.26.06-.06.02-.09.02-.11-.02-.03-.07-.12-.08-.14-.02-.02.05-.43.06-.44,0-.02-.07-.12-.05-.14.03-.03.1-.08.1-.13,0-.05-.09-.1-.1-.18-.02-.12.12-.21-.13-.28-.02-.02.03-.03.06-.03.07,0,.03-.26.02-.29-.01-.05-.05-.17-.03-.17.02,0,.04,0,.04-.02,0-.03-.06-.23-.06-.26,0-.01.03-.02.02-.02-.02,0-.08-.15-.05-.18.04-.02.05-.03.05-.06,0-.05-.07-.27-.17-.23-.11.04.07-.12-.01-.11.07.01.07-.11.11-.14.05-.03-.05-.41-.13-.37-.03.02.05,0,.06-.07.02-.12-.05-.29-.05-.34,0-.06.05-.25.09-.25.04,0-.06.1-.03.06-.07s-.14-.05-.12-.01c.03.05-.26.08-.31.04-.03-.03-.05-.02-.06.01-.01.04-.03.04-.06,0-.05-.05-.22-.03-.25.03-.04.06-.2.04-.24-.03-.05-.09-.07-.04-.17-.07-.04-.01-.12.02-.18.06-.11.07-.13.08-.21.03-.27-.15-.4.11-.49-.03-.04-.05-.05-.05-.07.02-.03.1-.09.11-.12.03-.03-.07-.11-.07-.14,0-.02.04-.08.06-.22.05-.3,0-.26-.09-.36-.04-.14.08-.39-.12-.33.03.03.07-.12.08-.16.02-.02-.03-.04-.03-.08,0-.07.06-.26-.06-.22-.13.02-.03.01-.03-.03,0-.09.07-.07-.03-.2.07-.1.09-.3.09-.44.02-.17-.09-.36.18-.43.07-.02-.03-.06-.04-.09-.02-.12.05-.22-.15-.26-.03-.03.08-.15.07-.12.02.03-.05-.22-.01-.28-.05-.08-.05-.14.1-.27.02-.1-.06-.19-.06-.11,0,.09.05.09.14.01.07-.08-.06-.07.03-.31-.08-.16-.07-.19-.07-.24-.02-.05.04-.07.05-.11.01-.03-.03-.06-.03-.12.02-.08.07-.25.05-.34-.04-.06-.06-.18-.05-.17.02.01.06-.05.06-.09,0-.03-.05-.11-.05-.08,0,.06.1-.36.06-.3-.03.04-.06-.48.04-.19.04.18,0,.05.13-.12.02-.09-.05-.56-.08-.53-.03.04.06-.12.05-.15,0-.04-.06-.1-.05-.1.02,0,.08-.11.02-.1-.03s-.11-.11-.08-.02c.05.13-.25.07-.61.07-.09,0-.21-.03-.27-.06-.14-.07-.29-.07-.27,0,.03.09-.19.13-.27.05-.01-.01-.05,0-.07.01-.1.08-.34-.19-.41-.06-.04.06-.16.08-.2.03-.03-.05-.33-.05-.39,0-.11.09-.1-.09-.19.02-.04.06-.15.04-.12-.02,0-.02-.02-.03-.07-.04-.17-.01.05.16-.14.06-.12-.07-.18-.07-.21-.03-.02.03,0,.03.02,0,.03-.02.04-.02.02.01-.04.07-.14.05-.11-.01.04-.1-.06.01-.32-.1-.09-.04-.16-.06-.16-.04.01.08-.01.13-.06.11-.11-.04-.08.12-.22,0-.08-.07-.08-.07-.13,0-.06.08-.14.09-.11,0,.03-.08,0-.06-.24-.08-.16-.01-.2,0-.2.04,0,.07,0,.07-.14,0-.14-.07-.13,0-.29-.08-.28-.15-.06.17-.37,0-.25-.15-.18.08-.3-.02-.04-.03-.07-.03-.1,0-.04.04-.16.02-.13-.02.03-.05-.34-.03-.38.02-.03.04-.07.04-.17.01-.22-.06-.5.07-.54,0-.07-.11-.57-.19-.54-.09,0,.02-.01.04-.04.04-.15-.01-.37.1-.48,0-.07-.06-.37-.08-.41-.02-.02.04-.14,0-.11-.05.04-.06-.37.02-.37-.03,0-.02-.04-.02-.09,0-.13.05-.43-.07-.36,0,.02.02-.05.15-.15.09-.04-.02-.05-.04-.04-.04.03,0,.02-.11-.1,0-.07.07-.09.07-.17.02-.12-.08-.26-.01-.41-.07-.21-.07-.26.15-.39-.02-.05-.06-.05-.06-.16,0-.3.18-.21-.1-.32.04-.05.06-.06.06-.1,0-.06-.07-.19-.08-.19-.01,0,.04,0,.04-.03,0-.04-.06-.31-.1-.37-.05-.03.03-.06.03-.07,0-.04-.07-.17.07-.17,0,0-.06-.15.04-.1-.03.02-.03,0-.04-.06-.04-.07,0-.08,0-.04.06.07.08-.03.07-.06.02-.04-.06-.1.02-.23-.06-.19-.13.02.09-.22.04-.18-.04-.17-.08-.26-.09-.16,0-.84-.05-.84,0s-.2.04-.17,0c.02-.04-.25-.03-.41.01-.08.02-.12.01-.18-.05-.1-.11-.13,0-.07,0,.04,0,.04.01,0,.05-.04.04-.05.04-.07,0-.01-.04-.03-.04-.09.01-.08.08-.21.06-.2-.03,0-.09-.07,0-.15-.07-.09-.08-.11.08-.29.12-.11.03-.21-.02-.17-.08.02-.03,0-.03-.08,0-.16.06-.21-.08-.21-.01,0,.07-.16.08-.29.02-.11-.05-.15-.05-.21-.02-.04.03-.09.04-.11.02-.06-.04-.42-.05-.42-.02,0,.04-.14.08-.18.04-.02-.02-.09-.04-.16-.06-.25-.05-.04.13-.31.08-.09-.02-.12-.01-.11.02.04.07-.05.04-.13-.04-.11-.11-.13-.04-.4-.02-.23.01-.22.07-.3.04-.11-.04-.05.1-.2,0-.14-.09-.18-.03-.3-.08-.13-.05-.02.1-.25.07-.21-.03-.32-.03-.39-.07-.03-.02-.06-.01-.08.02-.04.06-.35.08-.35.02,0-.17-.36,0-.42-.09-.02-.04-.05-.04-.1,0-.07.04-.07.04,0,.02.09-.03.08.06-.11.03-.22-.04,0,.09-.21.02-.17-.05-.67-.03-.7-.08-.03-.05-.14-.05-.05,0,.2.12-.09.13-.19.01-.06-.08-.08.01-.31-.07-.21-.07-.12-.03-.24.05-.15.1-.06-.07-.25-.07-.14,0-.02-.05-.09-.1-.02-.01-.04,0-.04.03,0,.07-.09.15-.13.11-.04-.04-.14-.05-.16,0-.04.06-.25.04-.35-.04-.26-.2-.24.08-.39,0-.09-.05-.11-.05-.11.01s-.16.09-.13,0c.02-.04,0-.05-.11-.05-.21.01-.2-.08-.3.02-.04.04-.07.05-.07.03,0-.06-.22-.14-.31-.11-.11.03-.02-.03-.21-.03-.25,0-.03.14-.24.11-.16-.03-.14-.07-.29-.07-.06,0-.11,0-.11-.02,0-.08-.26-.06-.15,0,.03.02-.12.03-.33.02-.63-.01-.18-.14-.61-.1-.16.01-.22-.12-.26-.02-.04.11-.28-.03-.28.05,0,.07-.1.05-.17-.03-.05-.05-.08-.06-.11-.04-.1.08-.4.05-.34-.04.03-.05-.1-.05-.1,0s-.29.05-.32,0c-.01-.02,0-.03.05-.01.16.06-.12-.13-.16-.06-.02.03-.01.03.02.02.03-.02.04,0,.04.03,0,.07-.02.07-.09,0-.08-.08,0,.02-.2.02s-.06.07-.21.05c-.06,0-.12-.04-.13-.06-.04-.1-.55.04-.4-.06.04-.02.03-.04-.03-.05-.05-.01-.07,0-.05.02.01.02,0,.02-.04,0-.09-.08-.21,0-.42-.04-.09-.02-.14-.02-.14,0,0,.02-.02.03-.04.01-.02-.02-.04,0-.03.04.02.13-.17.01-.19.14-.01.06,0,.07.06.05.05-.02.03.01-.04.09-.15.15-.16.38-.03.38.09,0,.11.05.04.1-.08.05.05.25-.05.25-.08,0-.05.18-.03.12.06-.14.15.18.03.13-.07-.03-.07.01,0,.15.12.22-.09.06-.04.33.06.31.03.57.14.78.13.24-.11.1-.05.43.03.15.02.17-.05.19-.07.03-.07.03-.01.05.09.04.04.09.12.16.07.05.03.18-.04.15-.06-.02-.07.07-.01.13.06.06.04.24.09.31.02.03,0,.07-.01.1-.06.07-.03.29.05.35.07.05.09.39-.02.42-.1.03-.02.04,0,.13,0,0,.15.57.13.57-.05,0-.05.36,0,.39.06.04.06.34.02.31-.02-.01-.02.01,0,.05.02.05.01.06-.04.04-.05-.02-.06,0-.06.07,0,.3.28.31.15.4-.04.03-.04.04,0,.04.07,0,.01.08-.03.06-.02-.01-.03.07-.03.17.01.32.1.04.1.31,0,.13-.01.14-.06.11-.04-.04-.05-.03-.03.02.04.11-.15.14-.07.19.07.04-.03.08.07.11.09.03.09.22.05.19-.05-.03-.06.09.01.12.07.03.05.24-.02.29-.04.03-.04.03,0,.03.03,0,.02.03-.04.08-.07.06-.08.08-.03.08.05,0,.06.03.04.17-.03.17.01.31.08.27.05-.03.05.06,0,.06-.07,0,.02.19-.03.27-.04.07.04.19,0,.28-.05.1.06.09.02.15-.01.02,0,.02.04.01.14-.05-.03.22-.03.29,0,.13-.1.04-.01.18.07.11.05.27-.04.34-.05.04-.05.07-.01.2.09.3-.11.51-.05.51.02,0,.05.02.08.03.05.03.04.04,0,.1-.09.09,0,.16-.06.19-.06.04.01.05-.04.19-.02.06-.02.09,0,.08.04-.02.03.08,0,.11-.03.03,0,.29.05.34.02.02,0,.06-.03.09-.05.05-.05.06,0,.12.03.04.05.08.04.09-.05.05.02.32-.08.28-.08-.03-.06.13-.01.13.04,0,.01.15-.04.19-.01.01-.02.08-.02.16,0,.21-.09.12.02.23.09.09.1.19.03.25-.03.03-.03.05-.01.05.04,0-.05.12-.1.09-.05-.03.04.14.11.22.04.05.04.07.01.07-.03,0-.04.02-.02.04.01.02,0,.03-.04.02-.09-.03-.04.08-.08.2-.02.04-.01.06.01.04.06-.04.07.28.12.28.04,0,.05.19.02.24-.09.15-.01.43-.11.39-.07-.03-.12.08-.05.03.04-.02.04-.01.03.03-.02.04,0,.06.01.04.06-.03.16.09.14.16-.01.03-.04.05-.06.04-.05-.03.02.05-.03.21-.06.17.03.07.03.19s.17.06.09.11c-.07.05-.1.2-.04.2.04,0,.06.04.06.14,0,.12,0,.13-.03.05-.03-.08-.15-.23-.15-.18,0,.05.09.2.03.24-.03.02-.02.04,0,.08.04.04.03.05-.02.05-.11,0,.02.12.07.09.02-.01.03,0,.01.02-.02.02,0,.04.01.04.05,0,.05.09,0,.06-.04-.03-.01.17.06.19.06.02.07.15.01.18-.06.04.03.17-.04.17-.03,0-.03.04-.02.12.05.22,0,.41.05.28.02-.04.04-.07.04-.06.03.1.02.15-.02.17-.07.03-.05.2.03.33.04.06.05.11.03.14-.04.07.01.26-.05.3-.08.05.21.16.12.26-.07.08.02.25-.04.25-.06,0-.05.1,0,.13.04.01.03.03-.01.07-.17.14.11.45.05.54-.08.12-.04.53.05.5.03-.01.05,0,.05.04,0,.09-.07.02-.05.16.03.15-.1.19-.03.23.06.04.05.1-.02.1-.13,0,.09.23-.01.23-.06,0,.02.06-.04.13-.05.06-.02.13.06.13.08,0,.11.14.04.24-.12.18.16.27.03.38-.08.07-.02.15,0,.45.02.22.07.19.01.26-.03.04-.02.07.06.13.09.08.1.08.03.18-.1.14-.13.31-.06.33.07.03.07.29-.01.35-.04.03-.04.05-.01.05.09,0,.12.16.04.24-.12.13.03.25-.05.33-.06.06.04,0,.03.15,0,.26.2.15.16.26-.04.1,0,.17-.11.17-.07,0-.08,0-.03.04.05.03.05.04-.04.05-.05,0-.12.07-.04.06.12-.03.14.54.15.59.02.06.02.13,0,.16-.05.08-.04.29.01.29.06,0,.04.24-.03.28-.05.03-.04.35.02.45.07.12-.1.12-.06.28.03.14.03.21.07.24.05.05.03.17-.03.17-.03,0-.06.03-.06.06,0,.09.1.02.06.12-.17.4.03.31-.06.42-.04.05-.04.06,0,.03.08-.05.04.11-.04.11-.09,0-.08.09,0,.14.06.04.06.04-.01.04-.08,0-.15.12-.1.17.04.04.05.21,0,.23-.04.02-.08.25.02.17.09-.07.07.08,0,.08-.05,0-.06.05-.05.23.02.31.08.29.05.22-.03-.1.09-.08.09-.02s.22.19.27.16c.02-.01.04,0,.04.03,0,.2-.14-.04-.17,0-.01.01,0,.15.27.12.25-.02.36,0,.36-.07,0-.05.1-.18.16-.09.03.05.05.02.04-.05,0-.03.05-.04.16-.03.14.01.18-.2.28-.11.12.1.15-.11.24.04.09.15.39-.04.39-.15,0-.08.09,0,.2,0,.04,0,.06.02.04.06-.02.04,0,.05.02.03.28-.18.31.19.31.01,0-.08,0,.02.21.05.11.02.14.01.1-.01-.04-.03-.02-.04.09-.04.34,0,.37-.22.37-.13,0,.08.41-.06.39.04,0,.04.16.01.26-.05.02-.01.04,0,.04.03,0,.11,1.08-.02,1.25.07.16.09.13-.06.37-.03.33.05.4.08.4,0,0-.09-.05.02.85.02.19,0,.12.08.2.05.08-.03.03.06.1.06.02,0,.03-.02.02-.03-.03-.04.5-.14.42,0-.01.02-.02.04-.01.04.05,0,.42-.09.54-.04.16.06.14-.09.3,0,.18.1.71,0,.69.08,0,.03,0,.04.03.03.07-.05.36-.06.41-.02.09.07.45-.07.53,0,.05.04.44.03.41-.01-.02-.04.05-.04.07,0,.01.04.5.12.75.12.23,0,.07.05.28.05s.06-.08.21-.04c.23.06.93.05.93.1,0,.02.27.04.27-.03s.07-.06.1.01c.01.03.03.04.05.02.03-.05.15-.06.39-.03.82.11,2-.04,2.66.01.43.03.6.04.64.02.06-.03.25-.03.25,0,0,.04.09.04.06,0-.01-.02.04-.04.14-.04.21,0,.35-.05.32,0-.03.04.13,0,.13-.04,0-.02.04-.02.09,0,.1.03.56.04.56.01,0-.04.54-.03,1.52-.09.07,0,.03-.08.1-.04.07.04.2,0,.17.04-.06.1.58-.14.64-.03.03.05,0,0,.41,0,.44,0,.49-.09.53-.04.03.05.19.03.17,0-.03-.05.44,0,.48-.07.05-.09.08.06.38.02.51-.07.68.05.64-.02-.06-.1.31.14.15-.11-.03-.04-.02-.04.05,0,.05.03.08.03.08,0,0-.05.18-.05.21,0,.05.08.75-.09.75.03,0,.1-.17-.03-.2.06-.02.04.02.05.14.05.14,0,.16-.01.12-.07-.06-.09-.02-.12.11-.07.18.07.1-.01.29.21-.07-.23-.03-.14.03-.17.06-.03.6-.02.62.02.02.02.03.02.03-.02,0-.1.31,0,.34.02.03.02.06.01.08-.01.05-.07.41-.04.47.04.03.05.15-.11.15-.06,0,.01.02,0,.05-.02.04-.03.08-.03.16,0,.1.04.67.02.74-.02.02-.01.04,0,.04.02.02.05.27.07.33.03.03-.02.06-.01.08.02.02.03.03.04.03,0,0-.05.1-.04.26,0,.12.04.02.12.08.08.02-.02.04-.04.03-.06,0-.02.2-.03.47-.02.68,0,.48-.08.78-.03.26.05.25,0,.27.05.04.09.09-.14.19-.05.07.06.2.02.51-.01.32-.04.31-.12.34-.04.03.08.24.08.27,0,.02-.05.03-.05.12,0,.1.07.23.05.19-.03-.04-.07.16.12.13.06-.02-.03.03-.04.14-.05.27,0,.36-.04.34.03,0,.04,0,.04.04,0,.06-.08.2-.09.17-.01-.03.07.06.04.27,0,.1-.02.09-.15.15-.05.03.05.32.08.32.03,0-.02.09-.02.2-.02.31,0,.3-.09.42,0,.13.08.09-.02.58,0,.26.01.33,0,.35-.04.03-.07.48-.05.6.03.06.04.12.04.22.02.23-.06.46-.08.46-.03,0,.07.14.05.17-.02.02-.06.03-.06.07,0,.07.09.17.06.25.12.03.03.05.02.07-.02.02-.05.05-.06.16-.04.2.04.27.16.27.03,0-.07.07-.07.21,0,.1.05.12.05.18,0,.09-.08.07,0,.37,0,.38,0,.21.18.5.04.2-.1.22.05.34,0,.07-.03.02.05.15.05.14,0,.03-.08.09-.08.09,0,0,.13.15.05.15-.09.13.05.37,0,.22-.04.18.09.33.04.19-.07.03.02.67.05.22,0,.32,0,.32-.03,0-.03.01-.03.03,0,.14.19.25.04.44.08.17.04.5.02.53-.03.02-.03.05-.02.09.02.08.08.15.05.12.09-.02.04.17.06.1.01-.04-.02-.02-.04.07-.07.1-.03.12-.03.14.02.02.05.03.05.07,0,.05-.07.45-.1.47-.03.02.07.07-.04.16.08.05.07.07.08.1.04.02-.03.02-.04-.01-.02-.06.04-.06-.03,0-.08s.09-.06.16.02c.08.08.3.08.43,0,.03-.02.1,0,.17.05.3.19.16-.1.4,0,.06.03.12.06.13.07.03.03.15.03.13,0-.04-.07.72-.03.72-.03.15,0,.04.07.1.07.07,0,.06-.17.12-.08.04.07.41.1.38.06-.01-.02,0-.05.03-.08.06-.06.07-.04.23.07-.27-.08-.16.02-.01.04.25.04.24-.23.36-.1.11.11.08-.1.55.04.13.04.13-.13.25-.07.13.07.31-.05.5.07.11.07.12.07.23,0,.07-.04.12-.05.14-.03.05.08.23-.01.19.11-.01.04,0,.05.01.03.04-.05.2-.06.2-.01,0,.06.38-.16.38,0,0,.02.02.02.05,0,.08-.06.36-.03.43.06.04.05.05.06.05.01-.02-.11.55-.07.48.04-.02.02.01.02.06-.02.18-.13.58-.03.55,0-.02.03.21.07.2,0-.01-.06.19-.09.26-.03.09.07.54.11.57.05.03-.07.04,0,.26,0,.25.01.29.1.29,0,0-.15.15,0,.09.1-.04.06.05-.03.15-.01.05,0,.06,0,.04-.04-.07-.11.16.17.32.04.07-.06.27-.08.3-.03.05.08.24,0,.2.1-.05.13.21-.14.3-.05.07.07.01.11.04.08.04-.03.14.09.22.02.07-.06.1.03.1-.03s-.09-.02-.05-.09c.05-.08.1.11.17.06.07-.04-.01.12.07.1.09-.02.15.08.24.03.05-.03.05-.04,0-.04-.03,0,0-.03.05-.06.17-.09.24.06.05.03-.02,0-.02.02,0,.05.02.05.05.05.33.03.04,0,.01-.13.07-.1.06.04-.05.12.05.08.04-.01.06,0,.06.01,0,.04.14,0,.08-.04-.07-.05.07-.08.17-.04.06.02.1.02.11,0,0-.03.04-.03.1,0,.07.05.08.05.02.1-.06.04-.06.05.02.04.11,0,.07-.08.12-.05.02.01.04,0,.05-.03.01-.03.04-.03.08.02.08.1.11-.01.07-.01s-.06-.11,0-.05c.06.06.14.02.1.04-.02,0,0,.05.03.09h0c.07.08.12.1.06.03-.06-.08.51-.05.5,0-.01.06.14.05.21,0,.05-.05.07-.05.14,0,.12.07.33.06.33,0,0-.04.01-.03.04.02.03.07.03.07.04,0,0-.09.13-.08.09-.02-.05.09.04-.05.13-.05.06,0,.19-.11.12-.11-.03,0-.02-.03.03-.06.04-.03.05-.05.03-.04-.08.04-.19-.24,0-.25.05,0-.03-.1.07-.21.11-.12-.03-.14.02-.19.04-.04-.07,0-.06-.12,0-.09.07-.14.07-.06,0,.02.02.03.05.01.07-.04-.02,0-.12-.21-.13-.27.05-.11,0-.33-.01-.07,0-.09.02-.07.07.04.02-.15.08-.12.04.02.03-.08-.01-.18-.04-.1-.08,0-.12-.07-.03-.05.13-.02.13-.08,0-.02.03-.04.07-.04.06,0,.06,0,0-.02-.07-.02-.09-.13-.03-.19.03-.03.03-.05,0-.07-.06-.04-.03-.22-.08-.27-.07-.07.09-.22.06-.29-.03-.05.06-.05.06-.14,0-.03-.02-.05-.04-.03-.05.03-.05-.11,0-.08.05.03.05-.27,0-.36-.06-.12.06-.22,0-.43-.06-.22.1-.27.04-.43-.02-.07-.07-.6.02-.61.04,0,.04,0,0-.02-.09-.04.08-.13,0-.13-.02,0-.04-.02-.04-.04,0-.06.06.02.1-.04.03-.06-.06-.02-.06-.09ZM58.23,6.16c.08,0,.02.08,0,.08-.02,0-.09-.08,0-.08ZM.73,1.8s.03.09,0,.1c-.06.04-.11-.29,0-.1ZM1.26,22.2s-.02,0-.02-.05c0-.1.05.02.02.05ZM58.25,9.58c.06.04.04.06,0,.06-.05,0-.05-.09,0-.06ZM58.13,8.66c.17.01-.07.12-.07.03,0-.02.03-.03.07-.03ZM58,5.51c.04-.06.06-.04.06,0,0,.05-.09.05-.06,0ZM58.01,4.1c.08,0,.02.11.07.18.04.06-.03.09-.08-.07-.03-.09-.03-.11.02-.11ZM58,4.39c.09.03.03.13.1.13.03,0,.02.02,0,.06-.05.06-.04.06,0,.04.1-.05-.07.05-.05.12,0,.02,0,.05-.02.07-.07.04-.09-.21-.03-.31.04-.07-.05-.03-.05-.08,0-.02.03-.03.06-.02ZM57.82,4.48c.17.09.05.12-.03.02-.05-.06-.04-.06.03-.02ZM40.33,1.64c.06.04.04.06,0,.06-.05,0-.05-.09,0-.06ZM32.45,1.69c.05,0,.1.08.05.08-.05,0-.1-.08-.05-.08ZM26.25,1.65c.08,0,.02.08,0,.08-.02,0-.09-.08,0-.08ZM17.7.66c.08-.05.36.03.07.03-.08,0-.11-.01-.07-.03ZM14.76.66c0,.05-.09.05-.06,0,.04-.06.06-.04.06,0ZM13.8.58c.05,0,.1.08.05.08-.05,0-.1-.08-.05-.08ZM11.72,1.27c.08,0,.13.08.02.08s-.1-.08-.02-.08ZM8.51.49c.08-.03.02.05-.02.05-.05,0-.04-.03.02-.05ZM6.04.41c.07-.03.12.03.02.02-.04,0-.05-.01-.02-.02ZM5.69,1.05c.07.12-.18,0-.18-.04s.15-.01.18.04ZM2.88,29.44c-.05,0-.05-.09,0-.06.06.04.04.06,0,.06ZM13.1,29.32c-.08,0-.08-.11,0-.11s.08.11,0,.11ZM15.68,29.44c-.05,0-.05-.08,0-.08s.05.08,0,.08ZM16.01,29.35c-.07.06-.07.06-.02-.02.06-.12.12-.06.02.02ZM16.9,29.32c-.06,0,0-.08.02-.08s.03.08-.02.08ZM17.21,29.29c-.05,0-.1-.08-.05-.08.05,0,.1.08.05.08ZM17.55,29.25c-.05,0-.05-.08,0-.08s.05.08,0,.08ZM46.33,29.44c-.05,0-.05-.08,0-.08s.05.08,0,.08ZM56,30.6s-.09-.04-.04-.07c.05-.03.09.04.04.07ZM58.37,26.04c-.06,0-.02.23-.08.23-.09,0,.11.7,0,.83-.03.04-.04.07-.01.08.05.04.1.16.05.16-.05,0-.06.19-.14.19-.07,0-.07.08,0,.08.03,0,.03.01,0,.04-.1.06.18.22.05.45-.06.12-.07.2-.02.2.05,0,.05.14,0,.17-.07.04.12.2.02.29-.08.06-.04.23-.1.23-.07,0,.17.07.14.12-.04.06-.08-.06-.11.11-.01.06-.04.12-.06.13-.04.02,0,.21.04.21.04,0,0,.27-.03.3-.02.01-.03.05-.03.08,0,.06-.18.08-.3.03h0c-.11-.04-.16.07-.26,0-.04-.02-.07-.02-.07,0,0,.02-.02,0-.03-.02-.05-.09-.47-.04-.6-.12-.12-.07-.16.02-.32,0-.2-.02-.05.11-.31.01-.19-.07-.44-.07-.46,0-.01.04-.03.04-.07,0-.09-.07-.31-.1-.37-.05-.04.03-.05.03-.04,0,.02-.08-.07-.09-.14-.02-.06.06-.07.06-.12,0-.07-.1-.25-.02-.22.02.03.05-.07,0-.04-.07.02-.04,0-.05-.02-.03-.07.05-.32-.01-.29-.07.04-.06-.24.19-.16.05.02-.04-.06-.02-.15.03-.08.05-.35.03-.41-.03-.12-.1-.57-.04-.74-.09-.05-.01-.09,0-.11.01-.03.05-.19.05-.26,0-.07-.06-.35-.06-.42,0-.05.04-.08.04-.2,0-.2-.08-.11-.17-.2-.09-.06.05-.06.04-.04,0,.02-.03,0-.02-.03.03-.11.15-.12,0-.28.02-.11.02-.29-.16-.25-.07.03.08-.07.12-.12.05-.05-.07-.13-.09-.13-.03,0,.04-.29.03-.4-.02-.05-.02-.08-.01-.1.02-.03.04-.04.04-.06,0-.02-.05-.05-.05-.15-.02-.25.08-.25-.18-.32-.04-.05.08-.18.03-.36.03-.04,0-.09-.02-.1-.04-.04-.06-.29-.06-.27,0,.02.08-.16-.05-.22,0-.02.01-.05,0-.07-.03-.05-.06-.52-.05-.6.02-.04.03-.05.03-.05,0,0-.08-.23.03-.23-.03s-.16-.03-.2.04c-.07.12-.1-.05-.18,0-.07.04-.14-.09-.28-.01-.07.04-.08.03-.06-.01.02-.04,0-.05-.08-.04-.17.03-.18.15-.25.08-.07-.06-.25-.05-.25-.08,0-.04-.37-.02-.45.03-.16.09-.35-.08-.35.01,0,.04-.2.02-.36-.04-.08-.03-.1-.03-.08,0,.02.03,0,.04-.1.01-.18-.04-.27-.02-.24-.06.03-.06-.17.05-.17.01,0-.02-.02,0-.04.03-.03.05-.04.05-.04,0,0-.04-.01-.04-.04-.01s-.08.02-.19-.03c-.28-.15-.44.05-.53-.1-.04-.06-.04-.06-.02,0,.04.14-.19-.03-.29.06-.05.04-.31.04-.42-.01-.05-.02-.07-.01-.07.03,0,.05-.02.05-.11.03-.14-.05-.58-.07-.58-.03s-.11.06-.1-.04c0-.08-.16-.12-.19-.04-.04.1-.26-.03-.3.01,0,0-.05-.02-.08-.06-.07-.08-.2-.11-.15-.04.04.06.08-.02.11.04.04.07-.14.11-.26.05-.14-.07-.2.02-.16-.05.04-.07-.14-.01-.2.07-.04.05-.05.05-.13-.01-.07-.07-.12-.07-.46-.06-.47.02-.41-.18-.55-.03-.12.13,0-.04-1.01-.06-.41,0-.51,0-.53.04-.01.03-.04.04-.06.02-.07-.06-.49-.15-.42-.04.03.05-.15.03-.22-.03-.05-.04-.08-.05-.12-.01-.1.08-.2-.09-.49-.05-.49.06-.25-.02-.68-.04-.42-.01-.16.17-.49.09-.11-.03-.18-.03-.21,0-.05.04-.5.03-.56,0-.02-.01-.04,0-.04.02,0,.09-.41-.05-.53.04-.05.04-.05.04-.03,0,.03-.06,0-.06-.09,0-.06.03-.07.03-.05-.03.04-.12,0,.06-.19.06s-.29.07-.29,0-.07,0-.17-.05c-.07-.03-.07-.03-.03.02.04.05.02.05-.15.03-.42-.07-.37.07-.55.05-.12-.02-.07.08-.26.03-.18-.04-.34.09-.31.04.03-.05-.1-.09-.15-.04-.03.03-.23.03-.4,0-.1-.02-.52.14-.56.08-.03-.05-.09,0-.3-.05-.23-.05-.17.07-.31.02-.13-.05-.14.05-.27,0-.15-.06-.13.12-.24.03-.08-.06-.13.01-.21-.04-.03-.02-.07-.02-.09,0-.06.04-.6.04-.69,0-.11-.04-.4.05-.46,0-.07-.07-.06.07-.35,0-.3-.08-.49.11-.57.04-.07-.05-.6,0-.6-.05s-.09.04-.23.03c-.15-.01-.16.09-.24.02-.14-.12-.81.04-.82.06-.02.02-.22-.12-.18-.06.07.11-.38-.05-.34,0,.03.05-.07.07-.16.03-.06-.03-.11-.03-.15,0-.09.06-.29.02-.39-.07-.06-.06-.09-.07-.13-.03-.06.06-.18.05-.2-.01-.06-.15-2.37.11-2.4.03-.04-.11-.1.05-.15,0-.07-.07-.82-.06-.9-.11-.08-.05-.19.08-.39.03-.2-.05-.36.03-.4,0-.04-.04-.27-.04-.29,0-.02.03-.07.02-.14-.02-.15-.08-.06-.01-.38.03-.29.04-.36.04-.44,0-.05-.02-.06-.02-.04.03.03.08-.05.09-.08-.01-.04-.12-.11-.07-.34-.06-.22.01-.28.08-.32.04-.02-.03-.2-.09-.2,0,0,.05-.01.05-.05.03-.09-.07-.23-.04-.28.06-.06.13-.1,0-.07,0,.06,0-.3-.15-.38-.03-.06.09-.53-.18-.53-.03,0,.09-.08.02-.06-.02.04-.07-.21-.09-.15,0,.03.05-.12.02-.23-.05-.06-.04-.09-.05-.08-.03.05.08-.28-.04-.28.03,0,.11-.38-.12-.38,0,0,.1-.19-.04-.19.06,0,.04,0,.04-.04,0-.04-.07-.34-.09-.41-.03-.09.08-.28-.07-.28.05,0,.1-.04,0-.18-.03-.17-.04-.12.24-.17.05-.04-.16-.03.03-.19-.01-.13-.03-.16.03-.07.13.04.04.06.08.04.08-.1,0-.08-.14-.25-.08-.12.05-.13.01-.31-.16l-.05.18-.09-.1c-.09-.1-.24-.11-.19-.02.02.03.01.03-.02,0-.06-.05-.23-.02-.26.05-.03.07-.1.06-.07.02.03-.04-.09-.14-.12-.1-.04.04.1.08.06.12-.02.02-.06,0-.1-.05-.07-.08-.15-.07-.08.01.06.07-.15.05-.18.01-.03-.05-.09.02-.09-.02,0-.04-.11-.05-.11.02,0,.11-.18-.21-.28-.12-.04.04-.33.02-.4.06-.07.05-.04-.03-.64-.01-.25,0-.95.02-.73-.08.12-.05-.08.02-.29.02-.2,0-.18.17-.19.06,0-.11-.28,0-.33-.07-.03-.06.08-.03.04-.06-.04-.04-.12.08-.18.04-.06-.04-.27-.05-.25-.01.02.03-.34.02-.4-.02-.06-.04-.02.05-.08.05s.03-.08-.03-.08c-.02,0-.03-.03-.02-.07.02-.05.01-.06-.02-.01-.06.08.02.12-.06.12-.09,0-.09-.12-.12-.05-.01.03-.07.03-.14.02-.2-.04-1.53-.02-1.62.03-.1.05-.02,0-.48-.01-.58-.03-.48-.15-.61-.06-.06.04-.09.04-.12,0-.07-.07-.17-.05-.2.04-.06.17-.09-.13-.29-.07-.15.04-.34.04-.34,0,0-.06-.11.02-.11-.04,0-.02-.03-.01-.06.02-.11.11-.16-.02-.57.04-.34.04-.37.06-.35.12.01.04-.01.09-.08.14-.16.12,0,.05,0,.25,0,.09-.01.11-.08.11-.1,0-.11-.04-.02-.1.05-.03.06-.05.02-.09-.04-.04-.05-.04-.05,0,0,.03-.05.04-.12.03-.1-.01-.13-.03-.14-.11-.01-.1-.08-.15-.08-.06,0,.02-.02.03-.05.03-.05-.02-.18.05-.1.15.1.12-.07-.02-.19.05-.06.03-.06.04.03.08.11.05.11.15,0,.12-.04-.01-.07-.03-.07-.05,0-.03-.16-.03-.22,0-.07.04-.15-.18-.22-.15-.07.03-.19-.11-.14-.15.08-.05-.14-.24.03-.19.06.02.06.02,0-.02-.07-.05-.1-.25-.02-.21.03.02.03.01.01-.02-.04-.06.05-.23.13-.23.04,0,.04-.01-.02-.04-.05-.02-.06-.03-.02-.04.04,0,.03-.02-.03-.08-.14-.12,0-.27.03-.27.05,0,.04-.27,0-.27s-.05-.08.03-.08.06-.11.02-.11c-.06,0-.08-.16-.02-.18.12-.05-.13-.17-.02-.26.06-.04.05-.14-.02-.18-.07-.05.06-.08.03-.17-.01-.03,0-.08.04-.1.07-.05.06-.23-.01-.31-.07-.07.07-.14-.02-.22-.06-.05-.05-.18.04-.11.1.08,0-.2,0-.34.02-.2-.04-.28.02-.32.07-.05-.05,0-.05-.07,0-.07.15,0,.09-.09-.05-.07-.08-.29-.13-.37-.08-.13.13-.22.02-.38-.08-.12,0-.19,0-.31,0-.03.01-.07.02-.1.02-.07-.04-.17-.1-.14-.09.04,0-.16.03-.17.04-.02.05-.09,0-.06-.05.03-.05-.1,0-.1.08,0-.09-.14,0-.19.05-.03.08-.23.03-.23-.04,0-.12-.2-.12-.29,0-.1.06-.15.1-.09.03.05.1.01.1-.06,0-.08-.12.01-.02-.07.08-.06.08-.06,0-.04-.08.02-.09,0-.11-.16-.05-.38-.07-.39,0-.31.07.1.11-.01.06-.01-.07,0,.03-.03-.06-.1-.04-.03-.05-.05-.02-.05.05,0,.05-.14,0-.23-.05-.08.04.02.07-.04.03-.05-.02-.15-.07-.13-.05.02-.07-.24-.02-.27.06-.04-.09-.16,0-.27.04-.05.04-.07-.01-.11-.07-.05-.1-.33-.03-.33.05,0,.03-.13-.03-.18-.05-.04-.05-.05,0-.08.11-.07-.02-.39.09-.39.08,0,.07-.1.04-.06-.04.04-.17-.11-.11-.02.02.03.01.05,0,.05-.05,0-.08-.17-.03-.27.11-.28-.05-.31.03-.36.06-.04-.02-.1.05-.17.03-.04.03-.04,0-.02-.03.02-.06-.01-.07-.08-.05-.22-.21-.14-.06-.28.07-.07.08-.09.04-.14-.04-.04-.03-.05.01-.05.07,0,.06-.11.03-.11-.04,0-.06-.21-.11-.17-.05.03-.05-.1,0-.1s.05-.11,0-.11c-.07,0,.08-.11.02-.11-.05,0,0-.22-.05-.25-.08-.05.17-.27-.08-.35-.11-.03-.11-.04-.03-.04.08,0,.09-.02.07-.1-.03-.14.1-.16.06-.22-.05-.08.02-.35-.05-.25-.06.08-.06-.31,0-.31.07,0-.03-.02-.04-.13-.01-.13-.05-.28,0-.31.04-.02,0-.34-.04-.35-.02,0-.01-.06.01-.11.07-.16-.07-.11-.01-.2.06-.09.09.11.14.06.04-.04-.09-.14-.04-.14.05,0-.06-.03-.04-.24,0-.11,0-.15-.06-.18-.07-.04-.09-.3-.02-.3.05,0-.02-.16.03-.13.04.02.03-.18-.01-.24-.02-.03-.01-.06.02-.08.07-.04-.02-.09.03-.16.05-.08.05-.15-.01-.17-.08-.03-.06-.43.03-.47.09-.05.13.04.09-.04-.06-.1-.09-.47-.04-.53.07-.09-.16-.16-.05-.16.05,0,.05,0,0-.04-.05-.03-.03-.05.04-.04.03,0,.09-.15.01-.12-.04.01-.04,0-.03-.06.01-.06.03-.07.07-.04.03.03.04,0,.03-.09-.02-.18-.09-.14-.06-.09.03.05-.05.03-.04-.09.02-.19,0-.26.05-.18.07.11.08,0,.02-.11-.07-.11-.07-.12.02-.2.1-.1.11-.27.02-.27-.05,0-.06,0-.02-.03.04-.02.04-.04,0-.06-.05-.03-.06-.21,0-.21.06,0,.02.13.08.04.04-.06.01-.22-.04-.28-.02-.02,0-.07.02-.12.07-.13,0-.54.06-.57.04-.02-.01-.21-.1-.37-.06-.11-.03-.24.05-.21.07.03.07-.07,0-.13-.08-.06-.07-.15,0-.15.09,0,.04-.14,0-.13-.06.01-.04-.48,0-.47.06,0,0-.09.06-.09.11,0-.12-.3,0-.26.08.03.07-.08.02-.07-.06.01-.1-.2-.05-.22.02,0,.01-.02-.03-.02-.17,0,.12-.08-.01-.21-.05-.05-.05-.06-.01-.06.04,0,.04-.01.01-.04-.04-.04-.02-.23.02-.23.05,0,.07-.14.02-.18-.06-.05-.05-.18.02-.18.06,0,.06-.08-.01-.07-.06.01-.1-.23-.05-.32.06-.11-.19-.06-.14-.22.03-.11.21-.35.09-.27-.08.05.05-.07-.06-.18-.1-.11,0-.08.02-.18.03-.14.15-.05.06-.24-.11-.21-.12,0-.11-.36l.05.11c.1.25.1-.17.06-.17-.03,0-.14-.26-.05-.34.09-.09-.03-.03-.05-.22-.01-.16-.07-.19-.04-.24.03-.05-.08-.11-.04-.05.03.05-.04.12-.06-.02-.03-.15.1-.16.02-.16-.06,0-.03-.08.05-.05.07.03.08-.14.02-.2-.02-.02-.04-.12-.05-.21-.02-.27-.14-.27-.07-.34.06-.07.08-.31.04-.38-.08-.13.15-.45,0-.45-.08,0-.11-.07-.07-.17.09-.18.05-.39.15-.35.1.04-.34-.33-.12-.51.05-.04.05-.06,0-.16-.09-.17-.09-.36-.01-.41.1-.06,0-.2.06-.13.03.04.31.14.27.04-.02-.06.11-.12.15-.06.01.02.05.02.08.01.11-.04.4.22.58.04.05-.05.07-.05.14,0,.23.15.29.16.29.08,0-.07.07-.07.2,0,.09.05.12.05.19,0,.15-.11.17.09.31.03.03-.01.06,0,.06.02,0,.06.17.05.23-.01.03-.04.07-.05.14-.02.1.04.36.03.44-.02.08-.05.05.07.14.03.03-.01.05,0,.05.04,0,.12.6-.02.69.09.06.07.28.07.34,0,.07-.08.05,0,.36,0,.32,0,.35.08.39.02.05-.07.06.07.19.09.14.02,0-.19.1-.15.07.03.01.1.08.11.28.03.41.02.52-.03.12-.05.28-.04.28.02,0,.03.38.17.49.07.08-.07.22-.08.25-.02.03.08.39.03.44.08s.12.02.14-.06c.04-.15.07.03.19-.01.03-.01.12,0,.19.05.14.08.36.08.31,0-.02-.03-.01-.03.03,0,.17.13.36.05.18-.02-.07-.03-.08-.04-.01-.03.12.01.14-.07.21.01.13.15.57.14.65.05.06-.06.26-.06.26,0,0,.08.78.14.86.07.11-.09.15.13.27-.03.11-.15.1.03.23-.02.04-.01.08,0,.11.04.06.08.33.08.43,0,.03-.03.05-.03.04,0-.05.08.25,0,.29.01.02,0,.06-.01.08-.04.05-.05.15-.01.11.04-.01.02,0,.04.03.05.06.02.15-.06.11-.11-.04-.04.06.07.22.04.17-.03.09.06.16.06.02,0,.03-.02.03-.05-.02-.12.36.08.45.01.05-.04.32-.03.42.01.05.02.07.02.05-.01-.03-.06.02-.06.08,0,.04.04.27.11.23.02-.03-.08.08-.12.18-.06.06.04.08.04.09,0,.02-.06.1-.05.07,0-.03.05.12.09.18.05.03-.02.08-.03.12-.03.13,0,.09-.14.18-.05.09.08.34.16.39.12.08-.07.33.11.33-.03,0-.06.06-.08.09-.03.02.03.24.03.28,0,.04-.04.17-.03.17.02,0,.06.09-.02.19.03.11.06.06-.03.22-.02.56.07.5-.12.59.01.07.1.2.05.31.1.05.02.07.01.07-.03s.02-.06.09-.04c.2.05.36-.12.4.02.03.12.19.04.69.09.17.02.2,0,.18-.04-.02-.05,0-.05.06-.02.12.06.07.16.14.06.1-.13.06.03.25,0,.17-.03.07.06.17.06.03,0,.06-.02.06-.04,0-.05.18-.05.21,0,.03.06.1.05.1-.02s.28-.05.3.01c.02.06.08.05.08-.02s.05-.07.16-.01c.1.05.52.07.59.02.03-.02.05-.02.07,0,.03.05.11.05.07,0-.05-.07.1.03.1-.03,0-.05.08-.05.08.02,0,.03.07.06.2.08.24.03.24.03.23-.04-.02-.1.26-.12.2-.02-.02.03.3.1.37.09.08-.02.37-.02.49-.08.08-.04.21-.02.18.04-.03.04.08.08.3.1.15.02.18,0,.16-.04-.03-.09.1-.07.1-.03,0,.03.3.11.37.02.04-.06.05-.06.13.02.09.1.16.11.13.03-.03-.08.06-.07.15,0,.04.04.06.05.05.02-.04-.07.15-.07.23-.13.03-.02.06,0,.08.06.08.18.27-.01.39.1.08.08.21.08.24.02.03-.08.11-.07.09-.03-.03.04.17.09.14.02-.03-.09.1-.1.19-.02.05.04.11.07.13.06.1-.04.33.12.24,0-.04-.05-.03-.06.02-.08.04-.02.08,0,.1.04.1.18.46-.1.53.04.05.09.11,0,.21.06.11.06.59-.2.59-.05,0,.1.28.09.39,0,.06-.05.07-.05.05,0-.03.08.1.12.07.06-.02-.06.25-.07.32-.02.05.04.05.03.03-.02-.02-.05,0-.07.09-.07.09,0,.11.01.09.06-.01.03,0,.05.01.04.05-.03,0,.1.45-.02.09-.02.14-.02.17.02.06.06.19.07.14,0-.08-.1.19-.1.19-.02,0,.04.09.03.25.05.25.02.31-.08.58,0,.23.06.22-.03.33,0,.04,0,.09,0,.11-.02.07-.05.53-.02.58.03.03.03.33-.06.35-.03.01.01.04,0,.06-.04.04-.06.17-.04.17.02,0,.05.1-.02.13.03.04.06.15-.04.28,0,.06.02.09.02.11-.02.03-.07.17-.07.24,0,.04.04.05.04.03-.02-.02-.05,0-.06.03-.04.08.03.04.13.09.05.03-.05.05-.05.16,0,.12.05.2.06.55.03.23-.02.22.09.36.04.13-.04,0-.02,0-.07,0-.05.14,0,.2,0,.04,0,.02.16.06.1.05-.06.12-.06.12,0,0,.13.41-.24.36-.12-.04.09.4.07.51.06.12,0,.15-.02.12-.06-.06-.07.16-.07.16,0,0,.04.04.05.14.04.24-.02.27.1.37.02.09-.07.24.03.2-.04-.04-.07.09-.09.22-.03.14.07.41.05.47-.03.08-.1.04.06.25.06.09,0,.11,0,.07-.05-.07-.09.08-.1.29-.03.46.16.43-.19.56-.06.04.04.45.22.45.08,0-.07,0-.07.14-.01.15.06.24.07.23.02-.02-.1.59.05.68-.02.04-.03.46-.12.49-.03.03.07.25.04.34-.04.04-.04.07-.04.07-.01,0,.07.17-.02.21.04.04.06.14.05.14-.01,0-.09.07-.1.14-.02.08.09.13.1.1.02-.04-.11.15-.08.28-.01.23.12.17-.04.38-.01.17.02.09-.19.24-.06.13.12.17-.01.31.06.14.08.06-.11.18-.11.03,0,.05.02.04.05-.02.06.03.07.33.06.25-.01.6.04.72-.06.1-.08.07.06.23,0,.14-.05.34-.04.34,0,0,.02.03.05.06.07.11.04,0-.22.23-.07.18.12.07-.12.2,0,.08.07.3.11.33.06.01-.02.06-.02.11,0,.09.04.23.02.2-.03-.02-.04.98-.1,1.43.05.18.06.12-.16.34-.04.14.07.22.08.24.02.02-.06.37-.09.43-.03.05.04.05.04.03-.01-.03-.08.09-.07.08-.02-.01.07.29.11.42.07.17-.06.3.02.34-.04.02-.03.05-.03.1,0,.1.05.19.02.16-.06-.04-.1,0,0,.34.04.2.02.22.02.24-.06.02-.09.03-.09.08-.01.04.05.07.06.09.03.06-.1.31.1.43-.05.06-.08.06-.08.1,0,.05.09.24.09.34,0,.11-.09.31.04.29.06-.03.03.07.02.13-.02.11-.07.25.07.37-.05.12-.12.21.03.32-.06.11-.09.32.17.27.03-.03-.08.08-.09.16-.02.04.04.05.04.07,0,.02-.06.13-.06.13,0,0,.02.01.03.02.02.06-.06.09.1.27-.02.19-.12-.01.05.15.05.13,0,.06-.1.15-.1s.02.06.13.1c.11.03,0,.13.09.06.1-.08.04-.18.12-.14.03.01.06,0,.06-.02,0-.03,0-.03.03,0,.05.07.06,0,.18.08.18.1.4-.09.58.03.04.02.05.02.03-.01-.05-.08.02-.13.09-.07.22.2.39.01.23.05-.08.02-.08.01-.04-.04.04-.05.07-.05.15-.03.06.02.09.02.07,0-.03-.05.13-.05.13,0,0,.05.18.12.23.08.11-.07.23.06.28-.06.06-.14.02.06.26.06.7.01.71-.14.67-.02-.02.06-.02.06.02.03.05-.05.16-.02.13.04-.01.02,0,.03.02.01.07-.05.16.05.16.18,0,.24-.08-.09-.13.05-.03.08-.03.1.01.08.05-.03.09.06.05.1-.06.06-.03.24-.08.28-.06.03-.02.23-.08.27-.08.05.14.21-.09.18-.04,0-.03.14.01.17.03.02.02.04-.03.07-.11.08-.12.59-.08.59.04,0,.05.2,0,.12-.05-.08-.09.03-.06.07.01.02.02.11.02.19,0,.14,0,.15.09.13.27-.07-.16.21-.04.15.07-.04.03.13.17.13.17,0,.15.16.3.08.12-.07.18,0,.1.13-.08.12-.08.14,0,.14.1,0,.01.1.14.04.13-.07.04,0,.03.17,0,.07,0,.07-.03.02-.02-.04-.05-.05-.1-.03-.06.03-.07.03,0,.03.08,0,.09.07,0,.16-.13.15.1.21-.04.32-.15.12.13-.05.08.07-.04.09-.15,0-.11.05.03.04-.09.14-.12.1-.01-.01,0-.02.02-.02.09,0-.05-.15-.06-.03-.01.12-.08.28-.01.24.08-.05,0,.19.1.15.08-.03.07.09,0,.09-.03,0-.03.01,0,.04.12.07-.11.02-.11.09,0,.12,0,.12.03.07.02-.03.04-.04.06-.01.04.06-.09.06-.09.13,0,.07.16-.06.04.11-.12.16.01.12-.03.22-.02.04,0,.05.02.03.06-.04.07.04-.01.07-.07.03-.08.1-.02.1.02,0,.03-.02.02-.04-.01-.02,0-.03.03-.02.08.03,0,.17.06.17.06,0,.01.09-.04.05-.06-.04,0,.07.05.04.06-.03.09.18.03.23-.11.08.03.56-.11.56-.1,0-.09.07.01.11.07.03.07.04.02.04-.08,0-.09.14,0,.22s0,.04-.04.3c-.02.15-.01.2.03.24.09.07,0,.12.06.12.03,0,.03.02-.02.07-.12.13,0,.38-.12.58-.04.07.03-.03.11.11.18.27.04.97.16.97.05,0,.05.01.02.05-.06.06-.06.12,0,.08.03-.02.01.01-.04.06-.08.09-.08.1-.03.3.19.73-.08.69,0,.83.1.16.06,1.26.16,1.44.06.11.09.36.05.38-.02.01-.02.06,0,.11.04.1,0,.1-.13.16.06.03.17.08.17.15,0,.15-.11-.18-.11,0,0,.13.19.19.07.15-.09-.03-.03.17,0,.17.05,0,.01.12.08.18.03.03.02.04-.04.02-.08-.02-.08-.01-.04.06.06.1-.03.08.03.11.04.03.12.27.03.3-.1.04.06.1-.02.15-.06.04.05.13.09.11.05-.03-.03.09-.02.21,0,.14-.1.1-.04.18.05.06.06.32.1.41.04.1-.19.59-.07.71.13.13-.05.32.01.32.11,0,.13,1.04.11,1.26-.03.29.16.28.05.34-.1.06.07.21,0,.24-.06.02-.08.2-.04.17.04-.04.13.25.09.3-.06.07.06.79-.05.72-.02-.01-.02.02,0,.06.08.16-.04.41.06.56.05.08.05.09,0,.13-.07.06-.07.21,0,.24.04.02.04.02,0,.02-.06,0-.06.13,0,.18.07.07-.06.15-.02.28,0,0,.13.93-.03.71-.04-.05-.05-.04-.05.06,0,.11.08.27.11.19,0-.02.03-.01.06.02.04.05.03.05-.07.05-.11,0-.12.01-.11.11,0,.06.03.1.06.09.09-.02-.03.29.05.24.05-.03.05.18,0,.15-.05-.03-.05.04,0,.14.04.06.04.08,0,.11-.03.02-.04.04-.02.04.02,0,.02.01,0,.03-.07.05.08.19.05.12-.04-.08.23.21.1.29-.05.03,0,.44-.04.44s-.02.42.03.52c.03.06.03.1-.01.16-.11.15.1.04-.03.19-.14.16.06,0,.05.31-.01.27.12.3.05.3ZM57.58,5.78c-.04-.07.19.15.17.17-.02.02-.12-.09-.17-.17ZM57.71,6.18s0,.04-.03.07c-.07.07,0-.1.03-.07ZM57.72,5.55s.06-.05.1,0c.03.05-.1.05-.1,0ZM57.61,6.58s-.04.04-.07,0c-.08-.1.16-.13.07,0Z"/>
  <path d="M58.31,5.02s.03-.08-.02-.08,0,.08.02.08Z"/>
  <path d="M25.34,29.91s-.05-.01-.07,0c-.07.03.1.03.07,0Z"/>
  <path d="M27.41,29.93c0,.05.08.05.08,0s-.08-.05-.08,0Z"/>
  <path d="M34.28,29.84s-.03,0-.05.05c-.04.11.07-.02.05-.05Z"/>
  <path d="M43.07,30.03s-.05-.01-.07,0c-.07.03.1.03.07,0Z"/>
  <path d="M34.43,29.84s-.05-.01-.07,0c-.07.03.1.03.07,0Z"/>
  <path d="M2.11,22.79s.06-.02,0-.06c-.05-.03-.05.06,0,.06Z"/>
  <path d="M13.92,1.45s.11.01.13-.02c.03-.05-.13,0-.13.02Z"/>
  <path d="M16.23,28.85c0,.06.01.07.04.02.03-.05-.04-.09-.04-.02Z"/>
  <path d="M16.48,29.05s-.02.04.04.04c.12,0,.02-.1-.04-.04Z"/>
  <path d="M17.68,28.98c.04.06.06.05.03-.02-.03-.08-.07-.03-.03.02Z"/>
  <path d="M17,29.06c.1.04.1.04.08,0-.03-.04-.2-.05-.08,0Z"/>
  <path d="M16.93,28.9s-.02.02.01.04c.14.09.05-.04-.01-.04Z"/>
  <path d="M16.74,28.92s-.02.02.02.02c.1,0,.04-.05-.02-.02Z"/>
  <path d="M10.51,28.8s.09,0,.09-.05c0-.06-.18-.04-.09.05Z"/>
  <path d="M10.78,28.84s-.02.02.02.02c.1,0,.04-.05-.02-.02Z"/>
  <path d="M2.3,29.3s-.02.02.02.02c.1,0,.04-.05-.02-.02Z"/>
  <path d="M12.73,28.93s-.01.03.05.02c.12-.03,0-.07-.05-.02Z"/>
  <path d="M13.8,29.21c.05,0,.04-.08.02-.08s-.08.08-.02.08Z"/>
  <path d="M13.19,28.86s0-.11-.02-.11-.03.11.02.11Z"/>
  <path d="M4.81,29.82c.03.05.1.05.1,0s-.13-.05-.1,0Z"/>
  <path d="M40.74.86s-.02.02.02.02c.1,0,.04-.05-.02-.02Z"/>
  <path d="M51.1.67s-.02.02.02.02c.1,0,.04-.05-.02-.02Z"/>
  <path d="M.92,6.16c-.06,0,0,.08.02.08s.03-.08-.02-.08Z"/>
  <path d="M1.25,23.94c0-.11-.17-.09-.05.02.06.06.05.06.05-.02Z"/>
  <path d="M.75,3.87s-.04-.09-.04-.02c0,.06.01.07.04.02Z"/>
  <path d="M.89,7.17s0,.06.02.05c.03-.03-.02-.15-.02-.05Z"/>
  <path d="M2.59,30.09s.04.04.07,0c.03-.04-.09-.04-.07,0Z"/>
  <path d="M2.05,30.09c-.03.05.06.05.06,0,0-.04-.02-.06-.06,0Z"/>
  <path d="M2.28,30.07c0,.12.08,0,.03-.04-.02-.01-.03,0-.03.04Z"/>
  <path d="M1.25,30.11c0,.08,0,.07.06,0,.07-.09-.06-.07-.06,0Z"/>
  <path d="M.55.41s-.03.06,0,.06c.1,0,.11-.18,0-.06Z"/>
  <path d="M4.65,29.88c0,.12.08,0,.03-.04-.02-.01-.03,0-.03.04Z"/>
</svg>