<?xml version="1.0" encoding="UTF-8"?>
<svg xmlns="http://www.w3.org/2000/svg" viewBox="0 0 18.21 1182.41" preserveAspectRatio="none" fill="#2c2013"><g transform="translate(18.21 0) rotate(90)">
  <defs>
    <style>
      .cls-1 {
        fill: #2c2013;
      }
    </style>
  </defs>
  <path class="cls-1" d="M1110.84,13.94c-2.96-.03-5.89-.02-8.68.06-.74.02-1.18.09-2.12.17,8.83.07,30.65,0,33.87.26-.3.22-2.4.19-11.07.25-.06.05-.88.03,5.2.11,1.25.1.36.1-11.27.11-5.52,0-7.06-.19-13.31-.16-3.19.01-6.32-.11-9.66-.06-20.83-.15-24.98-.11-25.44-.38-.31-.18,15.69-.04,17.9-.17-.83-.07-1.11-.2-5.55-.16-11.3.12-7.88-.09-17.29-.03-8.69.06-7.93.13-14.51.09-21.79-.13-24.96-.07-29.3-.11-5.9-.05-11.68-.03-17.65.07,4.26.21,3.02.13,4.11.35-2.61.02-4.81.04-6.96.06-.07.03-.4.06.82.07,41.13.36,22.31,0,37.6-.02,5.33,0,9.66-.19,10.62.07,1.08.29,4.96.23,12.14.24,15.54.04,1.23.12,39.93.16,5.48,0,1.31-.02,18.5.13,1.84.07,2.25.21,3.05.33-.51.12-1.73.2-3.46.21-15.42.09-17.22,0-7.7.13.34.11.17.14-.75.14-7.52,0-15-.02-22.42-.13-7.24.15-.25.11-35.21.16.94.11,2.19.08,3.2.09,12.55.17,11.78.18,12.17.21-25.58.41-22.61-.12-45.07.09-.36-.03-.66-.07-1.11-.08-.65-.03-1.15,0-1.23.04-.03.02,2.39.03,2.5.03.36.03.66.09,1.1.1,43.77.58,40.25.37,41.76.68-12.27.08-15.09-.01-21.46.08-10.94-.1-20.28.13-32.07-.07-.47,0-.76-.07-1.13-.1h-.17c5.71-.21,3.56-.15,8.57-.21-12.79-.54-18.52.24-33.07.25-9.41,0-18.74.12-28.21.08-6.82-.03-20.14.04-21.46.05-4.21,0-8.54-.1-12.6,0-5.41.14-9.6.07-12.97.24-1.3.02-1.49.04-.2-.01,5.48.06,3.95.17,1.87.54l-.21.03c.16-.05-.91-.05,6.91.04,2.09.23,1.51.15,1.8.32-6.42.09-13.03.02-19.54.1.48.11.45.04,11.4.09.48,0,.93.04,1.6.07-1.07.02-1.99.05-2.9.05-17.85-.02-17.31-.03-25.32-.12-23-.26-12.62.04-46.79-.27-2.28-.02-4.41-.08-5.79-.24,6.77-.13,14.14-.01,33.85-.14.15,0,1.1-.13-.3-.13-4.89,0-5.04.14-10.55.04-6.7-.12-8.64.18-15.24-.04-.51-.02-1.27,0-1.88,0-5.86.08-9.49.05-24.06.09-1.35.16.42.22,1.37.3.17.11-1.86.11-2.01.2,1.94.04,3.76.07,7.39.14-30.76.05-32.32.1-42.37-.06-15.94-.25-23.96-.05-32.99-.21-10.81-.2-70.97-.21-72.75-.21-2.01.06-3.44.11-5.04.1-11.8-.05-13.73.04-26.37-.06-20.68-.17-51.82-.07-55.57-.03.47.09.86.16,1.4.26-18.44.04-14.73.08-19.23-.12-12.42-.09-9.19-.02-29.29-.02-1.59.06-3.25.15-5.06.17-3.8.03-6.66.39-11.68,0-2.24-.02-4.79-.04-7.3-.06-.32.1.2.09,2.39.18-1.75.09-3.61.01-5.4.02-1.92,0-3.86-.01-5.63-.02-4.02-.16-2.79-.17-5.72.02-6.93,0-5.45.04-7.04-.17-1.65.07-3.3.13-5.15.21-3.02-.02-6.19-.12-9.34,0-25.74.08-23.46-.03-35.13.06-2.58.02-5.19.05-7.76-.02-2.34-.06-4.5.08-6.71.04-2.35-.04-4.49.03-6.86.02-1.03-.04-2.14-.09-3.42-.14-2.86,0-5.26.15-8.96.17-3.04-.04-6.75-.16-10.74-.09l-.1-.04.28.02c-.2.02-.37.05-.61.05-15.62.2-26.74-.14-22.8-.06-1.59.12-2.67.15-8.18.15-19.06,0-19.38-.01-21.34-.06-4.6-.12-4.06.12-11.38,0-9.3-.17-9.85.07-14.31.03-2.87-.03-8.39-.16-11.41-.04-5.1.19-10.09.05-16.08,0-7.17.18-19.98.06-28.11.14-1.55.02-3.23-.02-4.49-.1-.23-.21,2.29-.3,4.21-.43-.82-.04-1.54-.1-2.37-.1-7.41-.08-7.54.07-9.42-.03-1.72-.09-2.21-.22-2.44-.36-.11-.07.25-.09,2.56-.19,1.39.08,2.84.17,4.32.26,2.9.05,5.01-.03,6.59-.2-1.21.08,2.46-.21,8.11-.11,1.23.02,2.42.07,3.73.03.71-.02.83-.06.31-.13-8.71-.11-5.77-.06-11.62-.26,3.23-.08,15.43-.03,15.48-.03.8,0,1.54.06,2.3.1-.72.09-1.32.16-1.93.23,3.45.12,6.68.19,9.74-.05-2.71-.21-2.03-.15-2.35-.23.52-.15,2.7-.08,4.16-.15.18-.11.38-.23.62-.37-.85-.03-1.67-.08-2.52-.08-11.55-.04-8.31,0-11.56.17-1.24.07-3.59.07-4.46-.02-1.92-.19-4.62-.24-7.71-.25,3.52-.07,3.85-.06,4.82-.17,1.06-.13-3.21-.26-4.7-.27-13.7-.06-12.44,0-15.77.07-12.58-.16-17.23-.31-28.58-.19-3.24.16-1.52.16-7.94-.01-1.97,0-3.91.02-5.73.03-2.72-.18,2.91-.18,5.07-.21.53,0,.94-.05,1.41-.08q-5.11-.09-14.32,0c1.23.07,3.16.14,2.83.25-.3.1-2.66.1-4.14.1-11.19-.06-9.74-.02-4.03-.16.56-.12-2.36-.14-1.73-.27l-.15.02c.94-.02,2.47-.03,2.33-.09-.33-.16,1.66-.17,2.61-.25.13-.16.32-.05-.5-.4-4.39-.16-51.43-.08-62.41.03-10.9.11-28.76-.03-36.06.15-6.83-.02-13.65.08-20.5-.02-4.77-.07-30,.05-44.8-.03-2.74-.01-4.34.12-7.53,0-.39-.02-.48-.07-.6-.11-.31-.11,1.16-.05,90.54-.11,16.64-.17,44.97-.08,48.84-.16,5.74-.11,14.3.09,22.5-.17-2.23-.16.5-.11-9.83-.2-.08-.09-.15-.16-.22-.24-2.67-.07-8.47,0-9.06.23-.66.27-14.56.08-18.43.01.71.06-.68-.06-1.31-.06-19.18-.19-32.67.04-51.74.04-.05,0-71.26.01-74.47-.02.39-.04.64-.08.89-.08.06,0,53.26-.03,63.61-.02,11.86,0,4.96-.1,14.32-.11,28.25-.01,25.75,0,35.27-.02,6.68-.01,1.85-.17,19.3-.13,1.27,0,2.55-.02,4.17-.03-.66-.04-.97-.08-1.36-.08-3.84-.04-10.74-.13-14.57-.09-7.25.09-9.75-.03-12.64.02-11.77.17-23.08-.13-30.18.03-8.8,0-17.53.12-26.39.04-3.83-.04-7.82,0-11.73.01-29.81.05-18.28-.06-21.49-.01-5.48.09-11.05-.01-16.65.06-8.59-.27-6.65-.14-9.13-.55,7.8-.22,81.04.01,95.87-.17,10.1-.12,5.84,0,23.37-.06,1.11,0,1.52-.03,4.2-.18-2.07-.03-3.95-.06-6.33-.1-3.57-.34-4.15-.44-6.17-.46-20.25-.27-20.89-.23-19.21-.5,2.87.04,5.68.09,8.52.12.72,0,2.63-.12.69-.18-.77-.02-2.97-.11-7.56-.12-5.38-.01-4.33-.27-13.82-.29-78.37-.15-72.16.11-75.36-.2,4.18-.18,26.8.03,54.26-.13.67-.26-6.78-.13-10.88-.41-1.34-.09-3.32-.14-4.94-.22-.45-.02-.61-.07-.9-.11,4.02-.18,7.49.06,11.35.07,5.96-.15,2.95-.13,13.7-.09,2.69.09.96.28,2.65.37,1.61.09-.18.22.96.31q5.35.13,13.06,0c-2.8-.52.35-.36,10.35-.44.87,0,1.68-.05,2.47-.08,0-.29.94-.17-4.73-.54-2.67-.06-3.16.15-6.35.19-1.81.02-3.83-.21-7.04-.18-1.57.06-2.94.15-5.13.15-17.74,0-31.74.2-30.44-.29,1.28-.48,17,.01,29.89-.35,5.72.09,11.81.17,18.05.13,2.83-.02,2.27-.21,1.36-.38-3.43-.18-7.23-.29-11.66-.23-.41-.06-.78-.12-1.22-.18-7.07-.07-14.22-.09-21.41-.03-1.08,0-1.65.06-2.09.12.28-.02,1.11-.02-5.86,0h.19c-4.4-.39-35.72.13-48.66-.34.72-.1.76-.14,1.76-.15,28.04-.12,31.91.11,40.82-.09-.12-.07-.23-.13-.38-.21,3.44-.11,6.92-.02,10.42-.01,3.77.01,6.95.11,9.83.26,2.41,0,4.69,0,6.97.02,13.7.07,13.8-.38,18.81-.22.68.02,2.01-.07,2.07-.12.06-.06-.84-.14-1.68-.15-.45,0,.15.01-2.5,0-.72-.05-3.07-.25-6.94-.24-11.42.02-22.81-.12-34.25-.04-4.9.04-5.88-.17-14.24.09-10.47-.28-22.11-.2-34.08-.18-1.5,0-1.86,0-5.28-.19,3.98-.13,8.36,0,11.66-.09,3.08-.21-1.35-.5,4.52-.55,1.94-.02-.61,0,12.38-.05,2.22-.18,1.42-.54-2.27-.56-10.01-.07.27.04-34.16-.17-2.52-.02-3.11-.24-1.33-.27,4.12-.07,5.73-.05,14.81-.05-.63-.12-2.48-.08-3.46-.13-.83-.05-.96-.1-.09-.18,21.99-.13,14.57-.19,29.9-.18,7.25,0,14.21-.12,21.23-.21,14.34-.19,11.5.09,17.3-.02,5.55-.1,7.86.2,14.16-.05.17,0,.35.02.52.03-1.57-.03-1.67-.11-2.86-.13-2.35-.04-9.24.07-17.44-.09-7.74-.15-12.71,0-15.32-.14,2.47-.1,5.15-.03,7.69-.06,2.25-.02,4.48-.04,6.58-.07,1.65-.42-7.53-.33-9.55-.38-7.76-.18-12.07-.08-23.38-.04-3.35-.18-.77-.13-11.73-.17-3.57-.01-1.68-.25-.56-.27,9.69-.18,5.77.07,10-.27,5.4-.27,53.09.15,63.34-.2,2.56-.09,3.92-.02,27.27.03,9.49.02,9.4.17,17.43.14,20.91-.07,17.37.01,20.11-.24,12.42-.33,18.43-.05,35.08-.31,1.88-.03,3.85-.03,5.82-.05.19-.11-1.02-.1-1.58-.1-18.22-.08-56.49.12-63.54-.02.33-.05.46-.11.8-.12,3.47-.06,6.97-.13,10.6-.1,8.84.07,9.05.02,47.9-.02,12.22-.01,7.66-.21,19.33-.14,18.56.11,81.08-.11,96.77.13,2.5.04,5.02.05,7.71.02,2.79-.03,5.8.02,9.67.04,8.31-.12,11.63-.19,15.36-.11,1.84.04,3.81-.07,8.68-.04,19.48.13,25.31-.03,28.17.01,6.29.09,11.96,0,12.65.03,5.28.17,20-.16,36.92.13,46.08-.7-49.57-.38-262.33-.32-6.77,0-25.23.11-34.2.09-8.96-.03-42.76-.01-54.55.1-.94.04-1.74.08-2.51.12-9.08-.18-22.89,0-32.32-.1.44-.04.73-.08.99-.08,8.2.02,16.19-.12,24.35-.14,4.65,0,4.27-.2,15.33-.15,11.57.04,11.4-.08,33.1-.05,12.69.02,9.86.04,19.65-.31,5.71,0,4.06-.06,7.43.22,19.05.04,287.18-.13,287.24-.13,7.29,0,4.7-.16,16.37-.16,23.48,0,68.72.01,104.81,0,3.23,0,6.49-.07,9.69-.06,3.25.01,6.45.01,9.64-.01,7.25-.05,7.27.07,14.52.07,59.17,0,57.22.04,57.42-.18-2.85-.07-5.82-.02-8.73-.04-10.54-.06-2.18.16-17.41-.02-.58,0-1.09-.04-1.72-.07.37-.02.7-.06,1.06-.06,28.19-.11,29.85.08,46.96.07,19.27,0,19.68-.03,21.89.18,9.5.04,5.33.05,10.13.13,10.37.19,8.99.11,22.32.12,9.71,0,8.13.09,14.47.14,2.89.03,5.94,0,8.74.04,13.37.21,17.14-.07,40.33.13,3.39-.11,7.12-.19,10.88-.02-.45-.05.36.05.48.12.78.41,24.49-.07,32.81.21,5.33.18,10.88-.01,20.1-.09,4.17-.04,12.97.02,11.17.28-4.32.12-6.76.01-33.25.06,1.45.13-.46.03,34.46.1,37.45.07,38.2-.03,47.86.08,2.5.03-5.13-.01,31.26.01,44.57.03,56.27.48,100.29.26,4.52-.33,5.33-.29,12.72-.29q4.59.23,9.32.27c5.84.05,23.37,0,23.42,0,8.7-.05,4.52.09,38.07.06,26.02-.02,21.46,0,25.14.05.15.09-.05.16-1.15.17-6.02.05-36.86.07-44.91.13-.73,0-1.36.08-1.92.12.49.25,3.63.23,7.6.34-59.53.05-41.41.01-42.8.25-4.92.12-10.85.02-9.67.52,1.5.04,3.01.08,4.47.11,1.41.19-3.72.17-5.18.32,3.15.07,6.29.13,8.64.3,1.92.14,5.62.14,6.14.42,1.16-.12,1.85-.19,2.61-.27,1.9.29.1.14,7.9.43,1.5.06,2.47.15,2.58.27.34-.02,1.7-.03-9.44.07-1.24.07-3.24.11-3.11.29,4.84.18,2.23.18,17.45.16.81,0,1.6-.04,2.68-.07-.52-.12-.96-.23-1.39-.33-.09.01,22.14.04,25.1.07.87,0,1.86.09,1.54.14-.82.13-1.04.1-11.79.18-4.14.03-3.57,0-3.92.32-2.54.12-5.28-.06-7.9.06.54.05.93.11,1.61.13,5.43.2,4.04.02,5.15.26-9.49.17-16.83-.16-16.95.16-.09.24-.1.24-3.17.34-7.96-.36-5.22-.31-12.07-.27-2.03.3-1.84.4-6.81.37-36.26-.23-23.91-.4-40.43-.2-.74.1-.28.17.97.22l-.23-.02c-3.74.54.37.12,12.07.56,3.98.15,6.42.12,25.96.28,1.92.02,5.6.11,14.52.12,33.03.03,32.53-.03,35.2.06-.18.2-27.2.02-40.65.12-1.99.12-.32.28-1.34.4-.98.11-1.84.23-2.75.35,3.11.08,2.41.2,2.41.6.86.1,1.7.19,2.64.3-4.23.33-3.01.29,5.44.28,2.27,0,4.57-.03,6.82-.02,12.67.08,25.38.03,38.06.08,4.4.02,3.79.03,3.28.25,8.81.23,30.36.11,43.45.27-4.82.04-7.51.1-9.92.07-4-.05-6.99.02-9.65.23-7.74,0-10.7-.11-17.55-.06-.94,0-2.01,0-2.88-.03-7.13-.21-21.26-.09-26.17-.16-6.15-.1-12.34-.02-18.5-.05-4.48-.02-9.05.06-13.41.15-.74.02-1.25.08-2.2.15,8.83.18,9.28.15,3.38.4,1.71.56,2.57.43,34.72.48,1.19,0,2.5-.02,3.34.07-.24.02-.46.04-.71.04-24.98.16-19.91-.13-37.78.21-2.14-.01-4.07-.12-6.56-.06-1.79.04-3.82.04-5.75.06.07.04.03.1.24.1,13.78.3,12.61.12,19.87.45-1.88.04-3.68.08-5.85.13,2.8.12,5.39.19,8.34.19,20.62-.05,19.52.12,26.26.05.94,0,1.77.04,2.08.12,1.07-.09-2.47.19-1.87.12ZM310.03,2.54c.44.02.87.06,1.32.06,2.7.01,2.35-.1,3.49-.13-.82.06-2.95-.03-4.81.06ZM224.28,10.14c-1.04-.1.95.05,1.69.06.8.01,1.21-.03.99-.08-.19-.04-2.07,0-2.68.02ZM977.47,10.53c2.75.01,5.48,0,8.14-.06-10.56-.07-3.86,0-10.14.12.85.02.32.04,2-.06ZM657.62,1.01l-.21-.05c2.39.2,8.14.11,10.49.09-3.43-.05-6.83-.08-10.29-.04ZM71.48,5.62c-1.32-.04-2.54-.13-4.37-.02,1.67.04,3.12.02,4.56,0-.53.36,12.49.33,12.5.51,0,.13,1.09.23,2.73.24,6.46.04,12.95.1,19.44.02.52,0,.94-.05,1.53-.09-4.31-.23-3.87-.16-1.8-.27,2.26-.11,2.31-.13,1.04-.34-22.43-.17-27.94-.23-35.64-.05ZM1014.84,7.79l.14.03c-1.9-.13,2.54-.2,1.72-.34-3.24-.09-6.24-.18-9.13-.26-4.74-.02-11.82.11-19.48-.05-1.65-.04-12.67-.02-21.51-.02-.48,0-.96.04-1.44.06.26.08.52.17.79.25-9.03.15-11.13-.21-30.1-.21-12.03,0-24.11.06-36.05-.11-8.49,0-16.97,0-25.44.05,8.81.05,15.95,0,18.47.08,4.94.14,8.05.1,30.12.13,9.48.01,2.87.13,17.42.1,11.68-.02,10.49.24,20.94.27,2.04,0,12.45.07,13.25-.1,1.55-.34,5.39-.3,9.99-.25-1.96.22-1.26.16-3.22.24-.57.02-1.63.02-1.2.1,2.08,0,4.04.02,5.99.02,15.67-.02,21.23.34,28.73,0ZM471.77,16.63c-2.64-.38-6.69,0-13.31-.14-3.21-.07-6.44-.08-9.66-.05-17.21.14-76.52-.19-88.72.04-5.47.1-30.56.18-1.5.16,36.63-.02,84.75.08,113.2,0ZM647.69,10.18c5.76.15,23.97.07,106.89.07,1.54,0,3.26.03,4.95-.09-36.9-.08-69.48.14-73.05-.19.3-.08.59-.15.89-.23-4.12-.14-2-.12-7.52-.02-1.46.03-3.16-.02-4.27.06.08.07.15.13.23.2-1.33.04-2.47.1-3.68.11-10.77.07-17.86-.03-24.45.08ZM470.29,2.58c.27-.08-.4-.13-1.27-.14-2.57-.02-5.24-.05-7.75-.03-4.2.04-20.22-.07-31.21,0-15.37.12-19.6,0-28.63.14,16.73.17,19.52.03,27.32.18,6.01.12,15.34.01,28.26.02,4.65,0,9.05-.05,13.28-.18ZM942.79,3.67c40.22.08-2.69-.02,56.09.04,14.36.01,8.47-.09,17.32-.13q1.06,0,2.54-.09c-1.44,0-2.73-.02-4.03-.02-54.82,0-54.64-.08-71.92.21ZM1044.88,9.31c-3.34.04-6.94-.04-10.45.05-.81.06-1.63.13-2.42.19-5.05.07-3.72.03-4.64.16,7.19.36,8.04-.05,13.52.05.14.11-2.43.17-.79.31,11.51.09,10,.07,11.39-.24,6.3,0,1.95-.01,10.77.07.74,0,2.52-.16-.07-.24-7.11.05-3.31.12-17.32-.35ZM161.41,9.1c8.09.2,15.91.1,23.69.12,1.55-.07,3.13-.15,4.68-.22,6.09.02,4.07-.03,8.65.24q3.25.02,5.38-.06c-.09-.04-.2-.08-.26-.13-.31-.25,6.22-.04,9.84-.23-5.33-.08-9.33-.06-27.52-.08-9.16,0-11.14.32-20.81.29-.94,0-1.9.03-3.65.06ZM1032.56,5.69c3.2.29,8.18.12,12.4.29,3.12.27.87.2,10.99.3,2.43-.12,4.48-.22,6.66-.33-.22-.04-.74-.25-3.43-.28-8.83-.08-17.65-.07-26.62.02ZM1030.55,3.83c-1.39,0-2.84.12-2.61.24.33.17.68.15,24.4.15.53,0,1.06-.04,1.78-.06-1.54-.36,1.05-.33-23.57-.33ZM1027.94,12.12c11.11.06,20.9.02,30.68.04,1.24,0,2.5-.04,3.61-.06.56-.16-.53-.22-4.76-.23-27.87-.05-25.12-.02-29.53.25ZM1017.83,4.08c-.84-.09-1.85-.15-3.2-.15-6.43-.04-12.83-.02-19.18.06-1.61.02-2,.08-2.39.18-.53.13,22.64.03,22.69.03.73,0,1.41-.08,2.09-.12ZM238.43,2.67c-10.34-.06-20.25.07-30.21.07-38.33,0-18.04.31,28.24,0,.56,0,1.08-.04,1.97-.08ZM230.19,9.2c-.11.02-.22.05-.34.07,1.26,0,2.52.02,3.78.02,53.45,0,49.44.02,50.3-.08-.05,0-51.71-.03-53.75,0ZM1075.35,15.4c7.79.07,7.95,0,11.3.06,5.51.09,10.87.02,16.27-.03.26,0,.46-.03.95-.06-9.27-.13-18.31-.27-27.69-.26-1.56.26-1.31.18-.82.29ZM363.93,2.54c-6.79-.11-7.8-.01-16.19-.05-12.33-.05-12.7.04-19.35-.05-2.93-.04-5.81-.03-8.68.01-.18,0-.26.04-.39.06,1.55.12-.13.11,41.48.08.8,0,1.6-.03,3.13-.06ZM352.27,16.87c6.49.05,46.94.12,48.39,0-8.83-.06-35.12-.06-48.39,0ZM1030.05,15.5c-9.73-.02-5.55,0-13.1-.16-2.59-.06-5.34.07-16.15-.15-2.53-.05-5.57-.08-8.2.03.51.12,1.89.15,3.09.15,6.49.03,15.31.03,19.26.09q6.65.1,15.1.03ZM962.02,8.98c17.38.12,22.11.11,25.5-.04-.82-.04-1.5-.1-2.31-.11-6.76-.07-13.55-.06-20.31,0-1.1,0-2.43.05-2.88.15ZM775.42,17.66c4.76.06,30.61.35,35.68.16-15.98-.2-8.14-.16-35.68-.16ZM204.68,10.11s.09-.07-.07-.07c-1.97-.08-4.13-.1-6.4-.1-15.08.02-13.09-.15-22.8.08-.23,0-.32.04-.65.08,10.07.09,20,.01,29.92,0ZM169.75,7.45c-3.23-.03-6.69-.08-8.56.16-.8.11-2.48.03-2.36.24.05.09,7.69.09,11.25.06,0-.37.05-.24-.33-.46ZM476.95,9.27c-5.11-.06-31.2-.14-35.58-.02,1.2.07,23.77.1,35.58.02ZM192.89,3.94c11.6.05,23.19.08,34.78-.02-11.6-.05-23.19-.06-34.78.02ZM921.95,8.97q-29.44-.08-32.52,0c7.71.1,13.41.1,32.52,0ZM964.68,15.13c.25.05.32.12.63.12,7.57.14,15.21-.1,19.1,0,.29,0,.9-.04,1.35-.06-.38-.03-.77-.1-1.14-.1-8.42.02-9.31-.06-19.94.04ZM752.32,17.18c3.83.01,7.69.05,11.49.03,4.27-.02,8.23.1,12.42.08,3.45-.01,3.09,0,2.28-.05-9.19-.15-16.84-.18-26.19-.07ZM161.66,8.38c-.22.04-.49.07-.56.11-.02.01.49.04.69.04,8.71-.12,16.18-.02,21.21-.09.69,0,1.06-.13-.26-.15-7.24-.11,2.15.04-21.08.08ZM575.94,16.78c17.79.02,11.05.03,26.26-.03-9.08-.06-17.74-.04-26.26.03ZM103.17,4.07c-5.82-.17-8.96-.3-14.41-.22-1.5.02-2.39.11-2.25.18.21.1.6.1,13.8.09.78,0,1.55-.03,2.86-.05ZM647.11,17.4c-5.94-.03-15.59-.08-21.96-.09-1.47,0-6.18.34,21.96.09ZM1023.74,13.59c5.4.09,2.66.1,18.17.16,2.07,0,2.27-.12,2.58-.16-3.4-.04-2.38-.07-16.2-.05-1.15,0-2.3.03-4.54.06ZM463.38,17.01c-23.85,0-20.73-.02-20.73.05,10.91,0,16.36.17,20.73-.05ZM103.01,5.15c-2.01-.07,1.61-.05-18.26-.11-7.67-.02-4.98.17-4.77.18,4.95.06,17.26.02,23.03-.07ZM517.03,16.59c-2.21-.12-2-.06-23.21-.02,3.51.02,19.61.1,23.21.02ZM353.65,11c-7.04-.02-14.08-.09-21.62.02,7.55.05,14.59.06,21.62-.02ZM909.18,5.8c.75.36,7.02.22,12.26.16.9-.01-.07-.14-.64-.15-3.84-.03-7.7-.04-11.62,0ZM974.35,13.87c-10.49-.16-17.19.2-13.21.19,4.18,0,8.44.01,13.21-.19ZM187.88,13.62c-2.65-.13-5.63-.11-8.23-.16-5.89.14-3.4.11-9.58.13,5.86.01,11.66.16,17.81.02ZM108,4.1c4.77-.02,10.5.03,7.15-.33-3.85,0-1.72-.07-7.15.33ZM305.97,2.53c-23.74-.03-23.84.05-3.42.08.59,0,1.19-.03,3.42-.08ZM612.93,10.22c1.78.09,3.76.02,5.63.03,2.58.01,5.2,0,7.81,0,1.19,0,1.03-.01,1.79-.07-10.33-.08-11.02-.08-15.22.05ZM248.05,8.85q6.7.1,13.77,0c-.58-.01-1.16-.04-1.74-.04-12.47-.01-10.45,0-12.03.05ZM162.99,7.21q5.19.05,8.18-.03c-2.08-.13-4.48-.16-7.04-.12-.51,0-.74.09-1.15.15ZM436.66,16.99c-4.97-.05-8.67-.08-13.11.02,4.42.08,8.08.11,13.11-.02ZM925.88,3.67c-3.7,0-7.05-.08-10.68,0h10.68ZM619.12,16.31c-.29.04-1.48.03,11.32.03,0-.04,1.23-.03-11.32-.03ZM512.87,1.59c.56.04-.58.03,8.61.03,0-.04,1.02-.03-8.61-.03ZM764.03,1.86c2.99.06,6.02.03,9.03.03-.88-.04.35-.03-9.03-.03ZM147.07,4.5c3.35.06,6.38.09,9.49.03.35,0,.58-.05.74-.08.26-.05-4.32-.11-9.04-.03-.35,0-.6.04-1.19.08ZM183.46,7.2c-.67-.16-1.04-.19-2.76-.2-1,0-1.93,0-2.52.07-.91.09,2.81.23,5.29.13ZM1062.89,13.46c3.11.15,10.22.23,9.12-.02-2.8-.05-5.61-.07-9.12.02ZM912.38,14.02q5.33.04,6.61-.06c-5.11-.09-6.22-.13-7.14-.04-.18.02.33.07.53.1ZM206.35,14.79c-.13.08-.85.07,3.47.15,1.97.04,4.45.03,4.84-.11-.75-.06.91-.04-8.31-.04ZM497.52,17.03h9.43c-2.91-.04-5.82-.04-8.74-.03-.21,0-.42.02-.69.03ZM804.59,17.29c7.66.18,6.66.18,8.24.12-2.55-.14-2.57-.13-8.24-.12ZM665.54,9.39c2.95,0,5.34.04,7.92-.02-2.63-.04-5.01-.04-7.92.02ZM1081.41,6.54c8.77.04,7.08.04,8.09-.02-2.69-.07-5.36-.08-8.09.02ZM691.38,1.59c2.42.02,4.69.16,6.8,0h-6.8ZM522.58,17.01c-2.25-.04-6.88-.1-8.44.02,2.73.11,5.3.05,8.44-.02ZM418.16,17.01c.16-.04.95-.03-5.5-.03,0,.04-.83.03,5.5.03ZM804.47,2.17c2.5-.02,4.34.04,6.81-.05-2.47,0-4.31-.05-6.81.05ZM306.71,16.89c1.8.01,4.92.05,5.67-.03-1.88-.02-3.72-.04-5.67.03ZM551.63,10.21s.68-.02-5.55-.02c0,.03-.68.02,5.55.02ZM483.78,16.59c-2.35-.07-4.12-.02-5.92.01,1.8,0,3.57.07,5.92-.01ZM858.19,8.96s-.59.02,5.36.02c0-.03.59-.02-5.36-.02ZM287.8,8.85q-3.53-.07-6.33,0c2.12.06,4.22.09,6.33,0ZM534.51,1.71c-1.83-.18-3.39,0-2.86.02,2.02.05,1.81.02,2.86-.02ZM967.52,5.98c-1.18-.05-2.37-.08-3.66,0h3.66ZM957.56,10.61q2.71.04,4.3-.04c-1.57,0-3.04-.06-4.3.04ZM202.78,3.42c-1.16-.08-2.38-.1-4.18-.02,1.72,0,2.95.01,4.18.02ZM60.77,5.17c-.17-.02-.48-.1-2.32-.11-2.24-.01-1.94.11-.5.11.89,0,1.79,0,2.82,0ZM331.58,8.84c4.39.06,3.01.05,5,0-1.88-.06-.51-.06-5,0ZM307.63,8.83c-2.25,0-3.3-.01-3.28.04,0,.02.19.04.4.05,1.26.05,1.27.05,2.88-.09ZM987.35,5.71c1.45.01,2.89.06,4.32,0-1.45-.05-2.88-.04-4.32,0ZM490.89,17.01c-2.16-.03-1.58-.02-2.12,0,.71,0,1.42,0,2.12,0ZM778.04,16.75c-1.08-.05-2.14-.06-3.2,0,1.08.05,2.14.07,3.2,0ZM616.4,16.73c-2.08,0-1.73,0-1.74.03,2.07,0,1.74.01,1.74-.03ZM1063.71,12.35c-.61,0-1.52-.06-1.74.04,2.11,0,1.79.01,1.74-.04ZM159.06,11.29c2.12.05,1.42.04,2.65-.01-1-.02-.26-.03-2.65.01ZM368.71,11.01c2.07.04,1.39.04,2.57-.01-1-.02-.3-.03-2.57.01ZM575.81,9.38c1.11,0,.56,0,0,0,.56,0,1.11,0,0,0ZM565.92,9.38c1.17,0,.59,0,0,0,.59,0,1.17,0,0,0ZM332.61,9.26c-1.02-.06-1.81-.06-2.83,0h2.83ZM218.64,8.83s-.3.01,1.96.01c0-.02.3-.01-1.96-.01ZM246.21,2.7c-2.33-.04-1.61-.03-2.66-.02.92.03,1.29.06,2.66.02ZM945.55,5.82c-.9.01-.45,0,0,0-.45,0-.91,0,0,0ZM141.22,3.44c-.2.01-.54.03-.56.04-.3.24,1.8.11.56-.04ZM899.1,7.74c-2.23-.02-1.64-.02-2.19,0,.73,0,1.46,0,2.19,0ZM906.63,7.74c-1.28,0-.64,0,0,0-.64,0-1.28,0,0,0ZM506.91,1.6c-.93.01-.93,0,0,.02v-.02ZM216.88,2.29c-.72-.03-.56-.03-.69,0h.69ZM269.42,2.56c-.81.02-.85,0,0,.02v-.02ZM812.51,2.57c.89-.01.89,0,0-.02v.02ZM130.32,4.07c-.07-.01-.13-.03-.21-.03-.83,0-1.04.02-.53.04.12,0,.49,0,.75-.01ZM65.62,5.12c-.97.02-.93.01.02.03l-.02-.03ZM195.23,5.54c-.91,0-1.13.02-.57.04.17,0,.54,0,.81,0-.08-.01-.16-.02-.25-.03ZM202.15,5.54c.06.01.09.03.2.03.9.03,1.98-.03.54-.04-.23,0-.5,0-.74.01ZM1022.51,5.71c.78-.02.81,0,0-.02v.02ZM938.59,5.84c-.08,0-.16-.03-.25-.03-.88,0-1.09.02-.54.04.18,0,.52,0,.79,0ZM952.73,5.98c-.98-.03-.75-.03-.88,0h.88ZM1025.68,5.95c1,.03.77.04.9,0h-.9ZM1058.75,7.22c-.08-.02-.01-.06-1-.04-.19,0-.34.02-.51.03.5,0,1.01,0,1.51.01ZM297.66,8.85c-.88-.04-.48-.04-1.52-.01.91.04.52.04,1.52.01ZM210.56,9.25c.95,0,.99-.02.09-.04-.2,0-.48,0-.72.01.21,0,.42.02.63.03ZM553.69,9.36c-.06.03-.23.03.73.02l-.73-.02ZM687.43,9.38c-.09-.01-.17-.04-.26-.04-.95,0-1.18.02-.59.05.16,0,.56,0,.85-.01ZM1048.88,10.61c-.98-.03-.76-.03-.87,0h.87ZM361.17,11c.5.08,2.41,0,.73-.01-.23,0-.49,0-.73.01ZM1063.57,11.57c1.21.05,1.56-.04.29-.03-.11,0-.19.02-.29.03ZM505.05,12.36c-.78,0-.96.01-.48.03.18,0,.46,0,.7,0-.07,0-.15-.01-.22-.02ZM150.17,12.64c-1.02.02-1.06.01,0,.04v-.04ZM947.6,12.77c.3.04-.02.04,1.13.02-.31-.05-.07-.04-1.13-.02ZM979.64,13.76c.07-.04.24-.03-.75-.02l.75.02ZM993.19,13.85c-.94,0-1.18.02-.59.05.15,0,.56,0,.85-.01-.09-.01-.17-.02-.26-.04ZM224.19,14s-.19.02.61.02l-.61-.02ZM1041.96,16.04c-.06.04-.24.04.72.02l-.72-.02ZM297.98,16.56c.79-.09-.67-.11-.56-.02,0,0,.36.01.56.02ZM764.27,16.73c-1.13-.02-.8-.02-1.16.02,1.13.02.8.02,1.16-.02ZM900.77,17.43c1.04-.02,1.04,0,0-.02v.02ZM769.49,17.68c-.06.04-.26.03.81.02l-.81-.02ZM360.18,18.38c.63.03.48.03.56-.01h-.56ZM878.84,17.29c-.66-.03-.51-.03-.59.01h.59ZM1033.37,10.63c.44-.05.53-.04-.23-.04l.23.04ZM1072.64,5.25c-.44.04-.53.03.24.04l-.24-.04ZM144.93,3.49c-.44.04-.53.03.22.04l-.22-.04Z"/>
  <path class="cls-1" d="M86.99,17.07c1.48-.16,1.97-.15,33.56-.17,4.11,0,15.57.03,15.62.03,12.46.22,28.71.04,35.56.18-.7.16-3.21.05-4.14.19.73.02,1.47.07,2.19.06,11.43-.02,14.59-.1,17.27.04-2.03.1-4.41.08-6.61.07-8.76-.05-17.51.05-26.28-.01-9.89-.07-13.59.15-28.12.17-10.73.01-14.6,0-20.19.19-1.18.09-1.66.25-4.15.23-11.96-.1-23.67.1-26.31.03-1.02-.17.91-.29,1.74-.45,1.56-.08,3.25-.19,5.28-.25,2.33-.07,3.25-.21,4.82-.32,0,.09-.18.18,1.2.23,1.43.01,2.88.05,4.21,0-1.86-.07-3.75-.14-5.64-.21ZM99.45,17.28c7.59-.02,9.63.14,18.38-.07.26,0,.29-.06.53-.12-20.25,0-17.38.01-18.91.19Z"/>
  <path class="cls-1" d="M165.7,1.06c2.11-.08,4.39-.05,6.57-.04,19.12.05,92.45-.26,134.88-.29,1.88,0,3.85,0,5.52.08-.26.02-.49.04-.77.04-33.55.36-35.97.03-44.64.24-105.08.21-99.52.21-101.57-.02Z"/>
  <path class="cls-1" d="M411.54.78c-.67.07-.99.15-1.63.16-1.51.04-3.25.08-4.74.06-8.46-.11-16.92,0-25.37-.02-8.16-.01-16.32,0-24.48,0-5.5,0-9.99-.15-22.42,0-.94.01-5.41-.02-5.37-.08.19-.38,5.13-.28,56.6-.27,15.76,0,20.18-.09,27.43.15Z"/>
  <path class="cls-1" d="M1084.9,1.62c-3.96.12-22.97.21-23.02.21-1.34.08-2.3.13-3.15.18-2.07,0-2.78-.13-5.37-.18-16.85-.03-20.33.04-30.67-.23,0-.13.24-.16,1.74-.17,1.7-.01,46.78,0,46.83,0,10.54.02,12.49.15,13.64.19Z"/>
  <path class="cls-1" d="M1128.37,11.72c-4.83.03-9.66.06-14.57.08.36.26,11.5.1,15.35.31-5.56.15-28.74.07-36.83-.04-7.2-.11-6.52.05-9.98-.18-3.84-.25,12.35-.26,17.99-.28,9.38-.03,18.79-.05,28.04.11ZM1095.17,11.83c1.99.13,4.07.08,6.19.02-2.03-.08-4.06-.11-6.19-.02Z"/>
  <path class="cls-1" d="M1103.1,4.69c-1.98-.07-3.66-.19-5.87-.22-2.91-.02-4.29.23-7.21.18-1.1-.02-.9-.03-1.1-.21-3.61-.03-7.13-.03-10.2.14-5.36-.13-7.55-.12-5.58-.32,17.63-.07,39.31-.03,44.43,0,.38.05.78.09.9.13.44.14-6.39.08-1.79.4-.81-.06,1.09.06-3.59.19-4.04-.03-8.03-.07-12.12-.1,1.3-.15,2.94-.35,2.15-.21Z"/>
  <path class="cls-1" d="M527.4.99q-3.89-.11-4.8-.25c4.72-.03,71.16-.06,81.14.04-13.52.22-6,.12-16.56.11-30.39-.05-37.96.05-50.86,0-3.07-.01-5.79.03-8.93.1Z"/>
  <path class="cls-1" d="M91.24,15.56c-1.66-.28-6.44-.33,38.53-.21.83.08.03.13-.79.13-7.03.07-32.1.14-37.74.08Z"/>
  <path class="cls-1" d="M965.48,17.98c10.1-.18,11.62.07,13.83,0,5.52-.16,15.86-.03,27.81.09.34,0,.55.06.82.1-1.58.09-33.05.01-41.29-.1-.46,0-.78-.06-1.16-.1Z"/>
  <path class="cls-1" d="M87.66,16.58c2.22-.02,4.43-.04,6.83-.07.04,0,3.64-.44,6.02-.05,3.24.06,6.45.04,9.64,0,7.6-.07,23.38-.1,27.8,0-16.86.15-33.57.27-50.29.11Z"/>
  <path class="cls-1" d="M629.58-.21c14.42.22,28.68.21-44.18.21,1.87-.1,3.5-.04,4.99-.04,33.96-.04,26.03.04,39.19-.16Z"/>
  <path class="cls-1" d="M1133.24,17.53c-.4.27-2.26.2-15.99.05-13.15-.14-14.45-.19-15.83-.29,1.44-.16,1.63-.02,21.66.05,3.55.01,7.05.07,10.16.19Z"/>
  <path class="cls-1" d="M416.33.93c2.52-.09,4.82-.02,7.67-.06,2.03-.06,4.67-.14,6.89-.21,21.81.09,22.06.05,21.42.18-.14.03-2.05.08-2.61.07-12.66-.05-12.99.18-22.06.1-3.5-.03-7.02-.05-11.3-.09Z"/>
  <path class="cls-1" d="M961.38,18.06c-2.68.2-4.77-.03-11.24.02-2.58.02-5.1.08-7.75.04-4.79-.06-9.74-.02-14.48-.11-6.79-.13,14.83-.17,32.85-.07.21.04.41.08.62.12Z"/>
  <path class="cls-1" d="M1162.47,12.78c12.86-.12,14.86-.12,19.94.01-.13.06-.1.13-.44.19-1.09.19-5.41.11-5.82.09-3.41-.2-7.7-.21-13.68-.29Z"/>
  <path class="cls-1" d="M551.26,0c2.44-.37,4.68-.1,27.31-.05-10.06.07-21.01.09-27.31.05Z"/>
  <path class="cls-1" d="M830.38,1.61c-3.04.16-5.81-.1-9.31,0-2,.05-4.33-.03-6.46.03-.1,0-1.52-.11-.18-.13,3.47-.05,15.96-.16,15.96.1Z"/>
  <path class="cls-1" d="M196.04,17.31c2.85-.21,13.12.04,22.23-.19.77-.02,1.56.17-1.24.21-3.72.06-7.46-.06-16.42.04-1.54.02-3.25.02-4.57-.07Z"/>
  <path class="cls-1" d="M850.21,1.55c2.68-.16,9.99-.13,13.88-.06.71.01,1.23.08,1.91.12-2.36.09-4.65.03-6.83.05-2.09.02-3.6-.08-5.41-.11-1.18-.02-2.5-.01-3.76-.02l.21.02Z"/>
  <path class="cls-1" d="M91.74,11.46c-2.79.12-10.59.01-14.87-.1-.34,0-1.28-.12,0-.13,3.5-.04,6.92.1,10.44.02,1.58.06,3.85.05,4.43.21Z"/>
  <path class="cls-1" d="M678.43,0c7.83-.52,15.8-.07,12.86-.02-2.97.06-.86.05-12.86.02Z"/>
  <path class="cls-1" d="M67.59,18.1c-2.96.09-5.4-.01-8.13-.1,5.35-.12,6.24-.11,8.13.1Z"/>
  <path class="cls-1" d="M258.86,16.6c-5.18.22-4.54.23-7.08.05.23-.08.46-.17.71-.26.21-.07,1.36-.11,2.05-.07,1.42.09,2.81.18,4.32.28Z"/>
  <path class="cls-1" d="M1112.7,13.81c3.53-.09,1.69-.13,8.37.22-3.35.05-6.16.04-8.93,0-.51,0-.88-.06-1.31-.09,0,0-.94.07,2.07-.14l-.2.02Z"/>
  <path class="cls-1" d="M53.2,17.98c-.34.15-.58.17-1.81.17-2.4,0-4.12-.07-5.46-.2,2.46-.02,4.93-.09,7.27.03Z"/>
  <path class="cls-1" d="M107.85,15.94c-11.89.03-10.56.05-11.17-.05-.32-.05,2.47-.03,11.12,0,.02.02.03.04.05.06Z"/>
  <path class="cls-1" d="M800.89,1.54c4.5-.14,4.84-.14,7.78.07-4.48.16-8.66-.16-7.78-.07Z"/>
  <path class="cls-1" d="M973.18,1.49c2.91-.11,7.52-.03,5.64.04-1.06.04-2.12.09-3.26.11-1.27.01-2.45-.02-2.39-.14Z"/>
  <path class="cls-1" d="M84.81,8.7c2.1-.1,4.23-.06,6.36,0-.09.31-2.84.2-6.36,0Z"/>
  <path class="cls-1" d="M996.06,17.58c-9.84,0-8.21.01-8.88-.04.96-.05-.93-.04,9.23,0-.12.01-.24.03-.35.04Z"/>
  <path class="cls-1" d="M195.07,15.42c-4.01.14-4.92.22-6.75-.06,5.48-.22,6.16.12,6.75.06Z"/>
  <path class="cls-1" d="M249.97,17.02c1.44-.1,3.18-.11,4.99-.08.39,0,.67.05.92.08.42.05-3.51.06-4.32.05-.54,0-1.05-.04-1.59-.06Z"/>
  <path class="cls-1" d="M134.29,2.17c-2.26,0-5.59.05-4.64-.08.82-.1,3.58-.08,4.64.08Z"/>
  <path class="cls-1" d="M148.39,15.38c-1.09.13-4.58.16-4.87.09-.06-.02.14-.05.35-.06,1.61-.07,1.62-.07,4.52-.03Z"/>
  <path class="cls-1" d="M1122.08,13.72c1.12-.17,3.56-.12,3.53-.08-.02.03-.08.09-.38.1-1.05.04-2.21.05-3.15-.02Z"/>
  <path class="cls-1" d="M1079.41,17.07h-5.53c-.25-.11.76-.1,1.36-.09,5.24.02,3.35.15,4.17.09Z"/>
  <path class="cls-1" d="M976.04,1.07c-1.8.06-3.34.04-5.07,0,1.79-.05,3.34-.04,5.07,0Z"/>
  <path class="cls-1" d="M1013.68,18.19c1.64.02.95.09-.02.09-.87,0-1.21-.03-.84-.07.15-.01.56-.01.86-.02Z"/>
  <path class="cls-1" d="M1124.37,17.99c.12-.02.15-.04.33-.05.8-.04,1.64-.03,2.41,0,.95.05-.84.17-2.74.05Z"/>
  <path class="cls-1" d="M1134.05,14.81c.95-.02.29-.03,2.4.02-1.19.08-1.52.04-2.4-.02Z"/>
  <path class="cls-1" d="M1095.1,5.91c.48-.06-3.47.02-5.82-.15-.91.06,4.02-.03,5.82.15Z"/>
  <path class="cls-1" d="M931.34,1.65c-.95.01-1.46-.1.11-.09.56,0,1.08.03,1.62.05-.57.01-1.14.03-1.72.04Z"/>
  <path class="cls-1" d="M89.33,1.32c-1.22.07-.58.07-2.47.01,2.18-.05,1.51-.04,2.47-.01Z"/>
  <path class="cls-1" d="M982.21,1.14c3.23.08-2.02.13-.87.02.16-.01.57-.02.87-.02Z"/>
  <path class="cls-1" d="M494.07.73c1.08.03,2.14.05,1.63.09-1.42.12-4.14-.01-3.27-.04.53-.02,1.09-.03,1.64-.05Z"/>
  <path class="cls-1" d="M500.61.82c-.22-.01-.45-.02-.67-.03.26,0,.57-.02.78-.01.94.02.89.04-.11.05Z"/>
  <path class="cls-1" d="M21.83,3.1c.29,0,.6-.02.86-.02,1.57.02.46.1-.65.06-.14,0-.15-.03-.21-.04Z"/>
  <path class="cls-1" d="M1106.2,10.45c1.13-.01.94-.02.79.03l-.79-.03Z"/>
  <path class="cls-1" d="M1113.09,10.48c-.24,0-.56.01-.72,0-.49-.02-.29-.04.51-.03.07,0,.14.02.21.03Z"/>
  <path class="cls-1" d="M1136.37,12.09s.2.03-.84.02l.84-.02Z"/>
  <path class="cls-1" d="M151.77,14.08c-2.68.13-1.82.11-3.22.03.95-.03-.01-.03,3.42-.02l-.2-.02Z"/>
  <path class="cls-1" d="M138.13,15.36c.08.01.17.03.25.04-.27,0-.66.02-.79.01-.56-.03-.35-.05.54-.05Z"/>
  <path class="cls-1" d="M261.88,16.34c-.84,0-.7,0-.55-.02l.55.02Z"/>
  <path class="cls-1" d="M224.39,17.03c-.82-.02-.79-.01.05-.02l-.05.02Z"/>
  <path class="cls-1" d="M1087.46,17.16c-.89-.02-.96-.02.04-.03l-.04.03Z"/>
  <path class="cls-1" d="M935.17,17.4s0,.03-.1.03c-.82.02-.99,0-1.32-.03.9-.03.53-.03,1.41,0Z"/>
  <path class="cls-1" d="M254.75,18.2c.35.06.48.05-.41.04l.41-.04Z"/>
  <path class="cls-1" d="M265.58,17.48c-.85-.03-.79-.03-.19.01h.19Z"/>
  <path class="cls-1" d="M1079.21,17.08c.85.02.78.03.2-.01h-.2Z"/>
  <path class="cls-1" d="M1010.89,16.94c-.86,0-1.23-.01-1.04-.06,0,0,.57,0,.65,0,.37.04-.01.08.39.05Z"/>
  <path class="cls-1" d="M72.37,16.45c.16.05.24.04-.32.03l.32-.03Z"/>
  <path class="cls-1" d="M73.22,8.62c.55.05.47.05.2-.01h-.2Z"/>
  <path class="cls-1" d="M67.36,8.61c-.39.04-.42.04.19.01h-.19Z"/>
  <path class="cls-1" d="M1026.55,7.68c.12-.02.3-.06.34-.06.64.01.45.03-.56.04l.23.02Z"/>
  <path class="cls-1" d="M1116.67,4.82c.58-.04.65-.03-.2-.01h.2Z"/>
  <path class="cls-1" d="M850,1.53c-.77.06.32,0,.21.02l-.21-.02Z"/>
  <path class="cls-1" d="M839.14,1.62c-.21-.05-.32-.04.34-.03l-.34.03Z"/>
  <path class="cls-1" d="M680.67,10.04c.28-.03.46-.08.86-.1,1.26-.07,2.2.12.7.13-.49,0-1.03-.02-1.56-.04Z"/>
</g></svg>