<?xml version="1.0" encoding="UTF-8"?>
<svg id="Layer_1" data-name="Layer 1" xmlns="http://www.w3.org/2000/svg" viewBox="0 0 1944 133.43" fill="#2c2013" preserveAspectRatio="none">
  <path d="M1924.48,57.27c.61-.87.6-1.57-.02-.95-1.33,1.33.18-1-.82-1-.54,0-.61-.33-.17-.77.63-.63.63-2.99,0-2.6-.28.17-.06-1.28.32-.68.36.56.34-2.01-.06-2.25-.47-.29.14-.76-.37-1.31-.27-.29-.24-.33.15-.2.36.13.45.05.33-.26-.25-.65-.18.1-1.03-.69-.7-.65-.63-1.95.1-1.83.95.16-.49-2.99-.38-3.51.03-.12-.14-.22-.36-.22-.63,0-.8-.82-.24-1.16,1.09-.66-1.1-.58-.9-2.78.18-2.05,1.26-.69-.97-3.11-.81-.88-.17-4.82-.76-4.46-.34.21-.12-.58-.53-.33-.4.25-.37-.32.06-1,.44-.7-.11-1.48-1.04-1.49-.6,0-.6-.03.11-.61.4-.33.57-.52.36-.41-1.28.66-.38-4.81-1.4-4.41-.57.22-.03-.09-.43-1.15-.5-1.32.51-1.09-.14-1.98-.59-.81.15-1.41-.56-2.11s-.23-1.82-.98-2.1c-1.73-.66-1.56-1.93-3.05-1.63-1.18.24-1.42-.58-2.07-.33-.68.26-.53-.83-1.23-.56-.25.09-.38.28-.3.41.24.39-.47.67-.82.32-.24-.24-.22-.33.07-.33.22,0,.32-.08.23-.17-.32-.32-2.09,1.1-1.8.36.17-.44-.94-.89-1.19-.48-.08.13-.6.13-1.15,0-1.5-.34-2.22.25-3.19-.38-.42-.27-.84-.35-1.08-.2-.47.29-.95.07-.71-.32.21-.34-.74-.04-.74.39s-.19-.16-.86.2c-.52.28-1.31-.04-1.37-.56-.21-1.7-.61.99-2.48.17-.87-.38-3.76,1.24-3.76.52,0-.51-1.24-.81-2.39-.58-1.57.31-1.54-.85-1.98-.14-.18.3-.42.28-1.16-.11-1.71-.89-.23.33-1.15.65-.29.1-.34-.03-.19-.52.42-1.34-1.9.22-1.9-.76,0-.61-.35,0-1.5.02-.85.02-1.56.45-.74.45.27,0,.49.11.49.25,0,.4-1.79.17-2.06-.26-.37-.6-.48.17-1.03-.29-.6-.5-.02.62-5.9-.08-1.82-.22-.92.39-1.68.39-.24,0-.44-.2-.44-.44,0-.49-.06-.51-.69-.27-.72.28.23,1.48-.86.34-1.72-1.81-1.78.59-2.8-.43-.49-.49-.52-.31-1.36.8l-.5-.59c-.65-.76-1.39-.76-1.39,0s-.77.75-1.24,0c-.43-.69-334.89-.78-334.89-.13,0,1.03-1.48-1.06-2.06-.16-.23.36-.32.37-.53.04-.21-.33-.36-.33-.87,0-1.14.71-.92-.67-1.7.11-.41.41-1.27.29-1.27-.18,0-.45-1.34-.03-.98-.63.15-.26.08-.25-.27.03-.71.58-.81-.04-2.16.53-1.64.68-2.41-.48-3.95-.48-.31,0-.5-.1-.43-.22.17-.28-1.27-.34-1.27.11,0,.42-.8.75-1.01.41-.25-.4-2.45.39-2.86-.02-.16-.16-2.31-.26-3.5-.73-.34-.13-.57-.04-.69.27-.34.88-.84-.52-1.23.06-.23.35-3.27.44-3.27.09,0-.23-1.62-.87-2.15-.15-.36.49-1.51.34-1.19-.16.09-.14-.11-.26-.44-.26-.99,0-.13.74-1.48.44-.55-.12-.88-.08-.88.12,0,.17-.46.32-1.02.32-1.39,0-.78-.66-1.68-.54-1.09.14-1-.51-2.21-.17-.43.12-.92.19-1.08.15-1.26-.33-5.71.11-6,.58-.31.5-1.26.08-1.05-.46.21-.55-1.14-.62-1.4-.07-.31.66-.2-.37-.94-.37-.58,0,.11.39-.82.81-1.36.62-.73-.84-2.76-.74-1.51.07-1.71-.57-2.17-.11-.57.57.67.1.67.62,0,.94-2.61-1.26-2.18-.57.3.49-.67.01-1.3.4-.28.18-.34.15-.2-.08.13-.21-.01-.34-.39-.34-.97,0,.11.69-2.68.42-3.28-.32-1.87.72-3.27.19-1.6-.61-.67,1.29-1.9.18-.91-.83-3.15-.12-3.21-.07-.08.08-3.52-1.16-3.34-.06.1.61-.68.41-.93-.24-.23-.61-.99-.51-1.2.17-.23.72-.34.72-1.61.04-1.09-.58-2.74-.63-3.27-.1-.21.21-.5.23-.84.05-1.13-.6-3.3.55-3.64,0-.28-.45-1.88-.31-2.82.24-.83.49-.89.49-1.25,0-.46-.63-.75-.66-.75-.07,0,.49-1.03.6-1.31.15-.26-.42-1.42-.17-1.18-.57.3-.48-1.3.24-1.31-.38,0-.21-.14-.15-.31.15-.22.37-.61.5-1.38.45-1.47-.09-1.29-.72-1.84-.19-1.32,1.25-2.35-.39-2.75.25-.32.52-.78-.44-1.09-.13-.42.42-1.3-1.02-1.59.11-.17.63-.88.66-.74.02.04-.19-.06-.27-.22-.16-.47.29.34.94-.62.41-2.52-1.38-1.81.77-3.34.08-.43-.2-.68-.22-.57-.05.1.16-.02.29-.27.29-.65,0-.31-.58-.77-.58-.42,0,.16.39-.42.87-.34.28-.52.26-.87-.09-.33-.33-.35-.48-.08-.57.42-.14-1.68-.6-1.23-.05.52.63-.44.69-1.72.12-1.17-.53-1.22-.53-1.5,0-.63,1.17-2.58-1.01-3.23.02-.44.69-.1-.29-.6-.29-.17,0-.24.11-.16.24.08.13-.49.11-1.27-.05-1.18-.24-1.54-.21-2.18.21-.42.27-246.6.36-246.6.2,0-.41-1.09-.38-1.23.03-.17.52-3.96.56-4.16.04-.24-.62.42-1.13-.44-.67-1.24.66.48,1.39-1.3,1.05-1.42-.27-.96.54-1.71.25-.74-.28.09-.72-.78-.72-1.04,0-.2,1.11-1.11.72-1.55-.67-8.44-.21-9.21-.55-.39-.17-.51-.09-.51.36s-.18.57-.81.52c-1.4-.11-2.22-1.34-2.75-.81-.7.7-1.4-.81-2.32.4-.88,1.16-.78,0-3.69-.52-.94-.17-.23,1.8-2.67.59-.65-.33-1.04-.37-1.29-.17-.38.32-4.02.25-4.56-.09-.42-.26,0,.2-1.26.81-1.83.89-.92-.75-2.98-.6-1.23.09-.6.51-1.02.51-.51,0-.08-1.03-.9,0-.35.44-.51.53-.4.22.12-.34.03-.51-.27-.51-1.06,0-1.04-1.39-1.61-.13-.33.73-1.04.95-1.36.42-.19-.31-2.49-.2-3.04.14-.17.11-.32.09-.32-.04,0-.29-5.16-.46-4.16-.07.91.36.82.57-.25.57-.69,0-.87-.11-.74-.44.18-.46-.5-.4-2.1.19-1.78.65-.64-.01-1.47-.53-1.06-.66-.08,1.92-1.45.68-.65-.59-.93-.62-.93-.1,0,.27-.46.4-1.53.41-2.63.04-4.9.55-4.9.09s-.72-.1-1.15-.82c-.68-1.18.18.99-.81.18-.41-.33-.45-.33-.26,0,.47.78-.66-.5-1.52.05-.48.31-.48.32,0,.17,1.1-.34.03,1.28-.29.85-.15-.19-1.38-1.43-1.08-.64.26.67-1.19,1-1.86.42-.77-.66-1.36-.96-1.11-.56.34.55-1.12.07-1.41.81-.29.76-.13-.19-2.37-.04-2.12.14-1.68-.54-3.11-.32-1.31.21-1.13-.49-1.8-.24-.73.28.08.73-.73.57-1.01-.19-1.06.67-1.88-.07-.32-.29-.52-.34-.52-.13,0,.48-.69.42-1.74-.17-.88-.49-.93-.49-1.32.03-.22.3-.55.45-.73.34-.61-.38-.81.8-1.79.19-.51-.32-3.35-.93-3.92-.15-.33.45-.44.45-1.57,0-1.53-.61-2.08-.62-2.08-.02,0,.34-.14.41-.51.25-.92-.4-2.46-.34-2.91.11-.85.85-1.05-.55-2.06.01-.8.45-1.27-.44-2.07-.09-.84.36-1.51.34-1.84-.07-.43-.52-1.15-.5-.95.02.26.67-.34.78-.98.18-.5-.46-.63-.49-.77-.14-.25.65-.86.51-.68-.16.08-.32.03-.58-.11-.58-.53,0,.1,1.4-.74.93-.71-.39-1.41.15-1.7-.32-.13-.22-.37-.23-.74-.03-.69.37-1.46.09-1.47-.54,0-.42-.04-.42-.31.04-.17.28-.46.43-.65.32-.46-.26.22.12-.24.68-.27.32-.42.33-.78.03-.36-.29-.41-.29-.24,0,.26.43-.07.47-.68.08-.27-.17-.5-.16-.62.03-.29.47-1.41-.35-1.21-.88.09-.25-.11-.15-.48.21-1,1-.83-.02-2.85.3-.1.02-.03.21.16.44.47.57-.06.83-.72.34-.97-.71-1.4.58-1.82-.05-.21-.32-2.11-.94-2.11-.26,0,.56-.58.56-.59.07,0-.24-.1-.22-.28.07-.21.34-.35.36-.62.09-.36-.36-1.95-.21-2.44.24-.38.35-1.57.24-1.11.06.69-.28.05-.66-.82-.49-1.25.25-571.58-.5-572.45-.28-.99.26-.18,1.06-1.24.92-1.11-.14-1.12.61-1.88-.32-.64-.78-1.41-1.04-1.16-.39.36.93-1.02-.66-1.69.26-.45.61-.86.66-.64.07.22-.57-.34-.93-.58-.3-.29.76-1.42.13-2.06.53-.48.3-.52-.42-1.13-.19-.24.09-.6.05-.79-.09-.58-.41-2.55,0-2.55.54,0,.41-1.16-.09-1.69.53-.32.38-.36.37-.29-.12.11-.77-1.52-1.25-2.01-.59-.57.76-.35-.35-1.21.11-.27.15-1.07.4-1.76.55-1.09.25-1.34.21-1.83-.27-1.37-1.37-1.52.19-2.05-.14-.4-.25-.03.31-.29.31-.39,0-.81.83-1.38.47-.29-.18-.27-.31.08-.6,1.39-1.15-1.01-.64-1.01-.31,0,.24-2.2.73-2.92.65-.66-.07-1.97.59-2.18.25-.18-.29-1.54-.21-2.31.13-.3.13-.76.12-1.02-.04-.63-.37-2.33-.05-4.51-.08-1.96-.03-.72.69-1.96.08-.92-.46-2.27-.34-3.27.29-.41.25-.6.21-.91-.22-.36-.49-.43-.5-.86-.07-.41.41-.51.41-.82.03-.45-.54-.87-.55-.87-.03,0,.59-.69,1.06-1.14.78-.65-.4.49-.9-1.34-.72-1.73.17-.81-.3-2.93-.37-.88-.03-1.61.04-1.61.15,0,.34-2.72.19-3.63-.2-.98-.42-1.63-.26-1.63.38,0,.57-.7.58-1.17,0-.53-.63-1.28-.31-1.02-.73.31-.5-.12-.32-.75.31s-1.64.66-1.53.08c.11-.55-3.04,0-3.49-.81-.34-.61-1.03-.19-.48.16.27.17.12.25-.48.26-.67,0-.78.07-.44.29.74.48-.42.34-.81-.05-.63-.63-1.21.85-1.46.12-.22-.66-1.48-.12-.66-.66.84-.54-.88-.36-.88.92,0,1.08-2.01-1.15-2.41.03-.2.58-1.12-.39-.91-.72.25-.4-.95.46-1.51.24-.22-.09-.48-.03-.58.12-.23.37-1.4.17-1.54-.25-.13-.38-247.13-.47-247.13-.1,0,.13-.62.22-1.39.19-2.67-.08-1.36,1.11-3.45.18-1.97-.88-1.61.14-3.56-.13-.53-.07-.96-.01-.96.13,0,.41-.58.31-1.07-.19-.63-.63-1.28.04-2.11-.47-.49-.31-.68-.28-1.15.14-.61.55-2.87.83-2.78.34.07-.39-3.42-.53-3.98-.16-.27.18-.62.17-.98-.02-2.78-1.49-2.77,1.01-3.39.08-.42-.63-1.22.16-2.24-.5-1.05-.69-.45.19-1.98.2-1.55,0-2.19.11-3.12-.15-1.08-.31-1.75-.08-1.76-.54,0-.19-.15-.11-.32.18-.26.44-.38.47-.78.15-.26-.21-.38-.23-.27-.05.38.64-9.58-.3-8.63.03.47.17.55.92-.15.29-.7-.63-2.12-.97-2.12-.51,0,.57.88-.23.88.45,0,.6-1.86.54-1.58.1.29-.47-.27.04-1.43-.28-1.05-.3-1.68-.06-1.45.54.13.35.05.42-.33.27-.74-.28-1.36-.17-.61-.48.74-.31-4.54-.44-5.98.21-.92.41-1.09.41-1.82,0-1.22-.7-.95.22-1.36-.03-.48-.29-3.9-.49-3.73-.21.25.4-.21.63-.69.34-.21-.13-.77-.13-1.23,0-1.19.34-.49-.14-1.42-.39-.81-.21-.65.38-.29.38.16,0,.29.2.29.44,0,1.39-1.73-1.36-2.38-.43-.23.33-.34.34-.45.07-.21-.52-.88-.45-1.1.11-.17.44-.22.44-.71,0-.59-.53-1.06-.64-.77-.18.27.44-.68.7-1.14.32-.34-.28-5-.83-5,.1,0,.99-1.9.81-1.9-.03,0-.25-.14-.34-.34-.22-.55.34-3.76.33-3.76-.01,0-.47-.32.58-.98.33-.26-.1-.57.02-.71.28-.23.41-.3.41-.72-.01-1.29-1.29-.91.41-1.4.41-.17,0-.23-.13-.14-.28.4-.64-2.26,1.36-1.79.14.14-.37-.33-.41-3.17-.32-3.43.11-4.09.26-3.85.87.25.66-1.15,1.5-.63,2.13.68.82-1.01,1.52-.71.38.12-.47.05-.55-.38-.39-.77.3.18.1-.05,1.06-.09.35-.05.55.07.43.38-.35,1.41,1.84,1.05,2.21-1.08,1.08,1.31,1.26.15,2.12-.81.59-.15,2.44.3,2.89.25.25.37.45.26.45s-.09.16.03.35c.31.5-.07,3.01.4,3.3.63.39-.97,1.05-.36,1.66.55.55-.42,1.25.03,1.53.26.16.77,2.15.66,2.61-.13.53.98,1.07.14,1.07-.49,0-.66.73-.23.99.33.2.4,5.01,1,5.61.34.34-.85,1.56-.31,2.11.62.62.41,2.86,1.2,3.52.48.4.46,4.6-.02,4.51-.47-.1-.13.72.39.91.52.2.63,1.01-.07.43-.92-.76.23.45-.02,1.13-.2.56.46,0,.27,1.24-.08.54,0,.88.21.88.24,0,.25.16.03.56-.42.79.22,1.66-.19,1.4-.36-.22-.51,1.31-.12.67.59-.95,1.04,4.54.41,4.79-.65.25-.16,3.65.02,3.93.12.2,0,.33-.33.33-.45,0-.46.05-.09.29.25.16.29.29.1.29-.41,0-.18,1.45.26.83.48-.67-.37,1.05.43,1.71.29.24.36.35.16.24-.23-.11-.37.02-.37.34,0,.45-.05.46-.29.09-.34-.52-.48-.27.18.74.32.49.38.84.19,1.09-.37.47-.19,4.31.2,4.31.32,0,.32,1.54,0,1.92-.23.27-.18.58.18,1.13.96,1.46-.45.03-.45,1.48,0,1.07-.98.68-.36.93.36.14,1.27,1.3.43,1.08-.44-.11-.51.12-.55,1.8-.04,1.6.02,1.84.32,1.43.45-.62,1.36-.25.47.37-.54.38-.56.5-.21,1,.48.68.29,2.02-.28,2.02s-.46.66-.16.47c.31-.19.39.78-.15.58-.51-.2-.54.42.05.42.63,0,.53,1.41,0,1.94-.5.5-.59,1.86-.13,1.86.17,0,.24.12.14.27-.24.39.48.2.24,1.12-.09.36-.26.6-.37.53-.39-.24-.29,1.16.13,1.8.66,1,.21,1.29.89,1.86.42.35.42.42-.05.76-.43.31-.46.49-.18,1.04.39.77.34,2.9-.09,3.21-.58.41.06,3.22.86,3.79.55.4-.95.95-.03,1.46.66.37.06.51.15,1.95.1,1.52-.7,1.31-.39,2.71.16.73.12.88-.19.72-.74-.38,1.42,1.05.67,1.99-.35.44-.62,3.14-.3,2.94.37-.23.31.29-.08.67-.41.41-.11,1.28.4,1.18.81-.16-.12,2.37,2.64,2.57,2.27.17,3.23,1.15,3.07.35-.13-.63,1.27.03,2.11-1.08.68-.9.33-.18,1.69.12,1.09.24,1.02.03,1.45-1.14.65,1.05.63,1.25,1.78.99.56-.13,1.12-.38,1.23-.57.3-.49,1.32-.2,1.27.36-.06.75,1.21.02,1.15-.28-.09-.4,3.48-.05,4.65-.38,1.31-.37,1.32.92,1.7.31.39-.62,2.55.67,3.35,0,.79-.66,1.85.52,2.45-.08s1.38.52,2.11.06c.45-.28,2.64-.28,2.47,0-.23.37,4.52.42,4.89.05.32-.32,1.43-.06,1.21.29-.09.14.05.18.3.08.29-.11.45,0,.45.29s.16.4.44.29c.63-.24-.11-.56.8-.79,1.02-.27-.05.41,3.47.51,2.71.07,2.53-.02,3.51-1.14-.1.21-.62,1.24-.62,1.41,0,.2,3.51-.04,3.51.27,0,.26.58.39.58-.24s.58.03.58-.38c0-.95,1.79,1.07,2.85.19.76-.63-.39,1.29.42.33.59-.7,2.96-.39,3.12-.85.1-.31,1.07-.57.84.29-.23.86.25.98.86.21.29-.37.75-.62,1.02-.57.91.18.4-.92,1.85.19,1.74,1.32.37-.19,3.12.06,1.16.11,1.55.03,1.84-.36.26-.35.43-.4.57-.16.29.46,1.42.41,1.2.04-.26-.41.73-.16.73-.61s.69.61,1.46.61c.96,0,.63.89,1.47.13.76-.69,2.63-.45,2.45-.75-.16-.26.75-.63.75-.26,0,.48,1.47.67,2.2.28.55-.3.79-.3,1.13-.01.54.45,3.88.46,4.42.01.45-.37,1.6-.12,1.6.36,0,.5.64-.42,1.07-.3.49.14,1.58-.66,1.37-1.01-.5-.8,1.95,1.82,1.95.57,0-.25.35-.38.95-.37,1.44.03,248.84-.62,248.17-.15-.54.37-.17,1.02.58.04.71-.94,1.11-.49.46.17-1.4,1.4,1.28-.03,1.37-.05,1.32-.28,4.82-.41,5.33-.41,2.99-.02,3.65.69,3.65.35,0-.32,1.85-.24,2-.65.12-.33,1.34-.45.64,0-.37.23-.38.33-.03.65.3.28.35.29.2.01-.34-.61.71-.17.71-.6,0-.24,1.93-.59,1.57,0-.17.28-.12.29.2.05.59-.44,4.14-.37,4.29.09.21.63.78-.5,2.44-.53,5.14-.09,5.23.12,5.23-.75s.2-.86.96-.18c.55.49,2.94.76,2.65.29-.19-.32.84-.03,1.38-.68.35-.42.41-.4.61.15.49,1.34,6.1.07,7.19.96.3.24.4.25.27.04-.3-.5.4-.83.73-.35.5.71.13-.33,1.23-.33s1.35-.97,1.35-.35c0,.53,2.18.16,3.36.7.63.29.91.26,1.62-.16.47-.28.86-.37.86-.21,0,.41.63-.11,1.89-.03,1.88.12,6.23.28,6.6.51.63.39,4.05.17,4.79-.32.47-.31.94-.4,1.26-.26.8.35,4.17.53,4.14.53,1.95.16,2.21.12,2.58-.41.4-.57,1.14-.53.79.04-.26.42,1.95.22,5.28.18,2.58-.03,574.99.91,576.12-.25.37-.38.58-.54.48-.34-.36.64.9,1.04,2.06.66,1.6-.53.65.28,2.8.15,1.96-.11.65.65,2.07-.03.97-.46,1.04-.46,1.68.14.8.74,1.02.77,1.26.17.19-.5,1.32-.32,1.71.28.15.23.22.22.22-.04,0-.8,1.63-.1.52.3-.41.15,1.23.23,1.03-.3-.15-.39.56-.51.92-.15.2.2,1.77.41,3.24.43,1.74.02,3.27-.8,3.15-.16-.12.6,1.47-.3,1.79.02.33.33.73-.87,1.5-.1.65.65,1.93.63,1.68-.02-.14-.36-.08-.42.21-.24.47.29,2.26.29,2.99,0,.36-.15.51-.07.51.26,0,.75,1.31.28,1.54.69.07.12.09.07.04-.12-.12-.49.62-.7,1.06-.29.28.26.32.26.17-.02-.15-.27.04-.31.76-.18,1.47.28,1.55.73,2.5.23,1.31-.68,2.93.99,3.51.4.47-.47,1.53.54,1.53.1,0-.63,2.31-.67,3.28.68.33.46-.02-.29.74-.51.89-.26,1.7-.72,1.44-.3-.23.38,1.3.72,1.67.37.14-.14.54-.14.88-.01.75.28,7.63.57,8.15.05.21-.21.43-.22.67-.03.27.22,2.9.88,3.17-.12.16-.61.16-.61.58-.04.89,1.22,2.17-.83,2.97.26.36.5,1.01.65,1.01.23,0-.31,1.94-.28,3.04-.34.96-.05-.07.47,3.17.45,1.31,0,2.27.11,2.29.28.01.16.09.14.17-.06.2-.49.49.07,2.04-.35,2.16-.6.84.74,3.35.36,2.02-.31,2.76-.27,2.69.12-.04.2.11.28.34.2.68-.26,1.88.82,1.48.18-.26-.42,1.06-.08,1.34.34.09.14.32-.07.51-.48.38-.84,1-1,.87-.23-.05.28.05.49.21.47.93-.12,3.07-.55,3.07-.13,0,.45.55-.18,3-.13,1.99.04,1.49-.38,3-.38,1.85,0,1.09.68,1.74.43.63-.24.43.37,1.41.19,1.26-.24.95,1.06,1.99.42.31-.19.56-.51.56-.72,0-.52,1.33-.46,1.88.09.66.66.21-.17.92-.17.54,0,.32.47.06,1.32,1.14-1.2,1.21-1.39,1.7-.89.72.72,1.08-.2,2.75.06.63.1.88.04.75-.17-.12-.19.07-.32.48-.32.54,0,.59-.06.24-.29-.3-.2-.32-.28-.07-.29.53,0,.92,1.46,1.3,1.46s-.23-.58.19-.58c.55,0,.05.83,1.47.12.61-.31,1.05-.38,1.17-.2.29.45,1.43.72,1.64.38.26-.42-.61-.22-.34-.49.1-.1.37-.04.58.14.49.41,5.47.56,5.76.44,1.14-.49,4.04-.59,4.84-.17.69.36,2.12.38,2.34.03.24-.39.9.29.6-.19-.27-.43.4-.77.4-.37s.22.06,1.09.55c1.18.65,2.66-.47,3.87-.15,1.21.32.67-1,1.87-.25,1.07.68,250.71-.02,250.71.5,0,.43,2.38-.02,3-.56.28-.25.51-.32.51-.15,0,.46,1.26.7,1.51.29.31-.51,1.17-.44,1.82.14.4.36.7.42,1.08.22.71-.38.93-.35.67.09-.12.2.05.14.36-.14,1.27-1.11,4.77.85,5.27-.03.34-.6,2.71-.57,2.98-1.01.3-.49,1.61.48,3.6.37,1.96-.12.63.56,5.13.39,2.47-.1,3.15-.21,3.15-.54,0-.58.93-.7,1.45-.19.23.23.37.48.3.55-.39.39,2.92-.55,3.19-.11.22.36,1.35.09,1.35-.31,0-.54,1.75.39,1.75-.38,0-1.11,1.28.24,1.01.51-.21.21,1.18.03,1.18-.05,0-.28,1.49-.23,1.85.05.27.22.38.24.26.04-.29-.48,1.22-.64,1.32-.39.12.32,3.15.68,3.15.38,0-.33,1.99-.26,2.9.11.86.35,2.33.15,1.73-.24-.72-.47,1.15-1.35.7.41-.23.87.57.24.36-.1-.46-.75,5.42.11,5.42-.54,0-.4,1.24-.42,1.63-.04.67.67,11.84-.05,13.06-.69,1.55-.83,1.03.86,2.36.15.91-.48,1.71-.18,2.74-.42.37-.09.79.02.99.26.46.56,1.34.53,1.56-.05.12-.31.35-.4.69-.26.85.35,2.68.38,2.61.05-.08-.4,1.12-.68.83-.23-.26.42.32.33,1.52.48,1.42.18.69-.46,1.26-.46.17,0,.21.15.1.34-.14.23-.05.28.3.15.75-.29,1.43-.1,1.19-.49-.58-.93,1.61.71,1.17,0-.36-.59.71.21,1.51-.24.94-.52,1.68.71,2.14-.05.46-.75.85.51,1.26.1.35-.35,1.27,1.03.89.04-.37-.97.36.29,1.61-.19,1.18-.45.08.37,3.14.28,2.69-.08,2.65.45,2.9.04.13-.22.32-.2.61.04.88.73-.47-.9.57-.49.97.38,3.08.39,2.93,0-.26-.67,2.37.32,3.78-.6.78-.51.81-.51,1.32.13.29.36.59.81.67,1.01.22.54.39-.22,1.07-.22s-.2-.59,1.55-.66c2.05-.08,337.08-.33,338.28.08,1.2.41,3.01.21,3.01-.33s.72-.52,1.26.02c.5.5,2.77.43,3.1-.1.12-.19.43-.26.7-.16.75.29-.18.71.89.71,1.53,0,.12-1.04,2.07-.34,1.32.47,2.34.34,3.45.31.96-.03,1.51.7,1.76-.24.31-1.19,1.19.45,2.08-.28.54-.45.33.02,2.12.7,2.65,1.01,1.09-.97,3.04-.23,1.44.54.69-.2,1.64-.2.24,0,.36.12.27.27-.22.36,1.03.75,1.27.39.18-.27,2.89-.86,3.2-.11.32.77,5.31,1,5.31.61,0-.51,1.03.48,1.3.04.22-.35,2.23.27,2.42.75.11.29.24.28.57-.06.51-.51,1.56-.58,1.56-.1,0,.55,2.22-.17,2.52.31.24.39,3.38,0,4.41-.1.38.45,1.69,2.05,1.45,1.4-.16-.44-.11-.5.31-.31.71.32,3.28.37,3.47.07.32-.52,1.2.84,2.73-.14.41-.26.64-.37.52-.23-.35.38,1.32.99,1.76.64.2-.16.37-.19.37-.06s.26-.01.58-.3c.85-.77.28.15,1.1.14.44,0,.45-.05.07-.29-.38-.25-.37-.28.05-.29.81,0,.5,1.19,1.35-.48.79-1.54.13-1.57.72-1.57.62,0,1.01-.75.55-.47-.49.3-.4-1-.08-1,.48,0,.6-1.3.18-1.93-.32-.5-.35-.87-.11-1.76.4-1.48.56-1.71.85-1.24.15.24.2.05.14-.48-.39-3.64-1.1-2.14-1.28-3.3-.21-1.4,1.56.46.83-.9-.18-.34-.23-.77-.12-.97.3-.49.41-1.73.17-2.1-.39-.62.29-1.83-.46-1.54-.54.21-1.03-.66-.22-.87,1.01-.26.06-1.65.61-1.99.45-.28-.34-.91.42-1.2.39-.15.41-.24.1-.44-.29-.19-.3-.25-.02-.25.51,0,.41-.89.15-.85-1.58.25-1.36-.91-.9-.91s-.1-.11.27-1.09c.5-1.33-.82-1.34,0-1.85.68-.42.34.31.95.31.19,0-.02-.33-.46-.74-.96-.89-.95-.86-.2-1.62.43-.43.52-.71.31-.96-.41-.5-.91-2.82-.6-2.82.39,0-.28-.88.32-.88.72,0,.09-2.21.96-2.7,1.01-.57-.66-.45-.37-1.58.29-1.13-1.17-1.05-.23-1.73.43-.31.43-.38.04-.53-.62-.24-.56-.8.1-.97,1.18-.31-.65-1.88.42-2.48.64-.36.64-1.3-.02-1.72-.49-.31-.49-.32,0-.17.84.26.22-.53.88-.8.23-.09.18-.16-.12-.17-.47-.02-.57-.68-.16-1.09.3-.3.25-.75-.06-.56-.4.25-.57-.5-.25-1.12.16-.3.17-.63.03-.73-.21-.15-.3-1.92-.12-2.37.28-.69.1-1.87-.32-2.14-.35-.22-.42-.46-.25-.78.34-.64-.01-4.7.35-5.17.38-.49.56-2.73.22-2.73s-.46-2.63.08-2.63c.27,0,.27-.07-.02-.25-.3-.19-.25-.28.21-.4.91-.24.44-1.97.28-1.97-.44,0-.51-.97-.1-1.55ZM21.21,45.29c-.23.23-.19-1.1.02-.56.08.21.07.46-.02.56ZM21.62,47.71c-.39,0-.39-.68,0-.44.43.27.34.44,0,.44ZM22.95,59.99c-.15,0-.61-.58-.18-.58s.33.58.18.58ZM1888.09,16.15c.38,0,.39.49,0,.73-.39.24-.39-.73,0-.73ZM1403.79,9.43c.39,0,.39.58,0,.58s-.39-.58,0-.58ZM1090.57,16.73c-.25,0-.37-.13-.27-.3.28-.46,1.33.3.27.3ZM1039.01,12.5c.49.3-.3,1.26-.3.27,0-.25.13-.37.3-.27ZM54.62,14.1c.42,0,.33.58.18.58s-.61-.58-.18-.58ZM27.46,66.69c0-.42.58.03.58.18s-.58.25-.58-.18ZM80.36,122.24c-.39,0-.39-.68,0-.44.43.26.34.44,0,.44ZM1066.05,126.02c-.23.38-.97.51-.44-.13.4-.48.76-.38.44.13ZM1105.35,122.53c-.39,0-.39-.58,0-.58s.39.58,0,.58ZM1425.2,122.24c-.91,0,.41-1.48.41-.45,0,.25-.19.45-.41.45ZM1446.76,121.92c-.85.03-1.9-1.02-.15-.27.39.17.44.26.15.27ZM1504.33,125.12c0-.3,1.7-.46,2.11-.21.88.56-2.11.35-2.11.21ZM1511.2,125.16c-.59,0-.58-.62,0-.4.6.23.56.4,0,.4ZM1518.12,124.39c.19-.12.24-.07.13.11-.11.17-.03.37.16.43.25.08.26.18.03.32-.42.26-.75-.59-.32-.86ZM1860.84,124.83c-.21-.1-1.1-.2-1.1-.58s1.17.32,1.17.48c0,.07-.03.12-.07.1ZM1871.14,124.58c-.61-.4.21-.38.44,0,.22.36.12.36-.44,0ZM1918.34,79.68c-.36.14-.39.06-.14-.41.71-1.33.83.14.14.41ZM1919.12,59.58c-.49-.3-.2.53-.63.26-.38-.24-.39.36,0,.49.57.19-.67,1.97.11,4.66.42,1.44-.77.38-.49,3.81.25,3.09.7,2.04.87,3.17.22,1.43-1.16-.73-1.03,1.28.1,1.49.62.58.77,1.55.2,1.31-.94-.48-.98,1.38-.03,1.44.17.5.76,1.21.28.34.29.53.03.79-.26.26-.34.24-.34-.07,0-.56-.92.61-.57,1.04.37.45-.54,1.21-.19.93.75-.59,1.18,1.89.61,3.51-.07.2.01.37.19.37.42,0-.17.81.28,1.35.52.63-.54.46-.72.04-.2-.49-.01,2.17-.34,2.73-.13.23-.14.32-.01.21.2-.18,1.03.4,1.03.72,0,.18-1.17,1.35-1.16,1.79,0,.18.13.12.29-.12.33-.5.35-.42.4,1.17.02.79-.08,1.13-.31,1.04-.19-.07-.35.09-.35.36-.02.95-.4,2.6.05,3.4.67,1.21-.08,3.61-.54,3.78-.25.1-.37.05-.27-.12.1-.16.04-.29-.13-.29-.83,0,.39,2.12.63,1.41.15-.46.66,1.04.09.83-.68-.26-1.21,1.07-.87-.34.27-1.15-.28-.78-.36.66-.12,2.13,1.54,1.13.61,2.54-.7,1.07.21.57,0,1.79-.21,1.18.23.93.37,1.88.05.34-.02.32-.31-.07-.48-.65-.83-.32-.44.41.42.78-.28,1.32.26.98.57-.35-.08.23.44,1.31.67,1.38.35,4.73-.41,4.25-.24-.15-.46,1.04.11.82.45-.17.58.01.85,1.13.16.68.1.8-.42.8-.36,0-.53.13-.41.32.33.53-.48,2.85-1.14,3.27-.59.37-1.6.4-3.98.13-1.58-.18-2.21.53-2.51.05-.28-.45-1.29.1-1.29-.24,0-.17-1.73-1.52-2.46-.91-.31.26-.46.27-.46.05,0-.49-.79-.39-.99.12-.32.83-1.12-.39-1.75-.21-.41.12-.88-.68-1.33-.4-.55.34-1.34-.82-1.71-.25-.2.3-2.11,1-2.11.18,0-.75-1.52-.69-1.31-.35.23.37-.64.39-.87,0-.31-.5-.98.64-1.83.11-.55-.34-2.71-.33-3.27.02-.19.11-.54.04-.8-.17-1.12-.93-3.31-1.25-3.31-.49,0,.15-.3.24-.66.2-1.03-.13-1.14.54-1.86-.17-.58-.58-3.11-.63-3.78-.07-.28.23-.55.22-.99-.06-1.04-.65-.08-.78-2.19-.78-2.55,0-1.44,1.11-2.43.59-.42-.22-2.14-.21-2.96.03-.1.03-.55-.19-1-.49-1.54-1.03-.83.41-2.65.41-1.17,0-.6.94-1.15.21-.48-.64-2.59-.93-2.36-.33.21.54-.33.53-.88-.02-.46-.46-1.07-.59-1.07-.22,0,.38-337.35.39-337.8.02-.57-.47-2.38-.49-2.76-.02-.24.29-.41.3-.72.04-.32-.27-.37-.25-.24.09.34.89-2.09.66-3.06.16-3.9-1.98-1.98,2.28-4.03.37-.66-.62-1.24-.77-1.24-.33,0,.37-1.44.6-1.65.26-.34-.54-2.49.54-4.53.03-1.27-.32-1.38.77-1.62.11-.21-.58-1.17-.42-1.34.22-.11.43-.29.53-.69.37-.5-.2-.5-.22-.03-.32.97-.2.51-.64-.66-.64-1.82,0-.72.74-1.92.28-1.12-.43-1.36.37-2.36,0-.49-.19-.73-.13-.92.2-.23.41-.3.41-.7,0-.61-.61-.39-.04-2.1-.15-1.87-.11-2.1,1.05-2.29.5-.07-.21-.28-.16-.59.15-.56.56-.94.63-.63.11.15-.25.06-.24-.27.04-.42.34-.49.34-.49-.06,0-.74-4.38-.06-4.68.02-2.6.65-1.68-.2-2.56-.15-1.13.07-1.67-.72-1.91.22-.2.78-.76.75-2.42-.13-.75-.4-1.21-.54-1.02-.32,1.05,1.27-2.95.11-3.69,1.04-.62.79-.67-.29-2.55-.29-1.4,0-1.17-.58-1.79-.58-.52,0-.56.78-.06.96.2.07.27.24.15.37-.39.42-1.35-.79-2.1-.17-.73.61-1.91-.26-1.92.37,0,.21-.19.13-.44-.2-.31-.41-.74-.55-1.52-.52-1.54.08-4.18.09-4,.38.19.3-.46.69-.46.28,0-.46-.88-.16-.88-.61,0-.55-2.99,1.47-3.87.25-.21-.3-.24-.27-.12.11.21.67-.35.98-.78.44-.51-.63-7.85-1.26-7.6-.62.22.56-.32.7-1.11.29-1.25-.65-3.14-.78-3.44-.24-.57,1.03-1.44-.78-2.06.29-.19.32-.29.36-.3.12,0-.29-.11-.28-.46.06-.44.44-1.31.35-1.31-.13s-3.8.27-3.8-.55c0-.29-.08-.34-.22-.13-.36.54-1.52.77-1.98.39-.34-.29-.42-.26-.42.16,0,.48-.04.48-.77,0-.42-.28-.67-.34-.54-.13.17.27.06.32-.4.2-.35-.09-.56-.05-.47.1.22.35-1.32.34-.84.04,1.58-1.01-1.07-1.41-1.07-.85,0,.15-.43.2-.95.13-1.04-.15-2.56.26-2.56.7s-.7-.39-1.59-.05c-1.27.47-2.86.65-2.64.29.15-.24.03-.28-.41-.15-.86.27-3.43-.13-2.92-.46.26-.16.28-.25.05-.25-.74,0-1.53,1.72-3.79,1.34-1.58-.27-5.8-.34-6.18-.57-.41-.26-2.1.5-2.1.09,0-.34-247.01-.41-247.01.12,0,.46-1.86.62-1.65-.18.17-.67-.39-.36-.4.31,0,.42-.05.43-.28.06-.29-.45-2.64-.52-3.32-.1-.54.34-1.17.22-1.32.66-.17.51-.58.35-.53-.2.05-.61-1.24-.85-2.08-.4-1.14.61-4.01-1.06-7.15-.05-1.32.42-1.41.41-2.18-.19-.72-.56-.84-.58-1.14-.18-.35.48-1,.62-1,.23,0-.26-1.37-.25-1.64.01-.27.27-1.68-1.67-1.4-.88.15.42,0,.51-.78.51-1.35,0-.22.21-1.23.72-.55.27-.74.23-1.15-.27-.88-1.07-.36.33-2.21-.31-.87-.3-1.13-.29-1.46.04-.49.49-.85.52-1.11.09-.28-.45-1.48.16-1.74-.27-.33-.53-1.1-.34-.91.22.17.49.16.49-.22,0-.44-.57-2.12-.7-2.29-.18-.15.45-1.74.23-1.52.58.27.43-.73.28-1.51-.23-1.4-.92-.5.54-2.43-.3-2.14-.94-2.91-.03-5.04.08-1.08.05-1.35-.02-1.23-.33.36-.94-2.12.79-2.41.04-.35-.92-.05.55-2.55.23-2.09-.27-1.73-.76-2.05-.72-.59.08-.78-.01-.61-.29.13-.22.03-.23-.35-.03-.93.49-4.57.93-4.96.61-.19-.16-1.35-.32-2.57-.35-2.58-.06-2.2-.64-2.58-.12-.79,1.07-4.58-1.2-5.58.23-.27.38-.49.48-.62.28-.28-.45-.74.16-.74-.31s-.42.13-.94-.18c-.56-.35-1.99-.42-1.99-.11,0,.41-.98.36-1.42-.08-.3-.29-.45-.26-.75.15-.41.56-1.34.7-1.34.2,0-.46-1.17.19-1.17-.21,0-.34-2.67-.11-3.13.28-.41.34-1.06.04-.8-.36.3-.49-2.77-.48-2.58-.18.25.4-2.3-.37-2.95.17-.31.26-.51.23-.85-.11-.52-.52-1.37-.6-1.37-.12s-1.39-.09-1.64.31c-.28.46-1.67-1.46-2.32-.92-.61.5-3.38.59-4.05.13-.41-.29-1.06-.35-2.27-.23-3.19.33-2.79-1-4.2-.08-.62.41-.73.41-.73.05,0-.8-2.63.11-2.63-.56,0-.2-.12-.16-.29.09-.24.37-.28.35-.29-.11,0-1.23-3.09.73-1.61.24,1.56-.51-1.98,1.27-1.49-.02.13-.35.06-.42-.3-.29-.8.31-1.28-.8-1.29-.08,0,.31-.07.31-.29-.04-.19-.29-.28-.32-.29-.07,0,.5-.66.42-.49.15.22-.35-3.3-.31-1.78.32.58.24-1.74-.38-1.42.14.13.22.05.27-.25.16-.54-.21-.6-.69-.09-.72.2-.01.1-.13-.22-.27-.44-.19-.74-.08-1.22.45-.85.94-.19.1-2.72.09-2.96-.01-2.61-.8-3.54-.15-.61.42-1.73.34-1.73-.13,0-.36-1.38-.33-1.61.03-.26.42-1.76.36-2.92-.13-.97-.4-1.02-.39-1.58.37-1.21,1.64-571.88-1.22-574.02-.11-1.18.61.01-.32-4.79-.2-1.14.03-5.54.25-6.54-.37-.36-.22-1.2.16-1.01.47.18.29-.92.19-1.22-.11-.28-.28-1.04.45-1.7.19-.3-.11-.46-.01-.46.29,0,1.15-.97-1.63-3.04-.61-.74.36-4.27.46-4.27.12,0-.15-.26-.2-.59-.12-.32.08-.99,0-1.48-.19-1.69-.64-.74.6-2.31.48-3.59-.26-3.35-1.3-3.57-.62-.25.76-1.32-.67-2.04.04-.6.59-1.48.83-1.7.47-.29-.46-2.33-.71-2.33-.28,0,.2-.18.15-.46-.12-.69-.69-1.69-.61-1.5.12.34,1.3-.82-.85-3.38.32-.56.25-.91.2-1.79-.3-.6-.34-1-.46-.88-.27.37.6-1.34-.24-1.34.22,0,.51-.96.63-1.45.19-.66-.6-.88.07-.88-.41,0-.27-.15-.27-.62-.02-1.04.55-.88-.66-1.25-.06-.29.46-1.41-.17-.85.24.39.29.19,1.2-.77.69-.97-.52-1.3.24-2.1-.48-.8-.72-.24.18-1.04.18-.84,0,.2.42.2.99,0,.16-.16.08-.37-.18-.43-.56-1.64-.76-2.26-.37-.54.33-2.42.2-2.67-.2-.31-.5-.07.66-1.34.46-1.95-.31-7.84.04-9.94.59-2.79.73-1.48-.55-3.39-.22-1.87.33-3.43.3-3.43.86,0,.53-.23.52-.77-.03-.47-.47-248.34-.61-248.34-.18s-1.74.55-2.27.15c-.35-.26-.61-.28-.87-.06-.65.54-2.97-.3-4.3.39-1.28.66-1.54-.6-5.63.29-1.41.31-.1-1.57-1.08-.76-.37.31-.46.31-.46-.02,0-.33-.05-.33-.27.01-.38.61-4.55.79-3.68.87.57.05.57.06.02.47-.5.38-.6.36-.97-.16-1.17-1.66-1.83,1.12-3.27.1-1.19-.84-.32.3-2.53,0-2.36-.32-2.77.92-3.55-.03-.23-.28-.34-.35-.23-.15.12.23-.03.37-.4.37-.99,0-.79.96-1.37.17-.23-.32-.44-.39-.56-.19-.25.4-.74.4-.74,0,0-.45.58.2.58-.26,0-.42-.38-.39-.85.06-.31.3-.35.23-.17-.37.44-1.54-.32.7-1.11.05-.72-.6-.44.25-1.32.24-.43,0-.43-.04-.06-.29.26-.17.3-.29.09-.29-.48,0-.59.58-1,.58-.16,0-.21-.13-.11-.29.68-1.1-3.92,1.89-3.24.12.27-.7-.29-.45-.69.31-.6,1.13-.67.16-2.23.16-.32,0-.41-.16-.29-.48.15-.4.11-.42-.25-.12-.61.51-.92-.12-1.18.29-.27.44-.88-.3-1.46.49-.86,1.18-.39-.67-2.75-.3-2.26.36-2.77-1.03-3.31-.07-.38.69-.86.18-.7-.06.22-.36-1.84-.37-2.5-.02-.44.23-.56.24-.42,0,.27-.44-.8-.4-.58-.06.3.48-5.85.46-7.03-.19-.95-.52-3.6.59-9.36.07-3.09-.28-1.58.5-4.06.05-2.78-.5-1.75.79-2.97.02-.2-.13-.46-.02-.61.26-.23.42-.29.42-.44.03-.23-.59-1.24-.41-1.19.21.04.48-.21.47-1.58-.04-.53-.2-.09.51-1.04.51-1.12,0-1.09.85-1.63.19-.68-.83-3.28-.73-2.22-2.34.27-.41.35-.78.19-.88-.42-.26.33-2.31-.08-2.05-.68.42.15-4.85-.19-4.85-.52,0-.73-2.53-1.08-3.32-.14-.3-.13-.62.02-.73.51-.37.78-4,.36-4.8-.56-1.06,1.96-.77.22-1.21-.79-.2-.8-.22-.3-.78,1-1.11-.73-.33-.74-.94,0-.44-.08-.82.36-.73.86.17-.39-4.45.41-6,.23-.45.34-.93.26-1.08-.09-.14-.03-.35.13-.45.43-.27.37-.81-.07-.56-.29.16-.29.13,0-.19.5-.54.42-1.11.11-.61-.34.54-.82-.15-.04-.4.69-.22.77-.68.15-.92-.24-.09-.34-.32-.23-.5.43-.69.7-3.11.34-3.11-.14,0-.26.16-.26.35,0,.46-.75-.07-.36-.83.43-.84-.23-1.48.39-1.12.29.17.27.07-.05-.32-1.14-1.4.56-1.38-.39-2.43-.58-.64-.61-1.32-.05-1.1.41.16.41-.05.11-2.65-.02-.2-.15-.37-.29-.37-.35,0-.3-1.68.05-1.9.48-.3-.23-3.25.28-2.48.56.83.3.03-.33-1.05-1.26-2.13.72-.78.18-2.67-.93-3.3-.3-1.1-.24-4.91.03-1.61.18-2.66.44-2.98.34-.42.34-.45-.02-.24-.31.19-.37.13-.22-.25.11-.28.08-.43-.07-.34-.23.14-.62-.46-.58-.9,0-.1-.16-.29-.37-.43-.94-.59,1.95.39.48-1.55-.49-.65-.57-2.28-.14-3.09.2-.37.19-.81-.04-1.37-.47-1.15-.34-5.37-.67-5.9-.73-1.18-.32-5.92-1.48-8.7-1.14-2.73.44-1.22.44-2.45,0-.86-.88-.65-.88-1.57,0-.35-.15-.79-.32-.97-.37-.37-.07-1.06.35-.8.45.28.31-.7-.28-1.9-.38-.79-.46-1.23-.24-1.44.58-.58-.88-1.76-.16-2,1.62-.54-2.04-4.43-.65-5.45.36-.26.42-.44.18-.59-.54-.34-.39-1.29.25-1.49.32-.1.58-.3.58-.44,0-.67,4.09.49,3.59.99-.12.12,0,.13.26.03.9-.34.64-1.49,1.11-.73.52.85,1.08-.97,1.82-.36.53.43,3.04.15,3.93-.43.7-.46.77-.46,1.12,0,.73,1,3.24-.4,4.9.33.39.17.51.09.51-.36,0-.5.17-.58,1.14-.53,1.91.1,1.79,1.07,2.47.51.58-.48.44.25,1.49-.44.89-.59,1.37-.61,1.16-.07-.28.72,2.94.93,2.65.45-.09-.15.04-.27.3-.27.67,0-.03.58.42.58.17,0,.31.22.31.48,0,.38.14.34.66-.22,1.02-1.09,3.73-.8,3.73-.55,0,.47.88.32,1.07-.18.26-.69,0,.17,1.92.38,1.18.13,1.33.08,1.52-.54.13-.41.27-.54.36-.32.08.2.28.29.43.19.64-.39.81.99,1.57,0,.23-.31.42-.41.43-.24.01.47.98.39,1.35-.12.59-.8,1.21.82,1.73.82.81,0,.85.03.44.32-.36.26-.35.29.1.14.72-.23.78-.07.78-.6,0-.61.48-.81.93-.39,1.46,1.38,3.19-.74,2.79.32-.26.67.59.24.79-.27.21-.53.76-.54.76,0s.88.81.88.46c0-.4.98-.17.75-.54-.28-.45.73-.64,1.16-.21.44.44,1.89.3,1.89-.19,0-.41.44.04.45.47,0,.19.19.3.41.25.87-.19-1.02,1.15.11.73.77-.29,1.16-.11.91-.52-.42-.69,2.21.29,2.21-.71,0-.6.58-.51.58-.15s2.15.4,1.9,0c-.28-.45.19-.35.76.17.71.65,3.19.89,3.19.32s1.08-.83,1.54-.37c.53.53,1.52.72,2.09.4.78-.44.8.38,1.96.32,1.92-.1,2.88.82,3.52-.22.5-.8,1.51-.78.83-.3-.82.57.5-.33,1.62.4.43.28.69.34.64.14-.11-.48.86-.57,1.24-.12.58.7,1.8-.33,2.39.03.14.09.44.02.65-.16.28-.24.62-.24,1.23,0,3.96,1.51,4.56.1,5.07.42.47.29-.02-.59.52-.55,2.55.2-.25.91,3.14.87,1.59-.02,1.9-.1,1.9-.52,0-.7,247.17-.27,246.8.17-.19.23-.06.33.43.33,1.32,0,.25-1.75,1.1-.6.64.88,1.52,0,1.81.48.28.46.94.29.9-.24-.03-.32.17-.5.54-.5.92,0,.06.55,1.19.84.91.23,2.74-.6,2.78-1.25.02-.26.12-.15.23.25.44,1.57,6.51-.08,7.71,1.59.15.2.43.07.8-.38.56-.67,1.46-.7,1.46-.05,0,.39.88.38.88.06s2.27-.4,2.48-.06c.33.53,2.6.66,3.49.2.63-.33,1-.36,1.42-.14.41.22.51.21.37-.02-.25-.41.3-.48.53.12.23.59,1.09.57.89.04-.22-.58,1.2-.78,1.93-.26.33.23.8.35,1.05.25.88-.34,1.42.82,1.99.07.47-.62,1.64.23,1.43.44-.48.48,1.66-.14,1.66-.86,0-.93.56.49,1.24-.04.52-.41,1.97-.63,1.97-.31,0,.26.74,1.31.96.72.15-.39,3.28-.47,4.44-.11.86.27,2.27-.4,3.48,0,1.27.43,1.16-.28,2.88-.22.84.03,1.03-.05.8-.32-.45-.55.59-.72.59-.47,0,.33.95.31,1.39-.04.61-.48,1.69.83,1.96.39.33-.53,2.91-.67,3.8-.2.89.46,1.48.37,1.14-.18-.13-.22-.02-.25.36-.09,1.08.45,1.97.55,1.75.2-.33-.53,1.13-.13,1.47-.68.14-.23.29-.13.45.29.23.62,1.42.92,1.42.36,0-.45,4.52.14,4.19-.38-.36-.57,1.28.38,1.69-.28.37-.6,1.28.28,1.21.6-.08.34.84.09,1.11-.3.22-.33,2.06-.39,2.74-.1.4.17.5.15.35-.1-.29-.47,1.12-.5.9.06-.2.52,1.01.26,1.34-.3.42-.7,572.71.52,572.91-.09.35-1.06,2.62,1.21,3.33.46.47-.5,1.35.08,3.47-.63,1.46-.48,1.55-.48,1.91,0,.53.72,1.12.09,1.41.38.37.37,1.48.2,1.84-.28.53-.71,2.07-.3,1.63.43-.11.19.04.15.34-.09.41-.33.57-.35.66-.08.09.26.28.28.66.08.99-.53,2.34.45,2.34-.4,0-.52.77-.62,1.44-.2.86.54.64-1.07,1.57-.14.27.27.49.39.49.27,0-.42,1.16,1.26,1.17-.04,0-.44.05-.45.29-.07s.38.26.35-.29c0-.1.68-1.17.95-.31.32,1.01,2.91.1,3.25.65.28.45.95.26,1.14-.32.28-.88.76-.02,1.47-.6.49-.4,1.45-.16,1.17.29-.2.33-.24.32,2.59.39,1.38.03,2.05-.06,2.15-.32.18-.46,2.81-.51,2.12-.07-.66.43.88.44.88-.15,0-.49.74-.6,1.02-.15.23.37,2.27.39,2.64.03.54-.52,1.85-.48,2.25.07.37.5.46.51,1.69.05,3.4-1.26,1.55.15,3.33.15,2.08,0,2.36,1.01,2.76-.05.37-.99.2.2,1.38-.25.95-.36,1.37-.36,1.14.01-.1.16,0,.29.2.3.66,0,1.7.49,1.7.03s-1.17-.21-1.17-.62c0-.39,2.05-.39,2.05,0,0,.41.9.14,1.4.64.25.25.35.26.35.02,0-.18.23-.33.51-.34,1.2,0,5.26-.3,6.11,0,1.28.45.31-1.31,1.63-.99,1.04.25,1.64,1.03,1.28.44-.66-1.1,3.17.78,3.76.63.66-.16,1.9-.31,1.9-.86,0-1.06,1.6.57,2.07-.18.46-.74,2.65,1.18,3.38.17.37-.5.39-.5.39-.02s.03.48.48.03c.74-.74,6.54-.04,6.9.03.67.13.8.06.8-.45,0-.87,1.28-.73,1.06-.17-.11.28,0,.44.33.44.87,0,1.82.51,1.82.01s-.58.16-.58-.27c0-.37,2.63-.26,2.63.03,0,.23,1.17.5,1.17-.39,0-1.67,3.84,1.52,4.62.13.27-.48.32-.48.78-.02.62.62,1.15.64.92.04-.1-.26-.05-.38.11-.27.16.1.29.01.29-.19,0-.44.97.67,1.27,1,.42-1.14.39-1.32,1.07-.9.49.3.65.3.85-.02.17-.27.47-.32.94-.18.66.21.67.23.11.45-.48.19-.41.23.35.25,1.34.03,1-.56,1.87-.56,1.41,0,1.38-1.23,2.28-.04.97,1.28.98-.23,2.53.16.38.09.77.04.87-.12.24-.4,2.19-.38,2.19.02,0,.52,1.33-.27,2.66.28.72.3.95.28,1.37-.09.65-.58,3.8-.8,4-.29.22.57.98.43,1.18-.22.42-1.34,1.9.06,1.74.31-.28.45.16.61,1.2-.96,3.13,1.68.83.7,6.7.79,5.01.08,253-1.25,253-.24,0,.42.06.42.72,0,.92-.6,2.19-.6,2.63,0,.32.43.38.43.81,0,.6-.6,2.94-.62,2.27-.18-.35.23-.3.28.25.29.49,0,.64-.12.52-.43-.26-.67,1.23-.46,1.41-.16.33.53,2.2.15,2.2.61,0,.29,1.83.05,2.03-.27.09-.14.58-.34,1.08-.45.88-.19.92-.16.86.66-.05.76,0,.82.47.53.77-.48.73-1.44,1.13-1.19.4.25-.2.71.22.71.66,0-.04-.94,1.44-.4,2.48.91.07-2.25,2.31-.49.6.48.83.51,1.33.22.38-.22.64-.25.71-.06.12.33,1.73.33,2.53,0,.82-.34.59.35,1.51-.26.53-.34.73-.35,1.34-.01,1.2.66-.31.18-.31.7,0,.38.93.04,1.37-.5.31-.38.5-.38,1.61.01,2.94,1.02,2.22.13,3.16-.38.45-.24.57-.23.51.06-.12.57,2.21.67,2.67.12.34-.41,1.33-.34,1.07.08-.07.11.13.22.44.24.85.06.22-.51,1.31-.51.42,0,.67.13.57.29-.32.51.5.31.89-.22.34-.46.42-.47.91-.05,1.15.98,5.43-.26,6.55.87.31.31.56.43.56.27,0-.45,1.05-.03,1.32-.88.25-.79.68-.74,1.71.22,1.45,1.35-.28-1.19,1.56-.49.56.21,5.24.91,5.53.15.24-.63,1.07-.53.85-.18-.33.54,4.34-.29,4.63.46.21.56,1.24.55,1.46-.01.09-.24.04-.44-.11-.44-.41,0-.16.69-.56.45-.73-.45.74-1.72,1.39-.56.46.82,2.27-.03,2.52.53.08.18.31.09.55-.21.44-.54,1.24-.68,1.5-.26.46.74,5,.87,4.73.15-.29-.76.92.56,1.72-.1.25-.21.45-.24.45-.08,0,.51,1.05-.08.98.73-.05.67.48.65.48.1,0-.43,1.31-.89,1.75-.62.14.09.34.03.44-.14.25-.41,1.11-.37.89-.02-.24.4,1.94.54,2.25,1.01.15.23.22.23.22-.01,0-.6,1.17.31,1.17-.5,0-.61.78-.61,1.39,0,.9.9.13-.34,2.42-.52,2.54-.19-.02,1.03,2.23.75,1.51-.19,1.25-.49,1.75-.08.45.38,1.39.11,1.13-.33-.23-.38.19-.37,1.21.02,1.3.49,3.38.47,4.11.71.44.15,1.01-.43-.12-.46-.81-.02-.82-.02-.13-.3.54-.22.78-.17,1.07.23.38.53,1.61.71,1.92.28.3-.4,2.43-.4,2.84,0,.53.53,1.24.49,1.03-.06-.37-.95,2.2-.13.85.25-.61.17,2.54.2,3.14-.26.55-.42,2-.39,2.28.04.76,1.17,1.93-.11,2.25.41.32.51,1.02.32,1.02-.29,0-.51.09-.54.73-.25.4.18.73.44.73.58,0,.52.52.21.68-.4.32-1.24,333.9.33,335.6.34,1.89.01,3.31.17,3.52.37.38.38.66.24.76-.36.09-.55.14-.56.96-.13.56.29.91.34.97.14.12-.36.93-.43.93-.08,0,.13.23.24.51.26,2.04.13,7.09,1.61,7.09.68,0-.27.07-.57.16-.66.27-.27,1.74.25,1.67.58-.08.38.79.81.79.2,0-.68,1.61-.04,1.8.26.39.59.49-.61,1.99-.03.61.24,1.46.17,1.46-.11,0-.39,1.11.36.76-.2-.14-.22-.05-.28.24-.17.86.33-.58,1.28.28,1.28,2.03,0,.83-1.76,2.08-.41.58.62.81.71,1.14.44.32-.26.44-.26.53,0,.12.37.96-.3,1.17-.94.08-.24.35-.19.9.17,1.1.72.31,1.04.77,1.04s.09-.66.85-.53c.9.15,2.03-1.28,1.28-.31-.32.41-.27.48.37.48.53,0,.74-.16.74-.55,0-.68.51-.7,1.23-.06.39.35.63.4.86.18.53-.53,1.32,1,1.66.66.1-.1,0-.31-.24-.46-.38-.24-.37-.27,0-.26.87.03,1.31.61,2.26.18,1.4-.63,1.15,1.61,2.22.54.73-.73.29.13.8.13.45,0-.22-.92.36-.21.69.85.2-.2,1.5-.31.43-.04.71.05.62.2-.21.34.11,1.19.45,1.19.39,0,.12-1.88.56-1.6.41.26-.15.76.19.7.4-.07.78.29,3.09.37,1.49.06,0,.83,2.21,3.13.62.65-.19,1.51.5,2.08.89.74.21,2.14-.27,1.09-.22-.47.15,1.45.22,1.97.08.57,1.17,1,.91,1.67-.09.23.04.6.29.8.49.41.63,1.03.16.74-.46-.28.02.8.67,1.53,1.12,1.25-.38.9-.38,2.16,0,.6,1.33,2.34,1.59,2.08.4-.4-.43,1.88.64,4.26.97,2.14.1,1.92.96,2.72,1.03.96-.19,1.4.26,1.85.51.51-.05,3.67.76,3.67.5,0,.85,1.63.5,2.29-.46.86.61,4.07-.28,4.37-.46.15-.41.66.12,1.24.46.51.89,2.68.5,2.55-.12-.04-.25.03-.29.15-.38,1.15.6.53.98,1.14.13.21.08.26-.13.13Z"/>
  <path d="M28.77,100.89c.24.39.93.09.48-.36-.37-.38-.76-.08-.48.36Z"/>
  <path d="M28.77,59.99c.1-.17-.01-.21-.27-.11-1.03.4-.03.62.27.11Z"/>
  <path d="M71.51,122.06c-.1-.1-.35-.11-.56-.02-.54.22.79.25.56.02Z"/>
  <path d="M395.23,14.25c-.39.24-.38.82,0,.58.39-.24.38-.82,0-.58Z"/>
  <path d="M374.19,13.08c-.39-.24-.39.44,0,.44.33,0,.44-.17,0-.44Z"/>
  <path d="M423.3,13.23c-.42,0-.33.58-.18.58s.61-.58.18-.58Z"/>
  <path d="M1026.89,19.65c.15,0,.25-.58-.18-.58s.03.58.18.58Z"/>
  <path d="M1896.23,10.19c-.32.2-.32.7,0,.7s.32-.9,0-.7Z"/>
  <path d="M98.64,12.64c-.15,0-.61.58-.18.58s.33-.58.18-.58Z"/>
  <path d="M1429.53,7.96c-.42,0-.33.58-.18.58s.61-.58.18-.58Z"/>
  <path d="M1923.27,103.39c.22-.58-.4-.58-.4,0s.17.6.4,0Z"/>
  <path d="M1061.14,17.72c-.1-.1-.35-.11-.56-.02-.54.22.79.25.56.02Z"/>
  <path d="M1520.53,118.73c.15,0,.61-.58.18-.58s-.33.58-.18.58Z"/>
  <path d="M1425.46,15.1c.31-.19.06-.71-.34-.71-.35,0-.02.93.34.71Z"/>
  <path d="M1916.06,107.44c-.1-.1-.05-.46.11-.8.56-1.17-.63.42-.44.74.21.34.56.3.32.06Z"/>
  <path d="M1094.72,127.35c-.24.63-.04.52.4,0,.5-.6-.18-.57-.4,0Z"/>
</svg>